<svg width="67" height="172" viewBox="0 0 67 172" fill="none" xmlns="http://www.w3.org/2000/svg">
<path d="M2.16166 2.32839C0.894507 2.87675 0.311809 4.34851 0.860164 5.61566C1.40852 6.88281 2.88028 7.46551 4.14743 6.91716L2.16166 2.32839ZM57.6112 34.3201L55.4862 35.637L57.6112 34.3201ZM24.54 169.812C24.865 171.154 26.2164 171.978 27.5583 171.653L49.4258 166.356C50.7677 166.03 51.592 164.679 51.2669 163.337C50.9419 161.995 49.5905 161.171 48.2486 161.496L28.8108 166.205L24.1021 146.767C23.777 145.425 22.4257 144.601 21.0838 144.926C19.7419 145.251 18.9176 146.602 19.2427 147.944L24.54 169.812ZM8.904 5.74816C10.2707 5.55199 11.2196 4.28503 11.0234 2.91832C10.8273 1.55162 9.56031 0.602711 8.1936 0.798881L8.904 5.74816ZM20.1229 1.07602C18.7648 0.827496 17.4623 1.72703 17.2138 3.08519C16.9652 4.44335 17.8648 5.74583 19.2229 5.99436L20.1229 1.07602ZM29.1266 9.31868C30.3653 9.92859 31.8639 9.41885 32.4738 8.18015C33.0837 6.94145 32.574 5.44286 31.3353 4.83295L29.1266 9.31868ZM41.1689 11.1646C40.0929 10.2994 38.5192 10.4703 37.6541 11.5464C36.7889 12.6224 36.9598 14.196 38.0359 15.0612L41.1689 11.1646ZM45.8064 22.5079C46.7253 23.5384 48.3056 23.6289 49.3361 22.71C50.3667 21.7911 50.4571 20.2108 49.5382 19.1802L45.8064 22.5079ZM56.5964 28.2042C55.8111 27.0685 54.2539 26.7845 53.1183 27.5698C51.9826 28.3552 51.6987 29.9124 52.484 31.048L56.5964 28.2042ZM57.7381 39.8741C58.3066 41.1323 59.7875 41.6914 61.0457 41.123C62.304 40.5545 62.8631 39.0736 62.2946 37.8154L57.7381 39.8741ZM65.5856 48.0766C65.3033 46.7251 63.9788 45.8583 62.6273 46.1406C61.2757 46.4228 60.4089 47.7473 60.6912 49.0989L65.5856 48.0766ZM61.8756 58.8686C61.9367 60.248 63.1044 61.3166 64.4838 61.2555C65.8632 61.1944 66.9318 60.0267 66.8707 58.6473L61.8756 58.8686ZM66.6831 69.1964C66.7852 67.8195 65.7518 66.6205 64.3749 66.5184C62.9979 66.4163 61.7989 67.4497 61.6968 68.8266L66.6831 69.1964ZM60.4908 78.7937C60.2671 80.1562 61.1903 81.442 62.5528 81.6656C63.9152 81.8893 65.2011 80.9661 65.4247 79.6036L60.4908 78.7937ZM63.3698 89.8267C63.6864 88.4828 62.8535 87.1367 61.5096 86.8201C60.1657 86.5035 58.8196 87.3364 58.503 88.6803L63.3698 89.8267ZM55.9038 98.4601C55.5139 99.7847 56.2716 101.174 57.5961 101.564C58.9207 101.954 60.3104 101.197 60.7003 99.872L55.9038 98.4601ZM57.5393 109.754C57.9888 108.449 57.2948 107.026 55.9893 106.577C54.6838 106.127 53.2611 106.821 52.8116 108.127L57.5393 109.754ZM49.3149 117.669C48.8157 118.956 49.4546 120.404 50.7419 120.904C52.0292 121.403 53.4775 120.764 53.9767 119.477L49.3149 117.669ZM50.0769 129.046C50.6188 127.776 50.0286 126.308 48.7586 125.766C47.4887 125.224 46.0199 125.814 45.4781 127.084L50.0769 129.046ZM41.3401 136.388C40.7605 137.641 41.3066 139.127 42.5598 139.706C43.813 140.286 45.2987 139.74 45.8783 138.487L41.3401 136.388ZM41.4111 147.802C42.0251 146.566 41.5204 145.065 40.2837 144.451C39.047 143.837 37.5468 144.342 36.9327 145.579L41.4111 147.802ZM32.2625 154.675C31.6152 155.894 32.0792 157.408 33.2988 158.055C34.5184 158.702 36.0318 158.238 36.6791 157.019L32.2625 154.675ZM31.7118 166.061C32.3954 164.862 31.977 163.335 30.7773 162.651C29.5777 161.968 28.0511 162.386 27.3675 163.586L31.7118 166.061ZM3.15454 4.62278C4.14743 6.91716 4.14697 6.91735 4.14651 6.91755C4.14637 6.91761 4.14593 6.9178 4.14564 6.91793C4.14508 6.91817 4.14455 6.9184 4.14404 6.91862C4.14303 6.91905 4.14214 6.91944 4.14137 6.91977C4.13982 6.92043 4.13875 6.92089 4.13814 6.92115C4.13693 6.92166 4.1376 6.92137 4.14014 6.92031C4.1452 6.9182 4.15771 6.91302 4.17753 6.90507C4.21716 6.88917 4.28597 6.8622 4.38285 6.8265C4.57668 6.75507 4.88239 6.64887 5.29123 6.52651C6.10942 6.28161 7.33678 5.97311 8.904 5.74816L8.1936 0.798881C6.3547 1.06283 4.88493 1.42895 3.85753 1.73646C3.34355 1.8903 2.93935 2.02975 2.65397 2.13491C2.51124 2.18751 2.39812 2.23157 2.31572 2.26463C2.27452 2.28116 2.24099 2.29495 2.21527 2.30567C2.20241 2.31104 2.1915 2.31564 2.18256 2.31944C2.17809 2.32134 2.17411 2.32304 2.17063 2.32453C2.16888 2.32528 2.16727 2.32598 2.16577 2.32662C2.16502 2.32694 2.16431 2.32725 2.16362 2.32755C2.16328 2.32769 2.16279 2.32791 2.16262 2.32798C2.16213 2.32819 2.16166 2.32839 3.15454 4.62278ZM19.2229 5.99436C22.2244 6.54359 25.5638 7.5644 29.1266 9.31868L31.3353 4.83295C27.345 2.86819 23.5637 1.70564 20.1229 1.07602L19.2229 5.99436ZM38.0359 15.0612C40.5731 17.1012 43.1752 19.5571 45.8064 22.5079L49.5382 19.1802C46.7339 16.0353 43.933 13.387 41.1689 11.1646L38.0359 15.0612ZM52.484 31.048C53.4855 32.4964 54.4869 34.0246 55.4862 35.637L59.7362 33.0031C58.6942 31.3219 57.6471 29.7235 56.5964 28.2042L52.484 31.048ZM55.4862 35.637C56.3248 36.9903 57.0739 38.404 57.7381 39.8741L62.2946 37.8154C61.5447 36.1556 60.6942 34.549 59.7362 33.0031L55.4862 35.637ZM60.6912 49.0989C61.3398 52.2046 61.7251 55.4718 61.8756 58.8686L66.8707 58.6473C66.7099 55.0175 66.2963 51.4795 65.5856 48.0766L60.6912 49.0989ZM61.6968 68.8266C61.4549 72.088 61.0447 75.4192 60.4908 78.7937L65.4247 79.6036C65.9997 76.1008 66.4291 72.6219 66.6831 69.1964L61.6968 68.8266ZM58.503 88.6803C57.7357 91.9378 56.8618 95.2056 55.9038 98.4601L60.7003 99.872C61.6816 96.5385 62.5795 93.1819 63.3698 89.8267L58.503 88.6803ZM52.8116 108.127C51.6999 111.356 50.5265 114.545 49.3149 117.669L53.9767 119.477C55.2093 116.298 56.405 113.049 57.5393 109.754L52.8116 108.127ZM45.4781 127.084C44.1042 130.304 42.7147 133.416 41.3401 136.388L45.8783 138.487C47.272 135.473 48.6819 132.315 50.0769 129.046L45.4781 127.084ZM36.9327 145.579C35.2768 148.914 33.6992 151.967 32.2625 154.675L36.6791 157.019C38.135 154.275 39.7334 151.181 41.4111 147.802L36.9327 145.579ZM27.3675 163.586C26.5689 164.987 25.9331 166.076 25.4982 166.812C25.2808 167.18 25.1137 167.459 25.0016 167.646C24.9456 167.739 24.9033 167.809 24.8754 167.855C24.8615 167.878 24.8511 167.895 24.8444 167.906C24.8411 167.912 24.8386 167.916 24.8371 167.918C24.8364 167.92 24.8359 167.92 24.8356 167.921C24.8354 167.921 24.8353 167.921 24.8353 167.921C24.8353 167.921 24.8353 167.921 24.8353 167.921C24.8353 167.921 24.8353 167.921 24.8354 167.921C24.8354 167.921 24.8354 167.921 26.9697 169.223C29.1039 170.525 29.104 170.525 29.104 170.525C29.104 170.525 29.1041 170.525 29.1041 170.525C29.1042 170.525 29.1043 170.524 29.1044 170.524C29.1046 170.524 29.1049 170.523 29.1052 170.523C29.1058 170.522 29.1067 170.52 29.1078 170.519C29.11 170.515 29.1132 170.51 29.1173 170.503C29.1254 170.49 29.1372 170.47 29.1526 170.445C29.1835 170.394 29.2287 170.319 29.2877 170.221C29.4058 170.024 29.5791 169.734 29.8028 169.356C30.2502 168.598 30.8993 167.487 31.7118 166.061L27.3675 163.586ZM2.16166 2.32839C0.894507 2.87675 0.311809 4.34851 0.860164 5.61566C1.40852 6.88281 2.88028 7.46551 4.14743 6.91716L2.16166 2.32839ZM57.6112 34.3201L55.4862 35.637L57.6112 34.3201ZM24.54 169.812C24.865 171.154 26.2164 171.978 27.5583 171.653L49.4258 166.356C50.7677 166.03 51.592 164.679 51.2669 163.337C50.9419 161.995 49.5905 161.171 48.2486 161.496L28.8108 166.205L24.1021 146.767C23.777 145.425 22.4257 144.601 21.0838 144.926C19.7419 145.251 18.9176 146.602 19.2427 147.944L24.54 169.812ZM8.904 5.74816C10.2707 5.55199 11.2196 4.28503 11.0234 2.91832C10.8273 1.55162 9.56031 0.602711 8.1936 0.798881L8.904 5.74816ZM20.1229 1.07602C18.7648 0.827496 17.4623 1.72703 17.2138 3.08519C16.9652 4.44335 17.8648 5.74583 19.2229 5.99436L20.1229 1.07602ZM29.1266 9.31868C30.3653 9.92859 31.8639 9.41885 32.4738 8.18015C33.0837 6.94145 32.574 5.44286 31.3353 4.83295L29.1266 9.31868ZM41.1689 11.1646C40.0929 10.2994 38.5192 10.4703 37.6541 11.5464C36.7889 12.6224 36.9598 14.196 38.0359 15.0612L41.1689 11.1646ZM45.8064 22.5079C46.7253 23.5384 48.3056 23.6289 49.3361 22.71C50.3667 21.7911 50.4571 20.2108 49.5382 19.1802L45.8064 22.5079ZM56.5964 28.2042C55.8111 27.0685 54.2539 26.7845 53.1183 27.5698C51.9826 28.3552 51.6987 29.9124 52.484 31.048L56.5964 28.2042ZM57.7381 39.8741C58.3066 41.1323 59.7875 41.6914 61.0457 41.123C62.304 40.5545 62.8631 39.0736 62.2946 37.8154L57.7381 39.8741ZM65.5856 48.0766C65.3033 46.7251 63.9788 45.8583 62.6273 46.1406C61.2757 46.4228 60.4089 47.7473 60.6912 49.0989L65.5856 48.0766ZM61.8756 58.8686C61.9367 60.248 63.1044 61.3166 64.4838 61.2555C65.8632 61.1944 66.9318 60.0267 66.8707 58.6473L61.8756 58.8686ZM66.6831 69.1964C66.7852 67.8195 65.7518 66.6205 64.3749 66.5184C62.9979 66.4163 61.7989 67.4497 61.6968 68.8266L66.6831 69.1964ZM60.4908 78.7937C60.2671 80.1562 61.1903 81.442 62.5528 81.6656C63.9152 81.8893 65.2011 80.9661 65.4247 79.6036L60.4908 78.7937ZM63.3698 89.8267C63.6864 88.4828 62.8535 87.1367 61.5096 86.8201C60.1657 86.5035 58.8196 87.3364 58.503 88.6803L63.3698 89.8267ZM55.9038 98.4601C55.5139 99.7847 56.2716 101.174 57.5961 101.564C58.9207 101.954 60.3104 101.197 60.7003 99.872L55.9038 98.4601ZM57.5393 109.754C57.9888 108.449 57.2948 107.026 55.9893 106.577C54.6838 106.127 53.2611 106.821 52.8116 108.127L57.5393 109.754ZM49.3149 117.669C48.8157 118.956 49.4546 120.404 50.7419 120.904C52.0292 121.403 53.4775 120.764 53.9767 119.477L49.3149 117.669ZM50.0769 129.046C50.6188 127.776 50.0286 126.308 48.7586 125.766C47.4887 125.224 46.0199 125.814 45.4781 127.084L50.0769 129.046ZM41.3401 136.388C40.7605 137.641 41.3066 139.127 42.5598 139.706C43.813 140.286 45.2987 139.74 45.8783 138.487L41.3401 136.388ZM41.4111 147.802C42.0251 146.566 41.5204 145.065 40.2837 144.451C39.047 143.837 37.5468 144.342 36.9327 145.579L41.4111 147.802ZM32.2625 154.675C31.6152 155.894 32.0792 157.408 33.2988 158.055C34.5184 158.702 36.0318 158.238 36.6791 157.019L32.2625 154.675ZM31.7118 166.061C32.3954 164.862 31.977 163.335 30.7773 162.651C29.5777 161.968 28.0511 162.386 27.3675 163.586L31.7118 166.061ZM3.15454 4.62278C4.14743 6.91716 4.14697 6.91735 4.14651 6.91755C4.14637 6.91761 4.14593 6.9178 4.14564 6.91793C4.14508 6.91817 4.14455 6.9184 4.14404 6.91862C4.14303 6.91905 4.14214 6.91944 4.14137 6.91977C4.13982 6.92043 4.13875 6.92089 4.13814 6.92115C4.13693 6.92166 4.1376 6.92137 4.14014 6.92031C4.1452 6.9182 4.15771 6.91302 4.17753 6.90507C4.21716 6.88917 4.28597 6.8622 4.38285 6.8265C4.57668 6.75507 4.88239 6.64887 5.29123 6.52651C6.10942 6.28161 7.33678 5.97311 8.904 5.74816L8.1936 0.798881C6.3547 1.06283 4.88493 1.42895 3.85753 1.73646C3.34355 1.8903 2.93935 2.02975 2.65397 2.13491C2.51124 2.18751 2.39812 2.23157 2.31572 2.26463C2.27452 2.28116 2.24099 2.29495 2.21527 2.30567C2.20241 2.31104 2.1915 2.31564 2.18256 2.31944C2.17809 2.32134 2.17411 2.32304 2.17063 2.32453C2.16888 2.32528 2.16727 2.32598 2.16577 2.32662C2.16502 2.32694 2.16431 2.32725 2.16362 2.32755C2.16328 2.32769 2.16279 2.32791 2.16262 2.32798C2.16213 2.32819 2.16166 2.32839 3.15454 4.62278ZM19.2229 5.99436C22.2244 6.54359 25.5638 7.5644 29.1266 9.31868L31.3353 4.83295C27.345 2.86819 23.5637 1.70564 20.1229 1.07602L19.2229 5.99436ZM38.0359 15.0612C40.5731 17.1012 43.1752 19.5571 45.8064 22.5079L49.5382 19.1802C46.7339 16.0353 43.933 13.387 41.1689 11.1646L38.0359 15.0612ZM52.484 31.048C53.4855 32.4964 54.4869 34.0246 55.4862 35.637L59.7362 33.0031C58.6942 31.3219 57.6471 29.7235 56.5964 28.2042L52.484 31.048ZM55.4862 35.637C56.3248 36.9903 57.0739 38.404 57.7381 39.8741L62.2946 37.8154C61.5447 36.1556 60.6942 34.549 59.7362 33.0031L55.4862 35.637ZM60.6912 49.0989C61.3398 52.2046 61.7251 55.4718 61.8756 58.8686L66.8707 58.6473C66.7099 55.0175 66.2963 51.4795 65.5856 48.0766L60.6912 49.0989ZM61.6968 68.8266C61.4549 72.088 61.0447 75.4192 60.4908 78.7937L65.4247 79.6036C65.9997 76.1008 66.4291 72.6219 66.6831 69.1964L61.6968 68.8266ZM58.503 88.6803C57.7357 91.9378 56.8618 95.2056 55.9038 98.4601L60.7003 99.872C61.6816 96.5385 62.5795 93.1819 63.3698 89.8267L58.503 88.6803ZM52.8116 108.127C51.6999 111.356 50.5265 114.545 49.3149 117.669L53.9767 119.477C55.2093 116.298 56.405 113.049 57.5393 109.754L52.8116 108.127ZM45.4781 127.084C44.1042 130.304 42.7147 133.416 41.3401 136.388L45.8783 138.487C47.272 135.473 48.6819 132.315 50.0769 129.046L45.4781 127.084ZM36.9327 145.579C35.2768 148.914 33.6992 151.967 32.2625 154.675L36.6791 157.019C38.135 154.275 39.7334 151.181 41.4111 147.802L36.9327 145.579ZM27.3675 163.586C26.5689 164.987 25.9331 166.076 25.4982 166.812C25.2808 167.18 25.1137 167.459 25.0016 167.646C24.9456 167.739 24.9033 167.809 24.8754 167.855C24.8615 167.878 24.8511 167.895 24.8444 167.906C24.8411 167.912 24.8386 167.916 24.8371 167.918C24.8364 167.92 24.8359 167.92 24.8356 167.921C24.8354 167.921 24.8353 167.921 24.8353 167.921C24.8353 167.921 24.8353 167.921 24.8353 167.921C24.8353 167.921 24.8353 167.921 24.8354 167.921C24.8354 167.921 24.8354 167.921 26.9697 169.223C29.1039 170.525 29.104 170.525 29.104 170.525C29.104 170.525 29.1041 170.525 29.1041 170.525C29.1042 170.525 29.1043 170.524 29.1044 170.524C29.1046 170.524 29.1049 170.523 29.1052 170.523C29.1058 170.522 29.1067 170.52 29.1078 170.519C29.11 170.515 29.1132 170.51 29.1173 170.503C29.1254 170.49 29.1372 170.47 29.1526 170.445C29.1835 170.394 29.2287 170.319 29.2877 170.221C29.4058 170.024 29.5791 169.734 29.8028 169.356C30.2502 168.598 30.8993 167.487 31.7118 166.061L27.3675 163.586Z" fill="#BCD4FF"/>
</svg>
