<svg width="63" height="149" viewBox="0 0 63 149" fill="none" xmlns="http://www.w3.org/2000/svg">
<path d="M2.29429 1.83624C0.975558 2.24529 0.238114 3.64592 0.647156 4.96465C1.0562 6.28338 2.45684 7.02083 3.77557 6.61179L2.29429 1.83624ZM54.9098 32.2494L57.0458 30.9503L54.9098 32.2494ZM11.1228 146.035C11.246 147.41 12.4608 148.425 13.8359 148.301L36.2461 146.293C37.6213 146.17 38.6362 144.955 38.513 143.58C38.3897 142.204 37.1749 141.19 35.7998 141.313L15.8796 143.098L14.0942 123.178C13.9709 121.803 12.7562 120.788 11.381 120.911C10.0058 121.035 8.99086 122.249 9.11412 123.624L11.1228 146.035ZM8.4115 5.85511C9.78771 5.74371 10.813 4.53776 10.7016 3.16155C10.5902 1.78534 9.3843 0.760011 8.00809 0.87141L8.4115 5.85511ZM19.1576 1.48147C17.8004 1.2276 16.4944 2.122 16.2405 3.47917C15.9866 4.83634 16.881 6.14235 18.2382 6.39622L19.1576 1.48147ZM27.6606 9.40233C28.9161 9.97685 30.3996 9.4248 30.9742 8.16929C31.5487 6.91379 30.9966 5.43026 29.7411 4.85574L27.6606 9.40233ZM39.2092 10.5321C38.1062 9.70155 36.5388 9.92232 35.7082 11.0253C34.8776 12.1282 35.0984 13.6956 36.2013 14.5262L39.2092 10.5321ZM43.6433 21.2955C44.5813 22.3087 46.163 22.3696 47.1762 21.4316C48.1894 20.4935 48.2503 18.9118 47.3123 17.8986L43.6433 21.2955ZM54.0898 26.393C53.3039 25.2578 51.7466 24.9746 50.6113 25.7604C49.4761 26.5463 49.1929 28.1037 49.9788 29.2389L54.0898 26.393ZM54.9226 37.8901C55.4279 39.175 56.8791 39.8071 58.164 39.3019C59.449 38.7967 60.0811 37.3454 59.5759 36.0605L54.9226 37.8901ZM62.0638 47.0234C61.9456 45.6477 60.7345 44.6284 59.3589 44.7466C57.9833 44.8649 56.9639 46.0759 57.0822 47.4515L62.0638 47.0234ZM56.865 57.4823C56.7062 58.8539 57.6894 60.0944 59.061 60.2531C60.4325 60.4119 61.6731 59.4287 61.8318 58.0571L56.865 57.4823ZM59.7996 68.757C60.1439 67.4199 59.3391 66.0568 58.002 65.7125C56.6649 65.3682 55.3019 66.173 54.9576 67.5101L59.7996 68.757ZM51.8777 77.3567C51.4056 78.6541 52.0746 80.0887 53.3721 80.5608C54.6696 81.033 56.1042 80.3639 56.5763 79.0664L51.8777 77.3567ZM52.5254 89.0146C53.0899 87.7545 52.5261 86.2754 51.2661 85.7109C50.0061 85.1463 48.527 85.7101 47.9624 86.9701L52.5254 89.0146ZM43.4255 96.3502C42.7909 97.5764 43.2704 99.0849 44.4966 99.7196C45.7228 100.354 47.2313 99.8748 47.866 98.6486L43.4255 96.3502ZM42.7368 108.009C43.427 106.813 43.0172 105.284 41.8214 104.594C40.6257 103.904 39.0967 104.314 38.4064 105.509L42.7368 108.009ZM33.0001 114.459C32.2639 115.627 32.614 117.171 33.7821 117.907C34.9502 118.643 36.4939 118.293 37.2301 117.125L33.0001 114.459ZM31.3857 126.048C32.1616 124.906 31.8648 123.352 30.7227 122.576C29.5806 121.8 28.0258 122.097 27.2499 123.239L31.3857 126.048ZM21.2382 131.788C20.4261 132.905 20.673 134.469 21.7897 135.281C22.9063 136.093 24.4699 135.846 25.2819 134.729L21.2382 131.788ZM18.8489 143.272C19.699 142.184 19.5061 140.613 18.4182 139.763C17.3302 138.913 15.7591 139.105 14.909 140.193L18.8489 143.272ZM3.03493 4.22401C3.77557 6.61179 3.77516 6.61191 3.77477 6.61203C3.77464 6.61207 3.77425 6.61219 3.77401 6.61227C3.77352 6.61242 3.77306 6.61256 3.77263 6.6127C3.77176 6.61296 3.77101 6.61319 3.77038 6.61339C3.76911 6.61378 3.7683 6.61402 3.76795 6.61413C3.76725 6.61434 3.76838 6.614 3.77132 6.61312C3.77721 6.61137 3.79033 6.60749 3.81055 6.60172C3.851 6.59017 3.9198 6.57103 4.01577 6.54609C4.20777 6.49618 4.50815 6.42313 4.90757 6.3411C5.70686 6.17694 6.8996 5.97749 8.4115 5.85511L8.00809 0.87141C6.27272 1.01188 4.87802 1.24281 3.9017 1.44332C3.41331 1.54362 3.02884 1.63647 2.75793 1.70689C2.62246 1.7421 2.51529 1.77173 2.43764 1.7939C2.39881 1.80499 2.36735 1.81422 2.34341 1.82135C2.33145 1.82492 2.32135 1.82796 2.31316 1.83045C2.30906 1.8317 2.30544 1.83281 2.3023 1.83377C2.30072 1.83426 2.29927 1.8347 2.29793 1.83512C2.29727 1.83532 2.29663 1.83552 2.29602 1.83571C2.29572 1.8358 2.29528 1.83593 2.29513 1.83598C2.29471 1.83611 2.29429 1.83624 3.03493 4.22401ZM18.2382 6.39622C21.1274 6.93668 24.3118 7.86993 27.6606 9.40233L29.7411 4.85574C25.9967 3.14229 22.4193 2.09163 19.1576 1.48147L18.2382 6.39622ZM36.2013 14.5262C38.6609 16.3785 41.1571 18.6102 43.6433 21.2955L47.3123 17.8986C44.6298 15.0012 41.9132 12.5685 39.2092 10.5321L36.2013 14.5262ZM49.9788 29.2389C50.9186 30.5965 51.8513 32.0317 52.7739 33.5486L57.0458 30.9503C56.0733 29.3515 55.0872 27.8337 54.0898 26.393L49.9788 29.2389ZM52.7739 33.5486C53.6169 34.9345 54.3302 36.3834 54.9226 37.8901L59.5759 36.0605C58.8822 34.2964 58.0428 32.5894 57.0458 30.9503L52.7739 33.5486ZM57.0822 47.4515C57.3564 50.6423 57.2681 53.9994 56.865 57.4823L61.8318 58.0571C62.267 54.2972 62.3712 50.5998 62.0638 47.0234L57.0822 47.4515ZM54.9576 67.5101C54.1221 70.7545 53.0818 74.0477 51.8777 77.3567L56.5763 79.0664C57.8278 75.6272 58.9185 72.1787 59.7996 68.757L54.9576 67.5101ZM47.9624 86.9701C46.5469 90.1295 45.0218 93.2662 43.4255 96.3502L47.866 98.6486C49.5005 95.4907 51.0672 92.2691 52.5254 89.0146L47.9624 86.9701ZM38.4064 105.509C36.6228 108.599 34.8056 111.594 33.0001 114.459L37.2301 117.125C39.0666 114.211 40.9176 111.161 42.7368 108.009L38.4064 105.509ZM27.2499 123.239C25.1241 126.368 23.0919 129.24 21.2382 131.788L25.2819 134.729C27.1637 132.142 29.2269 129.226 31.3857 126.048L27.2499 123.239ZM14.909 140.193C13.8961 141.49 13.0886 142.498 12.5362 143.18C12.2601 143.521 12.0477 143.78 11.9052 143.953C11.834 144.04 11.7803 144.105 11.7449 144.148C11.7272 144.169 11.7141 144.185 11.7056 144.195C11.7013 144.2 11.6983 144.204 11.6964 144.206C11.6954 144.207 11.6948 144.208 11.6944 144.208C11.6942 144.209 11.6941 144.209 11.6941 144.209C11.6941 144.209 11.6941 144.209 11.6941 144.209C11.6941 144.209 11.6942 144.209 11.6942 144.209C11.6942 144.209 11.6942 144.209 13.6128 145.811C15.5313 147.414 15.5313 147.414 15.5314 147.414C15.5314 147.414 15.5315 147.414 15.5315 147.414C15.5316 147.414 15.5317 147.414 15.5319 147.414C15.5321 147.413 15.5325 147.413 15.5329 147.412C15.5337 147.411 15.5349 147.41 15.5363 147.408C15.5391 147.405 15.5432 147.4 15.5484 147.394C15.5588 147.381 15.5739 147.363 15.5936 147.339C15.6329 147.292 15.6906 147.222 15.7658 147.131C15.9163 146.948 16.137 146.678 16.4217 146.327C16.9911 145.624 17.8168 144.593 18.8489 143.272L14.909 140.193ZM2.29429 1.83624C0.975558 2.24529 0.238114 3.64592 0.647156 4.96465C1.0562 6.28338 2.45684 7.02083 3.77557 6.61179L2.29429 1.83624ZM54.9098 32.2494L57.0458 30.9503L54.9098 32.2494ZM11.1228 146.035C11.246 147.41 12.4608 148.425 13.8359 148.301L36.2461 146.293C37.6213 146.17 38.6362 144.955 38.513 143.58C38.3897 142.204 37.1749 141.19 35.7998 141.313L15.8796 143.098L14.0942 123.178C13.9709 121.803 12.7562 120.788 11.381 120.911C10.0058 121.035 8.99086 122.249 9.11412 123.624L11.1228 146.035ZM8.4115 5.85511C9.78771 5.74371 10.813 4.53776 10.7016 3.16155C10.5902 1.78534 9.3843 0.760011 8.00809 0.87141L8.4115 5.85511ZM19.1576 1.48147C17.8004 1.2276 16.4944 2.122 16.2405 3.47917C15.9866 4.83634 16.881 6.14235 18.2382 6.39622L19.1576 1.48147ZM27.6606 9.40233C28.9161 9.97685 30.3996 9.4248 30.9742 8.16929C31.5487 6.91379 30.9966 5.43026 29.7411 4.85574L27.6606 9.40233ZM39.2092 10.5321C38.1062 9.70155 36.5388 9.92232 35.7082 11.0253C34.8776 12.1282 35.0984 13.6956 36.2013 14.5262L39.2092 10.5321ZM43.6433 21.2955C44.5813 22.3087 46.163 22.3696 47.1762 21.4316C48.1894 20.4935 48.2503 18.9118 47.3123 17.8986L43.6433 21.2955ZM54.0898 26.393C53.3039 25.2578 51.7466 24.9746 50.6113 25.7604C49.4761 26.5463 49.1929 28.1037 49.9788 29.2389L54.0898 26.393ZM54.9226 37.8901C55.4279 39.175 56.8791 39.8071 58.164 39.3019C59.449 38.7967 60.0811 37.3454 59.5759 36.0605L54.9226 37.8901ZM62.0638 47.0234C61.9456 45.6477 60.7345 44.6284 59.3589 44.7466C57.9833 44.8649 56.9639 46.0759 57.0822 47.4515L62.0638 47.0234ZM56.865 57.4823C56.7062 58.8539 57.6894 60.0944 59.061 60.2531C60.4325 60.4119 61.6731 59.4287 61.8318 58.0571L56.865 57.4823ZM59.7996 68.757C60.1439 67.4199 59.3391 66.0568 58.002 65.7125C56.6649 65.3682 55.3019 66.173 54.9576 67.5101L59.7996 68.757ZM51.8777 77.3567C51.4056 78.6541 52.0746 80.0887 53.3721 80.5608C54.6696 81.033 56.1042 80.3639 56.5763 79.0664L51.8777 77.3567ZM52.5254 89.0146C53.0899 87.7545 52.5261 86.2754 51.2661 85.7109C50.0061 85.1463 48.527 85.7101 47.9624 86.9701L52.5254 89.0146ZM43.4255 96.3502C42.7909 97.5764 43.2704 99.0849 44.4966 99.7196C45.7228 100.354 47.2313 99.8748 47.866 98.6486L43.4255 96.3502ZM42.7368 108.009C43.427 106.813 43.0172 105.284 41.8214 104.594C40.6257 103.904 39.0967 104.314 38.4064 105.509L42.7368 108.009ZM33.0001 114.459C32.2639 115.627 32.614 117.171 33.7821 117.907C34.9502 118.643 36.4939 118.293 37.2301 117.125L33.0001 114.459ZM31.3857 126.048C32.1616 124.906 31.8648 123.352 30.7227 122.576C29.5806 121.8 28.0258 122.097 27.2499 123.239L31.3857 126.048ZM21.2382 131.788C20.4261 132.905 20.673 134.469 21.7897 135.281C22.9063 136.093 24.4699 135.846 25.2819 134.729L21.2382 131.788ZM18.8489 143.272C19.699 142.184 19.5061 140.613 18.4182 139.763C17.3302 138.913 15.7591 139.105 14.909 140.193L18.8489 143.272ZM3.03493 4.22401C3.77557 6.61179 3.77516 6.61191 3.77477 6.61203C3.77464 6.61207 3.77425 6.61219 3.77401 6.61227C3.77352 6.61242 3.77306 6.61256 3.77263 6.6127C3.77176 6.61296 3.77101 6.61319 3.77038 6.61339C3.76911 6.61378 3.7683 6.61402 3.76795 6.61413C3.76725 6.61434 3.76838 6.614 3.77132 6.61312C3.77721 6.61137 3.79033 6.60749 3.81055 6.60172C3.851 6.59017 3.9198 6.57103 4.01577 6.54609C4.20777 6.49618 4.50815 6.42313 4.90757 6.3411C5.70686 6.17694 6.8996 5.97749 8.4115 5.85511L8.00809 0.87141C6.27272 1.01188 4.87802 1.24281 3.9017 1.44332C3.41331 1.54362 3.02884 1.63647 2.75793 1.70689C2.62246 1.7421 2.51529 1.77173 2.43764 1.7939C2.39881 1.80499 2.36735 1.81422 2.34341 1.82135C2.33145 1.82492 2.32135 1.82796 2.31316 1.83045C2.30906 1.8317 2.30544 1.83281 2.3023 1.83377C2.30072 1.83426 2.29927 1.8347 2.29793 1.83512C2.29727 1.83532 2.29663 1.83552 2.29602 1.83571C2.29572 1.8358 2.29528 1.83593 2.29513 1.83598C2.29471 1.83611 2.29429 1.83624 3.03493 4.22401ZM18.2382 6.39622C21.1274 6.93668 24.3118 7.86993 27.6606 9.40233L29.7411 4.85574C25.9967 3.14229 22.4193 2.09163 19.1576 1.48147L18.2382 6.39622ZM36.2013 14.5262C38.6609 16.3785 41.1571 18.6102 43.6433 21.2955L47.3123 17.8986C44.6298 15.0012 41.9132 12.5685 39.2092 10.5321L36.2013 14.5262ZM49.9788 29.2389C50.9186 30.5965 51.8513 32.0317 52.7739 33.5486L57.0458 30.9503C56.0733 29.3515 55.0872 27.8337 54.0898 26.393L49.9788 29.2389ZM52.7739 33.5486C53.6169 34.9345 54.3302 36.3834 54.9226 37.8901L59.5759 36.0605C58.8822 34.2964 58.0428 32.5894 57.0458 30.9503L52.7739 33.5486ZM57.0822 47.4515C57.3564 50.6423 57.2681 53.9994 56.865 57.4823L61.8318 58.0571C62.267 54.2972 62.3712 50.5998 62.0638 47.0234L57.0822 47.4515ZM54.9576 67.5101C54.1221 70.7545 53.0818 74.0477 51.8777 77.3567L56.5763 79.0664C57.8278 75.6272 58.9185 72.1787 59.7996 68.757L54.9576 67.5101ZM47.9624 86.9701C46.5469 90.1295 45.0218 93.2662 43.4255 96.3502L47.866 98.6486C49.5005 95.4907 51.0672 92.2691 52.5254 89.0146L47.9624 86.9701ZM38.4064 105.509C36.6228 108.599 34.8056 111.594 33.0001 114.459L37.2301 117.125C39.0666 114.211 40.9176 111.161 42.7368 108.009L38.4064 105.509ZM27.2499 123.239C25.1241 126.368 23.0919 129.24 21.2382 131.788L25.2819 134.729C27.1637 132.142 29.2269 129.226 31.3857 126.048L27.2499 123.239ZM14.909 140.193C13.8961 141.49 13.0886 142.498 12.5362 143.18C12.2601 143.521 12.0477 143.78 11.9052 143.953C11.834 144.04 11.7803 144.105 11.7449 144.148C11.7272 144.169 11.7141 144.185 11.7056 144.195C11.7013 144.2 11.6983 144.204 11.6964 144.206C11.6954 144.207 11.6948 144.208 11.6944 144.208C11.6942 144.209 11.6941 144.209 11.6941 144.209C11.6941 144.209 11.6941 144.209 11.6941 144.209C11.6941 144.209 11.6942 144.209 11.6942 144.209C11.6942 144.209 11.6942 144.209 13.6128 145.811C15.5313 147.414 15.5313 147.414 15.5314 147.414C15.5314 147.414 15.5315 147.414 15.5315 147.414C15.5316 147.414 15.5317 147.414 15.5319 147.414C15.5321 147.413 15.5325 147.413 15.5329 147.412C15.5337 147.411 15.5349 147.41 15.5363 147.408C15.5391 147.405 15.5432 147.4 15.5484 147.394C15.5588 147.381 15.5739 147.363 15.5936 147.339C15.6329 147.292 15.6906 147.222 15.7658 147.131C15.9163 146.948 16.137 146.678 16.4217 146.327C16.9911 145.624 17.8168 144.593 18.8489 143.272L14.909 140.193Z" fill="#BCD4FF"/>
</svg>
