<svg width="66" height="168" viewBox="0 0 66 168" fill="none" xmlns="http://www.w3.org/2000/svg">
<path d="M64.3887 5.82948C65.5516 6.57382 65.8909 8.11994 65.1465 9.28283C64.4022 10.4457 62.8561 10.785 61.6932 10.0407L64.3887 5.82948ZM8.80877 31.5714L6.61026 30.3813L8.80877 31.5714ZM48.0943 165.095C47.8286 166.45 46.5148 167.332 45.1599 167.067L23.0805 162.737C21.7256 162.471 20.8426 161.157 21.1084 159.802C21.3741 158.447 22.6878 157.564 24.0427 157.83L43.6689 161.679L47.5179 142.053C47.7836 140.698 49.0973 139.815 50.4522 140.081C51.8071 140.347 52.6901 141.66 52.4244 143.015L48.0943 165.095ZM57.1526 7.93498C55.8554 7.46208 55.1871 6.02713 55.66 4.72993C56.1329 3.43273 57.5679 2.7645 58.8651 3.2374L57.1526 7.93498ZM47.1912 0.982051C48.5714 1.0202 49.6593 2.16999 49.6212 3.55017C49.583 4.93036 48.4332 6.01829 47.0531 5.98014L47.1912 0.982051ZM36.9389 7.46381C35.628 7.89716 34.2139 7.18574 33.7806 5.8748C33.3472 4.56386 34.0587 3.14982 35.3696 2.71647L36.9389 7.46381ZM24.8575 8.1761C25.9752 7.36546 27.5384 7.61438 28.3491 8.73207C29.1597 9.84976 28.9108 11.413 27.7931 12.2236L24.8575 8.1761ZM20.0629 19.4045C19.1573 20.4467 17.5783 20.5575 16.536 19.6519C15.4938 18.7463 15.383 17.1673 16.2886 16.125L20.0629 19.4045ZM9.49449 25.4111C10.2245 24.2392 11.7664 23.8809 12.9383 24.611C14.1102 25.341 14.4685 26.8829 13.7384 28.0548L9.49449 25.4111ZM9.00831 37.1112C8.51214 38.3997 7.06539 39.042 5.77691 38.5458C4.48843 38.0496 3.84614 36.6029 4.34231 35.3144L9.00831 37.1112ZM1.62866 45.7014C1.83909 44.3368 3.11589 43.4012 4.48047 43.6116C5.84505 43.822 6.78068 45.0988 6.57026 46.4634L1.62866 45.7014ZM5.89012 56.2575C5.89792 57.6381 4.78497 58.7637 3.40429 58.7715C2.0236 58.7793 0.897999 57.6664 0.890196 56.2857L5.89012 56.2575ZM1.59057 66.7769C1.42254 65.4065 2.3973 64.1593 3.76775 63.9913C5.13819 63.8232 6.38538 64.798 6.55341 66.1684L1.59057 66.7769ZM8.22464 76.0393C8.5117 77.3898 7.64957 78.7173 6.29902 79.0044C4.94848 79.2914 3.62095 78.4293 3.33389 77.0788L8.22464 76.0393ZM5.85114 87.1619C5.47323 85.8339 6.24342 84.451 7.5714 84.0731C8.89939 83.6951 10.2823 84.4653 10.6602 85.7933L5.85114 87.1619ZM13.6937 95.4161C14.1432 96.7216 13.4493 98.1443 12.1438 98.5938C10.8383 99.0434 9.41563 98.3495 8.9661 97.044L13.6937 95.4161ZM12.5586 106.743C12.0509 105.459 12.6802 104.006 13.9642 103.499C15.2482 102.991 16.7006 103.62 17.2083 104.904L12.5586 106.743ZM21.1169 114.251C21.6732 115.515 21.0997 116.99 19.836 117.546C18.5723 118.102 17.0969 117.529 16.5406 116.265L21.1169 114.251ZM20.8493 125.621C20.2514 124.377 20.7757 122.883 22.0203 122.285C23.2649 121.687 24.7584 122.212 25.3563 123.456L20.8493 125.621ZM29.8908 132.542C30.5254 133.768 30.0458 135.277 28.8195 135.911C27.5933 136.546 26.0848 136.066 25.4502 134.84L29.8908 132.542ZM30.3085 143.917C29.6404 142.709 30.0784 141.188 31.2867 140.519C32.495 139.851 34.0161 140.289 34.6842 141.498L30.3085 143.917ZM39.7371 150.353C40.4376 151.542 40.0408 153.075 38.851 153.775C37.6612 154.476 36.1288 154.079 35.4283 152.889L39.7371 150.353ZM40.7734 161.678C40.0377 160.509 40.3884 158.966 41.5568 158.23C42.7251 157.494 44.2687 157.845 45.0044 159.013L40.7734 161.678ZM63.0409 7.93509C61.6932 10.0407 61.6935 10.0409 61.6938 10.0411C61.6939 10.0412 61.6943 10.0414 61.6945 10.0415C61.6949 10.0418 61.6952 10.042 61.6956 10.0422C61.6963 10.0427 61.6968 10.043 61.6973 10.0433C61.6982 10.0439 61.6987 10.0442 61.6987 10.0442C61.6988 10.0443 61.6971 10.0432 61.6937 10.0411C61.6868 10.0367 61.6729 10.0281 61.6521 10.0154C61.6106 9.9901 61.5417 9.94866 61.4464 9.89349C61.2559 9.78309 60.9606 9.61803 60.5694 9.41709C59.7862 9.01474 58.6239 8.47136 57.1526 7.93498L58.8651 3.2374C60.5588 3.85483 61.9125 4.48591 62.8541 4.96955C63.3253 5.2116 63.6946 5.41743 63.953 5.56717C64.0823 5.64206 64.184 5.70301 64.2569 5.74753C64.2934 5.76979 64.3227 5.78795 64.3447 5.80171C64.3557 5.80859 64.3649 5.81437 64.3722 5.81901C64.3759 5.82133 64.3791 5.82337 64.3818 5.82511C64.3832 5.82599 64.3845 5.82679 64.3856 5.82752C64.3862 5.82788 64.3867 5.82823 64.3872 5.82855C64.3875 5.82872 64.3878 5.82895 64.388 5.82903C64.3883 5.82926 64.3887 5.82948 63.0409 7.93509ZM47.0531 5.98014C43.9585 5.89461 40.5372 6.27432 36.9389 7.46381L35.3696 2.71647C39.5747 1.3264 43.5798 0.882233 47.1912 0.982051L47.0531 5.98014ZM27.7931 12.2236C25.2463 14.0708 22.652 16.4247 20.0629 19.4045L16.2886 16.125C19.1084 12.8798 21.9804 10.2628 24.8575 8.1761L27.7931 12.2236ZM13.7384 28.0548C12.8207 29.528 11.9094 31.0952 11.0073 32.7616L6.61026 30.3813C7.55868 28.6293 8.52079 26.9742 9.49449 25.4111L13.7384 28.0548ZM11.0073 32.7616C10.2518 34.1572 9.58703 35.6083 9.00831 37.1112L4.34231 35.3144C4.99469 33.6202 5.7483 31.9735 6.61026 30.3813L11.0073 32.7616ZM6.57026 46.4634C6.08781 49.592 5.87095 52.8667 5.89012 56.2575L0.890196 56.2857C0.869737 52.666 1.10083 49.1243 1.62866 45.7014L6.57026 46.4634ZM6.55341 66.1684C6.95043 69.4065 7.516 72.7052 8.22464 76.0393L3.33389 77.0788C2.59856 73.6191 2.00732 70.1759 1.59057 66.7769L6.55341 66.1684ZM10.6602 85.7933C11.5738 89.0036 12.5926 92.2186 13.6937 95.4161L8.9661 97.044C7.83851 93.7694 6.79186 90.4676 5.85114 87.1619L10.6602 85.7933ZM17.2083 104.904C18.4604 108.071 19.7714 111.194 21.1169 114.251L16.5406 116.265C15.1718 113.155 13.836 109.973 12.5586 106.743L17.2083 104.904ZM25.3563 123.456C26.8681 126.603 28.3901 129.642 29.8908 132.542L25.4502 134.84C23.9286 131.9 22.3842 128.817 20.8493 125.621L25.3563 123.456ZM34.6842 141.498C36.481 144.747 38.187 147.72 39.7371 150.353L35.4283 152.889C33.8574 150.221 32.129 147.21 30.3085 143.917L34.6842 141.498ZM45.0044 159.013C45.8612 160.374 46.5421 161.43 47.0074 162.143C47.24 162.5 47.4186 162.771 47.5384 162.952C47.5983 163.043 47.6434 163.11 47.6732 163.155C47.6881 163.177 47.6992 163.194 47.7063 163.205C47.7099 163.21 47.7125 163.214 47.7141 163.216C47.7149 163.217 47.7155 163.218 47.7158 163.219C47.7159 163.219 47.716 163.219 47.7161 163.219C47.7161 163.219 47.7161 163.219 47.7161 163.219C47.716 163.219 47.716 163.219 47.716 163.219C47.716 163.219 47.716 163.219 45.641 164.614C43.5661 166.008 43.5661 166.008 43.566 166.008C43.566 166.008 43.566 166.008 43.5659 166.008C43.5658 166.008 43.5657 166.007 43.5656 166.007C43.5654 166.007 43.5651 166.007 43.5648 166.006C43.5641 166.005 43.5632 166.004 43.562 166.002C43.5596 165.998 43.5562 165.993 43.5519 165.987C43.5432 165.974 43.5306 165.955 43.5141 165.93C43.4812 165.881 43.4329 165.808 43.3698 165.713C43.2436 165.523 43.0583 165.241 42.819 164.874C42.3403 164.14 41.6451 163.062 40.7734 161.678L45.0044 159.013ZM64.3887 5.82948C65.5516 6.57382 65.8909 8.11994 65.1465 9.28283C64.4022 10.4457 62.8561 10.785 61.6932 10.0407L64.3887 5.82948ZM8.80877 31.5714L6.61026 30.3813L8.80877 31.5714ZM48.0943 165.095C47.8286 166.45 46.5148 167.332 45.1599 167.067L23.0805 162.737C21.7256 162.471 20.8426 161.157 21.1084 159.802C21.3741 158.447 22.6878 157.564 24.0427 157.83L43.6689 161.679L47.5179 142.053C47.7836 140.698 49.0973 139.815 50.4522 140.081C51.8071 140.347 52.6901 141.66 52.4244 143.015L48.0943 165.095ZM57.1526 7.93498C55.8554 7.46208 55.1871 6.02713 55.66 4.72993C56.1329 3.43273 57.5679 2.7645 58.8651 3.2374L57.1526 7.93498ZM47.1912 0.982051C48.5714 1.0202 49.6593 2.16999 49.6212 3.55017C49.583 4.93036 48.4332 6.01829 47.0531 5.98014L47.1912 0.982051ZM36.9389 7.46381C35.628 7.89716 34.2139 7.18574 33.7806 5.8748C33.3472 4.56386 34.0587 3.14982 35.3696 2.71647L36.9389 7.46381ZM24.8575 8.1761C25.9752 7.36546 27.5384 7.61438 28.3491 8.73207C29.1597 9.84976 28.9108 11.413 27.7931 12.2236L24.8575 8.1761ZM20.0629 19.4045C19.1573 20.4467 17.5783 20.5575 16.536 19.6519C15.4938 18.7463 15.383 17.1673 16.2886 16.125L20.0629 19.4045ZM9.49449 25.4111C10.2245 24.2392 11.7664 23.8809 12.9383 24.611C14.1102 25.341 14.4685 26.8829 13.7384 28.0548L9.49449 25.4111ZM9.00831 37.1112C8.51214 38.3997 7.06539 39.042 5.77691 38.5458C4.48843 38.0496 3.84614 36.6029 4.34231 35.3144L9.00831 37.1112ZM1.62866 45.7014C1.83909 44.3368 3.11589 43.4012 4.48047 43.6116C5.84505 43.822 6.78068 45.0988 6.57026 46.4634L1.62866 45.7014ZM5.89012 56.2575C5.89792 57.6381 4.78497 58.7637 3.40429 58.7715C2.0236 58.7793 0.897999 57.6664 0.890196 56.2857L5.89012 56.2575ZM1.59057 66.7769C1.42254 65.4065 2.3973 64.1593 3.76775 63.9913C5.13819 63.8232 6.38538 64.798 6.55341 66.1684L1.59057 66.7769ZM8.22464 76.0393C8.5117 77.3898 7.64957 78.7173 6.29902 79.0044C4.94848 79.2914 3.62095 78.4293 3.33389 77.0788L8.22464 76.0393ZM5.85114 87.1619C5.47323 85.8339 6.24342 84.451 7.5714 84.0731C8.89939 83.6951 10.2823 84.4653 10.6602 85.7933L5.85114 87.1619ZM13.6937 95.4161C14.1432 96.7216 13.4493 98.1443 12.1438 98.5938C10.8383 99.0434 9.41563 98.3495 8.9661 97.044L13.6937 95.4161ZM12.5586 106.743C12.0509 105.459 12.6802 104.006 13.9642 103.499C15.2482 102.991 16.7006 103.62 17.2083 104.904L12.5586 106.743ZM21.1169 114.251C21.6732 115.515 21.0997 116.99 19.836 117.546C18.5723 118.102 17.0969 117.529 16.5406 116.265L21.1169 114.251ZM20.8493 125.621C20.2514 124.377 20.7757 122.883 22.0203 122.285C23.2649 121.687 24.7584 122.212 25.3563 123.456L20.8493 125.621ZM29.8908 132.542C30.5254 133.768 30.0458 135.277 28.8195 135.911C27.5933 136.546 26.0848 136.066 25.4502 134.84L29.8908 132.542ZM30.3085 143.917C29.6404 142.709 30.0784 141.188 31.2867 140.519C32.495 139.851 34.0161 140.289 34.6842 141.498L30.3085 143.917ZM39.7371 150.353C40.4376 151.542 40.0408 153.075 38.851 153.775C37.6612 154.476 36.1288 154.079 35.4283 152.889L39.7371 150.353ZM40.7734 161.678C40.0377 160.509 40.3884 158.966 41.5568 158.23C42.7251 157.494 44.2687 157.845 45.0044 159.013L40.7734 161.678ZM63.0409 7.93509C61.6932 10.0407 61.6935 10.0409 61.6938 10.0411C61.6939 10.0412 61.6943 10.0414 61.6945 10.0415C61.6949 10.0418 61.6952 10.042 61.6956 10.0422C61.6963 10.0427 61.6968 10.043 61.6973 10.0433C61.6982 10.0439 61.6987 10.0442 61.6987 10.0442C61.6988 10.0443 61.6971 10.0432 61.6937 10.0411C61.6868 10.0367 61.6729 10.0281 61.6521 10.0154C61.6106 9.9901 61.5417 9.94866 61.4464 9.89349C61.2559 9.78309 60.9606 9.61803 60.5694 9.41709C59.7862 9.01474 58.6239 8.47136 57.1526 7.93498L58.8651 3.2374C60.5588 3.85483 61.9125 4.48591 62.8541 4.96955C63.3253 5.2116 63.6946 5.41743 63.953 5.56717C64.0823 5.64206 64.184 5.70301 64.2569 5.74753C64.2934 5.76979 64.3227 5.78795 64.3447 5.80171C64.3557 5.80859 64.3649 5.81437 64.3722 5.81901C64.3759 5.82133 64.3791 5.82337 64.3818 5.82511C64.3832 5.82599 64.3845 5.82679 64.3856 5.82752C64.3862 5.82788 64.3867 5.82823 64.3872 5.82855C64.3875 5.82872 64.3878 5.82895 64.388 5.82903C64.3883 5.82926 64.3887 5.82948 63.0409 7.93509ZM47.0531 5.98014C43.9585 5.89461 40.5372 6.27432 36.9389 7.46381L35.3696 2.71647C39.5747 1.3264 43.5798 0.882233 47.1912 0.982051L47.0531 5.98014ZM27.7931 12.2236C25.2463 14.0708 22.652 16.4247 20.0629 19.4045L16.2886 16.125C19.1084 12.8798 21.9804 10.2628 24.8575 8.1761L27.7931 12.2236ZM13.7384 28.0548C12.8207 29.528 11.9094 31.0952 11.0073 32.7616L6.61026 30.3813C7.55868 28.6293 8.52079 26.9742 9.49449 25.4111L13.7384 28.0548ZM11.0073 32.7616C10.2518 34.1572 9.58703 35.6083 9.00831 37.1112L4.34231 35.3144C4.99469 33.6202 5.7483 31.9735 6.61026 30.3813L11.0073 32.7616ZM6.57026 46.4634C6.08781 49.592 5.87095 52.8667 5.89012 56.2575L0.890196 56.2857C0.869737 52.666 1.10083 49.1243 1.62866 45.7014L6.57026 46.4634ZM6.55341 66.1684C6.95043 69.4065 7.516 72.7052 8.22464 76.0393L3.33389 77.0788C2.59856 73.6191 2.00732 70.1759 1.59057 66.7769L6.55341 66.1684ZM10.6602 85.7933C11.5738 89.0036 12.5926 92.2186 13.6937 95.4161L8.9661 97.044C7.83851 93.7694 6.79186 90.4676 5.85114 87.1619L10.6602 85.7933ZM17.2083 104.904C18.4604 108.071 19.7714 111.194 21.1169 114.251L16.5406 116.265C15.1718 113.155 13.836 109.973 12.5586 106.743L17.2083 104.904ZM25.3563 123.456C26.8681 126.603 28.3901 129.642 29.8908 132.542L25.4502 134.84C23.9286 131.9 22.3842 128.817 20.8493 125.621L25.3563 123.456ZM34.6842 141.498C36.481 144.747 38.187 147.72 39.7371 150.353L35.4283 152.889C33.8574 150.221 32.129 147.21 30.3085 143.917L34.6842 141.498ZM45.0044 159.013C45.8612 160.374 46.5421 161.43 47.0074 162.143C47.24 162.5 47.4186 162.771 47.5384 162.952C47.5983 163.043 47.6434 163.11 47.6732 163.155C47.6881 163.177 47.6992 163.194 47.7063 163.205C47.7099 163.21 47.7125 163.214 47.7141 163.216C47.7149 163.217 47.7155 163.218 47.7158 163.219C47.7159 163.219 47.716 163.219 47.7161 163.219C47.7161 163.219 47.7161 163.219 47.7161 163.219C47.716 163.219 47.716 163.219 47.716 163.219C47.716 163.219 47.716 163.219 45.641 164.614C43.5661 166.008 43.5661 166.008 43.566 166.008C43.566 166.008 43.566 166.008 43.5659 166.008C43.5658 166.008 43.5657 166.007 43.5656 166.007C43.5654 166.007 43.5651 166.007 43.5648 166.006C43.5641 166.005 43.5632 166.004 43.562 166.002C43.5596 165.998 43.5562 165.993 43.5519 165.987C43.5432 165.974 43.5306 165.955 43.5141 165.93C43.4812 165.881 43.4329 165.808 43.3698 165.713C43.2436 165.523 43.0583 165.241 42.819 164.874C42.3403 164.14 41.6451 163.062 40.7734 161.678L45.0044 159.013Z" fill="#BCD4FF"/>
</svg>
