<svg width="40" height="52" viewBox="0 0 40 52" fill="none" xmlns="http://www.w3.org/2000/svg">
<path d="M0.0326512 12.3732C2.4169 12.3732 4.80115 12.3732 7.25765 12.3732C7.25765 13.9274 7.25765 15.4817 7.25765 17.0831C6.78932 17.122 6.32098 17.1608 5.83845 17.2009C5.47698 17.3731 5.47698 17.3731 5.32238 17.6719C5.24657 18.087 5.25096 18.2851 5.51717 18.6325C5.96685 18.936 6.37747 18.9127 6.91495 18.9036C7.01895 18.9035 7.12295 18.9034 7.23011 18.9033C7.4496 18.9026 7.66909 18.9007 7.88857 18.8978C8.22412 18.8935 8.55949 18.893 8.89507 18.893C9.10859 18.8919 9.32211 18.8905 9.53562 18.8889C9.68583 18.8885 9.68583 18.8885 9.83906 18.8881C10.5246 18.879 10.5246 18.879 11.1282 18.6138C11.3069 18.2876 11.2814 18.0329 11.2572 17.6719C11.1721 17.5553 11.0869 17.4387 10.9992 17.3186C10.4457 17.2409 9.8922 17.1632 9.32194 17.0831C9.32194 15.5288 9.32194 13.9745 9.32194 12.3732C14.0904 12.3732 18.8589 12.3732 23.7719 12.3732C23.7719 13.9274 23.7719 15.4817 23.7719 17.0831C23.3036 17.122 22.8353 17.1608 22.3527 17.2009C21.9913 17.3731 21.9913 17.3731 21.8367 17.6719C21.7609 18.087 21.7652 18.2851 22.0315 18.6325C22.4811 18.936 22.8918 18.9127 23.4292 18.9036C23.5332 18.9035 23.6372 18.9034 23.7444 18.9033C23.9639 18.9026 24.1834 18.9007 24.4029 18.8978C24.7384 18.8935 25.0738 18.893 25.4094 18.893C25.6229 18.8919 25.8364 18.8905 26.0499 18.8889C26.15 18.8886 26.2502 18.8884 26.3534 18.8881C27.0389 18.879 27.0389 18.879 27.6425 18.6138C27.8212 18.2876 27.7957 18.0329 27.7715 17.6719C27.6863 17.5553 27.6012 17.4387 27.5135 17.3186C26.96 17.2409 26.4065 17.1632 25.8362 17.0831C25.8362 15.5288 25.8362 13.9745 25.8362 12.3732C28.2205 12.3732 30.6047 12.3732 33.0612 12.3732C33.07 16.9733 33.0769 21.5734 33.081 26.1735C33.0815 26.7167 33.082 27.26 33.0825 27.8032C33.0826 27.9114 33.0827 28.0195 33.0828 28.131C33.0845 29.8814 33.0875 31.6319 33.0911 33.3824C33.0947 35.1789 33.0969 36.9755 33.0976 38.772C33.0982 39.8803 33.0998 40.9886 33.103 42.0969C33.105 42.8572 33.1057 43.6175 33.1052 44.3778C33.1049 44.8163 33.1053 45.2547 33.1074 45.6932C33.1096 46.1693 33.1088 46.6452 33.1078 47.1213C33.1089 47.259 33.11 47.3967 33.1112 47.5385C33.1036 48.8006 32.83 49.9097 31.9001 50.8769C30.4427 52.0439 28.7449 51.9886 26.9165 51.9842C26.6601 51.9849 26.4038 51.9857 26.1474 51.9867C25.4541 51.9888 24.7608 51.9887 24.0675 51.988C23.4878 51.9876 22.9081 51.9883 22.3284 51.9891C20.9607 51.9907 19.593 51.9905 18.2253 51.9892C16.8159 51.9878 15.4064 51.9895 13.997 51.9926C12.785 51.9953 11.573 51.996 10.361 51.9953C9.63795 51.9949 8.9149 51.9952 8.19183 51.9973C7.51205 51.9991 6.83233 51.9986 6.15255 51.9964C5.90359 51.996 5.65462 51.9963 5.40566 51.9976C3.0907 52.0082 3.0907 52.0082 2.09694 51.4657C1.99399 51.4132 1.89104 51.3606 1.78498 51.3065C0.875816 50.7094 0.312581 49.8609 0.0326512 48.8752C-0.00518842 48.385 -0.00101679 47.8958 0.00162122 47.4045C0.00129051 47.18 0.00129051 47.18 0.000953125 46.951C0.000376913 46.5364 0.00140727 46.1218 0.00270211 45.7072C0.00381718 45.2598 0.00343928 44.8124 0.0032434 44.3651C0.00310814 43.5902 0.00391723 42.8153 0.00536905 42.0405C0.00746677 40.9202 0.00813822 39.7999 0.00846238 38.6795C0.00902702 36.8619 0.010744 35.0442 0.0131851 33.2266C0.0155539 31.4609 0.0173802 29.6953 0.0184769 27.9297C0.0185447 27.8209 0.0186124 27.712 0.0186823 27.5999C0.019019 27.0538 0.0193451 26.5078 0.0196659 25.9617C0.0223406 21.4322 0.0269562 16.9027 0.0326512 12.3732Z" fill="#FECC00"/>
<path d="M19.9291 0.603359C20.6293 0.886508 21.0158 0.807904 21.7398 0.568863C21.8895 0.512398 22.0392 0.455934 22.1934 0.397759C24.0791 -0.292287 26.7033 -0.0136974 28.5305 0.692188C30.8601 1.63945 32.6712 3.35606 33.6064 5.52649C33.6393 5.60989 33.6723 5.6933 33.7063 5.77923C33.7428 5.87053 33.7793 5.96183 33.817 6.0559C34.2335 7.29579 34.1354 8.58889 34.1175 9.871C34.1156 10.1142 34.1138 10.3573 34.1122 10.6005C34.1083 11.1914 34.1007 11.7822 34.0933 12.3732C35.7963 12.3732 37.4994 12.3732 39.254 12.3732C39.2686 16.9992 39.2802 21.6253 39.287 26.2514C39.2878 26.7979 39.2886 27.3444 39.2895 27.8909C39.2896 27.9997 39.2898 28.1085 39.29 28.2206C39.2928 29.9808 39.2979 31.741 39.3038 33.5012C39.3098 35.3081 39.3134 37.1151 39.3147 38.922C39.3156 40.0365 39.3184 41.1509 39.3236 42.2653C39.3271 43.0302 39.3281 43.795 39.3272 44.5598C39.3268 45.0007 39.3274 45.4415 39.3309 45.8824C39.3347 46.3615 39.3334 46.8404 39.3316 47.3195C39.3335 47.4574 39.3354 47.5953 39.3373 47.7374C39.3258 48.8995 38.9779 50.0626 38.0858 50.9321C37.2921 51.5023 36.2794 51.9524 35.2634 51.95C35.1343 51.95 35.0052 51.95 34.8722 51.95C34.7331 51.9494 34.594 51.9488 34.4506 51.9482C34.308 51.948 34.1654 51.9478 34.0184 51.9476C33.5622 51.947 33.1061 51.9455 32.6499 51.944C32.3409 51.9434 32.0319 51.9429 31.7229 51.9424C30.9648 51.9411 30.2067 51.9391 29.4487 51.9367C29.4487 51.8978 29.4487 51.8589 29.4487 51.8189C29.5283 51.8016 29.608 51.7843 29.6901 51.7665C30.8231 51.4926 31.7011 51.1093 32.3435 50.1851C32.9586 49.216 32.97 48.2396 32.9681 47.1496C32.9692 46.9262 32.9692 46.9262 32.9703 46.6984C32.9724 46.287 32.9728 45.8757 32.973 45.4643C32.9735 45.0199 32.9754 44.5756 32.9772 44.1313C32.9801 43.3621 32.982 42.5929 32.9833 41.8237C32.9852 40.7116 32.9885 39.5994 32.9921 38.4873C32.998 36.6828 33.0027 34.8784 33.0067 33.0739C33.0106 31.3213 33.0151 29.5687 33.0202 27.8161C33.0205 27.7081 33.0209 27.6 33.0212 27.4886C33.0228 26.9464 33.0244 26.4042 33.026 25.862C33.0394 21.3657 33.0509 16.8694 33.0612 12.3732C32.7206 12.3732 32.3799 12.3732 32.029 12.3732C32.0265 12.2676 32.0239 12.1621 32.0213 12.0534C32.0111 11.6535 31.9999 11.2537 31.9881 10.8539C31.9832 10.6824 31.9787 10.5109 31.9746 10.3394C31.9135 7.81635 31.5893 5.52923 29.497 3.6892C27.701 2.34484 25.5687 2.0277 23.3148 2.21688C23.1579 2.23168 23.1579 2.23168 22.9978 2.24678C23.0696 2.32115 23.1415 2.39553 23.2155 2.47216C24.752 4.1161 25.8622 5.9563 25.8508 8.16701C25.8508 8.26356 25.8508 8.36012 25.8509 8.4596C25.8508 8.77752 25.8498 9.09543 25.8488 9.41334C25.8485 9.63425 25.8483 9.85517 25.8482 10.0761C25.8477 10.6566 25.8465 11.2371 25.845 11.8177C25.8437 12.4104 25.8431 13.0032 25.8425 13.5959C25.8411 14.7583 25.8389 15.9207 25.8362 17.0831C25.9247 17.0812 26.0133 17.0793 26.1045 17.0774C26.2207 17.0759 26.3369 17.0745 26.4566 17.073C26.5717 17.0711 26.6869 17.0692 26.8055 17.0673C27.2175 17.0876 27.4569 17.1956 27.7714 17.4363C27.9526 17.7671 27.9326 18.0119 27.9004 18.3783C27.6708 18.7476 27.5749 18.8306 27.1263 18.9671C26.4488 18.9997 25.7714 19.004 25.0931 19.0083C24.8686 19.0102 24.6441 19.0135 24.4196 19.018C24.0951 19.0244 23.7709 19.027 23.4463 19.0287C23.3464 19.0314 23.2466 19.034 23.1437 19.0368C22.6216 19.0349 22.3826 18.9885 21.9668 18.6909C21.7076 18.3783 21.7076 18.3783 21.627 18.0251C21.7414 17.5237 21.8838 17.3684 22.3527 17.0831C22.7033 17.0587 22.7033 17.0587 23.088 17.0675C23.216 17.0697 23.344 17.072 23.4759 17.0743C23.5736 17.0772 23.6712 17.0801 23.7719 17.0831C23.7609 16.0062 23.7487 14.9293 23.7348 13.8524C23.7284 13.3521 23.7224 12.8519 23.7174 12.3517C23.7126 11.8676 23.7066 11.3836 23.6999 10.8996C23.6975 10.7162 23.6956 10.5329 23.694 10.3496C23.6734 7.94517 23.3778 5.89132 21.5786 4.01301C21.3289 3.79163 21.0877 3.60985 20.8045 3.42426C19.961 3.74995 19.3969 4.32047 18.9176 5.01387C18.8678 5.08555 18.818 5.15723 18.7666 5.23108C17.6674 6.87895 17.6911 8.6959 17.6355 10.5628C17.6299 10.7389 17.6243 10.9151 17.6186 11.0913C17.6048 11.5185 17.592 11.9458 17.579 12.3732C16.8978 12.3732 16.2166 12.3732 15.5147 12.3732C15.5018 11.6677 15.4925 10.9622 15.4864 10.2566C15.4838 10.0174 15.4803 9.7782 15.4758 9.53899C15.4303 7.05954 15.815 4.882 17.7 2.97535C17.7969 2.88473 17.8939 2.79412 17.9938 2.70075C18.2327 2.49585 18.2327 2.49585 18.3531 2.24678C15.9622 2.02062 13.9156 2.27144 11.9622 3.6501C10.4343 4.82795 9.66965 6.44456 9.47937 8.23691C9.41922 9.01487 9.41939 9.79515 9.41007 10.5747C9.40741 10.7631 9.40471 10.9515 9.40195 11.1399C9.39488 11.632 9.38848 12.124 9.38223 12.6161C9.37571 13.1197 9.36855 13.6233 9.36144 14.127C9.34763 15.1123 9.33453 16.0977 9.32188 17.0831C9.41043 17.0812 9.49898 17.0793 9.59021 17.0774C9.70639 17.0759 9.82257 17.0745 9.94227 17.073C10.0574 17.0711 10.1726 17.0692 10.2912 17.0673C10.7032 17.0876 10.9426 17.1956 11.2571 17.4363C11.4384 17.7671 11.4183 18.0119 11.3862 18.3783C11.1565 18.7476 11.0606 18.8306 10.6121 18.9671C9.93456 18.9997 9.25712 19.004 8.57877 19.0083C8.35427 19.0102 8.12978 19.0135 7.90533 19.018C7.58085 19.0244 7.25657 19.027 6.93202 19.0287C6.83215 19.0314 6.73228 19.034 6.62937 19.0368C6.10735 19.0349 5.86828 18.9885 5.45254 18.6909C5.19331 18.3783 5.19331 18.3783 5.11267 18.0251C5.22712 17.5237 5.36955 17.3684 5.8384 17.0831C6.18901 17.0587 6.18901 17.0587 6.5737 17.0675C6.70171 17.0697 6.82971 17.072 6.9616 17.0743C7.05928 17.0772 7.15696 17.0801 7.25759 17.0831C7.25645 16.9631 7.2553 16.8431 7.25412 16.7195C7.2436 15.5816 7.23589 14.4437 7.23085 13.3058C7.22817 12.7209 7.22455 12.1361 7.21866 11.5513C7.213 10.9856 7.20996 10.4199 7.20863 9.85409C7.20769 9.63963 7.20584 9.42516 7.20303 9.21071C7.17217 6.7578 7.7438 4.71476 9.57991 2.83552C9.66091 2.75189 9.7419 2.66825 9.82535 2.58209C10.8265 1.6086 12.0938 0.957979 13.4504 0.480551C13.6111 0.423859 13.6111 0.423859 13.775 0.366022C15.5964 -0.15649 18.1885 -0.144697 19.9291 0.603359Z" fill="#FE9811"/>
<path d="M19.9291 0.603359C20.6293 0.886508 21.0158 0.807904 21.7398 0.568863C21.8895 0.512398 22.0392 0.455934 22.1934 0.397759C24.0791 -0.292287 26.7033 -0.0136974 28.5305 0.692188C30.8601 1.63945 32.6712 3.35606 33.6064 5.52649C33.6393 5.60989 33.6723 5.6933 33.7063 5.77923C33.7428 5.87053 33.7793 5.96183 33.817 6.0559C34.2335 7.29579 34.1354 8.58889 34.1175 9.87099C34.1156 10.1142 34.1138 10.3573 34.1122 10.6005C34.108 11.1914 34.1013 11.7823 34.0933 12.3732C33.4121 12.3732 32.7309 12.3732 32.029 12.3732C32.0227 12.1203 32.0164 11.8674 32.0099 11.6069C32.0029 11.3559 31.9955 11.1049 31.9881 10.8539C31.9832 10.6824 31.9787 10.5109 31.9746 10.3394C31.9135 7.81635 31.5893 5.52923 29.497 3.6892C27.701 2.34484 25.5687 2.0277 23.3148 2.21688C23.1579 2.23168 23.1579 2.23168 22.9978 2.24678C23.0696 2.32115 23.1415 2.39553 23.2155 2.47216C24.752 4.1161 25.8622 5.9563 25.8508 8.167C25.8508 8.26356 25.8508 8.36012 25.8509 8.4596C25.8508 8.77752 25.8498 9.09543 25.8488 9.41334C25.8485 9.63425 25.8483 9.85517 25.8482 10.0761C25.8477 10.6566 25.8465 11.2371 25.845 11.8177C25.8437 12.4104 25.8431 13.0032 25.8425 13.5959C25.8411 14.7583 25.8389 15.9207 25.8362 17.0831C25.9247 17.0812 26.0133 17.0793 26.1045 17.0774C26.2207 17.0759 26.3369 17.0745 26.4566 17.073C26.5717 17.0711 26.6869 17.0692 26.8055 17.0673C27.2175 17.0876 27.4569 17.1956 27.7714 17.4363C27.9526 17.7671 27.9326 18.0119 27.9004 18.3783C27.6708 18.7476 27.5749 18.8306 27.1263 18.9671C26.4488 18.9997 25.7714 19.004 25.0931 19.0083C24.8686 19.0102 24.6441 19.0135 24.4196 19.0179C24.0951 19.0244 23.7709 19.027 23.4463 19.0287C23.3464 19.0314 23.2466 19.034 23.1437 19.0368C22.6216 19.0349 22.3826 18.9885 21.9668 18.6909C21.7076 18.3783 21.7076 18.3783 21.627 18.0251C21.7414 17.5237 21.8838 17.3684 22.3527 17.0831C22.7033 17.0587 22.7033 17.0587 23.088 17.0675C23.216 17.0697 23.344 17.072 23.4759 17.0743C23.5736 17.0772 23.6712 17.0801 23.7719 17.0831C23.7609 16.0062 23.7487 14.9293 23.7348 13.8524C23.7284 13.3521 23.7224 12.8519 23.7174 12.3517C23.7126 11.8676 23.7066 11.3836 23.6999 10.8996C23.6975 10.7162 23.6956 10.5329 23.694 10.3496C23.6734 7.94517 23.3778 5.89132 21.5786 4.01301C21.3289 3.79162 21.0877 3.60985 20.8045 3.42426C19.961 3.74995 19.3969 4.32047 18.9176 5.01387C18.8678 5.08555 18.818 5.15723 18.7666 5.23108C17.6674 6.87895 17.6911 8.6959 17.6355 10.5628C17.6299 10.7389 17.6243 10.9151 17.6186 11.0913C17.6048 11.5185 17.592 11.9458 17.579 12.3732C16.8978 12.3732 16.2166 12.3732 15.5147 12.3732C15.5018 11.6677 15.4925 10.9622 15.4864 10.2566C15.4838 10.0174 15.4803 9.77819 15.4758 9.53899C15.4303 7.05954 15.815 4.882 17.7 2.97535C17.7969 2.88473 17.8939 2.79412 17.9938 2.70075C18.2327 2.49585 18.2327 2.49585 18.3531 2.24678C15.9622 2.02062 13.9156 2.27144 11.9622 3.6501C10.4343 4.82795 9.66965 6.44456 9.47937 8.23691C9.41922 9.01487 9.41939 9.79515 9.41007 10.5747C9.40741 10.7631 9.40471 10.9515 9.40195 11.1399C9.39488 11.632 9.38848 12.124 9.38223 12.6161C9.37571 13.1197 9.36855 13.6233 9.36144 14.127C9.34763 15.1123 9.33453 16.0977 9.32188 17.0831C9.41043 17.0812 9.49898 17.0793 9.59021 17.0774C9.70639 17.0759 9.82257 17.0745 9.94227 17.073C10.0574 17.0711 10.1726 17.0692 10.2912 17.0673C10.7032 17.0876 10.9426 17.1956 11.2571 17.4363C11.4384 17.7671 11.4183 18.0119 11.3862 18.3783C11.1565 18.7476 11.0606 18.8306 10.6121 18.9671C9.93456 18.9997 9.25712 19.004 8.57877 19.0083C8.35427 19.0102 8.12978 19.0135 7.90533 19.0179C7.58085 19.0244 7.25657 19.027 6.93202 19.0287C6.83215 19.0314 6.73228 19.034 6.62937 19.0368C6.10735 19.0349 5.86828 18.9885 5.45254 18.6909C5.19331 18.3783 5.19331 18.3783 5.11267 18.0251C5.22712 17.5237 5.36955 17.3684 5.8384 17.0831C6.18901 17.0587 6.18901 17.0587 6.5737 17.0675C6.70171 17.0697 6.82971 17.072 6.9616 17.0743C7.05928 17.0772 7.15696 17.0801 7.25759 17.0831C7.25645 16.9631 7.2553 16.8431 7.25412 16.7195C7.2436 15.5816 7.23589 14.4437 7.23085 13.3058C7.22817 12.7209 7.22455 12.1361 7.21866 11.5513C7.213 10.9856 7.20996 10.4199 7.20863 9.85409C7.20769 9.63963 7.20584 9.42516 7.20303 9.21071C7.17217 6.7578 7.7438 4.71476 9.57991 2.83552C9.66091 2.75189 9.7419 2.66825 9.82535 2.58209C10.8265 1.6086 12.0938 0.957979 13.4504 0.480551C13.6111 0.423859 13.6111 0.423859 13.775 0.366022C15.5964 -0.15649 18.1885 -0.144697 19.9291 0.603359Z" fill="#2488FE"/>
<path d="M32.9322 34.2744C32.9747 34.2744 33.0173 34.2744 33.0612 34.2744C33.0702 36.1271 33.077 37.9797 33.0812 39.8324C33.0832 40.6927 33.0859 41.5531 33.0904 42.4134C33.0942 43.1637 33.0967 43.9139 33.0976 44.6642C33.0981 45.0611 33.0993 45.458 33.1021 45.8548C33.1049 46.299 33.1053 46.7432 33.1051 47.1874C33.1065 47.3175 33.1079 47.4476 33.1093 47.5816C33.1039 48.8257 32.8152 49.925 31.9 50.877C30.7206 51.8214 29.3779 51.9903 27.8573 51.9768C27.6267 51.9769 27.6267 51.9769 27.3915 51.9769C26.9741 51.9767 26.5568 51.975 26.1395 51.9725C25.7018 51.9703 25.2641 51.9701 24.8264 51.9697C23.9993 51.9686 23.1724 51.9657 22.3454 51.9621C21.4031 51.9582 20.4608 51.9562 19.5185 51.9545C17.5818 51.9508 15.6452 51.9446 13.7085 51.9367C13.7085 51.8978 13.7085 51.859 13.7085 51.8189C13.9223 51.8057 13.9223 51.8057 14.1404 51.7923C19.5321 51.4009 24.5896 49.054 28.1182 45.306C31.0102 42.1378 32.592 38.3705 32.9322 34.2744Z" fill="#EBBF00"/>
<path d="M6.22546 35.923C6.68449 35.912 6.68449 35.912 7.15278 35.9009C7.29552 35.8961 7.29552 35.8961 7.44115 35.8912C8.1945 35.8825 8.57618 36.0723 9.10417 36.5412C9.3856 36.9597 9.38818 37.2052 9.32189 37.6892C9.1258 38.0642 8.89833 38.3646 8.54779 38.6312C8.08064 38.7733 7.65433 38.7616 7.16891 38.7563C6.7019 38.7527 6.7019 38.7527 6.22546 38.7489C6.22546 37.8164 6.22546 36.8838 6.22546 35.923Z" fill="#FECB00"/>
<path d="M6.22546 31.2129C6.68449 31.202 6.68449 31.202 7.15278 31.1908C7.29552 31.186 7.29552 31.186 7.44115 31.1811C8.1945 31.1724 8.57618 31.3622 9.10417 31.8311C9.3856 32.2496 9.38818 32.4951 9.32189 32.9791C9.1258 33.3541 8.89833 33.6545 8.54779 33.9211C8.08064 34.0632 7.65433 34.0516 7.16891 34.0462C6.7019 34.0426 6.7019 34.0426 6.22546 34.0389C6.22546 33.1063 6.22546 32.1737 6.22546 31.2129Z" fill="#FECB00"/>
</svg>
