<?xml version="1.0" encoding="UTF-8"?>
<svg version="1.1" xmlns="http://www.w3.org/2000/svg" width="512" height="512">
<path d="M0 0 C4.96314082 2.86335047 9.55918241 6.21871273 14.0546875 9.765625 C20.71997177 14.26317244 27.85413539 14.20811429 35.625 13.5 C43.23499226 11.82512726 48.9779646 7.27508616 54.9609375 2.5234375 C59.30673268 -0.77732775 62.09486956 -2.06429902 67.625 -1.5 C70.70332272 -0.17072428 72.20847259 0.80578765 73.9375 3.6875 C74.84515862 7.40064889 74.75447964 10.68035055 74.625 14.5 C75.44742187 14.71914063 76.26984375 14.93828125 77.1171875 15.1640625 C90.42107767 18.94322761 102.38597666 25.41010617 110 37.375 C115.60916687 47.59614852 117.50829984 58.20062322 114.5 69.625 C111.99589093 76.99491341 107.70596518 83.63734786 102.625 89.5 C103.79417969 89.60957031 104.96335937 89.71914062 106.16796875 89.83203125 C122.36146741 91.87268987 138.25552815 102.0988745 148.875 114.02734375 C151.08009397 117.1430234 151.28384334 118.85905545 151.06640625 122.5625 C150.25326444 126.13168881 148.60217008 127.51521994 145.625 129.5 C142.79273398 130.19664608 140.4565006 130.21225376 137.625 129.5 C135.3125 127.5 135.3125 127.5 134.13671875 126.12109375 C118.23684 109.07083617 92.02278543 104.93381462 69.875 104 C62.44100538 103.66015632 55.03463355 103.20783085 47.625 102.5 C48.47320312 103.02207031 49.32140625 103.54414062 50.1953125 104.08203125 C62.80643801 111.95082163 74.17226982 120.90705472 85.0078125 131.0703125 C87.10561379 133.01782355 89.22809773 134.87088035 91.4375 136.6875 C94.51873324 139.29469735 97.09824033 142.19598526 99.703125 145.2734375 C101.03065247 146.81142664 102.39847943 148.31521393 103.796875 149.7890625 C143.20105535 191.38236398 165.55130403 248.09559576 176.625 303.5 C176.80434082 304.38445801 176.98368164 305.26891602 177.16845703 306.18017578 C181.87152581 330.49882439 182.68223958 359.61354236 175.625 383.5 C175.31151611 384.56951904 175.31151611 384.56951904 174.99169922 385.66064453 C168.99446882 405.20667408 157.1357301 422.41950507 140.625 434.5 C139.59890625 435.25152344 138.5728125 436.00304687 137.515625 436.77734375 C105.73094803 459.03800658 67.23435119 457.82061666 30.16692281 457.70278788 C25.49185745 457.69011075 20.81678827 457.68909687 16.14170837 457.68673706 C7.32741575 457.68057138 -1.48682605 457.66422858 -10.3010965 457.64403808 C-20.35221743 457.62152423 -30.40334105 457.6106471 -40.45448101 457.60064721 C-61.09468215 457.57985677 -81.73483785 457.54477857 -102.375 457.5 C-102.33366943 458.71453857 -102.33366943 458.71453857 -102.29150391 459.95361328 C-102.27007324 461.02337402 -102.24864258 462.09313477 -102.2265625 463.1953125 C-102.18523193 464.78110107 -102.18523193 464.78110107 -102.14306641 466.39892578 C-102.52933626 471.56355707 -104.77640468 474.89423616 -108.375 478.5 C-126.41388345 492.35460636 -152.35530946 494.49321061 -174.2734375 492.00390625 C-190.16040133 489.8866003 -205.24310014 485.70918049 -216.375 473.5 C-216.40078125 474.42941406 -216.4265625 475.35882813 -216.453125 476.31640625 C-217.05026841 489.33141835 -217.05026841 489.33141835 -221.375 494.5 C-236.0210342 507.42794173 -256.08256756 510.04464081 -274.875 509.875 C-276.16019531 509.88660156 -277.44539063 509.89820313 -278.76953125 509.91015625 C-295.15732099 509.86074583 -314.78854464 506.95564101 -327.375 495.5 C-332.99984627 489.31868071 -333.12415098 484.22983907 -333.07421875 476.06640625 C-333.08137405 474.8745018 -333.08852936 473.68259735 -333.09590149 472.45457458 C-333.10366594 469.94067124 -333.09869322 467.42670028 -333.08178711 464.9128418 C-333.06257746 461.07796274 -333.101956 457.24671603 -333.14648438 453.41210938 C-333.14677478 450.96353952 -333.14363357 448.51496636 -333.13671875 446.06640625 C-333.15200119 444.92659805 -333.16728363 443.78678986 -333.18302917 442.61244202 C-333.07516548 435.19969562 -331.71370584 430.75704201 -326.375 425.5 C-319.50526359 419.95988999 -310.48180597 415.86927955 -301.70532227 414.95239258 C-300.48909935 414.82348381 -300.48909935 414.82348381 -299.24830627 414.69197083 C-298.6301152 414.62862045 -298.01192413 414.56527008 -297.375 414.5 C-297.37960896 413.29109352 -297.38421793 412.08218704 -297.38896656 410.83664703 C-297.49729447 382.12898544 -297.57972189 353.42132668 -297.63032665 324.71350685 C-297.63658006 321.17879587 -297.64305168 317.64408533 -297.6496582 314.109375 C-297.65096976 313.4056884 -297.65228131 312.70200179 -297.6536326 311.97699136 C-297.67537936 300.58830915 -297.71479679 289.19975334 -297.76076398 277.81114608 C-297.80754907 266.12226707 -297.83529971 254.43345418 -297.84544247 242.74448538 C-297.85196247 236.18022355 -297.86729291 229.61624827 -297.90365028 223.05207825 C-297.93759653 216.87314616 -297.94805545 210.69461859 -297.94053841 204.51560211 C-297.94191354 202.24845939 -297.95185375 199.98130309 -297.97102737 197.71424103 C-297.99594322 194.61616805 -297.98990965 191.51961777 -297.97627258 188.42150879 C-297.99083679 187.52654772 -298.005401 186.63158666 -298.02040654 185.70950556 C-297.94630423 179.4717406 -296.3321009 175.34546078 -292.375 170.5 C-281.2449802 160.86091744 -264.59523066 156.38686065 -250.13452148 156.46777344 C-249.05549057 156.47242615 -247.97645966 156.47707886 -246.86473083 156.48187256 C-246.04311966 156.48785461 -245.22150848 156.49383667 -244.375 156.5 C-244.38388245 155.2354599 -244.39276489 153.9709198 -244.4019165 152.6680603 C-244.48300971 140.74990176 -244.54296913 128.83179921 -244.58224869 116.91342735 C-244.60312162 110.78608067 -244.63143453 104.65895676 -244.67675781 98.53173828 C-244.7202251 92.61841264 -244.74413932 86.70530124 -244.75450897 80.79182816 C-244.76189868 78.53597262 -244.77632899 76.28012878 -244.79792023 74.02436447 C-244.82696516 70.86412992 -244.83095544 67.70478019 -244.82910156 64.54443359 C-244.84348267 63.61222992 -244.85786377 62.68002625 -244.87268066 61.71957397 C-244.82972723 54.95086864 -243.34507692 51.8328344 -238.83984375 46.77734375 C-221.52999009 31.59248491 -195.08820119 31.27443447 -173.375 32.5 C-169.6452524 32.91146252 -165.98989427 33.50751726 -162.3125 34.25 C-161.53551758 34.40686279 -160.75853516 34.56372559 -159.95800781 34.7253418 C-148.19269727 37.39520167 -136.14262884 43.14258543 -129.375 53.5 C-128.17841206 57.90977183 -128.20328849 62.33379183 -128.16967773 66.87036133 C-128.15977814 67.70014496 -128.14987854 68.52992859 -128.13967896 69.38485718 C-128.10818721 72.11721989 -128.08335543 74.84959996 -128.05859375 77.58203125 C-128.03801357 79.48061058 -128.01701682 81.37918543 -127.99562073 83.27775574 C-127.94050993 88.26716482 -127.89105229 93.2566145 -127.84277344 98.24609375 C-127.79247803 103.34053141 -127.73683398 108.43491034 -127.68164062 113.52929688 C-127.57419354 123.51948104 -127.47271884 133.50971627 -127.375 143.5 C-126.94940796 143.07048035 -126.52381592 142.64096069 -126.08532715 142.19842529 C-124.13183194 140.22921566 -122.17531893 138.26303048 -120.21875 136.296875 C-119.21473145 135.28343018 -119.21473145 135.28343018 -118.19042969 134.24951172 C-112.86520433 128.9047562 -107.38823384 124.06972777 -101.375 119.5 C-100.83472168 119.08331055 -100.29444336 118.66662109 -99.73779297 118.23730469 C-92.27278726 112.49885623 -84.58687893 107.24058073 -76.5625 102.3125 C-75.77931396 101.83055176 -74.99612793 101.34860352 -74.18920898 100.85205078 C-68.63296065 97.5 -68.63296065 97.5 -66.375 97.5 C-66.375 96.84 -66.375 96.18 -66.375 95.5 C-66.97054688 95.21769531 -67.56609375 94.93539062 -68.1796875 94.64453125 C-82.81753665 87.01305474 -92.26171834 68.33038326 -97.1328125 53.26953125 C-101.16206254 40.05871968 -103.49122744 27.31581225 -103.875 13.5 C-103.93953369 12.13584961 -103.93953369 12.13584961 -104.00537109 10.74414062 C-104.06776254 4.42965548 -104.06776254 4.42965548 -102.10058594 1.78979492 C-99.74039269 -0.25301559 -97.65195807 -1.43076048 -94.625 -2.1875 C-86.78495545 -0.52902904 -80.11360523 5.27862295 -73.796875 9.984375 C-69.02397512 12.97128654 -64.57521967 13.79225102 -59 13.8125 C-57.94039063 13.82925781 -56.88078125 13.84601562 -55.7890625 13.86328125 C-48.43925665 13.08120809 -43.0762289 9.93865872 -37.3125 5.5 C-26.25368166 -2.95893866 -13.10381729 -6.28640646 0 0 Z M71.625 33.5 C71.40585937 34.55316406 71.18671875 35.60632812 70.9609375 36.69140625 C67.22021863 53.98188501 60.76770237 68.89450859 50.625 83.5 C61.99905936 86.07170827 73.83460617 84.98042036 84.04296875 79.109375 C89.51325414 75.20935915 94.95055409 70.19778362 96.625 63.5 C97.39757424 56.64191788 96.80859837 51.11571964 92.625 45.5 C87.22055795 39.49017239 81.401273 35.73439224 73.625 33.5 C72.965 33.5 72.305 33.5 71.625 33.5 Z " fill="#A56A43" transform="translate(332.375,2.5)"/>
<path d="M0 0 C0.77698242 0.15686279 1.55396484 0.31372559 2.35449219 0.4753418 C14.11980273 3.14520167 26.16987116 8.89258543 32.9375 19.25 C34.1383346 23.68694163 34.13273169 28.15605648 34.19384766 32.72119141 C34.20845032 33.56256653 34.22305298 34.40394165 34.23809814 35.27081299 C34.36395033 43.01729296 34.43284743 50.76476064 34.48594093 58.51204872 C34.52168207 63.70785244 34.57497002 68.90210529 34.67138672 74.09716797 C34.7645737 79.13464 34.81291845 84.17074121 34.83033371 89.20902634 C34.84436146 91.12038271 34.87384949 93.03169509 34.91963577 94.94255447 C35.30199093 111.72017305 35.30199093 111.72017305 29.55932617 118.7902832 C28.04990515 120.3085126 26.51263316 121.80005936 24.9375 123.25 C23.9592392 124.39808008 23.00084202 125.56375863 22.07421875 126.75390625 C21.26597656 127.76324219 20.45773438 128.77257812 19.625 129.8125 C10.31761026 141.61954134 1.83533934 154.34856478 -5.38964844 167.53808594 C-7.09023514 170.61554908 -8.91370878 173.51101154 -10.90917969 176.40380859 C-23.20042354 195.86897174 -20.53504373 219.21925425 -20.28137207 241.33123779 C-20.22866332 246.97015123 -20.23933933 252.60894111 -20.24414062 258.24804688 C-20.24443738 269.24945398 -20.17616102 280.24921978 -20.0625 291.25 C-19.30834305 291.08865067 -18.5541861 290.92730133 -17.7771759 290.76106262 C-12.2811233 289.72638034 -6.61726408 289.98410191 -1.0378418 289.95483398 C0.46778851 289.94342648 1.9733821 289.92315756 3.47875977 289.89331055 C21.4688278 289.53768137 39.41996649 292.99977537 54 304.2109375 C60.19364205 310.72924627 60.52578679 316.43776887 60.48681641 325.10107422 C60.49703827 326.27757538 60.50726013 327.45407654 60.51779175 328.66622925 C60.54553635 332.54592373 60.54367395 336.42490574 60.5390625 340.3046875 C60.54368469 342.32466901 60.5506925 344.34463311 60.55787599 346.36460698 C60.58002446 352.71238188 60.58096529 359.05992005 60.56884766 365.40771484 C60.55677328 371.93760633 60.58138437 378.46663536 60.62398779 384.99637973 C60.65931584 390.61960046 60.67120752 396.24254786 60.66471231 401.86587536 C60.6611008 405.21711831 60.66887031 408.56725688 60.69414139 411.91848373 C60.71889116 415.65970519 60.70527767 419.39894559 60.68212891 423.14013672 C60.69741638 424.23757202 60.71270386 425.33500732 60.72845459 426.46569824 C60.62684459 433.91722001 58.86193934 438.6126792 53.9375 444.25 C37.93041464 457.8043868 12.95760512 459.35869578 -7.0625 458.25 C-24.49617473 456.69825715 -41.85608247 452.63768374 -54.0625 439.25 C-54.08828125 440.17941406 -54.1140625 441.10882813 -54.140625 442.06640625 C-54.73776841 455.08141835 -54.73776841 455.08141835 -59.0625 460.25 C-73.7085342 473.17794173 -93.77006756 475.79464081 -112.5625 475.625 C-113.84769531 475.63660156 -115.13289063 475.64820313 -116.45703125 475.66015625 C-132.84482099 475.61074583 -152.47604464 472.70564101 -165.0625 461.25 C-170.68734627 455.06868071 -170.81165098 449.97983907 -170.76171875 441.81640625 C-170.76887405 440.6245018 -170.77602936 439.43259735 -170.78340149 438.20457458 C-170.79116594 435.69067124 -170.78619322 433.17670028 -170.76928711 430.6628418 C-170.75007746 426.82796274 -170.789456 422.99671603 -170.83398438 419.16210938 C-170.83427478 416.71353952 -170.83113357 414.26496636 -170.82421875 411.81640625 C-170.83950119 410.67659805 -170.85478363 409.53678986 -170.87052917 408.36244202 C-170.76266548 400.94969562 -169.40120584 396.50704201 -164.0625 391.25 C-157.19276359 385.70988999 -148.16930597 381.61927955 -139.39282227 380.70239258 C-138.17659935 380.57348381 -138.17659935 380.57348381 -136.93580627 380.44197083 C-136.3176152 380.37862045 -135.69942413 380.31527008 -135.0625 380.25 C-135.06710896 379.04109352 -135.07171793 377.83218704 -135.07646656 376.58664703 C-135.18479447 347.87898544 -135.26722189 319.17132668 -135.31782665 290.46350685 C-135.32408006 286.92879587 -135.33055168 283.39408533 -135.3371582 279.859375 C-135.33846976 279.1556884 -135.33978131 278.45200179 -135.3411326 277.72699136 C-135.36287936 266.33830915 -135.40229679 254.94975334 -135.44826398 243.56114608 C-135.49504907 231.87226707 -135.52279971 220.18345418 -135.53294247 208.49448538 C-135.53946247 201.93022355 -135.55479291 195.36624827 -135.59115028 188.80207825 C-135.62509653 182.62314616 -135.63555545 176.44461859 -135.62803841 170.26560211 C-135.62941354 167.99845939 -135.63935375 165.73130309 -135.65852737 163.46424103 C-135.68344322 160.36616805 -135.67740965 157.26961777 -135.66377258 154.17150879 C-135.67833679 153.27654772 -135.692901 152.38158666 -135.70790654 151.45950556 C-135.63380423 145.2217406 -134.0196009 141.09546078 -130.0625 136.25 C-118.9324802 126.61091744 -102.28273066 122.13686065 -87.82202148 122.21777344 C-86.74299057 122.22242615 -85.66395966 122.22707886 -84.55223083 122.23187256 C-83.73061966 122.23785461 -82.90900848 122.24383667 -82.0625 122.25 C-82.07138245 120.9854599 -82.08026489 119.7209198 -82.0894165 118.4180603 C-82.17050971 106.49990176 -82.23046913 94.58179921 -82.26974869 82.66342735 C-82.29062162 76.53608067 -82.31893453 70.40895676 -82.36425781 64.28173828 C-82.4077251 58.36841264 -82.43163932 52.45530124 -82.44200897 46.54182816 C-82.44939868 44.28597262 -82.46382899 42.03012878 -82.48542023 39.77436447 C-82.51446516 36.61412992 -82.51845544 33.45478019 -82.51660156 30.29443359 C-82.53098267 29.36222992 -82.54536377 28.43002625 -82.56018066 27.46957397 C-82.51722723 20.70086864 -81.03257692 17.5828344 -76.52734375 12.52734375 C-57.24843533 -4.38484446 -23.79101909 -4.80351569 0 0 Z " fill="#F19C1F" transform="translate(170.0625,36.75)"/>
<path d="M0 0 C0.71603394 -0.01062469 1.43206787 -0.02124939 2.1697998 -0.03219604 C19.83648661 -0.2325519 37.73438811 3.49154654 52 14.4609375 C58.19364205 20.97924627 58.52578679 26.68776887 58.48681641 35.35107422 C58.49703827 36.52757538 58.50726013 37.70407654 58.51779175 38.91622925 C58.54553635 42.79592373 58.54367395 46.67490574 58.5390625 50.5546875 C58.54368469 52.57466901 58.5506925 54.59463311 58.55787599 56.61460698 C58.58002446 62.96238188 58.58096529 69.30992005 58.56884766 75.65771484 C58.55677328 82.18760633 58.58138437 88.71663536 58.62398779 95.24637973 C58.65931584 100.86960046 58.67120752 106.49254786 58.66471231 112.11587536 C58.6611008 115.46711831 58.66887031 118.81725688 58.69414139 122.16848373 C58.71889116 125.90970519 58.70527767 129.64894559 58.68212891 133.39013672 C58.69741638 134.48757202 58.71270386 135.58500732 58.72845459 136.71569824 C58.62684459 144.16722001 56.86193934 148.8626792 51.9375 154.5 C35.93041464 168.0543868 10.95760512 169.60869578 -9.0625 168.5 C-26.49617473 166.94825715 -43.85608247 162.88768374 -56.0625 149.5 C-56.08828125 150.42941406 -56.1140625 151.35882813 -56.140625 152.31640625 C-56.73776841 165.33141835 -56.73776841 165.33141835 -61.0625 170.5 C-75.7085342 183.42794173 -95.77006756 186.04464081 -114.5625 185.875 C-115.84769531 185.88660156 -117.13289063 185.89820313 -118.45703125 185.91015625 C-134.84482099 185.86074583 -154.47604464 182.95564101 -167.0625 171.5 C-172.68734627 165.31868071 -172.81165098 160.22983907 -172.76171875 152.06640625 C-172.76887405 150.8745018 -172.77602936 149.68259735 -172.78340149 148.45457458 C-172.79116594 145.94067124 -172.78619322 143.42670028 -172.76928711 140.9128418 C-172.75007746 137.07796274 -172.789456 133.24671603 -172.83398438 129.41210938 C-172.83427478 126.96353952 -172.83113357 124.51496636 -172.82421875 122.06640625 C-172.83950119 120.92659805 -172.85478363 119.78678986 -172.87052917 118.61244202 C-172.76266548 111.19969562 -171.40120584 106.75704201 -166.0625 101.5 C-162.97056896 99.00650722 -159.6083512 97.27823376 -156.0625 95.5 C-155.32515625 95.11972656 -154.5878125 94.73945313 -153.828125 94.34765625 C-132.07783689 84.41002461 -101.18831295 85.59352451 -79.01342773 93.50170898 C-69.99697183 96.96002926 -62.96272881 101.09481806 -58.0625 109.5 C-58.06995743 108.41973541 -58.07741486 107.33947083 -58.08509827 106.22647095 C-58.14968254 96.01634849 -58.166633 85.80709386 -58.13765812 75.59679604 C-58.12427512 70.34813689 -58.12732735 65.10058657 -58.16870117 59.85205078 C-58.20805814 54.7810542 -58.20324806 49.71180069 -58.16857719 44.64078903 C-58.16300383 42.71202087 -58.17300346 40.78313918 -58.19926643 38.85454178 C-58.41349134 21.86708288 -58.41349134 21.86708288 -52.70288086 15.38378906 C-38.04168026 1.99868738 -18.98711357 0.15018027 0 0 Z " fill="#EFC319" transform="translate(172.0625,326.5)"/>
<path d="M0 0 C4.96314082 2.86335047 9.55918241 6.21871273 14.0546875 9.765625 C20.71997177 14.26317244 27.85413539 14.20811429 35.625 13.5 C43.23499226 11.82512726 48.9779646 7.27508616 54.9609375 2.5234375 C59.30673268 -0.77732775 62.09486956 -2.06429902 67.625 -1.5 C70.75210845 -0.14965772 72.2282444 0.71491785 73.77416992 3.77392578 C74.70592935 6.75929903 74.74049183 8.82368576 74.48828125 11.9296875 C74.36682739 13.48260498 74.36682739 13.48260498 74.24291992 15.06689453 C74.14213135 16.15856934 74.04134277 17.25024414 73.9375 18.375 C73.83864502 19.49890137 73.73979004 20.62280273 73.63793945 21.78076172 C71.14491168 48.39733029 63.14143973 73.28794299 42.625 91.5 C34.43655869 98.18722707 24.22770409 103.7433784 13.375 103.5625 C11.51875 103.5315625 11.51875 103.5315625 9.625 103.5 C10.10144713 107.8285729 12.66371212 109.87189748 15.6875 112.8125 C16.18701172 113.30105469 16.68652344 113.78960937 17.20117188 114.29296875 C19.93745588 116.94846388 22.7325287 119.51644356 25.625 122 C29.01591902 124.93879649 32.35950357 127.92241577 35.625 131 C36.57375 131.8765625 37.5225 132.753125 38.5 133.65625 C41.16172031 137.21825806 41.16015206 139.14742988 40.625 143.5 C38.62927265 147.17213833 37.30566189 148.25129662 33.375 149.6875 C25.07040644 149.27227032 19.56705012 141.57213167 14.07421875 135.953125 C11.33336416 133.20789903 8.45972562 130.68543506 5.51171875 128.16796875 C2.90330189 125.86197703 0.48588213 123.38826379 -1.9296875 120.8828125 C-3.34609777 119.39145515 -3.34609777 119.39145515 -5.375 118.5 C-5.35928955 119.38260498 -5.3435791 120.26520996 -5.32739258 121.17456055 C-5.27612002 124.46400886 -5.23858083 127.75302961 -5.21020508 131.04272461 C-5.1951624 132.46369141 -5.17472296 133.88461213 -5.14868164 135.30541992 C-5.11209653 137.35346886 -5.09522903 139.4009015 -5.08203125 141.44921875 C-5.0663208 142.67987061 -5.05061035 143.91052246 -5.03442383 145.1784668 C-5.40371592 148.78005741 -6.23659302 150.61674358 -8.375 153.5 C-11.08937679 155.63272462 -12.42326833 155.49745956 -15.9375 155.3125 C-20.47867893 154.23913043 -20.47867893 154.23913043 -22.375 151.5 C-23.51794314 148.07117059 -23.58464472 145.25917162 -23.69140625 141.64453125 C-23.71218735 140.98289474 -23.73296844 140.32125824 -23.75437927 139.63957214 C-23.81964727 137.53065148 -23.87865344 135.42160865 -23.9375 133.3125 C-23.98070689 131.88084685 -24.02432188 130.44920596 -24.06835938 129.01757812 C-24.17530506 125.51184846 -24.27663641 122.00598214 -24.375 118.5 C-24.97683105 119.10763184 -25.57866211 119.71526367 -26.19873047 120.34130859 C-26.99682129 121.14391113 -27.79491211 121.94651367 -28.6171875 122.7734375 C-29.40464355 123.56669434 -30.19209961 124.35995117 -31.00341797 125.17724609 C-33.73323087 127.85085531 -36.58353529 130.34023199 -39.484375 132.82421875 C-41.32855276 134.45883085 -43.03822315 136.16573097 -44.75 137.9375 C-56.14245465 149.35596482 -56.14245465 149.35596482 -62.25 149.75 C-65.71168399 148.3653264 -67.3563964 147.64902162 -69.375 144.5 C-70.01868847 140.57350031 -70.33041744 138.13188089 -68.3046875 134.671875 C-65.7316679 131.55050696 -62.74319687 128.90822 -59.6875 126.26953125 C-55.35415823 122.49582959 -51.09513 118.64971272 -46.875 114.75 C-46.14796875 114.09128906 -45.4209375 113.43257813 -44.671875 112.75390625 C-43.98609375 112.11839844 -43.3003125 111.48289062 -42.59375 110.828125 C-41.97435547 110.2599707 -41.35496094 109.69181641 -40.71679688 109.10644531 C-39.05447204 107.46510362 -39.05447204 107.46510362 -39.375 104.5 C-40.1278125 104.43683594 -40.880625 104.37367187 -41.65625 104.30859375 C-58.87493445 102.32342989 -71.62902411 95.01773522 -82.4375 81.5 C-97.21647185 61.99357541 -103.20435783 37.64311826 -103.875 13.5 C-103.93953369 12.13584961 -103.93953369 12.13584961 -104.00537109 10.74414062 C-104.06776254 4.42965548 -104.06776254 4.42965548 -102.10058594 1.78979492 C-99.74039269 -0.25301559 -97.65195807 -1.43076048 -94.625 -2.1875 C-86.78495545 -0.52902904 -80.11360523 5.27862295 -73.796875 9.984375 C-69.02397512 12.97128654 -64.57521967 13.79225102 -59 13.8125 C-57.41058594 13.83763672 -57.41058594 13.83763672 -55.7890625 13.86328125 C-48.43925665 13.08120809 -43.0762289 9.93865872 -37.3125 5.5 C-26.25368166 -2.95893866 -13.10381729 -6.28640646 0 0 Z " fill="#7F5232" transform="translate(332.375,2.5)"/>
<path d="M0 0 C0.77698242 0.15686279 1.55396484 0.31372559 2.35449219 0.4753418 C14.11980273 3.14520167 26.16987116 8.89258543 32.9375 19.25 C34.1383346 23.68694163 34.13273169 28.15605648 34.19384766 32.72119141 C34.20845032 33.56256653 34.22305298 34.40394165 34.23809814 35.27081299 C34.36395033 43.01729296 34.43284743 50.76476064 34.48594093 58.51204872 C34.52168207 63.70785244 34.57497002 68.90210529 34.67138672 74.09716797 C34.7645737 79.13464 34.81291845 84.17074121 34.83033371 89.20902634 C34.84436146 91.12038271 34.87384949 93.03169509 34.91963577 94.94255447 C35.30199093 111.72017305 35.30199093 111.72017305 29.55932617 118.7902832 C28.04990515 120.3085126 26.51263316 121.80005936 24.9375 123.25 C23.9592392 124.39808008 23.00084202 125.56375863 22.07421875 126.75390625 C20.86185547 128.26791016 20.86185547 128.26791016 19.625 129.8125 C3.75916683 149.93936192 -8.34398968 172.05730828 -19.0625 195.25 C-19.3925 195.25 -19.7225 195.25 -20.0625 195.25 C-20.06392502 194.64136108 -20.06535004 194.03272217 -20.06681824 193.40563965 C-20.08657171 187.04568968 -20.14096631 180.68669219 -20.21508789 174.32714844 C-20.23822216 171.95677535 -20.25265281 169.58630013 -20.25805664 167.21582031 C-20.26737913 163.7994862 -20.30844538 160.38474835 -20.35546875 156.96875 C-20.3515361 155.91635132 -20.34760345 154.86395264 -20.34355164 153.77966309 C-20.47631219 147.01809767 -21.66539424 142.48120423 -26.0625 137.25 C-39.15181492 125.43505733 -58.08734808 123.82734894 -74.82617188 122.72753906 C-75.52256775 122.68146515 -76.21896362 122.63539124 -76.9364624 122.58792114 C-78.64511821 122.47492643 -80.35380596 122.36241496 -82.0625 122.25 C-82.15518824 109.05453638 -82.22625934 95.85915024 -82.26974869 82.66342735 C-82.29062162 76.53608067 -82.31893453 70.40895676 -82.36425781 64.28173828 C-82.4077251 58.36841264 -82.43163932 52.45530124 -82.44200897 46.54182816 C-82.44939868 44.28597262 -82.46382899 42.03012878 -82.48542023 39.77436447 C-82.51446516 36.61412992 -82.51845544 33.45478019 -82.51660156 30.29443359 C-82.53098267 29.36222992 -82.54536377 28.43002625 -82.56018066 27.46957397 C-82.51722723 20.70086864 -81.03257692 17.5828344 -76.52734375 12.52734375 C-57.24843533 -4.38484446 -23.79101909 -4.80351569 0 0 Z " fill="#E57E24" transform="translate(170.0625,36.75)"/>
<path d="M0 0 C6.02670783 6.59211325 6.42814325 12.17007637 6.36328125 20.81640625 C6.36902161 22.50793823 6.36902161 22.50793823 6.37487793 24.23364258 C6.37759183 26.61052344 6.37026743 28.98743443 6.35351562 31.36425781 C6.33210025 34.99221698 6.3533369 38.61819582 6.37890625 42.24609375 C6.37626288 44.56120227 6.37113773 46.87630956 6.36328125 49.19140625 C6.37137817 50.27075439 6.3794751 51.35010254 6.38781738 52.4621582 C6.30850413 58.86549951 5.62360252 62.78592109 1.83203125 68.00390625 C-11.98556593 81.28712122 -33.45769672 83.54329186 -51.66796875 83.37890625 C-52.95316406 83.39050781 -54.23835938 83.40210938 -55.5625 83.4140625 C-71.95028974 83.36465208 -91.58151339 80.45954726 -104.16796875 69.00390625 C-109.79281502 62.82258696 -109.91711973 57.73374532 -109.8671875 49.5703125 C-109.8743428 48.37840805 -109.88149811 47.1865036 -109.88887024 45.95848083 C-109.89663469 43.44457749 -109.89166197 40.93060653 -109.87475586 38.41674805 C-109.85554621 34.58186899 -109.89492475 30.75062228 -109.93945312 26.91601562 C-109.93974353 24.46744577 -109.93660232 22.01887261 -109.9296875 19.5703125 C-109.94496994 18.4305043 -109.96025238 17.29069611 -109.97599792 16.11634827 C-109.86813423 8.70360187 -108.50667459 4.26094826 -103.16796875 -0.99609375 C-100.07603771 -3.48958653 -96.71381995 -5.21785999 -93.16796875 -6.99609375 C-92.430625 -7.37636719 -91.69328125 -7.75664062 -90.93359375 -8.1484375 C-64.92313771 -20.03252517 -22.88816259 -18.01257766 0 0 Z " fill="#F3D45A" transform="translate(109.16796875,428.99609375)"/>
<path d="M0 0 C2.88883304 0.69907703 4.68553786 2.03041447 6.3984375 4.46484375 C8.0171126 8.66229045 7.5486909 13.11794637 7.1953125 17.53125 C8.4740625 17.61375 9.7528125 17.69625 11.0703125 17.78125 C20.34115737 18.85823983 27.98451372 22.50744966 34.1953125 29.53125 C39.93683377 37.58213871 43.60284367 45.47745593 42.1953125 55.53125 C40.39884396 58.46548195 39.2512054 60.00330355 36.1953125 61.53125 C32.8828125 61.96875 32.8828125 61.96875 29.1953125 61.53125 C24.42034036 57.49905131 23.7139925 53.92656473 22.6875 47.9296875 C21.92394307 44.20886244 20.85982724 42.2607529 18.1953125 39.53125 C14.5653125 38.21125 10.9353125 36.89125 7.1953125 35.53125 C7.1953125 47.08125 7.1953125 58.63125 7.1953125 70.53125 C10.1653125 70.86125 13.1353125 71.19125 16.1953125 71.53125 C25.72969489 74.01848019 32.39825116 79.28597031 37.5703125 87.59375 C42.59409758 96.25206116 43.97357856 105.67484273 41.4375 115.453125 C37.47810607 125.74131394 30.70222978 134.08912973 20.6953125 139.03125 C16.09867487 140.87963339 12.10275444 140.84283362 7.1953125 140.53125 C7.24171875 141.33949219 7.288125 142.14773438 7.3359375 142.98046875 C7.63336863 151.78655459 7.63336863 151.78655459 5.3203125 155.71875 C2.52586887 158.10224604 1.55001326 158.49840734 -2.1796875 158.84375 C-5.8046875 158.53125 -5.8046875 158.53125 -8.1796875 156.65625 C-10.93158468 153.05761523 -10.91504274 150.90464252 -10.8671875 146.40625 C-10.85816406 145.31054688 -10.84914063 144.21484375 -10.83984375 143.0859375 C-10.82824219 142.24289062 -10.81664062 141.39984375 -10.8046875 140.53125 C-11.9390625 140.593125 -13.0734375 140.655 -14.2421875 140.71875 C-23.35664828 140.65456366 -30.3497161 136.81603383 -36.8046875 130.53125 C-43.56917969 122.32248714 -46.0959972 114.80517743 -46.30078125 104.265625 C-45.67195262 100.79964042 -44.59244334 99.63188292 -41.8046875 97.53125 C-37.3085116 96.96030703 -34.99393581 96.96247907 -30.9296875 98.90625 C-28.25315996 102.21254873 -27.98094856 104.86994307 -27.3125 108.99609375 C-26.43125603 113.39553478 -24.80641166 116.96799875 -21.1640625 119.8125 C-17.67682076 121.93516889 -14.85375276 122.72143695 -10.8046875 123.53125 C-10.8046875 111.65125 -10.8046875 99.77125 -10.8046875 87.53125 C-13.4446875 87.53125 -16.0846875 87.53125 -18.8046875 87.53125 C-26.8415834 86.17671698 -33.46858123 81.5796404 -38.59765625 75.35546875 C-40.1482849 73.13864409 -41.50619064 70.90350387 -42.8046875 68.53125 C-43.145 67.94085938 -43.4853125 67.35046875 -43.8359375 66.7421875 C-47.2489544 59.56853161 -47.0831518 49.27140224 -45.04296875 41.70703125 C-44.10365053 39.52023903 -43.05862292 37.55147928 -41.8046875 35.53125 C-41.2271875 34.5 -40.6496875 33.46875 -40.0546875 32.40625 C-34.37850443 25.15334941 -26.9810654 19.37727915 -17.8046875 17.53125 C-15.47167817 17.49236651 -13.13758949 17.4863865 -10.8046875 17.53125 C-10.85109375 16.72300781 -10.8975 15.91476563 -10.9453125 15.08203125 C-11.23503394 6.50420717 -11.23503394 6.50420717 -9.3671875 2.28125 C-6.12406847 0.066437 -3.88410877 -0.25637682 0 0 Z " fill="#FBD5AB" transform="translate(319.8046875,185.46875)"/>
<path d="M0 0 C0.77698242 0.15686279 1.55396484 0.31372559 2.35449219 0.4753418 C14.11980273 3.14520167 26.16987116 8.89258543 32.9375 19.25 C34.16979618 23.72172047 34.071818 28.20311083 34.05102539 32.80395508 C34.05117142 33.65324585 34.05131744 34.50253662 34.0514679 35.37756348 C34.05077319 38.17491237 34.04300149 40.97219404 34.03515625 43.76953125 C34.0332905 45.7129462 34.03186734 47.65636163 34.03086853 49.59977722 C34.02705571 54.70760401 34.01723597 59.81540224 34.00616455 64.92321777 C33.99592387 70.13826104 33.99136522 75.35330894 33.98632812 80.56835938 C33.9756126 90.79558545 33.95855101 101.02279035 33.9375 111.25 C33.6075 111.25 33.2775 111.25 32.9375 111.25 C32.6075 84.85 32.2775 58.45 31.9375 31.25 C28.4725 35.21 28.4725 35.21 24.9375 39.25 C21.5078125 41.45703125 21.5078125 41.45703125 18.0625 43.0625 C17.14307617 43.49212036 17.14307617 43.49212036 16.20507812 43.93041992 C-8.01930942 55.0502817 -38.43965997 54.1399449 -63.20703125 45.00048828 C-71.52523162 41.63599513 -78.47332056 36.67803269 -82.0625 28.25 C-83.03646044 24.04739905 -82.4449572 21.01491439 -80.5 17.125 C-70.24654131 5.03117693 -54.79894137 0.16599229 -39.34643555 -1.56689453 C-26.27241579 -2.61505218 -12.8799054 -2.60051187 0 0 Z " fill="#F19B1E" transform="translate(170.0625,36.75)"/>
<path d="M0 0 C4.55038238 0.81256828 5.59306114 2.04097911 8.5 5.625 C10.02026815 8.95465344 11.12294497 12.39579125 12.25 15.875 C15.52403985 25.40758397 19.43370727 34.17434558 24.49658203 42.88476562 C25.40558529 44.46125595 26.26632945 46.06533006 27.12109375 47.671875 C27.59675781 48.50203125 28.07242188 49.3321875 28.5625 50.1875 C28.94535156 50.86941406 29.32820313 51.55132812 29.72265625 52.25390625 C32.1842103 54.15281937 34.49482283 54.27838067 37.54516602 54.13110352 C39.84680335 53.72212487 39.84680335 53.72212487 41.93359375 51.01171875 C42.63482046 49.79725089 43.30082321 48.5620174 43.9375 47.3125 C44.48809082 46.31283203 44.48809082 46.31283203 45.04980469 45.29296875 C46.24160652 43.0896036 47.37537951 40.86334074 48.5 38.625 C49.09095459 37.46991943 49.09095459 37.46991943 49.69384766 36.29150391 C54.43034977 26.95911158 58.44165822 17.72479905 61.234375 7.62890625 C62.73689286 4.06274504 64.24587206 2.66806066 67.5 0.625 C71.43750984 0.07236704 73.52385272 -0.01720216 76.875 2.1875 C79.06260855 5.46891283 79.28430578 7.67191324 79.5 11.625 C78.82604973 14.88935547 77.72790403 17.94409367 76.5625 21.0625 C76.24619629 21.93632324 75.92989258 22.81014648 75.60400391 23.71044922 C72.514261 32.01573858 68.64336608 39.80634685 64.5 47.625 C63.49417337 49.62207606 62.49326036 51.62164435 61.5 53.625 C60.83333333 54.95833333 60.16666667 56.29166667 59.5 57.625 C67.30743872 65.64265529 67.30743872 65.64265529 75.5625 73.1875 C78.93463894 76.10336644 82.2559028 79.06731541 85.5 82.125 C86.923125 83.43984375 86.923125 83.43984375 88.375 84.78125 C91.03672031 88.34325806 91.03515206 90.27242988 90.5 94.625 C88.50427265 98.29713833 87.18066189 99.37629662 83.25 100.8125 C74.94540644 100.39727032 69.44205012 92.69713167 63.94921875 87.078125 C61.20836416 84.33289903 58.33472562 81.81043506 55.38671875 79.29296875 C52.77830189 76.98697703 50.36088213 74.51326379 47.9453125 72.0078125 C46.52890223 70.51645515 46.52890223 70.51645515 44.5 69.625 C44.51571045 70.50760498 44.5314209 71.39020996 44.54760742 72.29956055 C44.59887998 75.58900886 44.63641917 78.87802961 44.66479492 82.16772461 C44.6798376 83.58869141 44.70027704 85.00961213 44.72631836 86.43041992 C44.76290347 88.47846886 44.77977097 90.5259015 44.79296875 92.57421875 C44.8086792 93.80487061 44.82438965 95.03552246 44.84057617 96.3034668 C44.47128408 99.90505741 43.63840698 101.74174358 41.5 104.625 C38.78562321 106.75772462 37.45173167 106.62245956 33.9375 106.4375 C29.39632107 105.36413043 29.39632107 105.36413043 27.5 102.625 C26.35705686 99.19617059 26.29035528 96.38417162 26.18359375 92.76953125 C26.16281265 92.10789474 26.14203156 91.44625824 26.12062073 90.76457214 C26.05535273 88.65565148 25.99634656 86.54660865 25.9375 84.4375 C25.89429311 83.00584685 25.85067812 81.57420596 25.80664062 80.14257812 C25.69969494 76.63684846 25.59836359 73.13098214 25.5 69.625 C24.59725342 70.53644775 24.59725342 70.53644775 23.67626953 71.46630859 C22.87817871 72.26891113 22.08008789 73.07151367 21.2578125 73.8984375 C20.47035645 74.69169434 19.68290039 75.48495117 18.87158203 76.30224609 C16.14176913 78.97585531 13.29146471 81.46523199 10.390625 83.94921875 C8.54644724 85.58383085 6.83677685 87.29073097 5.125 89.0625 C-6.26745465 100.48096482 -6.26745465 100.48096482 -12.375 100.875 C-15.83668399 99.4903264 -17.4813964 98.77402162 -19.5 95.625 C-20.14368847 91.69850031 -20.45541744 89.25688089 -18.4296875 85.796875 C-15.85716779 82.67611339 -12.86775498 80.02954175 -9.81640625 77.38671875 C-9.11725098 76.77739502 -8.4180957 76.16807129 -7.69775391 75.5402832 C-6.97249512 74.90823975 -6.24723633 74.27619629 -5.5 73.625 C-2.62139091 71.10938553 0.22837372 68.56557522 3.0625 66 C3.79791016 65.35804687 4.53332031 64.71609375 5.29101562 64.0546875 C5.98001953 63.425625 6.66902344 62.7965625 7.37890625 62.1484375 C8.0035376 61.59075684 8.62816895 61.03307617 9.27172852 60.45849609 C10.75620917 58.64874122 10.75620917 58.64874122 10.32250977 56.15332031 C9.5521512 53.78530805 8.68963111 51.80817087 7.4609375 49.6484375 C7.04835693 48.90400391 6.63577637 48.15957031 6.21069336 47.39257812 C5.76991455 46.60302734 5.32913574 45.81347656 4.875 45 C-9.78604796 18.05679692 -9.78604796 18.05679692 -8.5 5.625 C-5.90783917 1.93313458 -4.45850936 0.79616239 0 0 Z " fill="#603E26" transform="translate(282.5,51.375)"/>
<path d="M0 0 C4.69754357 4.03279684 7.28704281 7.72503119 8.4375 13.9375 C7.28376899 20.62913988 3.44983956 25.69089997 -1.9375 29.75 C-15.94914867 38.26130604 -33.33707663 40.96198162 -49.4375 40.875 C-51.06993652 40.86762817 -51.06993652 40.86762817 -52.73535156 40.86010742 C-70.01277092 40.6105447 -89.25727753 37.4002893 -102.03515625 24.73046875 C-105.33832728 21.02123414 -106.96500458 18.45371107 -107.5625 13.375 C-107.06410522 8.30798637 -105.60058317 5.32355478 -102.1875 1.5625 C-95.57613675 -3.74384701 -88.27671302 -7.07312921 -80.1875 -9.4375 C-79.24519531 -9.7365625 -78.30289063 -10.035625 -77.33203125 -10.34375 C-53.81406223 -16.65416156 -20.32320703 -14.70540997 0 0 Z " fill="#F0C319" transform="translate(142.1875,171.4375)"/>
<path d="M0 0 C3.73804735 3.23823311 6.38637916 5.66838742 7.0546875 10.7578125 C7.26537682 14.90963154 7.03463574 17.80635118 5.3125 21.625 C-5.95159317 33.98802909 -21.80862304 38.51580041 -38.12548828 39.72460938 C-42.00484687 39.83698312 -45.86929196 39.84753147 -49.75 39.8125 C-51.03519531 39.82410156 -52.32039063 39.83570313 -53.64453125 39.84765625 C-70.04901079 39.79819551 -88.81219046 37.052003 -101.25 25.4375 C-104.16435962 22.49392374 -106.86146255 19.71141197 -107.25 15.4375 C-107.394375 14.365 -107.53875 13.2925 -107.6875 12.1875 C-107.07519645 6.93918385 -104.98702639 4.09263935 -101.25 0.4375 C-98.07956708 -1.93215347 -94.78434434 -3.79003689 -91.25 -5.5625 C-90.51265625 -5.94277344 -89.7753125 -6.32304687 -89.015625 -6.71484375 C-63.89588359 -18.19196698 -22.59910288 -16.73062616 0 0 Z " fill="#F8E9AF" transform="translate(107.25,427.5625)"/>
<path d="M0 0 C0.71603394 -0.01062469 1.43206787 -0.02124939 2.1697998 -0.03219604 C20.46392812 -0.23966764 40.21678016 3.56160191 53.9375 16.5 C57.12339807 20.1686099 57.48078971 23.50844502 57.26953125 28.234375 C56.36968344 34.37451303 53.25452552 37.53784579 48.5 41.125 C27.89049825 54.52418044 -0.85605597 55.54696464 -24.40600586 50.9128418 C-37.28311418 48.03677723 -48.14952214 43.29042436 -56.0625 32.5 C-57.35983292 28.60800123 -58.06028725 25.491149 -57.0625 21.5 C-50.39534429 10.50262976 -38.63507821 5.58229248 -26.8125 2.0625 C-18.03436844 -0.02001558 -8.97217863 0.07096625 0 0 Z " fill="#F2D45A" transform="translate(172.0625,326.5)"/>
<path d="M0 0 C14.82485466 3.32683746 28.03813018 9.79155755 36.4375 22.9375 C41.99037243 33.14660541 43.87322723 43.73887518 40.875 55.125 C38.37089093 62.49491341 34.08096518 69.13734786 29 75 C30.16917969 75.10957031 31.33835937 75.21914062 32.54296875 75.33203125 C48.73646741 77.37268987 64.63052815 87.5988745 75.25 99.52734375 C77.45509397 102.6430234 77.65884334 104.35905545 77.44140625 108.0625 C76.62826444 111.63168881 74.97717008 113.01521994 72 115 C69.16773398 115.69664608 66.8315006 115.71225376 64 115 C61.6875 113 61.6875 113 60.51171875 111.62109375 C44.65036953 94.61215337 18.48209805 90.4082437 -3.625 89.5625 C-26.92537631 88.49040339 -26.92537631 88.49040339 -37 83 C-34.45055222 77.1018181 -29.85187759 71.78459274 -24 69 C-20.03527976 68.28368875 -16.14172614 68.54311942 -12.13769531 68.75927734 C-2.1347386 69.29295353 6.62504348 67.03746357 14.41796875 60.5078125 C19.56276327 55.60437871 22.04917057 51.29058155 22.375 44.1875 C22.18316663 37.00440597 19.62609835 32.26772841 14.5 27.3125 C9.60118877 23.26726951 3.92273878 21.14205719 -2 19 C-1.85820962 16.77057252 -1.71140302 14.54146372 -1.5625 12.3125 C-1.48128906 11.07113281 -1.40007812 9.82976563 -1.31640625 8.55078125 C-1.05508683 5.61819663 -0.65201621 2.86558383 0 0 Z " fill="#F2D55A" transform="translate(406,17)"/>
<path d="M0 0 C3.1048522 2.29803577 3.91504481 3.46778072 4.53125 7.328125 C4.36565566 28.11021526 -2.18316014 48.58059636 -16.5625 64.125 C-32.86777139 79.42687007 -55.60040479 87.02162517 -77.6875 87.3125 C-78.80608398 87.35600586 -78.80608398 87.35600586 -79.94726562 87.40039062 C-83.49239086 87.44150269 -85.55975391 87.32457634 -88.453125 85.19140625 C-90.68908954 82.02378981 -91.06672199 79.86987564 -91 76 C-87.65343692 70.44976962 -87.65343692 70.44976962 -83.95727539 69.44433594 C-81.46563266 69.20429227 -79.00256596 69.1151058 -76.5 69.0625 C-61.07233262 68.15634465 -45.24519913 63.79169839 -33 54 C-32.36449219 53.52691406 -31.72898437 53.05382812 -31.07421875 52.56640625 C-20.68514741 43.69768682 -16.27763197 27.95658905 -14 15 C-13.84509594 12.93953015 -13.7163147 10.8767657 -13.625 8.8125 C-13.38720287 5.22932968 -12.99482406 3.2801985 -10.375 0.75 C-6.22871736 -1.39992433 -4.42535402 -1.39316701 0 0 Z " fill="#FBD5AB" transform="translate(481,345)"/>
<path d="M0 0 C0 11.55 0 23.1 0 35 C-8.52036199 33.78280543 -8.52036199 33.78280543 -13 30 C-16.84981416 24.61761652 -18.65156902 19.62428508 -18 13 C-14.27255851 4.70992266 -9.22491226 0 0 0 Z " fill="#A66C45" transform="translate(309,221)"/>
<path d="M0 0 C7.62812677 1.0897324 10.76784578 2.06295497 15.375 8.125 C17.68033869 12.61028239 17.65282776 17.07931078 17 22 C15.29072877 27.22835904 11.78584569 31.2791581 7 34 C3.535 34.495 3.535 34.495 0 35 C0 23.45 0 11.9 0 0 Z " fill="#A56B44" transform="translate(327,274)"/>
<path d="M0 0 C0.66 0.33 1.32 0.66 2 1 C-1.3 4.3 -4.6 7.6 -8 11 C-8 6.67750434 -5.85084926 5.11604454 -3 2 C-2.01 1.34 -1.02 0.68 0 0 Z " fill="#F8D98D" transform="translate(10,425)"/>
</svg>
