<?xml version="1.0" encoding="UTF-8"?>
<svg version="1.1" xmlns="http://www.w3.org/2000/svg" width="512" height="512">
<path d="M0 0 C0.8346515 -0.00175304 1.66930299 -0.00350607 2.52924696 -0.00531223 C5.33847939 -0.0099806 8.14766025 -0.00750458 10.95689487 -0.00507832 C12.98633621 -0.00694586 15.01577718 -0.00924634 17.04521757 -0.01194364 C22.63191555 -0.01807492 28.21859859 -0.01792649 33.80529916 -0.01674926 C39.82651621 -0.01654559 45.84772841 -0.02206074 51.86894321 -0.02680683 C63.6687238 -0.03512096 75.46850064 -0.03787495 87.26828354 -0.03841921 C96.85621535 -0.03887856 106.44414555 -0.04093591 116.03207684 -0.04411983 C118.79085415 -0.04501736 121.54963148 -0.04590717 124.3084088 -0.04679471 C125.33713121 -0.04712628 125.33713121 -0.04712628 126.3866359 -0.04746456 C145.67911077 -0.05361935 164.97158508 -0.05756505 184.26406097 -0.05712128 C185.35528976 -0.05709791 185.35528976 -0.05709791 186.46856357 -0.05707407 C190.15586391 -0.05699096 193.84316425 -0.05689192 197.53046458 -0.05678936 C198.26279201 -0.05676942 198.99511945 -0.05674947 199.74963862 -0.05672892 C201.23058272 -0.05668848 202.71152681 -0.05664669 204.19247091 -0.05660353 C227.23989282 -0.05599061 250.28730004 -0.06350022 273.33471775 -0.07717609 C299.22060716 -0.09252988 325.1064869 -0.10114276 350.99238116 -0.10021287 C353.75147283 -0.10013824 356.51056451 -0.10008953 359.26965618 -0.10005856 C359.94902918 -0.1000469 360.62840217 -0.10003525 361.32836223 -0.10002324 C372.27011411 -0.09999244 383.21185323 -0.10638334 394.15360131 -0.11499082 C405.14569551 -0.12345921 416.13777335 -0.12429173 427.12986939 -0.1178815 C433.08697318 -0.11460666 439.04403066 -0.11459426 445.0011301 -0.12323475 C450.45076849 -0.13105811 455.90032354 -0.12971121 461.3499598 -0.12095062 C463.32500534 -0.11940641 465.30005697 -0.12126613 467.27509534 -0.12681069 C469.95340132 -0.13383359 472.63141193 -0.12860644 475.30970764 -0.12025452 C476.08185428 -0.1252227 476.85400092 -0.13019088 477.64954594 -0.13530961 C483.22408644 -0.09839579 487.5132083 0.51298934 492.06113952 3.84600025 C494.2857435 6.91122435 494.22009538 8.87861001 494.22393227 12.65078163 C494.23004563 13.30729964 494.23615899 13.96381765 494.2424576 14.64023015 C494.25811303 16.84985571 494.24517032 19.05839228 494.23243809 21.26802349 C494.23776093 22.86421653 494.2448251 24.46040456 494.25348514 26.05658299 C494.27217435 30.45040867 494.26578602 34.84389876 494.25533211 39.23773873 C494.24835782 43.97335316 494.26432455 48.7088974 494.27732944 53.44449139 C494.29900458 62.72479673 494.29883355 72.00497962 494.2907039 81.28530198 C494.28441147 88.82617586 494.28553397 96.36701396 494.29197598 103.90788746 C494.29287763 104.97996668 494.29377929 106.05204591 494.29470826 107.15661239 C494.29655941 109.3343366 494.29842197 111.51206081 494.30029582 113.68978501 C494.31688659 134.12532067 494.30814429 154.56078736 494.29131024 174.99631888 C494.27661269 193.70364149 494.29124024 212.41080349 494.32008041 231.1181054 C494.34945375 250.31379439 494.36045268 269.50940919 494.35089821 288.70511967 C494.34987562 290.87526833 494.34888102 293.045417 494.3479147 295.21556568 C494.34743831 296.28339284 494.34696192 297.35122001 494.34647109 298.45140557 C494.3443042 305.98477325 494.35412565 313.51807092 494.36868572 321.05142307 C494.38617763 330.22998289 494.38613699 339.4083379 494.36333407 348.58688956 C494.35216313 353.27210376 494.3490936 357.95695672 494.36763477 362.64215565 C494.38438032 366.92869471 494.37816967 371.21455582 494.35341799 375.50105048 C494.34851468 377.05416944 494.35210461 378.60734247 494.36490542 380.16041642 C494.38102692 382.2679827 494.36650378 384.37318739 494.34418678 386.48064613 C494.34391709 387.65219338 494.3436474 388.82374063 494.34336954 390.03078932 C493.53033343 394.05681154 491.83113482 395.54364727 488.71777439 398.12863445 C486.35128556 399.31187887 484.94046119 399.25189492 482.30123997 399.24888897 C480.90878056 399.25095097 480.90878056 399.25095097 479.48819065 399.25305462 C478.46679996 399.24945934 477.44540928 399.24586407 476.39306736 399.24215984 C475.31988255 399.24230587 474.24669773 399.2424519 473.14099216 399.24260235 C469.58062844 399.24190362 466.02031652 399.23411306 462.45996189 399.2262907 C459.99659345 399.22442638 457.53322464 399.22300255 455.06985569 399.22200298 C448.57610144 399.21817892 442.08236944 399.20834956 435.588624 399.197299 C428.96631261 399.18708251 422.34399764 399.18250485 415.72168064 399.17746258 C402.72036719 399.16672721 389.71907612 399.14913129 376.71777439 399.12863445 C376.71777439 412.98863445 376.71777439 426.84863445 376.71777439 441.12863445 C371.36726025 440.05853162 367.17122212 438.00984036 362.42089939 435.48019695 C357.78885312 433.17362697 354.88541707 432.75328189 349.71777439 434.12863445 C347.05897454 435.17771254 344.51710289 436.40114358 341.96777439 437.69113445 C335.09277439 441.12863445 335.09277439 441.12863445 331.71777439 441.12863445 C331.71777439 427.26863445 331.71777439 413.40863445 331.71777439 399.12863445 C327.43396793 399.1375169 323.15016148 399.14639935 318.7365427 399.15555096 C279.4695955 399.23511663 240.20265782 399.29484754 200.93564766 399.33289577 C195.79108298 399.33789871 190.64651848 399.34307598 185.50195408 399.34836102 C184.47774707 399.34941026 183.45354007 399.3504595 182.39829649 399.35154054 C165.80598034 399.36895436 149.21371953 399.40049743 132.62143622 399.43724564 C115.60116393 399.47462786 98.58092065 399.49686455 81.56060898 399.50498843 C71.05485014 399.51048185 60.54924769 399.52784358 50.04353698 399.56030032 C42.84318863 399.58141464 35.64292134 399.58784149 28.44254427 399.58263996 C24.28584668 399.58007337 20.12942271 399.58405767 15.97277355 399.60545635 C12.16784441 399.6249016 8.36337327 399.62591795 4.55842318 399.61223003 C2.5288012 399.60973595 0.49918471 399.62700613 -1.53035939 399.64495969 C-12.60864308 399.57184634 -12.60864308 399.57184634 -17.28222561 395.12863445 C-18.68671195 392.31966177 -18.41298896 389.99640126 -18.41924 386.85258293 C-18.42189182 386.19837261 -18.42454365 385.54416229 -18.42727584 384.87012741 C-18.43499447 382.65665554 -18.43552898 380.4432389 -18.43612576 378.22975445 C-18.44013868 376.63529297 -18.44457662 375.0408325 -18.44940531 373.44637328 C-18.46139542 369.04813672 -18.46702488 364.64991114 -18.47158647 360.25166142 C-18.47753326 355.51467136 -18.48914531 350.77769449 -18.49987698 346.04071331 C-18.52442084 334.59315353 -18.53903034 323.14558937 -18.55193704 311.69801137 C-18.55564731 308.46661704 -18.55962066 305.23522314 -18.56368971 302.00382924 C-18.58892277 281.95183378 -18.61098323 261.89983766 -18.62341785 241.84782982 C-18.62634771 237.20127834 -18.62930935 232.55472689 -18.63232327 227.90817547 C-18.63306932 226.75325011 -18.63381537 225.59832475 -18.63458402 224.40840165 C-18.64724494 205.68803288 -18.68047685 186.96775893 -18.7221251 168.24743452 C-18.76450188 149.04278566 -18.7881079 129.83818541 -18.79333842 110.63348991 C-18.7967572 99.84458734 -18.80856742 89.055833 -18.84144115 78.26697636 C-18.86938429 69.08107303 -18.88046626 59.89534828 -18.86924569 50.70940574 C-18.86404445 46.02013767 -18.86704049 41.33124392 -18.89171124 36.64202976 C-18.91409542 32.35173914 -18.913549 28.06209409 -18.89450736 23.77179299 C-18.89169206 22.21725655 -18.8973903 20.66267734 -18.9123203 19.10821005 C-18.93134684 16.99875118 -18.91969651 14.89161341 -18.90025806 12.7822094 C-18.90161459 11.609578 -18.90297112 10.43694661 -18.90436876 9.22878093 C-18.08169352 5.12938072 -16.55566486 3.66189158 -13.28222561 1.12863445 C-9.03735886 -0.35939778 -4.46060287 -0.01183745 0 0 Z " fill="#FEF8E8" transform="translate(18.282225608825684,34.871365547180176)"/>
<path d="M0 0 C0.8346515 -0.00175304 1.66930299 -0.00350607 2.52924696 -0.00531223 C5.33847939 -0.0099806 8.14766025 -0.00750458 10.95689487 -0.00507832 C12.98633621 -0.00694586 15.01577718 -0.00924634 17.04521757 -0.01194364 C22.63191555 -0.01807492 28.21859859 -0.01792649 33.80529916 -0.01674926 C39.82651621 -0.01654559 45.84772841 -0.02206074 51.86894321 -0.02680683 C63.6687238 -0.03512096 75.46850064 -0.03787495 87.26828354 -0.03841921 C96.85621535 -0.03887856 106.44414555 -0.04093591 116.03207684 -0.04411983 C118.79085415 -0.04501736 121.54963148 -0.04590717 124.3084088 -0.04679471 C125.33713121 -0.04712628 125.33713121 -0.04712628 126.3866359 -0.04746456 C145.67911077 -0.05361935 164.97158508 -0.05756505 184.26406097 -0.05712128 C185.35528976 -0.05709791 185.35528976 -0.05709791 186.46856357 -0.05707407 C190.15586391 -0.05699096 193.84316425 -0.05689192 197.53046458 -0.05678936 C198.26279201 -0.05676942 198.99511945 -0.05674947 199.74963862 -0.05672892 C201.23058272 -0.05668848 202.71152681 -0.05664669 204.19247091 -0.05660353 C227.23989282 -0.05599061 250.28730004 -0.06350022 273.33471775 -0.07717609 C299.22060716 -0.09252988 325.1064869 -0.10114276 350.99238116 -0.10021287 C353.75147283 -0.10013824 356.51056451 -0.10008953 359.26965618 -0.10005856 C359.94902918 -0.1000469 360.62840217 -0.10003525 361.32836223 -0.10002324 C372.27011411 -0.09999244 383.21185323 -0.10638334 394.15360131 -0.11499082 C405.14569551 -0.12345921 416.13777335 -0.12429173 427.12986939 -0.1178815 C433.08697318 -0.11460666 439.04403066 -0.11459426 445.0011301 -0.12323475 C450.45076849 -0.13105811 455.90032354 -0.12971121 461.3499598 -0.12095062 C463.32500534 -0.11940641 465.30005697 -0.12126613 467.27509534 -0.12681069 C469.95340132 -0.13383359 472.63141193 -0.12860644 475.30970764 -0.12025452 C476.08185428 -0.1252227 476.85400092 -0.13019088 477.64954594 -0.13530961 C483.22408644 -0.09839579 487.5132083 0.51298934 492.06113952 3.84600025 C494.2857435 6.91122435 494.22009538 8.87861001 494.22393227 12.65078163 C494.23004563 13.30729964 494.23615899 13.96381765 494.2424576 14.64023015 C494.25811303 16.84985571 494.24517032 19.05839228 494.23243809 21.26802349 C494.23776093 22.86421653 494.2448251 24.46040456 494.25348514 26.05658299 C494.27217435 30.45040867 494.26578602 34.84389876 494.25533211 39.23773873 C494.24835782 43.97335316 494.26432455 48.7088974 494.27732944 53.44449139 C494.29900458 62.72479673 494.29883355 72.00497962 494.2907039 81.28530198 C494.28441147 88.82617586 494.28553397 96.36701396 494.29197598 103.90788746 C494.29287763 104.97996668 494.29377929 106.05204591 494.29470826 107.15661239 C494.29655941 109.3343366 494.29842197 111.51206081 494.30029582 113.68978501 C494.31688659 134.12532067 494.30814429 154.56078736 494.29131024 174.99631888 C494.27661269 193.70364149 494.29124024 212.41080349 494.32008041 231.1181054 C494.34945375 250.31379439 494.36045268 269.50940919 494.35089821 288.70511967 C494.34987562 290.87526833 494.34888102 293.045417 494.3479147 295.21556568 C494.34743831 296.28339284 494.34696192 297.35122001 494.34647109 298.45140557 C494.3443042 305.98477325 494.35412565 313.51807092 494.36868572 321.05142307 C494.38617763 330.22998289 494.38613699 339.4083379 494.36333407 348.58688956 C494.35216313 353.27210376 494.3490936 357.95695672 494.36763477 362.64215565 C494.38438032 366.92869471 494.37816967 371.21455582 494.35341799 375.50105048 C494.34851468 377.05416944 494.35210461 378.60734247 494.36490542 380.16041642 C494.38102692 382.2679827 494.36650378 384.37318739 494.34418678 386.48064613 C494.34391709 387.65219338 494.3436474 388.82374063 494.34336954 390.03078932 C493.53033343 394.05681154 491.83113482 395.54364727 488.71777439 398.12863445 C486.35128556 399.31187887 484.94046119 399.25189492 482.30123997 399.24888897 C480.90878056 399.25095097 480.90878056 399.25095097 479.48819065 399.25305462 C478.46679996 399.24945934 477.44540928 399.24586407 476.39306736 399.24215984 C475.31988255 399.24230587 474.24669773 399.2424519 473.14099216 399.24260235 C469.58062844 399.24190362 466.02031652 399.23411306 462.45996189 399.2262907 C459.99659345 399.22442638 457.53322464 399.22300255 455.06985569 399.22200298 C448.57610144 399.21817892 442.08236944 399.20834956 435.588624 399.197299 C428.96631261 399.18708251 422.34399764 399.18250485 415.72168064 399.17746258 C402.72036719 399.16672721 389.71907612 399.14913129 376.71777439 399.12863445 C376.71777439 388.56863445 376.71777439 378.00863445 376.71777439 367.12863445 C405.09777439 367.12863445 433.47777439 367.12863445 462.71777439 367.12863445 C462.71777439 256.57863445 462.71777439 146.02863445 462.71777439 32.12863445 C314.21777439 32.12863445 165.71777439 32.12863445 12.71777439 32.12863445 C12.71777439 142.67863445 12.71777439 253.22863445 12.71777439 367.12863445 C118.31777439 367.12863445 223.91777439 367.12863445 332.71777439 367.12863445 C332.71777439 377.68863445 332.71777439 388.24863445 332.71777439 399.12863445 C288.99635556 399.21902619 245.27495911 399.29065465 201.55346539 399.33289577 C196.39387943 399.33789871 191.23429366 399.34307599 186.07470798 399.34836102 C185.04751037 399.34941026 184.02031275 399.3504595 182.96198793 399.35154054 C166.32117292 399.36895441 149.68041308 399.40049751 133.03963082 399.43724564 C115.96963796 399.47462771 98.89967404 399.49686452 81.82964194 399.50498843 C71.29317383 399.51048188 60.75686165 399.52784377 50.22044154 399.56030032 C42.99906845 399.58141447 35.7777762 399.58784153 28.55637448 399.58263996 C24.3875256 399.58007335 20.21894955 399.58405798 16.05014896 399.60545635 C12.23411771 399.62490121 8.41854312 399.62591819 4.60249098 399.61223003 C3.22149589 399.61053793 1.84047247 399.61562997 0.45953326 399.62816718 C-12.43860775 399.73846405 -12.43860775 399.73846405 -17.28222561 395.12863445 C-18.68671195 392.31966177 -18.41298896 389.99640126 -18.41924 386.85258293 C-18.42189182 386.19837261 -18.42454365 385.54416229 -18.42727584 384.87012741 C-18.43499447 382.65665554 -18.43552898 380.4432389 -18.43612576 378.22975445 C-18.44013868 376.63529297 -18.44457662 375.0408325 -18.44940531 373.44637328 C-18.46139542 369.04813672 -18.46702488 364.64991114 -18.47158647 360.25166142 C-18.47753326 355.51467136 -18.48914531 350.77769449 -18.49987698 346.04071331 C-18.52442084 334.59315353 -18.53903034 323.14558937 -18.55193704 311.69801137 C-18.55564731 308.46661704 -18.55962066 305.23522314 -18.56368971 302.00382924 C-18.58892277 281.95183378 -18.61098323 261.89983766 -18.62341785 241.84782982 C-18.62634771 237.20127834 -18.62930935 232.55472689 -18.63232327 227.90817547 C-18.63306932 226.75325011 -18.63381537 225.59832475 -18.63458402 224.40840165 C-18.64724494 205.68803288 -18.68047685 186.96775893 -18.7221251 168.24743452 C-18.76450188 149.04278566 -18.7881079 129.83818541 -18.79333842 110.63348991 C-18.7967572 99.84458734 -18.80856742 89.055833 -18.84144115 78.26697636 C-18.86938429 69.08107303 -18.88046626 59.89534828 -18.86924569 50.70940574 C-18.86404445 46.02013767 -18.86704049 41.33124392 -18.89171124 36.64202976 C-18.91409542 32.35173914 -18.913549 28.06209409 -18.89450736 23.77179299 C-18.89169206 22.21725655 -18.8973903 20.66267734 -18.9123203 19.10821005 C-18.93134684 16.99875118 -18.91969651 14.89161341 -18.90025806 12.7822094 C-18.90161459 11.609578 -18.90297112 10.43694661 -18.90436876 9.22878093 C-18.08169352 5.12938072 -16.55566486 3.66189158 -13.28222561 1.12863445 C-9.03735886 -0.35939778 -4.46060287 -0.01183745 0 0 Z " fill="#FED13A" transform="translate(18.282225608825684,34.871365547180176)"/>
<path d="M0 0 C5.32484521 3.56071967 9.49153856 8.50376041 13.5546875 13.3984375 C14.92809017 15.11587815 14.92809017 15.11587815 17 16 C18.53698759 16.04881622 20.07616719 16.0368444 21.61328125 15.9921875 C22.53173828 15.97542969 23.45019531 15.95867187 24.39648438 15.94140625 C26.32897681 15.89739771 28.26130523 15.84541014 30.19335938 15.78515625 C39.07387625 15.64862839 39.07387625 15.64862839 43 19 C44.24736932 21.49473864 44.0947092 23.15761622 44.0703125 25.9453125 C44.08578125 27.43804687 44.08578125 27.43804687 44.1015625 28.9609375 C44.11701357 31.0468324 44.10972671 33.13303726 44.078125 35.21875 C44.19933013 41.95429247 45.32749308 45.54974635 50.12719727 50.35009766 C52.5488051 52.48348649 54.97189873 54.59598529 57.51953125 56.578125 C59.26607342 58.25554281 60.10892298 59.75483536 61 62 C60.88435054 67.31987496 58.66713714 70.38652828 55 74 C52.95315239 75.83510475 50.88305485 77.62881671 48.76953125 79.38671875 C46.4238109 81.52531147 45.08703991 83.18593556 44.74462891 86.38842773 C44.73866699 87.31083252 44.73270508 88.2332373 44.7265625 89.18359375 C44.7059375 90.19357422 44.6853125 91.20355469 44.6640625 92.24414062 C44.6380696 94.36905984 44.61981111 96.49408806 44.609375 98.61914062 C44.58617187 99.63041016 44.56296875 100.64167969 44.5390625 101.68359375 C44.53084473 102.60712646 44.52262695 103.53065918 44.51416016 104.48217773 C43.8502542 107.73329935 42.52124368 108.91407261 40 111 C37.47390826 112.26304587 35.69669444 112.13285987 32.875 112.125 C31.50988281 112.12886719 31.50988281 112.12886719 30.1171875 112.1328125 C26.39564593 111.97425058 22.69615365 111.46201921 19 111 C19 151.92 19 192.84 19 235 C13.64948585 233.92989717 9.45344773 231.8812059 4.703125 229.3515625 C0.07107873 227.04499252 -2.83235732 226.62464744 -8 228 C-10.65879985 229.04907809 -13.2006715 230.27250913 -15.75 231.5625 C-22.625 235 -22.625 235 -26 235 C-26.17735071 206.45472161 -25.86142106 177.91749581 -25.5 149.375 C-25.48804218 148.43041176 -25.47608437 147.48582352 -25.46376419 146.51261139 C-25.31350623 134.67501663 -25.15877419 122.83748347 -25 111 C-25.92280762 111.0314209 -25.92280762 111.0314209 -26.86425781 111.06347656 C-29.65933809 111.14677017 -32.45415715 111.19870013 -35.25 111.25 C-36.21808594 111.28351563 -37.18617188 111.31703125 -38.18359375 111.3515625 C-45.29690961 111.4496772 -45.29690961 111.4496772 -48.64916992 109.30566406 C-50.25243641 106.56912897 -50.44687526 105.01711719 -50.36328125 101.859375 C-50.36392578 100.87066406 -50.36457031 99.88195312 -50.36523438 98.86328125 C-50.33033876 96.80314766 -50.28364202 94.74317702 -50.22460938 92.68359375 C-50.25517334 85.95078905 -51.31595464 82.45507195 -56.12060547 77.65429688 C-58.54503748 75.5202424 -60.96987391 73.40559009 -63.51953125 71.421875 C-65.36959793 69.64502995 -66.19935987 68.45699088 -67 66 C-67.02766189 62.59758709 -66.88083426 60.11931635 -64.72314453 57.37744141 C-63.06276496 55.76791572 -61.34838951 54.2813225 -59.5625 52.8125 C-58.37163442 51.80366124 -57.18526064 50.7894912 -56.00390625 49.76953125 C-55.47611572 49.33229736 -54.9483252 48.89506348 -54.40454102 48.44458008 C-52.13944082 46.11490898 -51.08436747 44.03938433 -50.82055664 40.78930664 C-50.85012451 40.00418701 -50.87969238 39.21906738 -50.91015625 38.41015625 C-50.94012695 37.10981445 -50.94012695 37.10981445 -50.97070312 35.78320312 C-51.03177399 33.97316671 -51.09686168 32.16326125 -51.16601562 30.35351562 C-51.2724872 25.40809458 -51.33579824 21.97884368 -48 18 C-45.56251112 16.78125556 -43.92586 16.85914494 -41.203125 16.82421875 C-40.2440625 16.80037109 -39.285 16.77652344 -38.296875 16.75195312 C-36.28145865 16.70931932 -34.26577112 16.67788839 -32.25 16.65820312 C-24.74001983 16.4423414 -20.90132264 14.97073227 -15.55078125 9.4921875 C-14.81214844 8.62851563 -14.07351563 7.76484375 -13.3125 6.875 C-6.4636357 -1.09759851 -6.4636357 -1.09759851 0 0 Z " fill="#FF6ED4" transform="translate(376,241)"/>
<path d="M0 0 C148.5 0 297 0 450 0 C450 110.55 450 221.1 450 335 C421.62 335 393.24 335 364 335 C364 334.67 364 334.34 364 334 C378.52 334 393.04 334 408 334 C408 224.11 408 114.22 408 1 C273.69 1 139.38 1 1 1 C1 111.22 1 221.44 1 335 C0.67 335 0.34 335 0 335 C0 224.45 0 113.9 0 0 Z " fill="#FEF2D1" transform="translate(31,67)"/>
<path d="M0 0 C1.36606912 -0.00432925 2.73213276 -0.01084547 4.0981822 -0.01936007 C7.85138698 -0.03636898 11.60392566 -0.02215885 15.35709548 -0.00284529 C19.40488385 0.01256722 23.45258983 -0.00081639 27.50038147 -0.0105896 C35.42971157 -0.02512632 43.35878589 -0.01287198 51.28809178 0.00852364 C60.51908832 0.03251859 69.75002606 0.0308202 78.98104686 0.02821773 C95.44986078 0.02452632 111.91855408 0.04536375 128.3873291 0.07946777 C144.37336272 0.11255991 160.35926973 0.12672621 176.34533691 0.1204834 C193.74668959 0.11372134 211.14798921 0.11617438 228.54933405 0.1358428 C229.4692807 0.13688229 230.38922736 0.13792177 231.33705118 0.13899276 C233.18479414 0.14108368 235.03253708 0.14319465 236.88027999 0.14532593 C243.31707732 0.15222531 249.75385831 0.15289021 256.19065857 0.15144348 C264.03334925 0.15000465 271.87593661 0.15967856 279.718593 0.18338984 C283.72121629 0.19526042 287.72369545 0.20236798 291.72633553 0.19655228 C295.38912035 0.19138757 299.05160046 0.20004319 302.71433312 0.21982688 C304.66985713 0.22682598 306.62541662 0.21910984 308.58093596 0.21090555 C309.74081164 0.21996219 310.90068732 0.22901883 312.09571075 0.23834991 C313.09660122 0.23992112 314.09749169 0.24149232 315.12871218 0.24311113 C318.35419433 0.68888411 320.24684026 1.71670712 322.86633301 3.62145996 C324.31064155 6.51007705 324.24321807 8.41793697 323.86633301 11.62145996 C322.21687774 14.20160288 321.47830942 15.19112871 318.86633301 16.62145996 C314.48402124 17.3865621 310.13347176 17.29524418 305.69470215 17.25637817 C304.32450608 17.26213978 302.95431773 17.27008118 301.58414555 17.2800144 C297.81956271 17.30090626 294.0556128 17.29056244 290.29102755 17.2750833 C286.23095165 17.26378309 282.17098557 17.28122586 278.1109314 17.29498291 C270.15755569 17.31723415 262.20441569 17.31240579 254.25103068 17.29791971 C247.7880718 17.28663486 241.32517904 17.28509329 234.86221313 17.29053879 C233.48326483 17.29168804 233.48326483 17.29168804 232.07645899 17.2928605 C230.2090113 17.2944591 228.34156362 17.29608017 226.47411597 17.29772346 C208.95665782 17.31198648 191.43933042 17.29557956 173.92189372 17.26872163 C158.88605538 17.24638234 143.85041005 17.25026231 128.8145752 17.27331543 C111.36047277 17.30006367 93.90648498 17.31061313 76.45236492 17.29525411 C74.59172759 17.29366134 72.73109025 17.29208949 70.87045288 17.29053879 C69.49719372 17.28938172 69.49719372 17.28938172 68.09619194 17.28820128 C61.63983446 17.28388135 55.1835496 17.29117714 48.72720337 17.30293655 C40.86067727 17.31694927 32.99440068 17.3131876 25.12790322 17.28653283 C21.11303107 17.27337794 17.09857512 17.26827035 13.0837059 17.28477859 C9.40964558 17.29965721 5.73638799 17.29152582 2.0624007 17.26489083 C0.10090076 17.25664282 -1.86065473 17.27300254 -3.82209682 17.29017699 C-13.31210161 17.18381458 -13.31210161 17.18381458 -16.41783142 14.26927757 C-18.55104582 10.97737551 -18.93502693 9.46798767 -18.13366699 5.62145996 C-13.72885066 -1.16866859 -7.46889235 -0.0736218 0 0 Z " fill="#FAE1A0" transform="translate(103.1336669921875,170.3785400390625)"/>
<path d="M0 0 C5.67324801 2.6473525 8.93891775 5.99168247 12.76757812 10.79296875 C15.31053129 13.77992961 16.82648083 14.95509568 20.66796875 15.94921875 C24.93776287 16.01429181 27.00325348 14.8423474 30 12 C32.30672526 9.45563697 34.55676197 6.88189381 36.75390625 4.2421875 C39 2 39 2 44 0 C44 40.92 44 81.84 44 124 C38.64948585 122.92989717 34.45344773 120.8812059 29.703125 118.3515625 C25.07107873 116.04499252 22.16764268 115.62464744 17 117 C14.34120015 118.04907809 11.7993285 119.27250913 9.25 120.5625 C2.375 124 2.375 124 -1 124 C-1.17735071 95.45472161 -0.86142106 66.91749581 -0.5 38.375 C-0.48804218 37.43041176 -0.47608437 36.48582352 -0.46376419 35.51261139 C-0.31350623 23.67501663 -0.15877419 11.83748347 0 0 Z " fill="#FFAAE6" transform="translate(351,352)"/>
<path d="M0 0 C5.32484521 3.56071967 9.49153856 8.50376041 13.5546875 13.3984375 C14.92809017 15.11587815 14.92809017 15.11587815 17 16 C18.53698759 16.04881622 20.07616719 16.0368444 21.61328125 15.9921875 C22.53173828 15.97542969 23.45019531 15.95867187 24.39648438 15.94140625 C26.32897681 15.89739771 28.26130523 15.84541014 30.19335938 15.78515625 C39.07387625 15.64862839 39.07387625 15.64862839 43 19 C44.24736932 21.49473864 44.0947092 23.15761622 44.0703125 25.9453125 C44.08578125 27.43804687 44.08578125 27.43804687 44.1015625 28.9609375 C44.11701357 31.0468324 44.10972671 33.13303726 44.078125 35.21875 C44.19933013 41.95429247 45.32749308 45.54974635 50.12719727 50.35009766 C52.5488051 52.48348649 54.97189873 54.59598529 57.51953125 56.578125 C59.26607342 58.25554281 60.10892298 59.75483536 61 62 C60.88435054 67.31987496 58.66713714 70.38652828 55 74 C52.95315239 75.83510475 50.88305485 77.62881671 48.76953125 79.38671875 C46.4238109 81.52531147 45.08703991 83.18593556 44.74462891 86.38842773 C44.73866699 87.31083252 44.73270508 88.2332373 44.7265625 89.18359375 C44.7059375 90.19357422 44.6853125 91.20355469 44.6640625 92.24414062 C44.6380696 94.36905984 44.61981111 96.49408806 44.609375 98.61914062 C44.58617187 99.63041016 44.56296875 100.64167969 44.5390625 101.68359375 C44.53084473 102.60712646 44.52262695 103.53065918 44.51416016 104.48217773 C43.8502542 107.73329935 42.52124368 108.91407261 40 111 C37.55485863 112.22257068 36.20939549 112.01687403 33.4921875 111.8515625 C22.06509046 110.74836419 22.06509046 110.74836419 12.0625 115.0625 C10.40195303 116.95417039 10.40195303 116.95417039 9 119 C7.92442435 120.27740576 6.84135377 121.5485477 5.75 122.8125 C5.09257812 123.65748047 5.09257812 123.65748047 4.421875 124.51953125 C1.76180124 127.28922343 -0.4439174 127.97861221 -4.25 128.125 C-9.64310051 126.50706985 -12.36381461 123.16107408 -16 119 C-16.53367187 118.40832031 -17.06734375 117.81664062 -17.6171875 117.20703125 C-21 113.33686441 -21 113.33686441 -21 111 C-20.40985107 110.9906543 -19.81970215 110.98130859 -19.21166992 110.97167969 C-16.53609795 110.91797343 -13.86227447 110.83433148 -11.1875 110.75 C-10.25873047 110.73582031 -9.32996094 110.72164063 -8.37304688 110.70703125 C-7.0340332 110.65869141 -7.0340332 110.65869141 -5.66796875 110.609375 C-4.84578857 110.58842773 -4.0236084 110.56748047 -3.17651367 110.54589844 C-0.85700429 110.16150981 -0.85700429 110.16150981 0.78881836 108.21923828 C2.12971568 105.76232302 2.28542463 104.63378729 2.046875 101.8828125 C1.97762817 100.72869873 1.97762817 100.72869873 1.90698242 99.55126953 C1.85517822 98.75060059 1.80337402 97.94993164 1.75 97.125 C1.4685173 88.920631 1.4685173 88.920631 3.37109375 85.625 C5.17974908 84.13140076 6.9034258 83.04391923 9 82 C14.09425671 78.5643385 16.30523061 74.83146457 18 69 C19.08617264 61.08300835 17.33973116 55.40932254 12.8125 48.8125 C10.34248255 46.34248255 8.86687804 45.27562007 5.82421875 43.82421875 C5.10709717 43.47834717 4.38997559 43.13247559 3.65112305 42.77612305 C3.10625244 42.52000244 2.56138184 42.26388184 2 42 C2.01571045 41.41508789 2.0314209 40.83017578 2.04760742 40.22753906 C2.11010267 37.56845836 2.14903569 34.90953236 2.1875 32.25 C2.21263672 31.32960938 2.23777344 30.40921875 2.26367188 29.4609375 C2.27333984 28.57148438 2.28300781 27.68203125 2.29296875 26.765625 C2.3086792 25.94868164 2.32438965 25.13173828 2.34057617 24.29003906 C1.90479346 21.35982986 1.12813419 20.05658087 -1 18 C-3.40238852 17.36029405 -3.40238852 17.36029405 -6.10546875 17.390625 C-7.08837891 17.35839844 -8.07128906 17.32617188 -9.08398438 17.29296875 C-10.62022461 17.27169922 -10.62022461 17.27169922 -12.1875 17.25 C-13.22326172 17.22035156 -14.25902344 17.19070313 -15.32617188 17.16015625 C-17.88419312 17.08942755 -20.44130158 17.03674743 -23 17 C-22.27039063 16.28199219 -21.54078125 15.56398438 -20.7890625 14.82421875 C-17.41152087 11.40410307 -14.25756035 7.81705248 -11.0859375 4.20703125 C-7.50256335 0.41563351 -5.16771662 -0.87753678 0 0 Z " fill="#FF5DCF" transform="translate(376,241)"/>
<path d="M0 0 C1.10738698 -0.00709439 2.21477397 -0.01418877 3.35571814 -0.02149814 C7.07396279 -0.03912878 10.79116917 -0.02094614 14.50939941 -0.00291443 C17.17197074 -0.00805131 19.83447177 -0.01514174 22.49702454 -0.02459717 C28.98255674 -0.04298117 35.46778777 -0.03445658 41.95331061 -0.01650894 C47.22395621 -0.00248611 52.49452003 0.00141055 57.7651825 -0.00195122 C58.51518433 -0.00242866 59.26518616 -0.0029061 60.03791532 -0.00339801 C61.56150601 -0.00442434 63.08509669 -0.0054797 64.60868734 -0.00656378 C78.08265034 -0.01513237 91.5564679 0.00154926 105.03039551 0.03126526 C118.10630401 0.06010308 131.18200298 0.06718644 144.25793457 0.05177307 C158.49503648 0.03501396 172.73203889 0.03097372 186.96914339 0.04848343 C188.48714478 0.05032783 190.00514617 0.05216256 191.52314758 0.0539875 C192.27004297 0.05489959 193.01693835 0.05581168 193.78646693 0.05675141 C199.051077 0.06235862 204.31563853 0.05904792 209.58024597 0.05244255 C215.99565914 0.0447129 222.41086599 0.05144845 228.82623756 0.07661759 C232.09984443 0.08912153 235.37306388 0.09310342 238.64669228 0.08407593 C242.19424521 0.07541874 245.74085611 0.09127564 249.28833008 0.11352539 C250.84303835 0.10116424 250.84303835 0.10116424 252.42915487 0.08855337 C256.86667341 0.1401106 259.42652664 0.19189259 263.28115082 2.53535557 C265.28173515 4.78272969 265.82711618 5.66109045 265.76916504 8.62818909 C265.78205566 9.28818909 265.79494629 9.94818909 265.80822754 10.62818909 C264.71641093 13.9164838 263.10002695 14.83113894 260.14416504 16.62818909 C256.52881107 17.22913441 252.9463261 17.17193672 249.28833008 17.14285278 C247.6272496 17.15327108 247.6272496 17.15327108 245.93261194 17.16389984 C242.21451451 17.18222537 238.49705112 17.17188959 234.77893066 17.16163635 C232.11636873 17.16869197 229.45385216 17.17729829 226.79130554 17.18774414 C220.30582646 17.20939039 213.8205228 17.20925579 207.33501947 17.2011186 C202.06437826 17.19482003 196.79378824 17.1959543 191.52314758 17.20239067 C190.39814484 17.20374315 190.39814484 17.20374315 189.25041476 17.20512296 C187.72682407 17.20697415 186.2032334 17.20883671 184.67964274 17.21071052 C170.39124296 17.22729096 156.10294192 17.21856751 141.81454808 17.20172494 C128.73960757 17.18702562 115.66489682 17.20165911 102.58998591 17.2304951 C89.16636106 17.25987986 75.74284229 17.27086423 62.31918669 17.2613129 C60.80118531 17.26029034 59.28318391 17.25929573 57.7651825 17.25832939 C56.64483942 17.25761481 56.64483942 17.25761481 55.50186315 17.25688579 C50.23722928 17.25472054 44.97269572 17.26453146 39.70808411 17.27910042 C33.29265204 17.29660637 26.87751298 17.29653161 20.46209252 17.27374876 C17.18839828 17.26259062 13.91532833 17.26217357 10.6416378 17.27804947 C7.09392752 17.29389631 3.54764202 17.27910586 0 17.25637817 C-1.03647218 17.2682139 -2.07294436 17.28004963 -3.14082479 17.29224402 C-7.86993841 17.23046364 -10.12041982 17.17909253 -13.99526215 14.27642727 C-15.85583496 11.62818909 -15.85583496 11.62818909 -16.48083496 8.62818909 C-14.61358441 -0.33461353 -7.56871721 -0.08642903 0 0 Z " fill="#FAE1A0" transform="translate(100.8558349609375,123.37181091308594)"/>
<path d="M0 0 C3.44396036 0.58620602 4.54916735 0.95026488 6.9375 3.5 C7.89602131 6.57404638 8.27001356 9.70374113 8.68359375 12.890625 C8.89037498 14.29583405 8.89037498 14.29583405 9.10133362 15.72943115 C9.54234896 18.73418803 9.96086374 21.74142893 10.375 24.75 C13.20751639 46.30169203 13.20751639 46.30169203 20.9375 66.5 C23.27898231 66.62213894 23.27898231 66.62213894 25.9375 65.5 C27.92859071 63.01549031 29.41833075 60.29127637 30.9375 57.5 C33.75839552 52.58955224 33.75839552 52.58955224 35.9375 51.5 C42.08384146 50.93089431 42.08384146 50.93089431 45.1875 53 C47.1311141 55.77659157 48.13361359 58.37686446 49.12890625 61.59765625 C50.11683672 63.92191778 50.92471739 64.95409761 52.9375 66.5 C55.75529037 66.94733422 55.75529037 66.94733422 58.99780273 66.86889648 C60.24597275 66.87577988 61.49414276 66.88266327 62.78013611 66.88975525 C63.44661604 66.88657728 64.11309597 66.88339931 64.79977226 66.88012505 C66.88913286 66.8710151 68.97759593 66.88123594 71.06690979 66.89674377 C77.0059367 66.93684804 82.94489343 66.93804581 88.8840332 66.93579102 C92.51867442 66.9357399 96.1528316 66.95491374 99.78734016 66.98512459 C101.84385039 66.99595034 103.89943678 66.98382012 105.95591736 66.97129822 C107.83290062 66.98635155 107.83290062 66.98635155 109.74780273 67.00170898 C110.84905991 67.00154282 111.95031708 67.00137665 113.08494568 67.00120544 C116.62194913 67.61968203 117.80072194 68.65735373 119.9375 71.5 C120.49059863 75.37169042 120.68413091 77.49982004 118.30535889 80.68640137 C115.22132462 83.04853552 113.41393372 83.00679164 109.55175781 83.01757812 C108.25651184 83.03018677 106.96126587 83.04279541 105.62677002 83.05578613 C104.21471616 83.04862329 102.80266726 83.04041855 101.390625 83.03125 C99.93576803 83.03394656 98.48091283 83.03783035 97.02606201 83.04284668 C93.97618458 83.04874161 90.92677598 83.04018468 87.87695312 83.02148438 C83.98535106 82.99877508 80.09485742 83.0117655 76.20329666 83.03577423 C73.19703996 83.05030235 70.19104123 83.04559305 67.18477631 83.03526306 C65.75118628 83.03261083 64.31757217 83.03581216 62.88401031 83.04518127 C54.84891886 83.08614822 48.75307013 82.97958 41.9375 78.5 C40.9475 77.51 40.9475 77.51 39.9375 76.5 C36.0672684 76.76691252 33.8363524 79.12145444 30.9375 81.5 C25.1698764 83.4225412 19.05775209 83.52086212 13.5625 80.875 C7.74786751 75.61414204 4.85680228 70.69100288 1.9375 63.5 C0.35974169 68.20748052 -1.19795699 72.91970197 -2.7109375 77.6484375 C-3.28565908 79.39088883 -3.86118503 81.13307504 -4.4375 82.875 C-4.7159375 83.76316406 -4.994375 84.65132813 -5.28125 85.56640625 C-7.43844675 91.98941097 -7.43844675 91.98941097 -10.59765625 94.57421875 C-13.69695342 95.73829709 -15.77904514 95.98902519 -19.0625 95.5 C-21.5 94.0625 -21.5 94.0625 -23.0625 91.5 C-23.24380785 84.79160954 -20.92479862 78.55224227 -18.75 72.3125 C-15.04734213 61.18844842 -12.78544046 50.08097844 -11.0625 38.5 C-10.89476074 37.39035889 -10.89476074 37.39035889 -10.72363281 36.25830078 C-9.82389353 30.16022553 -9.08140211 24.08074282 -8.8984375 17.9140625 C-8.87160889 17.14618408 -8.84478027 16.37830566 -8.81713867 15.5871582 C-8.77368168 14.11483534 -8.75160433 12.64166102 -8.75512695 11.16870117 C-8.6480697 7.29266757 -8.1546914 5.61592839 -5.7109375 2.54296875 C-3.0625 0.5 -3.0625 0.5 0 0 Z " fill="#55B1FE" transform="translate(111.0625,266.5)"/>
<path d="M0 0 C0.77591368 -0.00779995 1.55182736 -0.01559991 2.35125357 -0.02363622 C4.94791581 -0.04355979 7.54311299 -0.02779112 10.13978577 -0.01205444 C12.00269425 -0.01883049 13.86559603 -0.02773355 15.72848511 -0.03860474 C20.78644873 -0.06140777 25.84390267 -0.0525571 30.90187526 -0.03670931 C36.1948616 -0.02405369 41.48780419 -0.03578966 46.78079224 -0.04364014 C55.67071876 -0.05273847 64.56043764 -0.04074475 73.45033264 -0.01693726 C83.72684853 0.01026594 94.00286832 0.00146635 104.27937216 -0.02606928 C113.10246683 -0.04876404 121.9254122 -0.05195836 130.74852663 -0.03887594 C136.01816314 -0.0310824 141.28756652 -0.03003709 146.55718803 -0.04655838 C151.51253268 -0.06100883 156.46723831 -0.0509707 161.42251396 -0.0220871 C163.24056436 -0.01547902 165.0586686 -0.01736921 166.87669754 -0.02840042 C169.36017315 -0.04207926 171.84160555 -0.024914 174.32495117 0 C175.0433437 -0.01115361 175.76173623 -0.02230722 176.50189823 -0.03379881 C182.10693233 0.0751645 184.44880327 1.7748659 188.22596741 5.63491821 C188.73377991 7.76773071 188.73377991 7.76773071 188.35096741 9.75991821 C188.25042053 10.42249634 188.14987366 11.08507446 188.04627991 11.76773071 C186.88784613 14.40454664 185.72921399 15.18445881 183.22596741 16.63491821 C180.58071983 16.92771775 178.17168693 17.04867621 175.52749634 17.02932739 C174.35772378 17.03846405 174.35772378 17.03846405 173.16431946 17.04778528 C170.54873481 17.0644468 167.93363531 17.05963506 165.31800842 17.05484009 C163.44377638 17.06217857 161.56954886 17.07076415 159.69532776 17.08050537 C154.60237621 17.10275271 149.5095863 17.10565046 144.41659284 17.10375786 C140.16693744 17.10363831 135.9173165 17.11219592 131.66767067 17.12053537 C121.64337845 17.13978084 111.61916952 17.14264901 101.59486389 17.13589478 C91.24850691 17.12925194 80.90250625 17.15212557 70.55622154 17.18920851 C61.67713441 17.21987973 52.79816205 17.23126837 43.91902298 17.22737169 C38.61416551 17.22530162 33.3095853 17.2308233 28.00477791 17.25526428 C23.01666193 17.2774864 18.02912635 17.27569139 13.041008 17.25533676 C11.20962259 17.25191873 9.37819846 17.25704983 7.54686546 17.27132034 C5.04770349 17.28945215 2.55052332 17.27681091 0.05142212 17.25637817 C-1.03739554 17.27515495 -1.03739554 17.27515495 -2.14820951 17.29431105 C-6.01799552 17.22641125 -7.65893244 16.72665961 -10.72406101 14.28357697 C-12.77403259 11.63491821 -12.77403259 11.63491821 -13.39903259 8.63491821 C-11.88359086 1.36079789 -6.67536263 -0.10331943 0 0 Z " fill="#FAE1A0" transform="translate(97.77403259277344,217.36508178710938)"/>
<path d="M0 0 C4.97725721 2.97793613 8.40745897 7.07491608 10.9375 12.25 C12.52371305 20.33968658 12.16638738 27.39705233 7.5625 34.4375 C3.31549112 39.13738897 -1.10762083 42.03245708 -7.48828125 42.80859375 C-14.86351744 42.95874826 -19.8812299 42.50128252 -25.4375 37.4375 C-31.52794064 31.33370313 -32.80959116 26.92329665 -32.89501953 18.20751953 C-32.77132329 12.92173683 -31.70839414 9.86974683 -28.16015625 6.01953125 C-27.59167969 5.49746094 -27.02320313 4.97539062 -26.4375 4.4375 C-25.89996094 3.92574219 -25.36242187 3.41398437 -24.80859375 2.88671875 C-18.26861582 -2.93205861 -7.96940015 -3.6140303 0 0 Z " fill="#FFAAE6" transform="translate(383.4375,284.5625)"/>
</svg>
