<svg width="30" height="23" viewBox="0 0 30 23" fill="none" xmlns="http://www.w3.org/2000/svg">
<path d="M26.8785 0C27.075 0.189582 27.2467 0.375107 27.3994 0.601374C27.4538 0.681308 27.4538 0.681308 27.5093 0.762857C27.5645 0.845225 27.5645 0.845225 27.621 0.929256C27.6946 1.03797 27.7682 1.14665 27.8419 1.2553C27.8954 1.33479 27.8954 1.33479 27.95 1.41589C28.0573 1.57157 28.1695 1.72267 28.2826 1.87418C28.4519 2.12401 28.4519 2.12401 28.4519 2.36002C28.3747 2.40109 28.2975 2.44216 28.218 2.48447C25.3309 4.04799 22.8876 6.46118 21.9099 9.65392C21.6318 10.5554 21.6318 10.5554 21.5292 11.4854C21.5713 11.4645 21.6135 11.4436 21.657 11.4221C23.0492 10.7947 24.7813 10.9286 26.1936 11.4436C27.604 12.005 28.7879 13.0464 29.4598 14.4207C29.5202 14.5686 29.5775 14.7179 29.6319 14.8681C29.6627 14.9516 29.6935 15.035 29.7253 15.121C30.1297 16.3918 30.0783 17.7869 29.6319 19.0375C29.6101 19.106 29.5883 19.1746 29.5658 19.2452C29.1229 20.5107 28.1489 21.7321 26.9572 22.3415C25.2721 23.0965 23.4606 23.1614 21.7258 22.5311C20.9654 22.2247 20.3328 21.8658 19.7198 21.3188C19.6627 21.2691 19.6056 21.2194 19.5468 21.1682C17.7605 19.507 16.9203 17.08 16.7959 14.6926C16.7149 12.3535 17.1101 10.2062 18.1465 8.10272C18.1714 8.05146 18.1963 8.0002 18.222 7.94739C18.8207 6.72964 19.6057 5.65189 20.5065 4.64137C20.56 4.58054 20.56 4.58054 20.6147 4.51849C22.3716 2.52636 24.5255 1.18374 26.8785 0Z" fill="#FECC00"/>
<path d="M10.099 0C10.3439 0.300204 10.5728 0.608777 10.7972 0.92434C10.8486 0.996535 10.8486 0.996535 10.9011 1.07019C11.1657 1.44275 11.4231 1.81966 11.6723 2.20268C11.4259 2.47628 11.1696 2.63377 10.8463 2.80744C10.2972 3.11115 9.80431 3.4646 9.31231 3.85469C9.24406 3.90682 9.17582 3.95894 9.1055 4.01264C8.02055 4.86314 7.08755 5.85571 6.32296 7.00138C6.27824 7.06608 6.23352 7.13078 6.18744 7.19743C5.37846 8.44433 4.88252 10.0233 4.67094 11.4854C4.71881 11.4645 4.76667 11.4436 4.81599 11.4221C6.26532 10.8381 7.95226 10.8897 9.39766 11.4729C10.9786 12.1676 12.0943 13.2059 12.7986 14.7857C13.3653 16.2497 13.3402 17.9295 12.7134 19.3706C12.0309 20.8382 11.0366 22.0211 9.48931 22.607C9.35228 22.6516 9.21464 22.6944 9.07631 22.7348C8.99371 22.7599 8.99371 22.7599 8.90945 22.7855C7.29916 23.2086 5.46 22.9386 4.01702 22.1252C2.00057 20.9273 0.84854 18.8989 0.254518 16.687C0.0494586 15.7696 -0.00232777 14.8597 7.91199e-05 13.9241C9.57572e-05 13.864 0.000112394 13.8039 0.000129535 13.742C0.00292511 12.7257 0.0923147 11.7651 0.344248 10.7774C0.358141 10.7194 0.372034 10.6614 0.386347 10.6016C1.3293 6.71806 4.28347 3.41071 7.60622 1.33243C8.02314 1.08237 8.44573 0.842462 8.86981 0.604754C8.92876 0.571638 8.98771 0.538523 9.04844 0.504404C9.39173 0.314334 9.73558 0.148143 10.099 0Z" fill="#FECC00"/>
</svg>
