<svg width="10" height="11" viewBox="0 0 10 11" fill="none" xmlns="http://www.w3.org/2000/svg">
<path d="M5.88569 0.0892871C5.9182 0.0948921 5.9182 0.0948921 5.95138 0.10061C6.95897 0.278102 7.84462 0.805134 8.57117 1.51101C8.58874 1.52785 8.60631 1.54468 8.62442 1.56202C8.75574 1.68993 8.87075 1.82395 8.97992 1.9711C8.99624 1.99303 9.01256 2.01495 9.02937 2.03754C9.1796 2.24292 9.30551 2.45495 9.42421 2.67999C9.44331 2.71493 9.46241 2.74988 9.48209 2.78588C9.84008 3.46442 9.99844 4.21182 9.99882 4.9745C9.99921 5.01486 9.9996 5.05522 9.99999 5.0968C10.002 6.42063 9.42888 7.65543 8.50798 8.58805C8.25387 8.84252 7.98043 9.0506 7.67918 9.24674C7.63315 9.27674 7.58753 9.30737 7.54202 9.33816C7.28368 9.50498 6.99217 9.61315 6.70713 9.72543C6.67386 9.73855 6.64058 9.75166 6.6063 9.76517C5.7788 10.0642 4.77978 10.118 3.92686 9.915C3.90403 9.90974 3.8812 9.90449 3.85768 9.89908C2.94642 9.68415 2.17211 9.22614 1.49413 8.58805C1.46621 8.56264 1.46621 8.56264 1.43773 8.53671C0.600154 7.74468 0.0505759 6.50911 0.00529935 5.36088C-0.00530662 4.8828 -0.0113693 4.41051 0.104 3.94375C0.110276 3.91777 0.116553 3.89179 0.123021 3.86502C0.313228 3.09778 0.649395 2.38837 1.17819 1.79536C1.2023 1.76783 1.22641 1.7403 1.25125 1.71193C2.00641 0.859826 2.94639 0.34179 4.05324 0.0892871C4.08985 0.0808567 4.12647 0.0724264 4.16419 0.0637405C4.71435 -0.0363524 5.33756 -0.0115316 5.88569 0.0892871ZM2.06282 1.95333C2.03692 1.97662 2.01102 1.99992 1.98433 2.02392C1.25725 2.70975 0.789265 3.77032 0.756858 4.76235C0.755921 4.83767 0.755523 4.91299 0.755624 4.98832C0.755675 5.02817 0.755726 5.06802 0.755778 5.10908C0.760192 5.44918 0.805342 5.76445 0.893848 6.09213C0.903337 6.12911 0.912826 6.16609 0.922603 6.20419C1.112 6.87652 1.4661 7.4458 1.93645 7.95617C1.95974 7.98208 1.98304 8.00798 2.00704 8.03467C2.66502 8.73222 3.67814 9.19772 4.63121 9.25812C4.73549 9.26107 4.83947 9.26193 4.94379 9.2614C4.981 9.26122 5.01821 9.26104 5.05654 9.26086C6.24104 9.2445 7.31259 8.73896 8.13651 7.89508C8.58437 7.40886 8.8675 6.83954 9.07667 6.21851C9.08804 6.18637 9.0994 6.15424 9.11111 6.12113C9.41845 5.1358 9.25916 4.01117 8.79093 3.1059C8.76019 3.04795 8.72899 2.9903 8.69755 2.93274C8.68236 2.90431 8.66716 2.87589 8.65151 2.8466C8.12624 1.91714 7.2152 1.24629 6.20163 0.942323C5.78842 0.830374 5.39168 0.778667 4.96354 0.77843C4.92744 0.778043 4.89133 0.777656 4.85413 0.777257C3.79498 0.775461 2.8298 1.24651 2.06282 1.95333Z" fill="#121F37"/>
<path d="M5.27357 2.67046C5.3037 2.67028 5.33383 2.67011 5.36488 2.66992C6.02893 2.67667 6.57641 2.92075 7.05467 3.3754C7.02769 3.51771 6.94481 3.59751 6.84734 3.69924C6.83091 3.71675 6.81447 3.73426 6.79754 3.75231C6.75708 3.79537 6.71634 3.83816 6.67555 3.8809C6.5763 3.83512 6.49423 3.77863 6.407 3.71306C5.99229 3.41903 5.52295 3.31944 5.02365 3.39009C4.63222 3.47724 4.2803 3.66563 4.02166 3.97569C3.72265 4.44767 3.65148 4.97776 3.7578 5.5286C3.8637 5.90196 4.08455 6.21538 4.40078 6.44001C4.85019 6.68342 5.36053 6.75452 5.86003 6.6118C6.14428 6.50577 6.38034 6.34902 6.61236 6.15567C6.7479 6.2912 6.88344 6.42674 7.02308 6.56639C6.9597 6.72483 6.9047 6.78406 6.77428 6.88035C6.75586 6.89408 6.73744 6.90781 6.71846 6.92196C6.15816 7.32952 5.51195 7.42943 4.83276 7.34735C4.19061 7.2439 3.67523 6.87498 3.28599 6.36559C2.93035 5.81715 2.83896 5.15654 2.95339 4.52068C3.09591 3.88959 3.46119 3.36712 4.00216 3.01281C4.41566 2.77212 4.79821 2.67313 5.27357 2.67046Z" fill="#121F37"/>
</svg>
