<?xml version="1.0" encoding="UTF-8"?>
<svg version="1.1" xmlns="http://www.w3.org/2000/svg" width="512" height="512">
<path d="M0 0 C1.67434802 -0.00644416 3.34869497 -0.01317365 5.02304077 -0.02017212 C8.50057595 -0.03204089 11.97801245 -0.03586273 15.45556641 -0.03466797 C19.90989348 -0.03446292 24.36359582 -0.0620009 28.81777382 -0.09621239 C32.26129075 -0.11841691 35.70465412 -0.12250785 39.14823532 -0.12144852 C40.79169283 -0.1238051 42.43515452 -0.13263195 44.0785408 -0.14811325 C46.36613124 -0.16768598 48.65232911 -0.16197595 50.93994141 -0.14990234 C52.88847519 -0.1541774 52.88847519 -0.1541774 54.87637329 -0.15853882 C58.1484375 0.3359375 58.1484375 0.3359375 60.56356812 2.16146851 C62.94174733 5.4243727 62.75042282 7.37944087 62.1484375 11.3359375 C60.36664838 14.77654088 57.96444476 17.75159468 55.61523438 20.81835938 C53.28464032 24.02829813 52.1611689 25.61024775 52.08984375 29.67578125 C52.90409452 32.3514508 52.90409452 32.3514508 54.734375 33.625 C58.03888566 34.59817304 61.37898893 35.16527375 64.7734375 35.7109375 C78.38007348 38.08955852 88.76338022 42.95877645 97.1484375 54.3359375 C103.76684387 66.22960306 103.47190021 80.19039535 103.484375 93.4140625 C103.49081875 95.03684603 103.49754823 96.65962844 103.50454712 98.28240967 C103.51643692 101.66095679 103.52023597 105.03940223 103.51904297 108.41796875 C103.51883885 112.73072376 103.54627296 117.04282673 103.58058739 121.35542679 C103.6028852 124.69788578 103.60687983 128.04018758 103.60582352 131.38271332 C103.60817004 132.97262596 103.61693964 134.56254356 103.63248825 136.1523819 C103.76922858 151.55934391 103.76922858 151.55934391 99.1484375 158.3359375 C94.25034018 163.10844258 89.83890793 164.57397833 83.02148438 164.51171875 C81.93963867 164.48658203 81.93963867 164.48658203 80.8359375 164.4609375 C80.09537109 164.45191406 79.35480469 164.44289063 78.59179688 164.43359375 C76.77720283 164.41017963 74.96277679 164.37431365 73.1484375 164.3359375 C73.0865625 165.5528125 73.0246875 166.7696875 72.9609375 168.0234375 C71.30190756 182.52290462 62.75445763 197.4717373 52.1484375 207.3359375 C50.6559875 208.22375391 49.1561899 209.0993647 47.6484375 209.9609375 C44.65841121 212.06394224 44.20659072 213.0140313 43.54296875 216.6875 C43.26691697 229.80653227 46.42777789 239.11013017 54.6484375 249.171875 C64.29858357 259.04540408 80.66014169 262.54836988 93.30227661 267.12252808 C125.54124355 278.79056743 125.54124355 278.79056743 138.1484375 289.3359375 C138.81230469 289.87605469 139.47617187 290.41617187 140.16015625 290.97265625 C147.65099966 297.68354199 152.69248323 308.38108826 153.3497467 318.40658569 C153.44626042 322.23124922 153.48028404 326.05330073 153.484375 329.87890625 C153.49080997 331.29421623 153.49753884 332.7095249 153.50454712 334.12483215 C153.51647396 337.07926522 153.52023223 340.03358169 153.51904297 342.98803711 C153.51883893 346.77113365 153.5462472 350.55348609 153.58058739 354.33640575 C153.60282253 357.25408871 153.60688173 360.17159074 153.60582352 363.08934975 C153.6081805 364.4844045 153.61700968 365.87946417 153.63248825 367.27443504 C153.65209487 369.22216475 153.64380138 371.17011482 153.63427734 373.11791992 C153.63712738 374.22487717 153.63997742 375.33183441 153.64291382 376.47233582 C153.0211446 380.0731137 151.95580927 381.05777399 149.1484375 383.3359375 C146.79149634 383.83848482 146.79149634 383.83848482 144.1255579 383.84209538 C142.59773468 383.85866691 142.59773468 383.85866691 141.03904635 383.87557322 C139.92184236 383.86733245 138.80463837 383.85909168 137.65357971 383.8506012 C136.4653761 383.85754672 135.2771725 383.86449225 134.05296272 383.87164825 C130.75348222 383.88679813 127.45490079 383.88395829 124.15546024 383.87349522 C120.59776108 383.8665138 117.04015488 383.88249307 113.48248291 383.89549255 C106.51225881 383.9171559 99.54219782 383.91699969 92.5719511 383.90886701 C86.90750373 383.90257179 81.243104 383.90369964 75.57865715 383.91013908 C74.7730126 383.91104074 73.96736806 383.91194239 73.13731004 383.91287137 C71.50073782 383.91472254 69.86416561 383.9165851 68.22759341 383.91845893 C52.87382153 383.93504563 37.52014147 383.92631093 22.16637509 383.90947335 C8.11493151 383.89477668 -5.93629824 383.90940272 -19.98771428 383.93824352 C-34.4102367 383.96762591 -48.83266038 383.97861312 -63.25521141 383.96906132 C-64.88612972 383.96803875 -66.51704804 383.96704414 -68.14796638 383.9660778 C-68.95043896 383.96560141 -69.75291154 383.96512502 -70.57970146 383.9646342 C-76.23755888 383.96246847 -81.895323 383.97228258 -87.55315971 383.98684883 C-94.44804018 384.00435197 -101.342648 384.00428415 -108.23751765 383.98149718 C-111.7562199 383.97033611 -115.27444147 383.96723372 -118.79312325 383.98579788 C-122.6055753 384.00565328 -126.41727202 383.98685967 -130.22972107 383.96412659 C-131.34469434 383.97596232 -132.45966761 383.98779804 -133.60842794 383.99999243 C-141.0788286 383.90911743 -141.0788286 383.90911743 -145.03908634 380.97157288 C-147.18165765 377.85592542 -147.47437552 376.20843275 -147.46679688 372.45092773 C-147.47610229 371.28879257 -147.48540771 370.12665741 -147.49499512 368.92930603 C-147.47859985 367.68033035 -147.46220459 366.43135468 -147.4453125 365.14453125 C-147.44535278 363.84830338 -147.44539307 362.5520755 -147.44543457 361.21656799 C-147.44378291 358.47176254 -147.42513252 355.72777525 -147.39355469 352.9831543 C-147.35415125 349.49898133 -147.3494783 346.01589209 -147.35701752 342.53153896 C-147.36086652 339.17324311 -147.33993609 335.81527419 -147.3203125 332.45703125 C-147.32011108 331.22222519 -147.31990967 329.98741913 -147.31970215 328.7151947 C-147.12312822 314.08567781 -143.56235165 301.93361123 -133.578125 290.9765625 C-120.8035173 278.837795 -103.31175256 273.25153492 -87.09008789 267.41430664 C-61.06561186 259.27574782 -61.06561186 259.27574782 -41.8515625 241.3359375 C-41.43777344 240.64242187 -41.02398437 239.94890625 -40.59765625 239.234375 C-36.86992571 231.67500506 -35.72283009 221.54912447 -37.8515625 213.3359375 C-40.02107394 210.47494831 -42.10002958 208.99465123 -45.125 207.0859375 C-56.47786314 199.79928608 -63.32910096 183.23884519 -66.4765625 170.5703125 C-66.8515625 168.3359375 -66.8515625 168.3359375 -66.8515625 164.3359375 C-67.91375 164.38234375 -68.9759375 164.42875 -70.0703125 164.4765625 C-84.41053861 164.91897373 -84.41053861 164.91897373 -90.8515625 160.3359375 C-96.04435848 155.00648899 -97.15167766 149.92248854 -97.1262207 142.66259766 C-97.13133163 141.90567627 -97.13644257 141.14875488 -97.14170837 140.36889648 C-97.15558378 137.87084997 -97.15464738 135.37308046 -97.15234375 132.875 C-97.15623538 131.12445983 -97.16057101 129.3739206 -97.16532898 127.62338257 C-97.17278943 123.94989978 -97.17250379 120.27651305 -97.16723633 116.60302734 C-97.1614802 111.9355161 -97.17827935 107.26840669 -97.201581 102.60096169 C-97.21645353 98.98027309 -97.21717121 95.35967783 -97.21407127 91.73896408 C-97.214579 90.02088 -97.21971158 88.30278992 -97.22988319 86.58473587 C-97.3506591 63.30650961 -92.41872204 42.69676106 -75.6015625 25.5859375 C-54.94196044 5.28050004 -27.89714701 0.02556299 0 0 Z " fill="#FABC7F" transform="translate(264.8515625,128.6640625)"/>
<path d="M0 0 C2.34259302 2.34259302 3.19766781 4.48259321 4.5625 7.5 C10.95108374 20.41638601 21.35427286 29.24671459 34.7734375 34.2734375 C47.07396312 38.28729323 62.23764171 37.50164258 74.08203125 32.4921875 C78.34063138 30.31442947 82.2151996 27.92104927 86 25 C87.03125 24.2575 88.0625 23.515 89.125 22.75 C95.85170528 16.31576017 100.08549916 8.34992362 104 0 C105.00244751 0.64594116 105.00244751 0.64594116 106.02514648 1.30493164 C113.97824414 6.20710541 122.00569767 9.51553114 130.77975464 12.62689209 C134.66745098 14.00742163 138.53970719 15.4302123 142.4140625 16.84765625 C143.16777634 17.1223877 143.92149017 17.39711914 144.69804382 17.68017578 C187.5849183 33.34970323 187.5849183 33.34970323 198 53 C201.90988989 61.97580318 202.59766553 70.34294796 202.53125 80.03125 C202.53395234 81.43941515 202.53784089 82.84757846 202.54284668 84.2557373 C202.54869157 87.18044118 202.54033306 90.10465109 202.52148438 93.02929688 C202.49852632 96.77309989 202.51195356 100.51576621 202.53577423 104.25952911 C202.55022509 107.15580841 202.54563265 110.05181745 202.53526306 112.94810486 C202.5326025 114.32917925 202.53584194 115.71027848 202.54518127 117.09132385 C202.55535174 119.01465373 202.5370982 120.93807042 202.51757812 122.86132812 C202.51439575 123.95320435 202.51121338 125.04508057 202.50793457 126.17004395 C201.86759658 129.73768531 200.78449631 130.73700127 198 133 C195.64305884 133.50254732 195.64305884 133.50254732 192.9771204 133.50615788 C191.95857159 133.51720556 190.94002277 133.52825325 189.89060885 133.53963572 C188.77340486 133.53139495 187.65620087 133.52315418 186.50514221 133.5146637 C185.3169386 133.52160922 184.128735 133.52855475 182.90452522 133.53571075 C179.60504472 133.55086063 176.30646329 133.54802079 173.00702274 133.53755772 C169.44932358 133.5305763 165.89171738 133.54655557 162.33404541 133.55955505 C155.36382131 133.5812184 148.39376032 133.58106219 141.4235136 133.57292951 C135.75906623 133.56663429 130.0946665 133.56776214 124.43021965 133.57420158 C123.6245751 133.57510324 122.81893056 133.57600489 121.98887254 133.57693387 C120.35230032 133.57878504 118.71572811 133.5806476 117.07915591 133.58252143 C101.72538403 133.59910813 86.37170397 133.59037343 71.01793759 133.57353585 C56.96649401 133.55883918 42.91526426 133.57346522 28.86384822 133.60230602 C14.4413258 133.63168841 0.01890212 133.64267562 -14.40364891 133.63312382 C-16.03456722 133.63210125 -17.66548554 133.63110664 -19.29640388 133.6301403 C-20.09887646 133.62966391 -20.90134904 133.62918752 -21.72813896 133.6286967 C-27.38599638 133.62653097 -33.0437605 133.63634508 -38.70159721 133.65091133 C-45.59647768 133.66841447 -52.4910855 133.66834665 -59.38595515 133.64555968 C-62.9046574 133.63439861 -66.42287897 133.63129622 -69.94156075 133.64986038 C-73.7540128 133.66971578 -77.56570952 133.65092217 -81.37815857 133.62818909 C-82.49313184 133.64002482 -83.60810511 133.65186054 -84.75686544 133.66405493 C-92.2272661 133.57317993 -92.2272661 133.57317993 -96.18752384 130.63563538 C-98.33009515 127.51998792 -98.62281302 125.87249525 -98.61523438 122.11499023 C-98.62453979 120.95285507 -98.63384521 119.79071991 -98.64343262 118.59336853 C-98.62703735 117.34439285 -98.61064209 116.09541718 -98.59375 114.80859375 C-98.59379028 113.51236588 -98.59383057 112.216138 -98.59387207 110.88063049 C-98.59222041 108.13582504 -98.57357002 105.39183775 -98.54199219 102.6472168 C-98.50258875 99.16304383 -98.4979158 95.67995459 -98.50545502 92.19560146 C-98.50930402 88.83730561 -98.48837359 85.47933669 -98.46875 82.12109375 C-98.46854858 80.88628769 -98.46834717 79.65148163 -98.46813965 78.3792572 C-98.27156572 63.74974031 -94.71078915 51.59767373 -84.7265625 40.640625 C-71.95436255 28.50414541 -54.46197452 22.91137414 -38.24072266 17.08056641 C-30.80701015 14.40722746 -23.41508021 11.67386265 -16.125 8.625 C-15.40207764 8.32787109 -14.67915527 8.03074219 -13.93432617 7.72460938 C-8.971687 5.61269724 -4.49819733 2.96830027 0 0 Z " fill="#FED300" transform="translate(216,379)"/>
<path d="M0 0 C1.97119141 -0.34057617 1.97119141 -0.34057617 4.3515625 -0.29296875 C5.62773437 -0.2784668 5.62773437 -0.2784668 6.9296875 -0.26367188 C7.81914063 -0.23853516 8.70859375 -0.21339844 9.625 -0.1875 C10.97078125 -0.16719727 10.97078125 -0.16719727 12.34375 -0.14648438 C14.56309789 -0.11106925 16.78125188 -0.06168461 19 0 C19.18691406 0.86882812 19.37382813 1.73765625 19.56640625 2.6328125 C21.31037149 9.17912783 21.31037149 9.17912783 25.61230469 14.18847656 C31.51334056 17.30265239 38.3666137 19.43304391 45 20 C46.75064799 18.98144117 48.50069292 17.9608674 50.22265625 16.89453125 C52 16 52 16 55.375 15.6875 C60.9278894 17.69802892 64.52105769 21.27967299 68 26 C69.01070186 30.50928524 68.24864687 32.82226189 65.9375 36.625 C63.74418682 39.69239417 63.74418682 39.69239417 64.22265625 42.328125 C65.1089199 45.37437793 66.24410779 48.21162215 67.5 51.125 C68.76500492 54.07422659 69.98505768 56.95517304 71 60 C73.98131149 61.4037701 73.98131149 61.4037701 77.5 62.5625 C83.89730086 64.79460171 83.89730086 64.79460171 85 67 C85.15051566 69.66007481 85.23127734 72.27654185 85.25 74.9375 C85.2809375 76.03094727 85.2809375 76.03094727 85.3125 77.14648438 C85.35123487 82.42895258 85.35123487 82.42895258 83.8203125 84.91796875 C81.49302566 86.30135599 79.25891594 86.76162231 76.625 87.375 C72.72501262 88.68358229 71.34517457 89.41067756 69.23828125 93.0078125 C68.00820151 96.31018874 66.98630682 99.6183766 66 103 C65.62617188 103.74378906 65.25234375 104.48757813 64.8671875 105.25390625 C63.58739729 107.83078114 64.14452068 109.30194984 65 112 C65.515625 112.78375 66.03125 113.5675 66.5625 114.375 C68.59445645 118.08552917 68.83806219 119.80968904 68 124 C64.53637934 128.72520434 60.92038475 132.30468828 55.375 134.3125 C52.11828865 134.01095265 51.08753681 133.64105124 48.4375 132 C43.51339663 129.13506713 40.65865562 130.57173336 35.30859375 131.953125 C27.41790512 134.4269104 27.41790512 134.4269104 21.9140625 140.2890625 C20.34881221 144.24195004 20.34881221 144.24195004 19 150 C12.73 150 6.46 150 0 150 C-4.42857143 140.42857143 -4.42857143 140.42857143 -5 136 C-6.7015625 135.62875 -6.7015625 135.62875 -8.4375 135.25 C-11.73762716 134.44979218 -14.57943037 133.30684571 -17.625 131.8125 C-21.52339373 130.02044251 -23.80484783 129.60161594 -28 131 C-29.010625 131.515625 -30.02125 132.03125 -31.0625 132.5625 C-34.26364632 134.12901841 -35.51272257 134.53299 -39 134 C-41.20845768 132.34512904 -42.9687527 130.82159116 -44.875 128.875 C-45.38546875 128.400625 -45.8959375 127.92625 -46.421875 127.4375 C-47.8671875 125.9921875 -47.8671875 125.9921875 -50 123 C-49.96376182 118.86884708 -48.75986781 116.39530976 -46.5625 113 C-44.89175713 109.51632338 -44.92118668 108.26666162 -46.0390625 104.484375 C-47.07496772 102.00157865 -48.24136338 99.64472941 -49.44921875 97.234375 C-50.81382983 94.38828438 -51.56290137 92.1004863 -52 89 C-53.13888672 88.70996094 -53.13888672 88.70996094 -54.30078125 88.4140625 C-55.29464844 88.15367187 -56.28851563 87.89328125 -57.3125 87.625 C-58.79169922 87.24214844 -58.79169922 87.24214844 -60.30078125 86.8515625 C-63 86 -63 86 -66 84 C-66.37231445 82.15234375 -66.37231445 82.15234375 -66.36328125 79.9375 C-66.36263672 79.14085937 -66.36199219 78.34421875 -66.36132812 77.5234375 C-66.34521484 76.69070313 -66.32910156 75.85796875 -66.3125 75 C-66.31572266 74.16726563 -66.31894531 73.33453125 -66.32226562 72.4765625 C-66.26700255 66.26700255 -66.26700255 66.26700255 -64 64 C-62.02615625 63.63647194 -60.04581138 63.30771377 -58.0625 63 C-53.6226981 62.07542381 -53.6226981 62.07542381 -50.68359375 58.93359375 C-49.95374167 56.42328848 -49.95374167 56.42328848 -49.53125 53.74609375 C-48.95921522 50.78917869 -47.87992431 48.66308564 -46.5 46 C-45.16414301 42.84658294 -44.79582824 41.61073212 -45.89453125 38.32421875 C-47.26188592 35.68975438 -47.26188592 35.68975438 -48.86328125 33.32421875 C-50 31 -50 31 -49.95703125 28.54296875 C-48.69002595 25.17635467 -46.87611898 23.20168148 -44.375 20.625 C-43.53710938 19.73039062 -42.69921875 18.83578125 -41.8359375 17.9140625 C-39 16 -39 16 -35.35546875 16.109375 C-32 17 -32 17 -28.9375 18.625 C-24.44243927 20.72907098 -21.20321417 19.4267213 -16.640625 17.80859375 C-15.52171875 17.35613281 -14.4028125 16.90367187 -13.25 16.4375 C-7.20113314 14 -7.20113314 14 -5 14 C-4.80664062 13.24074219 -4.61328125 12.48148437 -4.4140625 11.69921875 C-4.15367188 10.70535156 -3.89328125 9.71148437 -3.625 8.6875 C-3.24214844 7.20830078 -3.24214844 7.20830078 -2.8515625 5.69921875 C-2 3 -2 3 0 0 Z " fill="#2F5274" transform="translate(67,252)"/>
<path d="M0 0 C1.67434802 -0.00644416 3.34869497 -0.01317365 5.02304077 -0.02017212 C8.50057595 -0.03204089 11.97801245 -0.03586273 15.45556641 -0.03466797 C19.90989348 -0.03446292 24.36359582 -0.0620009 28.81777382 -0.09621239 C32.26129075 -0.11841691 35.70465412 -0.12250785 39.14823532 -0.12144852 C40.79169283 -0.1238051 42.43515452 -0.13263195 44.0785408 -0.14811325 C46.36613124 -0.16768598 48.65232911 -0.16197595 50.93994141 -0.14990234 C52.88847519 -0.1541774 52.88847519 -0.1541774 54.87637329 -0.15853882 C58.1484375 0.3359375 58.1484375 0.3359375 60.56356812 2.16146851 C62.94174733 5.4243727 62.75042282 7.37944087 62.1484375 11.3359375 C60.36664838 14.77654088 57.96444476 17.75159468 55.61523438 20.81835938 C53.28464032 24.02829813 52.1611689 25.61024775 52.08984375 29.67578125 C52.90409452 32.3514508 52.90409452 32.3514508 54.734375 33.625 C58.03888566 34.59817304 61.37898893 35.16527375 64.7734375 35.7109375 C78.38007348 38.08955852 88.76338022 42.95877645 97.1484375 54.3359375 C104.7850432 68.05936716 103.39915427 84.43588021 103.2734375 99.5859375 C103.26338817 101.69921451 103.25426577 103.81249614 103.24609375 105.92578125 C103.22423379 111.06261567 103.18981127 116.19922471 103.1484375 121.3359375 C101.1484375 118.3359375 101.1484375 118.3359375 99.5234375 115.4609375 C96.49557088 111.47690247 93.92657065 108.99124418 89.1484375 107.3359375 C86.40291992 107.20951727 83.70487851 107.14874727 80.9609375 107.1484375 C78.17655089 107.12540779 75.92493317 106.87069238 73.1484375 106.3359375 C70.94243262 103.94275644 70.1357915 101.91092842 69.078125 98.8515625 C67.4196857 94.36402086 64.16111781 92.34049652 59.94140625 90.234375 C56.44062797 89.10825052 53.09957455 89.04726494 49.4609375 88.9609375 C38.05706584 88.40436892 30.32300684 84.12046849 20.94335938 77.86547852 C13.20189148 72.78826953 5.35526065 71.05784043 -3.8515625 72.3359375 C-10.27327293 74.64348306 -15.85741335 78.30425212 -21.5390625 82.0234375 C-29.09230859 86.88369386 -34.94613431 88.38885933 -43.9140625 88.7109375 C-52.06848248 89.02127755 -56.52686725 90.92138562 -62.1640625 96.7109375 C-63.52821868 98.83295823 -64.49392768 100.69610519 -65.45703125 103 C-65.91722656 104.10085937 -66.37742188 105.20171875 -66.8515625 106.3359375 C-67.91375 106.35011719 -68.9759375 106.36429687 -70.0703125 106.37890625 C-81.42576874 106.5463753 -81.42576874 106.5463753 -90.8515625 112.3359375 C-93.23771252 115.32964855 -93.23771252 115.32964855 -94.8515625 118.3359375 C-95.5115625 119.3259375 -96.1715625 120.3159375 -96.8515625 121.3359375 C-96.9284353 114.34748487 -96.9805028 107.35914361 -97.01635742 100.37036133 C-97.03132488 97.99922613 -97.0517061 95.62811804 -97.07788086 93.25708008 C-97.34473081 68.44003495 -95.19698906 46.22650114 -77.27929688 27.29296875 C-56.26202499 5.90868979 -28.94240735 0.0265208 0 0 Z " fill="#231915" transform="translate(264.8515625,128.6640625)"/>
<path d="M0 0 C13.59235877 10.20563393 22.79048989 22.53317395 25.3359375 39.75390625 C26.33072522 58.46356762 22.52644561 71.3961967 10.3359375 85.75390625 C9.48902344 86.69363281 8.64210938 87.63335937 7.76953125 88.6015625 C1.51706927 95.6740195 -1.90370298 101.74641729 -4.6640625 110.75390625 C-2.776875 111.12515625 -2.776875 111.12515625 -0.8515625 111.50390625 C1.7848825 112.18397863 3.16360685 112.60937087 5.2734375 114.37890625 C6.80404385 117.80026163 7.46309594 120.99899226 7.3359375 124.75390625 C5.78176101 128.43485056 3.83429494 130.7989418 0.3359375 132.75390625 C-1.33006734 132.80087078 -2.99821441 132.80613581 -4.6640625 132.75390625 C-4.61185547 134.16542969 -4.61185547 134.16542969 -4.55859375 135.60546875 C-4.53152344 136.85070312 -4.50445312 138.0959375 -4.4765625 139.37890625 C-4.42435547 141.22355469 -4.42435547 141.22355469 -4.37109375 143.10546875 C-4.69454414 147.13350429 -5.44333278 149.39149986 -7.6640625 152.75390625 C-11.8387987 156.01605501 -15.70269344 156.20770929 -20.81640625 156.1875 C-21.59415909 156.19274185 -22.37191193 156.1979837 -23.17323303 156.2033844 C-24.81298635 156.20978812 -26.4527857 156.20848899 -28.0925293 156.19995117 C-30.59051993 156.19144386 -33.08621952 156.22021751 -35.58398438 156.25195312 C-37.18229099 156.25356552 -38.78060162 156.25298687 -40.37890625 156.25 C-41.11970932 156.26123398 -41.86051239 156.27246796 -42.62376404 156.28404236 C-47.77528086 156.21541244 -50.68309695 154.97781836 -54.6640625 151.75390625 C-57.36950424 148.26002149 -56.89299933 144.23333558 -56.7890625 140.00390625 C-56.78003906 139.30652344 -56.77101563 138.60914063 -56.76171875 137.890625 C-56.73826138 136.17823667 -56.70239354 134.46602621 -56.6640625 132.75390625 C-57.77007812 132.62886719 -58.87609375 132.50382813 -60.015625 132.375 C-64.05819839 131.68681031 -65.17937024 130.90755412 -67.6640625 127.75390625 C-69.19621138 124.68960849 -68.89344798 122.13734205 -68.6640625 118.75390625 C-67.16608442 114.72809016 -65.1840107 113.31809684 -61.4765625 111.44140625 C-60.2119996 110.86494785 -58.9430165 110.29768954 -57.6640625 109.75390625 C-60.47059937 100.77298826 -64.09369699 94.78719546 -70.28515625 87.79296875 C-83.15353907 73.15937567 -87.69040098 59.68086395 -86.85498047 40.26513672 C-85.81409849 26.57394482 -78.19945601 14.26912626 -68.40625 5.01171875 C-49.44929681 -10.59671279 -20.98734879 -13.91021954 0 0 Z " fill="#FED300" transform="translate(485.6640625,253.24609375)"/>
<path d="M0 0 C8.85228897 6.3986654 13.96187333 15.72517315 16.1875 26.3125 C17.34659097 36.80132321 14.08480344 46.78211403 7.94140625 55.28125 C0.72539636 63.63832159 -8.95037835 68.27490034 -19.84765625 69.55078125 C-29.04808585 69.88759852 -37.90923385 66.87824829 -45.00390625 61.0078125 C-52.55199613 53.93249715 -58.3383376 46.35497762 -59.05078125 35.7734375 C-59.39861026 22.85633293 -56.63894523 13.51902454 -47.6875 3.75 C-34.17753771 -9.35408359 -15.48651082 -9.45519963 0 0 Z " fill="#E9F3FA" transform="translate(97.8125,295.6875)"/>
<path d="M0 0 C3.11038032 1.08863311 3.74292543 2.12000503 5.5 4.875 C6.25275826 6.77783884 6.92792215 8.71235598 7.54296875 10.6640625 C7.89423828 11.77007812 8.24550781 12.87609375 8.60742188 14.015625 C8.96384766 15.16546875 9.32027344 16.3153125 9.6875 17.5 C10.05552734 18.65757813 10.42355469 19.81515625 10.80273438 21.0078125 C13.5 29.5750087 13.5 29.5750087 13.5 31.875 C14.41813477 31.85928955 15.33626953 31.8435791 16.28222656 31.82739258 C19.69650949 31.7761913 23.11038304 31.73861521 26.52490234 31.71020508 C28.00120491 31.69514077 29.47746288 31.67468518 30.95361328 31.64868164 C33.07856258 31.61219261 35.20291901 31.59525067 37.328125 31.58203125 C39.2447998 31.55846558 39.2447998 31.55846558 41.20019531 31.53442383 C44.69689451 31.89532168 46.08616327 32.36619143 48.5 34.875 C49.1875 37.6875 49.1875 37.6875 48.5 40.875 C43.85891692 45.9392196 37.62891482 49.7848826 32.0625 53.75 C31.23556641 54.34296875 30.40863281 54.9359375 29.55664062 55.546875 C27.53980018 56.99247162 25.52091222 58.43510405 23.5 59.875 C23.92466553 61.15346802 23.92466553 61.15346802 24.35791016 62.45776367 C25.40344853 65.63133355 26.43408599 68.80896705 27.45507812 71.99047852 C27.89941527 73.36478221 28.34955865 74.73722302 28.80566406 76.10766602 C29.46144402 78.08144915 30.09584096 80.06105713 30.7265625 82.04296875 C31.11408691 83.23172607 31.50161133 84.4204834 31.90087891 85.64526367 C32.5652661 89.22683586 32.23078242 90.72494719 30.5 93.875 C29.5 94.875 29.5 94.875 26.859375 95.22265625 C22.56199451 94.77792734 20.05824179 92.88434655 16.75 90.3125 C15.52378123 89.39667501 14.29721603 88.48131369 13.0703125 87.56640625 C12.46993164 87.11152832 11.86955078 86.65665039 11.25097656 86.18798828 C8.75147344 84.31370945 6.19173954 82.53062985 3.625 80.75 C2.82320313 80.19054687 2.02140625 79.63109375 1.1953125 79.0546875 C0.63585937 78.66539063 0.07640625 78.27609375 -0.5 77.875 C-5.46669049 80.88089284 -10.36933129 83.89872255 -14.87890625 87.56640625 C-15.72159058 88.24823975 -15.72159058 88.24823975 -16.58129883 88.94384766 C-17.6727388 89.83903602 -18.75268714 90.74846983 -19.8190918 91.67333984 C-22.74199869 94.06485124 -24.4699699 94.87172909 -28.265625 95.28515625 C-31.5 94.875 -31.5 94.875 -33.5 92.875 C-33.25273177 85.09801548 -30.88782618 78.14655054 -28.4375 70.8125 C-28.06044922 69.66072266 -27.68339844 68.50894531 -27.29492188 67.32226562 C-26.37104288 64.50384995 -25.43926223 61.68831858 -24.5 58.875 C-25.26135254 58.59052002 -26.02270508 58.30604004 -26.80712891 58.01293945 C-30.26000718 56.55384012 -32.97393511 54.38573123 -35.875 52.0625 C-39.42106387 49.25328057 -42.92263251 46.54688192 -46.75 44.125 C-49.5 41.875 -49.5 41.875 -50.5625 38.75 C-50.5 35.875 -50.5 35.875 -48.5 32.875 C-45.07117059 31.73205686 -42.25917162 31.66535528 -38.64453125 31.55859375 C-37.65207649 31.5274221 -37.65207649 31.5274221 -36.63957214 31.49562073 C-34.53065148 31.43035273 -32.42160865 31.37134656 -30.3125 31.3125 C-28.88084685 31.26929311 -27.44920596 31.22567812 -26.01757812 31.18164062 C-22.51184846 31.07469494 -19.00598214 30.97336359 -15.5 30.875 C-15.21278076 30.00697754 -14.92556152 29.13895508 -14.62963867 28.24462891 C-13.55883596 25.02510079 -12.47879662 21.8089874 -11.39233398 18.59472656 C-10.92407154 17.20307717 -10.45952383 15.81017208 -9.9987793 14.41601562 C-9.33575067 12.41194203 -8.65948211 10.41276801 -7.98046875 8.4140625 C-7.57723389 7.20959473 -7.17399902 6.00512695 -6.75854492 4.76416016 C-5.2194067 1.23086011 -3.98704412 -0.19935221 0 0 Z " fill="#FED300" transform="translate(386.5,28.125)"/>
<path d="M0 0 C5.09681043 2.54840521 6.48097671 10.01734297 8.203125 15.1796875 C8.7242362 16.8263989 9.239861 18.47485651 9.75 20.125 C10.018125 20.96546875 10.28625 21.8059375 10.5625 22.671875 C12.5 28.86001276 12.5 28.86001276 12.5 32.25 C13.41813477 32.23952637 14.33626953 32.22905273 15.28222656 32.21826172 C18.69647746 32.18412785 22.11054638 32.1590759 25.52490234 32.14013672 C27.00116847 32.13009409 28.47741479 32.11645735 29.95361328 32.09912109 C32.07850034 32.07479579 34.20312385 32.0634996 36.328125 32.0546875 C37.6059082 32.04421387 38.88369141 32.03374023 40.20019531 32.02294922 C43.29588449 32.23595535 45.00303803 32.45450803 47.5 34.25 C48.5625 37.0625 48.5625 37.0625 48.5 40.25 C44.47921929 44.98558617 39.40448681 48.40750942 34.375 52 C33.56417969 52.58910156 32.75335938 53.17820313 31.91796875 53.78515625 C25.88822545 58.12059152 25.88822545 58.12059152 22.5 59.25 C22.77787354 60.06154541 23.05574707 60.87309082 23.34204102 61.70922852 C24.37348287 64.74503563 25.39123279 67.785008 26.40014648 70.82836914 C26.83813448 72.14039584 27.28141302 73.45066946 27.73022461 74.7590332 C28.37727673 76.64836781 29.00329377 78.54486447 29.62890625 80.44140625 C30.01119385 81.57779541 30.39348145 82.71418457 30.78735352 83.88500977 C31.59184177 87.68366053 31.31797157 90.4734579 30.5 94.25 C29.5 95.25 29.5 95.25 26.5390625 95.73828125 C20.93749335 95.65392888 17.07276152 91.7661937 12.875 88.4375 C11.21747369 87.15843365 9.55865793 85.8810362 7.8984375 84.60546875 C7.17317871 84.03465576 6.44791992 83.46384277 5.70068359 82.87573242 C3.38359199 81.16400478 0.99083323 79.69437718 -1.5 78.25 C-4.1877381 80.14549595 -6.87514602 82.04145951 -9.5625 83.9375 C-10.31466797 84.46794922 -11.06683594 84.99839844 -11.84179688 85.54492188 C-12.58623047 86.07021484 -13.33066406 86.59550781 -14.09765625 87.13671875 C-14.83806152 87.65741943 -15.5784668 88.17812012 -16.34130859 88.71459961 C-17.73971261 89.70923463 -19.12881395 90.71713424 -20.50634766 91.74047852 C-23.35718998 93.85094497 -25.20156513 95.19834781 -28.75 95.8125 C-31.5 95.25 -31.5 95.25 -33.5 93.8125 C-36.11816277 87.10345791 -30.99783635 77.20702382 -28.875 70.6875 C-28.55015625 69.67880859 -28.2253125 68.67011719 -27.890625 67.63085938 C-27.09735302 65.16938308 -26.30041857 62.7091597 -25.5 60.25 C-26.04414551 59.85208252 -26.58829102 59.45416504 -27.14892578 59.04418945 C-29.64244159 57.21898678 -32.13373192 55.39076931 -34.625 53.5625 C-35.90890625 52.62374023 -35.90890625 52.62374023 -37.21875 51.66601562 C-39.65687007 49.87493511 -42.08183393 48.06790656 -44.5 46.25 C-45.46172119 45.53783325 -45.46172119 45.53783325 -46.44287109 44.8112793 C-48.09375 43.53125 -48.09375 43.53125 -50.5 41.25 C-50.875 37.4375 -50.875 37.4375 -50.5 34.25 C-46.80995799 31.90105255 -43.6328897 32.01940254 -39.328125 32.0546875 C-38.3044986 32.05893234 -38.3044986 32.05893234 -37.26019287 32.06326294 C-35.08994693 32.07441902 -32.92012029 32.09951443 -30.75 32.125 C-29.27474556 32.13503574 -27.79948463 32.14416056 -26.32421875 32.15234375 C-22.71601058 32.17434313 -19.10804625 32.20884117 -15.5 32.25 C-15.31751709 31.56615234 -15.13503418 30.88230469 -14.94702148 30.17773438 C-13.28040174 23.99093488 -11.530683 17.84771283 -9.5625 11.75 C-9.20381836 10.574375 -9.20381836 10.574375 -8.83789062 9.375 C-7.74727301 6.01394097 -7.00520592 3.75035749 -4.46484375 1.234375 C-2.5 0.25 -2.5 0.25 0 0 Z " fill="#FED300" transform="translate(152.5,27.75)"/>
<path d="M0 0 C3.32024002 2.43640824 4.06696817 5.59130383 5.26171875 9.41796875 C5.65810547 10.67158203 6.05449219 11.92519531 6.46289062 13.21679688 C6.87129506 14.54030248 7.27949561 15.86387102 7.6875 17.1875 C8.10657032 18.52305396 8.5264829 19.85834394 8.94726562 21.19335938 C9.97316703 24.45973512 10.99036132 27.72856804 12 31 C12.95366455 31.01458252 13.9073291 31.02916504 14.88989258 31.04418945 C18.42933585 31.10217792 21.96814324 31.17940958 25.50708008 31.26245117 C27.03855059 31.29569818 28.57014356 31.32373093 30.10180664 31.34643555 C32.30407887 31.37998718 34.50522912 31.4322991 36.70703125 31.48828125 C37.39150833 31.49467117 38.07598541 31.5010611 38.78120422 31.50764465 C41.61232239 31.59514672 43.56991564 31.70584848 45.94116211 33.32763672 C47 35 47 35 47.234375 38.26953125 C45.42965159 43.72367953 41.92659661 45.61711765 37.25 48.6875 C35.62964202 49.79474462 34.00983557 50.90279685 32.390625 52.01171875 C31.62685547 52.52395996 30.86308594 53.03620117 30.07617188 53.56396484 C28.34303884 54.76272878 26.683717 56.06730354 25.046875 57.39453125 C23 59 23 59 21 59 C21.27263672 59.78125244 21.54527344 60.56250488 21.82617188 61.36743164 C22.84115139 64.29243778 23.84634619 67.22057983 24.84521484 70.15112305 C25.48966718 72.03233756 26.14513841 73.90976568 26.80078125 75.78710938 C27.20683594 76.98271484 27.61289062 78.17832031 28.03125 79.41015625 C28.40830078 80.50465088 28.78535156 81.59914551 29.17382812 82.72680664 C30.08355906 86.33105092 30.35770157 89.29896983 30 93 C27 95 27 95 23.71484375 94.91796875 C19.49182624 93.87442604 16.82298833 92.04833485 13.5625 89.3125 C13.00119385 88.86350342 12.4398877 88.41450684 11.86157227 87.9519043 C10.23053764 86.64693585 8.61319132 85.32692995 7 84 C5.48805382 82.75991796 3.96891626 81.52845598 2.4375 80.3125 C1.56931641 79.59513672 1.56931641 79.59513672 0.68359375 78.86328125 C-0.96127392 77.81646332 -0.96127392 77.81646332 -2.82763672 78.25292969 C-5.44074119 79.1515698 -7.23315213 80.42900507 -9.44140625 82.08984375 C-10.27220703 82.70923828 -11.10300781 83.32863281 -11.95898438 83.96679688 C-12.81814453 84.61712891 -13.67730469 85.26746094 -14.5625 85.9375 C-16.27180792 87.21788524 -17.98143009 88.4978511 -19.69140625 89.77734375 C-20.44623291 90.34702881 -21.20105957 90.91671387 -21.97875977 91.50366211 C-26.73270812 95.0230424 -26.73270812 95.0230424 -30.625 94.6875 C-34 94 -34 94 -35 93 C-35.29430712 88.00258771 -34.65532215 84.12447679 -33.03125 79.41015625 C-32.62519531 78.21455078 -32.21914062 77.01894531 -31.80078125 75.78710938 C-31.37152344 74.55798828 -30.94226563 73.32886719 -30.5 72.0625 C-30.06543087 70.79395351 -29.63182805 69.52507556 -29.19921875 68.25585938 C-28.14225765 65.16718417 -27.07561389 62.08221863 -26 59 C-26.57886963 58.72526855 -27.15773926 58.45053711 -27.75415039 58.16748047 C-29.95724995 57.02222315 -31.90836947 55.75392881 -33.93359375 54.3203125 C-34.66513672 53.80339844 -35.39667969 53.28648438 -36.15039062 52.75390625 C-36.90513672 52.21636719 -37.65988281 51.67882813 -38.4375 51.125 C-39.18837891 50.59519531 -39.93925781 50.06539062 -40.71289062 49.51953125 C-49.37152967 43.38156901 -49.37152967 43.38156901 -52 41 C-52.50892667 37.88282417 -52.66473494 36.02932055 -50.92456055 33.3347168 C-48.02131877 31.32126725 -45.10954349 31.63006153 -41.70703125 31.70703125 C-40.64798836 31.71339851 -40.64798836 31.71339851 -39.56755066 31.71989441 C-37.31547697 31.73666966 -35.06430258 31.77431757 -32.8125 31.8125 C-31.28451815 31.82754843 -29.75652224 31.84123656 -28.22851562 31.85351562 C-24.48533128 31.88656911 -20.74281804 31.93834168 -17 32 C-16.82476807 31.3292041 -16.64953613 30.6584082 -16.46899414 29.96728516 C-14.7045844 23.34021528 -12.70053079 16.84775474 -10.4375 10.375 C-9.98213867 9.03115234 -9.98213867 9.03115234 -9.51757812 7.66015625 C-9.22173828 6.81066406 -8.92589844 5.96117187 -8.62109375 5.0859375 C-8.3573999 4.3232959 -8.09370605 3.5606543 -7.82202148 2.77490234 C-6.23373865 -0.6545055 -3.40123972 -0.33182827 0 0 Z " fill="#FED300" transform="translate(271,0)"/>
<path d="M0 0 C1.24008316 -0.00287018 2.48016632 -0.00574036 3.75782776 -0.00869751 C7.04484974 -0.01125646 10.33144309 0.00077524 13.6184082 0.01757812 C15.62570823 0.02342818 17.63261425 0.01760289 19.63989258 0.00732422 C23.51011269 -0.01125169 27.3797553 -0.00895079 31.25 0 C33.03778114 -0.00910904 33.03778114 -0.00910904 34.86167908 -0.0184021 C41.04408455 0.03373777 45.79531329 0.25013185 51.19140625 3.3984375 C53.67099318 6.73038243 54.44642817 9.37947278 54.25390625 13.4609375 C53.70712861 16.59138973 52.78908496 18.2570148 50.44140625 20.3984375 C47.06663757 22.47521822 45.97333827 22.60425693 42.19140625 22.3984375 C42.24361328 23.80996094 42.24361328 23.80996094 42.296875 25.25 C42.32394531 26.49523437 42.35101563 27.74046875 42.37890625 29.0234375 C42.43111328 30.86808594 42.43111328 30.86808594 42.484375 32.75 C42.16092461 36.77803554 41.41213597 39.03603111 39.19140625 42.3984375 C35.01667005 45.66058626 31.15277531 45.85224054 26.0390625 45.83203125 C24.87243324 45.83989403 24.87243324 45.83989403 23.68223572 45.84791565 C22.0424824 45.85431937 20.40268305 45.85302024 18.76293945 45.84448242 C16.26494882 45.83597511 13.76924923 45.86474876 11.27148438 45.89648438 C9.67317776 45.89809677 8.07486713 45.89751812 6.4765625 45.89453125 C5.36535789 45.91138222 5.36535789 45.91138222 4.23170471 45.92857361 C-0.91981211 45.85994369 -3.8276282 44.62234961 -7.80859375 41.3984375 C-10.51403549 37.90455274 -10.03753058 33.87786683 -9.93359375 29.6484375 C-9.92457031 28.95105469 -9.91554688 28.25367188 -9.90625 27.53515625 C-9.88279263 25.82276792 -9.84692479 24.11055746 -9.80859375 22.3984375 C-10.91460937 22.27339844 -12.020625 22.14835937 -13.16015625 22.01953125 C-17.20272964 21.33134156 -18.32390149 20.55208537 -20.80859375 17.3984375 C-22.34074263 14.33413974 -22.03797923 11.7818733 -21.80859375 8.3984375 C-20.49759776 5.19378063 -19.32628722 3.75949719 -16.49194336 1.78271484 C-11.0208155 -0.27344576 -5.79825294 -0.02949296 0 0 Z " fill="#2E5072" transform="translate(438.80859375,363.6015625)"/>
<path d="M0 0 C0.66 0.33 1.32 0.66 2 1 C1.54109375 1.4846875 1.0821875 1.969375 0.609375 2.46875 C-11.15816438 15.32404512 -12.44678551 29.74293751 -12.51171875 46.578125 C-12.52860102 48.24250583 -12.54675591 49.90687418 -12.56611633 51.57122803 C-12.61323792 55.91115416 -12.64329033 60.25102972 -12.66955566 64.59112549 C-12.6995542 69.03611233 -12.74601724 73.48092543 -12.79101562 77.92578125 C-12.87661711 86.61710135 -12.94415211 95.30843797 -13 104 C-15.60527105 104.10792837 -18.20608311 104.18724878 -20.8125 104.25 C-21.55048828 104.28351563 -22.28847656 104.31703125 -23.04882812 104.3515625 C-28.46016758 104.4495053 -28.46016758 104.4495053 -30.98745728 102.34509277 C-32.22533576 99.47811262 -32.3808764 97.35377644 -32.38818359 94.22851562 C-32.39764008 93.06630493 -32.40709656 91.90409424 -32.4168396 90.70666504 C-32.41076691 89.45252808 -32.40469421 88.19839111 -32.3984375 86.90625 C-32.40130768 85.60860718 -32.40417786 84.31096436 -32.40713501 82.97399902 C-32.4115568 80.22344265 -32.40514075 77.47317859 -32.39111328 74.72265625 C-32.374156 71.23066696 -32.38377638 67.73937638 -32.40183067 64.24741364 C-32.41542608 60.88364008 -32.40583405 57.52004327 -32.3984375 54.15625 C-32.40451019 52.91830688 -32.41058289 51.68036377 -32.4168396 50.40490723 C-32.29987764 35.71827113 -28.68454043 23.69897019 -18.76171875 12.65625 C-15.18521896 9.29386439 -11.12441074 6.638841 -7 4 C-6.29746094 3.55011719 -5.59492188 3.10023438 -4.87109375 2.63671875 C-3 1.5 -3 1.5 0 0 Z " fill="#E6BF00" transform="translate(150,407)"/>
<path d="M0 0 C18.82191781 0 18.82191781 0 24 5 C30.9069925 12.27051842 30.36558171 19.77648373 30.375 29.3125 C30.39949219 30.60607422 30.42398437 31.89964844 30.44921875 33.23242188 C30.47194272 40.63665027 30.11156584 45.76098175 26 52 C18.10800438 59.68963676 11.57979375 58 0 58 C0 38.86 0 19.72 0 0 Z " fill="#E0A972" transform="translate(338,235)"/>
<path d="M0 0 C0 19.14 0 38.28 0 58 C-18.37837838 58 -18.37837838 58 -24 54 C-30.9694224 46.84717175 -30.36566759 39.13656238 -30.375 29.6875 C-30.39949219 28.39392578 -30.42398438 27.10035156 -30.44921875 25.76757812 C-30.4734474 17.87307555 -30.28993244 11.4700662 -24.55224609 5.49145508 C-16.36071256 -1.71961966 -12.43147417 0 0 0 Z " fill="#E0A972" transform="translate(198,235)"/>
<path d="M0 0 C2.97622564 2.03607212 5.47169987 4.43879358 8 7 C9.2375 8.2065625 9.2375 8.2065625 10.5 9.4375 C10.995 9.953125 11.49 10.46875 12 11 C15.42280517 9.53417985 17.56480483 7.61937745 20.125 4.9375 C24.74584742 0.11612524 24.74584742 0.11612524 29.375 -0.3125 C33 0 33 0 35.4375 1.5 C37.21642216 4.34627546 37.58467697 6.55723604 37.5173645 9.90133667 C36.5003112 14.02696275 32.7821874 16.06551746 29.58984375 18.59765625 C24.0249848 23.56667318 21.11130743 27.49032223 20.40859985 35.02352905 C20.2525337 39.84391209 20.36330459 44.62033775 20.5625 49.4375 C20.58958964 51.44067371 20.60981883 53.44395243 20.62304688 55.44726562 C20.66979367 60.3030087 20.80870047 65.14789025 21 70 C15.72 70 10.44 70 5 70 C5 55.81 5 41.62 5 27 C3.68 26.34 2.36 25.68 1 25 C-0.73701425 23.44958443 -2.42109821 21.83880467 -4.0625 20.1875 C-4.91972656 19.33542969 -5.77695312 18.48335938 -6.66015625 17.60546875 C-10.03947517 13.84252097 -12.02619485 11.51930116 -11.9375 6.375 C-11 3 -11 3 -9.375 1.0625 C-5.84306842 -0.51757465 -3.85071526 -0.64178588 0 0 Z " fill="#FDA831" transform="translate(442,295)"/>
<path d="M0 0 C17.16 0 34.32 0 52 0 C52 14 52 14 49 20 C44.97342888 23.41633413 40.91920268 23.4536364 35.84765625 23.43359375 C34.68102699 23.44145653 34.68102699 23.44145653 33.49082947 23.44947815 C31.85107615 23.45588187 30.2112768 23.45458274 28.5715332 23.44604492 C26.07354257 23.43753761 23.57784298 23.46631126 21.08007812 23.49804688 C19.48177151 23.49965927 17.88346088 23.49908062 16.28515625 23.49609375 C15.17395164 23.51294472 15.17395164 23.51294472 14.04029846 23.53013611 C8.89160872 23.46154386 5.91279988 22.33022175 2 19 C0 15 0 15 0 0 Z " fill="#213B53" transform="translate(429,386)"/>
<path d="M0 0 C6.8125 3.3125 6.8125 3.3125 8.88208008 4.3371582 C18.20631889 8.77388909 27.14537386 10.50641339 37.4375 10.3125 C38.4488501 10.29832031 39.4602002 10.28414063 40.50219727 10.26953125 C53.38591346 10.00369492 62.42704002 7.75814746 73.7265625 1.6796875 C77 0 77 0 79 0 C79 4.95 79 9.9 79 15 C59.04839693 25.72026433 35.85859854 28.5360322 14 22 C9.20376735 20.24407917 4.63925668 18.15223248 0 16 C0 10.72 0 5.44 0 0 Z " fill="#E2AA73" transform="translate(229,342)"/>
<path d="M0 0 C1.60294922 0.01353516 1.60294922 0.01353516 3.23828125 0.02734375 C4.04652344 0.03894531 4.85476563 0.05054688 5.6875 0.0625 C5.6875 0.3925 5.6875 0.7225 5.6875 1.0625 C4.74390625 1.20945313 3.8003125 1.35640625 2.828125 1.5078125 C-12.28713937 4.14843098 -25.77284652 10.15687748 -35.125 22.875 C-44.34283056 37.02784834 -47.70813569 52.14512349 -44.625 68.76953125 C-41.52103117 79.67222176 -36.06234615 87.46146802 -28.36132812 95.59521484 C-21.69303309 102.72442023 -17.86618293 109.42966585 -16.3125 119.0625 C-12.6825 119.0625 -9.0525 119.0625 -5.3125 119.0625 C-5.3125 119.3925 -5.3125 119.7225 -5.3125 120.0625 C-11.2525 120.0625 -17.1925 120.0625 -23.3125 120.0625 C-24.364375 117.0925 -24.364375 117.0925 -25.4375 114.0625 C-28.2669433 106.76882393 -31.78643442 101.91280683 -36.9296875 96.109375 C-49.79434394 81.46671244 -54.33916012 67.99693293 -53.50341797 48.57373047 C-52.46253599 34.88253857 -44.84789351 22.57772001 -35.0546875 13.3203125 C-24.93304039 4.98653468 -13.16673091 -0.14468935 0 0 Z " fill="#E8C000" transform="translate(452.3125,244.9375)"/>
<path d="M0 0 C3.89373193 0.95635521 5.33111278 1.57254692 7.5625 4.875 C8.25780391 7.93433722 8.12209986 9.82633808 6.6328125 12.6171875 C3.40597326 17.21877482 -0.56685779 21.19286476 -4.5 25.1875 C-5.0062793 25.70328613 -5.51255859 26.21907227 -6.03417969 26.75048828 C-9.63586344 30.32053721 -12.83848938 33.41205123 -17.9375 34.3203125 C-23.20042744 33.38285355 -26.78047582 28.52003394 -30.4375 24.875 C-31.01757812 24.318125 -31.59765625 23.76125 -32.1953125 23.1875 C-34.65407383 20.60228809 -35.44260364 18.84590923 -36.0625 15.3125 C-35.4375 11.875 -35.4375 11.875 -33.375 8.875 C-30.4375 6.875 -30.4375 6.875 -26.9375 6.8125 C-23.2661379 7.92702064 -21.21315358 9.26756785 -18.4375 11.875 C-15.04284645 10.41689378 -12.91498287 8.53733272 -10.375 5.875 C-4.58858843 -0.16685776 -4.58858843 -0.16685776 0 0 Z " fill="#73DA45" transform="translate(90.4375,310.125)"/>
<path d="M0 0 C-3.18858159 1.67419559 -6.45378389 2.95652781 -9.8125 4.25 C-20.30705976 8.64929905 -25.31612043 14.99517898 -30.0390625 25.2578125 C-33.57972668 34.49001162 -32.75774981 43.9757069 -29 53 C-24.54747927 62.50441925 -18.39173518 68.42573804 -8.625 72.3125 C-7.40683594 72.73982422 -7.40683594 72.73982422 -6.1640625 73.17578125 C-4 74 -4 74 -1 76 C-11.04312758 76.66954184 -20.34564042 74.18723516 -28.19140625 67.6953125 C-35.73949613 60.61999715 -41.5258376 53.04247762 -42.23828125 42.4609375 C-42.58611026 29.54383293 -39.82644523 20.20652454 -30.875 10.4375 C-22.33881086 2.15776289 -11.552387 -0.41839631 0 0 Z " fill="#D0D9E0" transform="translate(81,289)"/>
<path d="M0 0 C3.11343101 2.89217721 3.94299456 4.52541438 4.45410156 8.78051758 C4.45347396 10.23534254 4.43120943 11.69027234 4.390625 13.14453125 C4.38496521 13.91431808 4.37930542 14.68410492 4.37347412 15.47721863 C4.35117872 17.92295943 4.30099875 20.3672061 4.25 22.8125 C4.229926 24.47589022 4.2116768 26.13930353 4.1953125 27.80273438 C4.15474605 31.86952072 4.07645349 35.93309889 4 40 C-1.61 40 -7.22 40 -13 40 C-13.09200081 35.10606822 -13.1715799 30.21515358 -13.21972656 25.32104492 C-13.23980207 23.65752987 -13.26706876 21.99408504 -13.30175781 20.33081055 C-13.35045766 17.9352076 -13.37300856 15.54054008 -13.390625 13.14453125 C-13.41127014 12.4047554 -13.43191528 11.66497955 -13.45318604 10.90278625 C-13.45477859 7.211115 -13.12059871 5.187083 -11.10058594 2.0534668 C-7.33959054 -1.6231641 -5.04967717 -1.21888759 0 0 Z " fill="#BC9D00" transform="translate(350,472)"/>
<path d="M0 0 C4.10813716 0.85586191 5.41949906 2.33894166 8 5.625 C8.43857267 8.61691443 8.58901776 11.01514885 8.48828125 13.98828125 C8.48120651 14.78026413 8.47413177 15.57224701 8.46684265 16.38822937 C8.43896244 18.90563389 8.376242 21.42077356 8.3125 23.9375 C8.28740861 25.6490563 8.26459691 27.36064765 8.24414062 29.07226562 C8.19341585 33.25807426 8.09557037 37.43901775 8 41.625 C2.72 41.625 -2.56 41.625 -8 41.625 C-8.11499626 36.58816374 -8.2144576 31.55590361 -8.2746582 26.51879883 C-8.29975714 24.80672755 -8.33384429 23.09476296 -8.37719727 21.38305664 C-8.43805739 18.91786355 -8.46625432 16.45409015 -8.48828125 13.98828125 C-8.51408768 13.22663162 -8.5398941 12.46498199 -8.56648254 11.68025208 C-8.56859317 7.65427466 -8.17379302 5.84631129 -5.65698242 2.64135742 C-3 0.625 -3 0.625 0 0 Z " fill="#BB9B00" transform="translate(191,470.375)"/>
<path d="M0 0 C1.8871875 0.0309375 1.8871875 0.0309375 3.8125 0.0625 C2.8225 0.5884375 2.8225 0.5884375 1.8125 1.125 C-0.59853961 3.02807142 -0.59853961 3.02807142 -0.4375 6.75 C-0.31375 8.3896875 -0.31375 8.3896875 -0.1875 10.0625 C0.39064453 10.33650635 0.96878906 10.6105127 1.56445312 10.89282227 C3.78326335 12.04728793 5.7438144 13.32939369 7.78125 14.77734375 C8.51730469 15.29876953 9.25335938 15.82019531 10.01171875 16.35742188 C10.77097656 16.89947266 11.53023438 17.44152344 12.3125 18 C13.07175781 18.53818359 13.83101563 19.07636719 14.61328125 19.63085938 C18.04503551 22.06794581 21.45249105 24.52704174 24.8125 27.0625 C24.02817005 33.72378108 21.54541536 39.83859213 19.25195312 46.09960938 C17.1825145 52.02514481 16.4605912 56.78572666 16.8125 63.0625 C13.4375 63.1875 13.4375 63.1875 9.8125 63.0625 C9.1525 62.4025 8.4925 61.7425 7.8125 61.0625 C8.05976823 53.28551548 10.42467382 46.33405054 12.875 39 C13.25205078 37.84822266 13.62910156 36.69644531 14.01757812 35.50976562 C14.94145712 32.69134995 15.87323777 29.87581858 16.8125 27.0625 C16.05114746 26.77802002 15.28979492 26.49354004 14.50537109 26.20043945 C11.05249282 24.74134012 8.33856489 22.57323123 5.4375 20.25 C1.89143613 17.44078057 -1.61013251 14.73438192 -5.4375 12.3125 C-8.1875 10.0625 -8.1875 10.0625 -9.25 6.9375 C-9.1875 4.0625 -9.1875 4.0625 -7.1875 1.0625 C-4.43671116 0.14557039 -2.82801087 -0.04636083 0 0 Z " fill="#E8C100" transform="translate(345.1875,59.9375)"/>
<path d="M0 0 C1.21236328 0.04060547 1.21236328 0.04060547 2.44921875 0.08203125 C3.06410156 0.11683594 3.67898437 0.15164062 4.3125 0.1875 C3.82136719 0.60644531 3.33023438 1.02539062 2.82421875 1.45703125 C0.47037765 4.15147985 1.11816281 6.7542097 1.3125 10.1875 C1.89064453 10.46223145 2.46878906 10.73696289 3.06445312 11.02001953 C6.88634867 13.00484843 10.30289761 15.57777301 13.8125 18.0625 C14.95138672 18.85720703 14.95138672 18.85720703 16.11328125 19.66796875 C19.81122235 22.27789916 23.25256306 24.81831412 26.3125 28.1875 C25.77103406 29.93174799 25.22929676 31.67591214 24.6862793 33.41967773 C24.22667024 34.89660716 23.76851226 36.37398889 23.31176758 37.85180664 C22.13183606 41.64998648 20.88514474 45.39576417 19.5 49.125 C18.17989925 52.95255468 18.09512518 56.41390342 18.3046875 60.4375 C18.30855469 61.30375 18.30855469 61.30375 18.3125 62.1875 C17.9825 62.5175 17.6525 62.8475 17.3125 63.1875 C10.5925 62.4675 10.5925 62.4675 9.3125 61.1875 C9.01819288 56.19008771 9.65717785 52.31197679 11.28125 47.59765625 C11.68730469 46.40205078 12.09335938 45.20644531 12.51171875 43.97460938 C12.94097656 42.74548828 13.37023437 41.51636719 13.8125 40.25 C14.24706913 38.98145351 14.68067195 37.71257556 15.11328125 36.44335938 C16.17024235 33.35468417 17.23688611 30.26971863 18.3125 27.1875 C17.44419556 26.77540283 17.44419556 26.77540283 16.55834961 26.35498047 C14.35525005 25.20972315 12.40413053 23.94142881 10.37890625 22.5078125 C9.64736328 21.99089844 8.91582031 21.47398438 8.16210938 20.94140625 C7.40736328 20.40386719 6.65261719 19.86632812 5.875 19.3125 C5.12412109 18.78269531 4.37324219 18.25289062 3.59960938 17.70703125 C-5.05902967 11.56906901 -5.05902967 11.56906901 -7.6875 9.1875 C-8.1875 6.125 -8.1875 6.125 -7.6875 3.1875 C-5.40523497 0.10608223 -3.74232088 -0.1627096 0 0 Z " fill="#E8C100" transform="translate(226.6875,31.8125)"/>
<path d="M0 0 C-0.495 0.37125 -0.99 0.7425 -1.5 1.125 C-3.21103306 2.97228008 -3.21103306 2.97228008 -3.5625 5.7421875 C-2.81890047 10.04886813 -1.1405727 11.01883475 2.296875 13.5 C3.02390625 13.995 3.7509375 14.49 4.5 15 C5.90625 16 7.3125 17 8.71875 18 C9.41871094 18.48726562 10.11867188 18.97453125 10.83984375 19.4765625 C14.28502412 21.90625571 17.64238186 24.45128314 21 27 C20.29558833 34.20285739 17.8481765 40.6497081 15.43945312 47.4375 C15.12814453 48.33726563 14.81683594 49.23703125 14.49609375 50.1640625 C14.20919678 50.97311035 13.9222998 51.7821582 13.62670898 52.61572266 C12.95035469 55.18887264 12.89610744 57.34979027 13 60 C13 60.99 13 61.98 13 63 C7.66036113 63.47463457 7.66036113 63.47463457 5 61.5625 C2.38183723 54.85345791 7.50216365 44.95702382 9.625 38.4375 C9.94984375 37.42880859 10.2746875 36.42011719 10.609375 35.38085938 C11.40264698 32.91938308 12.19958143 30.4591597 13 28 C12.45585449 27.60208252 11.91170898 27.20416504 11.35107422 26.79418945 C8.85755841 24.96898678 6.36626808 23.14076931 3.875 21.3125 C2.59109375 20.37374023 2.59109375 20.37374023 1.28125 19.41601562 C-1.15687007 17.62493511 -3.58183393 15.81790656 -6 14 C-6.64114746 13.52522217 -7.28229492 13.05044434 -7.94287109 12.5612793 C-9.59375 11.28125 -9.59375 11.28125 -12 9 C-12.375 5.1875 -12.375 5.1875 -12 2 C-8.09971775 -0.60018816 -4.52565431 -0.15085514 0 0 Z " fill="#E8C100" transform="translate(114,60)"/>
<path d="M0 0 C1.34215465 4.02646395 0.27560797 5.86025815 -1.08984375 9.85546875 C-1.31321915 10.51710526 -1.53659454 11.17874176 -1.76673889 11.86042786 C-2.48192782 13.97241683 -3.20952113 16.07988957 -3.9375 18.1875 C-4.42465126 19.61886074 -4.91098948 21.05049847 -5.39648438 22.48242188 C-6.58823968 25.99154402 -7.79115601 29.49672272 -9 33 C-11.64 33 -14.28 33 -17 33 C-15.55478418 25.77392089 -13.43169779 18.95148391 -11 12 C-10.64421875 10.95199219 -10.2884375 9.90398438 -9.921875 8.82421875 C-9.57640625 7.83035156 -9.2309375 6.83648437 -8.875 5.8125 C-8.56304687 4.91144531 -8.25109375 4.01039062 -7.9296875 3.08203125 C-6.25143745 -0.67640268 -3.72305935 -0.09797525 0 0 Z " fill="#E8C000" transform="translate(271,0)"/>
<path d="M0 0 C1.11375 0.3403125 1.11375 0.3403125 2.25 0.6875 C-0.42243814 11.5554151 -4.15643851 22.09851147 -7.75 32.6875 C-10.39 32.6875 -13.03 32.6875 -15.75 32.6875 C-14.35007248 25.90963308 -12.52955871 19.38761884 -10.375 12.8125 C-10.08367187 11.87664063 -9.79234375 10.94078125 -9.4921875 9.9765625 C-9.19828125 9.079375 -8.904375 8.1821875 -8.6015625 7.2578125 C-8.34197754 6.45102051 -8.08239258 5.64422852 -7.81494141 4.81298828 C-6.01060079 1.21175274 -4.05236212 -0.4604957 0 0 Z " fill="#E7C000" transform="translate(152.75,28.3125)"/>
<path d="M0 0 C0.763125 0.20625 1.52625 0.4125 2.3125 0.625 C0.8716436 7.89753309 -1.32129174 14.7112366 -3.8125 21.6875 C-4.18503906 22.74388672 -4.55757813 23.80027344 -4.94140625 24.88867188 C-5.85215377 27.46912317 -6.76759705 30.04780144 -7.6875 32.625 C-9.9975 32.625 -12.3075 32.625 -14.6875 32.625 C-14.13024332 25.583302 -12.15249494 19.39256628 -9.8125 12.75 C-9.46058594 11.70585938 -9.10867188 10.66171875 -8.74609375 9.5859375 C-8.39933594 8.59078125 -8.05257813 7.595625 -7.6953125 6.5703125 C-7.38223145 5.66812988 -7.06915039 4.76594727 -6.74658203 3.83642578 C-5.15214169 0.50714025 -3.67816199 -0.51323191 0 0 Z " fill="#E7C000" transform="translate(386.6875,28.375)"/>
<path d="M0 0 C3.68024078 1.03703994 6.46526748 2.87870917 9.50390625 5.15234375 C10.32697266 5.76400391 11.15003906 6.37566406 11.99804688 7.00585938 C12.84431641 7.64330078 13.69058594 8.28074219 14.5625 8.9375 C15.83770508 9.88786133 15.83770508 9.88786133 17.13867188 10.85742188 C19.42980467 12.56633739 21.71588801 14.28171827 24 16 C24.75015381 16.52150635 25.50030762 17.0430127 26.27319336 17.58032227 C26.84303955 18.04881592 27.41288574 18.51730957 28 19 C28 19.66 28 20.32 28 21 C23.00652992 21.72008261 20.49945966 21.00116021 16.3359375 18.11328125 C14.66939161 16.86337183 13.01597633 15.59579477 11.375 14.3125 C10.54226562 13.68666016 9.70953125 13.06082031 8.8515625 12.41601562 C4.60191558 9.18479524 0.65070732 5.89657128 -3 2 C-2.01 1.34 -1.02 0.68 0 0 Z " fill="#E8C000" transform="translate(154,102)"/>
<path d="M0 0 C3.76964282 0.55085293 6.1289947 1.4997249 9.1796875 3.765625 C9.94410156 4.32636719 10.70851563 4.88710937 11.49609375 5.46484375 C12.28113281 6.05394531 13.06617188 6.64304687 13.875 7.25 C15.434836 8.40112275 16.99473103 9.55216552 18.5546875 10.703125 C19.30073242 11.25806641 20.04677734 11.81300781 20.81542969 12.38476562 C23.85004478 14.62850875 26.92180341 16.81653255 30 19 C29.34 19.66 28.68 20.32 28 21 C22.28711757 20.8478409 18.88330481 18.94589181 14.625 15.375 C13.79125854 14.70428467 13.79125854 14.70428467 12.94067383 14.02001953 C11.81931245 13.11756677 10.70211727 12.20991032 9.58935547 11.296875 C7.32180067 9.44660601 5.00521168 7.66179826 2.6875 5.875 C1.45804313 4.91703899 0.22874903 3.95886875 -1 3 C-0.67 2.01 -0.34 1.02 0 0 Z " fill="#E9C100" transform="translate(270,74)"/>
<path d="M0 0 C3.29721884 0.6181997 5.39238773 1.78308678 8.08203125 3.765625 C9.23348633 4.60673828 9.23348633 4.60673828 10.40820312 5.46484375 C11.20162109 6.05394531 11.99503906 6.64304687 12.8125 7.25 C14.38142953 8.40115192 15.95043886 9.55219508 17.51953125 10.703125 C18.27186035 11.25806641 19.02418945 11.81300781 19.79931641 12.38476562 C22.84498686 14.62019448 25.91992398 16.81228246 29 19 C28.67 19.66 28.34 20.32 28 21 C22.43744831 21.61525193 19.48410813 19.72912046 15.25 16.4375 C14.02378123 15.52167501 12.79721603 14.60631369 11.5703125 13.69140625 C10.96993164 13.23652832 10.36955078 12.78165039 9.75097656 12.31298828 C7.25147344 10.43870945 4.69173954 8.65562985 2.125 6.875 C1.32320313 6.31554687 0.52140625 5.75609375 -0.3046875 5.1796875 C-1.14386719 4.59574219 -1.14386719 4.59574219 -2 4 C-1.34 2.68 -0.68 1.36 0 0 Z " fill="#E9C100" transform="translate(388,102)"/>
</svg>
