<svg width="30" height="30" viewBox="0 0 30 30" fill="none" xmlns="http://www.w3.org/2000/svg">
<path d="M29.6991 14.9995H27.5991C27.4342 14.9995 27.2992 15.1345 27.2992 15.2995V27.2992H2.69992V2.69992H14.6995C14.8645 2.69992 14.9995 2.56492 14.9995 2.39993V0.299991C14.9995 0.134996 14.8645 0 14.6995 0H1.19996C0.536233 0 0 0.536233 0 1.19996V28.7991C0 29.4628 0.536233 29.9991 1.19996 29.9991H28.7991C29.4628 29.9991 29.9991 29.4628 29.9991 28.7991V15.2995C29.9991 15.1345 29.8641 14.9995 29.6991 14.9995Z" fill="#003545"/>
<path d="M9.14596 15.8583L9.07472 20.3169C9.07097 20.6506 9.34096 20.9244 9.6747 20.9244H9.6897L14.1146 20.8156C14.1896 20.8119 14.2646 20.7819 14.3171 20.7294L29.9128 5.16734C30.0291 5.05109 30.0291 4.85985 29.9128 4.7436L25.2517 0.0862475C25.1917 0.0262493 25.1167 0 25.038 0C24.9592 0 24.8842 0.0299992 24.8242 0.0862475L9.23221 15.6483C9.17805 15.7049 9.14725 15.7799 9.14596 15.8583ZM11.5271 16.7432L25.038 3.2624L26.7329 4.9536L13.2146 18.4419L11.5009 18.4832L11.5271 16.7432Z" fill="#003545"/>
</svg>
