<?xml version="1.0" encoding="UTF-8"?>
<svg version="1.1" xmlns="http://www.w3.org/2000/svg" width="512" height="512">
<path d="M0 0 C22.44311006 18.92615525 38.41506153 44.70509293 42.11816406 74.25195312 C42.92367833 84.07260651 42.54264767 94.01764777 42.33203125 103.859375 C43.00862793 103.72732666 43.68522461 103.59527832 44.38232422 103.45922852 C50.73101597 102.25694983 57.02289462 101.36957292 63.45703125 100.796875 C64.2665625 100.71888672 65.07609375 100.64089844 65.91015625 100.56054688 C79.84856136 99.27113784 93.78085161 98.65406574 107.77563477 98.61914062 C110.18863478 98.60919319 112.60086137 98.57789858 115.01367188 98.546875 C116.56379716 98.54036334 118.11392834 98.53510572 119.6640625 98.53125 C120.37754349 98.5189032 121.09102448 98.5065564 121.8261261 98.49383545 C124.90420114 98.5077146 127.03030306 98.69295052 129.7487793 100.19238281 C132.56198836 103.15438612 132.45495284 106.09275692 132.44555664 109.97338867 C132.44548111 111.01424118 132.44540558 112.05509369 132.44532776 113.12748718 C132.43758583 114.81041618 132.43758583 114.81041618 132.4296875 116.52734375 C132.42756508 118.25226799 132.42756508 118.25226799 132.42539978 120.01203918 C132.41979554 123.69034408 132.40724229 127.36858845 132.39453125 131.046875 C132.3895168 133.53841058 132.3849538 136.02994711 132.38085938 138.52148438 C132.36982472 144.63413529 132.35308243 150.74675082 132.33203125 156.859375 C133.43716064 156.84366455 134.54229004 156.8279541 135.6809082 156.81176758 C139.77897866 156.75748943 143.87701732 156.72303276 147.9753418 156.69458008 C149.74948468 156.67948859 151.52359023 156.65901309 153.29760742 156.63305664 C155.84693612 156.59668859 158.39577184 156.57965262 160.9453125 156.56640625 C161.73915848 156.55092239 162.53300446 156.53543854 163.35090637 156.51948547 C168.84741408 156.51780364 168.84741408 156.51780364 171.04182774 158.06448609 C172.76403944 160.46037067 172.70902708 161.97826897 172.71234798 164.91817379 C172.72078793 165.97018221 172.72922787 167.02219063 172.73792356 168.10607809 C172.73191352 169.26578652 172.72590347 170.42549496 172.7197113 171.62034607 C172.72778961 173.46368148 172.72778961 173.46368148 172.73603112 175.34425598 C172.74789198 178.76179729 172.74622547 182.17885303 172.7388643 185.59637558 C172.73414739 189.27948365 172.74662934 192.96253865 172.75688171 196.64562988 C172.77410424 203.86361996 172.77490259 211.08152312 172.76966881 218.29952841 C172.76563225 224.16470684 172.76706454 230.02985951 172.77241707 235.8950367 C172.77316549 236.72885907 172.77391391 237.56268144 172.77468501 238.42177116 C172.77621644 240.11552064 172.77775479 241.80927011 172.77929998 243.50301958 C172.79303754 259.39753773 172.78757855 275.2920067 172.77611477 291.18652374 C172.76618126 305.73659746 172.77912284 320.28654404 172.80304896 334.83659815 C172.82741519 349.76644954 172.83705393 364.69624164 172.83039623 379.62611252 C172.82689846 388.01217188 172.82917271 396.39813342 172.84664726 404.78417778 C172.86133835 411.92318062 172.86204542 419.06201678 172.84457635 426.20101624 C172.83603823 429.84509156 172.8339847 433.48886874 172.84922791 437.13292885 C172.86553141 441.07924691 172.8509867 445.02510027 172.83323669 448.97142029 C172.8428417 450.128898 172.85244671 451.28637571 172.86234277 452.47892851 C172.85252848 453.53354467 172.84271419 454.58816084 172.8326025 455.67473507 C172.83249516 456.58595653 172.83238783 457.49717798 172.83227724 458.43601221 C172.17188332 461.63518637 170.85452449 462.85086689 168.33203125 464.859375 C165.85253906 465.09936523 165.85253906 465.09936523 163.03515625 464.73046875 C161.97103516 464.60269043 160.90691406 464.47491211 159.81054688 464.34326172 C158.08868164 464.10373779 158.08868164 464.10373779 156.33203125 463.859375 C154.55602539 463.64112061 154.55602539 463.64112061 152.74414062 463.41845703 C149.53489269 463.02253806 146.32843898 462.60940697 143.12240601 462.18838501 C132.60529813 460.81465966 122.09205425 459.54411695 111.51953125 458.671875 C110.65875977 458.6004126 109.79798828 458.5289502 108.91113281 458.45532227 C106.0525114 458.23375494 103.19346073 458.04140088 100.33203125 457.859375 C99.67238373 457.81700714 99.01273621 457.77463928 98.33309937 457.73098755 C85.6419248 456.93489624 72.98425778 456.65656783 60.26953125 456.671875 C59.33281586 456.67247925 58.39610046 456.6730835 57.43099976 456.67370605 C19.07904795 456.74054757 -34.9433914 457.70004245 -64.85546875 485.796875 C-67.80240361 487.95796056 -69.80687931 488.77786773 -73.49609375 488.53515625 C-77.24817553 487.36769196 -79.79288636 484.683492 -82.7265625 482.1484375 C-110.27731811 460.70787603 -154.04026199 456.80053621 -187.53515625 456.65625 C-188.63587463 456.64923569 -189.73659302 456.64222137 -190.8706665 456.63499451 C-194.42814254 456.61752713 -197.98545132 456.61113612 -201.54296875 456.609375 C-202.76626892 456.60870026 -203.98956909 456.60802551 -205.24993896 456.60733032 C-235.15642281 456.63342928 -264.34210888 458.93391858 -293.92236328 463.2331543 C-294.6669278 463.34067017 -295.41149231 463.44818604 -296.17861938 463.55895996 C-298.18420448 463.850725 -300.18882288 464.14911366 -302.19335938 464.44799805 C-308.58073014 465.20423187 -308.58073014 465.20423187 -311.66796875 464.859375 C-314.20388085 462.85321811 -315.50633183 461.64239958 -316.16821474 458.43601221 C-316.16832208 457.52479075 -316.16842941 456.6135693 -316.16854 455.67473507 C-316.17835429 454.6201189 -316.18816858 453.56550274 -316.19828027 452.47892851 C-316.18867527 451.32145079 -316.17907026 450.16397308 -316.16917419 448.97142029 C-316.17470859 447.74097003 -316.18024299 446.51051976 -316.18594509 445.24278313 C-316.19721874 441.82542091 -316.19050301 438.40894466 -316.17620838 434.99164975 C-316.16511812 431.30721506 -316.17703465 427.62284587 -316.18605042 423.93841553 C-316.19999782 416.72019257 -316.1924159 409.50214431 -316.17737483 402.28392964 C-316.16053356 393.8827683 -316.16372257 385.48165072 -316.16746891 377.08047772 C-316.17335015 362.09406241 -316.15916512 347.10773108 -316.13452148 332.12133789 C-316.11059564 317.56987358 -316.10351855 303.01852146 -316.11401367 288.46704102 C-316.12541503 272.63063604 -316.12736297 256.79428298 -316.11291558 240.95787865 C-316.11138969 239.27026467 -316.10986934 237.58265069 -316.10835457 235.8950367 C-316.10759675 235.06464159 -316.10683894 234.23424649 -316.10605816 233.3786879 C-316.10130961 227.51854307 -316.10317078 221.65842138 -316.10741997 215.7982769 C-316.11233933 208.66038081 -316.10639488 201.52259091 -316.08652567 194.38471919 C-316.07663329 190.74081419 -316.07156938 187.09707114 -316.07941818 183.45315742 C-316.08774055 179.50878341 -316.07293468 175.56469569 -316.0556488 171.62034607 C-316.06165885 170.46063764 -316.06766889 169.3009292 -316.07386106 168.10607809 C-316.06542112 167.05406967 -316.05698118 166.00206125 -316.04828548 164.91817379 C-316.04725635 164.00711469 -316.04622723 163.09605558 -316.04516691 162.15738863 C-315.66796875 159.859375 -315.66796875 159.859375 -314.37776524 158.06448609 C-311.38578824 155.95565929 -307.80714101 156.49763423 -304.28125 156.56640625 C-303.05573677 156.57277351 -303.05573677 156.57277351 -301.8054657 156.57926941 C-299.19679768 156.59605809 -296.58890313 156.63370981 -293.98046875 156.671875 C-292.2115997 156.68692163 -290.44271854 156.70061008 -288.67382812 156.71289062 C-284.33824379 156.74596214 -280.00323739 156.7977451 -275.66796875 156.859375 C-275.67463058 156.2190181 -275.68129242 155.57866119 -275.68815613 154.91889954 C-275.75454667 148.25172956 -275.79978495 141.58465356 -275.83276367 134.91723633 C-275.84784636 132.4292418 -275.86831529 129.94127383 -275.89428711 127.45336914 C-275.93069212 123.87639812 -275.94770059 120.29977878 -275.9609375 116.72265625 C-275.97642136 115.61102615 -275.99190521 114.49939606 -276.00785828 113.3540802 C-276.00808487 112.31337875 -276.00831146 111.27267731 -276.00854492 110.20043945 C-276.01520676 109.2877681 -276.02186859 108.37509674 -276.0287323 107.43476868 C-275.58930526 104.29781757 -274.50761172 102.41592929 -272.66796875 99.859375 C-269.67965245 98.36521685 -266.9497422 98.71042138 -263.6171875 98.69140625 C-262.54049301 98.68519005 -262.54049301 98.68519005 -261.44204712 98.67884827 C-259.07980357 98.6690885 -256.71772957 98.66920749 -254.35546875 98.671875 C-253.14605118 98.67178436 -253.14605118 98.67178436 -251.91220093 98.67169189 C-201.06856425 98.72584317 -201.06856425 98.72584317 -185.66796875 103.859375 C-185.68891602 103.14620117 -185.70986328 102.43302734 -185.73144531 101.69824219 C-186.56202362 68.94822393 -180.49496942 38.64807104 -157.66796875 13.859375 C-157.1884375 13.33746582 -156.70890625 12.81555664 -156.21484375 12.27783203 C-141.17868263 -3.90217846 -122.95332003 -15.19424115 -101.66796875 -21.140625 C-100.60449219 -21.4603125 -99.54101562 -21.78 -98.4453125 -22.109375 C-64.72622269 -30.6278819 -26.81527906 -21.80507711 0 0 Z " fill="#FECF8B" transform="translate(327.66796875,24.140625)"/>
<path d="M0 0 C12.54 0 25.08 0 38 0 C38.33 81.51 38.66 163.02 39 247 C56.82 247.33 74.64 247.66 93 248 C102.38506551 248.51933169 111.66606757 249.05055103 121 250 C122.03608398 250.10038574 123.07216797 250.20077148 124.13964844 250.30419922 C163.01120218 254.15810059 204.97600788 262.98400526 238 285 C243.09523033 285.61930976 245.59136291 284.36043821 249.75 281.5 C279.33824444 262.24163372 316.63624219 255.34656823 351.125 251.125 C351.96320282 251.02136139 352.80140564 250.91772278 353.66500854 250.8109436 C383.30244783 247.21039853 413.19305288 247.58444994 443 247 C443.33 165.49 443.66 83.98 444 0 C456.54 0 469.08 0 482 0 C485.34907645 3.34907645 485.37532044 3.63571985 485.38031673 8.05879879 C485.38875668 9.11080721 485.39719662 10.16281563 485.40589231 11.24670309 C485.39988227 12.40641152 485.39387222 13.56611996 485.38768005 14.76097107 C485.39575836 16.60430648 485.39575836 16.60430648 485.40399987 18.48488098 C485.41586073 21.90242229 485.41419422 25.31947803 485.40683305 28.73700058 C485.40211614 32.42010865 485.41459809 36.10316365 485.42485046 39.78625488 C485.44207299 47.00424496 485.44287134 54.22214812 485.43763756 61.44015341 C485.433601 67.30533184 485.43503329 73.17048451 485.44038582 79.0356617 C485.44113424 79.86948407 485.44188266 80.70330644 485.44265376 81.56239616 C485.44418519 83.25614564 485.44572354 84.94989511 485.44726873 86.64364458 C485.46100629 102.53816273 485.4555473 118.4326317 485.44408352 134.32714874 C485.43415001 148.87722246 485.44709159 163.42716904 485.47101771 177.97722315 C485.49538394 192.90707454 485.50502268 207.83686664 485.49836498 222.76673752 C485.49486721 231.15279688 485.49714146 239.53875842 485.51461601 247.92480278 C485.5293071 255.06380562 485.53001417 262.20264178 485.5125451 269.34164124 C485.50400698 272.98571656 485.50195345 276.62949374 485.51719666 280.27355385 C485.53350016 284.21987191 485.51895545 288.16572527 485.50120544 292.11204529 C485.51081045 293.269523 485.52041546 294.42700071 485.53031152 295.61955351 C485.52049723 296.67416967 485.51068294 297.72878584 485.50057125 298.81536007 C485.50046391 299.72658153 485.50035658 300.63780298 485.50024599 301.57663721 C484.83985207 304.77581137 483.52249324 305.99149189 481 308 C478.52050781 308.23999023 478.52050781 308.23999023 475.703125 307.87109375 C474.63900391 307.74331543 473.57488281 307.61553711 472.47851562 307.48388672 C470.75665039 307.24436279 470.75665039 307.24436279 469 307 C467.22399414 306.78174561 467.22399414 306.78174561 465.41210938 306.55908203 C462.20286144 306.16316306 458.99640773 305.75003197 455.79037476 305.32901001 C445.27326688 303.95528466 434.760023 302.68474195 424.1875 301.8125 C423.32672852 301.7410376 422.46595703 301.6695752 421.57910156 301.59594727 C418.72048015 301.37437994 415.86142948 301.18202588 413 301 C412.34035248 300.95763214 411.68070496 300.91526428 411.00106812 300.87161255 C398.30989355 300.07552124 385.65222653 299.79719283 372.9375 299.8125 C372.00078461 299.81310425 371.06406921 299.8137085 370.09896851 299.81433105 C331.7470167 299.88117257 277.72457735 300.84066745 247.8125 328.9375 C244.86556514 331.09858556 242.86108944 331.91849273 239.171875 331.67578125 C235.41979322 330.50831696 232.87508239 327.824117 229.94140625 325.2890625 C202.39065064 303.84850103 158.62770676 299.94116121 125.1328125 299.796875 C124.03209412 299.78986069 122.93137573 299.78284637 121.79730225 299.77561951 C118.23982621 299.75815213 114.68251743 299.75176112 111.125 299.75 C109.90169983 299.74932526 108.67839966 299.74865051 107.41802979 299.74795532 C77.51154594 299.77405428 48.32585987 302.07454358 18.74560547 306.3737793 C18.00104095 306.48129517 17.25647644 306.58881104 16.48934937 306.69958496 C14.48376427 306.99135 12.47914587 307.28973866 10.47460938 307.58862305 C4.08723861 308.34485687 4.08723861 308.34485687 1 308 C-1.5359121 305.99384311 -2.83836308 304.78302458 -3.50024599 301.57663721 C-3.50035333 300.66541575 -3.50046066 299.7541943 -3.50057125 298.81536007 C-3.51038554 297.7607439 -3.52019983 296.70612774 -3.53031152 295.61955351 C-3.52070652 294.46207579 -3.51110151 293.30459808 -3.50120544 292.11204529 C-3.50673984 290.88159503 -3.51227424 289.65114476 -3.51797634 288.38340813 C-3.52924999 284.96604591 -3.52253426 281.54956966 -3.50823963 278.13227475 C-3.49714937 274.44784006 -3.5090659 270.76347087 -3.51808167 267.07904053 C-3.53202907 259.86081757 -3.52444715 252.64276931 -3.50940608 245.42455464 C-3.49256481 237.0233933 -3.49575382 228.62227572 -3.49950016 220.22110272 C-3.5053814 205.23468741 -3.49119637 190.24835608 -3.46655273 175.26196289 C-3.44262689 160.71049858 -3.4355498 146.15914646 -3.44604492 131.60766602 C-3.45744628 115.77126104 -3.45939422 99.93490798 -3.44494683 84.09850365 C-3.44342094 82.41088967 -3.44190059 80.72327569 -3.44038582 79.0356617 C-3.439628 78.20526659 -3.43887019 77.37487149 -3.43808941 76.5193129 C-3.43334086 70.65916807 -3.43520203 64.79904638 -3.43945122 58.9389019 C-3.44437058 51.80100581 -3.43842613 44.66321591 -3.41855692 37.52534419 C-3.40866454 33.88143919 -3.40360063 30.23769614 -3.41144943 26.59378242 C-3.4197718 22.64940841 -3.40496593 18.70532069 -3.38768005 14.76097107 C-3.3936901 13.60126264 -3.39970014 12.4415542 -3.40589231 11.24670309 C-3.39745237 10.19469467 -3.38901243 9.14268625 -3.38031673 8.05879879 C-3.3792876 7.14773969 -3.37825848 6.23668058 -3.37719816 5.29801363 C-3 3 -3 3 0 0 Z " fill="#A04B86" transform="translate(15,181)"/>
<path d="M0 0 C23.05654418 19.44346098 39.47140125 46.351911 42.33203125 76.859375 C43.44412166 93.50284969 42.44200634 108.94910257 37.33203125 124.859375 C36.790625 126.55900391 36.790625 126.55900391 36.23828125 128.29296875 C32.47380484 138.41672138 25.73974816 147.0791827 19.51953125 155.80859375 C10.85720394 168.03131621 4.18317318 179.97917566 -0.04296875 194.421875 C-0.28184814 195.23551514 -0.52072754 196.04915527 -0.7668457 196.88745117 C-2.86452533 204.58653518 -3.58737916 211.75495306 -4.66796875 219.859375 C-48.88796875 219.859375 -93.10796875 219.859375 -138.66796875 219.859375 C-139.65796875 212.434375 -139.65796875 212.434375 -140.66796875 204.859375 C-141.46054149 201.30794238 -142.27241015 197.89796989 -143.29296875 194.421875 C-143.55311768 193.53282471 -143.8132666 192.64377441 -144.08129883 191.7277832 C-148.90634956 175.9682141 -157.54318737 163.22885889 -167.03857422 149.94140625 C-173.36770758 141.02130547 -178.37146703 132.35132628 -181.66796875 121.859375 C-181.98121094 120.88121826 -181.98121094 120.88121826 -182.30078125 119.88330078 C-190.85928605 91.87180207 -186.04112394 60.21272117 -172.49389648 34.61352539 C-168.31283363 27.02341236 -163.55236081 20.249457 -157.66796875 13.859375 C-157.1884375 13.33746582 -156.70890625 12.81555664 -156.21484375 12.27783203 C-141.17868263 -3.90217846 -122.95332003 -15.19424115 -101.66796875 -21.140625 C-100.60449219 -21.4603125 -99.54101562 -21.78 -98.4453125 -22.109375 C-64.72622269 -30.6278819 -26.81527906 -21.80507711 0 0 Z " fill="#FECB00" transform="translate(327.66796875,24.140625)"/>
<path d="M0 0 C2.24566003 -0.0171905 4.48983863 -0.06107399 6.73510742 -0.10522461 C8.16803932 -0.11535399 9.60098372 -0.12386933 11.03393555 -0.13061523 C12.98650269 -0.15248901 12.98650269 -0.15248901 14.97851562 -0.17480469 C19.00120375 0.36948959 20.61230166 1.45622398 23.4519043 4.29516602 C25.0377733 7.46690401 24.83056875 10.93030424 25.0144043 14.42016602 C25.05758789 15.17426758 25.10077148 15.92836914 25.14526367 16.70532227 C25.25138749 18.56838489 25.3521543 20.43175126 25.4519043 22.29516602 C26.9369043 22.79016602 26.9369043 22.79016602 28.4519043 23.29516602 C28.97139648 22.7524707 29.49088867 22.20977539 30.02612305 21.65063477 C37.81683152 13.65831831 37.81683152 13.65831831 41.4519043 12.29516602 C48.75568861 12.3648734 51.96809726 14.71672942 57.0144043 19.79516602 C57.6640918 20.43010986 58.3137793 21.06505371 58.9831543 21.71923828 C71.23847328 33.86205245 71.23847328 33.86205245 71.7644043 39.85766602 C69.61958031 45.47506216 65.91886053 49.55798101 62.0769043 54.10766602 C60.1537423 56.24236649 60.1537423 56.24236649 60.4519043 59.29516602 C62.20567383 59.22555664 62.20567383 59.22555664 63.99487305 59.15454102 C65.5430245 59.11701007 67.09120369 59.08061133 68.6394043 59.04516602 C69.40833008 59.01165039 70.17725586 58.97813477 70.96948242 58.94360352 C74.99443437 58.87450563 76.94999154 58.97761598 80.44018555 61.18579102 C84.97668952 65.94251363 83.63790247 72.27319517 83.63720703 78.47094727 C83.63938889 80.65474059 83.65753566 82.83802492 83.67651367 85.02172852 C83.67944866 86.41235179 83.68143275 87.80297746 83.68237305 89.19360352 C83.68648193 90.45865723 83.69059082 91.72371094 83.69482422 93.02709961 C83.46532448 96.1146207 83.1911054 97.7777361 81.4519043 100.29516602 C76.89136287 103.30620598 72.89926448 103.68380172 67.5769043 103.48266602 C66.88854492 103.46913086 66.20018555 103.4555957 65.4909668 103.44165039 C63.81093429 103.40664971 62.1313108 103.35285555 60.4519043 103.29516602 C60.95947398 107.30085105 61.82752681 109.11217856 64.8269043 111.79516602 C68.67069558 115.46495852 71.26983727 117.97381146 71.7019043 123.48266602 C70.52692716 129.2700534 65.44594721 133.27793562 61.4519043 137.29516602 C60.46051176 138.31159871 59.46963813 139.32853777 58.47924805 140.34594727 C49.86052794 149.12515971 49.86052794 149.12515971 44.8269043 149.73266602 C39.46528541 149.68392403 36.26917421 146.78864964 32.4519043 143.29516602 C31.7094043 142.51141602 30.9669043 141.72766602 30.2019043 140.92016602 C28.36139558 138.84153195 28.36139558 138.84153195 24.4519043 139.29516602 C24.50411133 140.8149707 24.50411133 140.8149707 24.55737305 142.36547852 C24.58553025 143.71702431 24.61282833 145.0685882 24.6394043 146.42016602 C24.66454102 147.08532227 24.68967773 147.75047852 24.71557617 148.43579102 C24.7850468 153.15979347 24.05893107 156.34654568 21.4519043 160.29516602 C16.54952522 163.62852808 10.28689633 162.62889965 4.60742188 162.61083984 C2.52445067 162.60768125 0.44290309 162.6311512 -1.63989258 162.65649414 C-2.95924805 162.65713867 -4.27860352 162.6577832 -5.63793945 162.65844727 C-6.84313232 162.66142822 -8.0483252 162.66440918 -9.29003906 162.66748047 C-12.84123105 162.26166797 -14.70977607 161.42720986 -17.5480957 159.29516602 C-19.9617146 155.22670063 -19.78754072 151.08247543 -19.6730957 146.48266602 C-19.66407227 145.78979492 -19.65504883 145.09692383 -19.64575195 144.38305664 C-19.62235727 142.68694206 -19.58649211 140.99100731 -19.5480957 139.29516602 C-24.27973189 139.7640669 -26.42499115 141.6806019 -29.8605957 144.85766602 C-36.06301793 150.0235872 -36.06301793 150.0235872 -39.6105957 150.42016602 C-45.51871847 149.63962134 -49.59775756 144.32069361 -53.5480957 140.29516602 C-54.54943926 139.32376733 -55.55340692 138.35506725 -56.55981445 137.38891602 C-66.50101496 127.74336459 -66.50101496 127.74336459 -66.6105957 122.04516602 C-65.00639138 116.38326842 -61.23461797 112.60484579 -56.8215332 108.81079102 C-55.11923928 107.114679 -55.11923928 107.114679 -55.5480957 103.29516602 C-56.56129883 103.3299707 -57.57450195 103.36477539 -58.6184082 103.40063477 C-59.969954 103.42879197 -61.32151789 103.45609005 -62.6730957 103.48266602 C-63.33825195 103.50780273 -64.0034082 103.53293945 -64.6887207 103.55883789 C-69.40965821 103.62826344 -72.63707043 102.97021446 -76.5480957 100.29516602 C-79.50014655 94.66017741 -78.9201722 88.58297788 -78.91870117 82.37524414 C-78.9230837 80.30084661 -78.9594709 78.22856408 -78.99731445 76.15454102 C-79.00118164 74.83969727 -79.00504883 73.52485352 -79.0090332 72.17016602 C-79.01725098 70.97133789 -79.02546875 69.77250977 -79.03393555 68.53735352 C-78.45296253 64.66030748 -77.3027166 63.03670231 -74.5480957 60.29516602 C-68.51023928 57.77939251 -62.02054053 57.69902957 -55.5480957 57.29516602 C-55.2180957 56.30516602 -54.8880957 55.31516602 -54.5480957 54.29516602 C-55.13204102 54.0515332 -55.71598633 53.80790039 -56.31762695 53.55688477 C-61.46473298 50.64529939 -64.7542073 45.1935948 -66.9855957 39.85766602 C-65.73976802 29.71306916 -53.31058165 20.45334861 -45.9621582 14.03735352 C-42.60636987 11.61553863 -40.60380012 11.72594434 -36.5480957 12.29516602 C-32.89022848 14.23607515 -30.23691823 16.56914319 -27.4230957 19.54516602 C-24.72941073 22.75598111 -24.72941073 22.75598111 -20.5480957 22.29516602 C-20.50942383 20.64967773 -20.50942383 20.64967773 -20.4699707 18.97094727 C-20.4136688 17.51648153 -20.35632193 16.06205598 -20.2980957 14.60766602 C-20.28391602 13.88643555 -20.26973633 13.16520508 -20.25512695 12.42211914 C-20.0310057 7.51386361 -19.19063282 4.87608126 -15.5480957 1.29516602 C-11.06739322 -0.94518523 -4.98256958 0.02659252 0 0 Z " fill="#4B5353" transform="translate(253.548095703125,31.704833984375)"/>
<path d="M0 0 C43.56 0 87.12 0 132 0 C130.82108626 43.61980831 130.82108626 43.61980831 120.1875 55.125 C114.32368778 59.63387309 107.3404642 62.22731956 100 63 C100.0825 64.11375 100.165 65.2275 100.25 66.375 C100.22017356 74.81588367 95.91628529 83.10899798 90 89 C79.78144525 96.71535174 69.57461851 98.08401884 57 97 C53.62469942 96.13655102 50.93881935 94.85122479 48 93 C47.30390625 92.5875 46.6078125 92.175 45.890625 91.75 C38.79068775 87.05229716 33.8106984 79.32921264 32 71 C31.86248186 68.30857358 31.90693765 65.69880807 32 63 C31.13375 62.87625 30.2675 62.7525 29.375 62.625 C19.83760924 60.85881653 13.12069807 56.64425929 6.640625 49.55078125 C-3.51237649 33.76528132 0.54773795 20.26630422 0 0 Z " fill="#A0A0A0" transform="translate(190,244)"/>
<path d="M0 0 C8.2892677 7.10288552 15.34007934 16.5970878 16.21923828 27.73583984 C16.92964737 41.35250948 15.8388536 51.5798704 6.5625 62.25 C2.18306519 66.87616353 -2.26176452 70.62603069 -8 73.4375 C-8.83660156 73.85386719 -9.67320312 74.27023438 -10.53515625 74.69921875 C-19.26624484 78.5181827 -32.02525312 78.17058348 -41 75.1875 C-51.58683974 70.55778109 -60.72583866 61.7915672 -65.9375 51.5 C-69.65942936 41.68419987 -69.95697255 27.93608038 -66.375 18 C-60.17849025 5.78153008 -50.61482584 -2.14497234 -37.9765625 -7.00390625 C-24.96369543 -10.92972902 -10.87726927 -7.92249324 0 0 Z " fill="#D5E2FD" transform="translate(281.9375,78.25)"/>
<path d="M0 0 C43.56 0 87.12 0 132 0 C131.67 12.21 131.34 24.42 131 37 C130.67 37 130.34 37 130 37 C130 35.35 130 33.7 130 32 C87.76 32 45.52 32 2 32 C2 33.65 2 35.3 2 37 C1.67 37 1.34 37 1 37 C0.67 24.79 0.34 12.58 0 0 Z " fill="#C2C2C0" transform="translate(190,244)"/>
<path d="M0 0 C24.75 0 49.5 0 75 0 C74.01 0.33 73.02 0.66 72 1 C72.0825 2.11375 72.165 3.2275 72.25 4.375 C72.22017356 12.81588367 67.91628529 21.10899798 62 27 C51.78144525 34.71535174 41.57461851 36.08401884 29 35 C25.62469942 34.13655102 22.93881935 32.85122479 20 31 C19.30390625 30.5875 18.6078125 30.175 17.890625 29.75 C10.79068775 25.05229716 5.8106984 17.32921264 4 9 C3.86248186 6.30857358 3.90693765 3.69880807 4 1 C2.68 0.67 1.36 0.34 0 0 Z " fill="#C2C1BE" transform="translate(218,306)"/>
<path d="M0 0 C0.8145163 -0.00852997 1.62903259 -0.01705994 2.4682312 -0.02584839 C3.35818283 -0.02494202 4.24813446 -0.02403564 5.16505432 -0.02310181 C6.10516357 -0.02981903 7.04527283 -0.03653625 8.01387024 -0.04345703 C11.12755082 -0.06248514 14.24101645 -0.06636354 17.35475159 -0.06851196 C19.51564626 -0.07493609 21.67654004 -0.08166416 23.83743286 -0.08868408 C28.36934934 -0.10066858 32.90118952 -0.10436365 37.43312073 -0.10317993 C43.24524185 -0.10297658 49.05687491 -0.13029101 54.86888027 -0.16472435 C59.33237971 -0.18694125 63.79576069 -0.19101909 68.25930977 -0.18996048 C70.4023666 -0.19232383 72.54542634 -0.2011884 74.68842888 -0.21662521 C77.68359127 -0.23618141 80.67768794 -0.23048803 83.67286682 -0.21841431 C84.56079422 -0.22965332 85.44872162 -0.24089233 86.36355591 -0.25247192 C92.3364641 -0.19116717 92.3364641 -0.19116717 95.57339478 2.10247803 C96.98365784 4.26742554 96.98365784 4.26742554 96.85865784 7.39242554 C95.98365784 10.26742554 95.98365784 10.26742554 93.98365784 12.26742554 C90.86579783 12.47698797 87.83608055 12.56104721 84.71632385 12.55795288 C83.27470886 12.56802872 83.27470886 12.56802872 81.80397034 12.57830811 C78.61511621 12.59736434 75.42647167 12.60121606 72.23756409 12.60336304 C70.02800407 12.60978537 67.81844492 12.61651329 65.60888672 12.62353516 C60.97264127 12.63552682 56.33647044 12.63921401 51.70021057 12.63803101 C45.75008346 12.63782765 39.80043307 12.66513938 33.85041904 12.69957542 C29.28573393 12.72177732 24.72116479 12.72587062 20.1564312 12.72481155 C17.96230869 12.72717728 15.76818344 12.73605502 13.57411385 12.75147629 C10.50919517 12.7710017 7.44532069 12.76535124 4.38038635 12.75326538 C3.46859116 12.76450439 2.55679596 12.77574341 1.61737061 12.787323 C-4.49291918 12.72587858 -4.49291918 12.72587858 -7.1114502 10.43237305 C-8.40036425 7.34865547 -7.97703982 5.42400355 -7.01634216 2.26742554 C-3.982507 0.24486876 -3.40101731 0.01611527 0 0 Z " fill="#FFA871" transform="translate(310.01634216308594,378.7325744628906)"/>
<path d="M0 0 C0.8145163 -0.00852997 1.62903259 -0.01705994 2.4682312 -0.02584839 C3.35818283 -0.02494202 4.24813446 -0.02403564 5.16505432 -0.02310181 C6.10516357 -0.02981903 7.04527283 -0.03653625 8.01387024 -0.04345703 C11.12755082 -0.06248514 14.24101645 -0.06636354 17.35475159 -0.06851196 C19.51564626 -0.07493609 21.67654004 -0.08166416 23.83743286 -0.08868408 C28.36934934 -0.10066858 32.90118952 -0.10436365 37.43312073 -0.10317993 C43.24524185 -0.10297658 49.05687491 -0.13029101 54.86888027 -0.16472435 C59.33237971 -0.18694125 63.79576069 -0.19101909 68.25930977 -0.18996048 C70.4023666 -0.19232383 72.54542634 -0.2011884 74.68842888 -0.21662521 C77.68359127 -0.23618141 80.67768794 -0.23048803 83.67286682 -0.21841431 C84.56079422 -0.22965332 85.44872162 -0.24089233 86.36355591 -0.25247192 C92.3364641 -0.19116717 92.3364641 -0.19116717 95.57339478 2.10247803 C96.98365784 4.26742554 96.98365784 4.26742554 96.85865784 7.39242554 C95.98365784 10.26742554 95.98365784 10.26742554 93.98365784 12.26742554 C90.86579783 12.47698797 87.83608055 12.56104721 84.71632385 12.55795288 C83.27470886 12.56802872 83.27470886 12.56802872 81.80397034 12.57830811 C78.61511621 12.59736434 75.42647167 12.60121606 72.23756409 12.60336304 C70.02800407 12.60978537 67.81844492 12.61651329 65.60888672 12.62353516 C60.97264127 12.63552682 56.33647044 12.63921401 51.70021057 12.63803101 C45.75008346 12.63782765 39.80043307 12.66513938 33.85041904 12.69957542 C29.28573393 12.72177732 24.72116479 12.72587062 20.1564312 12.72481155 C17.96230869 12.72717728 15.76818344 12.73605502 13.57411385 12.75147629 C10.50919517 12.7710017 7.44532069 12.76535124 4.38038635 12.75326538 C3.46859116 12.76450439 2.55679596 12.77574341 1.61737061 12.787323 C-4.49291918 12.72587858 -4.49291918 12.72587858 -7.1114502 10.43237305 C-8.40036425 7.34865547 -7.97703982 5.42400355 -7.01634216 2.26742554 C-3.982507 0.24486876 -3.40101731 0.01611527 0 0 Z " fill="#FFA871" transform="translate(113.01634216308594,378.7325744628906)"/>
<path d="M0 0 C0.83278976 -0.00845947 1.66557953 -0.01691895 2.52360535 -0.02563477 C3.4338295 -0.01956207 4.34405365 -0.01348938 5.28186035 -0.00723267 C6.24308304 -0.01248962 7.20430573 -0.01774658 8.19465637 -0.02316284 C11.37818559 -0.03638771 14.5612165 -0.02761582 17.74475098 -0.01748657 C19.95288184 -0.01950659 22.16101205 -0.02241742 24.36914062 -0.02618408 C28.99945419 -0.03061081 33.62959427 -0.02416505 38.2598877 -0.01016235 C44.20208291 0.00692958 50.14387165 -0.00290971 56.08605194 -0.02087975 C60.64645463 -0.03170808 65.20676057 -0.02827559 69.76716614 -0.02049637 C71.95848132 -0.01849174 74.14980522 -0.02096282 76.34111023 -0.02793503 C79.40102484 -0.03553376 82.46027651 -0.02396717 85.5201416 -0.00723267 C86.43036575 -0.01330536 87.3405899 -0.01937805 88.27839661 -0.02563477 C89.52758125 -0.01294556 89.52758125 -0.01294556 90.80200195 0 C91.88709927 0.00169662 91.88709927 0.00169662 92.99411774 0.00342751 C95.47196497 0.49398998 96.36390126 1.41170481 97.90100098 3.38095093 C98.46502418 6.52336593 98.25596361 7.85876731 96.45458984 10.50875854 C92.63933745 13.30595372 89.22558355 12.94072853 84.6060791 12.89852905 C83.66582382 12.90553833 82.72556854 12.91254761 81.75682068 12.91976929 C78.64833049 12.93737655 75.54075045 12.92571659 72.43225098 12.91220093 C70.27278468 12.91489505 68.11331956 12.9187768 65.95385742 12.92379761 C61.42782035 12.92969637 56.90209901 12.9211173 52.37609863 12.9024353 C46.5717989 12.87964581 40.76823896 12.89276683 34.96396637 12.91672516 C30.50472429 12.93117275 26.04565787 12.92658186 21.58641052 12.91621399 C19.44616102 12.91354384 17.30589561 12.91682654 15.16566467 12.9261322 C12.1753204 12.93628045 9.18617754 12.92082037 6.19592285 12.89852905 C4.86638832 12.91067444 4.86638832 12.91067444 3.50999451 12.92306519 C-2.47238271 12.84036172 -2.47238271 12.84036172 -5.65258789 10.50875854 C-7.45396166 7.85876731 -7.66302223 6.52336593 -7.09899902 3.38095093 C-4.92063393 0.5901515 -3.4985675 0.00547022 0 0 Z " fill="#FFA971" transform="translate(309.0989990234375,340.6190490722656)"/>
<path d="M0 0 C0.83278976 -0.00845947 1.66557953 -0.01691895 2.52360535 -0.02563477 C3.4338295 -0.01956207 4.34405365 -0.01348938 5.28186035 -0.00723267 C6.24308304 -0.01248962 7.20430573 -0.01774658 8.19465637 -0.02316284 C11.37818559 -0.03638771 14.5612165 -0.02761582 17.74475098 -0.01748657 C19.95288184 -0.01950659 22.16101205 -0.02241742 24.36914062 -0.02618408 C28.99945419 -0.03061081 33.62959427 -0.02416505 38.2598877 -0.01016235 C44.20208291 0.00692958 50.14387165 -0.00290971 56.08605194 -0.02087975 C60.64645463 -0.03170808 65.20676057 -0.02827559 69.76716614 -0.02049637 C71.95848132 -0.01849174 74.14980522 -0.02096282 76.34111023 -0.02793503 C79.40102484 -0.03553376 82.46027651 -0.02396717 85.5201416 -0.00723267 C86.43036575 -0.01330536 87.3405899 -0.01937805 88.27839661 -0.02563477 C89.52758125 -0.01294556 89.52758125 -0.01294556 90.80200195 0 C91.88709927 0.00169662 91.88709927 0.00169662 92.99411774 0.00342751 C95.50261287 0.50005763 96.40704407 1.32754978 97.90100098 3.38095093 C97.77600098 6.94345093 97.77600098 6.94345093 96.90100098 10.38095093 C93.86716581 12.40350771 93.28567612 12.63226119 89.88465881 12.64837646 C88.66288437 12.66117142 88.66288437 12.66117142 87.41642761 12.67422485 C86.52647598 12.67331848 85.63652435 12.67241211 84.71960449 12.67147827 C83.30944061 12.68155411 83.30944061 12.68155411 81.87078857 12.6918335 C78.75710799 12.71086161 75.64364236 12.71474 72.52990723 12.71688843 C70.36901256 12.72331256 68.20811877 12.73004062 66.04722595 12.73706055 C61.51530947 12.74904504 56.9834693 12.75274012 52.45153809 12.7515564 C46.63941697 12.75135304 40.82778391 12.77866748 35.01577854 12.81310081 C30.5522791 12.83531771 26.08889813 12.83939555 21.62534904 12.83833694 C19.48229221 12.84070029 17.33923247 12.84956486 15.19622993 12.86500168 C12.20106755 12.88455787 9.20697088 12.87886449 6.21179199 12.86679077 C5.32386459 12.87802979 4.43593719 12.8892688 3.52110291 12.90084839 C-2.47288747 12.83932725 -2.47288747 12.83932725 -5.65357971 10.51074219 C-7.4529465 7.85941767 -7.66303822 6.52345502 -7.09899902 3.38095093 C-4.92063393 0.5901515 -3.4985675 0.00547022 0 0 Z " fill="#FFA971" transform="translate(112.0989990234375,340.6190490722656)"/>
<path d="M0 0 C1.6622467 1.08155823 1.6622467 1.08155823 3 3 C3.38768005 6.14317322 3.38768005 6.14317322 3.40405273 10.07006836 C3.41091599 10.78584549 3.41777924 11.50162262 3.42485046 12.23908997 C3.44315824 14.60620945 3.43927542 16.97266863 3.43359375 19.33984375 C3.43815384 20.98507402 3.4434589 22.63030238 3.44947815 24.27552795 C3.45841717 27.72469823 3.45597745 31.17363707 3.44604492 34.62280273 C3.43455718 39.0427383 3.4547591 43.46187473 3.48396206 47.88170528 C3.50231016 51.27980117 3.50203437 54.6777051 3.49632454 58.07583809 C3.49617114 59.70532922 3.50223119 61.3348332 3.51461601 62.96427727 C3.52949785 65.24353996 3.51887145 67.52132074 3.50170898 69.80053711 C3.50145973 71.74554359 3.50145973 71.74554359 3.50120544 73.72984314 C2.91719351 77.54027786 2.05822836 78.72833167 -1 81 C-3.5625 81.5 -3.5625 81.5 -6 81 C-8.46793184 78.60300808 -8.97923791 77.17822582 -9.38095093 73.72984314 C-9.38333771 72.43317215 -9.38572449 71.13650116 -9.38818359 69.80053711 C-9.39344055 69.08300766 -9.39869751 68.36547821 -9.40411377 67.62620544 C-9.41729406 65.25969536 -9.40858404 62.8938604 -9.3984375 60.52734375 C-9.40045859 58.88114798 -9.40337032 57.23495308 -9.40713501 55.58876038 C-9.41155549 52.14136212 -9.40513549 48.69419727 -9.39111328 45.24682617 C-9.37400796 40.82581257 -9.38387259 36.4053448 -9.40183067 31.98435116 C-9.4126646 28.58630755 -9.40922424 25.18839364 -9.4014473 21.79034615 C-9.39944489 20.16003925 -9.40190598 18.5297206 -9.40888596 16.89942741 C-9.41649569 14.62265633 -9.40490464 12.34677321 -9.38818359 10.07006836 C-9.38579681 8.77419296 -9.38341003 7.47831757 -9.38095093 6.14317322 C-9 3 -9 3 -7.66323853 1.08155823 C-5.05051204 -0.61742588 -3.02927034 -0.37865879 0 0 Z " fill="#FFA871" transform="translate(259,354)"/>
<path d="M0 0 C1.04659538 -0.0076664 1.04659538 -0.0076664 2.11433411 -0.01548767 C4.42665118 -0.02941672 6.73867129 -0.02842443 9.05102539 -0.02612305 C10.65523897 -0.03000828 12.25945152 -0.03434259 13.86366272 -0.03910828 C17.22880383 -0.04657768 20.59384005 -0.04627411 23.95898438 -0.04101562 C28.27465931 -0.03522114 32.58990505 -0.05214771 36.905509 -0.0753603 C40.21947242 -0.09008184 43.53333213 -0.09097149 46.84732246 -0.08785057 C48.43856214 -0.08836462 50.02980749 -0.09361801 51.62101555 -0.10366249 C53.84528472 -0.11597893 56.06871336 -0.10926485 58.29296875 -0.09765625 C59.55934677 -0.09828568 60.82572479 -0.0989151 62.13047791 -0.0995636 C65.21118164 0.2746582 65.21118164 0.2746582 67.1162262 1.64558411 C68.72164329 4.03412276 68.69204372 5.45818031 68.21118164 8.2746582 C65.99413499 11.21148719 64.81091101 12.17686187 61.13757324 12.77586365 C59.93274292 12.77602982 58.7279126 12.77619598 57.48657227 12.77636719 C56.81941696 12.78177017 56.15226166 12.78717316 55.46488953 12.79273987 C53.26528198 12.80522085 51.06698509 12.78874242 48.86743164 12.77075195 C47.33573335 12.77090696 45.80403467 12.77239619 44.27233887 12.77516174 C41.0644392 12.77654544 37.85698679 12.76399323 34.64916992 12.74121094 C30.53985294 12.71282592 26.43127901 12.71556378 22.32190704 12.72830105 C19.15970528 12.73526029 15.99767488 12.72746624 12.835495 12.71504402 C11.32045652 12.71053187 9.80539963 12.71019067 8.2903595 12.71410942 C6.17178726 12.71702417 4.05423434 12.70050408 1.93579102 12.67871094 C0.73096069 12.67330795 -0.47386963 12.66790497 -1.71520996 12.66233826 C-5.0565697 12.24088622 -6.48727213 11.71151863 -8.78881836 9.2746582 C-9.16381836 5.7121582 -9.16381836 5.7121582 -8.78881836 2.2746582 C-5.93605335 -0.57810681 -3.99607029 0.01454782 0 0 Z " fill="#FFA971" transform="translate(338.788818359375,300.725341796875)"/>
<path d="M0 0 C0.69948257 -0.00365067 1.39896515 -0.00730133 2.11964417 -0.01106262 C4.43149093 -0.01916814 6.74263684 -0.00556005 9.05444336 0.0090332 C10.65962219 0.00955175 12.26480166 0.00903425 13.86997986 0.00752258 C17.23340337 0.0076123 20.59658716 0.01804204 23.95996094 0.03613281 C28.27676212 0.05883835 32.59321354 0.05936081 36.91005802 0.05261517 C40.22398502 0.04927828 43.53783188 0.05589964 46.8517437 0.0657444 C48.44379698 0.06960018 50.03585917 0.07074306 51.62791634 0.06915855 C53.84977422 0.06878881 56.07117879 0.08138146 58.29296875 0.09765625 C59.55855118 0.10226364 60.82413361 0.10687103 62.12806702 0.11161804 C65.08178711 0.37231445 65.08178711 0.37231445 67.08178711 2.37231445 C67.45678711 5.80981445 67.45678711 5.80981445 67.08178711 9.37231445 C64.78024088 11.80917488 63.34953845 12.33854247 60.00817871 12.75999451 C58.80334839 12.76539749 57.59851807 12.77080048 56.35717773 12.77636719 C55.35644478 12.78666206 55.35644478 12.78666206 54.335495 12.79716492 C52.13612425 12.81542626 49.9374672 12.81159718 47.73803711 12.8059082 C46.20633716 12.81046998 44.67463926 12.81577554 43.14294434 12.8217926 C39.93513668 12.83072206 36.72757802 12.82830217 33.51977539 12.81835938 C29.41036404 12.80686267 25.30181109 12.82709179 21.19251251 12.85627651 C18.03031971 12.87462694 14.86833314 12.87434856 11.70610046 12.86863899 C10.19104304 12.86848567 8.67597173 12.87453901 7.16096497 12.88693047 C5.0422281 12.90182009 2.92508371 12.89118171 0.80639648 12.87402344 C-0.39843384 12.87385727 -1.60326416 12.8736911 -2.84460449 12.8735199 C-6.51794226 12.27451812 -7.70116624 11.30914344 -9.91821289 8.37231445 C-10.39907497 5.55583656 -10.42867454 4.13177901 -8.82325745 1.74324036 C-5.93727362 -0.3335982 -3.52337273 -0.00175121 0 0 Z " fill="#FFA971" transform="translate(114.918212890625,300.627685546875)"/>
<path d="M0 0 C1.69206825 -0.01902626 1.69206825 -0.01902626 3.4183197 -0.03843689 C4.63709305 -0.03550125 5.85586639 -0.03256561 7.11157227 -0.02954102 C8.36301529 -0.03478287 9.61445831 -0.04002472 10.90382385 -0.04542542 C13.55290061 -0.05185494 16.20111791 -0.0519321 18.85009766 -0.04199219 C22.24104411 -0.03050676 25.63094854 -0.05070407 29.02175808 -0.07990932 C32.26003481 -0.10269268 35.49823415 -0.09580382 38.73657227 -0.09204102 C40.56169594 -0.10889198 40.56169594 -0.10889198 42.4236908 -0.12608337 C44.12048729 -0.11201195 44.12048729 -0.11201195 45.8515625 -0.09765625 C47.34356422 -0.097407 47.34356422 -0.097407 48.8657074 -0.09715271 C52.22729571 0.54474949 53.44429571 1.70374187 55.49047852 4.40405273 C55.3425385 8.10255314 55.13242278 9.76210847 52.49047852 12.40405273 C50.06825256 12.66474915 50.06825256 12.66474915 46.98681641 12.67871094 C45.83544693 12.68824295 44.68407745 12.69777496 43.49781799 12.70759583 C42.24887253 12.70668442 40.99992706 12.70577301 39.71313477 12.70483398 C37.79699623 12.71126167 37.79699623 12.71126167 35.84214783 12.71781921 C33.13599973 12.72357186 30.43023189 12.72498714 27.72412109 12.71972656 C24.25588359 12.71393312 20.78818033 12.73085681 17.32003117 12.75407124 C14.0135695 12.77234516 10.70713786 12.76862335 7.40063477 12.76733398 C6.15371353 12.77654373 4.9067923 12.78575348 3.62208557 12.79524231 C2.46756393 12.78901352 1.3130423 12.78278473 0.12353516 12.77636719 C-0.89413437 12.77699661 -1.91180389 12.77762604 -2.96031189 12.77827454 C-5.50952148 12.40405273 -5.50952148 12.40405273 -7.33815002 11.06828308 C-9.16248413 8.47635363 -8.89376671 6.47801457 -8.50952148 3.40405273 C-6.12386656 0.04083285 -3.97473202 0.02160782 0 0 Z " fill="#FFA971" transform="translate(351.509521484375,252.595947265625)"/>
<path d="M0 0 C1.72694092 -0.01902626 1.72694092 -0.01902626 3.48876953 -0.03843689 C5.3544458 -0.03403343 5.3544458 -0.03403343 7.2578125 -0.02954102 C9.17182861 -0.03740379 9.17182861 -0.03740379 11.12451172 -0.04542542 C13.82485709 -0.05185471 16.5243592 -0.05193198 19.22460938 -0.04199219 C22.685148 -0.03049504 26.14466733 -0.05072247 29.60507202 -0.07990932 C32.90599109 -0.10266239 36.20683334 -0.09580563 39.5078125 -0.09204102 C40.75159668 -0.10327499 41.99538086 -0.11450897 43.27685547 -0.12608337 C45.00379639 -0.11201195 45.00379639 -0.11201195 46.765625 -0.09765625 C47.78027832 -0.09749008 48.79493164 -0.09732391 49.84033203 -0.09715271 C52.3828125 0.40405273 52.3828125 0.40405273 54.24169922 2.24009705 C55.86379357 5.31616352 55.37698952 7.13747109 54.3828125 10.40405273 C50.99946924 12.65961491 49.82308319 12.66038255 45.85742188 12.67871094 C44.72614868 12.68824295 43.59487549 12.69777496 42.42932129 12.70759583 C40.59645569 12.70622871 40.59645569 12.70622871 38.7265625 12.70483398 C37.4727478 12.70911911 36.21893311 12.71340424 34.92712402 12.71781921 C32.27402766 12.72356681 29.62131983 12.72499282 26.96826172 12.71972656 C23.56843034 12.71392741 20.16914295 12.73087467 16.76940155 12.75407124 C13.52595906 12.77234211 10.28254722 12.76862356 7.0390625 12.76733398 C5.8171521 12.77654373 4.5952417 12.78575348 3.33630371 12.79524231 C2.20503052 12.78901352 1.07375732 12.78278473 -0.09179688 12.77636719 C-1.0886853 12.77699661 -2.08557373 12.77762604 -3.1126709 12.77827454 C-5.6171875 12.40405273 -5.6171875 12.40405273 -7.43908691 11.06828308 C-9.27275208 8.47797692 -9.00186214 6.48144984 -8.6171875 3.40405273 C-6.21804037 0.00239859 -4.00510638 0.02132702 0 0 Z " fill="#FFA871" transform="translate(351.6171875,205.595947265625)"/>
<path d="M0 0 C1.10802475 -0.00953201 2.2160495 -0.01906403 3.35765076 -0.02888489 C4.55455032 -0.02797348 5.75144989 -0.02706207 6.98461914 -0.02612305 C8.21386612 -0.03040817 9.4431131 -0.0346933 10.70960999 -0.03910828 C13.97799852 -0.04632858 17.2462034 -0.04322215 20.5145874 -0.03753662 C23.83344656 -0.03804173 27.15216479 -0.06554946 30.47094727 -0.08666992 C32.99633695 -0.08894296 35.52172864 -0.08964639 38.04711914 -0.08862305 C39.24199448 -0.09783279 40.43686981 -0.10704254 41.66795349 -0.11653137 C43.33471886 -0.10718819 43.33471886 -0.10718819 45.03515625 -0.09765625 C46.01205917 -0.09828568 46.9889621 -0.0989151 47.99546814 -0.0995636 C51.03380701 0.33997926 52.41165095 1.12523885 54.58227539 3.2746582 C55.03515283 6.38010348 55.25907786 8.31823398 53.40600586 10.93690491 C50.86947282 12.79751725 49.09505589 12.66204399 45.96508789 12.67871094 C44.23814697 12.6977372 44.23814697 12.6977372 42.47631836 12.71714783 C41.23253418 12.71421219 39.98875 12.71127655 38.70727539 12.70825195 C37.43126465 12.7134938 36.15525391 12.71873566 34.84057617 12.72413635 C32.1402308 12.73056565 29.44072869 12.73064292 26.74047852 12.72070312 C23.27993989 12.70920598 19.82042056 12.72943341 16.36001587 12.75862026 C13.0590968 12.78137333 9.75825455 12.77451657 6.45727539 12.77075195 C5.21349121 12.78198593 3.96970703 12.79321991 2.68823242 12.80479431 C0.9612915 12.79072289 0.9612915 12.79072289 -0.80053711 12.77636719 C-2.32251709 12.77611794 -2.32251709 12.77611794 -3.87524414 12.77586365 C-6.41772461 12.2746582 -6.41772461 12.2746582 -8.27661133 10.43861389 C-9.89870568 7.36254742 -9.41190163 5.54123985 -8.41772461 2.2746582 C-5.05828931 0.03503467 -3.9292028 0.0185465 0 0 Z " fill="#FFA871" transform="translate(114.417724609375,252.725341796875)"/>
<path d="M0 0 C1.13127319 -0.00953201 2.26254639 -0.01906403 3.42810059 -0.02888489 C5.26096619 -0.02751778 5.26096619 -0.02751778 7.13085938 -0.02612305 C8.38467407 -0.03040817 9.63848877 -0.0346933 10.93029785 -0.03910828 C13.58339422 -0.04485587 16.23610205 -0.04628189 18.88916016 -0.04101562 C22.28899153 -0.03521647 25.68827892 -0.05216373 29.08802032 -0.0753603 C32.33146282 -0.09363117 35.57487466 -0.08991263 38.81835938 -0.08862305 C40.04026978 -0.09783279 41.26218018 -0.10704254 42.52111816 -0.11653137 C43.65239136 -0.11030258 44.78366455 -0.10407379 45.94921875 -0.09765625 C46.94610718 -0.09828568 47.94299561 -0.0989151 48.97009277 -0.0995636 C51.47460938 0.2746582 51.47460938 0.2746582 53.29260254 1.61042786 C55.1525203 4.22913655 54.92803565 6.16544946 54.47460938 9.2746582 C51.43511481 12.27909907 49.13484396 12.65545718 44.94335938 12.67871094 C43.28143555 12.6977372 43.28143555 12.6977372 41.5859375 12.71714783 C40.39419922 12.71421219 39.20246094 12.71127655 37.97460938 12.70825195 C36.74677734 12.7134938 35.51894531 12.71873566 34.25390625 12.72413635 C31.65821082 12.7305592 29.06248629 12.72921622 26.46679688 12.72070312 C22.48970896 12.71219052 18.51405546 12.74095842 14.53710938 12.77270508 C12.01627647 12.77431704 9.49544102 12.77373965 6.97460938 12.77075195 C5.18700195 12.78760292 5.18700195 12.78760292 3.36328125 12.80479431 C2.25533203 12.79541336 1.14738281 12.78603241 0.00585938 12.77636719 C-0.96802734 12.77620102 -1.94191406 12.77603485 -2.9453125 12.77586365 C-6.27474035 12.12908968 -7.48991038 10.94353489 -9.52539062 8.2746582 C-9.46289062 5.1496582 -9.46289062 5.1496582 -8.52539062 2.2746582 C-5.14204736 0.01909603 -3.96566132 0.01832838 0 0 Z " fill="#FFA871" transform="translate(114.525390625,205.725341796875)"/>
</svg>
