<?xml version="1.0" encoding="UTF-8"?>
<svg version="1.1" xmlns="http://www.w3.org/2000/svg" width="512" height="512">
<path d="M0 0 C46.86 0 93.72 0 142 0 C142 86.79 142 173.58 142 263 C95.14 263 48.28 263 0 263 C0 176.21 0 89.42 0 0 Z " fill="#4EE78D" transform="translate(185,229)"/>
<path d="M0 0 C46.86 0 93.72 0 142 0 C142 44.88 142 89.76 142 136 C95.14 136 48.28 136 0 136 C0 91.12 0 46.24 0 0 Z " fill="#009DF8" transform="translate(352,356)"/>
<path d="M0 0 C46.86 0 93.72 0 142 0 C142 44.88 142 89.76 142 136 C95.14 136 48.28 136 0 136 C0 91.12 0 46.24 0 0 Z " fill="#FA535B" transform="translate(18,356)"/>
<path d="M0 0 C36.3 0 72.6 0 110 0 C110 2.97 110 5.94 110 9 C110.83402344 8.95359375 111.66804687 8.9071875 112.52734375 8.859375 C120.7743763 8.59486537 127.49544526 8.90318513 133.8125 14.6484375 C139.47172016 20.87902123 140.32169433 26.41794015 140.37109375 34.61328125 C140.38012222 35.54166306 140.3891507 36.47004486 140.39845276 37.42655945 C140.41293243 39.38744901 140.42183631 41.34838664 140.42553711 43.30932617 C140.4374197 46.29234257 140.48661563 49.27327994 140.53710938 52.25585938 C140.54657626 54.16665664 140.55381002 56.07746653 140.55859375 57.98828125 C140.57812607 58.8718782 140.59765839 59.75547516 140.61778259 60.66584778 C140.56729031 67.67883723 138.44137068 72.52879516 133.48631287 77.52680969 C129.45258142 81.03803933 126.06158296 83.27230833 120.671875 83.1953125 C119.87265625 83.18886719 119.0734375 83.18242188 118.25 83.17578125 C117.425 83.15902344 116.6 83.14226562 115.75 83.125 C114.90953125 83.11597656 114.0690625 83.10695313 113.203125 83.09765625 C111.13529396 83.07415817 109.06761005 83.03828908 107 83 C106.72285156 83.89976563 106.44570313 84.79953125 106.16015625 85.7265625 C101.92554762 97.67471749 92.40956907 105.1275242 81.48046875 110.7734375 C76.50909699 112.52541363 71.19933071 113.13344488 66 114 C65.67 130.5 65.34 147 65 164 C73.25 164 81.5 164 90 164 C90.99 167.465 90.99 167.465 92 171 C95.23614266 174.23614266 97.63866113 175.25546445 102 177 C102 181.29 102 185.58 102 190 C70.98 190 39.96 190 8 190 C8 185.71 8 181.42 8 177 C9.258125 176.4225 10.51625 175.845 11.8125 175.25 C15.08532959 173.60202044 17.27404551 172.35038225 19 169 C19.33 167.35 19.66 165.7 20 164 C28.25 164 36.5 164 45 164 C44.67 147.5 44.34 131 44 114 C38.06 113.01 38.06 113.01 32 112 C20.21218618 107.92371518 11.17823264 100.02742909 5.05859375 89.26171875 C4.07454864 87.1592755 3.52504283 85.24938156 3 83 C1.7934375 83.05800781 0.586875 83.11601563 -0.65625 83.17578125 C-16.28965744 83.7077185 -16.28965744 83.7077185 -21.52734375 79.49609375 C-22.01332031 79.00238281 -22.49929687 78.50867188 -23 78 C-23.49628906 77.49597656 -23.99257812 76.99195312 -24.50390625 76.47265625 C-28.0306271 72.52393462 -30.23506002 69.04326792 -30.29052734 63.72558594 C-30.30328705 62.89081726 -30.31604675 62.05604858 -30.32919312 61.19598389 C-30.33253159 59.85373749 -30.33253159 59.85373749 -30.3359375 58.484375 C-30.3459227 57.08967987 -30.3459227 57.08967987 -30.35610962 55.66680908 C-30.36622735 53.69993057 -30.37092691 51.73301779 -30.37060547 49.76611328 C-30.37496433 46.77448002 -30.41125344 43.7843397 -30.44921875 40.79296875 C-30.45509015 38.87760918 -30.45905738 36.96224264 -30.4609375 35.046875 C-30.47530853 34.16014099 -30.48967957 33.27340698 -30.50448608 32.35980225 C-30.45457612 25.48660359 -28.76070082 20.26493841 -24.2890625 14.9765625 C-23.73992187 14.53054687 -23.19078125 14.08453125 -22.625 13.625 C-22.08101562 13.16351563 -21.53703125 12.70203125 -20.9765625 12.2265625 C-16.17805799 9.2488344 -11.68230628 8.76158559 -6.125 8.875 C-4.97257812 8.89304687 -3.82015625 8.91109375 -2.6328125 8.9296875 C-1.76398438 8.95289063 -0.89515625 8.97609375 0 9 C0 6.03 0 3.06 0 0 Z M-14.125 23.875 C-18.74884859 29.11536174 -17.30377232 37.01660812 -17.35009766 43.68432617 C-17.36664961 45.43120656 -17.39392995 47.17801943 -17.43212891 48.92456055 C-17.48698252 51.44615726 -17.50878326 53.96616775 -17.5234375 56.48828125 C-17.54610687 57.26553055 -17.56877625 58.04277985 -17.59213257 58.84358215 C-17.57619473 62.94785828 -17.2015869 64.7516067 -14.58056641 67.98120117 C-9.51799079 71.94169671 -6.95115861 71 0 71 C0 54.83 0 38.66 0 22 C-10.03532046 21.05675778 -10.03532046 21.05675778 -14.125 23.875 Z M110 22 C110 38.17 110 54.34 110 71 C118.2845304 71.07541256 118.2845304 71.07541256 125 68 C127.51839838 64.22240243 127.32341066 61.16886586 127.3359375 56.7890625 C127.3425943 55.98391205 127.3492511 55.1787616 127.35610962 54.34921265 C127.36623125 52.64624311 127.37092679 50.94323396 127.37060547 49.24023438 C127.37497268 46.64125774 127.41127829 44.04398797 127.44921875 41.4453125 C127.45508833 39.78906829 127.45905678 38.13281604 127.4609375 36.4765625 C127.47530853 35.70245026 127.48967957 34.92833801 127.50448608 34.13076782 C127.47285918 30.37503409 127.14402293 28.22447482 125.09619141 25.03271484 C120.06918617 20.15793665 119.05934261 22 110 22 Z " fill="#FCDA1E" transform="translate(201,20)"/>
<path d="M0 0 C36.3 0 72.6 0 110 0 C110 2.97 110 5.94 110 9 C111.28583984 8.94779297 111.28583984 8.94779297 112.59765625 8.89453125 C122.4546308 8.66116432 127.75532028 9.87582117 135.421875 16.109375 C140.14953036 21.77319973 140.46713216 27.74537175 140.46875 34.80859375 C140.47636353 35.73414566 140.48397705 36.65969757 140.49182129 37.61329651 C140.50258127 39.56223872 140.50549217 41.5112384 140.50097656 43.46020508 C140.50000389 46.42562852 140.54167934 49.38846478 140.5859375 52.35351562 C140.59114516 54.25520299 140.59383268 56.15689926 140.59375 58.05859375 C140.61014526 58.9359166 140.62654053 59.81323944 140.64343262 60.71714783 C140.56591397 67.69554632 138.41630788 72.55314262 133.4864502 77.52708435 C129.4521618 81.03777209 126.06176518 83.27231093 120.671875 83.1953125 C119.87265625 83.18886719 119.0734375 83.18242187 118.25 83.17578125 C117.425 83.15902344 116.6 83.14226562 115.75 83.125 C114.90953125 83.11597656 114.0690625 83.10695313 113.203125 83.09765625 C111.13529396 83.07415817 109.06761005 83.03828908 107 83 C106.72285156 83.89976562 106.44570313 84.79953125 106.16015625 85.7265625 C101.81263279 97.99331219 92.07000921 105.41608708 80.69921875 110.87109375 C75.00289547 113.25349235 71.59967032 113 65 113 C65 129.83 65 146.66 65 164 C73.25 164 81.5 164 90 164 C90.99 167.465 90.99 167.465 92 171 C95.23614266 174.23614266 97.63866113 175.25546445 102 177 C102 181.29 102 185.58 102 190 C70.98 190 39.96 190 8 190 C8 185.71 8 181.42 8 177 C9.258125 176.4225 10.51625 175.845 11.8125 175.25 C15.08532959 173.60202044 17.27404551 172.35038225 19 169 C19.33 167.35 19.66 165.7 20 164 C28.25 164 36.5 164 45 164 C45 147.17 45 130.34 45 113 C42.03 113 39.06 113 36 113 C23.89420388 109.98743376 14.32238528 102.99714259 7 93 C3 86.28994083 3 86.28994083 3 83 C1.7934375 83.05800781 0.586875 83.11601562 -0.65625 83.17578125 C-16.28965744 83.7077185 -16.28965744 83.7077185 -21.52734375 79.49609375 C-22.01332031 79.00238281 -22.49929688 78.50867188 -23 78 C-23.49628906 77.49597656 -23.99257813 76.99195313 -24.50390625 76.47265625 C-28.0306271 72.52393462 -30.23506002 69.04326792 -30.29052734 63.72558594 C-30.30328705 62.89081726 -30.31604675 62.05604858 -30.32919312 61.19598389 C-30.33253159 59.85373749 -30.33253159 59.85373749 -30.3359375 58.484375 C-30.3459227 57.08967987 -30.3459227 57.08967987 -30.35610962 55.66680908 C-30.36622735 53.69993057 -30.37092691 51.73301779 -30.37060547 49.76611328 C-30.37496433 46.77448002 -30.41125344 43.7843397 -30.44921875 40.79296875 C-30.45509015 38.87760918 -30.45905738 36.96224264 -30.4609375 35.046875 C-30.47530853 34.16014099 -30.48967957 33.27340698 -30.50448608 32.35980225 C-30.45457612 25.48660359 -28.76070082 20.26493841 -24.2890625 14.9765625 C-23.73992187 14.53054687 -23.19078125 14.08453125 -22.625 13.625 C-22.08101563 13.16351563 -21.53703125 12.70203125 -20.9765625 12.2265625 C-16.17805799 9.2488344 -11.68230628 8.76158559 -6.125 8.875 C-4.97257812 8.89304688 -3.82015625 8.91109375 -2.6328125 8.9296875 C-1.76398438 8.95289063 -0.89515625 8.97609375 0 9 C0 6.03 0 3.06 0 0 Z M-14.125 23.875 C-18.74884859 29.11536174 -17.30377232 37.01660812 -17.35009766 43.68432617 C-17.36664961 45.43120656 -17.39392995 47.17801943 -17.43212891 48.92456055 C-17.48698252 51.44615726 -17.50878326 53.96616775 -17.5234375 56.48828125 C-17.54610687 57.26553055 -17.56877625 58.04277985 -17.59213257 58.84358215 C-17.57629179 62.92286235 -17.19615548 64.75473535 -14.61572266 67.98120117 C-9.76206754 71.72722266 -6.24002301 71 0 71 C0 54.83 0 38.66 0 22 C-10.03532046 21.05675778 -10.03532046 21.05675778 -14.125 23.875 Z M110 22 C110 38.17 110 54.34 110 71 C118.35293988 71.06145372 118.35293988 71.06145372 125.3125 67.1875 C129.64752471 61.56802353 128.22248508 52.85927741 128.25 46.125 C128.270625 44.87074219 128.29125 43.61648437 128.3125 42.32421875 C128.39896552 33.22088899 128.39896552 33.22088899 125 25 C120.36666667 20.9 120.36666667 20.9 110 22 Z " fill="#FCDA1E" transform="translate(368,147)"/>
<path d="M0 0 C36.3 0 72.6 0 110 0 C110 2.97 110 5.94 110 9 C111.28583984 8.94779297 111.28583984 8.94779297 112.59765625 8.89453125 C122.4546308 8.66116432 127.75532028 9.87582117 135.421875 16.109375 C140.14953036 21.77319973 140.46713216 27.74537175 140.46875 34.80859375 C140.47636353 35.73414566 140.48397705 36.65969757 140.49182129 37.61329651 C140.50258127 39.56223872 140.50549217 41.5112384 140.50097656 43.46020508 C140.50000389 46.42562852 140.54167934 49.38846478 140.5859375 52.35351562 C140.59114516 54.25520299 140.59383268 56.15689926 140.59375 58.05859375 C140.61014526 58.9359166 140.62654053 59.81323944 140.64343262 60.71714783 C140.56591397 67.69554632 138.41630788 72.55314262 133.4864502 77.52708435 C129.4521618 81.03777209 126.06176518 83.27231093 120.671875 83.1953125 C119.87265625 83.18886719 119.0734375 83.18242187 118.25 83.17578125 C117.425 83.15902344 116.6 83.14226562 115.75 83.125 C114.90953125 83.11597656 114.0690625 83.10695313 113.203125 83.09765625 C111.13529396 83.07415817 109.06761005 83.03828908 107 83 C106.72285156 83.89976562 106.44570312 84.79953125 106.16015625 85.7265625 C101.81263279 97.99331219 92.07000921 105.41608708 80.69921875 110.87109375 C75.00289547 113.25349235 71.59967032 113 65 113 C65 129.83 65 146.66 65 164 C73.25 164 81.5 164 90 164 C90.99 167.465 90.99 167.465 92 171 C95.23614266 174.23614266 97.63866113 175.25546445 102 177 C102 181.29 102 185.58 102 190 C70.98 190 39.96 190 8 190 C8 185.71 8 181.42 8 177 C9.258125 176.4225 10.51625 175.845 11.8125 175.25 C15.08532959 173.60202044 17.27404551 172.35038225 19 169 C19.33 167.35 19.66 165.7 20 164 C28.25 164 36.5 164 45 164 C45 147.17 45 130.34 45 113 C42.03 113 39.06 113 36 113 C23.89420388 109.98743376 14.32238528 102.99714259 7 93 C3 86.28994083 3 86.28994083 3 83 C1.7934375 83.05800781 0.586875 83.11601562 -0.65625 83.17578125 C-16.28965744 83.7077185 -16.28965744 83.7077185 -21.52734375 79.49609375 C-22.01332031 79.00238281 -22.49929687 78.50867188 -23 78 C-23.49628906 77.49597656 -23.99257813 76.99195313 -24.50390625 76.47265625 C-28.0306271 72.52393462 -30.23506002 69.04326792 -30.29052734 63.72558594 C-30.30328705 62.89081726 -30.31604675 62.05604858 -30.32919312 61.19598389 C-30.33253159 59.85373749 -30.33253159 59.85373749 -30.3359375 58.484375 C-30.3459227 57.08967987 -30.3459227 57.08967987 -30.35610962 55.66680908 C-30.36622735 53.69993057 -30.37092691 51.73301779 -30.37060547 49.76611328 C-30.37496433 46.77448002 -30.41125344 43.7843397 -30.44921875 40.79296875 C-30.45509015 38.87760918 -30.45905738 36.96224264 -30.4609375 35.046875 C-30.47530853 34.16014099 -30.48967957 33.27340698 -30.50448608 32.35980225 C-30.45457612 25.48660359 -28.76070082 20.26493841 -24.2890625 14.9765625 C-23.73992188 14.53054687 -23.19078125 14.08453125 -22.625 13.625 C-22.08101562 13.16351563 -21.53703125 12.70203125 -20.9765625 12.2265625 C-16.17805799 9.2488344 -11.68230628 8.76158559 -6.125 8.875 C-4.97257812 8.89304688 -3.82015625 8.91109375 -2.6328125 8.9296875 C-1.76398437 8.95289063 -0.89515625 8.97609375 0 9 C0 6.03 0 3.06 0 0 Z M-14.0625 23.625 C-17.73202987 28.12313339 -18.25403826 32.8324308 -18.265625 38.5 C-18.26820312 39.716875 -18.27078125 40.93375 -18.2734375 42.1875 C-18.26570313 43.445625 -18.25796875 44.70375 -18.25 46 C-18.25773437 47.258125 -18.26546875 48.51625 -18.2734375 49.8125 C-18.27085938 51.029375 -18.26828125 52.24625 -18.265625 53.5 C-18.26336914 54.6034375 -18.26111328 55.706875 -18.25878906 56.84375 C-17.8940011 61.29278654 -16.95427747 64.78247357 -14.1875 68.3125 C-9.7208002 71.75823985 -5.6491673 71 0 71 C0 54.83 0 38.66 0 22 C-9.95834672 21.14068769 -9.95834672 21.14068769 -14.0625 23.625 Z M110 22 C110 38.17 110 54.34 110 71 C118.19130586 71.04908179 118.19130586 71.04908179 125.14257812 67.44116211 C127.75324687 64.01002688 127.57463616 60.83340849 127.53125 56.69140625 C127.5350769 55.88767075 127.53890381 55.08393524 127.54284668 54.25584412 C127.54556418 52.55881495 127.53821418 50.86174379 127.52148438 49.16479492 C127.50009826 46.57440178 127.52127471 43.98679065 127.546875 41.39648438 C127.54423114 39.74478557 127.53910497 38.09308849 127.53125 36.44140625 C127.53934692 35.67043106 127.54744385 34.89945587 127.55578613 34.1051178 C127.46932287 29.11645714 126.5872774 26.48972422 123 23 C119.73289481 21.18010841 119.73289481 21.18010841 110 22 Z " fill="#FCDA1E" transform="translate(34,147)"/>
<path d="M0 0 C17.49 0 34.98 0 53 0 C53 86.79 53 173.58 53 263 C35.51 263 18.02 263 0 263 C0 176.21 0 89.42 0 0 Z " fill="#41D980" transform="translate(185,229)"/>
<path d="M0 0 C17.49 0 34.98 0 53 0 C53 44.88 53 89.76 53 136 C35.51 136 18.02 136 0 136 C0 91.12 0 46.24 0 0 Z " fill="#0D82F5" transform="translate(352,356)"/>
<path d="M0 0 C17.16 0 34.32 0 52 0 C52 44.88 52 89.76 52 136 C34.84 136 17.68 136 0 136 C0 91.12 0 46.24 0 0 Z " fill="#D93A42" transform="translate(18,356)"/>
<path d="M0 0 C6.27 0 12.54 0 19 0 C19.01458252 2.24989746 19.02916504 4.49979492 19.04418945 6.81787109 C19.09470337 14.28184522 19.16132735 21.7456144 19.23571491 29.20938683 C19.28029329 33.73120693 19.31957646 38.25293952 19.34643555 42.77490234 C19.3725943 47.14525 19.41308395 51.51525864 19.46318626 55.88539505 C19.47977046 57.54615664 19.49133701 59.20697676 19.49761391 60.8678093 C19.5602006 75.91634559 21.56378013 87.79685105 32.10546875 99.296875 C42.13559394 108.74116987 50.92585891 110.36109855 65 113 C65 129.83 65 146.66 65 164 C73.25 164 81.5 164 90 164 C90.99 167.465 90.99 167.465 92 171 C95.23614266 174.23614266 97.63866113 175.25546445 102 177 C102 181.29 102 185.58 102 190 C70.98 190 39.96 190 8 190 C8 185.71 8 181.42 8 177 C9.258125 176.4225 10.51625 175.845 11.8125 175.25 C15.08532959 173.60202044 17.27404551 172.35038225 19 169 C19.33 167.35 19.66 165.7 20 164 C28.25 164 36.5 164 45 164 C45 147.17 45 130.34 45 113 C42.03 113 39.06 113 36 113 C23.89420388 109.98743376 14.32238528 102.99714259 7 93 C3 86.28994083 3 86.28994083 3 83 C1.7934375 83.05800781 0.586875 83.11601562 -0.65625 83.17578125 C-16.28965744 83.7077185 -16.28965744 83.7077185 -21.52734375 79.49609375 C-22.01332031 79.00238281 -22.49929688 78.50867188 -23 78 C-23.49628906 77.49597656 -23.99257813 76.99195313 -24.50390625 76.47265625 C-28.0306271 72.52393462 -30.23506002 69.04326792 -30.29052734 63.72558594 C-30.30328705 62.89081726 -30.31604675 62.05604858 -30.32919312 61.19598389 C-30.33253159 59.85373749 -30.33253159 59.85373749 -30.3359375 58.484375 C-30.3459227 57.08967987 -30.3459227 57.08967987 -30.35610962 55.66680908 C-30.36622735 53.69993057 -30.37092691 51.73301779 -30.37060547 49.76611328 C-30.37496433 46.77448002 -30.41125344 43.7843397 -30.44921875 40.79296875 C-30.45509015 38.87760918 -30.45905738 36.96224264 -30.4609375 35.046875 C-30.47530853 34.16014099 -30.48967957 33.27340698 -30.50448608 32.35980225 C-30.45457612 25.48660359 -28.76070082 20.26493841 -24.2890625 14.9765625 C-23.73992187 14.53054687 -23.19078125 14.08453125 -22.625 13.625 C-22.08101563 13.16351563 -21.53703125 12.70203125 -20.9765625 12.2265625 C-16.17805799 9.2488344 -11.68230628 8.76158559 -6.125 8.875 C-4.97257812 8.89304688 -3.82015625 8.91109375 -2.6328125 8.9296875 C-1.76398438 8.95289063 -0.89515625 8.97609375 0 9 C0 6.03 0 3.06 0 0 Z M-14.125 23.875 C-18.74884859 29.11536174 -17.30377232 37.01660812 -17.35009766 43.68432617 C-17.36664961 45.43120656 -17.39392995 47.17801943 -17.43212891 48.92456055 C-17.48698252 51.44615726 -17.50878326 53.96616775 -17.5234375 56.48828125 C-17.54610687 57.26553055 -17.56877625 58.04277985 -17.59213257 58.84358215 C-17.57629179 62.92286235 -17.19615548 64.75473535 -14.61572266 67.98120117 C-9.76206754 71.72722266 -6.24002301 71 0 71 C0 54.83 0 38.66 0 22 C-10.03532046 21.05675778 -10.03532046 21.05675778 -14.125 23.875 Z " fill="#FCC72D" transform="translate(368,147)"/>
<path d="M0 0 C6.27 0 12.54 0 19 0 C19.0093457 2.23942383 19.01869141 4.47884766 19.02832031 6.78613281 C19.06224868 14.22617332 19.11788454 21.66594108 19.18390274 29.10576248 C19.2232335 33.61186321 19.255492 38.11777274 19.27099609 42.62402344 C19.28625835 46.98148313 19.32087075 51.33841663 19.36830902 55.69564056 C19.38302496 57.34916329 19.39103533 59.00276119 19.39188385 60.65634918 C19.40772095 76.05898457 21.95854559 88.37583232 32.87890625 100 C42.47714882 108.99714051 51.6741342 110.50140016 65 113 C65 129.83 65 146.66 65 164 C73.25 164 81.5 164 90 164 C90.99 167.465 90.99 167.465 92 171 C95.23614266 174.23614266 97.63866113 175.25546445 102 177 C102 181.29 102 185.58 102 190 C70.98 190 39.96 190 8 190 C8 185.71 8 181.42 8 177 C9.258125 176.4225 10.51625 175.845 11.8125 175.25 C15.08532959 173.60202044 17.27404551 172.35038225 19 169 C19.33 167.35 19.66 165.7 20 164 C28.25 164 36.5 164 45 164 C44.67 147.5 44.34 131 44 114 C38.06 113.01 38.06 113.01 32 112 C20.21218618 107.92371518 11.17823264 100.02742909 5.05859375 89.26171875 C4.07454864 87.1592755 3.52504283 85.24938156 3 83 C1.7934375 83.05800781 0.586875 83.11601563 -0.65625 83.17578125 C-16.28965744 83.7077185 -16.28965744 83.7077185 -21.52734375 79.49609375 C-22.01332031 79.00238281 -22.49929687 78.50867188 -23 78 C-23.49628906 77.49597656 -23.99257812 76.99195312 -24.50390625 76.47265625 C-28.0306271 72.52393462 -30.23506002 69.04326792 -30.29052734 63.72558594 C-30.30328705 62.89081726 -30.31604675 62.05604858 -30.32919312 61.19598389 C-30.33253159 59.85373749 -30.33253159 59.85373749 -30.3359375 58.484375 C-30.3459227 57.08967987 -30.3459227 57.08967987 -30.35610962 55.66680908 C-30.36622735 53.69993057 -30.37092691 51.73301779 -30.37060547 49.76611328 C-30.37496433 46.77448002 -30.41125344 43.7843397 -30.44921875 40.79296875 C-30.45509015 38.87760918 -30.45905738 36.96224264 -30.4609375 35.046875 C-30.47530853 34.16014099 -30.48967957 33.27340698 -30.50448608 32.35980225 C-30.45457612 25.48660359 -28.76070082 20.26493841 -24.2890625 14.9765625 C-23.73992187 14.53054687 -23.19078125 14.08453125 -22.625 13.625 C-22.08101562 13.16351563 -21.53703125 12.70203125 -20.9765625 12.2265625 C-16.17805799 9.2488344 -11.68230628 8.76158559 -6.125 8.875 C-4.97257812 8.89304687 -3.82015625 8.91109375 -2.6328125 8.9296875 C-1.76398438 8.95289063 -0.89515625 8.97609375 0 9 C0 6.03 0 3.06 0 0 Z M-14.125 23.875 C-18.74884859 29.11536174 -17.30377232 37.01660812 -17.35009766 43.68432617 C-17.36664961 45.43120656 -17.39392995 47.17801943 -17.43212891 48.92456055 C-17.48698252 51.44615726 -17.50878326 53.96616775 -17.5234375 56.48828125 C-17.54610687 57.26553055 -17.56877625 58.04277985 -17.59213257 58.84358215 C-17.57619473 62.94785828 -17.2015869 64.7516067 -14.58056641 67.98120117 C-9.51799079 71.94169671 -6.95115861 71 0 71 C0 54.83 0 38.66 0 22 C-10.03532046 21.05675778 -10.03532046 21.05675778 -14.125 23.875 Z " fill="#FCC72D" transform="translate(201,20)"/>
<path d="M0 0 C6.27 0 12.54 0 19 0 C19.0093457 2.23942383 19.01869141 4.47884766 19.02832031 6.78613281 C19.06224868 14.22617332 19.11788454 21.66594108 19.18390274 29.10576248 C19.2232335 33.61186321 19.255492 38.11777274 19.27099609 42.62402344 C19.28625835 46.98148313 19.32087075 51.33841663 19.36830902 55.69564056 C19.38302496 57.34916329 19.39103533 59.00276119 19.39188385 60.65634918 C19.40772095 76.05898457 21.95854559 88.37583232 32.87890625 100 C40.13290724 106.79971002 48.3007424 110.27916397 58 112 C58 112.33 58 112.66 58 113 C41.94668653 113.70248107 28.86540646 113.79221153 15.99609375 102.8828125 C10.27196931 97.48354052 6.12582543 92.25191499 3 85 C3 84.34 3 83.68 3 83 C1.7934375 83.05800781 0.586875 83.11601562 -0.65625 83.17578125 C-16.28965744 83.7077185 -16.28965744 83.7077185 -21.52734375 79.49609375 C-22.01332031 79.00238281 -22.49929687 78.50867188 -23 78 C-23.49628906 77.49597656 -23.99257813 76.99195313 -24.50390625 76.47265625 C-28.0306271 72.52393462 -30.23506002 69.04326792 -30.29052734 63.72558594 C-30.30328705 62.89081726 -30.31604675 62.05604858 -30.32919312 61.19598389 C-30.33253159 59.85373749 -30.33253159 59.85373749 -30.3359375 58.484375 C-30.3459227 57.08967987 -30.3459227 57.08967987 -30.35610962 55.66680908 C-30.36622735 53.69993057 -30.37092691 51.73301779 -30.37060547 49.76611328 C-30.37496433 46.77448002 -30.41125344 43.7843397 -30.44921875 40.79296875 C-30.45509015 38.87760918 -30.45905738 36.96224264 -30.4609375 35.046875 C-30.47530853 34.16014099 -30.48967957 33.27340698 -30.50448608 32.35980225 C-30.45457612 25.48660359 -28.76070082 20.26493841 -24.2890625 14.9765625 C-23.73992188 14.53054687 -23.19078125 14.08453125 -22.625 13.625 C-22.08101562 13.16351563 -21.53703125 12.70203125 -20.9765625 12.2265625 C-16.17805799 9.2488344 -11.68230628 8.76158559 -6.125 8.875 C-4.97257812 8.89304688 -3.82015625 8.91109375 -2.6328125 8.9296875 C-1.76398437 8.95289063 -0.89515625 8.97609375 0 9 C0 6.03 0 3.06 0 0 Z M-14.0625 23.625 C-17.73202987 28.12313339 -18.25403826 32.8324308 -18.265625 38.5 C-18.26820312 39.716875 -18.27078125 40.93375 -18.2734375 42.1875 C-18.26570313 43.445625 -18.25796875 44.70375 -18.25 46 C-18.25773437 47.258125 -18.26546875 48.51625 -18.2734375 49.8125 C-18.27085938 51.029375 -18.26828125 52.24625 -18.265625 53.5 C-18.26336914 54.6034375 -18.26111328 55.706875 -18.25878906 56.84375 C-17.8940011 61.29278654 -16.95427747 64.78247357 -14.1875 68.3125 C-9.7208002 71.75823985 -5.6491673 71 0 71 C0 54.83 0 38.66 0 22 C-9.95834672 21.14068769 -9.95834672 21.14068769 -14.0625 23.625 Z " fill="#FCC72D" transform="translate(34,147)"/>
<path d="M0 0 C6.6 0 13.2 0 20 0 C20 16.83 20 33.66 20 51 C28.25 51 36.5 51 45 51 C45.66 53.31 46.32 55.62 47 58 C50.23614266 61.23614266 52.63866113 62.25546445 57 64 C57 68.29 57 72.58 57 77 C25.98 77 -5.04 77 -37 77 C-37 72.71 -37 68.42 -37 64 C-35.741875 63.4225 -34.48375 62.845 -33.1875 62.25 C-29.91467041 60.60202044 -27.72595449 59.35038225 -26 56 C-25.67 54.35 -25.34 52.7 -25 51 C-16.75 51 -8.5 51 0 51 C0 34.17 0 17.34 0 0 Z " fill="#F89A00" transform="translate(413,260)"/>
<path d="M0 0 C6.6 0 13.2 0 20 0 C20 16.83 20 33.66 20 51 C28.25 51 36.5 51 45 51 C45.66 53.31 46.32 55.62 47 58 C50.23614266 61.23614266 52.63866113 62.25546445 57 64 C57 68.29 57 72.58 57 77 C25.98 77 -5.04 77 -37 77 C-37 72.71 -37 68.42 -37 64 C-35.741875 63.4225 -34.48375 62.845 -33.1875 62.25 C-29.91467041 60.60202044 -27.72595449 59.35038225 -26 56 C-25.67 54.35 -25.34 52.7 -25 51 C-16.75 51 -8.5 51 0 51 C0 34.17 0 17.34 0 0 Z " fill="#F89B00" transform="translate(246,133)"/>
<path d="M0 0 C23.1 0 46.2 0 70 0 C70.99 3.465 70.99 3.465 72 7 C75.23614266 10.23614266 77.63866113 11.25546445 82 13 C82 17.29 82 21.58 82 26 C50.98 26 19.96 26 -12 26 C-12 21.71 -12 17.42 -12 13 C-10.741875 12.4225 -9.48375 11.845 -8.1875 11.25 C-4.91467041 9.60202044 -2.72595449 8.35038225 -1 5 C-0.67 3.35 -0.34 1.7 0 0 Z " fill="#F89A00" transform="translate(54,311)"/>
<path d="M0 0 C0.66 0 1.32 0 2 0 C3.33891561 3.28942366 4.67017703 6.58189109 6 9.875 C6.3815625 10.81214844 6.763125 11.74929687 7.15625 12.71484375 C7.69765625 14.05869141 7.69765625 14.05869141 8.25 15.4296875 C8.58515625 16.25710449 8.9203125 17.08452148 9.265625 17.93701172 C10 20 10 20 10 22 C10.72703125 21.98839844 11.4540625 21.97679687 12.203125 21.96484375 C19.52631959 21.89912277 26.71366686 22.2765343 34 23 C21.8125 35.59375 21.8125 35.59375 17 38 C17.60956544 44.2175675 18.9297328 50.0920279 20.4765625 56.14453125 C21 59 21 59 20 62 C19.51120361 61.66154053 19.02240723 61.32308105 18.51879883 60.97436523 C16.29366398 59.44641296 14.05358903 57.94194325 11.8125 56.4375 C11.04357422 55.90447266 10.27464844 55.37144531 9.48242188 54.82226562 C8.73154297 54.32275391 7.98066406 53.82324219 7.20703125 53.30859375 C6.5210083 52.84251709 5.83498535 52.37644043 5.12817383 51.89624023 C2.31495878 50.71150782 0.88162017 51.08775104 -2 52 C-4.06117653 53.00060296 -4.06117653 53.00060296 -5.98828125 54.28515625 C-6.69404297 54.73310547 -7.39980469 55.18105469 -8.12695312 55.64257812 C-9.20879883 56.34543945 -9.20879883 56.34543945 -10.3125 57.0625 C-11.42334961 57.77116211 -11.42334961 57.77116211 -12.55664062 58.49414062 C-14.37551219 59.65587149 -16.1883659 60.82701482 -18 62 C-19.37694079 57.86917762 -18.12087984 54.64188637 -17.0625 50.5625 C-16.67423166 49.0440248 -16.28997789 47.52451624 -15.91015625 46.00390625 C-15.73621338 45.33174072 -15.56227051 44.6595752 -15.38305664 43.96704102 C-14.87256879 41.67962431 -14.87256879 41.67962431 -15 38 C-17.22307632 35.69662629 -17.22307632 35.69662629 -20.125 33.5625 C-21.12402344 32.78003906 -22.12304688 31.99757812 -23.15234375 31.19140625 C-24.09207031 30.46824219 -25.03179687 29.74507812 -26 29 C-28.0346029 27.36539465 -30.02566026 25.70753707 -32 24 C-32 23.67 -32 23.34 -32 23 C-23.97667603 22.09958689 -16.07029553 21.88452677 -8 22 C-7.608125 20.783125 -7.21625 19.56625 -6.8125 18.3125 C-4.75722085 12.12690026 -2.37323244 6.06909639 0 0 Z " fill="#F89C00" transform="translate(422,169)"/>
<path d="M0 0 C0.66 0 1.32 0 2 0 C3.33891561 3.28942366 4.67017703 6.58189109 6 9.875 C6.3815625 10.81214844 6.763125 11.74929687 7.15625 12.71484375 C7.69765625 14.05869141 7.69765625 14.05869141 8.25 15.4296875 C8.58515625 16.25710449 8.9203125 17.08452148 9.265625 17.93701172 C10 20 10 20 10 22 C10.64324219 21.98839844 11.28648437 21.97679688 11.94921875 21.96484375 C19.34614069 21.89098005 26.63414095 22.34421605 34 23 C21.8125 35.59375 21.8125 35.59375 17 38 C17.60956544 44.2175675 18.9297328 50.0920279 20.4765625 56.14453125 C21 59 21 59 20 62 C19.48614746 61.65630371 18.97229492 61.31260742 18.44287109 60.95849609 C16.10043822 59.40900021 13.73854985 57.89206921 11.375 56.375 C10.16263672 55.56289062 10.16263672 55.56289062 8.92578125 54.734375 C4.26215781 51.65403377 4.26215781 51.65403377 -1.125 51.375 C-4.62446731 53.35295978 -8.03244002 55.39197455 -11.375 57.625 C-12.33599609 58.25535156 -12.33599609 58.25535156 -13.31640625 58.8984375 C-14.88155698 59.92629768 -16.44134314 60.96231886 -18 62 C-19.37694079 57.86917762 -18.12087984 54.64188637 -17.0625 50.5625 C-16.67423166 49.0440248 -16.28997789 47.52451624 -15.91015625 46.00390625 C-15.73621338 45.33174072 -15.56227051 44.6595752 -15.38305664 43.96704102 C-14.87256879 41.67962431 -14.87256879 41.67962431 -15 38 C-17.22307632 35.69662629 -17.22307632 35.69662629 -20.125 33.5625 C-21.12402344 32.78003906 -22.12304688 31.99757813 -23.15234375 31.19140625 C-24.09207031 30.46824219 -25.03179687 29.74507812 -26 29 C-28.0346029 27.36539465 -30.02566026 25.70753707 -32 24 C-32 23.67 -32 23.34 -32 23 C-23.97497656 22.20318916 -16.06350113 21.87132711 -8 22 C-7.608125 20.783125 -7.21625 19.56625 -6.8125 18.3125 C-4.75722085 12.12690026 -2.37323244 6.06909639 0 0 Z " fill="#F89C00" transform="translate(255,42)"/>
<path d="M0 0 C0.66 0 1.32 0 2 0 C3.33891561 3.28942366 4.67017703 6.58189109 6 9.875 C6.3815625 10.81214844 6.763125 11.74929687 7.15625 12.71484375 C7.69765625 14.05869141 7.69765625 14.05869141 8.25 15.4296875 C8.58515625 16.25710449 8.9203125 17.08452148 9.265625 17.93701172 C10 20 10 20 10 22 C10.72703125 21.98839844 11.4540625 21.97679687 12.203125 21.96484375 C19.52631959 21.89912277 26.71366686 22.2765343 34 23 C21.8125 35.59375 21.8125 35.59375 17 38 C17.53186925 44.38243096 18.73977085 50.23203044 20.4765625 56.3984375 C21 59 21 59 20 62 C19.51120361 61.66154053 19.02240723 61.32308105 18.51879883 60.97436523 C16.29366398 59.44641296 14.05358903 57.94194325 11.8125 56.4375 C11.04357422 55.90447266 10.27464844 55.37144531 9.48242188 54.82226562 C8.73154297 54.32275391 7.98066406 53.82324219 7.20703125 53.30859375 C6.5210083 52.84251709 5.83498535 52.37644043 5.12817383 51.89624023 C2.31495878 50.71150782 0.88162017 51.08775104 -2 52 C-4.06117653 53.00060296 -4.06117653 53.00060296 -5.98828125 54.28515625 C-6.69404297 54.73310547 -7.39980469 55.18105469 -8.12695312 55.64257812 C-9.20879883 56.34543945 -9.20879883 56.34543945 -10.3125 57.0625 C-11.42334961 57.77116211 -11.42334961 57.77116211 -12.55664062 58.49414062 C-14.37551219 59.65587149 -16.1883659 60.82701482 -18 62 C-19.37694079 57.86917762 -18.12087984 54.64188637 -17.0625 50.5625 C-16.67423166 49.0440248 -16.28997789 47.52451624 -15.91015625 46.00390625 C-15.73621338 45.33174072 -15.56227051 44.6595752 -15.38305664 43.96704102 C-14.87256879 41.67962431 -14.87256879 41.67962431 -15 38 C-17.22307632 35.69662629 -17.22307632 35.69662629 -20.125 33.5625 C-21.12402344 32.78003906 -22.12304688 31.99757812 -23.15234375 31.19140625 C-24.09207031 30.46824219 -25.03179687 29.74507812 -26 29 C-28.0346029 27.36539465 -30.02566026 25.70753707 -32 24 C-32 23.67 -32 23.34 -32 23 C-23.97667603 22.09958689 -16.07029553 21.88452677 -8 22 C-7.608125 20.783125 -7.21625 19.56625 -6.8125 18.3125 C-4.75722085 12.12690026 -2.37323244 6.06909639 0 0 Z " fill="#F89C00" transform="translate(88,169)"/>
<path d="M0 0 C1.24523437 0.01804688 2.49046875 0.03609375 3.7734375 0.0546875 C5.18496094 0.08949219 5.18496094 0.08949219 6.625 0.125 C6.625 4.415 6.625 8.705 6.625 13.125 C3.66276042 13.22265625 0.70052083 13.3203125 -2.26171875 13.41796875 C-6.41741305 14.3617337 -7.75518243 15.77971974 -10.375 19.125 C-10.8257929 22.15078229 -10.98657986 24.59168315 -10.8984375 27.6015625 C-10.8913829 28.81215836 -10.8913829 28.81215836 -10.88418579 30.04721069 C-10.86290529 32.6156891 -10.80632677 35.18207692 -10.75 37.75 C-10.73348541 39.48435552 -10.71913927 41.21873312 -10.70703125 42.953125 C-10.87331929 51.16220609 -10.87331929 51.16220609 -9.375 59.125 C-4.095 60.115 1.185 61.105 6.625 62.125 C7.285 66.085 7.945 70.045 8.625 74.125 C-10.40688372 75.03999441 -10.40688372 75.03999441 -15.90234375 70.62109375 C-16.38832031 70.12738281 -16.87429688 69.63367188 -17.375 69.125 C-17.87128906 68.62097656 -18.36757813 68.11695313 -18.87890625 67.59765625 C-22.4056271 63.64893462 -24.61006002 60.16826792 -24.66552734 54.85058594 C-24.67828705 54.01581726 -24.69104675 53.18104858 -24.70419312 52.32098389 C-24.70753159 50.97873749 -24.70753159 50.97873749 -24.7109375 49.609375 C-24.7209227 48.21467987 -24.7209227 48.21467987 -24.73110962 46.79180908 C-24.74122735 44.82493057 -24.74592691 42.85801779 -24.74560547 40.89111328 C-24.74996433 37.89948002 -24.78625344 34.9093397 -24.82421875 31.91796875 C-24.83009015 30.00260918 -24.83405738 28.08724264 -24.8359375 26.171875 C-24.85030853 25.28514099 -24.86467957 24.39840698 -24.87948608 23.48480225 C-24.82957612 16.61160359 -23.13570082 11.38993841 -18.6640625 6.1015625 C-18.11492187 5.65554687 -17.56578125 5.20953125 -17 4.75 C-16.45601563 4.28851563 -15.91203125 3.82703125 -15.3515625 3.3515625 C-10.38547136 0.26983796 -5.74673811 -0.10842902 0 0 Z " fill="#F89A00" transform="translate(362.375,155.875)"/>
<path d="M0 0 C1.24523437 0.01804687 2.49046875 0.03609375 3.7734375 0.0546875 C5.18496094 0.08949219 5.18496094 0.08949219 6.625 0.125 C6.625 4.415 6.625 8.705 6.625 13.125 C3.66276042 13.22265625 0.70052083 13.3203125 -2.26171875 13.41796875 C-6.41741305 14.3617337 -7.75518243 15.77971974 -10.375 19.125 C-10.8257929 22.15078229 -10.98657986 24.59168315 -10.8984375 27.6015625 C-10.8913829 28.81215836 -10.8913829 28.81215836 -10.88418579 30.04721069 C-10.86290529 32.6156891 -10.80632677 35.18207692 -10.75 37.75 C-10.73348541 39.48435552 -10.71913927 41.21873312 -10.70703125 42.953125 C-10.87331929 51.16220609 -10.87331929 51.16220609 -9.375 59.125 C-4.13124664 61.09140751 1.06776277 61.61202426 6.625 62.125 C7.285 66.085 7.945 70.045 8.625 74.125 C-10.40688372 75.03999441 -10.40688372 75.03999441 -15.90234375 70.62109375 C-16.38832031 70.12738281 -16.87429687 69.63367188 -17.375 69.125 C-17.87128906 68.62097656 -18.36757812 68.11695312 -18.87890625 67.59765625 C-22.4056271 63.64893462 -24.61006002 60.16826792 -24.66552734 54.85058594 C-24.67828705 54.01581726 -24.69104675 53.18104858 -24.70419312 52.32098389 C-24.70753159 50.97873749 -24.70753159 50.97873749 -24.7109375 49.609375 C-24.7209227 48.21467987 -24.7209227 48.21467987 -24.73110962 46.79180908 C-24.74122735 44.82493057 -24.74592691 42.85801779 -24.74560547 40.89111328 C-24.74996433 37.89948002 -24.78625344 34.9093397 -24.82421875 31.91796875 C-24.83009015 30.00260918 -24.83405738 28.08724264 -24.8359375 26.171875 C-24.85030853 25.28514099 -24.86467957 24.39840698 -24.87948608 23.48480225 C-24.82957612 16.61160359 -23.13570082 11.38993841 -18.6640625 6.1015625 C-18.11492187 5.65554687 -17.56578125 5.20953125 -17 4.75 C-16.45601562 4.28851563 -15.91203125 3.82703125 -15.3515625 3.3515625 C-10.38547136 0.26983796 -5.74673811 -0.10842902 0 0 Z " fill="#F89D00" transform="translate(195.375,28.875)"/>
<path d="M0 0 C10.98906663 -0.33986804 16.85681855 0.14526368 25.421875 7.109375 C30.14953036 12.77319973 30.46713216 18.74537175 30.46875 25.80859375 C30.48017029 27.19692162 30.48017029 27.19692162 30.49182129 28.61329651 C30.50258127 30.56223872 30.50549217 32.5112384 30.50097656 34.46020508 C30.50000389 37.42562852 30.54167934 40.38846478 30.5859375 43.35351562 C30.59114516 45.25520299 30.59383268 47.15689926 30.59375 49.05859375 C30.6183429 50.37457802 30.6183429 50.37457802 30.64343262 51.71714783 C30.56591397 58.69554632 28.41630788 63.55314262 23.4864502 68.52708435 C19.4521618 72.03777209 16.06176518 74.27231093 10.671875 74.1953125 C9.47304687 74.18564453 9.47304687 74.18564453 8.25 74.17578125 C7.425 74.15902344 6.6 74.14226562 5.75 74.125 C4.90953125 74.11597656 4.0690625 74.10695313 3.203125 74.09765625 C1.13529396 74.07415817 -0.93238995 74.03828908 -3 74 C-2.01 68.06 -2.01 68.06 -1 62 C0.35544922 61.80083984 0.35544922 61.80083984 1.73828125 61.59765625 C2.91777344 61.42105469 4.09726563 61.24445313 5.3125 61.0625 C6.48425781 60.88847656 7.65601563 60.71445313 8.86328125 60.53515625 C12.01641403 60.07906969 12.01641403 60.07906969 15 59 C16.95821954 53.12534137 16.30706286 46.40467829 16.35009766 40.24023438 C16.36666642 38.50018955 16.39396889 36.76021305 16.43212891 35.02050781 C16.48696881 32.50550214 16.5087786 29.99208593 16.5234375 27.4765625 C16.54610687 26.70245026 16.56877625 25.92833801 16.59213257 25.13076782 C16.57633748 21.08114223 16.18462087 19.2343744 13.64819336 16.0144043 C10.61164604 13.70459035 8.95999924 13.32385539 5.1875 13.1875 C3.475625 13.125625 1.76375 13.06375 0 13 C0 8.71 0 4.42 0 0 Z " fill="#F89A00" transform="translate(144,156)"/>
<path d="M0 0 C16.82305822 -0.70833929 16.82305822 -0.70833929 23.8125 5.6484375 C29.47172016 11.87902123 30.32169433 17.41794015 30.37109375 25.61328125 C30.38463646 27.00585396 30.38463646 27.00585396 30.39845276 28.42655945 C30.41293243 30.38744901 30.42183631 32.34838664 30.42553711 34.30932617 C30.4374197 37.29234257 30.48661563 40.27327994 30.53710938 43.25585938 C30.54657626 45.16665664 30.55381002 47.07746653 30.55859375 48.98828125 C30.57812607 49.8718782 30.59765839 50.75547516 30.61778259 51.66584778 C30.56729031 58.67883723 28.44137068 63.52879516 23.48631287 68.52680969 C19.45258142 72.03803933 16.06158296 74.27230833 10.671875 74.1953125 C9.47304688 74.18564453 9.47304688 74.18564453 8.25 74.17578125 C7.425 74.15902344 6.6 74.14226562 5.75 74.125 C4.90953125 74.11597656 4.0690625 74.10695313 3.203125 74.09765625 C1.13529396 74.07415817 -0.93238995 74.03828908 -3 74 C-2.01 68.06 -2.01 68.06 -1 62 C0.35544922 61.80083984 0.35544922 61.80083984 1.73828125 61.59765625 C2.91777344 61.42105469 4.09726562 61.24445313 5.3125 61.0625 C6.48425781 60.88847656 7.65601563 60.71445313 8.86328125 60.53515625 C12.01641403 60.07906969 12.01641403 60.07906969 15 59 C16.95821954 53.12534137 16.30706286 46.40467829 16.35009766 40.24023438 C16.36666642 38.50018955 16.39396889 36.76021305 16.43212891 35.02050781 C16.48696881 32.50550214 16.5087786 29.99208593 16.5234375 27.4765625 C16.54610687 26.70245026 16.56877625 25.92833801 16.59213257 25.13076782 C16.57633748 21.08114223 16.18462087 19.2343744 13.64819336 16.0144043 C10.61164604 13.70459035 8.95999924 13.32385539 5.1875 13.1875 C3.475625 13.125625 1.76375 13.06375 0 13 C0 8.71 0 4.42 0 0 Z " fill="#F89D00" transform="translate(311,29)"/>
<path d="M0 0 C1.24523437 0.01804688 2.49046875 0.03609375 3.7734375 0.0546875 C5.18496094 0.08949219 5.18496094 0.08949219 6.625 0.125 C6.625 4.415 6.625 8.705 6.625 13.125 C3.8096875 13.2178125 3.8096875 13.2178125 0.9375 13.3125 C-3.34403131 13.66592829 -5.0148544 13.8637179 -8.5625 16.4375 C-12.67616546 22.53707292 -11.55888507 29.77527768 -11.5625 36.875 C-11.57474609 38.12539062 -11.58699219 39.37578125 -11.59960938 40.6640625 C-11.60993397 47.17544178 -11.3518885 52.90522434 -9.375 59.125 C-4.095 60.115 1.185 61.105 6.625 62.125 C7.285 66.085 7.945 70.045 8.625 74.125 C-10.40688372 75.03999441 -10.40688372 75.03999441 -15.90234375 70.62109375 C-16.38832031 70.12738281 -16.87429687 69.63367188 -17.375 69.125 C-17.87128906 68.62097656 -18.36757813 68.11695313 -18.87890625 67.59765625 C-22.4056271 63.64893462 -24.61006002 60.16826792 -24.66552734 54.85058594 C-24.67828705 54.01581726 -24.69104675 53.18104858 -24.70419312 52.32098389 C-24.70753159 50.97873749 -24.70753159 50.97873749 -24.7109375 49.609375 C-24.7209227 48.21467987 -24.7209227 48.21467987 -24.73110962 46.79180908 C-24.74122735 44.82493057 -24.74592691 42.85801779 -24.74560547 40.89111328 C-24.74996433 37.89948002 -24.78625344 34.9093397 -24.82421875 31.91796875 C-24.83009015 30.00260918 -24.83405738 28.08724264 -24.8359375 26.171875 C-24.85030853 25.28514099 -24.86467957 24.39840698 -24.87948608 23.48480225 C-24.82957612 16.61160359 -23.13570082 11.38993841 -18.6640625 6.1015625 C-18.11492188 5.65554687 -17.56578125 5.20953125 -17 4.75 C-16.45601562 4.28851563 -15.91203125 3.82703125 -15.3515625 3.3515625 C-10.38547136 0.26983796 -5.74673811 -0.10842902 0 0 Z " fill="#F89B00" transform="translate(28.375,155.875)"/>
<path d="M0 0 C10.98906663 -0.33986804 16.85681855 0.14526368 25.421875 7.109375 C30.14953036 12.77319973 30.46713216 18.74537175 30.46875 25.80859375 C30.48017029 27.19692162 30.48017029 27.19692162 30.49182129 28.61329651 C30.50258127 30.56223872 30.50549217 32.5112384 30.50097656 34.46020508 C30.50000389 37.42562852 30.54167934 40.38846478 30.5859375 43.35351562 C30.59114516 45.25520299 30.59383268 47.15689926 30.59375 49.05859375 C30.6183429 50.37457802 30.6183429 50.37457802 30.64343262 51.71714783 C30.56591397 58.69554632 28.41630788 63.55314262 23.4864502 68.52708435 C19.4521618 72.03777209 16.06176518 74.27231093 10.671875 74.1953125 C9.47304688 74.18564453 9.47304688 74.18564453 8.25 74.17578125 C7.425 74.15902344 6.6 74.14226562 5.75 74.125 C4.90953125 74.11597656 4.0690625 74.10695313 3.203125 74.09765625 C1.13529396 74.07415817 -0.93238995 74.03828908 -3 74 C-2.01 68.06 -2.01 68.06 -1 62 C0.35544922 61.80083984 0.35544922 61.80083984 1.73828125 61.59765625 C2.91777344 61.42105469 4.09726562 61.24445313 5.3125 61.0625 C6.48425781 60.88847656 7.65601563 60.71445313 8.86328125 60.53515625 C12.01641403 60.07906969 12.01641403 60.07906969 15 59 C17.62661062 51.84050951 17.33215615 44.48152989 17.3125 36.9375 C17.32861328 35.69677734 17.34472656 34.45605469 17.36132812 33.17773438 C17.3702184 24.16275638 17.3702184 24.16275638 14 16 C9.51581607 13.01054405 5.34658811 13.37740622 0 13 C0 8.71 0 4.42 0 0 Z " fill="#F89B00" transform="translate(478,156)"/>
</svg>
