<?xml version="1.0" encoding="UTF-8"?>
<svg version="1.1" xmlns="http://www.w3.org/2000/svg" width="512" height="512">
<path d="M0 0 C3.49948126 2.23383554 6.7853889 4.55603415 9.46875 7.74609375 C9.9740625 8.15988281 10.479375 8.57367188 11 9 C14.98485076 8.60234338 18.79723556 6.47936929 22.46484375 4.9375 C33.50836383 0.85360968 45.36984576 2.52553906 56 7 C67.42819165 12.78149669 76.42937566 21.90504114 80.74609375 34.109375 C83.75857764 45.49448654 81.7593199 56.95794562 79.125 68.1875 C78.58545826 70.57671474 78.04638726 72.96603585 77.5078125 75.35546875 C77.24983887 76.48758789 76.99186523 77.61970703 76.72607422 78.78613281 C72.65272607 96.81624547 73.03835989 110.72906833 82.8984375 126.8828125 C86.47696131 132.19073444 90.48684909 137.1370978 94.49560547 142.12304688 C115.23386484 167.99707122 115.23386484 167.99707122 117 182 C117.13148438 183.03511719 117.26296875 184.07023438 117.3984375 185.13671875 C119.2041823 203.37474121 114.17251136 219.67379373 103.26171875 234.3359375 C95.10906104 244.22715369 84.58114654 250.51644899 72 253 C70.0007676 253.05540598 67.9987181 253.07159587 66 253 C66.144375 253.77859375 66.28875 254.5571875 66.4375 255.359375 C69.96926961 276.64809734 69.82562007 299.28638828 58 318 C53.0421517 324.89469813 44.9787643 329.44767987 36.80908203 331.56884766 C33.25878624 332.1137653 29.76795632 332.10704156 26.1875 332.0625 C25.49462891 332.05798828 24.80175781 332.05347656 24.08789062 332.04882812 C22.39188932 332.03713156 20.69593297 332.01919924 19 332 C19.26478149 333.48995483 19.26478149 333.48995483 19.53491211 335.01000977 C20.1939709 338.7204128 20.85148285 342.4310886 21.50854492 346.1418457 C21.79230724 347.7431567 22.07648041 349.34439495 22.36108398 350.94555664 C22.77177089 353.25647962 23.1809447 355.56766634 23.58984375 357.87890625 C23.71592514 358.58648575 23.84200653 359.29406525 23.97190857 360.02308655 C26.1079887 372.12574869 26.1079887 372.12574869 26.4375 377.6875 C26.49808594 378.41324219 26.55867187 379.13898438 26.62109375 379.88671875 C25.80559202 382.66147622 24.28228742 383.59613467 21.85717773 385.04663086 C18.44474236 386.79838058 14.91967153 388.14362729 11.3125 389.4375 C10.48161865 389.7375293 9.6507373 390.03755859 8.79467773 390.34667969 C-21.15468664 400.9213587 -54.78363638 405.80585854 -86 398 C-87.19278564 397.70996094 -87.19278564 397.70996094 -88.40966797 397.4140625 C-103.75345941 393.56698304 -122.21882553 387.27855981 -133 375 C-133.75 372.265625 -133.75 372.265625 -134 370 C-134.66 370 -135.32 370 -136 370 C-135.45480118 364.0739259 -133.65215557 359.31621004 -131.3125 353.875 C-126.98141497 343.48274977 -123.86253675 332.8763205 -121 322 C-122.14855469 322.02320313 -123.29710937 322.04640625 -124.48046875 322.0703125 C-150.38383411 322.43680357 -150.38383411 322.43680357 -159 317 C-160.53556112 314.64377619 -161.52362644 312.7998998 -162.53515625 310.2421875 C-162.8205275 309.57782684 -163.10589874 308.91346619 -163.3999176 308.22897339 C-163.9931453 306.84270081 -164.57634992 305.45209842 -165.14971924 304.05749512 C-165.95244779 302.11506604 -166.78743553 300.19143721 -167.64013672 298.27050781 C-169.27416012 294.56923863 -170.86745018 290.85371301 -172.4375 287.125 C-172.71624969 286.46312683 -172.99499939 285.80125366 -173.28219604 285.11932373 C-191.59852548 241.40220085 -191.59852548 241.40220085 -191 222 C-186.95520612 220.03388498 -184.13114252 219.88668764 -179.6875 220.375 C-178.61886719 220.48585938 -177.55023438 220.59671875 -176.44921875 220.7109375 C-175.64097656 220.80632812 -174.83273438 220.90171875 -174 221 C-174 220.34 -174 219.68 -174 219 C-174.57363281 218.7834375 -175.14726562 218.566875 -175.73828125 218.34375 C-178.75054472 216.55408051 -180.16729282 214.35552053 -182.1875 211.5 C-186.87836741 205.00540574 -192.08748603 199.07087763 -197.640625 193.29296875 C-200.96161764 189.67614056 -202 186.91092293 -202 182 C-200.46242676 176.25972656 -197.58142283 173.23662153 -193.23046875 169.28515625 C-191 168 -191 168 -185 168 C-186.32 162.72 -187.64 157.44 -189 152 C-191.31 151.34 -193.62 150.68 -196 150 C-198.51171875 148.2734375 -198.51171875 148.2734375 -200.6875 146.375 C-204.20258722 143.25970879 -204.20258722 143.25970879 -209 143 C-211.66058775 144.15931061 -211.66058775 144.15931061 -214.375 145.75 C-215.34179688 146.29398438 -216.30859375 146.83796875 -217.3046875 147.3984375 C-219.43117513 148.66200261 -221.47415143 149.95996004 -223.5 151.375 C-226 153 -226 153 -229 153 C-228.53198701 148.00786149 -226.08284263 143.87036007 -223 140 C-222.34 140 -221.68 140 -221 140 C-220.95875 139.443125 -220.9175 138.88625 -220.875 138.3125 C-219.53069626 134.75969726 -216.99025811 133.29041047 -214 131 C-214.495 130.0409375 -214.495 130.0409375 -215 129.0625 C-216.33403979 124.97700313 -216.66225424 121.25844875 -216 117 C-214 113.9375 -214 113.9375 -212 112 C-211.05125 112.20625 -210.1025 112.4125 -209.125 112.625 C-208.09375 112.74875 -207.0625 112.8725 -206 113 C-205.01 112.01 -205.01 112.01 -204 111 C-202.33333333 110.33333333 -200.66666667 109.66666667 -199 109 C-198.01 108.01 -198.01 108.01 -197 107 C-194.125 106.5625 -194.125 106.5625 -191 107 C-188.625 109.5 -188.625 109.5 -187 112 C-186.01 111.34 -185.02 110.68 -184 110 C-183.6743294 108.05430321 -183.6743294 108.05430321 -183.875 105.9375 C-183.91625 104.638125 -183.9575 103.33875 -184 102 C-183.67 101.67 -183.34 101.34 -183 101 C-181.741875 101.144375 -180.48375 101.28875 -179.1875 101.4375 C-173.18178973 101.58117728 -169.56347033 98.3178305 -164.9921875 94.75 C-161.40497353 92.65199496 -159.08793991 92.67378036 -155 93 C-154.1875 95.6875 -154.1875 95.6875 -154 99 C-155.9375 101.4375 -155.9375 101.4375 -159 104 C-160.39616926 105.24962478 -161.79198783 106.49964146 -163.1875 107.75 C-166.7279597 110.86397985 -166.7279597 110.86397985 -169 112 C-168.56429687 112.80179687 -168.12859375 113.60359375 -167.6796875 114.4296875 C-160.25038065 128.61290967 -155.65236031 143.22543604 -153 159 C-152.34 159 -151.68 159 -151 159 C-150.34 158.34 -149.68 157.68 -149 157 C-146.3125 156.3125 -146.3125 156.3125 -143 157 C-137.74482909 161.89057771 -134.29491226 168.65604833 -130.48168945 174.68164062 C-122.75698987 187.06642109 -122.75698987 187.06642109 -111 195 C-105.97027725 195.79836869 -103.22694143 195.54130586 -99 192.6875 C-94.02925848 188.57953018 -90.60237022 183.28773633 -87 178 C-86.21689453 177.12214844 -86.21689453 177.12214844 -85.41796875 176.2265625 C-83.21194282 172.76255484 -82.5582084 168.96749099 -81.625 165 C-77.9862376 150.51360628 -73.01264018 139.34520744 -62 129 C-62.20496094 128.40832031 -62.40992188 127.81664062 -62.62109375 127.20703125 C-62.89050781 126.41683594 -63.15992188 125.62664062 -63.4375 124.8125 C-63.70433594 124.03519531 -63.97117187 123.25789063 -64.24609375 122.45703125 C-69.11667684 106.58347287 -65.87312936 88.85666324 -59.9375 73.75 C-58.19837651 68.30258674 -60.50980536 64.44727426 -62.703125 59.41796875 C-67.01734048 48.04767192 -64.98506677 35.94381254 -60.8125 24.83984375 C-55.23227406 12.55383494 -46.29133034 3.56925536 -34 -2 C-22.95425276 -5.79258605 -10.39196383 -5.51651327 0 0 Z M-43 10 C-42.01 10.495 -42.01 10.495 -41 11 C-38.86866012 10.28470721 -36.76764532 9.47778891 -34.6875 8.625 C-28.85896296 6.24573403 -24.0043613 4.86547157 -17.69921875 4.90234375 C-16.72275391 4.90556641 -15.74628906 4.90878906 -14.74023438 4.91210938 C-13.73283203 4.92048828 -12.72542969 4.92886719 -11.6875 4.9375 C-10.66076172 4.94201172 -9.63402344 4.94652344 -8.57617188 4.95117188 C-6.05072118 4.96291816 -3.52539095 4.97934435 -1 5 C-5.2533331 0.7466669 -11.51043567 0.68605919 -17.25 0.625 C-27.47262276 0.77652109 -35.071334 3.6570672 -43 10 Z M73 31 C73.99 38.92 74.98 46.84 76 55 C76.33 55 76.66 55 77 55 C77.33328851 46.43325085 77.11584616 39.04926924 74 31 C73.67 31 73.34 31 73 31 Z M-185 168 C-185.185625 168.556875 -185.37125 169.11375 -185.5625 169.6875 C-187.06349721 172.10214769 -188.10402638 172.8538115 -190.4375 174.375 C-193.93367986 176.75942392 -195.70585635 178.85874033 -197 183 C-196.69187191 185.85508689 -196.69187191 185.85508689 -195 188 C-192.88876836 189.29498406 -192.88876836 189.29498406 -190 189 C-186.86586367 187.86413851 -184.00093031 186.47807015 -181 185 C-181.99 179.39 -182.98 173.78 -184 168 C-184.33 168 -184.66 168 -185 168 Z " fill="#242020" transform="translate(376,61)"/>
<path d="M0 0 C0.8125 2.6875 0.8125 2.6875 1 6 C-0.9375 8.4375 -0.9375 8.4375 -4 11 C-5.39616926 12.24962478 -6.79198783 13.49964146 -8.1875 14.75 C-11.7279597 17.86397985 -11.7279597 17.86397985 -14 19 C-13.56429687 19.80179688 -13.12859375 20.60359375 -12.6796875 21.4296875 C-5.25038065 35.61290967 -0.65236031 50.22543604 2 66 C2.66 66 3.32 66 4 66 C4.66 65.34 5.32 64.68 6 64 C7.32 64 8.64 64 10 64 C10.23332031 64.680625 10.46664062 65.36125 10.70703125 66.0625 C15.92519164 79.92842444 26.33733914 96.99068111 38.9609375 105.2890625 C44.26148747 107.13714697 50.39536845 107.07505278 55.57421875 104.9375 C63.98195143 99.6844514 68.41241033 91.41067052 73.59570312 83.23583984 C76.76332332 78.27332451 80.08144622 73.408373 84 69 C84.33 69 84.66 69 85 69 C85.06316406 69.59425781 85.12632812 70.18851562 85.19140625 70.80078125 C86.76699884 81.46505531 92.80934673 90.12763129 101 97 C103.97463337 98.48731668 105.67278843 98.4313052 109 98 C115.92610479 94.44562979 119.93578324 88.42654275 124 82 C123.27296875 82.63615234 123.27296875 82.63615234 122.53125 83.28515625 C121.12195239 84.51829166 119.70892128 85.74716813 118.29296875 86.97265625 C116.78805191 88.3032386 115.3099083 89.66485983 113.86328125 91.05859375 C113.18652344 91.69925781 112.50976562 92.33992188 111.8125 93 C111.20019531 93.598125 110.58789062 94.19625 109.95703125 94.8125 C108 96 108 96 105.40625 95.8046875 C98.47191864 93.48573903 93.78691637 84.81830859 90 79 C88.23860456 75.14197581 87.36460741 72.2662074 88 68 C90.17292291 65.24763098 91.9313632 64.23826511 95.34765625 63.4765625 C98.14879511 63.23151566 100.2793381 63.27038792 103 64 C104.90798892 65.78078966 106.11729434 67.6126402 107.49609375 69.82421875 C110.51107931 74.18615889 115.00231577 77.33410526 120 79 C134.56847902 80.06156973 134.56847902 80.06156973 147.2578125 74.01953125 C148.01835937 73.29121094 148.77890625 72.56289062 149.5625 71.8125 C154.19938213 67.43322243 154.19938213 67.43322243 158.0625 67.3125 C163.7985772 68.31403729 168.18035089 69.35787763 172.5625 73.3125 C174 76 174 76 174.0625 78.9375 C171.06220917 87.58539709 163.36563045 91.31708952 156 96 C154.45119141 97.08861328 154.45119141 97.08861328 152.87109375 98.19921875 C149.55975995 100.27612335 147.75955989 100.78804628 143.94921875 100.5703125 C138.44841533 98.96085899 135.81768924 92.80373404 133.25 88.125 C132.66992188 86.98417969 132.66992188 86.98417969 132.078125 85.8203125 C131.12546285 83.83703334 131.12546285 83.83703334 129 83 C131.3874655 90.1030806 134.87428113 99.43714056 142 103 C153.24300597 103.57167827 162.50189925 95.01373711 170.8125 88.25 C173.81720611 85.50600591 175.20518309 83.07343667 176 79 C192.58769571 94.79090683 204.51002483 121.26730466 212.25 142.5625 C212.60155151 143.51600342 212.60155151 143.51600342 212.96020508 144.48876953 C216.89794685 155.7891135 218.50268292 167.02389337 218.39111328 178.95898438 C218.37500492 180.99937724 218.39108313 183.03779073 218.41015625 185.078125 C218.43369852 199.12420096 216.5376576 214.03586096 207.18359375 225.16015625 C199.04330957 232.90575999 189.60398978 234.73712769 178.6875 234.625 C177.55103027 234.615896 176.41456055 234.60679199 175.24365234 234.59741211 C151.42496045 233.95920314 120.15216603 222.26184682 102.99609375 205.171875 C102.33738281 204.45515625 101.67867187 203.7384375 101 203 C104.16695805 190.42765398 108.87277729 179.41345406 115 168 C114.67 167.67 114.34 167.34 114 167 C113.34 167.99 112.68 168.98 112 170 C104.49159709 172.14082562 97.85314078 168.46158082 91.40625 164.95703125 C88.38960843 163.22384613 85.44169738 161.41878193 82.5 159.5625 C78.8554967 157.30866244 76.38251549 156.23305979 72 157 C71.34 157.33 70.68 157.66 70 158 C68.42752789 153.49967304 66.86111648 148.99730019 65.30029297 144.49291992 C64.76842799 142.96076587 64.23490915 141.4291849 63.69970703 139.89819336 C62.93086565 137.69793764 62.16798853 135.49569199 61.40625 133.29296875 C61.16563843 132.60849167 60.92502686 131.92401459 60.67712402 131.21879578 C59.68774761 128.34162782 59 126.06690063 59 123 C45.43489298 124.40434093 45.43489298 124.40434093 31.96875 126.53515625 C21.10917613 128.2355369 10.33813522 128.11633048 -0.625 128.0625 C-2.410155 128.0574755 -4.19531136 128.05291428 -5.98046875 128.04882812 C-10.3203467 128.03789651 -14.66015802 128.0206841 -19 128 C-19 127.34 -19 126.68 -19 126 C-19.57363281 125.7834375 -20.14726562 125.566875 -20.73828125 125.34375 C-23.75054472 123.55408051 -25.16729282 121.35552053 -27.1875 118.5 C-31.87836741 112.00540574 -37.08748603 106.07087763 -42.640625 100.29296875 C-45.96161764 96.67614056 -47 93.91092293 -47 89 C-45.46242676 83.25972656 -42.58142283 80.23662153 -38.23046875 76.28515625 C-36 75 -36 75 -30 75 C-31.32 69.72 -32.64 64.44 -34 59 C-36.31 58.34 -38.62 57.68 -41 57 C-43.51171875 55.2734375 -43.51171875 55.2734375 -45.6875 53.375 C-49.20258722 50.25970879 -49.20258722 50.25970879 -54 50 C-56.66058775 51.15931061 -56.66058775 51.15931061 -59.375 52.75 C-60.34179688 53.29398438 -61.30859375 53.83796875 -62.3046875 54.3984375 C-64.43117513 55.66200261 -66.47415143 56.95996004 -68.5 58.375 C-71 60 -71 60 -74 60 C-73.53198701 55.00786149 -71.08284263 50.87036007 -68 47 C-67.34 47 -66.68 47 -66 47 C-65.938125 46.1646875 -65.938125 46.1646875 -65.875 45.3125 C-64.53069626 41.75969726 -61.99025811 40.29041047 -59 38 C-59.495 37.0409375 -59.495 37.0409375 -60 36.0625 C-61.33403979 31.97700313 -61.66225424 28.25844875 -61 24 C-59 20.9375 -59 20.9375 -57 19 C-55.576875 19.309375 -55.576875 19.309375 -54.125 19.625 C-52.578125 19.810625 -52.578125 19.810625 -51 20 C-50.34 19.34 -49.68 18.68 -49 18 C-47.33333333 17.33333333 -45.66666667 16.66666667 -44 16 C-43.34 15.34 -42.68 14.68 -42 14 C-39.125 13.5625 -39.125 13.5625 -36 14 C-33.625 16.5 -33.625 16.5 -32 19 C-31.01 18.34 -30.02 17.68 -29 17 C-28.6743294 15.05430321 -28.6743294 15.05430321 -28.875 12.9375 C-28.91625 11.638125 -28.9575 10.33875 -29 9 C-28.67 8.67 -28.34 8.34 -28 8 C-26.741875 8.144375 -25.48375 8.28875 -24.1875 8.4375 C-18.18178973 8.58117728 -14.56347033 5.3178305 -9.9921875 1.75 C-6.40497353 -0.34800504 -4.08793991 -0.32621964 0 0 Z M-30 75 C-30.185625 75.556875 -30.37125 76.11375 -30.5625 76.6875 C-32.06349721 79.10214769 -33.10402638 79.8538115 -35.4375 81.375 C-38.93367986 83.75942392 -40.70585635 85.85874033 -42 90 C-41.69187191 92.85508689 -41.69187191 92.85508689 -40 95 C-37.88876836 96.29498406 -37.88876836 96.29498406 -35 96 C-31.86586367 94.86413851 -29.00093031 93.47807015 -26 92 C-26.99 86.39 -27.98 80.78 -29 75 C-29.33 75 -29.66 75 -30 75 Z " fill="#F0D02D" transform="translate(221,154)"/>
<path d="M0 0 C0.17539307 0.65782471 0.35078613 1.31564941 0.53149414 1.9934082 C3.60387924 13.43796806 6.72492269 24.84784084 10.75 36 C11.17164429 37.19943237 11.17164429 37.19943237 11.60180664 38.4230957 C12.3080618 40.31940867 13.14287195 42.16693407 14 44 C15.485 44.495 15.485 44.495 17 45 C16.01 41.37 15.02 37.74 14 34 C21.63419118 32.78546958 26.73033616 37.09196557 33 41 C39.12912353 44.63985856 44.94903335 46.01493848 52 47 C51.54109375 48.08796875 51.0821875 49.1759375 50.609375 50.296875 C49.98935879 51.78115622 49.36958009 53.26553668 48.75 54.75 C48.44964844 55.46027344 48.14929688 56.17054688 47.83984375 56.90234375 C45.23527284 63.16439722 43.08482879 69.54826307 41 76 C36.98397619 76.07551829 32.96824073 76.12922898 28.95166016 76.16479492 C26.93246888 76.18687167 24.91347358 76.22503657 22.89453125 76.26367188 C-1.10799799 76.44103047 -1.10799799 76.44103047 -9 69 C-9.875 66.75 -9.875 66.75 -10 65 C-7.16872542 65.91825122 -4.37604498 66.83661064 -1.64453125 68.0234375 C6.43135457 71.38739585 15.51778392 72.82740536 24 70 C22.90042969 69.97421875 21.80085938 69.9484375 20.66796875 69.921875 C7.46333973 69.474438 -2.207819 66.99420815 -13 59 C-12.67 57.68 -12.34 56.36 -12 55 C-12.66 55 -13.32 55 -14 55 C-14.25069913 57.37429296 -14.25069913 57.37429296 -14 60 C-13.525625 60.433125 -13.05125 60.86625 -12.5625 61.3125 C-11 63 -11 63 -10.75 66.9375 C-10.62230875 69.05777403 -10.62230875 69.05777403 -10 71 C0.42903715 78.92606823 14.56598257 78.15724345 27.0625 78.5625 C28.93325195 78.62727539 28.93325195 78.62727539 30.84179688 78.69335938 C33.89444091 78.79862296 36.94715523 78.90075941 40 79 C40 79.66 40 80.32 40 81 C41.11181641 81.41185547 41.11181641 81.41185547 42.24609375 81.83203125 C44.80159498 82.91585376 46.80132924 84.09727393 49.0625 85.6875 C67.76533842 98.31878076 89.59335343 108.29260111 112.05859375 111.640625 C114 112 114 112 115 113 C115.36269036 115.61483751 115.66849437 118.21490089 115.9375 120.83984375 C116.06499634 122.03402672 116.06499634 122.03402672 116.19506836 123.25233459 C116.4674987 125.81363944 116.73378515 128.37554243 117 130.9375 C117.1792918 132.63090132 117.35897466 134.32426128 117.5390625 136.01757812 C118.38635148 144.00902705 119.21254546 152.00241483 120 160 C106.64996983 167.36102806 92.71233981 171.73581931 77.9375 175.3125 C77.28418701 175.47194092 76.63087402 175.63138184 75.95776367 175.7956543 C66.29551218 178.01111679 56.59616786 178.18649625 46.71508789 178.18530273 C44.70111808 178.18748524 42.68770143 178.20570092 40.67382812 178.22460938 C32.25232554 178.23702437 24.27255892 177.56641422 16 176 C14.83803101 175.78887573 14.83803101 175.78887573 13.65258789 175.57348633 C2.71413527 173.4803653 -7.01944067 169.85852725 -17 165 C-17.65758301 164.6803125 -18.31516602 164.360625 -18.99267578 164.03125 C-23.01670201 162.06240461 -27.01262102 160.04218464 -31 158 C-31.7734375 157.65839844 -32.546875 157.31679688 -33.34375 156.96484375 C-35 156 -35 156 -35.75 153.375 C-35.8325 152.59125 -35.915 151.8075 -36 151 C-36.66 151 -37.32 151 -38 151 C-37.45480118 145.0739259 -35.65215557 140.31621004 -33.3125 134.875 C-28.98141497 124.48274977 -25.86253675 113.8763205 -23 103 C-24.14855469 103.02320313 -25.29710937 103.04640625 -26.48046875 103.0703125 C-52.38383411 103.43680357 -52.38383411 103.43680357 -61 98 C-62.53556112 95.64377619 -63.52362644 93.7998998 -64.53515625 91.2421875 C-64.8205275 90.57782684 -65.10589874 89.91346619 -65.3999176 89.22897339 C-65.9931453 87.84270081 -66.57634992 86.45209842 -67.14971924 85.05749512 C-67.95244779 83.11506604 -68.78743553 81.19143721 -69.64013672 79.27050781 C-71.27416012 75.56923863 -72.86745018 71.85371301 -74.4375 68.125 C-74.71624969 67.46312683 -74.99499939 66.80125366 -75.28219604 66.11932373 C-93.59852548 22.40220085 -93.59852548 22.40220085 -93 3 C-90.5723163 3 -88.35773175 3.15471276 -85.95703125 3.4375 C-72.26498859 4.95853709 -58.76789769 5.32035966 -45 5 C-43.90510254 4.97897217 -43.90510254 4.97897217 -42.78808594 4.95751953 C-32.5215034 4.71235496 -22.53291216 3.09131745 -12.42602539 1.37207031 C-11.39340576 1.19643555 -10.36078613 1.02080078 -9.296875 0.83984375 C-8.37229492 0.67863037 -7.44771484 0.51741699 -6.49511719 0.35131836 C-4 0 -4 0 0 0 Z " fill="#F0D12D" transform="translate(278,280)"/>
<path d="M0 0 C0.17539307 0.65782471 0.35078613 1.31564941 0.53149414 1.9934082 C3.60387924 13.43796806 6.72492269 24.84784084 10.75 36 C11.17164429 37.19943237 11.17164429 37.19943237 11.60180664 38.4230957 C12.3080618 40.31940867 13.14287195 42.16693407 14 44 C15.485 44.495 15.485 44.495 17 45 C16.01 41.37 15.02 37.74 14 34 C21.63419118 32.78546958 26.73033616 37.09196557 33 41 C39.12912353 44.63985856 44.94903335 46.01493848 52 47 C51.54109375 48.08796875 51.0821875 49.1759375 50.609375 50.296875 C49.98935879 51.78115622 49.36958009 53.26553668 48.75 54.75 C48.44964844 55.46027344 48.14929688 56.17054688 47.83984375 56.90234375 C45.23527284 63.16439722 43.08482879 69.54826307 41 76 C36.98397619 76.07551829 32.96824073 76.12922898 28.95166016 76.16479492 C26.93246888 76.18687167 24.91347358 76.22503657 22.89453125 76.26367188 C-1.10799799 76.44103047 -1.10799799 76.44103047 -9 69 C-9.875 66.75 -9.875 66.75 -10 65 C-7.16872542 65.91825122 -4.37604498 66.83661064 -1.64453125 68.0234375 C6.43135457 71.38739585 15.51778392 72.82740536 24 70 C22.90042969 69.97421875 21.80085938 69.9484375 20.66796875 69.921875 C7.46333973 69.474438 -2.207819 66.99420815 -13 59 C-12.67 57.68 -12.34 56.36 -12 55 C-12.66 55 -13.32 55 -14 55 C-14.25069913 57.37429296 -14.25069913 57.37429296 -14 60 C-13.525625 60.433125 -13.05125 60.86625 -12.5625 61.3125 C-11 63 -11 63 -10.75 66.9375 C-10.62230875 69.05777403 -10.62230875 69.05777403 -10 71 C-2.31036153 76.84412524 6.59050474 77.41715803 15.9375 78.125 C17.00291016 78.21136719 18.06832031 78.29773438 19.16601562 78.38671875 C21.77690827 78.59746345 24.38813684 78.80171135 27 79 C26.80535156 79.72574219 26.61070312 80.45148438 26.41015625 81.19921875 C25.95501046 84.30721431 26.35068064 85.8998241 27.4375 88.8125 C27.86869141 89.99779297 27.86869141 89.99779297 28.30859375 91.20703125 C28.53675781 91.79871094 28.76492188 92.39039063 29 93 C25.08570064 93.82418252 21.1682066 94.63211552 17.25 95.4375 C16.15816406 95.66759766 15.06632812 95.89769531 13.94140625 96.13476562 C-0.80804665 99.14574861 -15.26214618 99.12772879 -30.25 99.0625 C-32.26692597 99.05747471 -34.28385316 99.05291362 -36.30078125 99.04882812 C-41.20055122 99.03790468 -46.10026196 99.02069684 -51 99 C-51 99.66 -51 100.32 -51 101 C-52.4415018 100.7975249 -53.87835746 100.56181665 -55.3125 100.3125 C-56.11300781 100.18488281 -56.91351563 100.05726563 -57.73828125 99.92578125 C-64.2036954 97.27931639 -66.91126394 85.46018463 -69.625 79.25 C-69.93646973 78.53781311 -70.24793945 77.82562622 -70.56884766 77.09185791 C-93.42455989 24.65255461 -93.42455989 24.65255461 -93 3 C-90.5723163 3 -88.35773175 3.15471276 -85.95703125 3.4375 C-72.26498859 4.95853709 -58.76789769 5.32035966 -45 5 C-43.90510254 4.97897217 -43.90510254 4.97897217 -42.78808594 4.95751953 C-32.5215034 4.71235496 -22.53291216 3.09131745 -12.42602539 1.37207031 C-11.39340576 1.19643555 -10.36078613 1.02080078 -9.296875 0.83984375 C-8.37229492 0.67863037 -7.44771484 0.51741699 -6.49511719 0.35131836 C-4 0 -4 0 0 0 Z " fill="#EFE9CC" transform="translate(278,280)"/>
<path d="M0 0 C2.0962339 4.28145886 2.29211875 8.18631049 2.265625 12.86328125 C2.26753845 13.6140947 2.2694519 14.36490814 2.27142334 15.13847351 C2.27278021 16.72277157 2.26911864 18.30708093 2.26074219 19.89135742 C2.25008045 22.29436774 2.26063077 24.69662283 2.2734375 27.09960938 C2.27211494 28.64583496 2.26955055 30.19206008 2.265625 31.73828125 C2.26967346 32.44688797 2.27372192 33.15549469 2.27789307 33.88557434 C2.22983582 39.09951716 1.32534854 42.69860583 0 48 C-56.1 48 -112.2 48 -170 48 C-169 17 -169 17 -167 3 C-155.34465087 1.49697634 -143.73789591 0.44192218 -132 -0.125 C-131.14628815 -0.16702545 -130.29257629 -0.2090509 -129.41299438 -0.25234985 C-86.33870941 -2.30206097 -43.08872521 -1.02236137 0 0 Z " fill="#EE3D2D" transform="translate(245,70)"/>
<path d="M0 0 C0.08636719 0.71542969 0.17273438 1.43085937 0.26171875 2.16796875 C2.20999151 15.98461872 6.98780159 26.35207971 16 37 C16.54269531 37.65613281 17.08539063 38.31226563 17.64453125 38.98828125 C23.03713519 44.92697167 30.21534321 48.85016138 37 53 C35.76831031 55.56324611 34.48763274 57.75348126 32.875 60.125 C30.81791074 62.70713977 30.81791074 62.70713977 31 65 C31.53625 64.0925 32.0725 63.185 32.625 62.25 C34.96902634 58.81535029 37.18943027 56.83471876 41 55 C46.0096454 54.13959541 49.68843679 54.23929334 54.125 56.8125 C56.92811517 61.57779579 57.13790613 65.61943722 56 71 C54.30094986 74.56386127 52.26344436 76.78532977 49 79 C45.88671875 80.0625 45.88671875 80.0625 42.5 80.9375 C36.42419467 82.51887399 34.09999705 84.42610734 30.65625 89.56640625 C23.31032394 100.36006648 10.86939431 109.37703644 -2 112 C-13.2943555 113.34523979 -23.54449002 113.01038629 -33 106 C-37.75868229 101.84221039 -40.48056975 96.72044549 -43 91 C-43.5878125 89.7625 -43.5878125 89.7625 -44.1875 88.5 C-49.60245029 71.83861448 -45.74460495 52.92678624 -38.25 37.625 C-34.90719055 31.09927515 -30.84603409 25.50778244 -26 20 C-25.33742188 19.15566406 -24.67484375 18.31132813 -23.9921875 17.44140625 C-19.12674019 11.47884827 -8.05104074 0 0 0 Z " fill="#FBCBB8" transform="translate(360,94)"/>
<path d="M0 0 C0.84670258 -0.0025882 1.69340515 -0.00517639 2.56576538 -0.00784302 C12.11774415 -0.03088997 21.64506024 0.12379939 31.1875 0.5703125 C32.05576416 0.60905487 32.92402832 0.64779724 33.81860352 0.68771362 C39.87741422 1.00241422 39.87741422 1.00241422 41 2.125 C41.10320628 3.51565257 41.13849362 4.91144764 41.14526367 6.3059082 C41.15164352 7.19385574 41.15802338 8.08180328 41.16459656 8.99665833 C41.16570938 9.96326889 41.1668222 10.92987946 41.16796875 11.92578125 C41.17296135 13.40766182 41.17296135 13.40766182 41.17805481 14.91947937 C41.18312935 17.01524387 41.18546297 19.11101648 41.18530273 21.20678711 C41.1874836 24.41338476 41.20561827 27.61963543 41.22460938 30.82617188 C41.2275443 32.85937382 41.22952843 34.8925774 41.23046875 36.92578125 C41.23765427 37.88631912 41.24483978 38.84685699 41.25224304 39.83650208 C41.24916641 40.7339061 41.24608978 41.63131012 41.24291992 42.5559082 C41.24434494 43.34342972 41.24576996 44.13095123 41.24723816 44.94233704 C41 47.125 41 47.125 39 51.125 C5.67 50.795 -27.66 50.465 -62 50.125 C-62.33 48.805 -62.66 47.485 -63 46.125 C-63.66 46.125 -64.32 46.125 -65 46.125 C-66.27428125 42.30215626 -65.96600641 38.84262126 -65.765625 34.87890625 C-65.72693298 34.07138412 -65.68824097 33.263862 -65.64837646 32.43186951 C-65.56398157 30.72452197 -65.47635529 29.01733155 -65.38574219 27.31030273 C-65.25072353 24.70148005 -65.13670564 22.09226748 -65.0234375 19.48242188 C-64.93879297 17.82285022 -64.85289681 16.16334182 -64.765625 14.50390625 C-64.73422424 13.72463272 -64.70282349 12.94535919 -64.67047119 12.14247131 C-64.48616227 9.01325162 -64.17278181 6.479358 -62.79125977 3.64599609 C-60.36065031 1.58211482 -58.74139612 1.54524912 -55.57421875 1.41015625 C-54.49833496 1.3548877 -53.42245117 1.29961914 -52.31396484 1.24267578 C-51.22035645 1.20384277 -50.12674805 1.16500977 -49 1.125 C-48.02885254 1.0719873 -47.05770508 1.01897461 -46.05712891 0.96435547 C-30.71574397 0.14391929 -15.3592919 0.02127691 0 0 Z " fill="#5D61B9" transform="translate(84,243.875)"/>
<path d="M0 0 C0.8125 2.6875 0.8125 2.6875 1 6 C-0.9375 8.4375 -0.9375 8.4375 -4 11 C-5.39616926 12.24962478 -6.79198783 13.49964146 -8.1875 14.75 C-11.7279597 17.86397985 -11.7279597 17.86397985 -14 19 C-13.56429687 19.80179688 -13.12859375 20.60359375 -12.6796875 21.4296875 C-5.56781924 35.00689054 2.65316179 52.89717862 1.87109375 68.5859375 C-1.28202998 77.3241907 -13.5052736 85.26515596 -21 90 C-21.99 90.33 -22.98 90.66 -24 91 C-24.07516846 90.45174561 -24.15033691 89.90349121 -24.2277832 89.33862305 C-26.25473374 74.4905389 -26.25473374 74.4905389 -30 60 C-31.918125 59.7215625 -31.918125 59.7215625 -33.875 59.4375 C-39.03659059 58.3203785 -42.57854911 55.81791436 -46.73828125 52.65625 C-48.80868117 51.14010222 -50.58891869 49.87810986 -53 49 C-55.55920845 50.20126111 -57.66268917 51.44036846 -60 53 C-61.91335931 54.25505667 -63.83021132 55.50480021 -65.75 56.75 C-67.13445312 57.67039062 -67.13445312 57.67039062 -68.546875 58.609375 C-71 60 -71 60 -74 60 C-73.53198701 55.00786149 -71.08284263 50.87036007 -68 47 C-67.34 47 -66.68 47 -66 47 C-65.938125 46.1646875 -65.938125 46.1646875 -65.875 45.3125 C-64.53069626 41.75969726 -61.99025811 40.29041047 -59 38 C-59.495 37.0409375 -59.495 37.0409375 -60 36.0625 C-61.33403979 31.97700313 -61.66225424 28.25844875 -61 24 C-59 20.9375 -59 20.9375 -57 19 C-55.576875 19.309375 -55.576875 19.309375 -54.125 19.625 C-52.578125 19.810625 -52.578125 19.810625 -51 20 C-50.34 19.34 -49.68 18.68 -49 18 C-47.33333333 17.33333333 -45.66666667 16.66666667 -44 16 C-43.34 15.34 -42.68 14.68 -42 14 C-39.125 13.5625 -39.125 13.5625 -36 14 C-33.625 16.5 -33.625 16.5 -32 19 C-31.01 18.34 -30.02 17.68 -29 17 C-28.6743294 15.05430321 -28.6743294 15.05430321 -28.875 12.9375 C-28.91625 11.638125 -28.9575 10.33875 -29 9 C-28.67 8.67 -28.34 8.34 -28 8 C-26.741875 8.144375 -25.48375 8.28875 -24.1875 8.4375 C-18.18178973 8.58117728 -14.56347033 5.3178305 -9.9921875 1.75 C-6.40497353 -0.34800504 -4.08793991 -0.32621964 0 0 Z " fill="#FACAB7" transform="translate(221,154)"/>
<path d="M0 0 C7.63419118 -1.21453042 12.73033616 3.09196557 19 7 C25.12912353 10.63985856 30.94903335 12.01493848 38 13 C37.54109375 14.08796875 37.0821875 15.1759375 36.609375 16.296875 C35.98935879 17.78115622 35.36958009 19.26553668 34.75 20.75 C34.44964844 21.46027344 34.14929688 22.17054688 33.83984375 22.90234375 C31.23527284 29.16439722 29.08482879 35.54826307 27 42 C22.98397619 42.07551829 18.96824073 42.12922898 14.95166016 42.16479492 C12.93246888 42.18687167 10.91347358 42.22503657 8.89453125 42.26367188 C-15.10799799 42.44103047 -15.10799799 42.44103047 -23 35 C-23.875 32.75 -23.875 32.75 -24 31 C-21.16872542 31.91825122 -18.37604498 32.83661064 -15.64453125 34.0234375 C-7.56864543 37.38739585 1.51778392 38.82740536 10 36 C8.90042969 35.97421875 7.80085938 35.9484375 6.66796875 35.921875 C-6.53666027 35.474438 -16.207819 32.99420815 -27 25 C-26.814375 24.38125 -26.62875 23.7625 -26.4375 23.125 C-25.76313824 20.95839822 -25.76313824 20.95839822 -27 19 C-26.39421747 16.98072489 -25.73080266 14.97746603 -25 13 C-24.21625 12.9175 -23.4325 12.835 -22.625 12.75 C-19.85250896 12.27193661 -19.85250896 12.27193661 -18.6875 9.9375 C-18.3471875 8.9784375 -18.3471875 8.9784375 -18 8 C-13.04891007 8.52116736 -8.90738186 10.13892856 -4.3671875 12.0625 C-2.25053379 12.9007787 -0.21905807 13.50914845 2 14 C1.67 13.01 1.34 12.02 1 11 C1.66 11 2.32 11 3 11 C2.01 7.37 1.02 3.74 0 0 Z " fill="#F7C7B5" transform="translate(292,314)"/>
<path d="M0 0 C2.0962339 4.28145886 2.29211875 8.18631049 2.265625 12.86328125 C2.26753845 13.6140947 2.2694519 14.36490814 2.27142334 15.13847351 C2.27278021 16.72277157 2.26911864 18.30708093 2.26074219 19.89135742 C2.25008045 22.29436774 2.26063077 24.69662283 2.2734375 27.09960938 C2.27211494 28.64583496 2.26955055 30.19206008 2.265625 31.73828125 C2.26967346 32.44688797 2.27372192 33.15549469 2.27789307 33.88557434 C2.22983582 39.09951716 1.32534854 42.69860583 0 48 C-56.1 48 -112.2 48 -170 48 C-169 17 -169 17 -168 8 C-167.01 7.67 -166.02 7.34 -165 7 C-165 19.54 -165 32.08 -165 45 C-159.555 44.505 -159.555 44.505 -154 44 C-128.67242162 42.56483794 -103.27824109 42.84558071 -77.92089844 42.86962891 C-71.80812415 42.87537043 -65.69539338 42.87200467 -59.58262062 42.86605644 C-54.81421587 42.86242604 -50.0458213 42.8636 -45.27741623 42.86618423 C-43.02345143 42.86684431 -40.76948567 42.86605781 -38.515522 42.86370468 C-26.63360285 42.85400021 -14.84269447 42.9621016 -3 44 C-3.02320313 42.70449219 -3.04640625 41.40898438 -3.0703125 40.07421875 C-3.08911425 38.27865174 -3.10730957 36.48307831 -3.125 34.6875 C-3.14175781 33.84509766 -3.15851563 33.00269531 -3.17578125 32.13476562 C-3.2223943 25.72547115 -2.68775413 19.45918695 -1.98779297 13.09692383 C-1.89328354 12.21980995 -1.79877411 11.34269608 -1.70140076 10.43900299 C-1.46979083 8.2924312 -1.23519866 6.14618154 -1 4 C-16.33517971 3.97651287 -31.67035858 3.95894387 -47.00555229 3.94818783 C-54.12789389 3.94305817 -61.25022423 3.93607992 -68.37255859 3.92456055 C-74.58918997 3.91451092 -80.80581319 3.90812244 -87.02245247 3.90591151 C-90.30609594 3.90462163 -93.58971099 3.90110075 -96.87334824 3.89426994 C-109.70792408 3.86865624 -122.49050528 3.88939117 -135.29870605 4.77514648 C-141.40750053 5.1462556 -147.50607468 5.10759412 -153.625 5.0625 C-154.8315625 5.05798828 -156.038125 5.05347656 -157.28125 5.04882812 C-160.18755814 5.03729516 -163.09374789 5.02103166 -166 5 C-166.33 4.34 -166.66 3.68 -167 3 C-155.34465087 1.49697634 -143.73789591 0.44192218 -132 -0.125 C-131.14628815 -0.16702545 -130.29257629 -0.2090509 -129.41299438 -0.25234985 C-86.33870941 -2.30206097 -43.08872521 -1.02236137 0 0 Z " fill="#2B2020" transform="translate(245,70)"/>
<path d="M0 0 C0.8125 2.6875 0.8125 2.6875 1 6 C-0.9375 8.4375 -0.9375 8.4375 -4 11 C-5.39616926 12.24962478 -6.79198783 13.49964146 -8.1875 14.75 C-11.7279597 17.86397985 -11.7279597 17.86397985 -14 19 C-13.56429687 19.80179688 -13.12859375 20.60359375 -12.6796875 21.4296875 C-5.61692569 34.91314187 -0.55899225 48.78638597 1 64 C0.34 64 -0.32 64 -1 64 C-1.27710815 62.99924438 -1.27710815 62.99924438 -1.55981445 61.97827148 C-5.99896991 46.19235952 -11.46691766 31.61014585 -19.00366211 17.03930664 C-20 15 -20 15 -21 12 C-23.475 11.505 -23.475 11.505 -26 11 C-25.06550045 13.68857637 -24.12749579 16.37584536 -23.1875 19.0625 C-22.92646484 19.81466797 -22.66542969 20.56683594 -22.39648438 21.34179688 C-21.14485287 24.9112645 -19.84886147 28.41739148 -18.3125 31.875 C-17.03961563 34.90567706 -16.70589901 36.76488914 -17 40 C-19.9777759 37.50003341 -20.94548483 34.95288929 -22.1875 31.3125 C-22.53167969 30.31863281 -22.87585938 29.32476562 -23.23046875 28.30078125 C-23.48441406 27.54152344 -23.73835938 26.78226563 -24 26 C-26.64 27.98 -29.28 29.96 -32 32 C-31.34 33.32 -30.68 34.64 -30 36 C-29.67 36.99 -29.34 37.98 -29 39 C-29.5775 38.690625 -30.155 38.38125 -30.75 38.0625 C-33.75782853 36.58428639 -33.75782853 36.58428639 -37 36 C-39.27144074 37.85432087 -39.27144074 37.85432087 -41 40 C-40.01 40.78375 -39.02 41.5675 -38 42.375 C-37.01 43.24125 -36.02 44.1075 -35 45 C-35 45.66 -35 46.32 -35 47 C-38.37503669 45.8141763 -40.64722731 44.72426311 -43 42 C-44.65 42.66 -46.3 43.32 -48 44 C-44.3788632 47.73429732 -40.57033447 51.11789123 -36.57421875 54.44921875 C-35.79498047 55.21685547 -35.79498047 55.21685547 -35 56 C-35 56.66 -35 57.32 -35 58 C-40.74789904 57.85261797 -43.70774267 55.10921384 -47.8515625 51.49609375 C-50.1107493 49.61902809 -50.1107493 49.61902809 -54 50 C-56.66058775 51.15931061 -56.66058775 51.15931061 -59.375 52.75 C-60.34179688 53.29398438 -61.30859375 53.83796875 -62.3046875 54.3984375 C-64.43117513 55.66200261 -66.47415143 56.95996004 -68.5 58.375 C-71 60 -71 60 -74 60 C-73.53198701 55.00786149 -71.08284263 50.87036007 -68 47 C-67.34 47 -66.68 47 -66 47 C-65.938125 46.1646875 -65.938125 46.1646875 -65.875 45.3125 C-64.53069626 41.75969726 -61.99025811 40.29041047 -59 38 C-59.495 37.0409375 -59.495 37.0409375 -60 36.0625 C-61.33403979 31.97700313 -61.66225424 28.25844875 -61 24 C-59 20.9375 -59 20.9375 -57 19 C-55.576875 19.309375 -55.576875 19.309375 -54.125 19.625 C-52.578125 19.810625 -52.578125 19.810625 -51 20 C-50.34 19.34 -49.68 18.68 -49 18 C-47.33333333 17.33333333 -45.66666667 16.66666667 -44 16 C-43.34 15.34 -42.68 14.68 -42 14 C-39.125 13.5625 -39.125 13.5625 -36 14 C-33.625 16.5 -33.625 16.5 -32 19 C-31.01 18.34 -30.02 17.68 -29 17 C-28.6743294 15.05430321 -28.6743294 15.05430321 -28.875 12.9375 C-28.91625 11.638125 -28.9575 10.33875 -29 9 C-28.67 8.67 -28.34 8.34 -28 8 C-26.741875 8.144375 -25.48375 8.28875 -24.1875 8.4375 C-18.18178973 8.58117728 -14.56347033 5.3178305 -9.9921875 1.75 C-6.40497353 -0.34800504 -4.08793991 -0.32621964 0 0 Z " fill="#262224" transform="translate(221,154)"/>
<path d="M0 0 C1.26937408 -0.00388229 1.26937408 -0.00388229 2.56439209 -0.00784302 C12.11682994 -0.03088968 21.64460154 0.12377792 31.1875 0.5703125 C32.05576416 0.60905487 32.92402832 0.64779724 33.81860352 0.68771362 C39.87741422 1.00241422 39.87741422 1.00241422 41 2.125 C41.10320628 3.51565257 41.13849362 4.91144764 41.14526367 6.3059082 C41.15164352 7.19385574 41.15802338 8.08180328 41.16459656 8.99665833 C41.16570938 9.96326889 41.1668222 10.92987946 41.16796875 11.92578125 C41.17296135 13.40766182 41.17296135 13.40766182 41.17805481 14.91947937 C41.18312935 17.01524387 41.18546297 19.11101648 41.18530273 21.20678711 C41.1874836 24.41338476 41.20561827 27.61963543 41.22460938 30.82617188 C41.2275443 32.85937382 41.22952843 34.8925774 41.23046875 36.92578125 C41.23765427 37.88631912 41.24483978 38.84685699 41.25224304 39.83650208 C41.24916641 40.7339061 41.24608978 41.63131012 41.24291992 42.5559082 C41.24434494 43.34342972 41.24576996 44.13095123 41.24723816 44.94233704 C41 47.125 41 47.125 39 51.125 C6 50.795 -27 50.465 -61 50.125 C-61 49.465 -61 48.805 -61 48.125 C-48.80877586 45.44331066 -35.98761832 45.98730879 -23.5703125 46.02734375 C-21.84154298 46.02921399 -20.11277293 46.03063502 -18.38400269 46.03163147 C-13.88293944 46.03540897 -9.38190962 46.04519722 -4.88085938 46.05633545 C-0.26823376 46.06665338 4.34439737 46.0711511 8.95703125 46.07617188 C17.97136867 46.08682487 26.98568153 46.10384233 36 46.125 C35.99533218 45.33710587 35.99066437 44.54921173 35.9858551 43.73744202 C35.96697791 38.26329315 35.98256687 32.83256138 36.40234375 27.37109375 C36.48806641 26.25025391 36.57378906 25.12941406 36.66210938 23.97460938 C36.75298828 22.84861328 36.84386719 21.72261719 36.9375 20.5625 C37.02451172 19.40169922 37.11152344 18.24089844 37.20117188 17.04492188 C37.87036949 8.51389153 37.87036949 8.51389153 39 5.125 C7.32 5.125 -24.36 5.125 -57 5.125 C-56.67 4.135 -56.34 3.145 -56 2.125 C-37.75373654 -0.95050333 -18.46497463 0.02562756 0 0 Z " fill="#26232A" transform="translate(84,243.875)"/>
<path d="M0 0 C3.63 10.89 7.26 21.78 11 33 C12.59247719 33 14.18489449 32.91655673 15.7734375 32.8046875 C19.59724671 33.03615295 21.41146617 34.08002393 24.625 36.125 C37.45002193 44.09651159 37.45002193 44.09651159 52 47 C51.34 47.99 50.68 48.98 50 50 C39.68760489 51.28904939 31.57059502 46.00776686 23.25 40.48828125 C19.56696486 38.05210697 17.41341648 37.90405616 13 38 C13.495 39.36125 13.495 39.36125 14 40.75 C15 44 15 44 15 48 C13.13867188 47.81713867 13.13867188 47.81713867 11 47 C9.78320312 44.8137207 9.78320312 44.8137207 8.78125 41.92578125 C8.40798584 40.87165039 8.03472168 39.81751953 7.65014648 38.73144531 C7.27059814 37.60319336 6.8910498 36.47494141 6.5 35.3125 C6.10562744 34.17522461 5.71125488 33.03794922 5.30493164 31.86621094 C-2.28397089 9.76591517 -2.28397089 9.76591517 -2 3 C-3.63195312 3.29003906 -3.63195312 3.29003906 -5.296875 3.5859375 C-8.35733298 4.12928855 -11.41866255 4.66742722 -14.48046875 5.203125 C-17.06992949 5.65664334 -19.65463508 6.12318827 -22.23828125 6.609375 C-45.11040743 10.78519887 -69.02972442 9.67986548 -92 7 C-92 6.01 -92 5.02 -92 4 C-91.08276657 4.00666183 -91.08276657 4.00666183 -90.14700317 4.01345825 C-83.68868385 4.05826561 -77.23040979 4.08810012 -70.77197266 4.10986328 C-68.37286582 4.11982075 -65.9737708 4.13339158 -63.57470703 4.15087891 C-49.56457457 4.25032452 -35.87650948 4.02078032 -22 2 C-21.31910309 1.90115509 -20.63820618 1.80231018 -19.93667603 1.70046997 C-17.02476802 1.27515077 -14.11657739 0.83352477 -11.2109375 0.3671875 C-7.49616485 -0.05761619 -3.73898302 0 0 0 Z " fill="#302B25" transform="translate(280,277)"/>
<path d="M0 0 C0.99 0 1.98 0 3 0 C7.2762249 9.6594928 8.58118942 19.62763479 10 30 C20.79653051 23.39122395 30.01809087 14.80875453 38 5 C38.495 5.99 38.495 5.99 39 7 C32.42057041 22.4810108 17.12143891 32.76682518 2.125 39.0625 C0.42217961 39.72273193 -1.28408062 40.37460081 -3 41 C-1.89591797 42.16015625 -1.89591797 42.16015625 -0.76953125 43.34375 C12.64509611 57.59292262 12.64509611 57.59292262 13.3125 64 C13.209375 64.66 13.10625 65.32 13 66 C9.39281035 63.5952069 7.1408192 60.91943126 4.75 57.375 C0.542054 51.14576989 -4.44616391 45.69700011 -9.6484375 40.28515625 C-12.96563671 36.67075133 -14 33.90577733 -14 29 C-12.46242676 23.25972656 -9.58142283 20.23662153 -5.23046875 16.28515625 C-3 15 -3 15 3 15 C1.515 7.575 1.515 7.575 0 0 Z M3 15 C2.814375 15.556875 2.62875 16.11375 2.4375 16.6875 C0.93650279 19.10214769 -0.10402638 19.8538115 -2.4375 21.375 C-5.93367986 23.75942392 -7.70585635 25.85874033 -9 30 C-8.69187191 32.85508689 -8.69187191 32.85508689 -7 35 C-4.88876836 36.29498406 -4.88876836 36.29498406 -2 36 C1.13413633 34.86413851 3.99906969 33.47807015 7 32 C6.01 26.39 5.02 20.78 4 15 C3.67 15 3.34 15 3 15 Z " fill="#282321" transform="translate(188,214)"/>
<path d="M0 0 C3.81530628 3.27026253 6.40632712 7.23853564 8 12 C7.67 12.99 7.34 13.98 7 15 C-8.06363798 21.79278873 -28.80934171 22.22839487 -45 22 C-45.03448242 22.66136963 -45.06896484 23.32273926 -45.10449219 24.00415039 C-45.60092895 31.18043358 -47.0648278 37.59983994 -49.25 44.4375 C-49.56283936 45.43869873 -49.87567871 46.43989746 -50.19799805 47.47143555 C-56.12039481 66.12039481 -56.12039481 66.12039481 -60 70 C-60.99 70 -61.98 70 -63 70 C-62.45480118 64.0739259 -60.65215557 59.31621004 -58.3125 53.875 C-53.98141497 43.48274977 -50.86253675 32.8763205 -48 22 C-49.77503906 22.03480469 -49.77503906 22.03480469 -51.5859375 22.0703125 C-59.93321112 22.18328047 -67.88763864 22.28287556 -76 20 C-76 19.34 -76 18.68 -76 18 C-74.79166504 17.98018066 -73.58333008 17.96036133 -72.33837891 17.93994141 C-67.76447066 17.86265289 -63.19083098 17.77415008 -58.6171875 17.68261719 C-56.65467714 17.64482733 -54.69210918 17.60989755 -52.72949219 17.578125 C-37.01126326 17.32071286 -21.50449658 16.53033057 -6.0625 13.375 C0.73762376 12 0.73762376 12 4 12 C3.71125 11.38511719 3.4225 10.77023437 3.125 10.13671875 C2.75375 9.32847656 2.3825 8.52023437 2 7.6875 C1.62875 6.88699219 1.2575 6.08648437 0.875 5.26171875 C0 3 0 3 0 0 Z " fill="#2D2823" transform="translate(303,361)"/>
<path d="M0 0 C2.58399566 2.26798919 3.63349255 4.16952758 4.69482422 7.42260742 C4.9934436 8.32120483 5.29206299 9.21980225 5.59973145 10.14562988 C5.91486694 11.12237671 6.23000244 12.09912354 6.5546875 13.10546875 C7.25284865 15.21126249 7.95126384 17.31697201 8.64990234 19.42260742 C9.01315613 20.52800873 9.37640991 21.63341003 9.75067139 22.77230835 C15.17774667 39.25725944 20.7255824 55.65071247 27.375 71.6875 C27.64326599 72.33463959 27.91153198 72.98177917 28.18792725 73.64852905 C30.08108819 78.19611774 31.97502158 82.74396024 34.01269531 87.22900391 C35.49821041 90.51045315 36 92.28442302 36 96 C34.20922852 95.91455078 34.20922852 95.91455078 32 95 C30.67907521 92.77506433 29.65463696 90.7312266 28.65234375 88.3671875 C28.35343735 87.69380341 28.05453094 87.02041931 27.74656677 86.32662964 C26.81718562 84.22352127 25.90831888 82.11227479 25 80 C24.45073008 78.75363659 23.90016473 77.50784305 23.34814453 76.26269531 C21.72288294 72.56217626 20.13092823 68.8498619 18.5625 65.125 C18.28375031 64.46312683 18.00500061 63.80125366 17.71780396 63.11932373 C-0.59852548 19.40220085 -0.59852548 19.40220085 0 0 Z " fill="#2A2626" transform="translate(185,283)"/>
<path d="M0 0 C2.35811667 3.537175 2.44060654 6.27308811 2.625 10.375 C2.68192017 11.43170898 2.68192017 11.43170898 2.73999023 12.50976562 C3.06231416 19.00594478 3.10021725 25.49701411 3 32 C4.26457031 32.03867187 4.26457031 32.03867187 5.5546875 32.078125 C7.19824219 32.16320312 7.19824219 32.16320312 8.875 32.25 C9.96554687 32.29640625 11.05609375 32.3428125 12.1796875 32.390625 C13.11039062 32.59171875 14.04109375 32.7928125 15 33 C16.17626953 35.03808594 16.17626953 35.03808594 17 37 C9.55346425 37.31197151 2.76895555 36.45615896 -4.5 34.875 C-6.06778198 34.53831299 -6.06778198 34.53831299 -7.66723633 34.19482422 C-21.80928944 31.05118549 -35.77664754 27.02480669 -48 19 C-48.33 18.34 -48.66 17.68 -49 17 C-45.43515757 17.56713402 -42.27823796 18.61595929 -38.93701172 19.96801758 C-26.75374617 24.88646975 -13.95414573 27.90396183 -1 30 C-1.00523682 29.19780029 -1.01047363 28.39560059 -1.01586914 27.5690918 C-1.03662897 23.94190247 -1.04965702 20.31472563 -1.0625 16.6875 C-1.07087891 15.42486328 -1.07925781 14.16222656 -1.08789062 12.86132812 C-1.09111328 11.65283203 -1.09433594 10.44433594 -1.09765625 9.19921875 C-1.10289307 8.08377686 -1.10812988 6.96833496 -1.11352539 5.8190918 C-1 3 -1 3 0 0 Z " fill="#302A20" transform="translate(389,304)"/>
<path d="M0 0 C1.96295178 -0.0006754 3.92590348 -0.00164738 5.88885498 -0.00289917 C9.96643891 -0.00436088 14.0440007 -0.00226845 18.12158203 0.00244141 C23.34686127 0.00818358 28.57208964 0.00482195 33.7973671 -0.00113106 C37.83447658 -0.00473938 41.87157393 -0.00359761 45.90868378 -0.00100327 C47.83680986 -0.0003371 49.76493704 -0.00115157 51.69306183 -0.00348282 C54.37515716 -0.00601871 57.05716874 -0.00215753 59.73925781 0.00341797 C60.53195572 0.00139374 61.32465363 -0.00063049 62.14137268 -0.00271606 C65.63656858 0.01076227 68.74665564 0.19558253 72.109375 1.1328125 C72.109375 1.7928125 72.109375 2.4528125 72.109375 3.1328125 C15.679375 3.6278125 15.679375 3.6278125 -41.890625 4.1328125 C-41.890625 3.4728125 -41.890625 2.8128125 -41.890625 2.1328125 C-28.396432 -0.91251751 -13.75609731 -0.01687704 0 0 Z " fill="#352121" transform="translate(132.890625,84.8671875)"/>
<path d="M0 0 C4.24816051 0.5630846 7.67569689 1.5910709 11.5625 3.375 C17.88890547 6.11353186 24.25434737 7.66174956 31 9 C31 9.66 31 10.32 31 11 C20.19822687 10.57473334 10.77982813 7.44537642 1 3 C1 3.99 1 4.98 1 6 C1.639375 6.2475 2.27875 6.495 2.9375 6.75 C4.59288341 7.4256667 6.24319116 8.12108034 7.84375 8.91796875 C14.62423667 12.21966095 21.6182089 13.61394534 29 15 C29 15.66 29 16.32 29 17 C18.33926619 17.8325085 10.00464009 14.50373598 0.97265625 9.05078125 C-1.01634983 7.99129088 -2.79967768 7.44794034 -5 7 C-3.32097804 12.03706587 1.43705622 13.686841 6 16 C12.82680569 18.78405669 19.68035982 19.59644569 27 20 C26.67 21.32 26.34 22.64 26 24 C12.86039768 23.71034945 1.33319196 19.33319196 -8 10 C-7.625 7.375 -7.625 7.375 -7 5 C-5.824375 4.87625 -5.824375 4.87625 -4.625 4.75 C-1.85250896 4.27193661 -1.85250896 4.27193661 -0.6875 1.9375 C-0.460625 1.298125 -0.23375 0.65875 0 0 Z " fill="#3A3231" transform="translate(274,322)"/>
<path d="M0 0 C0.8125 2.6875 0.8125 2.6875 1 6 C-0.9375 8.4375 -0.9375 8.4375 -4 11 C-5.39616926 12.24962478 -6.79198783 13.49964146 -8.1875 14.75 C-11.7279597 17.86397985 -11.7279597 17.86397985 -14 19 C-13.34644531 20.20269531 -13.34644531 20.20269531 -12.6796875 21.4296875 C-5.61692569 34.91314187 -0.55899225 48.78638597 1 64 C0.34 64 -0.32 64 -1 64 C-1.28496338 62.98353394 -1.28496338 62.98353394 -1.57568359 61.9465332 C-5.38141053 48.55195541 -9.50944276 35.80152738 -15.93701172 23.41333008 C-16.35096191 22.60790771 -16.76491211 21.80248535 -17.19140625 20.97265625 C-17.56467041 20.27406494 -17.93793457 19.57547363 -18.32250977 18.85571289 C-19 17 -19 17 -18 14 C-16.68 14 -15.36 14 -14 14 C-11.35920198 12.10185591 -11.35920198 12.10185591 -8.8125 9.625 C-7.93207031 8.81289062 -7.05164063 8.00078125 -6.14453125 7.1640625 C-3.96475929 5.18945533 -3.96475929 5.18945533 -3 3 C-7.23204382 4.96119104 -10.76518481 7.21214785 -14.38671875 10.109375 C-14.91910156 10.40328125 -15.45148438 10.6971875 -16 11 C-16.99 10.67 -17.98 10.34 -19 10 C-8.99038462 -0.52884615 -8.99038462 -0.52884615 0 0 Z " fill="#272225" transform="translate(221,154)"/>
<path d="M0 0 C0 0.66 0 1.32 0 2 C-10.58969166 7.41798178 -22.62057595 7.31046128 -34.26806641 7.20581055 C-36.39367504 7.1873377 -38.51884989 7.18530327 -40.64453125 7.18554688 C-46.85738132 7.16338166 -52.84875484 6.98776602 -59 6 C-59.33 4.68 -59.66 3.36 -60 2 C-58.4792733 1.97246169 -56.95839326 1.95336625 -55.4375 1.9375 C-54.59058594 1.92589844 -53.74367187 1.91429687 -52.87109375 1.90234375 C-50 2 -50 2 -46.59375 2.4921875 C-34.34012331 4.22367823 -21.35560056 2.93286439 -9.27734375 0.4375 C-6.17162078 -0.15913975 -3.15302056 -0.06182393 0 0 Z " fill="#332E2D" transform="translate(259,294)"/>
<path d="M0 0 C12.89856069 -0.68894389 12.89856069 -0.68894389 16.6875 1.875 C20.96677741 5.80730897 20.96677741 5.80730897 21.625 9.625 C21.46220967 17.41389134 16.65570443 24.34976332 13 31 C12.31448173 32.26007824 11.6295591 33.52048076 10.9453125 34.78125 C9.75742206 36.96972866 8.55952573 39.15283309 7.34765625 41.328125 C5.8114958 44.12969654 5.8114958 44.12969654 5 48 C9.455 47.505 9.455 47.505 14 47 C13 50 13 50 11 51 C7.5 51.25 7.5 51.25 4 51 C2 48 2 48 2.1796875 44.67944336 C3.01533931 40.9311968 4.16037011 38.40870388 6.125 35.12890625 C6.74890625 34.05962891 7.3728125 32.99035156 8.015625 31.88867188 C9.33682335 29.67410417 10.65973634 27.46055849 11.984375 25.24804688 C15.39543367 19.3949803 18 14.85480579 18 8 C17.67 7.01 17.34 6.02 17 5 C11.41534286 3.20493163 5.82818365 2.5126643 0 2 C0 1.34 0 0.68 0 0 Z " fill="#332C2B" transform="translate(326,132)"/>
<path d="M0 0 C0.66 0.66 1.32 1.32 2 2 C-2.70002568 7.8736204 -7.6048502 12.30175603 -13.875 16.4375 C-15.00228516 17.22930664 -15.00228516 17.22930664 -16.15234375 18.03710938 C-21.19242933 21.40437067 -25.82414801 23.44774927 -32 23 C-38.46473762 19.50904169 -41.97208589 12.51270283 -45 6 C-45 4.68 -45 3.36 -45 2 C-40.95070804 3.34976399 -40.51942158 5.18158422 -38.5 8.875 C-35.96630438 14.06735527 -35.96630438 14.06735527 -32 18 C-25.25234607 18.87364361 -21.74897077 17.24263423 -16.375 13.3125 C-15.7459375 12.87744141 -15.116875 12.44238281 -14.46875 11.99414062 C-9.33541959 8.39974433 -4.31956645 4.55954236 0 0 Z " fill="#352E21" transform="translate(395,235)"/>
<path d="M0 0 C0.70982025 -0.00335861 1.4196405 -0.00671722 2.15097046 -0.01017761 C4.4733052 -0.01959917 6.79556732 -0.02162545 9.11791992 -0.02270508 C10.73980234 -0.02592095 12.36168447 -0.02928528 13.98356628 -0.03279114 C17.37007318 -0.03875827 20.75655463 -0.04063324 24.14306641 -0.04003906 C28.48886319 -0.03993692 32.83449849 -0.05365285 37.18025684 -0.07081127 C40.52331804 -0.0819024 43.86633962 -0.08395926 47.20941734 -0.08342934 C48.81264496 -0.08461136 50.41587354 -0.08904557 52.01908302 -0.0967617 C54.25242316 -0.10651465 56.48540459 -0.10370376 58.71875 -0.09765625 C59.9900325 -0.09908127 61.261315 -0.10050629 62.57112122 -0.10197449 C65.53588867 0.14526367 65.53588867 0.14526367 67.53588867 2.14526367 C65.80447374 3.8766786 63.57838823 3.26503946 61.27110291 3.26968384 C60.14038109 3.26429092 60.14038109 3.26429092 58.98681641 3.25878906 C57.80153854 3.2590081 57.80153854 3.2590081 56.59231567 3.25923157 C53.96801045 3.25853224 51.34377531 3.25073894 48.71948242 3.24291992 C46.90487202 3.24105581 45.09026111 3.23963188 43.27565002 3.2386322 C38.48998637 3.23480646 33.70435287 3.22497571 28.91870117 3.21392822 C24.03914803 3.2037153 19.15959004 3.19913484 14.2800293 3.1940918 C4.69863581 3.18335349 -4.88273526 3.1662764 -14.46411133 3.14526367 C-14.46411133 2.48526367 -14.46411133 1.82526367 -14.46411133 1.14526367 C-9.59741113 0.35766819 -4.92797865 0.0147299 0 0 Z " fill="#2A2020" transform="translate(105.464111328125,96.854736328125)"/>
<path d="M0 0 C3.36991775 0.00540957 6.73970517 0.000001 10.10961914 -0.00634766 C12.26261422 -0.00568767 14.41560923 -0.00440815 16.56860352 -0.00244141 C17.57069351 -0.00446564 18.57278351 -0.00648987 19.60523987 -0.00857544 C20.54069138 -0.00542328 21.47614288 -0.00227112 22.43994141 0.00097656 C23.25709122 0.00177216 24.07424103 0.00256775 24.91615295 0.00338745 C27.45015528 0.13931345 29.80984976 0.5765983 32.28344727 1.13037109 C32.28344727 1.79037109 32.28344727 2.45037109 32.28344727 3.13037109 C9.51344727 3.13037109 -13.25655273 3.13037109 -36.71655273 3.13037109 C-36.38655273 2.47037109 -36.05655273 1.81037109 -35.71655273 1.13037109 C-24.1745255 -0.94435003 -11.68042347 -0.02238454 0 0 Z " fill="#231F20" transform="translate(67.716552734375,258.86962890625)"/>
<path d="M0 0 C0.66 0 1.32 0 2 0 C2.495 2.475 2.495 2.475 3 5 C-2.75 8 -2.75 8 -5 8 C-5.33 8.99 -5.66 9.98 -6 11 C-7.45532227 12.34692383 -7.45532227 12.34692383 -9.31640625 13.70703125 C-9.99896484 14.21169922 -10.68152344 14.71636719 -11.38476562 15.23632812 C-12.10341797 15.75646484 -12.82207031 16.27660156 -13.5625 16.8125 C-14.25408203 17.32103516 -14.94566406 17.82957031 -15.65820312 18.35351562 C-17.05893639 19.38350495 -18.4634335 20.40839454 -19.87158203 21.42822266 C-21.32429561 22.50101114 -22.75710348 23.60115413 -24.17138672 24.72412109 C-24.86635254 25.27277832 -25.56131836 25.82143555 -26.27734375 26.38671875 C-26.89730225 26.88776123 -27.51726074 27.38880371 -28.15600586 27.9050293 C-30 29 -30 29 -34 29 C-33.62208107 26.51147729 -33.28658515 25.27357487 -31.44042969 23.51123047 C-30.77430664 23.05119629 -30.10818359 22.59116211 -29.421875 22.1171875 C-28.67873047 21.59423096 -27.93558594 21.07127441 -27.16992188 20.5324707 C-26.37134766 19.98550537 -25.57277344 19.43854004 -24.75 18.875 C-23.10823346 17.72167536 -21.46761747 16.56671127 -19.828125 15.41015625 C-19.01279297 14.83797363 -18.19746094 14.26579102 -17.35742188 13.67626953 C-14.01206331 11.29751726 -10.74638519 8.82397887 -7.5 6.3125 C-6.4790625 5.52488281 -5.458125 4.73726562 -4.40625 3.92578125 C-1.99516941 2.06865927 -1.99516941 2.06865927 0 0 Z " fill="#5B5FB4" transform="translate(193,173)"/>
<path d="M0 0 C2.54090857 2.54090857 3.32828341 4.96454459 4.625 8.3125 C5.07101563 9.44300781 5.51703125 10.57351562 5.9765625 11.73828125 C6.91829329 14.73959885 7.22162521 16.89141476 7 20 C4.0222241 17.50003341 3.05451517 14.95288929 1.8125 11.3125 C1.46832031 10.31863281 1.12414062 9.32476562 0.76953125 8.30078125 C0.51558594 7.54152344 0.26164062 6.78226563 0 6 C-2.64 7.98 -5.28 9.96 -8 12 C-7.34 13.32 -6.68 14.64 -6 16 C-5.67 16.99 -5.34 17.98 -5 19 C-5.5775 18.690625 -6.155 18.38125 -6.75 18.0625 C-9.75782853 16.58428639 -9.75782853 16.58428639 -13 16 C-15.27144074 17.85432087 -15.27144074 17.85432087 -17 20 C-16.01 20.78375 -15.02 21.5675 -14 22.375 C-12.515 23.674375 -12.515 23.674375 -11 25 C-11 25.66 -11 26.32 -11 27 C-16.01113235 25.5682479 -17.94469549 23.01554307 -21 19 C-17.66002504 14.67767947 -14.64860218 11.96719288 -10 9 C-9.319375 8.278125 -8.63875 7.55625 -7.9375 6.8125 C-5.64868963 4.67135482 -4.07070734 4.3411897 -1 4 C-0.67 2.68 -0.34 1.36 0 0 Z " fill="#342C2E" transform="translate(197,174)"/>
<path d="M0 0 C3.125 0.3125 3.125 0.3125 5 2.0625 C6.125 4.3125 6.125 4.3125 6.125 8.3125 C3.25145755 10.48707267 1.76063409 11.3125 -1.875 11.3125 C-1.875 11.9725 -1.875 12.6325 -1.875 13.3125 C-4.875 15.3125 -4.875 15.3125 -7.875 15.3125 C-9.49449011 12.74036866 -9.91908751 11.63580841 -9.5 8.5625 C-9.29375 7.82 -9.0875 7.0775 -8.875 6.3125 C-7.885 5.9825 -6.895 5.6525 -5.875 5.3125 C-4.7249169 3.34577085 -4.7249169 3.34577085 -3.875 1.3125 C-2.875 0.3125 -2.875 0.3125 0 0 Z " fill="#332B2B" transform="translate(181.875,167.6875)"/>
<path d="M0 0 C4.9249288 -0.36319534 7.48471206 0.49027131 11.625 3.125 C24.45002193 11.09651159 24.45002193 11.09651159 39 14 C38.34 14.99 37.68 15.98 37 17 C27.92345619 18.13456798 20.86961229 14.35390591 13.5 9.375 C8.4676736 6.02250866 3.98047769 4.635669 -2 4 C-1.34 2.68 -0.68 1.36 0 0 Z " fill="#39312C" transform="translate(293,310)"/>
<path d="M0 0 C0.99 0 1.98 0 3 0 C3.02467759 5.37515933 3.04284928 10.75028585 3.05493164 16.12548828 C3.05996737 17.95492121 3.06679627 19.78435009 3.07543945 21.61376953 C3.08753824 24.23991898 3.09323583 26.86601532 3.09765625 29.4921875 C3.10281754 30.31306854 3.10797882 31.13394958 3.11329651 31.97970581 C3.11387171 37.77225659 3.11387171 37.77225659 2 40 C1.01 40 0.02 40 -1 40 C-2.29169414 36.12491757 -1.9073571 32.62563128 -1.66015625 28.61328125 C-1.61434921 27.79627243 -1.56854218 26.97926361 -1.52134705 26.13749695 C-1.37383377 23.5288206 -1.21826688 20.92069526 -1.0625 18.3125 C-0.96105768 16.54365016 -0.86013981 14.77477015 -0.75976562 13.00585938 C-0.51259392 8.67019952 -0.25819848 4.33501659 0 0 Z " fill="#231F21" transform="translate(20,250)"/>
<path d="M0 0 C-1.55002747 3.88397689 -4.00476621 6.02979619 -7.125 8.75 C-8.03507812 9.54921875 -8.94515625 10.3484375 -9.8828125 11.171875 C-10.58148438 11.77515625 -11.28015625 12.3784375 -12 13 C-13.98 12.34 -15.96 11.68 -18 11 C-18 10.34 -18 9.68 -18 9 C-19.65 8.67 -21.3 8.34 -23 8 C-22.34 11.3 -21.68 14.6 -21 18 C-21.66 18 -22.32 18 -23 18 C-23 17.34 -23 16.68 -23 16 C-23.66 16 -24.32 16 -25 16 C-25.19406478 14.35492782 -25.38007935 12.70890406 -25.5625 11.0625 C-25.66691406 10.14597656 -25.77132812 9.22945312 -25.87890625 8.28515625 C-25.91886719 7.53105469 -25.95882812 6.77695313 -26 6 C-25 5 -25 5 -22.49609375 4.90234375 C-20.98208984 4.91974609 -20.98208984 4.91974609 -19.4375 4.9375 C-18.42558594 4.94652344 -17.41367188 4.95554688 -16.37109375 4.96484375 C-15.19740234 4.98224609 -15.19740234 4.98224609 -14 5 C-14.33 5.66 -14.66 6.32 -15 7 C-10.94469298 5.64823099 -7.97472634 3.62727447 -4.6484375 1.0234375 C-3 0 -3 0 0 0 Z " fill="#2D2728" transform="translate(218,157)"/>
<path d="M0 0 C1.31315186 -0.00193359 2.62630371 -0.00386719 3.97924805 -0.00585938 C5.42887497 -0.00172485 6.87850069 0.00284563 8.328125 0.0078125 C9.06535797 0.00869873 9.80259094 0.00958496 10.56216431 0.01049805 C32.90444058 0.041376 55.24299797 0.61277982 77.578125 1.1328125 C77.578125 1.4628125 77.578125 1.7928125 77.578125 2.1328125 C33.523125 2.6278125 33.523125 2.6278125 -11.421875 3.1328125 C-11.421875 2.4728125 -11.421875 1.8128125 -11.421875 1.1328125 C-7.55464484 0.22673973 -3.96811537 0.00396698 0 0 Z " fill="#572623" transform="translate(102.421875,85.8671875)"/>
<path d="M0 0 C-3.53797852 4.13684403 -7.80698647 4.34528317 -13 5 C-16.79780855 5.2506369 -20.57007359 5.28106062 -24.375 5.25 C-25.34566406 5.25773437 -26.31632813 5.26546875 -27.31640625 5.2734375 C-28.25097656 5.27085937 -29.18554688 5.26828125 -30.1484375 5.265625 C-31.40406494 5.26224121 -31.40406494 5.26224121 -32.68505859 5.25878906 C-35.1905514 4.97869811 -36.8324918 4.25621914 -39 3 C-39 2.34 -39 1.68 -39 1 C-34.56262213 0.82997513 -30.12508207 0.66460204 -25.6875 0.5 C-24.44419922 0.45230469 -23.20089844 0.40460938 -21.91992188 0.35546875 C-14.60895533 0.08682431 -7.31586506 -0.06804577 0 0 Z " fill="#3D3936" transform="translate(242,309)"/>
<path d="M0 0 C0.99 0.33 1.98 0.66 3 1 C2.67 2.32 2.34 3.64 2 5 C14.500025 13.06369045 24.37146343 14.54236509 39 15 C38.67 15.66 38.34 16.32 38 17 C27.53379037 20.48873654 17.61924733 17.36637087 8 13 C7.10023438 12.66355469 6.20046875 12.32710938 5.2734375 11.98046875 C2.11649818 10.61897087 0.81255353 8.88665933 -1 6 C-1.3125 3.25 -1.3125 3.25 -1 1 C-0.67 0.67 -0.34 0.34 0 0 Z " fill="#332C2B" transform="translate(264,334)"/>
<path d="M0 0 C1.62463842 -0.05395478 3.24978541 -0.09277195 4.875 -0.125 C5.77992188 -0.14820313 6.68484375 -0.17140625 7.6171875 -0.1953125 C10 0 10 0 12 2 C11.78476665 7.59606702 10.27082508 10.67407006 7 15 C5.0625 14.625 5.0625 14.625 3 14 C1.73973202 11.47946405 2.08125555 10.1457902 2.4375 7.375 C2.53933594 6.55773437 2.64117187 5.74046875 2.74609375 4.8984375 C2.82988281 4.27195313 2.91367187 3.64546875 3 3 C2.01 2.67 1.02 2.34 0 2 C0 1.34 0 0.68 0 0 Z " fill="#332C2B" transform="translate(357,148)"/>
<path d="M0 0 C1.64574566 -0.02688151 3.29161413 -0.04634123 4.9375 -0.0625 C5.85402344 -0.07410156 6.77054687 -0.08570313 7.71484375 -0.09765625 C10 0 10 0 11 1 C11.40663861 6.18464223 10.90905502 9.63641748 8 14 C5.8125 14.875 5.8125 14.875 4 15 C1.76448241 11.64672361 1.82716472 11.09256343 2.375 7.3125 C2.48585938 6.50425781 2.59671875 5.69601563 2.7109375 4.86328125 C2.80632812 4.24839844 2.90171875 3.63351563 3 3 C2.01 2.67 1.02 2.34 0 2 C0 1.34 0 0.68 0 0 Z " fill="#2C2626" transform="translate(323,147)"/>
<path d="M0 0 C0 0.33 0 0.66 0 1 C11.22 1.33 22.44 1.66 34 2 C34 2.33 34 2.66 34 3 C14.53 3 -4.94 3 -25 3 C-24.67 2.34 -24.34 1.68 -24 1 C-21.19140625 0.5859375 -21.19140625 0.5859375 -17.5625 0.375 C-15.67337891 0.26478516 -15.67337891 0.26478516 -13.74609375 0.15234375 C-9.15916006 -0.03419474 -4.58945784 -0.09517309 0 0 Z " fill="#323049" transform="translate(56,259)"/>
<path d="M0 0 C-1.55002747 3.88397689 -4.00476621 6.02979619 -7.125 8.75 C-8.49011719 9.94882813 -8.49011719 9.94882813 -9.8828125 11.171875 C-10.58148438 11.77515625 -11.28015625 12.3784375 -12 13 C-12.99 12.67 -13.98 12.34 -15 12 C-15.6875 9.9375 -15.6875 9.9375 -16 8 C-15.39671875 7.67386719 -14.7934375 7.34773437 -14.171875 7.01171875 C-13.37265625 6.57472656 -12.5734375 6.13773438 -11.75 5.6875 C-10.96109375 5.25824219 -10.1721875 4.82898438 -9.359375 4.38671875 C-6.97138481 3.05580813 -6.97138481 3.05580813 -4.890625 1.33203125 C-3 0 -3 0 0 0 Z " fill="#5A5EB1" transform="translate(218,157)"/>
<path d="M0 0 C1.9375 0.25 1.9375 0.25 4 1 C6.14762184 4.22143276 6.561068 5.2595467 6 9 C3.95575462 10.97610386 2.8823175 12 0 12 C-1.29449495 8.11651516 -1.13203312 5.09302664 -1 1 C-0.67 0.67 -0.34 0.34 0 0 Z " fill="#F0C2B0" transform="translate(165,178)"/>
<path d="M0 0 C0.99 0.33 1.98 0.66 3 1 C2.67 2.32 2.34 3.64 2 5 C3.62445619 5.98006859 5.24958261 6.95902636 6.875 7.9375 C7.77992188 8.48277344 8.68484375 9.02804687 9.6171875 9.58984375 C11.05201636 10.43898017 12.50875448 11.25437724 14 12 C14 12.99 14 13.98 14 15 C11.99538701 14.34733531 9.99620166 13.67795528 8 13 C7.13375 12.731875 6.2675 12.46375 5.375 12.1875 C2.26025664 10.63012832 0.84465553 8.93778473 -1 6 C-1.3125 3.25 -1.3125 3.25 -1 1 C-0.67 0.67 -0.34 0.34 0 0 Z " fill="#3D3432" transform="translate(264,334)"/>
<path d="M0 0 C0 0.33 0 0.66 0 1 C2.475 1.495 2.475 1.495 5 2 C5 2.33 5 2.66 5 3 C-3.25 3 -11.5 3 -20 3 C-20 2.34 -20 1.68 -20 1 C-13.34362157 -0.23839599 -6.7528064 -0.09139136 0 0 Z " fill="#4B2522" transform="translate(111,97)"/>
<path d="M0 0 C12.88712896 -0.6883333 12.88712896 -0.6883333 16.6875 1.75 C18.79134513 3.79698445 20.01950037 5.25460103 21 8 C19.68 7.67 18.36 7.34 17 7 C17 6.34 17 5.68 17 5 C11.3297637 3.45357192 5.852795 2.51482919 0 2 C0 1.34 0 0.68 0 0 Z " fill="#3E3433" transform="translate(326,132)"/>
<path d="M0 0 C2.625 0.375 2.625 0.375 5 1 C5.625 3.375 5.625 3.375 6 6 C4 8 4 8 1.4375 8.1875 C-1 8 -1 8 -2 7 C-2.1875 4.5625 -2.1875 4.5625 -2 2 C-1.34 1.34 -0.68 0.68 0 0 Z " fill="#352F21" transform="translate(399,268)"/>
<path d="M0 0 C2.54090857 2.54090857 3.32828341 4.96454459 4.625 8.3125 C5.07101563 9.44300781 5.51703125 10.57351562 5.9765625 11.73828125 C6.91829329 14.73959885 7.22162521 16.89141476 7 20 C4.0222241 17.50003341 3.05451517 14.95288929 1.8125 11.3125 C1.46832031 10.31863281 1.12414062 9.32476562 0.76953125 8.30078125 C0.51558594 7.54152344 0.26164063 6.78226563 0 6 C-0.99 6.495 -0.99 6.495 -2 7 C-1.125 1.125 -1.125 1.125 0 0 Z " fill="#3F3536" transform="translate(197,174)"/>
<path d="M0 0 C1.65 0.33 3.3 0.66 5 1 C5.66 2.98 6.32 4.96 7 7 C4 9 4 9 1 9 C-0.61949011 6.42786866 -1.04408751 5.32330841 -0.625 2.25 C-0.41875 1.5075 -0.2125 0.765 0 0 Z " fill="#EEC0AF" transform="translate(173,174)"/>
<path d="M0 0 C2.5625 0.1875 2.5625 0.1875 4.5625 2.1875 C4.02678571 5.72321429 4.02678571 5.72321429 2.5625 7.1875 C0.0625 7.3125 0.0625 7.3125 -2.4375 7.1875 C-3.4375 6.1875 -3.4375 6.1875 -3.5625 3.6875 C-3.39599509 0.35740177 -3.31519894 0.2550153 0 0 Z " fill="#2B2620" transform="translate(350.4375,282.8125)"/>
<path d="M0 0 C0.78375 0.04125 1.5675 0.0825 2.375 0.125 C3 2.5 3 2.5 3.375 5.125 C2.715 5.785 2.055 6.445 1.375 7.125 C-1.25 6.75 -1.25 6.75 -3.625 6.125 C-4.25 4.25 -4.25 4.25 -4.625 2.125 C-2.625 0.125 -2.625 0.125 0 0 Z " fill="#272220" transform="translate(428.625,321.875)"/>
<path d="M0 0 C0.66 0 1.32 0 2 0 C1.52723148 4.25491665 -0.92547477 6.22542845 -4 9 C-6.95664519 10.4783226 -9.74229737 10.06032783 -13 10 C-13 9.34 -13 8.68 -13 8 C-12.39671875 7.84144531 -11.7934375 7.68289062 -11.171875 7.51953125 C-5.88301006 5.97552391 -3.18488705 4.71363283 0 0 Z " fill="#403634" transform="translate(360,186)"/>
<path d="M0 0 C8.415 1.98 8.415 1.98 17 4 C17 4.66 17 5.32 17 6 C10.74892565 5.57045059 4.95795479 4.98598493 -1 3 C-0.67 2.01 -0.34 1.02 0 0 Z " fill="#403735" transform="translate(288,327)"/>
<path d="M0 0 C1.71703125 0.02320313 1.71703125 0.02320313 3.46875 0.046875 C6.5 0.25 6.5 0.25 9.5 1.25 C9.17 2.24 8.84 3.23 8.5 4.25 C7.47326172 4.00443359 7.47326172 4.00443359 6.42578125 3.75390625 C3.1256722 3.18552966 0.03445931 3.15369233 -3.3125 3.1875 C-4.47394531 3.19652344 -5.63539063 3.20554688 -6.83203125 3.21484375 C-7.71246094 3.22644531 -8.59289062 3.23804688 -9.5 3.25 C-6.82555689 -0.37960137 -4.30943826 -0.09705942 0 0 Z " fill="#372F2E" transform="translate(365.5,135.75)"/>
<path d="M0 0 C0.66 0 1.32 0 2 0 C1.46972205 4.5073626 -0.19611275 7.4539073 -3 11 C-3.99 11 -4.98 11 -6 11 C-5.55491959 5.95575532 -3.39019075 3.55556591 0 0 Z " fill="#221D1F" transform="translate(477,65)"/>
<path d="M0 0 C-2.36551942 2.73902249 -4.54857221 3.93170092 -8 5 C-10.8125 5.125 -10.8125 5.125 -13 5 C-12.5 3.125 -12.5 3.125 -11 1 C-7.08733883 -0.61407836 -4.0524829 -1.35082763 0 0 Z " fill="#221F20" transform="translate(487,76)"/>
<path d="M0 0 C4.34159496 0.50483662 7.49408652 1.31900734 11 4 C11 4.99 11 5.98 11 7 C6.15833214 6.54961229 3.50331713 5.40027839 0 2 C0 1.34 0 0.68 0 0 Z " fill="#221C1D" transform="translate(56,60)"/>
<path d="M0 0 C2.625 0.375 2.625 0.375 5 1 C4.67 2.65 4.34 4.3 4 6 C2.35 6.33 0.7 6.66 -1 7 C-1.625 4.625 -1.625 4.625 -2 2 C-1.34 1.34 -0.68 0.68 0 0 Z " fill="#292420" transform="translate(223,264)"/>
<path d="M0 0 C0.66 0 1.32 0 2 0 C2.86646667 1.43011973 3.71781829 2.86940619 4.5625 4.3125 C5.03816406 5.11300781 5.51382813 5.91351563 6.00390625 6.73828125 C7 9 7 9 6 12 C3 11 3 11 1.3125 8.25 C0.06049331 5.14979295 -0.28970125 3.28328088 0 0 Z " fill="#231E1F" transform="translate(68,50)"/>
<path d="M0 0 C0.97582031 0.00902344 1.95164062 0.01804687 2.95703125 0.02734375 C3.69308594 0.03894531 4.42914063 0.05054687 5.1875 0.0625 C4.1975 1.5475 4.1975 1.5475 3.1875 3.0625 C-0.0703125 3.35546875 -0.0703125 3.35546875 -3.9375 3.25 C-5.85949219 3.20939453 -5.85949219 3.20939453 -7.8203125 3.16796875 C-8.80773437 3.13316406 -9.79515625 3.09835938 -10.8125 3.0625 C-10.8125 2.4025 -10.8125 1.7425 -10.8125 1.0625 C-7.13862505 0.20951624 -3.7677607 -0.04539471 0 0 Z " fill="#582723" transform="translate(101.8125,85.9375)"/>
<path d="M0 0 C2.375 -0.1875 2.375 -0.1875 5 0 C7 3 7 3 7 6 C5.02 6.99 5.02 6.99 3 8 C0 3.375 0 3.375 0 0 Z " fill="#ECBFAE" transform="translate(179,171)"/>
<path d="M0 0 C0.66 0 1.32 0 2 0 C2.34615998 5.65394631 1.43425238 9.03006806 -1 14 C-1.99 14 -2.98 14 -4 14 C-3.69255859 13.11248047 -3.69255859 13.11248047 -3.37890625 12.20703125 C-2.0002429 8.16339184 -0.68249153 4.23144751 0 0 Z " fill="#2F2828" transform="translate(345,140)"/>
<path d="M0 0 C4.97306516 0.49730652 8.63799813 1.55302334 13 4 C13 4.66 13 5.32 13 6 C7.71862571 5.48474397 4.42778844 3.74522883 0 1 C0 0.67 0 0.34 0 0 Z " fill="#312B2A" transform="translate(275,323)"/>
<path d="M0 0 C2.0625 0.4375 2.0625 0.4375 4 1 C3.67 2.65 3.34 4.3 3 6 C1.35 5.67 -0.3 5.34 -2 5 C-1.125 1.125 -1.125 1.125 0 0 Z " fill="#3E3621" transform="translate(332,388)"/>
<path d="M0 0 C2.0625 0.4375 2.0625 0.4375 4 1 C3.67 2.65 3.34 4.3 3 6 C1.35 5.67 -0.3 5.34 -2 5 C-1.125 1.125 -1.125 1.125 0 0 Z " fill="#403821" transform="translate(306,298)"/>
<path d="M0 0 C1.67542976 0.28604898 3.34385343 0.61781233 5 1 C4.67 2.32 4.34 3.64 4 5 C2.68 5 1.36 5 0 5 C-0.5625 3.0625 -0.5625 3.0625 -1 1 C-0.67 0.67 -0.34 0.34 0 0 Z " fill="#383121" transform="translate(358,417)"/>
<path d="M0 0 C3.63 0.33 7.26 0.66 11 1 C11 1.66 11 2.32 11 3 C7.7 3 4.4 3 1 3 C0.67 2.01 0.34 1.02 0 0 Z " fill="#312A2A" transform="translate(292,336)"/>
<path d="M0 0 C1.98 0.495 1.98 0.495 4 1 C3.67 2.65 3.34 4.3 3 6 C1.68 5.67 0.36 5.34 -1 5 C-0.67 3.35 -0.34 1.7 0 0 Z " fill="#312B20" transform="translate(404,369)"/>
<path d="M0 0 C1.98 0.495 1.98 0.495 4 1 C3.67 2.65 3.34 4.3 3 6 C1.68 5.67 0.36 5.34 -1 5 C-0.67 3.35 -0.34 1.7 0 0 Z " fill="#302A20" transform="translate(373,318)"/>
<path d="M0 0 C1.65 0.33 3.3 0.66 5 1 C4.67 2.32 4.34 3.64 4 5 C2.35 4.67 0.7 4.34 -1 4 C-0.67 2.68 -0.34 1.36 0 0 Z " fill="#2F2920" transform="translate(298,262)"/>
<path d="M0 0 C1.65 0 3.3 0 5 0 C4.67 1.65 4.34 3.3 4 5 C2.68 5 1.36 5 0 5 C0 3.35 0 1.7 0 0 Z " fill="#2C2720" transform="translate(276,404)"/>
<path d="M0 0 C2.29013653 3.4352048 2.17842973 4.985331 2 9 C1.34 9 0.68 9 0 9 C-0.33 9.66 -0.66 10.32 -1 11 C-1.125 3.375 -1.125 3.375 0 0 Z " fill="#574C23" transform="translate(389,304)"/>
<path d="M0 0 C3.3 0.33 6.6 0.66 10 1 C10 1.66 10 2.32 10 3 C6.7 3 3.4 3 0 3 C0 2.01 0 1.02 0 0 Z " fill="#292630" transform="translate(90,259)"/>
<path d="M0 0 C0 0.66 0 1.32 0 2 C-2.95664519 3.4783226 -5.74229737 3.06032783 -9 3 C-9 2.34 -9 1.68 -9 1 C-2.25 -1.125 -2.25 -1.125 0 0 Z " fill="#372F2E" transform="translate(356,193)"/>
<path d="M0 0 C0.99 0.33 1.98 0.66 3 1 C2.835 1.598125 2.67 2.19625 2.5 2.8125 C1.8885876 5.11344336 1.8885876 5.11344336 2 8 C1.01 7.34 0.02 6.68 -1 6 C-1.25 3.4375 -1.25 3.4375 -1 1 C-0.67 0.67 -0.34 0.34 0 0 Z " fill="#413C38" transform="translate(264,334)"/>
</svg>
