<?xml version="1.0" encoding="UTF-8"?>
<svg version="1.1" xmlns="http://www.w3.org/2000/svg" width="512" height="512">
<path d="M0 0 C2.3778374 -0.00542545 4.75567143 -0.01255047 7.13349915 -0.02124023 C13.56941585 -0.03942598 20.00507515 -0.03242549 26.44099617 -0.01972389 C30.46557205 -0.01259418 34.49011531 -0.0139608 38.51469421 -0.01768494 C39.18444065 -0.01829787 39.85418709 -0.0189108 40.54422888 -0.01954231 C41.90513998 -0.02082131 43.26605106 -0.02211816 44.62696213 -0.02343267 C57.36472408 -0.03481741 70.10237057 -0.02175795 82.84011358 -0.00023121 C93.75105147 0.0176379 104.66181909 0.01453319 115.57275391 -0.00390625 C128.26737533 -0.02535032 140.96189575 -0.03371898 153.65653276 -0.0214572 C155.01221751 -0.0201831 156.36790226 -0.01892562 157.72358704 -0.01768494 C158.39047313 -0.01706783 159.05735923 -0.01645073 159.744454 -0.01581493 C164.42623928 -0.01237261 169.10794071 -0.01836344 173.78971863 -0.02760315 C180.10014157 -0.03918794 186.41024409 -0.03108741 192.72063255 -0.00802612 C195.03164832 -0.00275314 197.34269122 -0.00422851 199.65369606 -0.01307678 C216.1093286 -0.07025554 228.38500981 0.73412463 240.74804688 12.55273438 C247.42722047 19.52712007 251.72303701 28.07238928 251.75780582 37.86725998 C251.76328027 38.73562288 251.76875471 39.60398578 251.77439505 40.49866271 C251.77586221 41.92278201 251.77586221 41.92278201 251.77735901 43.37567139 C251.78229699 44.38772652 251.78723496 45.39978165 251.79232258 46.44250512 C251.80771597 49.84350434 251.81606322 53.24448465 251.82446289 56.64550781 C251.83403996 59.07956611 251.84404994 61.51362274 251.85446167 63.94767761 C251.87592234 69.19307502 251.89436305 74.43847387 251.9100666 79.6838913 C251.93277654 87.26788964 251.96091781 94.85186017 251.99038588 102.43583491 C252.03804801 114.74025136 252.08131594 127.04467918 252.12182617 139.34912109 C252.16118811 151.30192958 252.20261602 163.25472795 252.24682617 175.20751953 C252.24955044 175.94425655 252.25227472 176.68099356 252.25508154 177.44005594 C252.26876114 181.13603912 252.28248139 184.83202216 252.29622185 188.52800512 C252.41016497 219.1911752 252.516906 249.85436665 252.61914062 280.51757812 C253.52489869 279.60813289 254.43065676 278.69868765 255.36386204 277.76168346 C276.86741062 256.17149484 298.38129092 234.59166144 319.90794516 213.02451227 C322.55776557 210.36968906 325.20749864 207.7147787 327.85717773 205.05981445 C328.38468038 204.53126257 328.91218302 204.00271069 329.45567059 203.45814208 C337.99558678 194.90082287 346.528409 186.33646351 355.05862827 177.7694793 C363.81223087 168.97846444 372.573419 160.19506329 381.3416881 151.41867667 C386.75150642 146.00337118 392.1553283 140.58222138 397.55161839 135.15343449 C401.69083115 130.99056921 405.84058083 126.83831885 409.99433136 122.68995667 C411.69615838 120.98702842 413.39455538 119.28066444 415.08925438 117.57064247 C417.40294788 115.23705823 419.72864676 112.91613114 422.05775452 110.59794617 C422.72606247 109.91798684 423.39437043 109.23802752 424.08293015 108.53746337 C428.96042033 103.72158362 433.12183697 100.89228923 440.11914062 100.14257812 C446.8581679 100.86461676 451.24490657 103.39347537 455.61914062 108.51757812 C457.86260982 112.0224889 457.87148377 114.95331199 457.87640953 119.06816673 C457.87991561 119.72776189 457.88342168 120.38735706 457.887034 121.06693995 C457.89637007 123.28676523 457.89141909 125.50632942 457.88656616 127.72616577 C457.89030131 129.32989136 457.89490229 130.93361513 457.90029681 132.53733599 C457.91255889 136.95194792 457.91226258 141.36648425 457.90990806 145.78110933 C457.9095007 150.53921973 457.92053122 155.29730562 457.93002319 160.05540466 C457.94665153 169.38013069 457.95213356 178.70483143 457.95324795 188.02957104 C457.95419752 195.60713657 457.95830322 203.18469374 457.9646492 210.76225662 C457.98226628 232.23453284 457.99148729 253.70678905 457.98998825 275.17907254 C457.98986838 276.91622753 457.98986838 276.91622753 457.98974609 278.68847656 C457.98966433 279.84798984 457.98958257 281.00750312 457.98949833 282.20215316 C457.9886852 300.99930556 458.00782845 319.79637787 458.03602283 338.5935071 C458.06472797 357.8829801 458.07856444 377.17241402 458.07683527 396.46190894 C458.07617057 407.29605529 458.08169794 418.13011769 458.10319138 428.96424484 C458.12137197 438.18775767 458.12577622 447.41114848 458.11217253 456.63467143 C458.10562719 461.34224742 458.10558197 466.04958909 458.12287903 470.75714302 C458.13854577 475.06522591 458.13581204 479.37288745 458.11831076 483.68095966 C458.1152267 485.2408307 458.11892591 486.80073269 458.13003092 488.36056726 C458.14411805 490.47932586 458.13359497 492.5965995 458.11691856 494.71530724 C458.11757067 496.48117182 458.11757067 496.48117182 458.11823595 498.28271043 C457.33023857 503.39008599 454.80510929 506.47279621 450.99414062 509.83007812 C447.14944815 512.5618333 445.03293967 512.64463435 440.31744099 512.6517992 C439.66045311 512.65415143 439.00346523 512.65650366 438.32656863 512.65892717 C436.1036265 512.66563569 433.88074257 512.66515839 431.65779114 512.66474915 C430.05650562 512.66804663 428.45522094 512.67177195 426.85393733 512.67589062 C422.43675686 512.68593204 418.01958998 512.68963085 413.60239971 512.69227993 C408.84492276 512.69617668 404.08745663 512.70575547 399.32998657 512.7144928 C387.83198631 512.73427551 376.33398514 512.7443259 364.8359721 512.75322059 C359.42503252 512.75760071 354.01409393 512.76296825 348.60315514 512.76820946 C330.62199132 512.78522387 312.64082811 512.79971869 294.65965748 512.8069582 C289.99112256 512.80886818 285.32258764 512.8107885 280.65405273 512.81274414 C279.49367076 512.81322788 278.33328879 512.81371162 277.13774373 512.81421002 C258.3346772 512.82251268 239.53167423 512.84785263 220.72863547 512.88032482 C201.43583535 512.91337188 182.14306756 512.93140485 162.85023898 512.93460244 C152.01323074 512.93676977 141.17631519 512.94555088 130.33933449 512.97106361 C121.11105048 512.99273852 111.88288166 513.00083688 102.65457509 512.99109683 C97.94485922 512.98654275 93.23538117 512.98850255 88.52569771 513.00785828 C84.21440649 513.02542389 79.90352775 513.02454617 75.59223255 513.00896098 C74.03228079 513.00657483 72.47230097 513.01096048 70.91239224 513.02278963 C56.33201805 513.12651017 56.33201805 513.12651017 50.61914062 508.51757812 C46.17423014 502.90295435 45.02651062 498.62913816 45.61914062 491.51757812 C48.57363417 484.06026296 53.31456748 479.27681502 58.97753906 473.70507812 C59.93464191 472.74910545 60.8908611 471.79224739 61.8462677 470.83457947 C64.42591515 468.25379057 67.01765337 465.685469 69.61183834 463.11930466 C72.32697221 460.42927988 75.0306835 457.72782263 77.73565674 455.02758789 C82.85222331 449.92342324 87.97889464 444.82953573 93.10932851 439.73931408 C98.95278688 433.94066024 104.78480824 428.1305609 110.61592436 422.31949997 C122.60436774 410.37279782 134.60700559 398.44045764 146.61914062 386.51757812 C145.32014847 386.51537828 145.32014847 386.51537828 143.99491405 386.513134 C122.8942899 386.47603417 101.79382596 386.41697729 80.69333172 386.33367538 C70.48915542 386.2939166 60.28505588 386.26150805 50.08081055 386.24658203 C41.18369104 386.23354914 32.28674068 386.20654267 23.38971645 386.16296506 C18.68158721 386.14038709 13.97366631 386.12466524 9.26547813 386.12569427 C4.82731594 386.12644306 0.38961364 386.10840516 -4.04842949 386.07641029 C-5.670858 386.06794277 -7.29333829 386.06613982 -8.91577911 386.07177544 C-23.21093073 386.11478815 -33.78159448 383.66977385 -44.38085938 373.51757812 C-53.20478814 364.23822078 -54.97972387 353.41083967 -54.88879395 341.00646973 C-54.89341236 339.67249832 -54.89977156 338.33853203 -54.90770292 337.00457621 C-54.9242906 333.36781656 -54.91619864 329.73148063 -54.90375805 326.09472013 C-54.89466619 322.16144116 -54.90869768 318.22823243 -54.91967773 314.29496765 C-54.93742362 306.60111383 -54.93364056 298.90741649 -54.92202717 291.21355665 C-54.9129776 284.95817941 -54.91177543 278.7028459 -54.91612244 272.44746399 C-54.91673537 271.55568865 -54.9173483 270.66391331 -54.91797981 269.74511448 C-54.91925876 267.93324338 -54.92055562 266.1213723 -54.92187017 264.30950123 C-54.93326446 247.33694062 -54.92018036 230.36446656 -54.89866871 213.39192015 C-54.88079877 198.84245422 -54.8839032 184.29311597 -54.90234375 169.74365234 C-54.92377083 152.830021 -54.93216593 135.91646542 -54.9198947 119.0028224 C-54.91862056 117.19777903 -54.91736307 115.39273565 -54.91612244 113.58769226 C-54.91550533 112.69967734 -54.91488823 111.81166242 -54.91425243 110.89673796 C-54.91080504 104.65203139 -54.91661467 98.40737305 -54.92604065 92.16267395 C-54.93728245 84.54792327 -54.93417486 76.93333744 -54.91291767 69.31860554 C-54.90243649 65.43666334 -54.89823498 61.55499555 -54.91151428 57.67305565 C-54.92350539 54.11374758 -54.91676654 50.55496615 -54.89560407 46.99570531 C-54.88907721 45.11050462 -54.90201387 43.22526687 -54.915833 41.34010553 C-54.80082153 28.76772619 -51.07267691 19.5921546 -42.38085938 10.51757812 C-30.2751761 -0.99396118 -15.64379875 -0.05989625 0 0 Z M369.53791898 281.46505636 C368.95329863 282.05190743 368.36867828 282.63875851 367.76634216 283.24339294 C367.14887133 283.85930378 366.5314005 284.47521463 365.89521843 285.10978943 C363.8091748 287.19181732 361.72675578 289.27743394 359.64428711 291.36303711 C358.1566818 292.84928863 356.66886357 294.33532706 355.18084717 295.82116699 C351.12702892 299.87040821 347.0764022 303.92282829 343.02645373 307.97593951 C338.79851112 312.20640434 334.56814008 316.43443962 330.33815002 320.66285706 C323.23347821 327.76570677 316.13092393 334.87066882 309.02954102 341.97680664 C300.80566055 350.2061298 292.57818363 358.4318441 284.34882873 366.65569252 C277.29819602 373.70179525 270.24950403 380.74983497 263.20244652 387.7995134 C258.98705434 392.01646899 254.77097906 396.23273565 250.55315971 400.44726372 C246.58900435 404.40854204 242.627281 408.37223632 238.66746521 412.33785248 C237.20897483 413.79767136 235.74962127 415.25662839 234.28936958 416.71468544 C232.30558823 418.6957588 230.32487372 420.67984662 228.34495544 422.66477966 C227.75810437 423.24940001 227.1712533 423.83402037 226.56661886 424.43635648 C223.86131912 426.61797264 223.86131912 426.61797264 222.61914062 429.51757812 C272.77914063 429.51757812 322.93914062 429.51757812 374.61914062 429.51757812 C374.61914062 379.35757813 374.61914062 329.19757813 374.61914062 277.51757812 C372.43076774 277.51757812 371.00830255 280.00193512 369.53791898 281.46505636 Z " fill="#918291" transform="translate(54.380859375,-0.517578125)"/>
<path d="M0 0 C4.80419234 2.58002922 8.36880212 5.68098523 10.375 10.8125 C10.62799966 13.79666936 10.62799966 13.79666936 10.63226891 17.36308861 C10.63577498 18.02268377 10.63928105 18.68227893 10.64289337 19.36186182 C10.65222945 21.5816871 10.64727847 23.8012513 10.64242554 26.02108765 C10.64616069 27.62481323 10.65076167 29.228537 10.65615618 30.83225787 C10.66841827 35.24686979 10.66812195 39.66140612 10.66576743 44.07603121 C10.66536008 48.8341416 10.6763906 53.5922275 10.68588257 58.35032654 C10.7025109 67.67505256 10.70799293 76.99975331 10.70910732 86.32449292 C10.71005689 93.90205844 10.7141626 101.47961561 10.72050858 109.0571785 C10.73812565 130.52945472 10.74734667 152.00171092 10.74584763 173.47399442 C10.74576772 174.63209775 10.7456878 175.79020107 10.74560547 176.98339844 C10.74552371 178.14291172 10.74544195 179.30242499 10.74535771 180.49707504 C10.74454458 199.29422743 10.76368783 218.09129974 10.7918822 236.88842897 C10.82058734 256.17790198 10.83442382 275.46733589 10.83269465 294.75683081 C10.83202995 305.59097717 10.83755731 316.42503956 10.85905075 327.25916672 C10.87723134 336.48267955 10.8816356 345.70607035 10.8680319 354.92959331 C10.86148657 359.6371693 10.86144135 364.34451097 10.8787384 369.0520649 C10.89440515 373.36014778 10.89167141 377.66780932 10.87417014 381.97588153 C10.87108608 383.53575258 10.87478528 385.09565457 10.88589029 386.65548913 C10.89997743 388.77424774 10.88945434 390.89152138 10.87277794 393.01022911 C10.87343004 394.77609369 10.87343004 394.77609369 10.87409532 396.57763231 C10.08609795 401.68500786 7.56096866 404.76771808 3.75 408.125 C-0.09469247 410.85675518 -2.21120095 410.93955623 -6.92669964 410.94672108 C-7.58368751 410.94907331 -8.24067539 410.95142554 -8.91757199 410.95384905 C-11.14051413 410.96055757 -13.36339806 410.96008027 -15.58634949 410.95967102 C-17.187635 410.9629685 -18.78891968 410.96669382 -20.3902033 410.9708125 C-24.80738377 410.98085391 -29.22455065 410.98455273 -33.64174092 410.98720181 C-38.39921787 410.99109855 -43.15668399 411.00067734 -47.91415405 411.00941467 C-59.41215432 411.02919738 -70.91015549 411.03924778 -82.40816852 411.04814246 C-87.8191081 411.05252258 -93.23004669 411.05789012 -98.64098549 411.06313133 C-116.62214931 411.08014575 -134.60331251 411.09464057 -152.58448315 411.10188007 C-157.25301807 411.10379006 -161.92155299 411.10571038 -166.59008789 411.10766602 C-168.33066085 411.10839163 -168.33066085 411.10839163 -170.10639689 411.1091319 C-188.90946343 411.11743455 -207.71246639 411.14277451 -226.51550516 411.17524669 C-245.80830528 411.20829376 -265.10107307 411.22632672 -284.39390165 411.22952431 C-295.23090988 411.23169164 -306.06782544 411.24047276 -316.90480614 411.26598549 C-326.13309015 411.2876604 -335.36125896 411.29575876 -344.58956554 411.28601871 C-349.29928141 411.28146463 -354.00875945 411.28342442 -358.71844292 411.30278015 C-363.02973414 411.32034577 -367.34061288 411.31946805 -371.65190808 411.30388286 C-373.21185983 411.30149671 -374.77183966 411.30588235 -376.33174839 411.31771151 C-390.91212258 411.42143204 -390.91212258 411.42143204 -396.625 406.8125 C-401.06991049 401.19787623 -402.21763 396.92406004 -401.625 389.8125 C-398.6971591 382.74586434 -394.35373301 377.59255854 -389.28564453 371.92407227 C-388.4403141 370.96890685 -387.59498367 370.01374144 -386.72403717 369.02963161 C-375.65780738 356.57270644 -364.26631509 344.41527883 -352.75 332.375 C-352.19979313 331.7983011 -351.64958626 331.2216022 -351.08270645 330.62742758 C-300.58816222 277.74635873 -300.58816222 277.74635873 -270.55830956 276.73062992 C-258.77227946 276.71886907 -246.98110289 278.63789115 -235.63085938 281.68969727 C-228.47843764 283.43600983 -223.33576428 281.68130748 -216.92578125 278.453125 C-207.94175422 272.16960119 -202.35162735 266.32242658 -198.625 255.8125 C-198.21776703 254.68726425 -197.81053406 253.5620285 -197.39096069 252.4026947 C-196.20503397 247.56625658 -197.33580659 243.66832302 -198.5070076 238.91388893 C-203.19215677 218.98836057 -204.56350502 195.45466044 -194.07925987 177.1074934 C-183.82015446 161.20967318 -170.17431643 147.65712291 -156.8359375 134.33984375 C-156.3510823 133.85528908 -155.8662271 133.37073441 -155.36667931 132.87149626 C-143.23716749 120.76780151 -130.82029794 108.97726895 -118.27852002 97.30290778 C-110.15136048 89.73763476 -102.11383439 82.08818154 -94.14794922 74.35327148 C-93.35675222 73.58508578 -93.35675222 73.58508578 -92.54957144 72.80138116 C-90.42856523 70.74143854 -88.30811758 68.68092325 -86.18840065 66.61965394 C-70.02546971 50.90335687 -53.7867945 35.26456327 -37.33791733 19.84733009 C-35.62860872 18.24393854 -33.92216124 16.63749056 -32.21880341 15.02777863 C-29.89397014 12.83319452 -27.55782091 10.6514265 -25.21762085 8.47325134 C-24.54610406 7.83578521 -23.87458728 7.19831908 -23.1827215 6.54153579 C-16.22550767 0.12567247 -9.5455506 -3.12699072 0 0 Z M-77.70622164 179.75997823 C-78.29084199 180.34682931 -78.87546234 180.93368038 -79.47779846 181.53831482 C-80.09526929 182.15422566 -80.71274012 182.7701365 -81.34892219 183.40471131 C-83.43496582 185.48673919 -85.51738484 187.57235582 -87.59985352 189.65795898 C-89.08745882 191.1442105 -90.57527705 192.63024893 -92.06329346 194.11608887 C-96.1171117 198.16533008 -100.16773842 202.21775016 -104.21768689 206.27086139 C-108.44562951 210.50132622 -112.67600055 214.7293615 -116.9059906 218.95777893 C-124.01066241 226.06062864 -131.11321669 233.1655907 -138.21459961 240.27172852 C-146.43848007 248.50105167 -154.665957 256.72676597 -162.89531189 264.95061439 C-169.9459446 271.99671713 -176.99463659 279.04475685 -184.0416941 286.09443527 C-188.25708629 290.31139087 -192.47316157 294.52765753 -196.69098091 298.74218559 C-200.65513628 302.70346392 -204.61685963 306.6671582 -208.57667542 310.63277435 C-210.03516579 312.09259323 -211.49451935 313.55155027 -212.95477104 315.00960732 C-214.93855239 316.99068067 -216.91926691 318.97476849 -218.89918518 320.95970154 C-219.48603625 321.54432189 -220.07288733 322.12894224 -220.67752177 322.73127836 C-223.3828215 324.91289452 -223.3828215 324.91289452 -224.625 327.8125 C-174.465 327.8125 -124.305 327.8125 -72.625 327.8125 C-72.625 277.6525 -72.625 227.4925 -72.625 175.8125 C-74.81337289 175.8125 -76.23583807 178.29685699 -77.70622164 179.75997823 Z " fill="#FEE077" transform="translate(501.625,101.1875)"/>
<path d="M0 0 C0.80984339 -0.00523668 1.61968677 -0.01047336 2.45407087 -0.01586872 C5.16533827 -0.03085971 7.87641679 -0.03157368 10.58772278 -0.03224182 C12.53280455 -0.03986402 14.4778833 -0.04829162 16.42295837 -0.0574646 C21.7062289 -0.07941314 26.98944155 -0.08820924 32.27275252 -0.09329104 C35.57531848 -0.09693483 38.87786928 -0.10317508 42.18042946 -0.11029243 C53.70731395 -0.13479019 65.23415343 -0.1478391 76.76106262 -0.15138245 C87.49642818 -0.1550158 98.2315075 -0.18489611 108.96678561 -0.22678703 C118.18990626 -0.2615122 127.41293219 -0.27693129 136.63611776 -0.27762848 C142.14178028 -0.27842067 147.64715136 -0.28713239 153.1527462 -0.31562614 C158.33456681 -0.34184404 163.51585516 -0.34399101 168.69771194 -0.3279705 C170.59473267 -0.32615887 172.49178425 -0.33282086 174.38873863 -0.34878922 C194.70023898 -0.5092813 194.70023898 -0.5092813 202.82791424 7.05892277 C207.81458867 12.26429295 209.15695448 17.76122063 209.18586731 24.90281677 C209.19539932 26.20113937 209.20493134 27.49946198 209.2147522 28.83712769 C209.21449074 30.24191821 209.21355357 31.64670874 209.21199036 33.05149841 C209.21588207 34.50589113 209.22021772 35.96028271 209.22497559 37.41467285 C209.23241843 40.45665681 209.23216053 43.49852467 209.22688293 46.54051208 C209.22108925 50.42523121 209.23802585 54.30947341 209.26122761 58.19411373 C209.2760088 61.1959813 209.27683075 64.19773513 209.27371788 67.19963264 C209.27422884 68.63126635 209.27942402 70.0629068 209.2895298 71.49450493 C209.35180173 81.5485464 208.93920966 89.05381423 201.73491764 96.58287907 C193.52162002 104.19974852 182.22118275 102.84744898 171.78059387 102.80760193 C169.8349187 102.81466615 167.88924901 102.82341328 165.94358826 102.83370972 C160.67699827 102.85615673 155.41070947 102.85327491 150.14408994 102.84438825 C145.74055865 102.83926781 141.33708344 102.84657949 136.93355793 102.85386032 C126.54218774 102.87084442 116.15096446 102.8673084 105.75959778 102.85057068 C95.0536605 102.83364882 84.34813095 102.84948833 73.6422382 102.88179356 C64.43600123 102.90851699 55.22989097 102.91575806 46.02361912 102.90727848 C40.53145766 102.90235758 35.03954148 102.90451976 29.54741096 102.92506599 C24.38191283 102.94346637 19.21699974 102.93741096 14.05153275 102.91286659 C12.16097363 102.90787264 10.2703696 102.91131151 8.37984657 102.92401505 C-10.78184082 103.04254204 -10.78184082 103.04254204 -18.08879089 97.27415466 C-23.58770891 91.39841266 -26.31865562 85.94343951 -26.39518738 77.80662537 C-26.41117477 76.51791031 -26.42716217 75.22919525 -26.44363403 73.90142822 C-26.45001318 72.50093484 -26.45540515 71.10043666 -26.45988464 69.69993591 C-26.46886189 68.25130119 -26.47798392 66.80266737 -26.48724365 65.35403442 C-26.50371037 62.31867732 -26.51142897 59.28343017 -26.514328 56.24803162 C-26.51969627 52.38237209 -26.55731987 48.51776527 -26.60307217 44.65240192 C-26.63300988 41.65897986 -26.64005521 38.6658056 -26.64105415 35.67224693 C-26.64522681 34.24863575 -26.65754082 32.82502178 -26.6785717 31.40155983 C-26.79665937 22.71446263 -26.37011042 15.4622796 -21.08879089 8.27415466 C-14.66628733 2.21511954 -8.82904176 -0.0283205 0 0 Z " fill="#DEF5FC" transform="translate(61.08879089355469,34.72584533691406)"/>
<path d="M0 0 C0.90781219 -0.00029205 1.81562439 -0.00058411 2.75094604 -0.00088501 C5.74316051 0.0005052 8.7351241 0.01605195 11.72729492 0.03173828 C13.80523035 0.03546951 15.88316753 0.03831596 17.96110535 0.04031372 C23.42407101 0.04794153 28.88692995 0.06758278 34.34985352 0.08972168 C40.90776107 0.11380008 47.46570436 0.12296514 54.02364349 0.1346283 C63.9809244 0.15400759 73.93797122 0.19233622 83.89526367 0.22705078 C83.89526367 26.95705078 83.89526367 53.68705078 83.89526367 81.22705078 C47.59526367 81.22705078 11.29526367 81.22705078 -26.10473633 81.22705078 C-26.20786133 71.03830078 -26.31098633 60.84955078 -26.41723633 50.35205078 C-26.46275635 47.15404785 -26.50827637 43.95604492 -26.55517578 40.66113281 C-26.56979041 38.10238695 -26.58252877 35.54362939 -26.59301758 32.98486328 C-26.61859741 31.67573975 -26.64417725 30.36661621 -26.67053223 29.01782227 C-26.67472016 20.16117193 -25.52736601 12.94226616 -19.29023743 6.29251099 C-13.32744059 0.75438279 -7.88843313 -0.0666033 0 0 Z " fill="#C7EEFD" transform="translate(61.104736328125,171.77294921875)"/>
<path d="M0 0 C36.3 0 72.6 0 110 0 C110 26.73 110 53.46 110 81 C87.44102302 81.20054405 87.44102302 81.20054405 77.78515625 81.24414062 C71.2102426 81.27396783 64.6356789 81.30915835 58.06103516 81.37719727 C52.75715691 81.43173858 47.45365422 81.46146724 42.14951706 81.47438622 C40.13139311 81.48358645 38.11328846 81.50155222 36.09532547 81.52865028 C15.06552901 81.79967852 15.06552901 81.79967852 8 76 C2.54898423 70.15191084 -0.25953487 64.75394959 -0.22705078 56.64916992 C-0.22680908 55.3707019 -0.22656738 54.09223389 -0.22631836 52.77502441 C-0.21624932 51.42683718 -0.20591629 50.07865189 -0.1953125 48.73046875 C-0.19329834 47.49703735 -0.19128418 46.26360596 -0.18920898 44.99279785 C-0.17875516 40.390994 -0.15083258 35.78924322 -0.125 31.1875 C-0.08375 20.895625 -0.0425 10.60375 0 0 Z " fill="#C7EEFD" transform="translate(35,269)"/>
<path d="M0 0 C22.38962868 -0.12032643 22.38962868 -0.12032643 31.95703125 -0.14648438 C38.47712558 -0.16439544 44.99709314 -0.18555078 51.51708984 -0.22631836 C56.77554715 -0.25899095 62.03386843 -0.27686974 67.29241943 -0.28463173 C69.29541158 -0.29016105 71.29839656 -0.30095844 73.30133057 -0.31719017 C76.11380923 -0.33906936 78.92573073 -0.34196254 81.73828125 -0.34057617 C82.56043625 -0.351362 83.38259125 -0.36214783 84.22966003 -0.3732605 C90.54079638 -0.33975004 95.99129147 0.80071394 101.20703125 4.61328125 C101.73683594 5.17402344 102.26664062 5.73476562 102.8125 6.3125 C103.35519531 6.86550781 103.89789063 7.41851562 104.45703125 7.98828125 C108.08521108 12.71869293 109.37520178 16.71542878 109.34057617 22.64794922 C109.34021362 23.96690186 109.33985107 25.28585449 109.33947754 26.64477539 C109.32437518 28.03141718 109.3088757 29.41805471 109.29296875 30.8046875 C109.28994751 32.07642822 109.28692627 33.34816895 109.28381348 34.65844727 C109.26814781 39.39738103 109.2262639 44.13619888 109.1875 48.875 C109.125625 59.47625 109.06375 70.0775 109 81 C73.03 81 37.06 81 0 81 C0 54.27 0 27.54 0 0 Z " fill="#C7EEFD" transform="translate(161,172)"/>
<path d="M0 0 C35.97 0 71.94 0 109 0 C109.061875 10.250625 109.12375 20.50125 109.1875 31.0625 C109.22846802 35.90047241 109.22846802 35.90047241 109.27026367 40.83618164 C109.27902838 43.4025027 109.28667235 45.96882794 109.29296875 48.53515625 C109.30080887 49.1944664 109.30864899 49.85377655 109.31672668 50.5330658 C109.42961337 60.53440202 108.90775165 67.76084871 101.86181545 75.30841446 C96.08068195 80.56096612 89.14976811 81.58630692 81.62475586 81.45410156 C80.29142212 81.45497772 80.29142212 81.45497772 78.93115234 81.45587158 C76.02530342 81.45310938 73.120511 81.42210666 70.21484375 81.390625 C68.18747009 81.38315596 66.16008917 81.37746616 64.13270569 81.37347412 C58.82088969 81.35827003 53.50951769 81.31903349 48.19787598 81.2746582 C41.81181258 81.22636045 35.42559995 81.20814661 29.03940582 81.18484497 C19.35929597 81.1461792 9.68015853 81.06948868 0 81 C0 54.27 0 27.54 0 0 Z " fill="#C7EEFD" transform="translate(161,269)"/>
<path d="M0 0 C-2.19372173 2.19372173 -3.14537413 2.42091842 -6.0625 3.1875 C-15.08141473 6.07297272 -22.91246904 13.19738942 -27.33998334 21.51832342 C-30.89114783 29.40112163 -31.71381973 36.03927048 -31.63491821 44.62463379 C-31.64069312 45.95875942 -31.64864336 47.29287708 -31.65855443 48.6269784 C-31.67926392 52.25962804 -31.66918631 55.89161378 -31.65362334 59.52426457 C-31.64224781 63.45483407 -31.65980308 67.38529433 -31.67352295 71.31584167 C-31.69569414 79.0025696 -31.69098159 86.68905269 -31.67645974 94.37579 C-31.66514331 100.62589797 -31.66364697 106.87593757 -31.66907883 113.12605286 C-31.66984499 114.01740398 -31.67061116 114.90875511 -31.67140054 115.82711688 C-31.67299925 117.63818071 -31.67462032 119.44924453 -31.6762635 121.26030833 C-31.69050307 138.22147717 -31.67415644 155.18251063 -31.64726166 172.14365727 C-31.62492451 186.68031193 -31.62880514 201.21676691 -31.65185547 215.75341797 C-31.67864518 232.65609124 -31.68912994 249.55864603 -31.67379415 266.46133757 C-31.67220149 268.26554074 -31.67062964 270.06974393 -31.66907883 271.87394714 C-31.66830745 272.76152636 -31.66753607 273.64910558 -31.66674132 274.56358114 C-31.66243383 280.80232961 -31.66969032 287.0410026 -31.68147659 293.27973938 C-31.69553542 300.88825008 -31.69163085 308.49650303 -31.66507287 316.1049844 C-31.65197993 319.98305888 -31.64670424 323.86070446 -31.66331863 327.73877525 C-31.67832626 331.2957359 -31.66985508 334.85187414 -31.64343087 338.4087612 C-31.63528689 340.29019318 -31.65142679 342.17168322 -31.66871703 344.05305338 C-31.53243288 355.98564613 -27.69925392 365.32162776 -19.37890625 373.875 C-12.47289977 380.0439122 -4.94405413 382.13854711 4 384 C4 384.33 4 384.66 4 385 C-0.10391862 385.1177595 -4.20739356 385.18776774 -8.3125 385.25 C-9.46041016 385.28351563 -10.60832031 385.31703125 -11.79101562 385.3515625 C-24.63103821 385.49705851 -33.73065599 381.87836992 -43 373 C-51.82392877 363.72064265 -53.5988645 352.89326154 -53.50793457 340.4888916 C-53.51255299 339.1549202 -53.51891219 337.8209539 -53.52684355 336.48699808 C-53.54343122 332.85023843 -53.53533927 329.2139025 -53.52289867 325.577142 C-53.51380681 321.64386303 -53.52783831 317.7106543 -53.53881836 313.77738953 C-53.55656425 306.08353571 -53.55278119 298.38983836 -53.5411678 290.69597852 C-53.53211823 284.44060129 -53.53091605 278.18526777 -53.53526306 271.92988586 C-53.53587599 271.03811052 -53.53648893 270.14633519 -53.53712043 269.22753635 C-53.53839939 267.41566526 -53.53969624 265.60379417 -53.5410108 263.79192311 C-53.55240508 246.8193625 -53.53932099 229.84688844 -53.51780933 212.87434202 C-53.4999394 198.3248761 -53.50304383 183.77553784 -53.52148438 169.22607422 C-53.54291146 152.31244287 -53.55130655 135.3988873 -53.53903532 118.48524427 C-53.53776118 116.68020091 -53.5365037 114.87515753 -53.53526306 113.07011414 C-53.53464596 112.18209922 -53.53402886 111.2940843 -53.53339306 110.37915984 C-53.52994567 104.13445326 -53.5357553 97.88979493 -53.54518127 91.64509583 C-53.55642308 84.03034515 -53.55331549 76.41575931 -53.5320583 68.80102742 C-53.52157712 64.91908522 -53.5173756 61.03741743 -53.53065491 57.15547752 C-53.54264602 53.59616945 -53.53590716 50.03738803 -53.5147447 46.47812718 C-53.50821784 44.5929265 -53.52115449 42.70768874 -53.53497362 40.82252741 C-53.41996216 28.25014806 -49.69181754 19.07457648 -41 10 C-29.14810626 -1.27020571 -15.36980642 -0.52880107 0 0 Z " fill="#7A6D79" transform="translate(53,0)"/>
<path d="M0 0 C3.49493373 1.87690885 5.74248285 3.87027495 8.375 6.8125 C8.705 7.1425 9.035 7.4725 9.375 7.8125 C9.92111874 10.34586525 9.92111874 10.34586525 9.375 13.8125 C7.14152034 16.9684503 4.39414381 19.57999853 1.63710022 22.27865601 C0.8047611 23.11682724 -0.02757801 23.95499847 -0.88513952 24.81856883 C-3.19844063 27.14198853 -5.52472256 29.45143402 -7.85711086 31.75566363 C-10.36901384 34.24372944 -12.86357824 36.74907282 -15.36030579 39.25234985 C-20.25333563 44.15279483 -25.1620904 49.0371929 -30.07612317 53.9165663 C-35.79344355 59.59493041 -41.49422648 65.2897762 -47.19414062 70.98560365 C-57.36028182 81.14348922 -67.54011765 91.28753643 -77.72827148 101.42333984 C-87.62427936 111.26854377 -97.51255024 121.12142257 -107.39135742 130.98388672 C-108.30452996 131.89554285 -108.30452996 131.89554285 -109.23615044 132.82561629 C-111.68283377 135.26828009 -114.12948859 137.71097245 -116.57609945 140.15370884 C-127.11282458 150.67342482 -137.65526341 161.18741428 -148.199016 171.70008618 C-149.90943508 173.40550811 -151.61975738 175.11102707 -153.33007121 176.81655455 C-159.81864306 183.28658249 -166.3101872 189.75360538 -172.80599785 196.21636581 C-174.77884942 198.17935094 -176.75054274 200.14348802 -178.72121048 202.10866547 C-181.39808704 204.7779708 -184.07885574 207.44334403 -186.76011658 210.10824585 C-187.55095719 210.89790658 -188.3417978 211.68756732 -189.15660328 212.50115716 C-189.86920702 213.20806967 -190.58181077 213.91498217 -191.31600857 214.64331627 C-191.93533243 215.25976741 -192.55465629 215.87621855 -193.19274753 216.51135004 C-194.625 217.8125 -194.625 217.8125 -195.625 217.8125 C-198.70302455 203.70991492 -200.75642047 187.36321112 -192.63123703 174.6211586 C-183.7540893 162.33660498 -172.36319823 151.90638817 -161.3966164 141.52263435 C-156.3632235 136.74959955 -151.44076044 131.8678992 -146.52000619 126.97926518 C-137.74022235 118.26271315 -128.87814452 109.63526425 -119.9597168 101.06079102 C-111.32400612 92.75781283 -102.73587575 84.40976994 -94.20288086 76.0012207 C-93.41128977 75.22121244 -93.41128977 75.22121244 -92.60370695 74.42544643 C-90.48200104 72.3344652 -88.36055472 70.2432211 -86.23946598 68.15161382 C-70.01898483 52.15842549 -53.75680198 36.20470617 -37.35621071 20.39613152 C-35.64503677 18.74456277 -33.93697189 17.08976579 -32.23226166 15.43152618 C-29.90529704 13.16982131 -27.56671041 10.92086638 -25.22434998 8.67512512 C-24.55215107 8.0171954 -23.87995216 7.35926568 -23.18738359 6.68139869 C-16.28469827 0.12057761 -9.60819049 -3.14751068 0 0 Z " fill="#FFD15B" transform="translate(501.625,101.1875)"/>
<path d="M0 0 C4.95 0 9.9 0 15 0 C15 26.73 15 53.46 15 81 C51.3 81 87.6 81 125 81 C125 85.95 125 90.9 125 96 C89.03 96.33 53.06 96.66 16 97 C15.67 123.4 15.34 149.8 15 177 C10.05 177 5.1 177 0 177 C0 150.27 0 123.54 0 96 C-35.97 96 -71.94 96 -109 96 C-109 91.05 -109 86.1 -109 81 C-73.03 81 -37.06 81 0 81 C0 54.27 0 27.54 0 0 Z " fill="#7A6D79" transform="translate(145,172)"/>
<path d="M0 0 C0.88340057 0.2539856 1.76680115 0.50797119 2.67697144 0.76965332 C-2.29807878 6.77879034 -7.69378235 12.26280507 -13.22805786 17.75646973 C-14.21936877 18.74421789 -15.21044084 19.7322058 -16.20129395 20.72041321 C-18.32297626 22.83558193 -20.4461581 24.94922942 -22.57050133 27.06172562 C-25.93130788 30.40413782 -29.28767645 33.75098297 -32.64329529 37.09860229 C-42.18162398 46.61285299 -51.72590498 56.12111955 -61.27444458 65.62512207 C-66.55746843 70.88358237 -71.83687974 76.14564301 -77.11245662 81.41157472 C-80.44599322 84.73858055 -83.78397957 88.06103528 -87.12536085 91.38016152 C-89.20240498 93.44546063 -91.27524094 95.51494341 -93.34692001 97.58562279 C-94.76351062 98.99904905 -96.18509445 100.40746539 -97.60682678 101.8157196 C-98.45210937 102.66230637 -99.29739197 103.50889313 -100.16828918 104.38113403 C-100.90253963 105.11224207 -101.63679007 105.84335011 -102.39329052 106.59661293 C-106.66668418 111.40879821 -107.69099199 114.64562455 -107.51052856 121.08215332 C-107.48345825 122.33641113 -107.45638794 123.59066895 -107.42849731 124.88293457 C-107.37629028 126.31186035 -107.37629028 126.31186035 -107.32302856 127.76965332 C-110.17823637 127.87842314 -113.02923417 127.95731798 -115.88552856 128.01965332 C-116.68539185 128.05316895 -117.48525513 128.08668457 -118.30935669 128.12121582 C-124.19403903 128.21729227 -127.50483803 127.19099935 -132.32302856 123.76965332 C-136.76793905 118.15502955 -137.91565857 113.88121336 -137.32302856 106.76965332 C-134.37657817 99.50619357 -129.83063857 94.50824257 -124.4758606 88.86535645 C-123.5804657 87.90833832 -122.6850708 86.95132019 -121.76254272 85.96530151 C-113.48760081 77.14026227 -105.07342262 68.44391041 -96.63052559 59.77976227 C-90.97481621 53.97289618 -85.36099604 48.13578983 -79.84011841 42.20031738 C-33.03437827 -8.05102818 -33.03437827 -8.05102818 0 0 Z " fill="#FFD15B" transform="translate(237.32302856445313,384.2303466796875)"/>
<path d="M0 0 C0.81689904 -0.00170885 1.63379809 -0.0034177 2.47545165 -0.00517833 C5.21009825 -0.00847006 7.94449896 0.00252526 10.67912292 0.01345825 C12.64042658 0.01402243 14.60173065 0.01370567 16.56303406 0.01257324 C21.88698531 0.011999 27.2108466 0.02376489 32.53477693 0.03772116 C38.09881272 0.05021661 43.66285053 0.05139808 49.22689819 0.05377197 C59.76300186 0.05999022 70.29906406 0.07640573 80.83514947 0.09647095 C92.83019464 0.1188192 104.82524179 0.12982068 116.82030261 0.13986182 C141.49486401 0.16077163 166.16938861 0.19595434 190.84391785 0.24050903 C190.84391785 0.57050903 190.84391785 0.90050903 190.84391785 1.24050903 C189.94938904 1.24197559 189.05486023 1.24344215 188.13322449 1.24495316 C166.35769413 1.28202031 144.58231943 1.34103392 122.80691528 1.42441177 C112.27644091 1.46420479 101.7460413 1.49659598 91.21549988 1.51150513 C82.0360452 1.52452025 72.856755 1.55148143 63.67739296 1.5951221 C58.81789504 1.61773996 53.95860002 1.63341951 49.0990448 1.63239288 C44.52218562 1.63164647 39.94577501 1.64958985 35.36903191 1.68167686 C33.69212833 1.69017402 32.01517444 1.69192703 30.33825874 1.68631172 C18.49578561 1.5244594 18.49578561 1.5244594 7.84391785 6.24050903 C5.74396086 8.38856256 5.74396086 8.38856256 4.40641785 10.80300903 C3.93333191 11.5674231 3.46024597 12.33183716 2.9728241 13.11941528 C0.89976287 17.01447495 0.70032118 20.1297316 0.65104675 24.48098755 C0.63498383 25.76985367 0.6189209 27.05871979 0.60237122 28.38664246 C0.59087913 29.79755998 0.58027137 31.20848493 0.57048035 32.61941528 C0.56515667 33.33233168 0.55983299 34.04524807 0.55434799 34.77976799 C0.52762963 38.55841876 0.50825663 42.33703676 0.49382019 46.11575317 C0.48052227 49.22835957 0.45274648 52.34030393 0.41178894 55.45266724 C0.3621767 59.22338621 0.33766393 62.99350837 0.33059311 66.76453972 C0.32392455 68.19375057 0.30881846 69.62295042 0.2847023 71.05197334 C0.13177725 80.66768778 0.54327383 88.76087618 7.504632 95.95730114 C14.96119901 101.72047798 23.06443506 101.08426287 32.02189636 101.01345825 C33.75720592 101.02163793 35.49250476 101.03244544 37.2277832 101.04566956 C41.91740666 101.07401581 46.60632526 101.06578333 51.29598355 101.05080175 C56.20477132 101.04140089 61.11338949 101.06589163 66.02212524 101.08673096 C75.30795738 101.12103199 84.59354311 101.12501447 93.87942594 101.11800587 C104.45508243 101.11150735 115.03056646 101.13895778 125.60617173 101.16920829 C147.35210633 101.23065256 169.09790584 101.24963138 190.84391785 101.24050903 C190.84391785 101.57050903 190.84391785 101.90050903 190.84391785 102.24050903 C165.07030433 102.3573849 139.29673062 102.44551821 113.52290535 102.49956989 C101.55527505 102.52533572 89.58780955 102.56045548 77.62028503 102.6177063 C67.18764251 102.66759062 56.75511935 102.69981183 46.32236087 102.71095151 C40.79982592 102.71746168 35.27763243 102.73272907 29.75520706 102.76915932 C24.552972 102.803198 19.35121777 102.81354599 14.14888191 102.80604744 C12.24378785 102.80741846 10.33867705 102.81730378 8.43367958 102.83653641 C-10.86384508 103.02173975 -10.86384508 103.02173975 -18.15608215 97.24050903 C-23.65418831 91.36321286 -26.38593576 85.91097637 -26.46247864 77.77297974 C-26.47846603 76.48426468 -26.49445343 75.19554962 -26.51092529 73.86778259 C-26.51730444 72.46728921 -26.52269641 71.06679103 -26.5271759 69.66629028 C-26.53615315 68.21765556 -26.54527518 66.76902174 -26.55453491 65.32038879 C-26.57100163 62.28503169 -26.57872023 59.24978454 -26.58161926 56.21438599 C-26.58698753 52.34872646 -26.62461113 48.48411964 -26.67036343 44.61875629 C-26.70030114 41.62533423 -26.70734647 38.63215997 -26.70834541 35.6386013 C-26.71251807 34.21499012 -26.72483208 32.79137615 -26.74586296 31.3679142 C-26.86395063 22.680817 -26.43740168 15.42863398 -21.15608215 8.24050903 C-14.70425892 2.15381353 -8.86917316 -0.06800927 0 0 Z " fill="#C9EDFB" transform="translate(61.15608215332031,34.759490966796875)"/>
<path d="M0 0 C8.58 0 17.16 0 26 0 C26.00410889 1.85608887 26.00821777 3.71217773 26.01245117 5.62451172 C26.03193127 11.79138961 26.07436979 17.95778421 26.13209057 24.12441826 C26.16622559 27.85939264 26.19144927 31.59396388 26.19555664 35.32910156 C26.19986897 38.94105193 26.2285699 42.55209498 26.27343178 46.16376114 C26.28631411 47.53423887 26.29074766 48.90482571 26.28615379 50.27535629 C26.26394165 58.92281326 27.00563651 65.74869198 32 73 C34.19848537 75.25267636 34.19848537 75.25267636 36.625 76.5 C37.38039062 76.9434375 38.13578125 77.386875 38.9140625 77.84375 C39.60242188 78.2253125 40.29078125 78.606875 41 79 C41.99 79.66 42.98 80.32 44 81 C39.87538319 81.14688806 35.75145076 81.23460044 31.625 81.3125 C30.46871094 81.35439453 29.31242187 81.39628906 28.12109375 81.43945312 C20.36944524 81.54893969 14.39668086 80.59680507 8 76 C2.52040927 70.20786148 -0.259365 64.71156808 -0.22705078 56.64916992 C-0.22689972 55.3882402 -0.22674866 54.12731049 -0.22659302 52.82817078 C-0.21638136 51.46226848 -0.2059494 50.09636781 -0.1953125 48.73046875 C-0.19157941 47.32514141 -0.18873383 45.91981147 -0.18673706 44.51448059 C-0.17912389 40.82700332 -0.15949553 37.13968518 -0.1373291 33.45227051 C-0.11682059 29.68499911 -0.10772467 25.91770184 -0.09765625 22.15039062 C-0.07624723 14.76684636 -0.04108422 7.38346581 0 0 Z " fill="#99E5FB" transform="translate(35,269)"/>
<path d="M0 0 C1.15693359 0.00644531 2.31386719 0.01289063 3.50585938 0.01953125 C4.70404297 0.03628906 5.90222656 0.05304688 7.13671875 0.0703125 C8.96299805 0.08384766 8.96299805 0.08384766 10.82617188 0.09765625 C13.82572149 0.12118213 16.82486919 0.15405597 19.82421875 0.1953125 C18.83421875 0.8553125 17.84421875 1.5153125 16.82421875 2.1953125 C10.69555411 6.37337546 6.23836348 9.95287832 3.82421875 17.1953125 C3.70686891 19.26497714 3.64740248 21.33809584 3.61889648 23.41088867 C3.59895126 24.6919902 3.57900604 25.97309174 3.55845642 27.29301453 C3.54147335 28.69143554 3.5245945 30.08985781 3.5078125 31.48828125 C3.48723709 32.9188954 3.46624046 34.34950355 3.44483948 35.78010559 C3.38967942 39.54311256 3.34024346 43.30617385 3.29199219 47.0692749 C3.24173282 50.91016466 3.18606992 54.75097566 3.13085938 58.59179688 C3.023352 66.12623722 2.92239006 73.66074366 2.82421875 81.1953125 C-5.75578125 81.1953125 -14.33578125 81.1953125 -23.17578125 81.1953125 C-23.28922354 73.15382475 -23.38074808 65.11297015 -23.43484211 57.07089424 C-23.46081856 53.33569481 -23.49599294 49.60107619 -23.55297852 45.86621094 C-23.60773195 42.25460059 -23.63729142 38.64354507 -23.65016747 35.03155136 C-23.65933056 33.66093092 -23.6772223 32.29033719 -23.70443153 30.91995621 C-23.88534271 21.42145825 -23.0990124 13.44424738 -16.36128235 6.26077271 C-11.39029297 1.64381573 -6.81757609 -0.06716824 0 0 Z " fill="#99E5FB" transform="translate(58.17578125,171.8046875)"/>
<path d="M0 0 C4.75464184 2.1909535 7.61462615 5.05672134 10.60546875 9.31640625 C13.00960399 16.52881198 12.38535142 23.57026092 9.10546875 30.37890625 C5.78611317 36.39027509 1.80900949 41.89661261 -2.39453125 47.31640625 C-1.5025 47.33058594 -0.61046875 47.34476563 0.30859375 47.359375 C1.4790625 47.40707031 2.64953125 47.45476562 3.85546875 47.50390625 C5.015625 47.53871094 6.17578125 47.57351562 7.37109375 47.609375 C10.60546875 48.31640625 10.60546875 48.31640625 13.03125 50.671875 C14.60546875 53.31640625 14.60546875 53.31640625 14.54296875 56.44140625 C13.60382079 59.32145999 12.97912803 60.5124252 10.60546875 62.31640625 C6.3981155 64.42008287 0.96760791 63.62523282 -3.66088867 63.66650391 C-5.01978711 63.68304222 -6.3785993 63.71030546 -7.73706055 63.74853516 C-9.70177811 63.80350232 -11.6674065 63.82207514 -13.6328125 63.83984375 C-15.39685425 63.86957275 -15.39685425 63.86957275 -17.1965332 63.89990234 C-21.3470002 63.14262193 -22.80323272 61.57535013 -25.39453125 58.31640625 C-26.21533528 54.64275364 -26.03649011 52.45480987 -24.17529297 49.15429688 C-22.47626541 46.71717144 -20.68156717 44.39125752 -18.83203125 42.06640625 C-17.54460317 40.38324568 -16.2594284 38.69835909 -14.9765625 37.01171875 C-14.3573291 36.20508789 -13.7380957 35.39845703 -13.10009766 34.56738281 C-10.96575525 31.75051523 -8.96237989 28.89389259 -7.01953125 25.94140625 C-6.49617188 25.14992188 -5.9728125 24.3584375 -5.43359375 23.54296875 C-4.23029283 20.96446678 -4.1857983 19.12933126 -4.39453125 16.31640625 C-7.86600967 15.56683468 -7.86600967 15.56683468 -11.39453125 15.31640625 C-11.64203125 16.24453125 -11.88953125 17.17265625 -12.14453125 18.12890625 C-13.49464144 21.57168724 -14.05752557 22.78318742 -17.39453125 24.31640625 C-21.11089751 24.25120684 -23.44199516 24.11530749 -26.33203125 21.69140625 C-27.84350769 18.31281185 -27.83747361 15.98650011 -27.39453125 12.31640625 C-21.78078737 1.31346824 -12.00288372 -3.42659813 0 0 Z " fill="#7B6E7A" transform="translate(231.39453125,53.68359375)"/>
<path d="M0 0 C3.98561154 2.62688033 6.23980531 5.28191592 7.75 9.8125 C7.83481773 12.39880224 7.86598229 14.95728056 7.84765625 17.54296875 C7.8462413 18.29338943 7.84482635 19.04381012 7.84336853 19.81697083 C7.8377756 22.2113546 7.82522444 24.60564453 7.8125 27 C7.80748408 28.62434761 7.80292134 30.24869668 7.79882812 31.87304688 C7.7886598 35.85292975 7.76908312 39.83260993 7.75 43.8125 C-1.82 43.8125 -11.39 43.8125 -21.25 43.8125 C-21.38827325 38.81161759 -21.50751842 33.81743822 -21.57958984 28.81616211 C-21.60964557 27.1176906 -21.65050347 25.41937281 -21.70263672 23.72143555 C-21.77595765 21.27093505 -21.80956538 18.82249617 -21.8359375 16.37109375 C-21.86690521 15.61976669 -21.89787292 14.86843964 -21.92977905 14.09434509 C-21.93310405 8.81014865 -20.49384813 6.11020658 -16.93252563 2.23817444 C-11.79423499 -2.11571443 -6.13579387 -2.24192468 0 0 Z " fill="#C59190" transform="translate(394.25,468.1875)"/>
<path d="M0 0 C5.34740414 1.95385921 8.45618143 4.91236287 11 10 C11.08667255 12.62627133 11.11560135 15.22562483 11.09765625 17.8515625 C11.0962413 18.62559418 11.09482635 19.39962585 11.09336853 20.19711304 C11.08776403 22.67311442 11.07521083 25.14902588 11.0625 27.625 C11.05748558 29.30208203 11.05292257 30.97916547 11.04882812 32.65625 C11.03864336 36.77089597 11.01906894 40.88534715 11 45 C1.43 45 -8.14 45 -18 45 C-18.09208955 40.1243702 -18.17164167 35.25178481 -18.21972656 30.37597656 C-18.23978009 28.71929675 -18.26703029 27.06268718 -18.30175781 25.40625 C-18.35055512 23.01805242 -18.37303064 20.63079453 -18.390625 18.2421875 C-18.41127014 17.50757294 -18.43191528 16.77295837 -18.45318604 16.01608276 C-18.45541947 10.83936358 -17.25078465 7.98623957 -14 4 C-9.44787756 0.06862153 -5.81719888 -0.95402062 0 0 Z " fill="#C59190" transform="translate(190,467)"/>
<path d="M0 0 C3.39238409 2.23588951 5.95936459 4.59034752 7.34936523 8.49707031 C7.92131154 11.80257842 7.87226194 15.07905409 7.84765625 18.421875 C7.8462413 19.14868469 7.84482635 19.87549438 7.84336853 20.62432861 C7.83778792 22.93709494 7.82523904 25.24976312 7.8125 27.5625 C7.80748249 29.13411318 7.80292002 30.70572789 7.79882812 32.27734375 C7.78867733 36.12246372 7.76909832 39.96737248 7.75 43.8125 C-1.82 43.8125 -11.39 43.8125 -21.25 43.8125 C-21.38827325 38.81161759 -21.50751842 33.81743822 -21.57958984 28.81616211 C-21.60964557 27.1176906 -21.65050347 25.41937281 -21.70263672 23.72143555 C-21.77595765 21.27093505 -21.80956538 18.82249617 -21.8359375 16.37109375 C-21.86690521 15.61976669 -21.89787292 14.86843964 -21.92977905 14.09434509 C-21.93310405 8.81014865 -20.49384813 6.11020658 -16.93252563 2.23817444 C-11.79423499 -2.11571443 -6.13579387 -2.24192468 0 0 Z " fill="#C59190" transform="translate(260.25,468.1875)"/>
<path d="M0 0 C4.64804599 2.32902089 7.01673453 5.56187438 9.06640625 10.34765625 C9.39735079 13.20143019 9.5396569 15.63688686 9.45703125 18.46875 C9.45137146 19.21351089 9.44571167 19.95827179 9.43988037 20.7256012 C9.41767975 23.07947005 9.36751995 25.43175595 9.31640625 27.78515625 C9.29631991 29.39125389 9.27807289 30.99737565 9.26171875 32.60351562 C9.22128717 36.51931367 9.14298046 40.43173604 9.06640625 44.34765625 C-0.50359375 44.34765625 -10.07359375 44.34765625 -19.93359375 44.34765625 C-20.071867 39.34677384 -20.19111217 34.35259447 -20.26318359 29.35131836 C-20.29323932 27.65284685 -20.33409722 25.95452906 -20.38623047 24.2565918 C-20.4595514 21.8060913 -20.49315913 19.35765242 -20.51953125 16.90625 C-20.55049896 16.15492294 -20.58146667 15.40359589 -20.6133728 14.62950134 C-20.6166978 9.3453049 -19.17744188 6.64536283 -15.61611938 2.77333069 C-11.01983744 -1.12129151 -5.69556658 -1.92153458 0 0 Z " fill="#C59190" transform="translate(459.93359375,467.65234375)"/>
<path d="M0 0 C3.98561154 2.62688033 6.23980531 5.28191592 7.75 9.8125 C7.83481773 12.39880224 7.86598229 14.95728056 7.84765625 17.54296875 C7.8462413 18.29338943 7.84482635 19.04381012 7.84336853 19.81697083 C7.8377756 22.2113546 7.82522444 24.60564453 7.8125 27 C7.80748408 28.62434761 7.80292134 30.24869668 7.79882812 31.87304688 C7.7886598 35.85292975 7.76908312 39.83260993 7.75 43.8125 C-1.82 43.8125 -11.39 43.8125 -21.25 43.8125 C-21.38827325 38.81161759 -21.50751842 33.81743822 -21.57958984 28.81616211 C-21.60964557 27.1176906 -21.65050347 25.41937281 -21.70263672 23.72143555 C-21.77595765 21.27093505 -21.80956538 18.82249617 -21.8359375 16.37109375 C-21.86690521 15.61976669 -21.89787292 14.86843964 -21.92977905 14.09434509 C-21.93310405 8.81014865 -20.49384813 6.11020658 -16.93252563 2.23817444 C-11.79423499 -2.11571443 -6.13579387 -2.24192468 0 0 Z " fill="#C59190" transform="translate(327.25,468.1875)"/>
<path d="M0 0 C2.875 1.75 2.875 1.75 5 5 C5.41449604 9.03477791 5.28999494 12.95940379 5 17 C5.81984375 16.96519531 6.6396875 16.93039062 7.484375 16.89453125 C8.56203125 16.86746094 9.6396875 16.84039062 10.75 16.8125 C12.35101563 16.76029297 12.35101563 16.76029297 13.984375 16.70703125 C17.35420736 17.03441134 18.68639289 17.55418677 21 20 C21.8658678 26.81870893 21.8658678 26.81870893 19.359375 30.23828125 C16.30195575 32.52122179 14.52088422 32.41395149 10.75 32.25 C9.67234375 32.21390625 8.5946875 32.1778125 7.484375 32.140625 C6.66453125 32.09421875 5.8446875 32.0478125 5 32 C5.05220703 33.10408203 5.05220703 33.10408203 5.10546875 34.23046875 C5.37928318 44.1008271 5.37928318 44.1008271 2 48 C-0.84083641 49.42041821 -2.85477278 49.31452272 -6 49 C-8.30275556 47.1329009 -9.67823871 45.64352259 -11 43 C-11.07033769 41.12620395 -11.0843022 39.24998898 -11.0625 37.375 C-11.05347656 36.37210937 -11.04445313 35.36921875 -11.03515625 34.3359375 C-11.02355469 33.56507813 -11.01195313 32.79421875 -11 32 C-11.81984375 32.04640625 -12.6396875 32.0928125 -13.484375 32.140625 C-15.10085937 32.19476563 -15.10085937 32.19476563 -16.75 32.25 C-17.81734375 32.29640625 -18.8846875 32.3428125 -19.984375 32.390625 C-23 32 -23 32 -25.359375 30.23828125 C-28.03814096 26.58367911 -27.56512121 24.45032951 -27 20 C-24.68639289 17.55418677 -23.35420736 17.03441134 -19.984375 16.70703125 C-18.91703125 16.74183594 -17.8496875 16.77664063 -16.75 16.8125 C-15.67234375 16.83957031 -14.5946875 16.86664063 -13.484375 16.89453125 C-12.66453125 16.92933594 -11.8446875 16.96414063 -11 17 C-11.05800781 16.19175781 -11.11601563 15.38351562 -11.17578125 14.55078125 C-11.54389122 5.83183363 -11.54389122 5.83183363 -8.875 1.75 C-5.44812458 -0.33592417 -3.9330652 -0.81938858 0 0 Z " fill="#7B6F7B" transform="translate(96,282)"/>
<path d="M0 0 C2.70328761 2.04270981 4.86181571 4.38072424 7 7 C9.88569129 5.70265139 11.12013073 4.85984748 13.25 2.375 C16.02956939 -0.0255372 16.61534597 -0.42034522 20.0625 -0.625 C24 0 24 0 26.5 2.1875 C28.14467593 5.27126737 28.42015293 6.5765317 28 10 C26.43359375 12.09765625 26.43359375 12.09765625 24.4375 14.0625 C22.42093976 15.94094123 22.42093976 15.94094123 21 18 C21.11234508 20.58882145 21.62496212 21.62192127 23.4453125 23.45703125 C24.27675781 24.12798828 24.27675781 24.12798828 25.125 24.8125 C27.81716884 27.36876609 27.98793664 27.65016244 28.125 31.625 C26.9128108 35.26156761 26.16841301 36.8591804 23 39 C20.1875 39.6875 20.1875 39.6875 17 39 C15.05351854 37.26041136 13.37843693 35.44163884 11.7109375 33.43359375 C10.11583751 31.76826283 10.11583751 31.76826283 8 32.09375 C5.73493508 33.12010754 4.38542005 34.31447727 2.625 36.0625 C0.1203336 38.28827421 -0.79641535 38.96008144 -4.1875 39.625 C-7.78709917 38.82508907 -8.9821365 38.10440538 -11 35 C-11.88663547 30.08320333 -11.88663547 30.08320333 -11 27 C-8.95190688 24.30139592 -6.61909477 22.13803654 -4 20 C-5.29734861 17.11430871 -6.14015252 15.87986927 -8.625 13.75 C-11.07527037 10.91284484 -11.38412661 10.38982607 -11.5 6.875 C-11 3 -11 3 -10 1 C-6.64218831 -0.67890584 -3.57003934 -0.95114187 0 0 Z " fill="#7B6F7B" transform="translate(206,196)"/>
<path d="M0 0 C1.2890625 -0.00128906 2.578125 -0.00257812 3.90625 -0.00390625 C7.96142856 0.63522515 9.62555231 1.69341509 12.5 4.5625 C13.73680696 7.03611392 13.64687766 8.71653776 13.67700195 11.48364258 C13.68983719 12.50843216 13.70267242 13.53322174 13.71589661 14.58906555 C13.72328354 15.70049423 13.73067047 16.81192291 13.73828125 17.95703125 C13.746353 19.09653732 13.75442474 20.2360434 13.76274109 21.41007996 C13.77658987 23.82521031 13.78730846 26.2403603 13.79516602 28.65551758 C13.81238115 32.34949824 13.85626194 36.04258471 13.90039062 39.73632812 C13.91051706 42.08072257 13.91903331 44.42512464 13.92578125 46.76953125 C13.94328934 47.87488724 13.96079742 48.98024323 13.97883606 50.11909485 C13.95722332 57.75962697 13.95722332 57.75962697 11.69213867 61.73706055 C8.64082242 64.27795503 6.43308014 64.5625 2.5 64.5625 C-0.71629947 62.8697108 -1.33726711 62.05069868 -2.5 58.5625 C-2.58589303 57.16594541 -2.61772715 55.76564223 -2.61352539 54.36645508 C-2.61344986 53.52581009 -2.61337433 52.6851651 -2.61329651 51.81904602 C-2.60813522 50.91583115 -2.60297394 50.01261627 -2.59765625 49.08203125 C-2.5962413 48.15404221 -2.59482635 47.22605316 -2.59336853 46.26994324 C-2.58776937 43.30492942 -2.57521704 40.33999101 -2.5625 37.375 C-2.55748489 35.36523547 -2.552922 33.35546975 -2.54882812 31.34570312 C-2.53780021 26.41793968 -2.52053617 21.49023263 -2.5 16.5625 C-3.61503906 16.43230469 -4.73007813 16.30210938 -5.87890625 16.16796875 C-9.5 15.5625 -9.5 15.5625 -11.4375 13.875 C-12.8613395 10.7760552 -13.05153827 8.94067188 -12.5 5.5625 C-8.7056421 0.67582695 -6.10093447 -0.10371589 0 0 Z " fill="#7D727E" transform="translate(178.5,52.4375)"/>
<path d="M0 0 C2.5625 2.125 2.5625 2.125 4 5 C4.21743151 8.2614727 3.66756461 10.1255705 1.67797852 12.73168945 C-3.12240523 18.12713317 -8.13138028 23.28155382 -13.25 28.375 C-14.45269531 29.58349609 -14.45269531 29.58349609 -15.6796875 30.81640625 C-16.45054688 31.58597656 -17.22140625 32.35554688 -18.015625 33.1484375 C-18.70946289 33.84114746 -19.40330078 34.53385742 -20.11816406 35.24755859 C-22.64043834 37.59640197 -24.44777613 38.90396107 -27.875 39.5 C-31 39 -31 39 -33.9375 36.375 C-36 33 -36 33 -35.98657227 30.19482422 C-34.66589812 25.91807544 -32.4003536 23.62686523 -29.27734375 20.5078125 C-28.69843887 19.91700897 -28.119534 19.32620544 -27.52308655 18.71749878 C-26.29794844 17.47585686 -25.06620713 16.24070009 -23.82836914 15.01171875 C-21.94471314 13.1321973 -20.09836425 11.22072346 -18.25195312 9.3046875 C-17.0542007 8.09945457 -15.8543951 6.89625789 -14.65234375 5.6953125 C-14.10617905 5.12354279 -13.56001434 4.55177307 -12.99729919 3.962677 C-8.70802375 -0.20245649 -5.94518977 -0.77604942 0 0 Z " fill="#7C707C" transform="translate(109,196)"/>
<path d="M0 0 C0.87032364 -0.00619858 1.74064728 -0.01239716 2.63734436 -0.01878357 C4.47558475 -0.02587832 6.31388943 -0.02271369 8.15209961 -0.01000977 C10.96002943 0.00384395 13.7646179 -0.03020195 16.57226562 -0.06835938 C18.3606779 -0.06931074 20.14909433 -0.06745083 21.9375 -0.0625 C23.19239479 -0.08238731 23.19239479 -0.08238731 24.47264099 -0.10267639 C28.78618496 -0.0340297 30.54843069 0.19910352 34.09985352 2.87915039 C36.03515625 5.56640625 36.03515625 5.56640625 36.09765625 9.19140625 C34.88981945 13.02806432 34.51742001 13.73024781 31.03515625 15.56640625 C28.03527439 16.01741188 25.06447362 16.01056477 22.03515625 16 C21.16246094 16.00524185 20.28976563 16.0104837 19.390625 16.0158844 C17.54818789 16.02229891 15.7057098 16.02097498 13.86328125 16.01245117 C11.04483185 16.00393548 8.22840576 16.0327183 5.41015625 16.06445312 C3.61849019 16.06606513 1.82682054 16.06548762 0.03515625 16.0625 C-1.22748047 16.07935097 -1.22748047 16.07935097 -2.515625 16.09654236 C-6.33062186 16.05110366 -8.33091785 16.02026735 -11.49609375 13.75415039 C-13.65648733 10.53618382 -13.50537066 8.35009465 -12.96484375 4.56640625 C-9.58437919 -0.45126919 -5.53296621 -0.03272372 0 0 Z " fill="#7A6E7A" transform="translate(202.96484375,298.43359375)"/>
</svg>
