<?xml version="1.0" encoding="UTF-8"?>
<svg version="1.1" xmlns="http://www.w3.org/2000/svg" width="512" height="512">
<path d="M0 0 C136.95 0 273.9 0 415 0 C413.87498518 12.37516305 413.87498518 12.37516305 412.89941406 17.31384277 C412.68071655 18.43529694 412.46201904 19.5567511 412.23669434 20.71218872 C411.87976501 22.49724319 411.87976501 22.49724319 411.515625 24.31835938 C411.26349243 25.6026181 411.01135986 26.88687683 410.75158691 28.21005249 C410.06660819 31.69811395 409.37471925 35.18477069 408.68138123 38.67117882 C407.95465928 42.33117851 407.23406831 45.99238542 406.51269531 49.65344238 C405.30259775 55.79021938 404.08828822 61.92615033 402.87109375 68.06152344 C401.30868059 75.93712475 399.75338004 83.81411336 398.20025635 91.69155121 C396.86268912 98.47534562 395.52179302 105.25848136 394.18040466 112.04152107 C393.75001601 114.21866899 393.3201024 116.39591031 392.89025879 118.57316589 C392.09076008 122.62153344 391.28778985 126.66920469 390.484375 130.71679688 C390.12744568 132.52614212 390.12744568 132.52614212 389.76330566 134.37203979 C389.54460815 135.47093536 389.32591064 136.56983093 389.10058594 137.70202637 C388.91107361 138.65838737 388.72156128 139.61474838 388.52630615 140.60009003 C388 143 388 143 387 146 C387.825 146.04125 388.65 146.0825 389.5 146.125 C396.03544649 147.75886162 401.32142888 152.41402163 405 158 C407.71678311 163.63480941 409.13070916 168.55257526 409.11352539 174.7902832 C409.11344986 175.71086014 409.11337433 176.63143707 409.11329651 177.57991028 C409.10813522 178.5602977 409.10297394 179.54068512 409.09765625 180.55078125 C409.09553383 182.07169624 409.09553383 182.07169624 409.09336853 183.62333679 C409.08778328 186.85308821 409.07523345 190.08276962 409.0625 193.3125 C409.0574831 195.50585837 409.05292052 197.69921783 409.04882812 199.89257812 C409.03781868 205.26174253 409.0210952 210.63086626 409 216 C409.77706299 216.29640381 410.55412598 216.59280762 411.35473633 216.89819336 C416.23220462 218.92975906 419.99273124 222.61959931 424 226 C424.81984375 226.67160156 425.6396875 227.34320313 426.484375 228.03515625 C442.769056 241.90825232 453.66218065 260.74047876 460 281 C460.21027832 281.63969727 460.42055664 282.27939453 460.63720703 282.93847656 C467.06597814 303.20717534 466.38411092 328.83964972 460 349 C459.649375 350.19625 459.29875 351.3925 458.9375 352.625 C449.63552003 381.56449325 427.49895617 405.23138874 400.88330078 419.23193359 C377.73114435 430.78726083 354.28422889 431.46729453 329 431 C328.5153125 432.08796875 328.030625 433.1759375 327.53125 434.296875 C320.92159422 448.89312872 312.63971353 461.06967033 302 473 C301.03320312 474.09441406 301.03320312 474.09441406 300.046875 475.2109375 C280.39632678 496.14304321 249.21738315 510.69288605 220.58520508 512.17700195 C178.81151728 512.89492018 144.89992339 502.8736134 114.125 473.5 C102.24959677 461.06017646 93.77023031 446.73229437 87 431 C86.14994385 431.01571045 85.2998877 431.0314209 84.42407227 431.04760742 C47.16543893 431.64517771 15.70116133 425.57595813 -12.53125 399.3984375 C-32.91926748 379.59109141 -47.73011058 352.23337787 -48.23828125 323.265625 C-48.43935777 308.78902136 -48.535587 294.912609 -44 281 C-43.79101074 280.33049316 -43.58202148 279.66098633 -43.36669922 278.97119141 C-38.6554471 264.18809392 -31.24962523 250.66542949 -21 239 C-20.33742188 238.19433594 -19.67484375 237.38867188 -18.9921875 236.55859375 C-14.66455665 231.4564607 -9.97931675 227.1412969 -4.75 223 C-4.15944824 222.53086182 -3.56889648 222.06172363 -2.96044922 221.57836914 C0.24872039 219.10862489 3.22434306 217.41206039 7 216 C6.99333817 215.44591461 6.98667633 214.89182922 6.97981262 214.32095337 C6.9130335 208.51269378 6.86802421 202.70454466 6.83520508 196.89599609 C6.82019232 194.73319055 6.79977584 192.57041507 6.77368164 190.40771484 C6.73696634 187.28475489 6.72019804 184.1622002 6.70703125 181.0390625 C6.69154739 180.08448151 6.67606354 179.12990051 6.66011047 178.14639282 C6.65792909 169.28774799 8.27181415 161.00111604 14 154 C18.41048403 149.62109462 22.51320828 146 29 146 C28.78217361 145.18126404 28.56434723 144.36252808 28.33992004 143.51898193 C24.88131575 130.13195242 22.1132499 116.60313128 19.31133628 103.06635761 C18.88314503 100.99836535 18.45411232 98.93054936 18.02482033 96.86278534 C16.52457606 89.63582955 15.02814532 82.408095 13.53491211 75.1796875 C12.1459981 68.45685978 10.74793723 61.73597604 9.34589547 55.0158751 C8.1370998 49.21978643 6.93501448 43.42233203 5.738087 37.62378097 C5.02526075 34.17115661 4.3096569 30.71916522 3.58710289 27.26856232 C2.78492795 23.43655691 1.99667597 19.60176226 1.2097168 15.76660156 C0.9692865 14.62792633 0.7288562 13.4892511 0.48114014 12.31607056 C0.26952744 11.27351105 0.05791473 10.23095154 -0.16011047 9.15679932 C-0.34756993 8.25210026 -0.53502939 7.3474012 -0.72816944 6.41528702 C-1 4 -1 4 0 0 Z M136 4 C130.04776813 30.59012885 124.55410349 57.27418332 119.07250977 83.96459961 C117.799341 90.16324502 116.52155427 96.36092905 115.24264622 102.55839252 C114.25149919 107.36447758 113.26306322 112.17111709 112.27543449 116.97792625 C111.80467682 119.26712167 111.33299076 121.55612638 110.86035347 123.84493446 C110.20690019 127.01104206 109.55717947 130.1778929 108.90844727 133.3449707 C108.61636887 134.75417534 108.61636887 134.75417534 108.31838989 136.19184875 C108.14339462 137.05004211 107.96839935 137.90823547 107.7881012 138.79243469 C107.63495736 139.53716191 107.48181353 140.28188913 107.32402897 141.04918385 C106.91807286 143.16365169 106.91807286 143.16365169 107 146 C107.58007812 146.23074219 108.16015625 146.46148437 108.7578125 146.69921875 C117.0569753 150.16405074 122.00531625 153.9894038 125.96359253 162.1569519 C127.71980129 166.97454162 127.49288138 171.53237808 127.28515625 176.59765625 C127.25777794 178.80271059 127.23244895 181.00779116 127.20898438 183.21289062 C127.14481857 186.64613004 127.06201832 190.07628906 126.94213867 193.50805664 C125.76584972 206.86790268 125.76584972 206.86790268 130.69873047 218.56201172 C133.44987942 220.87767788 137.27867403 224 141 224 C141.07476562 223.32195312 141.14953125 222.64390625 141.2265625 221.9453125 C142.38438123 213.7497721 144.7515989 206.78522955 151.078125 201.1484375 C154.79179673 198.51250966 158.3470317 196.83754206 162.66479492 195.42163086 C163.88207527 195.02094643 163.88207527 195.02094643 165.12394714 194.61216736 C166.05259331 194.30914452 166.05259331 194.30914452 167 194 C166.88184118 193.25166082 166.76368237 192.50332165 166.64194298 191.73230553 C156.76129532 129.15487035 146.88064766 66.57743518 137 4 C136.67 4 136.34 4 136 4 Z M279 4 C269.1 66.37 259.2 128.74 249 193 C251.24528103 194.12264051 253.50471027 195.22072288 255.8046875 196.2265625 C264.5122337 200.19259499 268.4765472 204.12712563 272.8125 212.5 C274.14556127 216.42902269 274.6383066 219.87669524 275 224 C276.41764994 223.06398754 277.83407568 222.1261208 279.25 221.1875 C280.03890625 220.66542969 280.8278125 220.14335937 281.640625 219.60546875 C282.41921875 219.07566406 283.1978125 218.54585937 284 218 C284.69903946 217.57030411 285.39807892 217.14060822 286.11830139 216.69789124 C288.18643618 215.16179004 288.18643618 215.16179004 288.4853363 212.80833435 C288.47913773 211.9569136 288.47293915 211.10549286 288.46655273 210.22827148 C288.4701329 209.2597374 288.47371307 208.29120331 288.47740173 207.2933197 C288.4629451 206.24648514 288.44848846 205.19965057 288.43359375 204.12109375 C288.44320735 201.8977858 288.45297805 199.67447852 288.46289062 197.45117188 C288.45432279 193.95133362 288.43759039 190.45168127 288.4152832 186.9519043 C288.40066972 183.57044032 288.41609042 180.19002183 288.43359375 176.80859375 C288.41711288 175.7759288 288.40063202 174.74326385 288.38365173 173.67930603 C288.43762047 165.73831234 290.32005409 159.10970961 295.71238708 153.08763123 C299.65385639 149.33086015 303.8547949 147.62480161 309 146 C307.66248119 137.63322694 306.11350798 129.3282 304.41796875 121.02709961 C304.16729645 119.79146271 303.91662415 118.55582581 303.65835571 117.28274536 C302.9787175 113.93374284 302.29628097 110.58531715 301.61291885 107.23707271 C301.18535883 105.14185113 300.75830194 103.04652758 300.33139038 100.95117378 C298.99321595 94.38392029 297.6533142 87.81702285 296.31086063 81.25064272 C294.76475658 73.68807137 293.22448177 66.12434313 291.68913937 58.55957979 C290.49801097 52.69256182 289.30179781 46.82659516 288.10169315 40.96140677 C287.38639446 37.46501003 286.67325902 33.96820523 285.96542358 30.47028923 C285.17831008 26.58145897 284.3806706 22.69483011 283.58203125 18.80834961 C283.23285141 17.07149147 283.23285141 17.07149147 282.87661743 15.29954529 C282.54867691 13.71647583 282.54867691 13.71647583 282.21411133 12.10142517 C282.02681961 11.1832347 281.83952789 10.26504423 281.64656067 9.31902981 C281.06118451 6.75500846 281.06118451 6.75500846 279 4 Z M35 173 C35 182.9 35 192.8 35 203 C37.3925 202.525625 39.785 202.05125 42.25 201.5625 C49.15333398 200.2451717 55.96974177 199.31685671 63 199 C63.85335937 198.95875 64.70671875 198.9175 65.5859375 198.875 C71.32129306 198.73721368 76.93465111 199.22604064 82.625 199.875 C83.31746826 199.95339111 84.00993652 200.03178223 84.72338867 200.11254883 C89.9553782 200.75750393 94.79812672 201.84402816 100 203 C100 193.1 100 183.2 100 173 C78.55 173 57.1 173 35 173 Z M316 173 C316 182.9 316 192.8 316 203 C319.34125 202.2884375 319.34125 202.2884375 322.75 201.5625 C329.48535996 200.18787693 336.12307147 199.30606636 343 199 C343.85464844 198.95875 344.70929688 198.9175 345.58984375 198.875 C351.30402334 198.73751598 356.8937904 199.22453316 362.5625 199.875 C363.24658936 199.95339111 363.93067871 200.03178223 364.63549805 200.11254883 C370.18785472 200.8002472 375.47335229 201.89467046 381 203 C381 193.1 381 183.2 381 173 C359.55 173 338.1 173 316 173 Z M172 225 C172 235.89 172 246.78 172 258 C176.95 257.01 181.9 256.02 187 255 C204.08187939 252.56982361 221.15856978 253.54947343 238 257 C239.98 257.33 241.96 257.66 244 258 C244 247.11 244 236.22 244 225 C220.24 225 196.48 225 172 225 Z " fill="#FCE801" transform="translate(48,0)"/>
<path d="M0 0 C136.95 0 273.9 0 415 0 C413.87496894 12.37534169 413.87496894 12.37534169 412.91960144 17.22636414 C412.5980584 18.88036476 412.5980584 18.88036476 412.27001953 20.56777954 C412.03677979 21.73739227 411.80354004 22.907005 411.56323242 24.11206055 C411.31591873 25.37543747 411.06860504 26.63881439 410.813797 27.94047546 C410.14108718 31.37570502 409.46141459 34.80952144 408.78017592 38.24306846 C408.06311472 41.862335 407.35185164 45.48274158 406.63972473 49.10298157 C405.44236941 55.18523795 404.24051726 61.26659234 403.03588867 67.34741211 C401.65150279 74.33588317 400.27395734 81.32567527 398.90018576 88.31624001 C397.5697246 95.08567274 396.23458183 101.85417406 394.89730263 108.62226295 C394.33256526 111.48078301 393.76935804 114.33959784 393.20744896 117.19867516 C387.88473573 144.26469996 387.88473573 144.26469996 384.95552063 155.18928528 C383.47638695 161.08822279 382.27426249 167.05344172 381 173 C359.55 173 338.1 173 316 173 C316 162.875 316 162.875 316.875 158.96484375 C317.05546875 158.13662109 317.2359375 157.30839844 317.421875 156.45507812 C317.70804687 155.20887695 317.70804687 155.20887695 318 153.9375 C318.19078125 153.07189453 318.3815625 152.20628906 318.578125 151.31445312 C319.04369179 149.20776339 319.52064561 147.10359536 320 145 C316.37 145.33 312.74 145.66 309 146 C304.94491464 127.98984731 301.07835121 109.95041816 297.3828125 91.86328125 C296.87591597 89.3907633 296.36882164 86.91828589 295.86154175 84.44584656 C294.54776741 78.04000111 293.23662082 71.63362078 291.92608643 65.22711182 C290.57996557 58.64911917 289.23126961 52.07165467 287.8828125 45.49414062 C285.25273684 32.66326597 282.62535852 19.83184063 280 7 C277.86967082 18.03762539 275.97087799 29.09472175 274.22851562 40.19970703 C273.96714195 41.85424019 273.70555399 43.50873951 273.44377136 45.16320801 C272.88598313 48.69096438 272.32955991 52.2189322 271.7742157 55.74707413 C270.89381705 61.33946534 270.00952925 66.93123751 269.12463379 72.5229187 C266.76956387 87.40841733 264.41930343 102.29467439 262.07176161 117.18136203 C260.52540525 126.98732141 258.97683754 136.7929259 257.42414427 146.59788406 C256.54619202 152.14311566 255.67168732 157.68887594 254.79985809 163.23507333 C254.25477411 166.69741737 253.7064571 170.15924392 253.15728188 173.62094116 C252.90563362 175.21129335 252.65527132 176.80184971 252.40637779 178.39263535 C251.05394867 187.03161645 249.53642719 195.57797785 247.62671661 204.11422539 C246.86711772 207.61186874 246.33214014 211.07593018 245.875 214.625 C245.40965077 218.1926774 244.87449563 221.50201749 244 225 C220.24 225 196.48 225 172 225 C172.62845132 217.45858411 173.320783 210.17653706 174.5625 202.75 C174.77036133 201.47189453 174.77036133 201.47189453 174.98242188 200.16796875 C175.31749647 198.111304 175.65812582 196.0555454 176 194 C173.03 194 170.06 194 167 194 C165.5337751 189.16762696 164.48846599 184.45934894 163.70323181 179.45880127 C163.58788906 178.73214823 163.47254631 178.00549518 163.35370833 177.25682235 C162.97117003 174.84014161 162.59484483 172.42253606 162.21850586 170.00488281 C161.94435721 168.26483737 161.66981596 166.52485375 161.39491272 164.78492737 C160.80527836 161.04764768 160.21838192 157.30995207 159.63361931 153.57190704 C158.709327 147.663746 157.77875075 141.75658526 156.8473053 135.84954834 C155.20800471 125.44822897 153.57402999 115.04607824 151.94122314 104.64373779 C149.48050637 88.96725782 147.01553072 73.2914482 144.54567057 57.6164062 C143.62011377 51.74103492 142.69732425 45.86523753 141.7767123 39.98908949 C141.20462692 36.34058776 140.63046374 32.6924152 140.05576134 29.04432487 C139.78919762 27.34931165 139.52352639 25.65415781 139.25880051 23.95885658 C138.89814472 21.64994897 138.53435843 19.34155585 138.16978455 17.03326416 C137.96682235 15.7398624 137.76386015 14.44646065 137.55474758 13.1138649 C137.07425925 9.98122115 137.07425925 9.98122115 136 7 C135.85753908 7.69537683 135.71507816 8.39075367 135.56830025 9.10720253 C132.10021598 26.03424304 128.62806106 42.96044342 125.15138435 59.88572121 C123.47018234 68.07070411 121.79035465 76.25596456 120.11376953 84.44189453 C118.65230238 91.57749287 117.18824909 98.71255485 115.72109973 105.84698713 C114.94448965 109.6239315 114.16916914 113.40113018 113.39694595 117.17897415 C112.66963425 120.7368952 111.93885907 124.2940874 111.20545578 127.8507576 C110.80975321 129.7742459 110.41769585 131.69848299 110.02575684 133.6227417 C109.78741119 134.77531464 109.54906555 135.92788757 109.30349731 137.11538696 C109.09885927 138.11276697 108.89422123 139.11014698 108.68338203 140.13775063 C107.96067622 143.16470211 107.00632277 146.05665964 106 149 C105.61976629 150.6838463 105.27357094 152.37580668 104.96484375 154.07421875 C104.71057617 155.44610352 104.71057617 155.44610352 104.45117188 156.84570312 C104.28166016 157.78349609 104.11214844 158.72128906 103.9375 159.6875 C103.59431089 161.56674742 103.24933683 163.44566999 102.90234375 165.32421875 C102.75273193 166.15010498 102.60312012 166.97599121 102.44897461 167.8269043 C102 170 102 170 101 173 C79.22 173 57.44 173 35 173 C37.25 157.25 37.25 157.25 38.625 151.125 C38.88539062 149.95195312 39.14578125 148.77890625 39.4140625 147.5703125 C39.70410156 146.29800781 39.70410156 146.29800781 40 145 C36.37 145.33 32.74 145.66 29 146 C25.22422223 131.80812404 22.28702768 117.44269697 19.31133628 103.06635761 C18.88314503 100.99836535 18.45411232 98.93054936 18.02482033 96.86278534 C16.52457606 89.63582955 15.02814532 82.408095 13.53491211 75.1796875 C12.1459981 68.45685978 10.74793723 61.73597604 9.34589547 55.0158751 C8.1370998 49.21978643 6.93501448 43.42233203 5.738087 37.62378097 C5.02526075 34.17115661 4.3096569 30.71916522 3.58710289 27.26856232 C2.78492795 23.43655691 1.99667597 19.60176226 1.2097168 15.76660156 C0.9692865 14.62792633 0.7288562 13.4892511 0.48114014 12.31607056 C0.26952744 11.27351105 0.05791473 10.23095154 -0.16011047 9.15679932 C-0.34756993 8.25210026 -0.53502939 7.3474012 -0.72816944 6.41528702 C-1 4 -1 4 0 0 Z " fill="#26A5FD" transform="translate(48,0)"/>
<path d="M0 0 C-0.11739459 1.47978969 -0.24446132 2.95881184 -0.375 4.4375 C-0.47941406 5.67306641 -0.47941406 5.67306641 -0.5859375 6.93359375 C-0.92233692 9.42485364 -1.40691957 11.68826725 -2.01367188 14.1171875 C-3.07909187 18.86517405 -3.25910721 23.34154569 -3.1953125 28.19140625 C-3.19106766 29.43747902 -3.19106766 29.43747902 -3.18673706 30.70872498 C-3.17566291 33.32680505 -3.1505836 35.94452571 -3.125 38.5625 C-3.11495365 40.35220855 -3.10583072 42.14192254 -3.09765625 43.93164062 C-3.07576565 48.28789604 -3.04132633 52.64388738 -3 57 C-1.5917395 56.68712036 -1.5917395 56.68712036 -0.1550293 56.36791992 C1.08851318 56.09568604 2.33205566 55.82345215 3.61328125 55.54296875 C4.84087158 55.27250732 6.06846191 55.0020459 7.33325195 54.72338867 C12.54696258 53.6948099 17.69729908 53.23308575 23 53 C24.28390625 52.938125 24.28390625 52.938125 25.59375 52.875 C31.29575676 52.73760225 36.90059338 53.1976295 42.5625 53.8125 C43.24658936 53.88251221 43.93067871 53.95252441 44.63549805 54.0246582 C50.30145355 54.69951313 55.58192973 56.23921461 61 58 C60.97381592 57.09048584 60.94763184 56.18097168 60.9206543 55.24389648 C60.45314874 36.46911002 60.80150575 19.23186197 66 1 C73.88609087 1.79907314 77.96398652 4.79987769 83.3125 10.4375 C87.30789572 16.50458238 89.1333751 22.58483988 89.11352539 29.7902832 C89.11344986 30.71086014 89.11337433 31.63143707 89.11329651 32.57991028 C89.10813522 33.5602977 89.10297394 34.54068512 89.09765625 35.55078125 C89.09553383 37.07169624 89.09553383 37.07169624 89.09336853 38.62333679 C89.08778328 41.85308821 89.07523345 45.08276962 89.0625 48.3125 C89.0574831 50.50585837 89.05292052 52.69921783 89.04882812 54.89257812 C89.03781868 60.26174253 89.0210952 65.63086626 89 71 C90.16559448 71.44460571 90.16559448 71.44460571 91.35473633 71.89819336 C96.23220462 73.92975906 99.99273124 77.61959931 104 81 C104.81984375 81.67160156 105.6396875 82.34320313 106.484375 83.03515625 C122.769056 96.90825232 133.66218065 115.74047876 140 136 C140.21027832 136.63969727 140.42055664 137.27939453 140.63720703 137.93847656 C147.06597814 158.20717534 146.38411092 183.83964972 140 204 C139.649375 205.19625 139.29875 206.3925 138.9375 207.625 C129.63552003 236.56449325 107.49895617 260.23138874 80.88330078 274.23193359 C58.9873373 285.16029027 33.16182521 289.19617133 9 285 C10.24940272 278.16116405 11.84792103 271.43769109 13.59082031 264.7109375 C18.95873651 243.77709859 17.58683112 219.49190434 11 199 C10.74831055 198.20996582 10.49662109 197.41993164 10.23730469 196.60595703 C4.85450553 180.29844538 -3.64788503 165.84862731 -15 153 C-15.85658203 151.94619141 -15.85658203 151.94619141 -16.73046875 150.87109375 C-22.05549498 144.40770087 -28.61931286 138.18507137 -36.14428711 134.43164062 C-40.72737502 131.92599543 -44.19794517 129.72971415 -45.69992065 124.6178894 C-46.66425856 118.51384804 -46.6204446 112.41634297 -46.45458984 106.25268555 C-46.3750268 102.93861619 -46.413207 99.64051327 -46.46484375 96.32617188 C-46.44896305 81.08488636 -46.44896305 81.08488636 -42.74707031 75.75830078 C-40.22590682 73.71764032 -37.96931981 72.2797079 -35 71 C-34.01 70.505 -34.01 70.505 -33 70 C-32.99857498 69.39580231 -32.99714996 68.79160461 -32.99568176 68.1690979 C-32.97588993 61.84128277 -32.92141432 55.51442001 -32.84741211 49.18701172 C-32.82431353 46.83031056 -32.80985565 44.47350736 -32.80444336 42.11669922 C-32.79509457 38.7151795 -32.75397163 35.31524684 -32.70703125 31.9140625 C-32.7109639 30.87198639 -32.71489655 29.82991028 -32.71894836 28.7562561 C-32.53911487 19.59862387 -29.86888945 12.51454979 -23.25 6.0625 C-16.09472368 0.381157 -8.92194001 -0.50290685 0 0 Z " fill="#E2DEE1" transform="translate(368,145)"/>
<path d="M0 0 C-0.493374 5.52578877 -1.36374042 10.81812493 -2.5 16.25 C-4.22047939 24.99779944 -4.54995065 33.60778086 -4.6875 42.5 C-4.72080216 44.01695397 -4.75530278 45.53388212 -4.79101562 47.05078125 C-4.87440639 50.70032971 -4.94188433 54.34995082 -5 58 C-3.91823486 57.71995117 -2.83646973 57.43990234 -1.72192383 57.15136719 C-0.27951345 56.78299235 1.16295379 56.4148401 2.60546875 56.046875 C3.3157019 55.86237793 4.02593506 55.67788086 4.75769043 55.48779297 C10.82672115 53.94744753 16.73674602 53.20289414 23 53 C23.85335937 52.96003906 24.70671875 52.92007813 25.5859375 52.87890625 C31.34094181 52.73200674 36.97713106 53.22771336 42.6875 53.875 C43.38834717 53.95339111 44.08919434 54.03178223 44.8112793 54.11254883 C49.66452068 54.70800004 54.27585546 55.7381073 59 57 C59.01401855 55.81579468 59.01401855 55.81579468 59.02832031 54.60766602 C59.25156454 39.57479401 59.81862271 25.51086663 64 11 C64.43962571 8.98403678 64.85992699 6.96363463 65.25 4.9375 C65.39953125 4.16277344 65.5490625 3.38804687 65.703125 2.58984375 C65.85007813 1.80287109 65.85007813 1.80287109 66 1 C72.46518541 1.26938273 76.3838374 3.48662644 81 8 C85.20829196 13.34689909 88.17356376 17.85970756 88.03076172 24.8034668 C88.01520233 25.77845627 87.99964294 26.75344574 87.98361206 27.75798035 C87.96581696 28.81108902 87.94802185 29.86419769 87.9296875 30.94921875 C87.91878352 33.18162767 87.91107259 35.41405404 87.90625 37.64648438 C87.89840077 41.16563852 87.87515137 44.68061028 87.79785156 48.19897461 C86.70889597 61.57440244 86.70889597 61.57440244 91.48925781 73.33056641 C94.27464569 75.35044571 96.80374698 76.75778674 100 78 C103.59088655 81.59088655 101.87667621 93.99906263 102.00927734 98.86914062 C102.08573728 101.10293206 102.19454599 103.33587663 102.33740234 105.56640625 C103.46747446 123.58313798 103.46747446 123.58313798 99.35388184 129.27947998 C95.36782474 133.22729894 90.85753487 136.1188553 85.98031616 138.84692383 C77.73291225 143.64912921 71.71326473 151.55159562 66 159 C65.42765625 159.721875 64.8553125 160.44375 64.265625 161.1875 C54.08899742 174.75633678 46.77467296 190.51109027 43 207 C42.61593994 208.51339966 42.61593994 208.51339966 42.22412109 210.05737305 C40.23242398 218.38045269 39.52888765 226.37184396 39.60888672 234.90405273 C39.62496803 236.93346589 39.60893088 238.96088083 39.58984375 240.99023438 C39.57053214 253.41800475 41.97362447 264.76186333 45.37109375 276.6796875 C46.11622233 279.42879541 46.61867892 282.17822401 47 285 C16.24751176 289.4915295 -14.34010579 283.00733794 -39.8125 265.0625 C-66.21852524 244.98454589 -83.23043156 217.92680215 -88 185 C-88.89892035 168.53921847 -89.15122329 151.80103205 -84 136 C-83.79101074 135.33049316 -83.58202148 134.66098633 -83.36669922 133.97119141 C-78.6554471 119.18809392 -71.24962523 105.66542949 -61 94 C-60.33742188 93.19433594 -59.67484375 92.38867188 -58.9921875 91.55859375 C-54.66455665 86.4564607 -49.97931675 82.1412969 -44.75 78 C-44.15944824 77.53086182 -43.56889648 77.06172363 -42.96044922 76.57836914 C-39.75127961 74.10862489 -36.77565694 72.41206039 -33 71 C-33.00666183 70.44591461 -33.01332367 69.89182922 -33.02018738 69.32095337 C-33.0869665 63.51269378 -33.13197579 57.70454466 -33.16479492 51.89599609 C-33.17980768 49.73319055 -33.20022416 47.57041507 -33.22631836 45.40771484 C-33.26303366 42.28475489 -33.27980196 39.1622002 -33.29296875 36.0390625 C-33.30845261 35.08448151 -33.32393646 34.12990051 -33.33988953 33.14639282 C-33.34228522 23.41741243 -31.330062 14.66406066 -24.50390625 7.41015625 C-17.32266332 0.62694988 -9.60406376 -0.54135641 0 0 Z " fill="#FC7C43" transform="translate(88,145)"/>
<path d="M0 0 C68.64 0 137.28 0 208 0 C206.68971048 9.82717141 205.3083288 19.59119327 203.6796875 29.36328125 C203.4576955 30.70637258 203.2359412 32.04950321 203.0144043 33.39266968 C202.54609988 36.22986492 202.07653029 39.06684632 201.605896 41.90365601 C200.48241755 48.67700296 199.36662459 55.45161782 198.25079727 62.22622871 C198.00004019 63.74865404 197.74921355 65.27106791 197.49831772 66.79347038 C195.25312638 80.41887178 193.04805186 94.05039484 190.875 107.6875 C190.64219833 109.14748413 190.64219833 109.14748413 190.4046936 110.63696289 C189.77419713 114.59135555 189.14396458 118.54579008 188.51423645 122.50030518 C186.57575063 134.6713267 184.62576817 146.84050197 182.67266846 159.00918579 C182.07444995 162.73801332 181.4773968 166.46702625 180.88037109 170.19604492 C180.51537128 172.47055189 180.15030322 174.7450479 179.78515625 177.01953125 C179.61888229 178.05973419 179.45260834 179.09993713 179.28129578 180.17166138 C179.12667374 181.1331308 178.9720517 182.09460022 178.81274414 183.08520508 C178.61244347 184.33458611 178.61244347 184.33458611 178.40809631 185.60920715 C177.98573805 188.08355228 177.50372129 190.54104138 177 193 C173.7 193.33 170.4 193.66 167 194 C165.5337751 189.16762696 164.48846599 184.45934894 163.70323181 179.45880127 C163.58788906 178.73214823 163.47254631 178.00549518 163.35370833 177.25682235 C162.97117003 174.84014161 162.59484483 172.42253606 162.21850586 170.00488281 C161.94435721 168.26483737 161.66981596 166.52485375 161.39491272 164.78492737 C160.80527836 161.04764768 160.21838192 157.30995207 159.63361931 153.57190704 C158.709327 147.663746 157.77875075 141.75658526 156.8473053 135.84954834 C155.20800471 125.44822897 153.57402999 115.04607824 151.94122314 104.64373779 C149.48050637 88.96725782 147.01553072 73.2914482 144.54567057 57.6164062 C143.62011377 51.74103492 142.69732425 45.86523753 141.7767123 39.98908949 C141.20462692 36.34058776 140.63046374 32.6924152 140.05576134 29.04432487 C139.78919762 27.34931165 139.52352639 25.65415781 139.25880051 23.95885658 C138.89814472 21.64994897 138.53435843 19.34155585 138.16978455 17.03326416 C137.96682235 15.7398624 137.76386015 14.44646065 137.55474758 13.1138649 C137.07425925 9.98122115 137.07425925 9.98122115 136 7 C135.85753908 7.69537683 135.71507816 8.39075367 135.56830025 9.10720253 C132.10021598 26.03424304 128.62806106 42.96044342 125.15138435 59.88572121 C123.47018234 68.07070411 121.79035465 76.25596456 120.11376953 84.44189453 C118.65230238 91.57749287 117.18824909 98.71255485 115.72109973 105.84698713 C114.94448965 109.6239315 114.16916914 113.40113018 113.39694595 117.17897415 C112.66963425 120.7368952 111.93885907 124.2940874 111.20545578 127.8507576 C110.80975321 129.7742459 110.41769585 131.69848299 110.02575684 133.6227417 C109.78741119 134.77531464 109.54906555 135.92788757 109.30349731 137.11538696 C109.09885927 138.11276697 108.89422123 139.11014698 108.68338203 140.13775063 C107.96067622 143.16470211 107.00632277 146.05665964 106 149 C105.61976629 150.6838463 105.27357094 152.37580668 104.96484375 154.07421875 C104.71057617 155.44610352 104.71057617 155.44610352 104.45117188 156.84570312 C104.28166016 157.78349609 104.11214844 158.72128906 103.9375 159.6875 C103.59431089 161.56674742 103.24933683 163.44566999 102.90234375 165.32421875 C102.75273193 166.15010498 102.60312012 166.97599121 102.44897461 167.8269043 C102 170 102 170 101 173 C79.22 173 57.44 173 35 173 C37.25 157.25 37.25 157.25 38.625 151.125 C38.88539062 149.95195312 39.14578125 148.77890625 39.4140625 147.5703125 C39.70410156 146.29800781 39.70410156 146.29800781 40 145 C36.37 145.33 32.74 145.66 29 146 C25.22422223 131.80812404 22.28702768 117.44269697 19.31133628 103.06635761 C18.88314503 100.99836535 18.45411232 98.93054936 18.02482033 96.86278534 C16.52457606 89.63582955 15.02814532 82.408095 13.53491211 75.1796875 C12.1459981 68.45685978 10.74793723 61.73597604 9.34589547 55.0158751 C8.1370998 49.21978643 6.93501448 43.42233203 5.738087 37.62378097 C5.02526075 34.17115661 4.3096569 30.71916522 3.58710289 27.26856232 C2.78492795 23.43655691 1.99667597 19.60176226 1.2097168 15.76660156 C0.9692865 14.62792633 0.7288562 13.4892511 0.48114014 12.31607056 C0.26952744 11.27351105 0.05791473 10.23095154 -0.16011047 9.15679932 C-0.34756993 8.25210026 -0.53502939 7.3474012 -0.72816944 6.41528702 C-1 4 -1 4 0 0 Z " fill="#26A5FD" transform="translate(48,0)"/>
<path d="M0 0 C0.14492653 5.47791852 -0.34433777 10.38251849 -1.48828125 15.74609375 C-3.38544111 25.53245885 -3.33901367 35.13025472 -3.1875 45.0625 C-3.17239843 46.81574348 -3.15871988 48.5689998 -3.14648438 50.32226562 C-3.11397504 54.54850453 -3.06250853 58.77410278 -3 63 C-2.09378906 62.79503906 -1.18757813 62.59007812 -0.25390625 62.37890625 C22.07086055 57.44147105 46.10368184 56.51595965 68 64 C67.9685791 62.51512085 67.9685791 62.51512085 67.93652344 61.00024414 C66.99193741 12.01612518 66.99193741 12.01612518 73 0 C80.43324097 0.32318439 86.68790789 3.57704288 91.8671875 8.9296875 C98.47727014 17.3813852 99.37921659 24.13108225 99.125 34.65234375 C99.10829247 37.14516745 99.09404504 39.63800864 99.08203125 42.13085938 C99.0490988 46.04023552 98.99978173 49.94676601 98.90771484 53.85522461 C98.82614228 57.64310165 98.81400727 61.42619909 98.8125 65.21484375 C98.76818848 66.37652573 98.72387695 67.5382077 98.67822266 68.73509216 C98.72164872 73.75045721 98.80512194 76.7702617 102.39697266 80.46690369 C105.18609417 82.50253259 108.01746866 84.26497872 111 86 C133.19844009 102.71537139 148.9990503 126.4313291 157 153 C157.19754883 153.64372559 157.39509766 154.28745117 157.59863281 154.95068359 C160.8280547 165.93653204 161.39309805 176.87154521 161.4375 188.25 C161.4436734 188.91892273 161.4498468 189.58784546 161.45620728 190.27703857 C161.51545452 200.2602762 160.29716648 209.30682586 158 219 C157.78110107 219.94746094 157.56220215 220.89492188 157.33666992 221.87109375 C150.3976242 250.59110818 150.3976242 250.59110818 140.57421875 259.1015625 C137.78237961 260.68600535 134.9899706 261.83175752 132 263 C130.68811311 263.63376832 129.38246217 264.28054574 128.08203125 264.9375 C110.55558545 273.73531189 91.7776355 279.42701713 72 279 C74.88029357 276.71447703 77.7830575 275.02679578 81.0625 273.375 C87.37763027 269.96550148 92.65758726 265.76779277 98 261 C98.845625 260.24976563 99.69125 259.49953125 100.5625 258.7265625 C112.38385049 247.6071047 119.72743468 234.19506537 125 219 C125.43441406 217.79601562 125.86882812 216.59203125 126.31640625 215.3515625 C131.40571075 198.71822584 131.46395941 177.5454835 126 161 C125.64808594 159.92492187 125.29617188 158.84984375 124.93359375 157.7421875 C120.76085949 146.09158294 115.05439889 135.40807938 107 126 C106.34515625 125.20078125 105.6903125 124.4015625 105.015625 123.578125 C90.17736107 106.14045717 68.72793396 94.82637258 46 92 C17.32614756 90.35147781 -7.21804328 94.256204 -30 113 C-31.47919922 114.21623047 -31.47919922 114.21623047 -32.98828125 115.45703125 C-44.87314325 125.60140066 -52.52916962 137.90130335 -59 152 C-59.33 152 -59.66 152 -60 152 C-61.02784646 132.21966588 -57.27751274 113.98844842 -49 96 C-48.57799316 95.04794678 -48.57799316 95.04794678 -48.14746094 94.07666016 C-42.96967469 82.44544311 -42.96967469 82.44544311 -38.92016602 80.58520508 C-35.82514424 78.35800824 -35.82514424 78.35800824 -35.46664429 75.54872131 C-35.28985875 72.25593503 -35.30144319 69.00782506 -35.37109375 65.7109375 C-35.36924576 64.49733551 -35.36739777 63.28373352 -35.36549377 62.03335571 C-35.36123621 58.14655612 -35.39542729 54.26155633 -35.4375 50.375 C-35.47438088 46.50998009 -35.50199979 42.64612024 -35.49879456 38.78091431 C-35.49703719 36.37665906 -35.51792584 33.97224499 -35.56504822 31.56845093 C-35.56275194 22.38574599 -33.02990988 14.30247183 -26.68359375 7.3828125 C-18.47715064 0.64248567 -10.37106254 -0.90328609 0 0 Z " fill="#FCEF54" transform="translate(224,194)"/>
<path d="M0 0 C-0.11739459 1.47978969 -0.24446132 2.95881184 -0.375 4.4375 C-0.47941406 5.67306641 -0.47941406 5.67306641 -0.5859375 6.93359375 C-0.92233692 9.42485364 -1.40691957 11.68826725 -2.01367188 14.1171875 C-3.07909187 18.86517405 -3.25910721 23.34154569 -3.1953125 28.19140625 C-3.19106766 29.43747902 -3.19106766 29.43747902 -3.18673706 30.70872498 C-3.17566291 33.32680505 -3.1505836 35.94452571 -3.125 38.5625 C-3.11495365 40.35220855 -3.10583072 42.14192254 -3.09765625 43.93164062 C-3.07576565 48.28789604 -3.04132633 52.64388738 -3 57 C-1.5917395 56.68712036 -1.5917395 56.68712036 -0.1550293 56.36791992 C1.08851318 56.09568604 2.33205566 55.82345215 3.61328125 55.54296875 C4.84087158 55.27250732 6.06846191 55.0020459 7.33325195 54.72338867 C12.54696258 53.6948099 17.69729908 53.23308575 23 53 C24.28390625 52.938125 24.28390625 52.938125 25.59375 52.875 C31.29575676 52.73760225 36.90059338 53.1976295 42.5625 53.8125 C43.24658936 53.88251221 43.93067871 53.95252441 44.63549805 54.0246582 C50.30145355 54.69951313 55.58192973 56.23921461 61 58 C60.97381592 57.09048584 60.94763184 56.18097168 60.9206543 55.24389648 C60.45314874 36.46911002 60.80150575 19.23186197 66 1 C73.88609087 1.79907314 77.96398652 4.79987769 83.3125 10.4375 C87.30789572 16.50458238 89.1333751 22.58483988 89.11352539 29.7902832 C89.11344986 30.71086014 89.11337433 31.63143707 89.11329651 32.57991028 C89.10813522 33.5602977 89.10297394 34.54068512 89.09765625 35.55078125 C89.09553383 37.07169624 89.09553383 37.07169624 89.09336853 38.62333679 C89.08778328 41.85308821 89.07523345 45.08276962 89.0625 48.3125 C89.0574831 50.50585837 89.05292052 52.69921783 89.04882812 54.89257812 C89.03781868 60.26174253 89.0210952 65.63086626 89 71 C90.16559448 71.44460571 90.16559448 71.44460571 91.35473633 71.89819336 C96.23220462 73.92975906 99.99273124 77.61959931 104 81 C104.81984375 81.67160156 105.6396875 82.34320313 106.484375 83.03515625 C122.769056 96.90825232 133.66218065 115.74047876 140 136 C140.21027832 136.63969727 140.42055664 137.27939453 140.63720703 137.93847656 C147.05964186 158.18719824 146.40667112 183.86176669 140 204 C139.42185547 205.88138672 139.42185547 205.88138672 138.83203125 207.80078125 C137.68188111 211.26612036 136.37492696 214.61875969 135 218 C134.68675781 218.98742187 134.37351562 219.97484375 134.05078125 220.9921875 C131.14364107 228.35694262 126.36815264 230.86584494 119.4375 233.9375 C115.98798167 235.37917369 112.51254365 236.72014862 109 238 C108.33355469 238.24363281 107.66710937 238.48726562 106.98046875 238.73828125 C103.36314904 240.02286319 99.72387878 241.07414552 96 242 C95.1646875 242.22300781 94.329375 242.44601562 93.46875 242.67578125 C84.16056556 244.78736013 74.48331434 244.1671887 65 244 C68.16085363 241.42199882 71.36741554 239.0271647 74.75 236.75 C92.07574487 224.61683742 104.43370786 206.73396197 108.375 185.75390625 C111.82288792 162.91654635 108.07280246 141.27068606 95.01953125 122.08984375 C93.10676046 119.61965871 91.11174525 117.30151968 89 115 C88.33613281 114.24460937 87.67226563 113.48921875 86.98828125 112.7109375 C71.76954665 96.33884223 49.67458294 88.30883368 27.625 87.4375 C4.32745724 88.19309598 -16.96308224 98.04782064 -33.109375 114.8046875 C-36.70559209 118.98046024 -39.86897214 123.47000224 -43 128 C-43.66 127.67 -44.32 127.34 -45 127 C-45.25451113 120.31137827 -45.42905383 113.6240122 -45.54931641 106.93164062 C-45.59946671 104.65772857 -45.66760861 102.3841368 -45.75439453 100.11132812 C-46.45908083 81.17599272 -46.45908083 81.17599272 -42.79980469 75.71875 C-40.25787193 73.66983695 -38.00272496 72.25449936 -35 71 C-34.01 70.505 -34.01 70.505 -33 70 C-32.99857498 69.39580231 -32.99714996 68.79160461 -32.99568176 68.1690979 C-32.97588993 61.84128277 -32.92141432 55.51442001 -32.84741211 49.18701172 C-32.82431353 46.83031056 -32.80985565 44.47350736 -32.80444336 42.11669922 C-32.79509457 38.7151795 -32.75397163 35.31524684 -32.70703125 31.9140625 C-32.7109639 30.87198639 -32.71489655 29.82991028 -32.71894836 28.7562561 C-32.53911487 19.59862387 -29.86888945 12.51454979 -23.25 6.0625 C-16.09472368 0.381157 -8.92194001 -0.50290685 0 0 Z " fill="#F1EFF2" transform="translate(368,145)"/>
<path d="M0 0 C9.3945539 7.12238272 18.5170311 15.65588515 24.51953125 25.91015625 C24.51953125 26.57015625 24.51953125 27.23015625 24.51953125 27.91015625 C22.42465291 29.50697274 20.32314208 30.99819209 18.14453125 32.47265625 C7.71262215 39.75247771 -0.73825489 47.77675017 -8.48046875 57.91015625 C-9.05152344 58.63074219 -9.62257813 59.35132813 -10.2109375 60.09375 C-20.43929323 73.72345918 -27.56092238 89.40155841 -31.48046875 105.91015625 C-31.7846875 107.00585938 -32.08890625 108.1015625 -32.40234375 109.23046875 C-35.30024657 120.57603166 -35.22063102 132.26196105 -35.48046875 143.91015625 C-35.81046875 143.91015625 -36.14046875 143.91015625 -36.48046875 143.91015625 C-36.48046875 142.26015625 -36.48046875 140.61015625 -36.48046875 138.91015625 C-38.08921875 138.56984375 -38.08921875 138.56984375 -39.73046875 138.22265625 C-54.87510918 134.37007228 -68.76101826 126.07478744 -80.48046875 115.91015625 C-81.28871094 115.24628906 -82.09695312 114.58242188 -82.9296875 113.8984375 C-94.3699898 104.1822624 -102.60712681 92.13780058 -109.48046875 78.91015625 C-109.95097656 78.02199219 -110.42148438 77.13382812 -110.90625 76.21875 C-115.02372178 67.86907813 -117.39284797 58.94581691 -119.48046875 49.91015625 C-119.74778809 48.78988037 -119.74778809 48.78988037 -120.02050781 47.64697266 C-121.82380959 39.63445467 -122.52495753 33.38474473 -118.16796875 25.97265625 C-116.66720247 23.90556308 -115.1046228 21.88177924 -113.48046875 19.91015625 C-112.75730469 19.01683594 -112.03414062 18.12351562 -111.2890625 17.203125 C-109.10920708 14.66450983 -106.84420468 12.27785154 -104.48046875 9.91015625 C-103.72121094 9.13929688 -102.96195313 8.3684375 -102.1796875 7.57421875 C-74.84937223 -18.63783485 -31.08866998 -21.20741355 0 0 Z " fill="#FC7D42" transform="translate(162.48046875,246.08984375)"/>
<path d="M0 0 C22.11 0 44.22 0 67 0 C65.87496894 12.37534169 65.87496894 12.37534169 64.91960144 17.22636414 C64.70523941 18.32903122 64.49087738 19.4316983 64.27001953 20.56777954 C64.03677979 21.73739227 63.80354004 22.907005 63.56323242 24.11206055 C63.19226189 26.00712593 63.19226189 26.00712593 62.813797 27.94047546 C62.14108718 31.37570502 61.46141459 34.80952144 60.78017592 38.24306846 C60.06311472 41.862335 59.35185164 45.48274158 58.63972473 49.10298157 C57.44236941 55.18523795 56.24051726 61.26659234 55.03588867 67.34741211 C53.65150279 74.33588317 52.27395734 81.32567527 50.90018576 88.31624001 C49.5697246 95.08567274 48.23458183 101.85417406 46.89730263 108.62226295 C46.33256526 111.48078301 45.76935804 114.33959784 45.20744896 117.19867516 C39.88473573 144.26469996 39.88473573 144.26469996 36.95552063 155.18928528 C35.47638695 161.08822279 34.27426249 167.05344172 33 173 C11.55 173 -9.9 173 -32 173 C-32 166.65531526 -31.75268269 161.55592745 -30.4453125 155.5234375 C-30.27229614 154.68471603 -30.09927979 153.84599457 -29.92102051 152.9818573 C-29.53549256 151.11302247 -29.14638061 149.2449244 -28.75421143 147.37747192 C-27.61471718 141.94003174 -26.50943322 136.49568811 -25.40625 131.05078125 C-25.15195221 129.79609543 -24.89765442 128.54140961 -24.63565063 127.248703 C-19.79078226 103.22778965 -15.36356209 79.12209553 -10.83356857 55.04033566 C-10.06523249 50.95778718 -9.29545203 46.8755117 -8.52549744 42.7932682 C-7.99602055 39.98221139 -7.46893243 37.17071443 -6.9420166 34.35917664 C-6.61070653 32.60083971 -6.27929095 30.84252266 -5.94775391 29.08422852 C-5.74039203 27.97189378 -5.74039203 27.97189378 -5.52884102 26.83708763 C-3.83009657 17.85818134 -1.88384151 8.94824717 0 0 Z " fill="#26A6FD" transform="translate(396,0)"/>
<path d="M0 0 C23.76 0 47.52 0 72 0 C70.68971048 9.82717141 69.3083288 19.59119327 67.6796875 29.36328125 C67.4576955 30.70637258 67.2359412 32.04950321 67.0144043 33.39266968 C66.54609988 36.22986492 66.07653029 39.06684632 65.605896 41.90365601 C64.48241755 48.67700296 63.36662459 55.45161782 62.25079727 62.22622871 C62.00004019 63.74865404 61.74921355 65.27106791 61.49831772 66.79347038 C59.25312638 80.41887178 57.04805186 94.05039484 54.875 107.6875 C54.71979889 108.66082275 54.56459778 109.63414551 54.4046936 110.63696289 C53.77419713 114.59135555 53.14396458 118.54579008 52.51423645 122.50030518 C50.57575063 134.6713267 48.62576817 146.84050197 46.67266846 159.00918579 C46.07444995 162.73801332 45.4773968 166.46702625 44.88037109 170.19604492 C44.51537128 172.47055189 44.15030322 174.7450479 43.78515625 177.01953125 C43.61888229 178.05973419 43.45260834 179.09993713 43.28129578 180.17166138 C43.12667374 181.1331308 42.9720517 182.09460022 42.81274414 183.08520508 C42.67921036 183.91812576 42.54567657 184.75104645 42.40809631 185.60920715 C41.98573805 188.08355228 41.50372129 190.54104138 41 193 C37.7 193.33 34.4 193.66 31 194 C29.51521301 189.11392094 28.44279388 184.28665736 27.65853882 179.23774719 C27.53840695 178.4872984 27.41827508 177.73684961 27.29450285 176.96365994 C26.89582726 174.46639986 26.50332932 171.96820991 26.11083984 169.4699707 C25.82519788 167.67243769 25.53918256 165.87496398 25.25282288 164.07754517 C24.47829005 159.20864179 23.70920247 154.33889273 22.94126844 149.46894479 C22.13658104 144.37080274 21.32744833 139.27336605 20.51895142 134.17582703 C19.16259632 125.61956752 17.80972965 117.06276202 16.45898438 108.50561523 C14.89677439 98.60905933 13.32928375 88.71335095 11.75891912 78.81808597 C10.248188 69.29792968 8.74095479 59.77722291 7.23540115 50.25624657 C6.59455788 46.20392726 5.95252609 42.1517989 5.30955124 38.09981728 C4.55320853 33.33227137 3.79993782 28.56425002 3.0490551 23.79584122 C2.77276962 22.04449556 2.49543029 20.29331578 2.21697044 18.54231453 C1.83761854 16.15575086 1.46206648 13.76861962 1.0874939 11.38130188 C0.97602064 10.68568455 0.86454737 9.99006721 0.74969614 9.27337056 C0.25793323 6.11384519 0 3.21267024 0 0 Z " fill="#0082FB" transform="translate(184,0)"/>
<path d="M0 0 C6.46518541 0.26938273 10.3838374 2.48662644 15 7 C19.20829196 12.34689909 22.17356376 16.85970756 22.03076172 23.8034668 C22.01520233 24.77845627 21.99964294 25.75344574 21.98361206 26.75798035 C21.96581696 27.81108902 21.94802185 28.86419769 21.9296875 29.94921875 C21.91878352 32.18162767 21.91107259 34.41405404 21.90625 36.64648438 C21.89840077 40.16563852 21.87515137 43.68061028 21.79785156 47.19897461 C20.70889597 60.57440244 20.70889597 60.57440244 25.48925781 72.33056641 C28.27464569 74.35044571 30.80374698 75.75778674 34 77 C35 78 35 78 35.12025452 79.94252014 C35.11803391 80.79301437 35.11581329 81.64350861 35.11352539 82.51977539 C35.11344986 83.48069595 35.11337433 84.44161652 35.11329651 85.43165588 C35.10813522 86.476436 35.10297394 87.52121613 35.09765625 88.59765625 C35.09553383 90.19364906 35.09553383 90.19364906 35.09336853 91.82188416 C35.08775064 95.23545083 35.07519511 98.648953 35.0625 102.0625 C35.05748731 104.37044176 35.052924 106.67838455 35.04882812 108.98632812 C35.0377754 114.65757426 35.02101987 120.32878253 35 126 C34.01 126 33.02 126 32 126 C30.0546875 123.69140625 30.0546875 123.69140625 27.875 120.5625 C14.21508923 101.70198867 -4.47256187 91.45579892 -27.2265625 87.47265625 C-49.12529815 84.72964692 -70.02958396 90.50129147 -87.90234375 103.53125 C-96.82853276 110.64518626 -103.38173319 118.42929249 -109.22265625 128.12890625 C-111 131 -111 131 -113 133 C-113.47845673 110.80492403 -110.25600162 86.10169278 -96 68 C-93.53347591 66.41580973 -91.31655876 65.157661 -88.6875 63.9375 C-87.98544434 63.60024902 -87.28338867 63.26299805 -86.56005859 62.91552734 C-66.40451379 53.480729 -45.37981942 50.37360627 -23.3125 52.875 C-22.26122925 52.99258667 -22.26122925 52.99258667 -21.1887207 53.11254883 C-16.33547932 53.70800004 -11.72414454 54.7381073 -7 56 C-6.9906543 55.21052979 -6.98130859 54.42105957 -6.97167969 53.60766602 C-6.74843546 38.57479401 -6.18137729 24.51086663 -2 10 C-1.56037429 7.98403678 -1.14007301 5.96363463 -0.75 3.9375 C-0.60046875 3.16277344 -0.4509375 2.38804687 -0.296875 1.58984375 C-0.19890625 1.06519531 -0.1009375 0.54054687 0 0 Z " fill="#FD9367" transform="translate(154,146)"/>
<path d="M0 0 C3.84113735 1.4573877 4.90904271 3.15343305 6.5859375 6.83984375 C7.27042969 8.31227539 7.27042969 8.31227539 7.96875 9.81445312 C8.66484375 11.36036133 8.66484375 11.36036133 9.375 12.9375 C10.76308201 15.96657727 12.15873664 18.98602639 13.61572266 21.98266602 C15 25 15 25 15.98974609 28.07788086 C17.28838642 31.49438664 18.33487163 33.47164988 21 36 C27.23842989 38.59989634 34.22046261 38.97813008 40.875 39.6875 C42.72714771 39.92185272 44.57872753 40.1607409 46.4296875 40.40429688 C50.94824647 40.98886533 55.47014751 41.5109638 60 42 C59.23213565 46.96438061 57.58499671 48.87300178 53.9375 52.375 C53.44088867 52.85614258 52.94427734 53.33728516 52.43261719 53.83300781 C49.60604154 56.55023818 46.71004933 59.17958389 43.75 61.75 C43.12738281 62.29527344 42.50476563 62.84054687 41.86328125 63.40234375 C40.57357492 64.50819257 39.25601592 65.58206634 37.91796875 66.62890625 C35.91184376 68.33431033 34.45058746 69.80220461 33 72 C32.78417208 74.18213345 32.78417208 74.18213345 33.1875 76.50390625 C33.30536865 77.38554443 33.4232373 78.26718262 33.54467773 79.17553711 C34.48430271 85.00423489 35.5297793 90.80840059 36.62695312 96.609375 C37.6403462 102.1774688 38.20837378 107.34029916 38 113 C33.46300732 112.44662597 30.08369032 111.25960427 26.05078125 109.12890625 C24.95572266 108.55462891 23.86066406 107.98035156 22.73242188 107.38867188 C21.60384766 106.78603516 20.47527344 106.18339844 19.3125 105.5625 C18.17232422 104.96373047 17.03214844 104.36496094 15.85742188 103.74804688 C7.54638879 99.36425919 7.54638879 99.36425919 4 97 C-0.50484733 96.55971695 -3.21455494 97.26521631 -7.1171875 99.484375 C-8.52291016 100.26941406 -8.52291016 100.26941406 -9.95703125 101.0703125 C-10.91996094 101.62460937 -11.88289063 102.17890625 -12.875 102.75 C-14.7883771 103.82934093 -16.70242861 104.90748728 -18.6171875 105.984375 C-19.53209961 106.49935547 -20.44701172 107.01433594 -21.38964844 107.54492188 C-31.17583893 113 -31.17583893 113 -36 113 C-35.63475456 103.48535621 -34.11090288 94.30729378 -32.37207031 84.96069336 C-32.19643555 84.00428955 -32.02080078 83.04788574 -31.83984375 82.0625 C-31.67863037 81.20785156 -31.51741699 80.35320312 -31.35131836 79.47265625 C-30.52243669 74.65078069 -30.52243669 74.65078069 -32.15820312 70.25830078 C-32.69380859 69.74251465 -33.22941406 69.22672852 -33.78125 68.6953125 C-34.37236572 68.11515381 -34.96348145 67.53499512 -35.57250977 66.93725586 C-36.20858154 66.33921143 -36.84465332 65.74116699 -37.5 65.125 C-38.1405835 64.50439697 -38.78116699 63.88379395 -39.44116211 63.24438477 C-43.83501053 59.01506248 -48.36057837 54.95748255 -53 51 C-54.84608423 49.39431495 -56.38924296 47.86243782 -58 46 C-58 44.68 -58 43.36 -58 42 C-56.30641357 41.87661255 -56.30641357 41.87661255 -54.57861328 41.75073242 C-34.53977988 40.97526024 -34.53977988 40.97526024 -16.31640625 34.125 C-12.70305196 29.83559878 -11.18175261 24.93306216 -9.77929688 19.57324219 C-8.44454741 15.16589278 -6.12780515 11.30634195 -3.875 7.3125 C-3.11813496 5.89419264 -2.36508398 4.47383828 -1.6171875 3.05078125 C-1.08351562 2.04402344 -0.54984375 1.03726562 0 0 Z " fill="#F3D903" transform="translate(255,319)"/>
<path d="M0 0 C22.44 0 44.88 0 68 0 C66.75678951 9.32407871 65.46143062 18.4403225 63.63671875 27.63671875 C63.40819717 28.80853195 63.1796756 29.98034515 62.94422913 31.18766785 C62.32457032 34.36228827 61.70117424 37.5361469 61.07627869 40.70973969 C60.41682806 44.06443821 59.76260042 47.42015353 59.10839844 50.77587891 C58.97476583 51.46133663 58.84113323 52.14679436 58.70345116 52.85302353 C58.42944893 54.25863875 58.15547446 55.66425937 57.88152695 57.06988525 C57.46153658 59.22399354 57.04099897 61.37799448 56.62039185 63.53198242 C53.43128521 79.87328735 50.30838885 96.22722379 47.1876564 112.58169937 C46.6050826 115.6343609 46.02211493 118.68694715 45.439147 121.73953342 C43.95846931 129.49283886 42.47887421 137.24635034 41 145 C37.04 145.33 33.08 145.66 29 146 C24.96949373 128.06773851 21.09441806 110.11023816 17.3828125 92.109375 C17.134566 90.90722603 16.8863195 89.70507706 16.63055038 88.46649933 C15.3249364 82.14350931 14.02173474 75.82002818 12.72070312 69.49609375 C11.65034816 64.29534759 10.57580026 59.0954977 9.49707031 53.89648438 C8.18074294 47.55130991 6.87114453 41.20478326 5.56655502 34.85718536 C5.07206648 32.45657407 4.57528099 30.05643468 4.07611465 27.65679169 C3.38294046 24.32164877 2.69847408 20.98483051 2.01611328 17.64746094 C1.81047256 16.66776337 1.60483185 15.6880658 1.39295959 14.67868042 C1.20810501 13.76569183 1.02325043 12.85270325 0.83279419 11.91204834 C0.67097719 11.12764248 0.50916019 10.34323662 0.34243965 9.53506088 C-0.08330696 6.38328344 0 3.18040268 0 0 Z " fill="#0082FB" transform="translate(328,0)"/>
<path d="M0 0 C22.11 0 44.22 0 67 0 C67 9.00027923 67 9.00027923 66.06958008 13.83569336 C65.86549026 14.91560043 65.66140045 15.99550751 65.4511261 17.10813904 C65.2261998 18.25710159 65.0012735 19.40606415 64.76953125 20.58984375 C64.53723312 21.80660294 64.304935 23.02336212 64.06559753 24.2769928 C63.446457 27.51194949 62.82089824 30.74557697 62.19226074 33.97869873 C61.57224254 37.17674504 60.96151344 40.37656474 60.34960938 43.57617188 C58.10705722 55.27108655 55.81753253 66.95566573 53.46484375 78.62890625 C51.69639699 87.40722508 50.00342782 96.19754038 48.359375 105 C48.14359299 106.15492447 47.92781097 107.30984894 47.70549011 108.49977112 C46.82540821 113.21729159 45.94723039 117.93515512 45.07324219 122.65380859 C44.42203934 126.16568619 43.7660754 129.67664692 43.109375 133.1875 C42.91148376 134.26322266 42.71359253 135.33894531 42.50970459 136.44726562 C42.32571106 137.42759766 42.14171753 138.40792969 41.95214844 139.41796875 C41.79180115 140.28188232 41.63145386 141.1457959 41.46624756 142.03588867 C41 144 41 144 40 145 C38.15108054 145.23363881 36.29511969 145.41303635 34.4375 145.5625 C32.99709351 145.67839478 32.99709351 145.67839478 31.52758789 145.79663086 C30.69348389 145.86374268 29.85937988 145.93085449 29 146 C25.22422223 131.80812404 22.28702768 117.44269697 19.31133628 103.06635761 C18.88314503 100.99836535 18.45411232 98.93054936 18.02482033 96.86278534 C16.52457606 89.63582955 15.02814532 82.408095 13.53491211 75.1796875 C12.1459981 68.45685978 10.74793723 61.73597604 9.34589547 55.0158751 C8.1370998 49.21978643 6.93501448 43.42233203 5.738087 37.62378097 C5.02526075 34.17115661 4.3096569 30.71916522 3.58710289 27.26856232 C2.78492795 23.43655691 1.99667597 19.60176226 1.2097168 15.76660156 C0.9692865 14.62792633 0.7288562 13.4892511 0.48114014 12.31607056 C0.26952744 11.27351105 0.05791473 10.23095154 -0.16011047 9.15679932 C-0.34756993 8.25210026 -0.53502939 7.3474012 -0.72816944 6.41528702 C-1 4 -1 4 0 0 Z " fill="#0082FB" transform="translate(48,0)"/>
<path d="M0 0 C16.5 0 33 0 50 0 C46.55190664 25.286018 46.55190664 25.286018 45.07055664 34.53735352 C44.90097946 35.60898743 44.73140228 36.68062134 44.5566864 37.784729 C44.01029699 41.23318303 43.46041449 44.68106762 42.91015625 48.12890625 C42.52034187 50.5806236 42.13065027 53.03236047 41.74107361 55.4841156 C40.93001053 60.58464309 40.11713166 65.68487699 39.30297852 70.78491211 C38.26935807 77.26099148 37.2408674 83.73787351 36.21381474 90.21499729 C35.412167 95.2662518 34.60748735 100.31701996 33.80196953 105.36765862 C33.421903 107.7532694 33.04279746 110.13903354 32.66475105 112.52496529 C30.35840396 127.06957436 27.85259833 141.55212717 25 156 C24.67 156 24.34 156 24 156 C20.86704366 136.25133622 17.73760476 116.50211815 14.61236572 96.7522316 C13.16121982 87.58227629 11.70891838 78.41250677 10.25390625 69.24316406 C8.98589463 61.25226126 7.72004122 53.2610201 6.45679092 45.26936316 C5.78768129 41.03688872 5.11748359 36.80459298 4.44470215 32.5727005 C3.81168342 28.59070159 3.18154823 24.60825715 2.55363464 20.62545013 C2.3225091 19.16275677 2.09032485 17.70023025 1.85700989 16.23788452 C1.53887205 14.24288332 1.22489347 12.24722017 0.91113281 10.25152588 C0.73414856 9.13431278 0.55716431 8.01709969 0.37481689 6.86603165 C0 4 0 4 0 0 Z " fill="#0293FC" transform="translate(184,0)"/>
<path d="M0 0 C0.99 0 1.98 0 3 0 C3.54358154 1.16571533 3.54358154 1.16571533 4.09814453 2.35498047 C5.45736482 5.24424256 6.83463672 8.12395664 8.22460938 10.99853516 C8.82147316 12.24243295 9.41109606 13.48983299 9.99316406 14.74072266 C10.83290336 16.54200644 11.70132185 18.32983174 12.5703125 20.1171875 C13.08352051 21.19597168 13.59672852 22.27475586 14.12548828 23.38623047 C16.95243799 27.32805432 20.04591801 27.65122477 24.63720703 28.47070312 C25.50200684 28.57318359 26.36680664 28.67566406 27.2578125 28.78125 C28.21300781 28.90113281 29.16820312 29.02101563 30.15234375 29.14453125 C32.14181716 29.38243149 34.13140176 29.6194036 36.12109375 29.85546875 C37.07371094 29.97535156 38.02632813 30.09523438 39.0078125 30.21875 C39.87035645 30.32123047 40.73290039 30.42371094 41.62158203 30.52929688 C44.04534033 31.00897312 45.85641147 31.79209996 48 33 C46.50250685 36.56094028 44.46271642 38.68364618 41.6484375 41.30078125 C40.79765625 42.11353516 39.946875 42.92628906 39.0703125 43.76367188 C37.2751351 45.46128529 35.47040816 47.14885754 33.65625 48.82617188 C28.62841661 53.45382479 28.62841661 53.45382479 26.3203125 59.6484375 C26.54460937 60.75445312 26.76890625 61.86046875 27 63 C27.2165625 64.19238281 27.433125 65.38476562 27.65625 66.61328125 C27.9346875 67.83402344 28.213125 69.05476563 28.5 70.3125 C29.79831801 76.27555808 30.38747108 81.90091815 30 88 C22.897173 87.55680226 17.35058237 83.37665371 11.43164062 79.7734375 C7.65235158 77.5795645 4.97133463 76.04189639 0.55859375 75.8515625 C-4.49653384 77.48296482 -9.23460913 79.66469995 -14 82 C-14.22026855 81.3922876 -14.44053711 80.7845752 -14.66748047 80.15844727 C-20.88072097 63.20061323 -27.78545768 47.5118756 -39.6015625 33.6875 C-41 32 -41 32 -41 31 C-39.86739746 31.0146228 -39.86739746 31.0146228 -38.71191406 31.02954102 C-30.30464503 30.96211333 -21.66428703 30.74410858 -14 27 C-8.18672409 20.73945896 -5.44376503 12.48781146 -2.90014648 4.45849609 C-2 2 -2 2 0 0 Z " fill="#CBC4CC" transform="translate(395,267)"/>
<path d="M0 0 C1.87719727 0.29711914 1.87719727 0.29711914 4 1 C5.49970835 3.47764939 6.73712188 5.82043801 7.9375 8.4375 C8.93467983 10.52977912 9.93270597 12.6204602 10.95385742 14.70117188 C12 17 12 17 12.8996582 19.67382812 C13.99613149 22.56703015 14.97537212 24.65057722 17 27 C21.34723757 28.78959845 25.65522893 29.20912749 30.3125 29.625 C31.53001953 29.77066406 32.74753906 29.91632813 34.00195312 30.06640625 C36.99917248 30.41902029 39.994536 30.72842384 43 31 C41.5818727 34.71620699 40.05307457 37.39325417 37.5625 40.5 C28.38677302 52.87383619 21.47706464 67.28257758 17 82 C16.11957031 81.566875 15.23914063 81.13375 14.33203125 80.6875 C13.17058594 80.130625 12.00914063 79.57375 10.8125 79 C9.66394531 78.443125 8.51539063 77.88625 7.33203125 77.3125 C4.03679026 76.01449183 2.45544159 75.67472122 -1 76 C-3.591432 77.07497053 -3.591432 77.07497053 -6.16015625 78.625 C-7.11857422 79.16640625 -8.07699219 79.7078125 -9.06445312 80.265625 C-10.05380859 80.83796875 -11.04316406 81.4103125 -12.0625 82 C-14.02813691 83.13269667 -15.99803363 84.25804175 -17.97265625 85.375 C-18.84156494 85.87773437 -19.71047363 86.38046875 -20.60571289 86.8984375 C-23 88 -23 88 -27 88 C-27.47176709 80.57403656 -26.29938621 73.81721638 -24.65625 66.61328125 C-23.97374878 62.85546203 -23.65322589 59.80883883 -24 56 C-25.88198339 53.16000158 -25.88198339 53.16000158 -28.59375 50.72265625 C-29.05986694 50.26644394 -29.52598389 49.81023163 -30.00622559 49.3401947 C-31.48845339 47.89693291 -32.9931636 46.48000493 -34.5 45.0625 C-35.51330956 44.08432757 -36.52504758 43.10452435 -37.53515625 42.12304688 C-40.0084459 39.73220022 -42.49655482 37.35918637 -45 35 C-44.67 34.01 -44.34 33.02 -44 32 C-43.20303711 31.88930176 -42.40607422 31.77860352 -41.58496094 31.66455078 C-37.97225092 31.1586029 -34.36115474 30.64192672 -30.75 30.125 C-29.49574219 29.95097656 -28.24148437 29.77695312 -26.94921875 29.59765625 C-25.74394531 29.42363281 -24.53867188 29.24960937 -23.296875 29.0703125 C-21.63156738 28.83465576 -21.63156738 28.83465576 -19.93261719 28.59423828 C-16.22055968 27.84414096 -16.22055968 27.84414096 -13 26 C-11.25447392 23.33711457 -11.25447392 23.33711457 -9.765625 20.1171875 C-9.19199219 18.95058594 -8.61835937 17.78398437 -8.02734375 16.58203125 C-7.43463309 15.34648017 -6.84218853 14.11080141 -6.25 12.875 C-5.64303686 11.63096834 -5.03497591 10.38747167 -4.42578125 9.14453125 C-2.93962526 6.10144993 -1.46494259 3.0533354 0 0 Z " fill="#FC6A3C" transform="translate(114,267)"/>
<path d="M0 0 C0.33 0 0.66 0 1 0 C1.08975098 0.65782471 1.17950195 1.31564941 1.27197266 1.9934082 C6.60826957 40.20142704 20.67095368 73.1599368 51.984375 97.30078125 C72.52974022 112.09651068 94.8667012 120.31736069 120 123 C121.21945312 123.13019531 122.43890625 123.26039063 123.6953125 123.39453125 C126.12964958 123.62800348 128.56006331 123.83771063 131 124 C128.81220817 126.18779183 127.8173435 126.49404498 124.89453125 127.25390625 C124.07533203 127.46853516 123.25613281 127.68316406 122.41210938 127.90429688 C121.55423828 128.12150391 120.69636719 128.33871094 119.8125 128.5625 C118.97396484 128.78357422 118.13542969 129.00464844 117.27148438 129.23242188 C91.0482382 136.00829579 64.93379744 131.34561904 41.625 118.0625 C17.79811236 102.96151269 2.28829737 80.31950968 -4 53 C-7.29352277 35.46251567 -5.61581346 16.84744039 0 0 Z " fill="#F3D903" transform="translate(163,349)"/>
<path d="M0 0 C0.66 0.33 1.32 0.66 2 1 C2.49936559 3.65211847 2.89527163 6.26545202 3.25 8.9375 C6.49885002 30.2594089 15.25379612 49.38900057 29 66 C29.68449219 66.84820312 30.36898437 67.69640625 31.07421875 68.5703125 C44.0040055 83.81837894 61.44995896 94.36204692 80.32519531 100.53027344 C82.52734375 101.296875 82.52734375 101.296875 86 103 C87.00390625 105.265625 87.00390625 105.265625 87 108 C87.020625 109.258125 87.04125 110.51625 87.0625 111.8125 C87.041875 112.864375 87.02125 113.91625 87 115 C59.42355379 115.52415632 37.01510856 110.21420859 16.59765625 90.7890625 C8.45065675 82.04175777 2.2401186 72.19656317 -2 61 C-2.4125 59.92105469 -2.825 58.84210938 -3.25 57.73046875 C-8.97882179 40.00692635 -8.40299211 16.80598423 0 0 Z " fill="#FC6A3D" transform="translate(40,282)"/>
<path d="M0 0 C15.18 0 30.36 0 46 0 C43.75015205 15.74893565 43.75015205 15.74893565 42.58300781 21.78271484 C42.39220139 22.77669533 42.39220139 22.77669533 42.19754028 23.79075623 C41.78584765 25.93143064 41.3695101 28.07117139 40.953125 30.2109375 C40.65615746 31.75088508 40.35951418 33.29089521 40.06317139 34.83096313 C39.28585817 38.86657171 38.50470942 42.90142751 37.72253418 46.93609619 C36.48890551 53.30325816 35.26134972 59.67159601 34.03312683 66.03980255 C33.73055204 67.6082874 33.42782859 69.17674357 33.12495422 70.74517059 C30.02136248 86.81857457 26.99626156 102.90626871 24 119 C23.67 119 23.34 119 23 119 C19.99273911 104.51964854 16.9934307 90.03766896 14.00351715 75.55372524 C12.61498751 68.82824565 11.22388483 62.10331773 9.82666016 55.37963867 C8.47819528 48.8905633 7.13698626 42.40001572 5.80018616 35.90852547 C5.28906735 33.43252971 4.77552129 30.95703373 4.25950623 28.48205376 C3.5370086 25.01463815 2.82317246 21.54554372 2.11132812 18.07592773 C1.89626114 17.05381195 1.68119415 16.03169617 1.45960999 14.97860718 C1.16932167 13.55059532 1.16932167 13.55059532 0.87316895 12.09373474 C0.70355904 11.27426078 0.53394913 10.45478682 0.35919952 9.61048031 C-0.07778835 6.43467367 0 3.20573022 0 0 Z " fill="#0292FC" transform="translate(328,0)"/>
<path d="M0 0 C15.18 0 30.36 0 46 0 C41.44454202 25.92272518 36.59280619 51.77903448 31.625 77.625 C31.46561699 78.45436443 31.30623398 79.28372887 31.14202118 80.13822556 C29.52666537 88.54271914 27.90907421 96.94678266 26.28759766 105.35009766 C26.06222321 106.51819977 25.83684875 107.68630188 25.60464478 108.88980103 C25.0787184 111.59508474 24.54378211 114.29825692 24 117 C21.70287045 114.70287045 21.52937111 113.69135606 20.8795929 110.57241821 C20.58301285 109.17600853 20.58301285 109.17600853 20.28044128 107.75138855 C20.0709938 106.7269313 19.86154633 105.70247406 19.64575195 104.64697266 C19.41952148 103.57045944 19.19329102 102.49394623 18.96020508 101.3848114 C18.21181484 97.8127966 17.47467683 94.23856791 16.73828125 90.6640625 C16.22349084 88.18777026 15.70828265 85.71156484 15.19267273 83.23544312 C14.11259521 78.03949838 13.03803266 72.8424537 11.9675293 67.64453125 C10.7299759 61.63605293 9.4805805 55.63012672 8.22511512 49.62536776 C7.01798917 43.84981937 5.82068918 38.07226559 4.62743187 32.29383469 C4.11852074 29.83484511 3.60693024 27.37640851 3.09264565 24.91853714 C2.37534111 21.48464173 1.66924209 18.04862834 0.96606445 14.61181641 C0.75054428 13.59140762 0.53502411 12.57099884 0.31297302 11.51966858 C0.12371246 10.58308914 -0.0655481 9.6465097 -0.26054382 8.68154907 C-0.42847789 7.86928171 -0.59641195 7.05701435 -0.76943493 6.22013283 C-1 4 -1 4 0 0 Z " fill="#0293FC" transform="translate(48,0)"/>
<path d="M0 0 C0.14101447 5.45041736 -0.32713331 10.34485136 -1.45703125 15.68359375 C-3.40642199 25.78032069 -3.55814829 35.80835232 -3.6875 46.0625 C-3.72078136 47.9121318 -3.75528035 49.76174211 -3.79101562 51.61132812 C-3.87465346 56.07409678 -3.9420284 60.53682722 -4 65 C-5.06476563 65.35191406 -6.12953125 65.70382812 -7.2265625 66.06640625 C-16.93207671 69.34388461 -25.96481546 73.16023395 -35 78 C-35.1273463 70.20802366 -35.21458062 62.41631821 -35.2746582 54.62353516 C-35.29971759 51.97564668 -35.33377435 49.32782678 -35.37719727 46.68017578 C-35.43822279 42.86213196 -35.46629732 39.04500706 -35.48828125 35.2265625 C-35.52699089 33.46658432 -35.52699089 33.46658432 -35.56648254 31.67105103 C-35.56959351 22.44159331 -33.06375214 14.33937149 -26.68359375 7.3828125 C-18.47715064 0.64248567 -10.37106254 -0.90328609 0 0 Z " fill="#FCE801" transform="translate(224,194)"/>
<path d="M0 0 C7.43324097 0.32318439 13.68790789 3.57704288 18.8671875 8.9296875 C25.50273732 17.41394772 26.43068729 24.35998942 26.29296875 34.93359375 C26.28872391 36.16666763 26.28447906 37.39974152 26.28010559 38.67018127 C26.26336737 42.59284674 26.22572265 46.51499086 26.1875 50.4375 C26.17075097 53.10350811 26.15875969 55.76951132 26.14648438 58.43554688 C26.11347962 64.95720791 26.0633279 71.4785667 26 78 C24.93523437 77.48050781 23.87046875 76.96101563 22.7734375 76.42578125 C13.66679312 72.03317695 4.60679478 68.16674059 -5 65 C-6.08473033 12.16946067 -6.08473033 12.16946067 0 0 Z " fill="#FCE802" transform="translate(297,194)"/>
<path d="M0 0 C-0.11739459 1.47978969 -0.24446132 2.95881184 -0.375 4.4375 C-0.44460938 5.26121094 -0.51421875 6.08492187 -0.5859375 6.93359375 C-0.9212788 9.41701756 -1.3998152 11.68079513 -2 14.10351562 C-3.07691312 18.90104578 -3.34383915 23.50642962 -3.4140625 28.41015625 C-3.43342865 29.26306747 -3.4527948 30.1159787 -3.4727478 30.99473572 C-3.53190102 33.68389294 -3.57866838 36.3730945 -3.625 39.0625 C-3.66323911 40.90040794 -3.70229417 42.7382991 -3.7421875 44.57617188 C-3.8375485 49.0506428 -3.92181253 53.52519738 -4 58 C-4.77778809 58.31670654 -5.55557617 58.63341309 -6.35693359 58.9597168 C-12.23912971 61.37835611 -17.97856868 63.88731718 -23.625 66.8125 C-29.78251599 70 -29.78251599 70 -32 70 C-32.12748648 63.06253839 -32.2146377 56.12538234 -32.2746582 49.18701172 C-32.29969708 46.83012605 -32.33373841 44.47331721 -32.37719727 42.11669922 C-32.4383159 38.71562672 -32.46631727 35.3155868 -32.48828125 31.9140625 C-32.51408768 30.87198639 -32.5398941 29.82991028 -32.56648254 28.7562561 C-32.56956857 20.58240004 -30.60102751 14.03940124 -25.08638 7.85342407 C-17.78129082 0.72915784 -9.88972039 -0.55745814 0 0 Z " fill="#E1DDE2" transform="translate(368,145)"/>
<path d="M0 0 C7.88609087 0.79907314 11.96398652 3.79987769 17.3125 9.4375 C21.28256143 15.4661118 23.1337083 21.53355513 23.11352539 28.69848633 C23.11344986 29.59904251 23.11337433 30.49959869 23.11329651 31.42744446 C23.10813522 32.3859581 23.10297394 33.34447174 23.09765625 34.33203125 C23.0962413 35.32377853 23.09482635 36.31552582 23.09336853 37.33732605 C23.08778418 40.49574843 23.07523452 43.65409915 23.0625 46.8125 C23.05748298 48.95768127 23.05292042 51.10286365 23.04882812 53.24804688 C23.03781988 58.49872224 23.0210973 63.749356 23 69 C18.32008446 67.94186554 14.21271924 65.79899325 9.92773438 63.703125 C5.07086031 61.37659781 0.13888127 59.60409523 -5 58 C-5.55661658 38.02174641 -5.58246759 19.39907489 0 0 Z " fill="#E1DDE2" transform="translate(434,146)"/>
<path d="M0 0 C6.46518541 0.26938273 10.3838374 2.48662644 15 7 C19.2525032 12.40307225 22.13115501 16.93145965 22.11352539 23.93041992 C22.11344986 24.93123093 22.11337433 25.93204193 22.11329651 26.96318054 C22.10813522 28.04138565 22.10297394 29.11959076 22.09765625 30.23046875 C22.0962413 31.33602615 22.09482635 32.44158356 22.09336853 33.5806427 C22.08776514 37.11628917 22.07521204 40.65187262 22.0625 44.1875 C22.05748544 46.58268138 22.05292246 48.97786375 22.04882812 51.37304688 C22.03779461 57.24871947 22.02105316 63.12435523 22 69 C17.11721567 67.06996833 12.3936789 64.8697723 7.64453125 62.6328125 C3.14821903 60.61838752 -1.4148292 58.8009682 -6 57 C-6.41447948 40.7795048 -6.72330906 25.66624264 -2 10 C-1.55754795 7.9846552 -1.13684905 5.96425264 -0.75 3.9375 C-0.60046875 3.16277344 -0.4509375 2.38804687 -0.296875 1.58984375 C-0.19890625 1.06519531 -0.1009375 0.54054687 0 0 Z " fill="#FC7C43" transform="translate(154,146)"/>
<path d="M0 0 C2.7225 1.093125 5.445 2.18625 8.25 3.3125 C20.37506419 8.0646113 32.10618936 10.50276789 45 12 C41.78961977 14.72726475 38.76787054 15.91583043 34.75 17.125 C33.67234375 17.45757812 32.5946875 17.79015625 31.484375 18.1328125 C24.12412111 19.96462457 17.03853993 20.13315818 9.5 20.0625 C4.7975 20.0315625 4.7975 20.0315625 0 20 C0 13.4 0 6.8 0 0 Z " fill="#CBC4CB" transform="translate(385,377)"/>
</svg>
