<?xml version="1.0" encoding="UTF-8"?>
<svg version="1.1" xmlns="http://www.w3.org/2000/svg" width="512" height="512">
<path d="M0 0 C1.46986643 -0.00174993 2.9397316 -0.00526253 4.40959024 -0.01035666 C8.39836103 -0.01919792 12.38669295 -0.00344506 16.37540793 0.01675558 C20.6955474 0.03417502 25.01566594 0.02817373 29.33583069 0.02514648 C36.80412061 0.0230582 44.27226977 0.03551221 51.74052429 0.05809784 C62.53808488 0.0907306 73.33557803 0.10103634 84.13318259 0.10604981 C101.6553552 0.11478485 119.17745295 0.14135163 136.69958496 0.17926025 C153.71162545 0.21602684 170.72364553 0.24431581 187.73571777 0.2612915 C188.78592364 0.2623424 189.8361295 0.26339329 190.91815978 0.26447603 C196.18720666 0.26969652 201.45625368 0.27475127 206.72530079 0.27972364 C250.37514921 0.32112987 294.02490614 0.3926371 337.67468262 0.48101807 C337.67468262 10.71101807 337.67468262 20.94101807 337.67468262 31.48101807 C327.77468262 31.48101807 317.87468262 31.48101807 307.67468262 31.48101807 C307.67468262 64.15101807 307.67468262 96.82101807 307.67468262 130.48101807 C317.57468262 130.48101807 327.47468262 130.48101807 337.67468262 130.48101807 C337.67468262 140.71101807 337.67468262 150.94101807 337.67468262 161.48101807 C307.31468262 161.81101807 276.95468262 162.14101807 245.67468262 162.48101807 C253.09968262 164.95601807 253.09968262 164.95601807 260.67468262 167.48101807 C269.87057987 171.71336741 277.56557262 177.2753497 284.67468262 184.48101807 C285.44425293 185.24027588 286.21382324 185.99953369 287.00671387 186.78179932 C303.33600848 203.77873119 308.38699859 224.50701851 307.97937012 247.48883057 C307.34301843 264.23907965 300.66555991 280.76499041 289.67468262 293.48101807 C289.09331543 294.20418213 288.51194824 294.92734619 287.91296387 295.67242432 C277.25933683 308.44381089 263.18877079 315.30965534 247.67468262 320.48101807 C292.22468262 320.97601807 292.22468262 320.97601807 337.67468262 321.48101807 C337.67468262 331.71101807 337.67468262 341.94101807 337.67468262 352.48101807 C327.77468262 352.48101807 317.87468262 352.48101807 307.67468262 352.48101807 C307.67468262 385.48101807 307.67468262 418.48101807 307.67468262 452.48101807 C317.57468262 452.48101807 327.47468262 452.48101807 337.67468262 452.48101807 C337.67468262 462.71101807 337.67468262 472.94101807 337.67468262 483.48101807 C303.02468262 483.48101807 268.37468262 483.48101807 232.67468262 483.48101807 C232.67468262 493.05101807 232.67468262 502.62101807 232.67468262 512.48101807 C226.4653206 510.41123073 220.80552628 508.28999336 214.97546387 505.46148682 C214.17795212 505.08043289 213.38044037 504.69937897 212.5587616 504.30677795 C210.03248731 503.09898765 207.50961284 501.88431345 204.98718262 500.66851807 C203.31622387 499.86523177 201.64500163 499.06249336 199.97351074 498.26031494 C199.1560437 497.86747818 198.33857666 497.47464142 197.49633789 497.06990051 C195.86148265 496.29122551 194.22237564 495.52141336 192.57910156 494.76066589 C188.94474287 493.07700499 185.42153892 491.37715091 182.00280762 489.28594971 C176.14742025 485.99258031 176.14742025 485.99258031 169.58071899 485.86837769 C163.72726361 487.69819938 158.42345918 490.63692284 153.04968262 493.54351807 C151.36393085 494.40677001 149.67542913 495.26467244 147.98425293 496.11724854 C144.68336819 497.78684868 141.39560714 499.47843092 138.11706543 501.19146729 C132.64215193 504.03668072 127.06936299 506.61400341 121.42468262 509.10601807 C120.6349707 509.46445801 119.84525879 509.82289795 119.03161621 510.19219971 C113.93323373 512.48101807 113.93323373 512.48101807 111.67468262 512.48101807 C111.67468262 502.91101807 111.67468262 493.34101807 111.67468262 483.48101807 C107.7970945 483.4876799 107.7970945 483.4876799 103.84117126 483.49447632 C79.46119379 483.53539908 55.08122085 483.56513446 30.7012167 483.58464241 C18.16769997 483.59493861 5.63420851 483.60896721 -6.89929199 483.63189697 C-17.82822895 483.65188163 -28.75714761 483.66474653 -39.68610233 483.66919506 C-45.46856417 483.67179385 -51.25097366 483.67786747 -57.03341866 483.69247818 C-62.48589859 483.70614238 -67.93830504 483.71022298 -73.39080048 483.70723343 C-75.38246244 483.70777966 -77.37412709 483.71170408 -79.36577415 483.71942902 C-107.04799102 483.82145232 -130.92800628 479.58431388 -151.32531738 459.48101807 C-152.25924316 458.65537354 -152.25924316 458.65537354 -153.21203613 457.81304932 C-165.33875408 446.77637343 -173.06774819 428.52108995 -174.62878418 412.33428955 C-174.76128075 409.12677882 -174.79332294 405.94106744 -174.76281738 402.73101807 C-174.75451904 401.59503174 -174.7462207 400.45904541 -174.7376709 399.28863525 C-174.3055812 377.66877359 -165.77668675 359.65935233 -151.07531738 343.79351807 C-137.37591628 330.90918431 -118.39034814 321.48101807 -99.32531738 321.48101807 C-99.32531738 311.58101807 -99.32531738 301.68101807 -99.32531738 291.48101807 C-89.42531738 291.48101807 -79.52531738 291.48101807 -69.32531738 291.48101807 C-69.32531738 258.48101807 -69.32531738 225.48101807 -69.32531738 191.48101807 C-79.22531738 191.48101807 -89.12531738 191.48101807 -99.32531738 191.48101807 C-99.32531738 181.25101807 -99.32531738 171.02101807 -99.32531738 160.48101807 C-74.90531738 160.15101807 -50.48531738 159.82101807 -25.32531738 159.48101807 C-29.61531738 157.83101807 -33.90531738 156.18101807 -38.32531738 154.48101807 C-59.72685104 144.01804606 -73.56224997 127.26323933 -81.31750488 105.02789307 C-87.52153366 83.19355922 -85.32508659 61.04900954 -74.46984863 41.14898682 C-63.93975236 22.73207309 -48.04816926 9.66560546 -27.7110219 3.36047769 C-18.35890922 0.88650389 -9.71039965 -0.0878227 0 0 Z " fill="#F8F0F0" transform="translate(174.3253173828125,-0.48101806640625)"/>
<path d="M0 0 C1.77280275 -0.00298657 1.77280275 -0.00298657 3.58141971 -0.00603348 C5.53081702 -0.00166422 5.53081702 -0.00166422 7.5195961 0.00279331 C8.91310624 0.00235733 10.30661631 0.00148193 11.70012593 0.00020415 C15.53342936 -0.00203552 19.36670494 0.00197329 23.20000482 0.00698221 C27.33221579 0.01129406 31.46442514 0.00983976 35.59663773 0.00907993 C42.75732929 0.00855517 49.91801175 0.01169705 57.07870102 0.01731777 C67.43190084 0.02543914 77.78509624 0.02804865 88.1382989 0.02930576 C104.93501716 0.03149528 121.73173057 0.03815265 138.5284462 0.04760838 C154.84647981 0.05678509 171.1645121 0.06385319 187.48254776 0.06811619 C188.49837429 0.06838419 189.51420082 0.06865218 190.56080997 0.0689283 C198.50504682 0.07100768 206.4492837 0.07296462 214.39352059 0.07488286 C253.34393645 0.08431934 292.29434016 0.10443699 331.24475479 0.12304783 C331.24475479 52.92304783 331.24475479 105.72304783 331.24475479 160.12304783 C325.03539277 158.05326049 319.37559845 155.93202312 313.54553604 153.10351658 C312.74802429 152.72246265 311.95051254 152.34140873 311.12883377 151.94880772 C308.60255948 150.74101741 306.07968502 149.52634321 303.55725479 148.31054783 C301.88629605 147.50726154 300.2150738 146.70452312 298.54358292 145.9023447 C297.72611588 145.50950794 296.90864883 145.11667118 296.06641006 144.71193027 C294.43155483 143.93325528 292.79244782 143.16344312 291.14917374 142.40269566 C287.51481504 140.71903475 283.99161109 139.01918067 280.57287979 136.92797947 C274.71749243 133.63461007 274.71749243 133.63461007 268.15079117 133.51040745 C262.29733578 135.34022914 256.99353136 138.2789526 251.61975479 141.18554783 C249.93400302 142.04879977 248.2455013 142.9067022 246.5543251 143.7592783 C243.25344037 145.42887844 239.96567931 147.12046068 236.6871376 148.83349705 C231.2122241 151.67871049 225.63943516 154.25603317 219.99475479 156.74804783 C219.20504288 157.10648777 218.41533096 157.46492771 217.60168839 157.83422947 C212.50330591 160.12304783 212.50330591 160.12304783 210.24475479 160.12304783 C210.24475479 140.32304783 210.24475479 120.52304783 210.24475479 100.12304783 C203.84995743 100.13875828 197.45516006 100.15446873 190.86658096 100.17065525 C169.74421395 100.22035234 148.62184465 100.25365021 127.49943447 100.27848434 C114.69226155 100.29394278 101.88514407 100.31501283 89.07800674 100.34936619 C77.91325334 100.37929977 66.7485401 100.39863027 55.58374768 100.40531331 C49.67395353 100.40921884 43.76427426 100.41837622 37.85451698 100.440238 C32.28711762 100.4606656 26.71988003 100.46686892 21.15244675 100.46237087 C19.11394813 100.46319327 17.07544387 100.46912134 15.03697777 100.48066425 C-3.77885286 100.58194486 -18.33157745 97.97683887 -32.53258896 84.54101658 C-42.35996239 73.85007782 -46.31876773 60.35420219 -46.02868271 46.10742283 C-45.09128026 32.44813002 -38.33181488 20.65061473 -28.55993271 11.26757908 C-20.37390734 5.00834798 -10.3949057 -0.00386141 0 0 Z " fill="#F8F0F1" transform="translate(75.75524520874023,351.8769521713257)"/>
<path d="M0 0 C1.83198415 -0.00131093 3.66396775 -0.00394261 5.49594837 -0.0077675 C10.4902256 -0.014428 15.48430727 -0.00254141 20.47855961 0.01256669 C25.87916403 0.0255873 31.27975844 0.02113335 36.68037415 0.01885986 C46.02409897 0.01729092 55.36776069 0.02666038 64.71146965 0.04357338 C78.22070187 0.06801038 91.72990373 0.07577345 105.23915566 0.07953735 C127.15986637 0.08609447 149.08054348 0.10603555 171.00123596 0.13444519 C192.28834556 0.16200492 213.57544112 0.18322913 234.86256409 0.19596863 C236.17588828 0.1967568 237.48921248 0.19754497 238.84233438 0.19835702 C245.43125023 0.20227229 252.02016615 0.20606338 258.6090821 0.20979273 C313.22411711 0.24086561 367.8391148 0.2939051 422.45411682 0.36076355 C422.45411682 10.59076355 422.45411682 20.82076355 422.45411682 31.36076355 C412.55411682 31.36076355 402.65411682 31.36076355 392.45411682 31.36076355 C392.45411682 64.36076355 392.45411682 97.36076355 392.45411682 131.36076355 C402.35411682 131.36076355 412.25411682 131.36076355 422.45411682 131.36076355 C422.45411682 141.59076355 422.45411682 151.82076355 422.45411682 162.36076355 C387.80411682 162.36076355 353.15411682 162.36076355 317.45411682 162.36076355 C317.45411682 119.13076355 317.45411682 75.90076355 317.45411682 31.36076355 C274.70948192 31.40011669 231.96497381 31.45370999 189.22041036 31.5386845 C184.17241762 31.54870179 179.12442456 31.55854595 174.07643127 31.56828308 C173.07147951 31.57022445 172.06652775 31.57216583 171.0311229 31.57416603 C154.76554359 31.60517526 138.49997838 31.62216368 122.23437508 31.63395777 C105.54060856 31.6463749 88.84691599 31.67388903 72.15319616 31.71537662 C61.85477837 31.74049588 51.55648324 31.75388197 41.25803439 31.75219312 C34.19310254 31.75216334 27.12829552 31.76681649 20.06341233 31.79292783 C15.98916044 31.80755514 11.9151645 31.81579279 7.84089088 31.80656624 C4.10534865 31.79825017 0.37031961 31.8085132 -3.36514672 31.83310017 C-5.34530284 31.8414285 -7.3255119 31.83027786 -9.3056491 31.8182652 C-22.87478873 31.94816416 -34.73558583 36.71857446 -44.73338318 45.98576355 C-55.10010089 57.00302428 -59.23074938 69.67174809 -58.89744568 84.57951355 C-57.63957409 98.10862131 -51.46293566 110.15579365 -41.54588318 119.36076355 C-31.29684864 126.90915233 -20.48719717 130.50381086 -7.85830688 130.51898193 C-6.98423811 130.52391991 -6.11016933 130.52885789 -5.20961362 130.5339455 C-2.28158492 130.54930021 0.64642188 130.55767565 3.57447815 130.56608582 C5.6737131 130.57566593 7.77294612 130.58567609 9.87217712 130.59608459 C15.57210017 130.62312525 21.2720315 130.6441394 26.97198319 130.66408658 C32.92841999 130.68595127 38.88483131 130.71333761 44.84124756 130.74014282 C56.12105269 130.79006314 67.40087197 130.83500445 78.68070477 130.87816519 C91.52218937 130.92754318 104.36364841 130.98245924 117.20510828 131.03784478 C143.62142079 131.1516547 170.03775808 131.25829948 196.45411682 131.36076355 C196.45411682 141.59076355 196.45411682 151.82076355 196.45411682 162.36076355 C169.46296892 162.4071353 142.47183067 162.44279058 115.4806509 162.46438789 C102.94713418 162.4746841 90.41364272 162.48871269 77.88014221 162.51164246 C66.95120525 162.53162711 56.0222866 162.54449201 45.09333187 162.54894054 C39.31087003 162.55153933 33.52846055 162.55761296 27.74601555 162.57222366 C22.29353561 162.58588786 16.84112916 162.58996846 11.38863373 162.58697891 C9.39697176 162.58752514 7.40530711 162.59144956 5.41366005 162.5991745 C-22.26855682 162.7011978 -46.14857207 158.46405936 -66.54588318 138.36076355 C-67.16850037 137.81033386 -67.79111755 137.25990417 -68.43260193 136.6927948 C-80.55931987 125.65611892 -88.28831398 107.40083543 -89.84934998 91.21403503 C-89.98184654 88.0065243 -90.01388874 84.82081292 -89.98338318 81.61076355 C-89.97508484 80.47477722 -89.9667865 79.33879089 -89.95823669 78.16838074 C-89.526147 56.54851908 -80.99725254 38.53909782 -66.29588318 22.67326355 C-47.49208072 4.9882228 -25.04650101 -0.13477538 0 0 Z " fill="#05CDF3" transform="translate(89.54588317871094,320.6392364501953)"/>
<path d="M0 0 C1.67651255 -0.00298657 1.67651255 -0.00298657 3.38689405 -0.00603348 C5.22103007 -0.00166422 5.22103007 -0.00166422 7.09221935 0.00279331 C9.04648201 0.00151167 9.04648201 0.00151167 11.04022473 0.00020415 C14.65463957 -0.00203211 18.26902478 0.00196861 21.88343585 0.00698221 C25.78181655 0.01129896 29.68019557 0.00983941 33.578578 0.00907993 C40.33218628 0.00855548 47.0857849 0.01169412 53.83939075 0.01731777 C63.6039819 0.02544335 73.36856837 0.02804908 83.13316252 0.02930576 C98.97540836 0.03149461 114.81764904 0.03815019 130.65989208 0.04760838 C146.04954026 0.0567868 161.43918704 0.06386553 176.82883739 0.06811619 C177.77738837 0.06837891 178.72593935 0.06864164 179.70323429 0.06891232 C184.46181577 0.07021735 189.22039726 0.07148106 193.97897875 0.07272422 C233.45880274 0.08309165 272.93861721 0.10152717 312.418437 0.12304783 C312.418437 33.45304783 312.418437 66.78304783 312.418437 101.12304783 C272.09435173 101.18920684 231.77031771 101.24459064 191.44619368 101.27624382 C186.68360477 101.27999586 181.92101597 101.28387883 177.15842724 101.28784275 C176.21029716 101.28862968 175.26216707 101.28941661 174.28530578 101.29022739 C158.94118525 101.30327486 143.59709851 101.32692508 128.25299802 101.35450622 C112.50396418 101.38257875 96.75494802 101.399228 81.00589019 101.40531331 C71.29094114 101.40942592 61.57608759 101.42240684 51.86116794 101.44679723 C45.19575424 101.46267722 38.53038978 101.46744306 31.86495855 101.46355196 C28.02159963 101.46163394 24.17840738 101.46453664 20.33507824 101.48066425 C16.16119285 101.49805035 11.98765998 101.49199115 7.81374645 101.48381138 C6.60846615 101.4925499 5.40318585 101.50128843 4.1613819 101.51029176 C-10.94497378 101.43041325 -23.33961695 96.89052153 -34.32765675 86.43554783 C-45.15110004 75.33073252 -48.90733335 62.85019225 -48.96877003 47.66919041 C-48.85574008 39.88853907 -47.6326563 33.86774408 -43.581563 27.12304783 C-42.89513721 25.91841892 -42.89513721 25.91841892 -42.19484425 24.68945408 C-34.61525302 12.37521408 -24.07193312 5.679398 -10.581563 1.12304783 C-6.99399984 0.2769425 -3.68231353 -0.0014503 0 0 Z " fill="#E0DEF2" transform="translate(169.58156299591064,29.876952171325684)"/>
<path d="M0 0 C1.46986643 -0.00174993 2.9397316 -0.00526253 4.40959024 -0.01035666 C8.39836103 -0.01919792 12.38669295 -0.00344506 16.37540793 0.01675558 C20.6955474 0.03417502 25.01566594 0.02817373 29.33583069 0.02514648 C36.80412061 0.0230582 44.27226977 0.03551221 51.74052429 0.05809784 C62.53808488 0.0907306 73.33557803 0.10103634 84.13318259 0.10604981 C101.6553552 0.11478485 119.17745295 0.14135163 136.69958496 0.17926025 C153.71162545 0.21602684 170.72364553 0.24431581 187.73571777 0.2612915 C188.78592364 0.2623424 189.8361295 0.26339329 190.91815978 0.26447603 C196.18720666 0.26969652 201.45625368 0.27475127 206.72530079 0.27972364 C250.37514921 0.32112987 294.02490614 0.3926371 337.67468262 0.48101807 C337.67468262 10.71101807 337.67468262 20.94101807 337.67468262 31.48101807 C333.34378006 31.47213562 329.0128775 31.46325317 324.55073547 31.45410156 C284.81354191 31.37446506 245.0763578 31.31477015 205.33910184 31.27675675 C200.12845218 31.27175407 194.9178027 31.26657676 189.70715332 31.2612915 C188.66982942 31.26024226 187.63250551 31.25919302 186.56374755 31.25811198 C169.77893153 31.24071814 152.99417044 31.20918606 136.20938698 31.17240688 C118.98002856 31.13496908 101.75069887 31.11277621 84.52130145 31.10466409 C73.89426102 31.09918221 63.26737588 31.0818831 52.64038327 31.0493522 C45.34794274 31.02816927 38.05558222 31.02182657 30.76311318 31.02701256 C26.55896805 31.02956846 22.35509383 31.02571686 18.15099716 31.00419617 C14.29450928 30.98460002 10.43847216 30.9838317 6.58196267 30.99742249 C4.54160863 30.99988857 2.50125917 30.98275415 0.46098357 30.96469283 C-14.85768864 31.0632312 -27.85507361 35.58661964 -39.00109863 46.06695557 C-42.40243264 49.59976971 -44.96977082 53.18931008 -47.32531738 57.48101807 C-48.05428223 58.69918213 -48.05428223 58.69918213 -48.79797363 59.94195557 C-54.10179968 70.25412989 -54.41716149 84.32011766 -51.40344238 95.47320557 C-46.37134374 109.36049078 -37.52106573 119.85292462 -24.32531738 126.48101807 C-17.72980856 129.16730296 -11.41335496 130.60663449 -4.27523327 130.6040659 C-3.05305637 130.60605694 -1.83087946 130.60804799 -0.5716669 130.61009938 C0.78134925 130.60724653 2.13436521 130.60430094 3.48738098 130.60127258 C4.92712698 130.60170868 6.3668729 130.60258429 7.80661839 130.60386175 C11.76307947 130.60609921 15.71951352 130.60209563 19.67597115 130.59708369 C23.94245346 130.59276866 28.20893422 130.59422636 32.47541809 130.59498596 C39.86745376 130.59551053 47.2594806 130.59237075 54.65151405 130.58674812 C65.33917784 130.57862402 76.02683736 130.57601697 86.71450391 130.57476013 C104.05417853 130.57257105 121.39384844 130.56591484 138.73352051 130.55645752 C155.57824683 130.5472797 172.42297188 130.54020067 189.2677002 130.53594971 C190.30586104 130.53568698 191.34402188 130.53542426 192.41364215 130.53515358 C197.62174576 130.53384855 202.82984939 130.53258484 208.03795302 130.53134167 C251.25019964 130.52097353 294.46244052 130.50308405 337.67468262 130.48101807 C337.67468262 140.71101807 337.67468262 150.94101807 337.67468262 161.48101807 C293.07027744 161.54887857 248.46588468 161.60256926 203.86143809 161.63421405 C198.59199217 161.63796604 193.32254635 161.64184902 188.05310059 161.64581299 C186.47956451 161.64699339 186.47956451 161.64699339 184.87423982 161.64819763 C167.90258303 161.66124118 150.93095681 161.68488923 133.95931815 161.71247645 C116.53672126 161.7405599 99.11414036 161.75720054 81.69152176 161.76328355 C70.94628282 161.76739389 60.2011303 161.7803625 49.45591797 161.80476747 C42.08124757 161.82066094 34.70662166 161.82541026 27.33193539 161.8215222 C23.08113244 161.81960627 18.83048023 161.82248283 14.57970428 161.83863449 C10.67943426 161.85334526 6.77941487 161.85389884 2.87913276 161.84371475 C1.47646526 161.84245801 0.07378144 161.84616841 -1.32885446 161.85566761 C-24.63834615 162.00420553 -45.60593666 154.13189258 -62.28234863 137.70758057 C-77.87080361 121.60842737 -84.90356182 100.57039972 -84.74304199 78.44244385 C-84.12829272 57.03991894 -75.10763854 36.06557685 -59.41516113 21.22711182 C-42.07472716 6.73893615 -22.56166204 -0.20405197 0 0 Z " fill="#84EB70" transform="translate(174.3253173828125,-0.48101806640625)"/>
<path d="M0 0 C63.64650381 -0.04007826 127.29295945 0.00622313 190.93923569 0.18390656 C193.80486788 0.19184408 196.67050026 0.19971088 199.53613281 0.20751953 C200.60233063 0.21043146 200.60233063 0.21043146 201.6900678 0.21340221 C213.39490884 0.24495174 225.0997295 0.26157725 236.80460535 0.27319422 C249.01720773 0.28562383 261.22970904 0.3130826 273.44224751 0.35461307 C280.22390624 0.37726803 287.00543575 0.39341999 293.78713608 0.39188385 C300.10021172 0.3911376 306.41296255 0.40907411 312.72595406 0.44116783 C315.02566737 0.44963743 317.32541723 0.45143692 319.62513924 0.44580269 C335.25607665 0.41260793 349.29470078 1.30325827 363.375 8.8125 C364.04289551 9.15941895 364.71079102 9.50633789 365.39892578 9.86376953 C370.74644762 12.71378664 375.51144303 15.90948487 380 20 C380.80695313 20.71542969 381.61390625 21.43085938 382.4453125 22.16796875 C396.93089439 35.74543312 406.52640306 54.67857501 407.3359375 74.6640625 C407.66765622 96.34115996 403.55771465 116.15727697 389 133 C388.41863281 133.72316406 387.83726562 134.44632813 387.23828125 135.19140625 C375.39015094 149.394743 356.9491354 159.44718364 338.46430612 161.36726427 C334.74821153 161.49884743 331.05106357 161.51460369 327.33279419 161.48101807 C325.91002658 161.48276721 324.48726025 161.48627839 323.06450069 161.49137473 C319.19662389 161.50023137 315.32919823 161.4844413 311.46137881 161.46426249 C307.2748113 161.44686585 303.08826589 161.45284275 298.90167236 161.45587158 C291.66197893 161.45796128 284.42243055 161.44549228 277.18277359 161.42292023 C266.71568072 161.39030694 256.24865745 161.3799837 245.78151928 161.37496826 C228.79620104 161.36623019 211.81095997 161.33965513 194.82568359 161.30175781 C178.3335 161.26499911 161.84133742 161.23670627 145.34912109 161.21972656 C144.33124674 161.21867567 143.31337238 161.21762477 142.26465334 161.21654204 C137.15788998 161.2113216 132.05112648 161.20626683 126.94436288 161.20129442 C84.62951909 161.15987876 42.31476961 161.08836428 0 161 C0 151.1 0 141.2 0 131 C4.16803757 130.99635437 8.33607513 130.99270874 12.63041687 130.98895264 C50.8760577 130.95365571 89.12162992 130.89860292 127.36721126 130.82207905 C132.38258391 130.81206192 137.39795688 130.80221773 142.41333008 130.79248047 C143.41177599 130.7905391 144.4102219 130.78859772 145.43892375 130.78659752 C161.59322097 130.75559936 177.74750399 130.73860296 193.90182533 130.72680578 C210.48486052 130.71438291 227.06782135 130.68685584 243.65080959 130.64538693 C253.87858997 130.62028409 264.10624699 130.60688038 274.33405862 130.60857043 C281.3532179 130.60860024 288.37225177 130.59392281 295.39136215 130.56783572 C299.4375085 130.55322735 303.48339769 130.54495438 307.52956581 130.55419731 C311.24177462 130.56253345 314.95346856 130.5521962 318.66560135 130.52766338 C320.62837276 130.51936427 322.59119748 130.53046314 324.55394953 130.54249835 C338.53680228 130.40830392 351.37174961 126.38047252 361.75 116.75 C371.92791779 105.85364095 376.42786059 92.19156685 376.27734375 77.5078125 C375.24223877 64.41592134 368.63411436 51.86950211 359 43 C350.21330589 36.50025367 339.29260738 31.890198 328.2916069 31.8613348 C327.12018859 31.85586036 325.94877027 31.85038591 324.74185443 31.84474558 C323.45392906 31.84376747 322.1660037 31.84278936 320.83905029 31.84178162 C319.45791329 31.83721571 318.07677767 31.83221564 316.69564366 31.82681805 C312.89655842 31.81323079 309.09748213 31.80581688 305.29837894 31.79939139 C301.20296745 31.79139004 297.1075746 31.77769134 293.01217651 31.76467896 C285.91533746 31.74291246 278.81849652 31.7247686 271.72164154 31.70907402 C261.4607368 31.68637698 251.1998527 31.65823391 240.93896547 31.62875474 C224.29200172 31.58107681 207.64502953 31.53781316 190.99804688 31.49731445 C174.82551415 31.45796056 158.65298893 31.41653458 142.48046875 31.37231445 C141.48386312 31.36959018 140.48725749 31.36686591 139.46045169 31.36405908 C134.46085434 31.35037962 129.4612571 31.33665935 124.46165991 31.32291877 C82.97445541 31.20895082 41.4872345 31.10241377 0 31 C0 20.77 0 10.54 0 0 Z " fill="#FEDD46" transform="translate(75,160)"/>
<path d="M0 0 C39.93 0 79.86 0 121 0 C121 52.8 121 105.6 121 160 C114.79063798 157.93021266 109.13084366 155.80897529 103.30078125 152.98046875 C102.5032695 152.59941483 101.70575775 152.2183609 100.88407898 151.82575989 C98.35780469 150.61796958 95.83493023 149.40329538 93.3125 148.1875 C91.64154125 147.38421371 89.97031901 146.58147529 88.29882812 145.77929688 C87.48136108 145.38646011 86.66389404 144.99362335 85.82165527 144.58888245 C84.18680004 143.81020745 82.54769302 143.04039529 80.90441895 142.27964783 C77.27006025 140.59598693 73.7468563 138.89613284 70.328125 136.80493164 C64.47273764 133.51156224 64.47273764 133.51156224 57.90603638 133.38735962 C52.05258099 135.21718131 46.74877656 138.15590477 41.375 141.0625 C39.68924823 141.92575194 38.00074651 142.78365437 36.30957031 143.63623047 C33.00868558 145.30583061 29.72092452 146.99741285 26.44238281 148.71044922 C20.96746931 151.55566266 15.39468037 154.13298535 9.75 156.625 C8.96028809 156.98343994 8.17057617 157.34187988 7.35693359 157.71118164 C2.25855111 160 2.25855111 160 0 160 C0 107.2 0 54.4 0 0 Z " fill="#F72664" transform="translate(286,352)"/>
<path d="M0 0 C114.18 0 228.36 0 346 0 C346 14.06414065 346 14.06414065 343.1875 20 C342.72597534 21.00619385 342.72597534 21.00619385 342.25512695 22.03271484 C336.5748792 33.63603852 327.21924937 42.47431993 315.11779529 47.10222983 C307.18945128 49.70698525 300.17256046 50.56534366 291.85771179 50.48101807 C290.6011208 50.48443577 289.34452981 50.48785347 288.0498603 50.49137473 C284.60156153 50.50022556 281.1537694 50.48444984 277.70553505 50.46426249 C273.97226051 50.4468571 270.23901054 50.45284336 266.50570679 50.45587158 C260.05065423 50.45796074 253.59576442 50.44549751 247.14075279 50.42292023 C237.80811928 50.39029945 228.47556381 50.37998295 219.14287946 50.37496826 C203.99828464 50.36623135 188.85377638 50.33965947 173.70922852 50.30175781 C159.00480581 50.26499609 144.30040669 50.23670474 129.59594727 50.21972656 C128.68832902 50.21867567 127.78071077 50.21762477 126.84558894 50.21654204 C122.29196561 50.21132158 117.7383421 50.20626682 113.18471849 50.20129442 C75.45641542 50.15988237 37.72822016 50.08837068 0 50 C0 33.5 0 17 0 0 Z " fill="#E1DEF3" transform="translate(105,241)"/>
<path d="M0 0 C1.67651255 -0.00298657 1.67651255 -0.00298657 3.38689405 -0.00603348 C5.22103007 -0.00166422 5.22103007 -0.00166422 7.09221935 0.00279331 C9.04648201 0.00151167 9.04648201 0.00151167 11.04022473 0.00020415 C14.65463957 -0.00203211 18.26902478 0.00196861 21.88343585 0.00698221 C25.78181655 0.01129896 29.68019557 0.00983941 33.578578 0.00907993 C40.33218628 0.00855548 47.0857849 0.01169412 53.83939075 0.01731777 C63.6039819 0.02544335 73.36856837 0.02804908 83.13316252 0.02930576 C98.97540836 0.03149461 114.81764904 0.03815019 130.65989208 0.04760838 C146.04954026 0.0567868 161.43918704 0.06386553 176.82883739 0.06811619 C177.77738837 0.06837891 178.72593935 0.06864164 179.70323429 0.06891232 C184.46181577 0.07021735 189.22039726 0.07148106 193.97897875 0.07272422 C233.45880195 0.08309165 272.93861874 0.10098057 312.418437 0.12304783 C312.418437 11.67304783 312.418437 23.22304783 312.418437 35.12304783 C232.888437 35.12304783 153.358437 35.12304783 71.418437 35.12304783 C71.418437 40.40304783 71.418437 45.68304783 71.418437 51.12304783 C31.818437 51.12304783 -7.781563 51.12304783 -48.581563 51.12304783 C-48.581563 35.60016871 -44.34175923 25.11702637 -33.769063 13.87304783 C-24.93774662 5.42715893 -12.22882174 -0.00481639 0 0 Z " fill="#F7F0EF" transform="translate(169.58156299591064,29.876952171325684)"/>
<path d="M0 0 C9.9 0 19.8 0 30 0 C30.515625 2.35125 31.03125 4.7025 31.5625 7.125 C35.1647857 22.04152858 41.79181168 33.97909735 55 42.375 C62.89086203 46.80517293 70.99582368 49.12630593 80.05008411 49.12304783 C81.27226102 49.12503888 82.49443792 49.12702993 83.75365049 49.12908131 C85.10666664 49.12622847 86.45968259 49.12328288 87.81269836 49.12025452 C89.25244436 49.12069061 90.69219028 49.12156622 92.13193578 49.12284368 C96.08839686 49.12508114 100.0448309 49.12107757 104.00128853 49.11606562 C108.26777084 49.11175059 112.5342516 49.1132083 116.80073547 49.1139679 C124.19277114 49.11449246 131.58479799 49.11135268 138.97683144 49.10573006 C149.66449523 49.09760596 160.35215475 49.0949989 171.03982129 49.09374207 C188.37949591 49.09155298 205.71916583 49.08489677 223.05883789 49.07543945 C239.90356421 49.06626163 256.74828926 49.05918261 273.59301758 49.05493164 C274.63117842 49.05466892 275.66933927 49.05440619 276.73895953 49.05413551 C281.94706314 49.05283048 287.15516677 49.05156677 292.3632704 49.05032361 C335.57551702 49.03995546 378.7877579 49.02206598 422 49 C422 59.23 422 69.46 422 80 C377.39559482 80.0678605 332.79120206 80.1215512 288.18675547 80.15319599 C282.91730955 80.15694798 277.64786373 80.16083096 272.37841797 80.16479492 C270.80488189 80.16597532 270.80488189 80.16597532 269.1995572 80.16717956 C252.22790041 80.18022311 235.2562742 80.20387116 218.28463553 80.23145839 C200.86203864 80.25954183 183.43945774 80.27618247 166.01683915 80.28226548 C155.2716002 80.28637583 144.52644769 80.29934444 133.78123535 80.3237494 C126.40656495 80.33964288 119.03193905 80.34439219 111.65725277 80.34050413 C107.40644982 80.3385882 103.15579762 80.34146476 98.90502167 80.35761642 C95.00475164 80.3723272 91.10473225 80.37288078 87.20445015 80.36269668 C85.80178264 80.36143995 84.39909883 80.36515034 82.99646293 80.37464955 C59.68697123 80.52318746 38.71938072 72.65087452 22.04296875 56.2265625 C7.19316547 40.8902602 0 21.12689845 0 0 Z " fill="#00D036" transform="translate(90,81)"/>
<path d="M0 0 C9.9 0 19.8 0 30 0 C30 19.38424312 24.87164269 37.1079982 12 52 C11.41863281 52.72316406 10.83726562 53.44632812 10.23828125 54.19140625 C-1.60984906 68.394743 -20.0508646 78.44718364 -38.53569388 80.36726427 C-42.25178847 80.49884743 -45.94893643 80.51460369 -49.66720581 80.48101807 C-51.08997342 80.48276721 -52.51273975 80.48627839 -53.93549931 80.49137473 C-57.80337611 80.50023137 -61.67080177 80.4844413 -65.53862119 80.46426249 C-69.7251887 80.44686585 -73.91173411 80.45284275 -78.09832764 80.45587158 C-85.33802107 80.45796128 -92.57756945 80.44549228 -99.81722641 80.42292023 C-110.28431928 80.39030694 -120.75134255 80.3799837 -131.21848072 80.37496826 C-148.20379896 80.36623019 -165.18904003 80.33965513 -182.17431641 80.30175781 C-198.6665 80.26499911 -215.15866258 80.23670627 -231.65087891 80.21972656 C-233.17769044 80.21815022 -233.17769044 80.21815022 -234.73534666 80.21654204 C-239.84211002 80.2113216 -244.94887352 80.20626683 -250.05563712 80.20129442 C-292.37048091 80.15987876 -334.68523039 80.08836428 -377 80 C-377 70.1 -377 60.2 -377 50 C-372.83196243 49.99635437 -368.66392487 49.99270874 -364.36958313 49.98895264 C-326.1239423 49.95365571 -287.87837008 49.89860292 -249.63278874 49.82207905 C-244.61741609 49.81206192 -239.60204312 49.80221773 -234.58666992 49.79248047 C-233.58822401 49.7905391 -232.5897781 49.78859772 -231.56107625 49.78659752 C-215.40677903 49.75559936 -199.25249601 49.73860296 -183.09817467 49.72680578 C-166.51513948 49.71438291 -149.93217865 49.68685584 -133.34919041 49.64538693 C-123.12141003 49.62028409 -112.89375301 49.60688038 -102.66594138 49.60857043 C-95.6467821 49.60860024 -88.62774823 49.59392281 -81.60863785 49.56783572 C-77.5624915 49.55322735 -73.51660231 49.54495438 -69.47043419 49.55419731 C-65.75822538 49.56253345 -62.04653144 49.5521962 -58.33439865 49.52766338 C-56.37162724 49.51936427 -54.40880252 49.53046314 -52.44605047 49.54249835 C-38.46319772 49.40830392 -25.62825039 45.38047252 -15.25 35.75 C-5.72370325 25.55125877 -2.25638127 13.53828764 0 0 Z " fill="#FEB54D" transform="translate(452,241)"/>
<path d="M0 0 C0.33 0 0.66 0 1 0 C1 2.64 1 5.28 1 8 C85.15 8 169.3 8 256 8 C256 24.5 256 41 256 58 C228.41822475 58.06776166 200.83651707 58.12300788 173.25467968 58.15543652 C160.44750676 58.17089496 147.64038928 58.191965 134.83325195 58.22631836 C123.66849855 58.25625194 112.50378531 58.27558244 101.33899289 58.28226548 C95.42919873 58.28617101 89.51951947 58.2953284 83.60976219 58.31719017 C78.04236283 58.33761777 72.47512524 58.34382109 66.90769196 58.33932304 C64.86919334 58.34014544 62.83068908 58.34607351 60.79222298 58.35761642 C41.97639234 58.45889703 27.42366776 55.85379105 13.22265625 42.41796875 C4.2985557 32.70967659 -0.22469766 20.22569663 -0.0625 7.1875 C-0.05798828 6.49462891 -0.05347656 5.80175781 -0.04882812 5.08789062 C-0.03713156 3.39188932 -0.01919924 1.69593297 0 0 Z " fill="#E1DEF3" transform="translate(30,394)"/>
<path d="M0 0 C24.75 0 49.5 0 75 0 C75 33 75 66 75 100 C84.9 100 94.8 100 105 100 C105 110.23 105 120.46 105 131 C70.35 131 35.7 131 0 131 C0 87.77 0 44.54 0 0 Z " fill="#E1DEF4" transform="translate(407,352)"/>
<path d="M0 0 C9.9 0 19.8 0 30 0 C30.350625 2.18625 30.70125 4.3725 31.0625 6.625 C33.48206441 19.55019368 39.57631667 31.84476341 50.37890625 39.73828125 C60.39626556 46.05595856 69.87579232 49.1440289 81.68757629 49.15821838 C82.56164507 49.16315636 83.43571385 49.16809434 84.33626956 49.17318195 C87.26429826 49.18853666 90.19230506 49.1969121 93.12036133 49.20532227 C95.21959628 49.21490238 97.3188293 49.22491254 99.4180603 49.23532104 C105.11798335 49.2623617 110.81791468 49.28337585 116.51786637 49.30332303 C122.47430317 49.32518772 128.43071449 49.35257406 134.38713074 49.37937927 C145.66693587 49.42929959 156.94675515 49.4742409 168.22658795 49.51740164 C181.06807255 49.56677963 193.90953159 49.62169569 206.75099146 49.67708123 C233.16730397 49.79089115 259.58364126 49.89753593 286 50 C286 60.23 286 70.46 286 81 C259.0088521 81.04637175 232.01771385 81.08202703 205.02653408 81.10362434 C192.49301736 81.11392055 179.9595259 81.12794914 167.42602539 81.15087891 C156.49708843 81.17086356 145.56816978 81.18372846 134.63921505 81.18817699 C128.85675321 81.19077578 123.07434373 81.19684941 117.29189873 81.21146011 C111.83941879 81.22512431 106.38701234 81.22920491 100.93451691 81.22621536 C98.94285494 81.22676159 96.95119029 81.23068601 94.95954323 81.23841095 C67.27732636 81.34043425 43.39731111 77.10329581 23 57 C22.37738281 56.44957031 21.75476563 55.89914062 21.11328125 55.33203125 C9.35256956 44.62846218 2.99309955 28.28056086 0 13 C0 8.71 0 4.42 0 0 Z " fill="#6291FE" transform="translate(0,402)"/>
<path d="M0 0 C39.93 0 79.86 0 121 0 C121 42.9 121 85.8 121 130 C120.67 130 120.34 130 120 130 C120 103.6 120 77.2 120 50 C80.4 50 40.8 50 0 50 C0 33.5 0 17 0 0 Z " fill="#FE6378" transform="translate(286,352)"/>
<path d="M0 0 C79.53 0 159.06 0 241 0 C241 5.28 241 10.56 241 16 C161.47 16 81.94 16 0 16 C0 10.72 0 5.44 0 0 Z " fill="#E1DEF3" transform="translate(241,65)"/>
<path d="M0 0 C24.75 0 49.5 0 75 0 C75 16.5 75 33 75 50 C50.25 50 25.5 50 0 50 C0 33.5 0 17 0 0 Z " fill="#F8F0F1" transform="translate(407,352)"/>
<path d="M0 0 C79.53 0 159.06 0 241 0 C241 4.95 241 9.9 241 15 C161.47 15 81.94 15 0 15 C0 10.05 0 5.1 0 0 Z " fill="#BEBCDD" transform="translate(241,81)"/>
<path d="M0 0 C74.58 0 149.16 0 226 0 C226 4.95 226 9.9 226 15 C151.42 15 76.84 15 0 15 C0 10.05 0 5.1 0 0 Z " fill="#BEBCDD" transform="translate(105,241)"/>
<path d="M0 0 C74.58 0 149.16 0 226 0 C226 4.95 226 9.9 226 15 C151.42 15 76.84 15 0 15 C0 10.05 0 5.1 0 0 Z " fill="#E2DFF3" transform="translate(105,226)"/>
<path d="M0 0 C34.65 0 69.3 0 105 0 C105 10.23 105 20.46 105 31 C70.35 31 35.7 31 0 31 C0 20.77 0 10.54 0 0 Z " fill="#6290FF" transform="translate(407,452)"/>
<path d="M0 0 C44.55 0 89.1 0 135 0 C135 4.95 135 9.9 135 15 C90.45 15 45.9 15 0 15 C0 10.05 0 5.1 0 0 Z " fill="#BEBCDD" transform="translate(151,402)"/>
<path d="M0 0 C44.55 0 89.1 0 135 0 C135 4.95 135 9.9 135 15 C90.45 15 45.9 15 0 15 C0 10.05 0 5.1 0 0 Z " fill="#E1DEF3" transform="translate(151,387)"/>
<path d="M0 0 C24.75 0 49.5 0 75 0 C75 4.95 75 9.9 75 15 C50.25 15 25.5 15 0 15 C0 10.05 0 5.1 0 0 Z " fill="#BEBCDD" transform="translate(407,402)"/>
<path d="M0 0 C24.75 0 49.5 0 75 0 C75 4.95 75 9.9 75 15 C50.25 15 25.5 15 0 15 C0 10.05 0 5.1 0 0 Z " fill="#E1DEF3" transform="translate(407,387)"/>
</svg>
