<?xml version="1.0" encoding="UTF-8"?>
<svg version="1.1" xmlns="http://www.w3.org/2000/svg" width="512" height="512">
<path d="M0 0 C1.02649658 0.35126953 2.05299316 0.70253906 3.1105957 1.06445312 C8.70629921 2.99206302 14.27168915 4.99742367 19.828125 7.03515625 C38.69276199 13.93698323 57.70240792 19.79515089 77.30834961 24.22802734 C86.1736508 26.26049133 92.96986539 28.93172997 98.0625 36.75 C101.8392523 43.39865769 101.6607193 50.06814156 101.0625 57.5625 C99.32706976 63.6553692 95.50859541 68.60522048 89.96484375 71.75390625 C88.01600363 72.74035619 86.05847547 73.6759501 84.0625 74.5625 C95.14321841 78.2560728 108.45542286 74.46675871 118.5859375 69.41015625 C123.84074644 66.6252544 128.95232282 63.60234676 134.0625 60.5625 C136.18344986 59.31225587 138.30455014 58.06226688 140.42578125 56.8125 C144.41548113 54.45571772 148.40022897 52.09093213 152.38006592 49.71755981 C160.69932095 44.75823389 169.07781229 39.90555266 177.47827148 35.08496094 C182.83803073 32.00732969 188.18329563 28.90935046 193.5 25.7578125 C235.93196744 0.62364285 235.93196744 0.62364285 255.93359375 5.22265625 C262.34577702 7.23244504 267.23337985 9.94368239 271.0625 15.5625 C275.06477538 23.32882008 276.54515292 30.95716422 274.296875 39.45703125 C271.05684054 49.06141911 266.4733903 53.29530143 257.9375 58.375 C256.03246131 59.53110044 254.12751768 60.68735752 252.22265625 61.84375 C251.21734863 62.44960938 250.21204102 63.05546875 249.17626953 63.6796875 C243.8881573 66.87726642 238.63434209 70.13040513 233.375 73.375 C231.16298911 74.73604883 228.95074743 76.09672265 226.73828125 77.45703125 C220.1788075 81.49075814 213.62052216 85.52641367 207.0625 89.5625 C200.50447784 93.59858633 193.9461925 97.63424186 187.38671875 101.66796875 C177.43752409 107.78695702 167.49109581 113.91013234 157.5625 120.0625 C146.44818056 126.9471915 135.32662811 133.8198912 124.17919922 140.65087891 C122.15848278 141.8902812 120.13918597 143.13200218 118.12158203 144.37646484 C115.43979379 146.02941735 112.75210048 147.67229896 110.0625 149.3125 C109.29284912 149.78953369 108.52319824 150.26656738 107.73022461 150.75805664 C92.78368657 159.81433339 77.32777272 162.90266774 60.15722656 158.95068359 C59.38571384 158.77582617 58.61420113 158.60096874 57.81930923 158.42081261 C48.11081028 156.17336631 38.50682666 153.52530446 28.89717865 150.89296341 C25.46790537 149.95496212 22.03669334 149.02439599 18.60479736 148.09603882 C8.86242107 145.46054844 -0.87890588 142.82148515 -10.61279297 140.15478516 C-16.60134203 138.51473361 -22.59411694 136.89103895 -28.59001923 135.27808762 C-30.86426174 134.66297223 -33.13686041 134.0417449 -35.40772247 133.41426468 C-38.56895814 132.54143304 -41.73515112 131.68954544 -44.90332031 130.84228516 C-45.83529739 130.57955811 -46.76727448 130.31683105 -47.72749329 130.04614258 C-53.91409756 128.42348451 -57.38747953 128.72317212 -63.14746094 131.70751953 C-64.1495459 132.32022705 -64.1495459 132.32022705 -65.171875 132.9453125 C-66.27982422 133.61240234 -66.27982422 133.61240234 -67.41015625 134.29296875 C-68.16167969 134.75316406 -68.91320312 135.21335937 -69.6875 135.6875 C-71.20073468 136.61070031 -72.71625335 137.53017062 -74.234375 138.4453125 C-75.22969238 139.05463623 -75.22969238 139.05463623 -76.24511719 139.67626953 C-77.9375 140.5625 -77.9375 140.5625 -79.9375 140.5625 C-79.54892822 141.21734375 -79.16035645 141.8721875 -78.76000977 142.546875 C-76.99241329 145.54393125 -75.24615135 148.55290301 -73.5 151.5625 C-72.88833984 152.59246094 -72.27667969 153.62242187 -71.64648438 154.68359375 C-67.5919388 161.71744629 -64.83265697 166.98529317 -66.8125 175.1875 C-68.85215776 178.42695644 -69.83421791 179.39429779 -72.91796875 181.375 C-73.72266602 181.89271973 -74.52736328 182.41043945 -75.35644531 182.94384766 C-76.20819336 183.47800293 -77.05994141 184.0121582 -77.9375 184.5625 C-78.77635742 185.09278809 -79.61521484 185.62307617 -80.47949219 186.16943359 C-83.091632 187.79398476 -85.72863204 189.36942535 -88.375 190.9375 C-89.25220703 191.48277344 -90.12941406 192.02804687 -91.03320312 192.58984375 C-97.07081348 196.14033238 -101.92298252 197.75578875 -108.9375 196.5625 C-113.93876193 194.71018077 -115.89793755 190.91808424 -118.375 186.4375 C-118.79765137 185.69669189 -119.22030273 184.95588379 -119.65576172 184.19262695 C-121.09689912 181.65683399 -122.51803552 179.11048282 -123.9375 176.5625 C-125.00351035 174.66253823 -126.06993177 172.76280706 -127.13671875 170.86328125 C-128.87493377 167.76401344 -130.61075519 164.66347573 -132.34155273 161.56005859 C-136.82085852 153.53031042 -141.36497561 145.53932833 -145.9375 137.5625 C-151.62984724 127.62898041 -157.26287801 117.6640201 -162.84619141 107.66870117 C-166.26185128 101.55407316 -169.68723942 95.44521315 -173.13330078 89.34765625 C-174.23720631 87.3934321 -175.33852173 85.43774216 -176.43701172 83.48046875 C-178.73387478 79.39779287 -181.04628737 75.34114035 -183.52734375 71.3671875 C-187.11233874 65.58145011 -189.85490074 60.81668088 -189.609375 53.84375 C-187.12566434 45.4106859 -180.51347858 42.47245902 -173.25 38.375 C-172.19876953 37.75947266 -171.14753906 37.14394531 -170.06445312 36.50976562 C-154.93417472 27.81950616 -154.93417472 27.81950616 -147.6875 29 C-139.29335846 31.80906311 -135.2321417 42.37989825 -130.9375 49.5625 C-130.05118896 49.04417603 -130.05118896 49.04417603 -129.14697266 48.51538086 C-116.34739631 41.03279714 -103.53261022 33.57859206 -90.67895508 26.18920898 C-85.26383834 23.07279045 -79.86296387 19.93572394 -74.48828125 16.75 C-50.22752007 2.3871032 -28.4083458 -10.05982531 0 0 Z " fill="#F6DBCD" transform="translate(199.9375,310.4375)"/>
<path d="M0 0 C4.02213861 2.72179586 7.85337483 5.6774608 11.66796875 8.6796875 C18.15537202 13.29154261 24.64583891 13.26305121 32.36523438 13.79101562 C40.51375719 14.44407413 49.59703832 15.45499829 55.46484375 21.66796875 C59.54681386 27.8915642 60.93665338 33.97921924 62.44335938 41.19726562 C64.72504363 51.26894261 69.67901528 57.31636851 77.08984375 64.29296875 C83.40577502 70.24311249 87.84684807 75.30087122 88.515625 84.27734375 C88.38873154 90.25109738 86.14182922 95.39421758 83.48046875 100.66015625 C79.13660674 109.26729453 76.12228933 115.77228673 77.46484375 125.66796875 C77.54863281 126.36921875 77.63242187 127.07046875 77.71875 127.79296875 C77.79996094 128.43234375 77.88117188 129.07171875 77.96484375 129.73046875 C79.02427695 138.07350517 79.75588613 145.65287885 74.46484375 152.66796875 C70.83109439 156.59113177 67.10297784 159.41133813 62.31542969 161.77050781 C61.59450134 162.12695374 60.873573 162.48339966 60.13079834 162.85064697 C59.58103333 163.12036316 59.03126831 163.39007935 58.46484375 163.66796875 C58.69621536 164.20365982 58.92758698 164.73935089 59.16596985 165.29127502 C61.58333884 170.88822445 64.00057076 176.48523305 66.41772461 182.08227539 C67.31873141 184.16855347 68.21977265 186.25481667 69.12084961 188.34106445 C70.41919968 191.34712842 71.71742411 194.35324661 73.015625 197.359375 C73.41574295 198.28569229 73.8158609 199.21200958 74.22810364 200.16639709 C74.97336759 201.89226371 75.71737452 203.61867391 76.45986938 205.34573364 C77.09834331 206.82108128 77.74458744 208.29310923 78.4012146 209.76046753 C79.95353531 213.25454469 80.81524926 215.81350817 80.46484375 219.66796875 C73.05386849 220.03484871 66.20890671 218.64066287 58.96484375 217.16796875 C57.76085937 216.92949219 56.556875 216.69101562 55.31640625 216.4453125 C52.364469 215.85961066 49.4141004 215.26699668 46.46484375 214.66796875 C46.19389893 215.38815186 45.9229541 216.10833496 45.64379883 216.8503418 C43.62859573 221.66654782 40.85042319 226.0216005 38.15234375 230.48046875 C37.58322266 231.45951172 37.01410156 232.43855469 36.42773438 233.44726562 C35.86634766 234.37216797 35.30496094 235.29707031 34.7265625 236.25 C34.22084717 237.09796143 33.71513184 237.94592285 33.1940918 238.81958008 C31.46484375 240.66796875 31.46484375 240.66796875 28.76098633 240.9440918 C28.00325928 240.85297119 27.24553223 240.76185059 26.46484375 240.66796875 C22.02427231 231.47410957 17.89023144 222.15304647 13.85412598 212.77600098 C13.30236209 211.49430878 12.74938055 210.21314011 12.19519043 208.93249512 C11.40747043 207.11032639 10.62549679 205.28567683 9.84375 203.4609375 C9.38556885 202.39383545 8.9273877 201.3267334 8.45532227 200.22729492 C7.46484375 197.66796875 7.46484375 197.66796875 7.46484375 195.66796875 C-5.32869694 191.96813678 -5.32869694 191.96813678 -18.53515625 191.66796875 C-19.37175781 191.75046875 -20.20835937 191.83296875 -21.0703125 191.91796875 C-24.44692969 192.36656178 -24.44692969 192.36656178 -27.53515625 193.66796875 C-28.2302946 195.65825192 -28.89147691 197.66045253 -29.53515625 199.66796875 C-30.48486895 201.83017791 -31.46781464 203.97797556 -32.4765625 206.11328125 C-32.76041306 206.71725739 -33.04426361 207.32123352 -33.3367157 207.94351196 C-34.25414263 209.8947049 -35.17587716 211.84382866 -36.09765625 213.79296875 C-37.36672912 216.48727538 -38.6331644 219.18281333 -39.8984375 221.87890625 C-40.36750015 222.8777887 -40.36750015 222.8777887 -40.84603882 223.89685059 C-43.94978171 230.52259651 -46.94329142 237.19673474 -49.86938477 243.90283203 C-52.32272248 249.45553498 -52.32272248 249.45553498 -54.53515625 251.66796875 C-56.93823242 251.62280273 -56.93823242 251.62280273 -59.53515625 250.66796875 C-61.38793945 248.38305664 -61.38793945 248.38305664 -63.0859375 245.390625 C-63.70146484 244.32005859 -64.31699219 243.24949219 -64.95117188 242.14648438 C-65.57701172 241.01919922 -66.20285156 239.89191406 -66.84765625 238.73046875 C-67.49283203 237.60705078 -68.13800781 236.48363281 -68.80273438 235.32617188 C-73.53515625 226.99811095 -73.53515625 226.99811095 -73.53515625 224.66796875 C-74.35717529 224.81943359 -75.17919434 224.97089844 -76.02612305 225.12695312 C-79.09124683 225.68955968 -82.15706041 226.24819792 -85.22338867 226.80419922 C-87.19700724 227.16330188 -89.16979993 227.52693395 -91.14257812 227.890625 C-92.38974609 228.11621094 -93.63691406 228.34179688 -94.921875 228.57421875 C-96.64216919 228.88842773 -96.64216919 228.88842773 -98.3972168 229.20898438 C-101.17273216 229.61495721 -103.73755439 229.75961828 -106.53515625 229.66796875 C-107.96052682 225.54698257 -107.17325911 223.09645202 -105.33760071 219.22593689 C-104.82437508 218.19757469 -104.82437508 218.19757469 -104.30078125 217.1484375 C-103.95133957 216.42044449 -103.60189789 215.69245148 -103.24186707 214.94239807 C-102.10194305 212.57391145 -100.9435849 210.2149515 -99.78515625 207.85546875 C-99.00114144 206.23349287 -98.2186765 204.61076693 -97.43774414 202.98730469 C-96.26222873 200.54402992 -95.08579007 198.10125801 -93.90419006 195.66091919 C-90.49727794 188.62261558 -87.20982612 181.53587554 -83.97265625 174.41796875 C-83.5147168 173.41403076 -83.05677734 172.41009277 -82.58496094 171.37573242 C-81.56633332 169.14072239 -80.54954241 166.9049061 -79.53515625 164.66796875 C-80.13046143 164.47750977 -80.7257666 164.28705078 -81.33911133 164.09082031 C-90.40353565 161.14025488 -98.11272235 157.88433469 -103.53515625 149.66796875 C-106.4834694 143.50331398 -105.86263785 136.97532155 -105.03515625 130.35546875 C-103.90539484 120.69347941 -103.92429826 113.32909409 -108.53515625 104.66796875 C-117.16100558 87.24418331 -117.16100558 87.24418331 -114.2421875 77.52734375 C-111.47309564 70.24509112 -105.26612658 64.7200088 -99.53515625 59.66796875 C-98.87515625 59.66796875 -98.21515625 59.66796875 -97.53515625 59.66796875 C-97.26703125 59.09046875 -96.99890625 58.51296875 -96.72265625 57.91796875 C-95.53515625 55.66796875 -95.53515625 55.66796875 -94.05957031 53.87597656 C-92.27835904 51.29601584 -91.68414381 49.13406191 -90.95703125 46.08984375 C-90.68246094 45.01089844 -90.40789062 43.93195313 -90.125 42.8203125 C-89.5696302 40.57041902 -89.0251637 38.31780323 -88.4921875 36.0625 C-86.27040006 27.45179385 -83.09501053 21.4950784 -75.41015625 16.73046875 C-70.89697584 15.06255425 -66.72245153 14.56729267 -61.91625977 14.37963867 C-48.85763252 13.83251101 -41.19552281 10.97942536 -30.86157227 3.04760742 C-20.79231712 -4.53771693 -11.14173276 -6.67720715 0 0 Z " fill="#FEE076" transform="translate(337.53515625,52.33203125)"/>
<path d="M0 0 C14.12158595 9.83701807 24.36754294 23.67617828 28.05078125 40.63671875 C30.59965616 57.4677192 26.06786557 73.36655517 16.74609375 87.44140625 C6.32953394 101.43666146 -8.94143092 108.72597981 -25.859375 111.265625 C-42.55568314 113.02116523 -57.14858453 107.66955279 -70.3515625 97.5078125 C-81.04689805 88.21025208 -90.08495217 74.14526767 -91.4765625 59.7578125 C-92.45069329 40.59284814 -88.12688846 24.9947792 -75.37890625 10.34765625 C-55.83839922 -10.29566599 -24.44708705 -14.60952049 0 0 Z " fill="#FEC338" transform="translate(355.4765625,96.2421875)"/>
<path d="M0 0 C7.21655071 6.68851041 11.40847457 16.69592189 15.6875 25.4375 C20.14412074 34.51656923 25.18893994 43.23101986 30.25488281 51.98046875 C33.13696933 56.9672687 35.99699781 61.96668481 38.85552979 66.9670105 C39.53468065 68.15480279 40.21416427 69.34240489 40.89398193 70.52981567 C44.60400657 77.01031037 48.29050252 83.50239275 51.921875 90.02734375 C52.54594238 91.14850586 53.17000977 92.26966797 53.81298828 93.42480469 C54.98157694 95.52895705 56.14686749 97.63494611 57.30810547 99.74316406 C60.19890603 104.95170286 63.23457267 109.96446553 66.58496094 114.8894043 C68.80437654 118.19976453 70.82728654 121.60802356 72.8125 125.0625 C73.20630859 125.71798828 73.60011719 126.37347656 74.00585938 127.04882812 C77.33396788 132.85446508 78.74133172 137.92876861 77.125 144.625 C75.08534224 147.86445644 74.10328209 148.83179779 71.01953125 150.8125 C70.21483398 151.33021973 69.41013672 151.84793945 68.58105469 152.38134766 C67.72930664 152.91550293 66.87755859 153.4496582 66 154 C65.16114258 154.53028809 64.32228516 155.06057617 63.45800781 155.60693359 C60.845868 157.23148476 58.20886796 158.80692535 55.5625 160.375 C54.68529297 160.92027344 53.80808594 161.46554687 52.90429688 162.02734375 C46.86668652 165.57783238 42.01451748 167.19328875 35 166 C29.99873807 164.14768077 28.03956245 160.35558424 25.5625 155.875 C25.13984863 155.13419189 24.71719727 154.39338379 24.28173828 153.63012695 C22.84060088 151.09433399 21.41946448 148.54798282 20 146 C18.93398965 144.10003823 17.86756823 142.20030706 16.80078125 140.30078125 C15.06256623 137.20151344 13.32674481 134.10097573 11.59594727 130.99755859 C7.11664148 122.96781042 2.57252439 114.97682833 -2 107 C-7.69234724 97.06648041 -13.32537801 87.1015201 -18.90869141 77.10620117 C-22.32435128 70.99157316 -25.74973942 64.88271315 -29.19580078 58.78515625 C-30.29970631 56.8309321 -31.40102173 54.87524216 -32.49951172 52.91796875 C-34.79637478 48.83529287 -37.10878737 44.77864035 -39.58984375 40.8046875 C-43.17483874 35.01895011 -45.91740074 30.25418088 -45.671875 23.28125 C-43.18816434 14.8481859 -36.57597858 11.90995902 -29.3125 7.8125 C-27.7356543 6.88920898 -27.7356543 6.88920898 -26.12695312 5.94726562 C-8.35479265 -4.26039095 -8.35479265 -4.26039095 0 0 Z " fill="#D0D0D5" transform="translate(56,341)"/>
<path d="M0 0 C1.0209375 0.350625 2.041875 0.70125 3.09375 1.0625 C13.67261763 4.71891058 24.19260988 8.54726064 34.6875 12.4375 C33.47166075 16.08501775 32.68462003 16.29005743 29.40234375 18.08203125 C28.49186279 18.58653809 27.58138184 19.09104492 26.64331055 19.61083984 C25.64726807 20.1517627 24.65122559 20.69268555 23.625 21.25 C21.5043463 22.42422576 19.38458093 23.60005703 17.265625 24.77734375 C16.17185547 25.38304199 15.07808594 25.98874023 13.95117188 26.61279297 C8.88584092 29.44480101 3.87977026 32.37517997 -1.125 35.3125 C-12.73118187 42.10760868 -24.37643965 48.83340465 -36.03027344 55.54638672 C-41.45909944 58.67430149 -46.88567941 61.80610767 -52.3125 64.9375 C-54.46353629 66.17839474 -56.61457797 67.41928014 -58.765625 68.66015625 C-64.40364547 71.91279509 -70.04082269 75.16689234 -75.67749023 78.421875 C-77.90275287 79.70583469 -80.12880478 80.98842761 -82.35571289 82.26953125 C-86.90212967 84.88532595 -91.44401363 87.50512881 -95.94921875 90.19140625 C-96.60760742 90.58013916 -97.26599609 90.96887207 -97.94433594 91.36938477 C-99.59080488 92.34333036 -101.23128445 93.32738303 -102.87109375 94.3125 C-105.3125 95.4375 -105.3125 95.4375 -108.3125 94.4375 C-109.56420898 92.63769531 -109.56420898 92.63769531 -110.80859375 90.265625 C-111.51483887 88.94135498 -111.51483887 88.94135498 -112.23535156 87.59033203 C-112.98510254 86.15343018 -112.98510254 86.15343018 -113.75 84.6875 C-114.81446449 82.68906868 -115.88092793 80.69170102 -116.94921875 78.6953125 C-117.49884277 77.66567383 -118.0484668 76.63603516 -118.61474609 75.57519531 C-121.34805864 70.52363752 -124.19996315 65.5416498 -127.0625 60.5625 C-127.5877124 59.64758789 -128.1129248 58.73267578 -128.65405273 57.79003906 C-129.87165754 55.6714353 -131.09099595 53.55385723 -132.3125 51.4375 C-129.3691084 48.2399461 -126.42470862 46.16051667 -122.640625 44.0390625 C-121.51342041 43.40194336 -120.38621582 42.76482422 -119.22485352 42.10839844 C-118.62826935 41.7751355 -118.03168518 41.44187256 -117.41702271 41.09851074 C-114.88983244 39.68672093 -112.37069451 38.26084121 -109.85108948 36.83557129 C-108.55822277 36.10431872 -107.26495612 35.37377284 -105.97129822 34.6439209 C-99.90414114 31.21810007 -93.88573182 27.71128905 -87.875 24.1875 C-85.91815561 23.04525273 -83.96112672 21.90332148 -82.00390625 20.76171875 C-79.16523081 19.10538093 -76.32809702 17.44667869 -73.49560547 15.77978516 C-49.56622786 1.7078825 -27.88364588 -9.86537538 0 0 Z " fill="#F1CBBC" transform="translate(200.3125,310.5625)"/>
<path d="M0 0 C8.8462197 2.68067264 13.27453088 9.53592437 17.8125 17.0625 C23.16200225 25.51451113 23.16200225 25.51451113 31.6328125 30.51171875 C38.75426781 31.9806658 45.04200009 30.84230731 52 29 C50.64227166 33.3205247 48.99245177 37.35174443 47.05859375 41.4453125 C46.77474319 42.04928864 46.49089264 42.65326477 46.19844055 43.27554321 C45.28101362 45.22673615 44.35927909 47.17585991 43.4375 49.125 C42.16842713 51.81930663 40.90199185 54.51484458 39.63671875 57.2109375 C39.32401031 57.87685913 39.01130188 58.54278076 38.68911743 59.22888184 C35.58537454 65.85462776 32.59186483 72.52876599 29.66577148 79.23486328 C27.21243377 84.78756623 27.21243377 84.78756623 25 87 C22.59692383 86.95483398 22.59692383 86.95483398 20 86 C18.1472168 83.71508789 18.1472168 83.71508789 16.44921875 80.72265625 C15.83369141 79.65208984 15.21816406 78.58152344 14.58398438 77.47851562 C13.95814453 76.35123047 13.33230469 75.22394531 12.6875 74.0625 C12.04232422 72.93908203 11.39714844 71.81566406 10.73242188 70.65820312 C6 62.3301422 6 62.3301422 6 60 C4.76697144 60.22719727 4.76697144 60.22719727 3.5090332 60.45898438 C0.44390942 61.02159093 -2.62190416 61.58022917 -5.68823242 62.13623047 C-7.66185099 62.49533313 -9.63464368 62.8589652 -11.60742188 63.22265625 C-12.85458984 63.44824219 -14.10175781 63.67382812 -15.38671875 63.90625 C-17.10701294 64.22045898 -17.10701294 64.22045898 -18.86206055 64.54101562 C-21.63757591 64.94698846 -24.20239814 65.09164953 -27 65 C-28.42537057 60.87901382 -27.63810286 58.42848327 -25.80244446 54.55796814 C-25.46029404 53.87239334 -25.11814362 53.18681854 -24.765625 52.48046875 C-24.41618332 51.75247574 -24.06674164 51.02448273 -23.70671082 50.27442932 C-22.5667868 47.9059427 -21.40842865 45.54698275 -20.25 43.1875 C-19.46598519 41.56552412 -18.68352025 39.94279818 -17.90258789 38.31933594 C-16.72707248 35.87606117 -15.55063382 33.43328926 -14.36903381 30.99295044 C-10.96212169 23.95464683 -7.67466987 16.86790679 -4.4375 9.75 C-3.97956055 8.74606201 -3.52162109 7.74212402 -3.04980469 6.70776367 C-2.03117707 4.47275364 -1.01438616 2.23693735 0 0 Z " fill="#FE646E" transform="translate(258,217)"/>
<path d="M0 0 C1.06188965 1.74356079 1.06188965 1.74356079 2.03710938 4.04150391 C2.40759399 4.89974762 2.77807861 5.75799133 3.15979004 6.64224243 C3.55049683 7.57756805 3.94120361 8.51289368 4.34375 9.4765625 C4.75411499 10.43517181 5.16447998 11.39378113 5.58728027 12.38143921 C6.90171417 15.45839811 8.2010008 18.54149765 9.5 21.625 C10.37530997 23.68141216 11.25160035 25.7374073 12.12890625 27.79296875 C14.10124171 32.41929284 16.06549883 37.04889832 18.015625 41.68463135 C18.64208712 43.15814577 19.27900025 44.62729265 19.9296875 46.090271 C21.48358763 49.5875746 22.35080687 52.14112448 22 56 C14.58902474 56.36687996 7.74406296 54.97269412 0.5 53.5 C-0.70398438 53.26152344 -1.90796875 53.02304687 -3.1484375 52.77734375 C-6.10037475 52.19164191 -9.05074335 51.59902793 -12 51 C-12.27094482 51.72018311 -12.54188965 52.44036621 -12.82104492 53.18237305 C-14.83624802 57.99857907 -17.61442056 62.35363175 -20.3125 66.8125 C-20.88162109 67.79154297 -21.45074219 68.77058594 -22.03710938 69.77929688 C-22.59849609 70.70419922 -23.15988281 71.62910156 -23.73828125 72.58203125 C-24.49685425 73.85397339 -24.49685425 73.85397339 -25.27075195 75.15161133 C-27 77 -27 77 -29.70385742 77.27612305 C-30.46158447 77.18500244 -31.21931152 77.09388184 -32 77 C-36.44057144 67.80614082 -40.57461231 58.48507772 -44.61071777 49.10803223 C-45.16248166 47.82634003 -45.7154632 46.54517136 -46.26965332 45.26452637 C-47.05737332 43.44235764 -47.83934696 41.61770808 -48.62109375 39.79296875 C-49.0792749 38.7258667 -49.53745605 37.65876465 -50.00952148 36.55932617 C-51 34 -51 34 -51 32 C-49.98292969 32.08701172 -49.98292969 32.08701172 -48.9453125 32.17578125 C-41.54699058 32.53442566 -35.9593985 31.58873685 -30 27 C-26.95138364 23.56478374 -24.46875058 19.86615658 -22 16 C-17.72024275 9.32055546 -14.20255918 4.564153 -7 1 C-6.32324219 0.608125 -5.64648438 0.21625 -4.94921875 -0.1875 C-3 -1 -3 -1 0 0 Z " fill="#FE646E" transform="translate(396,216)"/>
<path d="M0 0 C5.79676615 3.06204405 10.89981937 7.10283093 16.03515625 11.14453125 C22.52255952 15.75638636 29.01302641 15.72789496 36.73242188 16.25585938 C44.88094469 16.90891788 53.96422582 17.91984204 59.83203125 24.1328125 C63.91400136 30.35640795 65.30384088 36.44406299 66.81054688 43.66210938 C69.09223113 53.73378636 74.04620278 59.78121226 81.45703125 66.7578125 C87.77296252 72.70795624 92.21403557 77.76571497 92.8828125 86.7421875 C92.75591904 92.71594113 90.50901672 97.85906133 87.84765625 103.125 C83.50379424 111.73213828 80.48947683 118.23713048 81.83203125 128.1328125 C81.91582031 128.8340625 81.99960937 129.5353125 82.0859375 130.2578125 C82.16714844 130.8971875 82.24835938 131.5365625 82.33203125 132.1953125 C83.39728789 140.58420852 84.08364684 148.06043621 78.83203125 155.1328125 C73.65277559 161.39052499 67.07297838 163.92961909 59.61328125 166.578125 C50.73859926 170.04155684 46.17970031 174.66229067 41.14453125 182.6953125 C36.09864683 190.60913122 32.0698407 196.00135167 22.83203125 199.1328125 C18.50766276 199.6504625 15.56763149 199.62321266 11.83203125 197.1328125 C12.68474609 196.96458984 12.68474609 196.96458984 13.5546875 196.79296875 C22.16953897 194.5925142 25.18623867 189.21002021 29.83203125 182.05078125 C30.51265625 181.00535156 31.19328125 179.95992187 31.89453125 178.8828125 C32.50425781 177.90828125 33.11398437 176.93375 33.7421875 175.9296875 C39.25014241 168.55829364 46.30754179 165.93597057 54.57617188 162.52734375 C62.07985713 159.31871615 66.6168214 155.87744922 69.83203125 148.1328125 C70.08369561 144.60521768 70.08369561 144.60521768 69.7734375 140.84765625 C69.7083081 139.42535801 69.6465889 138.00290043 69.58789062 136.58032227 C69.5546167 135.84339142 69.52134277 135.10646057 69.48706055 134.34719849 C68.96330468 121.45903835 69.32362042 111.17663989 76.27563477 99.84155273 C79.9264499 93.87796867 80.92050437 89.11394221 79.83203125 82.1328125 C77.86129023 75.25434489 72.93947635 70.87015288 67.83203125 66.1328125 C58.38795767 57.37309208 55.44246251 49.80312448 52.765625 37.37890625 C51.3968156 31.42322561 49.73806843 26.72434349 45.02734375 22.5234375 C37.99024291 18.64639326 30.73097981 18.28104931 22.85205078 17.85253906 C12.65455358 17.24667616 6.25261665 14.14102272 -1.91796875 8.1328125 C-2.65917969 7.59914063 -3.40039062 7.06546875 -4.1640625 6.515625 C-7.52539893 4.08966944 -10.85502539 1.6244105 -14.16796875 -0.8671875 C-9.33467845 -2.47828427 -4.72441597 -1.88976639 0 0 Z " fill="#FED064" transform="translate(333.16796875,49.8671875)"/>
<path d="M0 0 C2.9375 0.8125 2.9375 0.8125 4.9375 3.8125 C5.0625 7 5.0625 7 4.9375 9.8125 C5.783125 9.874375 6.62875 9.93625 7.5 10 C13.16448492 11.33887825 17.24355841 14.29746529 20.4375 19.1875 C22.14682286 23.31836358 21.98771628 25.52411685 20.9375 29.8125 C17.6875 30.625 17.6875 30.625 13.9375 30.8125 C11.75 28.625 11.75 28.625 9.9375 25.8125 C7.05169027 22.66434393 5.21643853 21.07282818 0.8515625 20.57421875 C-3.06532071 20.44722083 -5.55189259 20.56240658 -9.125 22.3125 C-11.12567741 24.89401924 -11.46251074 25.7424572 -11.6875 28.875 C-11.51437934 32.83032606 -11.51437934 32.83032606 -9.01171875 34.44140625 C-5.51049569 36.06912717 -2.0024957 36.89059903 1.75 37.6875 C10.15712248 39.63881332 17.10266769 42.18834135 21.9375 49.8125 C23.95082752 54.34248691 24.9184044 58.90797799 23.9375 63.8125 C21.04173758 70.63008239 16.83696148 74.01044154 10.20703125 77.03515625 C7.9375 77.8125 7.9375 77.8125 4.9375 77.8125 C4.834375 78.92625 4.73125 80.04 4.625 81.1875 C4.398125 82.38375 4.17125 83.58 3.9375 84.8125 C0.71606724 86.96012184 -0.3220467 87.373568 -4.0625 86.8125 C-6.31931365 84.63628683 -7.02007006 83.39237581 -7.25 80.25 C-7.77889963 77.71206899 -7.77889963 77.71206899 -9.72265625 76.96875 C-11.14580535 76.47929311 -12.5731396 76.00187692 -14.00390625 75.53515625 C-19.74188199 73.52087634 -22.47186767 69.22633644 -25.18359375 64.06640625 C-26.39651992 60.95592447 -26.20035002 58.92262338 -25.0625 55.8125 C-23.0625 53.8125 -23.0625 53.8125 -19.6875 53.6875 C-16.0625 54.8125 -16.0625 54.8125 -14.890625 56.5625 C-13.9375 58.6875 -13.9375 58.6875 -13.1796875 60.8046875 C-11.60643322 63.63214449 -9.99280811 64.48278035 -7.0625 65.8125 C-3.88353642 66.28445283 -3.88353642 66.28445283 -0.5625 66.1875 C0.5409375 66.19523437 1.644375 66.20296875 2.78125 66.2109375 C6.29066907 65.76791678 8.19516009 65.03656283 10.9375 62.8125 C11.68351562 60.88720051 11.68351562 60.88720051 11.5 58.8125 C11.50128906 58.131875 11.50257813 57.45125 11.50390625 56.75 C10.661792 53.8693885 9.56437779 53.27324045 6.9375 51.8125 C4.07793287 50.88904757 1.16991888 50.20448931 -1.75 49.5 C-9.42359798 47.48776783 -16.44443098 45.51698644 -21.48046875 38.96875 C-24.26299244 34.18242938 -25.15619414 29.25243954 -24.0625 23.8125 C-21.68132129 18.17873251 -17.99706565 14.30781734 -13.0625 10.8125 C-11.70125 10.379375 -11.70125 10.379375 -10.3125 9.9375 C-9.57 9.56625 -8.8275 9.195 -8.0625 8.8125 C-7.31990651 6.50220915 -6.651062 4.166748 -6.0625 1.8125 C-3.0625 -0.1875 -3.0625 -0.1875 0 0 Z " fill="#FFE075" transform="translate(325.0625,104.1875)"/>
<path d="M0 0 C7.21655071 6.68851041 11.40847457 16.69592189 15.6875 25.4375 C20.14412074 34.51656923 25.18893994 43.23101986 30.25488281 51.98046875 C33.13696933 56.9672687 35.99699781 61.96668481 38.85552979 66.9670105 C39.53468065 68.15480279 40.21416427 69.34240489 40.89398193 70.52981567 C44.60400657 77.01031037 48.29050252 83.50239275 51.921875 90.02734375 C52.54594238 91.14850586 53.17000977 92.26966797 53.81298828 93.42480469 C54.98157694 95.52895705 56.14686749 97.63494611 57.30810547 99.74316406 C60.19890603 104.95170286 63.23457267 109.96446553 66.58496094 114.8894043 C68.80437654 118.19976453 70.82728654 121.60802356 72.8125 125.0625 C73.20630859 125.71798828 73.60011719 126.37347656 74.00585938 127.04882812 C77.33396788 132.85446508 78.74133172 137.92876861 77.125 144.625 C74.25931823 149.17637693 70.60551462 151.36413943 66 154 C65.34 153.67 64.68 153.34 64 153 C64.48243164 152.43176514 64.96486328 151.86353027 65.46191406 151.27807617 C68.13952668 147.31223437 67.83350056 143.60532473 67 139 C65.15712392 134.48172048 62.74468424 130.37395397 60.25 126.1875 C59.55803495 124.99107697 58.86811968 123.79346627 58.18017578 122.59472656 C56.79245065 120.18386568 55.39355229 117.78013383 53.98339844 115.38232422 C51.72687103 111.53422837 49.51726476 107.66121738 47.31445312 103.78222656 C45.86495409 101.23232766 44.40618536 98.68792841 42.9453125 96.14453125 C39.85490254 90.75641489 36.80110353 85.34794383 33.75 79.9375 C29.22198773 71.91035149 24.66173753 63.90216703 20.08166504 55.90463257 C13.91452277 45.13577099 7.80148305 34.33898089 1.75756836 23.50024414 C-0.68636606 19.11958003 -3.13533107 14.74377857 -5.6484375 10.40234375 C-6.03193359 9.73960449 -6.41542969 9.07686523 -6.81054688 8.39404297 C-7.78353963 6.71987057 -8.76255414 5.04920162 -9.7421875 3.37890625 C-11 1 -11 1 -11 -1 C-6.951541 -2.34948633 -3.83702532 -1.61200472 0 0 Z " fill="#B2B2B6" transform="translate(56,341)"/>
<path d="M0 0 C2.40232488 0.6380919 4.80466895 1.27611153 7.20703125 1.9140625 C8.99874756 2.39407715 8.99874756 2.39407715 10.82666016 2.88378906 C14.03046031 3.7373579 17.23802977 4.57316876 20.44921875 5.3984375 C32.45678156 8.48511597 44.39419205 11.76973705 56.2956543 15.2434082 C58.29262437 15.80689171 60.29699576 16.31987149 62.3125 16.8125 C61.83409393 21.11815461 59.52060194 23.08220047 56.3125 25.8125 C46.59709228 31.70062589 38.59801325 30.77933071 27.85162354 28.22833252 C21.08394785 26.53910246 14.3553023 24.70629731 7.625 22.875 C5.60107362 22.33077679 3.57698599 21.78715286 1.55273438 21.24414062 C-3.86589177 19.78522969 -9.28379748 18.32590531 -14.6875 16.8125 C-15.60350983 16.55918915 -16.51951965 16.3058783 -17.46328735 16.04489136 C-18.35687958 15.78958649 -19.2504718 15.53428162 -20.17114258 15.27124023 C-20.97530106 15.0438768 -21.77945953 14.81651337 -22.60798645 14.58226013 C-25.8903439 13.36725102 -27.16353189 11.9297075 -28.6875 8.8125 C-29.24421109 5.83942586 -29.08223013 3.9209998 -28.6875 0.8125 C-21.74596276 -8.21149841 -9.29698963 -2.52081886 0 0 Z " fill="#F1CBBC" transform="translate(235.6875,355.1875)"/>
<path d="M0 0 C0 0.66 0 1.32 0 2 C-1.19882812 2.56654297 -1.19882812 2.56654297 -2.421875 3.14453125 C-17.82008025 10.86170689 -28.50836153 21.54320794 -34.9375 37.8125 C-38.85794786 50.45368006 -39.2158962 66.69127525 -34 79 C-33.5978125 79.97839844 -33.195625 80.95679688 -32.78125 81.96484375 C-29.36087525 89.49916924 -24.86945564 95.21350486 -19 101 C-18.15308594 101.86238281 -18.15308594 101.86238281 -17.2890625 102.7421875 C-11.06411615 108.60274675 -2.88226801 111.93948568 5 115 C5 115.33 5 115.66 5 116 C-7.46407788 116.20103351 -18.39239478 109.38539249 -27.53515625 101.4375 C-39.29515291 89.80796289 -45.95397757 74.99174503 -46.25 58.5625 C-45.95498873 41.13948138 -39.66743771 26.90605412 -27.6875 14.25 C-20.67916129 7.50343285 -10.03653411 0 0 0 Z " fill="#F5B92B" transform="translate(310,90)"/>
<path d="M0 0 C4.45647495 0.7957991 5.70214896 2.11404641 8.5 5.625 C9.09936523 8.97485352 9.09936523 8.97485352 9.05859375 12.75390625 C9.05509666 13.76118019 9.05509666 13.76118019 9.05152893 14.7888031 C9.04182674 16.20169872 9.02012039 17.6145575 8.98706055 19.02709961 C8.93756491 21.18467034 8.92557196 23.339959 8.91992188 25.49804688 C8.80109 37.11527772 8.80109 37.11527772 6.5 40.625 C3.32717161 43.18766909 0.23940338 42.67292739 -3.59765625 42.3046875 C-6.33114199 41.32804167 -7.0345045 40.12752953 -8.5 37.625 C-9.07711572 33.07283195 -9.01511335 28.50987887 -9.00097656 23.92602539 C-9.00000433 21.69741552 -9.04163613 19.47225344 -9.0859375 17.24414062 C-9.09114529 15.82031964 -9.09383268 14.39648675 -9.09375 12.97265625 C-9.10083984 11.68367432 -9.10792969 10.39469238 -9.11523438 9.06665039 C-8.13400374 3.57759947 -5.44867976 0.97297853 0 0 Z " fill="#C4E2FF" transform="translate(148.5,225.375)"/>
<path d="M0 0 C4.45647495 0.7957991 5.70214896 2.11404641 8.5 5.625 C9.09936523 8.97485352 9.09936523 8.97485352 9.05859375 12.75390625 C9.05509666 13.76118019 9.05509666 13.76118019 9.05152893 14.7888031 C9.04182674 16.20169872 9.02012039 17.6145575 8.98706055 19.02709961 C8.93756491 21.18467034 8.92557196 23.339959 8.91992188 25.49804688 C8.80109 37.11527772 8.80109 37.11527772 6.5 40.625 C3.32717161 43.18766909 0.23940338 42.67292739 -3.59765625 42.3046875 C-6.33114199 41.32804167 -7.0345045 40.12752953 -8.5 37.625 C-9.07711572 33.07283195 -9.01511335 28.50987887 -9.00097656 23.92602539 C-9.00000433 21.69741552 -9.04163613 19.47225344 -9.0859375 17.24414062 C-9.09114529 15.82031964 -9.09383268 14.39648675 -9.09375 12.97265625 C-9.10083984 11.68367432 -9.10792969 10.39469238 -9.11523438 9.06665039 C-8.13400374 3.57759947 -5.44867976 0.97297853 0 0 Z " fill="#C4E2FF" transform="translate(172.5,91.375)"/>
<path d="M0 0 C4.45647495 0.7957991 5.70214896 2.11404641 8.5 5.625 C9.09936523 8.97485352 9.09936523 8.97485352 9.05859375 12.75390625 C9.05509666 13.76118019 9.05509666 13.76118019 9.05152893 14.7888031 C9.04182674 16.20169872 9.02012039 17.6145575 8.98706055 19.02709961 C8.93756491 21.18467034 8.92557196 23.339959 8.91992188 25.49804688 C8.80095837 37.12814537 8.80095837 37.12814537 6.5 40.625 C3.84543069 42.68966502 2.4117824 42.62184937 -1 42.5 C-4.94929845 41.51267539 -6.07259564 40.82685107 -8.5 37.625 C-9.03344727 34.31274414 -9.03344727 34.31274414 -9.06640625 30.41015625 C-9.07260483 29.71740097 -9.07880341 29.02464569 -9.08518982 28.31089783 C-9.09227657 26.84928794 -9.08913373 25.38759713 -9.07641602 23.92602539 C-9.06256035 21.6972082 -9.09661125 19.47260252 -9.13476562 17.24414062 C-9.13571705 15.82031148 -9.13385671 14.39647711 -9.12890625 12.97265625 C-9.12963135 11.68367432 -9.13035645 10.39469238 -9.13110352 9.06665039 C-8.12575696 3.58410865 -5.45025989 0.9732607 0 0 Z " fill="#C4E2FF" transform="translate(148.5,167.375)"/>
<path d="M0 0 C3.5277622 0.51312905 4.99338357 0.96187909 7.4375 3.5 C9.13275506 8.58576517 8.62342404 14.00126645 8.62280273 19.32397461 C8.62498854 21.42647565 8.64315545 23.52845117 8.66210938 25.63085938 C8.66504376 26.97135238 8.66702825 28.31184787 8.66796875 29.65234375 C8.67207764 30.86913818 8.67618652 32.08593262 8.68041992 33.33959961 C8.44857255 36.35594552 8.07936572 38.00198961 6.4375 40.5 C3.26467161 43.06266909 0.17690338 42.54792739 -3.66015625 42.1796875 C-6.39364199 41.20304167 -7.0970045 40.00252953 -8.5625 37.5 C-9.13961572 32.94783195 -9.07761335 28.38487887 -9.06347656 23.80102539 C-9.06250433 21.57241552 -9.10413613 19.34725344 -9.1484375 17.11914062 C-9.15364529 15.69531964 -9.15633268 14.27148675 -9.15625 12.84765625 C-9.16333984 11.55867432 -9.17042969 10.26969238 -9.17773438 8.94165039 C-8.19097124 3.42165043 -5.52853184 0.77593429 0 0 Z " fill="#C4E2FF" transform="translate(451.5625,62.5)"/>
<path d="M0 0 C4.45647495 0.7957991 5.70214896 2.11404641 8.5 5.625 C9.09936523 8.97485352 9.09936523 8.97485352 9.05859375 12.75390625 C9.05509666 13.76118019 9.05509666 13.76118019 9.05152893 14.7888031 C9.04182674 16.20169872 9.02012039 17.6145575 8.98706055 19.02709961 C8.93756491 21.18467034 8.92557196 23.339959 8.91992188 25.49804688 C8.80095837 37.12814537 8.80095837 37.12814537 6.5 40.625 C3.84543069 42.68966502 2.4117824 42.62184937 -1 42.5 C-4.94929845 41.51267539 -6.07259564 40.82685107 -8.5 37.625 C-9.03344727 34.31274414 -9.03344727 34.31274414 -9.06640625 30.41015625 C-9.07260483 29.71740097 -9.07880341 29.02464569 -9.08518982 28.31089783 C-9.09227657 26.84928794 -9.08913373 25.38759713 -9.07641602 23.92602539 C-9.06256035 21.6972082 -9.09661125 19.47260252 -9.13476562 17.24414062 C-9.13571705 15.82031148 -9.13385671 14.39647711 -9.12890625 12.97265625 C-9.12963135 11.68367432 -9.13035645 10.39469238 -9.13110352 9.06665039 C-8.12575696 3.58410865 -5.45025989 0.9732607 0 0 Z " fill="#C4E2FF" transform="translate(172.5,33.375)"/>
<path d="M0 0 C4.45573344 0.79566669 5.69834279 2.11858083 8.5 5.625 C9.13110352 8.95898437 9.13110352 8.95898437 9.12890625 12.71875 C9.13131821 13.38789429 9.13373016 14.05703857 9.13621521 14.74645996 C9.13523979 16.15508985 9.12191848 17.56375951 9.09692383 18.97216797 C9.06258798 21.11949807 9.07627926 23.26271249 9.09570312 25.41015625 C9.08880411 26.78387155 9.07913119 28.15757631 9.06640625 29.53125 C9.05009155 31.39233398 9.05009155 31.39233398 9.03344727 33.29101562 C8.40625425 37.2109002 7.32570435 38.8774797 4.5 41.625 C0.49196403 42.7909741 -1.55282711 43.05740501 -5.375 41.3125 C-7.5 39.625 -7.5 39.625 -8.5 37.625 C-8.78208415 33.11272476 -8.81366669 28.59680603 -8.85009766 24.0769043 C-8.86664188 22.57251499 -8.89391251 21.0682038 -8.93212891 19.56420898 C-8.98706208 17.39004959 -9.0087937 15.21772978 -9.0234375 13.04296875 C-9.04325684 11.74125732 -9.06307617 10.4395459 -9.08349609 9.09838867 C-8.15581738 3.57617734 -5.46873052 0.97655902 0 0 Z " fill="#C4E2FF" transform="translate(451.5,4.375)"/>
<path d="M0 0 C2.01056207 0.00315859 4.01964907 -0.02031234 6.0300293 -0.0456543 C7.30426758 -0.04629883 8.57850586 -0.04694336 9.89135742 -0.04760742 C11.63630493 -0.05207886 11.63630493 -0.05207886 13.41650391 -0.05664062 C16.90602528 0.35368554 18.78602652 1.2258428 21.58276367 3.31567383 C23.147476 6.44509848 23.27978325 9.92649606 22.58276367 13.31567383 C20.2598425 16.4373832 19.06144176 17.24322969 15.1628418 17.83325195 C13.81348056 17.85952894 12.46353746 17.86279129 11.11401367 17.84692383 C10.39669067 17.85075073 9.67936768 17.85457764 8.94030762 17.85852051 C7.42739453 17.8612361 5.91443422 17.85389938 4.40161133 17.8371582 C2.08983391 17.81573933 -0.21883646 17.83696734 -2.53051758 17.86254883 C-4.00318067 17.85990548 -5.47584183 17.85478036 -6.94848633 17.84692383 C-7.63712769 17.85502075 -8.32576904 17.86311768 -9.03527832 17.87145996 C-12.38059853 17.80631436 -14.14113277 17.5277339 -16.82543945 15.46606445 C-18.90153434 12.66142584 -19.3461434 10.79922744 -19.41723633 7.31567383 C-18.21603612 4.53394704 -17.25669893 2.86853761 -14.71386719 1.19384766 C-10.06766792 -0.58274199 -4.91454285 -0.01618795 0 0 Z " fill="#C4E2FF" transform="translate(117.417236328125,208.684326171875)"/>
<path d="M0 0 C2.01056207 0.00315859 4.01964907 -0.02031234 6.0300293 -0.0456543 C7.30426758 -0.04629883 8.57850586 -0.04694336 9.89135742 -0.04760742 C11.63630493 -0.05207886 11.63630493 -0.05207886 13.41650391 -0.05664062 C16.90602528 0.35368554 18.78602652 1.2258428 21.58276367 3.31567383 C23.147476 6.44509848 23.27978325 9.92649606 22.58276367 13.31567383 C20.2598425 16.4373832 19.06144176 17.24322969 15.1628418 17.83325195 C13.81348056 17.85952894 12.46353746 17.86279129 11.11401367 17.84692383 C10.39669067 17.85075073 9.67936768 17.85457764 8.94030762 17.85852051 C7.42739453 17.8612361 5.91443422 17.85389938 4.40161133 17.8371582 C2.08983391 17.81573933 -0.21883646 17.83696734 -2.53051758 17.86254883 C-4.00318067 17.85990548 -5.47584183 17.85478036 -6.94848633 17.84692383 C-7.63712769 17.85502075 -8.32576904 17.86311768 -9.03527832 17.87145996 C-12.40523956 17.80583451 -14.13869786 17.53367028 -16.82543945 15.4309082 C-18.7366893 12.89117374 -19.34137421 11.50188278 -19.41723633 8.31567383 C-17.44100357 3.01104905 -17.44100357 3.01104905 -14.71386719 1.15869141 C-10.04598479 -0.55473454 -4.91637664 -0.01619399 0 0 Z " fill="#C4E2FF" transform="translate(199.417236328125,74.684326171875)"/>
<path d="M0 0 C2.01056207 0.00315859 4.01964907 -0.02031234 6.0300293 -0.0456543 C7.30426758 -0.04629883 8.57850586 -0.04694336 9.89135742 -0.04760742 C11.63630493 -0.05207886 11.63630493 -0.05207886 13.41650391 -0.05664062 C16.90602528 0.35368554 18.78602652 1.2258428 21.58276367 3.31567383 C23.147476 6.44509848 23.27978325 9.92649606 22.58276367 13.31567383 C20.2598425 16.4373832 19.06144176 17.24322969 15.1628418 17.83325195 C13.81348056 17.85952894 12.46353746 17.86279129 11.11401367 17.84692383 C10.39669067 17.85075073 9.67936768 17.85457764 8.94030762 17.85852051 C7.42739453 17.8612361 5.91443422 17.85389938 4.40161133 17.8371582 C2.08983391 17.81573933 -0.21883646 17.83696734 -2.53051758 17.86254883 C-4.00318067 17.85990548 -5.47584183 17.85478036 -6.94848633 17.84692383 C-7.63712769 17.85502075 -8.32576904 17.86311768 -9.03527832 17.87145996 C-12.38059853 17.80631436 -14.14113277 17.5277339 -16.82543945 15.46606445 C-18.90153434 12.66142584 -19.3461434 10.79922744 -19.41723633 7.31567383 C-18.21603612 4.53394704 -17.25669893 2.86853761 -14.71386719 1.19384766 C-10.06766792 -0.58274199 -4.91454285 -0.01618795 0 0 Z " fill="#C4E2FF" transform="translate(478.417236328125,45.684326171875)"/>
<path d="M0 0 C2.01056207 0.00315859 4.01964907 -0.02031234 6.0300293 -0.0456543 C7.30426758 -0.04629883 8.57850586 -0.04694336 9.89135742 -0.04760742 C11.63630493 -0.05207886 11.63630493 -0.05207886 13.41650391 -0.05664062 C16.90602528 0.35368554 18.78602652 1.2258428 21.58276367 3.31567383 C23.147476 6.44509848 23.27978325 9.92649606 22.58276367 13.31567383 C20.2598425 16.4373832 19.06144176 17.24322969 15.1628418 17.83325195 C13.81348056 17.85952894 12.46353746 17.86279129 11.11401367 17.84692383 C10.39669067 17.85075073 9.67936768 17.85457764 8.94030762 17.85852051 C7.42739453 17.8612361 5.91443422 17.85389938 4.40161133 17.8371582 C2.08983391 17.81573933 -0.21883646 17.83696734 -2.53051758 17.86254883 C-4.00318067 17.85990548 -5.47584183 17.85478036 -6.94848633 17.84692383 C-7.63712769 17.85502075 -8.32576904 17.86311768 -9.03527832 17.87145996 C-12.38059853 17.80631436 -14.14113277 17.5277339 -16.82543945 15.46606445 C-18.90153434 12.66142584 -19.3461434 10.79922744 -19.41723633 7.31567383 C-18.21603612 4.53394704 -17.25669893 2.86853761 -14.71386719 1.19384766 C-10.06766792 -0.58274199 -4.91454285 -0.01618795 0 0 Z " fill="#C3E2FF" transform="translate(420.417236328125,45.684326171875)"/>
<path d="M0 0 C2.01056207 0.00315859 4.01964907 -0.02031234 6.0300293 -0.0456543 C7.30426758 -0.04629883 8.57850586 -0.04694336 9.89135742 -0.04760742 C11.63630493 -0.05207886 11.63630493 -0.05207886 13.41650391 -0.05664062 C16.90602528 0.35368554 18.78602652 1.2258428 21.58276367 3.31567383 C23.147476 6.44509848 23.27978325 9.92649606 22.58276367 13.31567383 C20.2598425 16.4373832 19.06144176 17.24322969 15.1628418 17.83325195 C13.81348056 17.85952894 12.46353746 17.86279129 11.11401367 17.84692383 C10.39669067 17.85075073 9.67936768 17.85457764 8.94030762 17.85852051 C7.42739453 17.8612361 5.91443422 17.85389938 4.40161133 17.8371582 C2.08983391 17.81573933 -0.21883646 17.83696734 -2.53051758 17.86254883 C-4.00318067 17.85990548 -5.47584183 17.85478036 -6.94848633 17.84692383 C-7.63712769 17.85502075 -8.32576904 17.86311768 -9.03527832 17.87145996 C-12.40523956 17.80583451 -14.13869786 17.53367028 -16.82543945 15.4309082 C-18.7366893 12.89117374 -19.34137421 11.50188278 -19.41723633 8.31567383 C-17.44100357 3.01104905 -17.44100357 3.01104905 -14.71386719 1.15869141 C-10.04598479 -0.55473454 -4.91637664 -0.01619399 0 0 Z " fill="#C4E2FF" transform="translate(175.417236328125,208.684326171875)"/>
<path d="M0 0 C2.01056207 0.00315859 4.01964907 -0.02031234 6.0300293 -0.0456543 C7.30426758 -0.04629883 8.57850586 -0.04694336 9.89135742 -0.04760742 C11.63630493 -0.05207886 11.63630493 -0.05207886 13.41650391 -0.05664062 C16.90602528 0.35368554 18.78602652 1.2258428 21.58276367 3.31567383 C23.147476 6.44509848 23.27978325 9.92649606 22.58276367 13.31567383 C20.2598425 16.4373832 19.06144176 17.24322969 15.1628418 17.83325195 C13.81348056 17.85952894 12.46353746 17.86279129 11.11401367 17.84692383 C10.39669067 17.85075073 9.67936768 17.85457764 8.94030762 17.85852051 C7.42739453 17.8612361 5.91443422 17.85389938 4.40161133 17.8371582 C2.08983391 17.81573933 -0.21883646 17.83696734 -2.53051758 17.86254883 C-4.00318067 17.85990548 -5.47584183 17.85478036 -6.94848633 17.84692383 C-7.63712769 17.85502075 -8.32576904 17.86311768 -9.03527832 17.87145996 C-12.38059853 17.80631436 -14.14113277 17.5277339 -16.82543945 15.46606445 C-18.90153434 12.66142584 -19.3461434 10.79922744 -19.41723633 7.31567383 C-18.21603612 4.53394704 -17.25669893 2.86853761 -14.71386719 1.19384766 C-10.06766792 -0.58274199 -4.91454285 -0.01618795 0 0 Z " fill="#C4E2FF" transform="translate(141.417236328125,74.684326171875)"/>
<path d="M0 0 C1.06188965 1.74356079 1.06188965 1.74356079 2.03710938 4.04150391 C2.40759399 4.89974762 2.77807861 5.75799133 3.15979004 6.64224243 C3.55049683 7.57756805 3.94120361 8.51289368 4.34375 9.4765625 C4.75411499 10.43517181 5.16447998 11.39378113 5.58728027 12.38143921 C6.90171417 15.45839811 8.2010008 18.54149765 9.5 21.625 C10.37530997 23.68141216 11.25160035 25.7374073 12.12890625 27.79296875 C14.10124171 32.41929284 16.06549883 37.04889832 18.015625 41.68463135 C18.64208712 43.15814577 19.27900025 44.62729265 19.9296875 46.090271 C21.48358763 49.5875746 22.35080687 52.14112448 22 56 C19.36 56 16.72 56 14 56 C13.61303955 55.04867187 13.61303955 55.04867187 13.21826172 54.078125 C10.50418182 47.48141885 7.66267478 40.95199637 4.7578125 34.4375 C3.60619414 31.84254057 2.4553938 29.24721946 1.3046875 26.65185547 C0.51113388 24.8680021 -0.28613454 23.08579712 -1.08691406 21.30517578 C-2.25351253 18.70804896 -3.4053798 16.10481563 -4.5546875 13.5 C-4.91601776 12.7052124 -5.27734802 11.9104248 -5.64962769 11.09155273 C-5.97391754 10.34977783 -6.2982074 9.60800293 -6.63232422 8.84375 C-6.92146698 8.19599609 -7.21060974 7.54824219 -7.5085144 6.88085938 C-8.11714561 4.55169711 -7.85244007 3.23437407 -7 1 C-4.09342573 -1.03460199 -3.47133392 -1.15711131 0 0 Z " fill="#FD4856" transform="translate(396,216)"/>
<path d="M0 0 C-1.35772834 4.3205247 -3.00754823 8.35174443 -4.94140625 12.4453125 C-5.22525681 13.04928864 -5.50910736 13.65326477 -5.80155945 14.27554321 C-6.71898638 16.22673615 -7.64072091 18.17585991 -8.5625 20.125 C-9.83157287 22.81930663 -11.09800815 25.51484458 -12.36328125 28.2109375 C-12.67598969 28.87685913 -12.98869812 29.54278076 -13.31088257 30.22888184 C-16.41462546 36.85462776 -19.40813517 43.52876599 -22.33422852 50.23486328 C-24.78756623 55.78756623 -24.78756623 55.78756623 -27 58 C-29.4375 57.9375 -29.4375 57.9375 -32 57 C-35 52.96551724 -35 52.96551724 -35 50 C-34.40018311 49.94956543 -33.80036621 49.89913086 -33.18237305 49.84716797 C-29.91479639 48.5787385 -29.48637017 46.59749421 -28.08203125 43.4453125 C-27.29034546 41.69903564 -27.29034546 41.69903564 -26.48266602 39.91748047 C-26.07360519 38.98811676 -26.07360519 38.98811676 -25.65628052 38.03997803 C-24.80984404 36.11897224 -23.94478312 34.20743168 -23.07397461 32.29736328 C-20.45772392 26.54596783 -17.89877906 20.77010898 -15.359375 14.984375 C-14.59381829 13.2812193 -13.82819851 11.57809195 -13.0625 9.875 C-12.73419189 9.09527832 -12.40588379 8.31555664 -12.06762695 7.51220703 C-10.46046275 3.9580805 -9.49828493 2.24247751 -5.93359375 0.5078125 C-3 0 -3 0 0 0 Z " fill="#FD4956" transform="translate(310,246)"/>
<path d="M0 0 C2.17457267 2.87354245 3 4.36436591 3 8 C-1.39445722 8.8407021 -5.79076996 9.6712735 -10.1875 10.5 C-11.43337891 10.73847656 -12.67925781 10.97695313 -13.96289062 11.22265625 C-15.7659668 11.56103516 -15.7659668 11.56103516 -17.60546875 11.90625 C-19.26292114 12.22045898 -19.26292114 12.22045898 -20.95385742 12.54101562 C-23.6982428 12.95453206 -26.23175475 13.09009749 -29 13 C-29.73835468 10.34192314 -30.17772066 8.57661676 -29.35498047 5.90722656 C-28 4 -28 4 -25.63330078 3.17871094 C-24.66376465 3.03208008 -23.69422852 2.88544922 -22.6953125 2.734375 C-21.10783203 2.48300781 -21.10783203 2.48300781 -19.48828125 2.2265625 C-18.37839844 2.06929688 -17.26851562 1.91203125 -16.125 1.75 C-15.02285156 1.57726562 -13.92070312 1.40453125 -12.78515625 1.2265625 C-8.46100321 0.5645415 -4.38230639 0 0 0 Z " fill="#FD4957" transform="translate(260,269)"/>
<path d="M0 0 C2.3431213 0.25561323 4.67843403 0.59270772 7 1 C7.33 1.66 7.66 2.32 8 3 C6.86010742 5.29077148 6.86010742 5.29077148 5.10546875 8.12109375 C4.47962891 9.13880859 3.85378906 10.15652344 3.20898438 11.20507812 C2.54189453 12.27177734 1.87480469 13.33847656 1.1875 14.4375 C0.53201172 15.50033203 -0.12347656 16.56316406 -0.79882812 17.65820312 C-3.15485442 21.47076973 -5.51383389 25.27075083 -8 29 C-10.5625 29.25 -10.5625 29.25 -13 29 C-14 28 -14 28 -14.4296875 25.54296875 C-13.78923999 20.26218793 -11.041542 16.67396498 -8.125 12.3125 C-7.56941406 11.45849609 -7.01382812 10.60449219 -6.44140625 9.72460938 C-4.97401411 7.47401878 -3.49207463 5.23427345 -2 3 C-1.34 2.01 -0.68 1.02 0 0 Z " fill="#FD4956" transform="translate(377,264)"/>
<path d="M0 0 C4.15672698 0.74227268 5.83984093 1.31995388 8.5 4.625 C9.40002172 8.92773541 9.23145407 12.37543263 7 16.1875 C3.45912093 18.22350547 0.488071 18.41933858 -3.5 17.625 C-6.79291844 15.51415485 -7.38775952 13.98152858 -8.5625 10.25 C-8.5 6.625 -8.5 6.625 -6.5 3.1875 C-3.5 0.625 -3.5 0.625 0 0 Z " fill="#6A606A" transform="translate(42.5,362.375)"/>
<path d="M0 0 C-8.21856999 4.50499392 -17.69637698 6.64162917 -27 6 C-27 5.34 -27 4.68 -27 4 C-24.79290017 3.34996375 -22.58426108 2.70515255 -20.375 2.0625 C-19.14523437 1.70285156 -17.91546875 1.34320313 -16.6484375 0.97265625 C-10.63133042 -0.63147615 -6.16504444 -1.109708 0 0 Z " fill="#FECC67" transform="translate(319,243)"/>
<path d="M0 0 C2.6015625 -0.29296875 2.6015625 -0.29296875 5.625 -0.1875 C7.12933594 -0.14689453 7.12933594 -0.14689453 8.6640625 -0.10546875 C9.43492187 -0.07066406 10.20578125 -0.03585938 11 0 C11 0.33 11 0.66 11 1 C6.71 1.66 2.42 2.32 -2 3 C-1.34 2.01 -0.68 1.02 0 0 Z " fill="#F7BD32" transform="translate(313,88)"/>
</svg>
