<?xml version="1.0" encoding="UTF-8"?>
<svg version="1.1" xmlns="http://www.w3.org/2000/svg" width="512" height="512">
<path d="M0 0 C1.32257813 -0.04350586 1.32257813 -0.04350586 2.671875 -0.08789062 C8.76829114 -0.14685894 12.26240693 0.76288831 17.25 4.3125 C21.83280938 9.25711012 22.39686083 13.08007694 22.34765625 19.60546875 C22.3462413 20.31149734 22.34482635 21.01752594 22.34336853 21.74494934 C22.33777764 23.99667626 22.32522688 26.24830321 22.3125 28.5 C22.30748382 30.02799335 22.30292112 31.55598827 22.29882812 33.08398438 C22.2878112 36.82686135 22.27055287 40.56966373 22.25 44.3125 C38.88626124 45.37932961 55.5196631 46.06086894 72.1875 46.375 C73.39995644 46.39792492 74.61241287 46.42084984 75.86161041 46.44446945 C113.72368233 47.91231513 113.72368233 47.91231513 146.32792664 31.47618103 C154.48236082 23.38548746 161.41663101 14.11121862 167.03927612 4.10279846 C168.6701931 1.6911601 170.44752657 0.52092319 173.26183128 -0.21002483 C175.83175993 -0.4221516 177.75395897 -0.3734443 180.25 0.3125 C183.22188223 2.98790448 185.18636435 6.28478271 187.35791016 9.61987305 C198.94234477 25.48768579 212.42045277 42.00579273 232.73718262 45.65435791 C243.67930893 47.32118798 254.72461648 47.53842517 265.7734375 47.51953125 C267.21135005 47.51779663 267.21135005 47.51779663 268.67831135 47.51602697 C280.614957 47.46871815 292.52848251 47.05862349 304.45169663 46.51577556 C317.74737106 45.9184149 331.05125379 45.67576521 344.3568821 45.40829754 C346.32659948 45.36807999 348.29631275 45.32766031 350.26602173 45.28703308 C351.22716656 45.26747313 352.1883114 45.24791317 353.17858183 45.22776049 C358.86271701 45.10501738 364.54154258 44.92584933 370.22223735 44.69346106 C373.72914911 44.55184231 377.23663851 44.43181389 380.74442291 44.31406784 C382.36827001 44.25334408 383.99175322 44.18177729 385.61460495 44.09859657 C387.8284887 43.98568118 390.04077875 43.90995115 392.25643921 43.84236145 C393.49386557 43.78835584 394.73129192 43.73435022 396.00621605 43.67870808 C399.25 44.3125 399.25 44.3125 402.0973177 47.09051037 C403.81133746 49.65593951 404.95980013 51.4041947 405.68647766 54.33447266 C405.87846237 55.07449524 406.07044708 55.81451782 406.26824951 56.57696533 C406.45598938 57.3688324 406.64372925 58.16069946 406.8371582 58.9765625 C407.05246689 59.82611511 407.26777557 60.67566772 407.48960876 61.55096436 C408.19273483 64.34273934 408.87211347 67.13968785 409.55078125 69.9375 C410.03564304 71.8878406 410.52176167 73.83786915 411.00907898 75.78759766 C412.02508028 79.86703452 413.03010576 83.94896101 414.02661133 88.03320312 C415.30281899 93.2626511 416.59956932 98.48672005 417.90372944 103.70925903 C418.90731158 107.7329982 419.90330759 111.7585824 420.89668846 115.78485107 C421.37238386 117.71171492 421.84964647 119.63819257 422.32851601 121.56427002 C422.99615115 124.25728757 423.65435018 126.95243541 424.30981445 129.6484375 C424.50767548 130.44030457 424.7055365 131.23217163 424.90939331 132.04803467 C426.0841212 136.93502505 426.96719267 141.52341738 425.6875 146.5 C423.27885418 149.5369882 420.95030274 150.19119614 417.25 151.3125 C413.29 151.3125 409.33 151.3125 405.25 151.3125 C405.25 247.0125 405.25 342.7125 405.25 441.3125 C408.22 441.3125 411.19 441.3125 414.25 441.3125 C417.53175318 443.84218474 418.94243777 445.38981331 420.25 449.3125 C420.34225887 451.34219508 420.38166657 453.37447896 420.390625 455.40625 C420.41962891 457.19869141 420.41962891 457.19869141 420.44921875 459.02734375 C420.48307075 461.55062003 420.50130202 464.07415425 420.50390625 466.59765625 C420.52839844 467.79261719 420.55289062 468.98757813 420.578125 470.21875 C420.5874707 471.31509766 420.59681641 472.41144531 420.60644531 473.54101562 C420.97896801 476.518795 420.97896801 476.518795 423.66699219 478.06835938 C424.51938477 478.47892578 425.37177734 478.88949219 426.25 479.3125 C429.95313469 483.01563469 428.66333781 489.12342599 428.6875 494.125 C428.72037109 495.31416016 428.75324219 496.50332031 428.78710938 497.72851562 C428.79774414 499.45038086 428.79774414 499.45038086 428.80859375 501.20703125 C428.82204834 502.25737549 428.83550293 503.30771973 428.84936523 504.38989258 C428.01604604 508.45329954 426.49256844 509.75686548 423.25 512.3125 C420.24483347 512.80374604 417.80943155 512.98612153 414.80880737 512.9417057 C413.95697254 512.94897291 413.10513772 512.95624011 412.22748971 512.96372753 C409.35938549 512.98204482 406.49260725 512.96459102 403.62451172 512.94741821 C401.55310314 512.95317673 399.48169967 512.96111603 397.41030693 512.97105443 C391.70752842 512.9919878 386.00516658 512.98158297 380.30238628 512.96612334 C374.156416 512.95484034 368.01051888 512.97225738 361.86456299 512.98602295 C350.51699768 513.00700452 339.16960281 513.00513958 327.82204169 512.99146561 C317.33965982 512.97889595 306.85732682 512.97560051 296.37493896 512.98157883 C295.33262382 512.98215172 295.33262382 512.98215172 294.26925181 512.98273618 C291.44863701 512.98429283 288.62802224 512.98588482 285.80740749 512.987535 C259.33897778 513.00283567 232.87063301 512.98895374 206.4022164 512.96205051 C182.87812481 512.93832183 159.35416854 512.94044494 135.83007812 512.96435547 C109.41057572 512.99111911 82.99114837 513.00175062 56.57163429 512.98629415 C53.75610989 512.98469052 50.94058547 512.98312633 48.12506104 512.98157883 C47.08515315 512.98098575 47.08515315 512.98098575 46.02423702 512.98038069 C35.54752986 512.97468937 25.0708769 512.98135202 14.59417725 512.99397659 C2.68363137 513.00825726 -9.22675464 513.00424982 -21.13729429 512.97757287 C-27.21789087 512.96440397 -33.29821233 512.9593348 -39.37880707 512.97581863 C-44.94020009 512.9906673 -50.5010618 512.98261383 -56.0624063 512.95593087 C-58.07915079 512.95032432 -60.09593975 512.95323467 -62.11265588 512.96530981 C-64.84535277 512.9804226 -67.57620813 512.96501815 -70.30880737 512.9417057 C-71.09962448 512.95341153 -71.89044158 512.96511737 -72.70522285 512.97717792 C-76.71900858 512.90830771 -78.5478541 512.47206151 -81.73813057 509.95385396 C-84.14144661 506.79857547 -84.38165235 505.20701523 -84.37890625 501.27734375 C-84.38083984 500.13845703 -84.38277344 498.99957031 -84.38476562 497.82617188 C-84.36091797 496.64603516 -84.33707031 495.46589844 -84.3125 494.25 C-84.32345703 493.06599609 -84.33441406 491.88199219 -84.34570312 490.66210938 C-84.27177932 481.96374181 -84.27177932 481.96374181 -81.90209961 479.00610352 C-79.75 477.3125 -79.75 477.3125 -76.75 476.3125 C-76.73541748 475.52601074 -76.72083496 474.73952148 -76.70581055 473.92919922 C-76.63110637 470.34815042 -76.53451793 466.76801089 -76.4375 463.1875 C-76.40366211 461.33125 -76.40366211 461.33125 -76.36914062 459.4375 C-76.3159668 457.63925781 -76.3159668 457.63925781 -76.26171875 455.8046875 C-76.23553467 454.70495605 -76.20935059 453.60522461 -76.18237305 452.47216797 C-75.68725971 448.85401051 -74.64411597 446.42364345 -72.75 443.3125 C-69.75 441.3125 -69.75 441.3125 -54.75 441.3125 C-54.75 345.6125 -54.75 249.9125 -54.75 151.3125 C-60.69 151.3125 -66.63 151.3125 -72.75 151.3125 C-79.75 148.3125 -79.75 148.3125 -81.19329834 146.37835693 C-83.73463955 136.94772698 -78.52264718 124.37874229 -76.234375 115.171875 C-75.77682371 113.31727332 -75.31940819 111.46263815 -74.86212158 109.60797119 C-73.90557507 105.73702543 -72.94304457 101.86762174 -71.97705078 97.99902344 C-70.74275056 93.05122158 -69.53027497 88.09834732 -68.32302475 83.14388657 C-67.38708289 79.31830388 -66.43625034 75.49653674 -65.48126984 71.67566681 C-65.02779358 69.85101948 -64.57969864 68.02502567 -64.1371994 66.19768524 C-63.5168947 63.6429068 -62.87582255 61.09419829 -62.22949219 58.54589844 C-62.0526741 57.79771851 -61.87585602 57.04953857 -61.69367981 56.27868652 C-60.3672743 51.17637651 -58.5262761 48.03558405 -54.75 44.3125 C-51.24487305 43.63134766 -51.24487305 43.63134766 -47.26171875 43.7265625 C-46.55852005 43.73505219 -45.85532135 43.74354187 -45.1308136 43.75228882 C-42.89810955 43.78571676 -40.66910021 43.86095498 -38.4375 43.9375 C-36.9186722 43.96761427 -35.39978741 43.99498755 -33.88085938 44.01953125 C-30.16938466 44.08546637 -26.46005327 44.1889055 -22.75 44.3125 C-22.76571045 43.51142822 -22.7814209 42.71035645 -22.79760742 41.88500977 C-22.86041148 38.21507986 -22.89913488 34.54526351 -22.9375 30.875 C-22.96263672 29.61494141 -22.98777344 28.35488281 -23.01367188 27.05664062 C-23.13506164 11.5592137 -23.13506164 11.5592137 -18.03125 5.15625 C-17.4434375 4.7128125 -16.855625 4.269375 -16.25 3.8125 C-15.36828125 3.11640625 -15.36828125 3.11640625 -14.46875 2.40625 C-9.99923174 -0.43798889 -5.10190704 0.05497745 0 0 Z " fill="#F2D45B" transform="translate(83.75,-0.3125)"/>
<path d="M0 0 C0.81913641 -0.00380567 1.63827283 -0.00761134 2.48223156 -0.01153234 C5.25076564 -0.02190951 8.01909702 -0.01793073 10.78764534 -0.01409245 C12.78307647 -0.01854152 14.77850583 -0.02385447 16.77393258 -0.02996117 C22.2758767 -0.0441911 27.77776447 -0.04580352 33.27972436 -0.04536426 C39.20621497 -0.04700807 45.13268206 -0.0600663 51.05916023 -0.07155704 C63.35078296 -0.09324801 75.64239451 -0.10181668 87.93403293 -0.10659205 C88.6023448 -0.10685322 89.27065667 -0.1071144 89.95922041 -0.10738349 C90.96365961 -0.1077739 90.96365961 -0.1077739 91.98839051 -0.1081722 C99.4029444 -0.11125226 106.81749471 -0.11775618 114.23204613 -0.12438488 C136.6182424 -0.14403434 159.0044348 -0.16043803 181.39064026 -0.16326141 C182.10692048 -0.16335547 182.82320071 -0.16344954 183.5611864 -0.16354645 C186.46406893 -0.16392494 189.36695146 -0.16428893 192.26983399 -0.16464943 C194.45481774 -0.16492115 196.63980148 -0.16519783 198.82478523 -0.16547489 C199.54678664 -0.16556291 200.26878805 -0.16565094 201.01266829 -0.16574163 C223.70398515 -0.16864778 246.39521687 -0.19074893 269.08650398 -0.22699833 C294.56622187 -0.267701 320.04588174 -0.2914198 345.52563393 -0.29172093 C348.24120721 -0.29181775 350.95678047 -0.29198448 353.67235374 -0.29220104 C354.34102196 -0.29224516 355.00969018 -0.29228927 355.69862107 -0.29233472 C365.80385951 -0.29338633 375.909021 -0.30803206 386.01423454 -0.32971859 C397.50394235 -0.35416812 408.99350061 -0.36155888 420.48322736 -0.34647106 C426.34914892 -0.33927605 432.21477481 -0.34027091 438.08066368 -0.36288166 C443.44597552 -0.38336542 448.81076236 -0.38097096 454.17606784 -0.36000682 C456.12154939 -0.35649154 458.067068 -0.36150727 460.01250087 -0.37571125 C462.6490952 -0.39372751 465.28381379 -0.38118893 467.92034912 -0.36076355 C469.064115 -0.37960861 469.064115 -0.37960861 470.23098725 -0.39883438 C474.17317386 -0.33306659 475.91296166 0.12202885 479.03386986 2.61136383 C482.11068612 6.58260121 482.20510303 9.4690692 482.2266407 14.35381222 C482.25564461 16.14625362 482.25564461 16.14625362 482.28523445 17.97490597 C482.31908645 20.49818224 482.33731772 23.02171647 482.33992195 25.54521847 C482.36441414 26.74017941 482.38890633 27.93514034 482.4141407 29.16631222 C482.4234864 30.26265987 482.43283211 31.35900753 482.44246101 32.48857784 C482.81498372 35.46635722 482.81498372 35.46635722 485.50300789 37.01592159 C486.35540047 37.426488 487.20779305 37.83705441 488.0860157 38.26006222 C491.78915039 41.9631969 490.49935351 48.0709882 490.5235157 53.07256222 C490.5563868 54.26172237 490.58925789 55.45088253 490.62312508 56.67607784 C490.63021492 57.823988 490.63730476 58.97189816 490.64460945 60.15459347 C490.65806404 61.20493771 490.67151863 62.25528194 490.68538094 63.3374548 C489.85206174 67.40086176 488.32858414 68.7044277 485.0860157 71.26006222 C482.08084917 71.75130826 479.64544726 71.93368375 476.64482307 71.88926792 C475.79298825 71.89653513 474.94115342 71.90380233 474.06350541 71.91128975 C471.19540119 71.92960704 468.32862295 71.91215324 465.46052742 71.89498043 C463.38911884 71.90073895 461.31771537 71.90867825 459.24632263 71.91861665 C453.54354412 71.93955001 447.84118228 71.92914518 442.13840199 71.91368556 C435.9924317 71.90240256 429.84653458 71.9198196 423.70057869 71.93358517 C412.35301338 71.95456674 401.00561851 71.9527018 389.65805739 71.93902783 C379.17567552 71.92645817 368.69334252 71.92316273 358.21095467 71.92914104 C357.16863952 71.92971393 357.16863952 71.92971393 356.10526751 71.93029839 C353.28465271 71.93185504 350.46403794 71.93344704 347.64342319 71.93509721 C321.17499348 71.95039788 294.70664871 71.93651595 268.23823211 71.90961273 C244.71414051 71.88588404 221.19018424 71.88800715 197.66609383 71.91191769 C171.24659142 71.93868133 144.82716407 71.94931284 118.40764999 71.93385637 C115.59212559 71.93225274 112.77660117 71.93068854 109.96107674 71.92914104 C108.92116885 71.92854796 108.92116885 71.92854796 107.86025272 71.9279429 C97.38354556 71.92225159 86.9068926 71.92891424 76.43019295 71.94153881 C64.51964707 71.95581948 52.60926106 71.95181204 40.69872141 71.92513509 C34.61812483 71.91196619 28.53780337 71.90689701 22.45720863 71.92338085 C16.89581561 71.93822952 11.3349539 71.93017605 5.7736094 71.90349309 C3.75686491 71.89788654 1.74007596 71.90079688 -0.27664018 71.91287203 C-3.00933707 71.92798482 -5.74019243 71.91258037 -8.47279167 71.88926792 C-9.26360878 71.90097375 -10.05442588 71.91267958 -10.86920714 71.92474014 C-14.88299288 71.85586993 -16.71183839 71.41962373 -19.90211487 68.90141618 C-22.30543091 65.74613768 -22.54563665 64.15457745 -22.54289055 60.22490597 C-22.54482414 59.08601925 -22.54675774 57.94713253 -22.54874992 56.77373409 C-22.52490227 55.59359737 -22.50105461 54.41346066 -22.4764843 53.19756222 C-22.48744133 52.01355831 -22.49839836 50.82955441 -22.50968742 49.60967159 C-22.43576362 40.91130403 -22.43576362 40.91130403 -20.06608391 37.95366573 C-17.9139843 36.26006222 -17.9139843 36.26006222 -14.9139843 35.26006222 C-14.89940178 34.47357296 -14.88481926 33.6870837 -14.86979485 32.87676144 C-14.79509067 29.29571264 -14.69850223 25.71557311 -14.6014843 22.13506222 C-14.56764641 20.27881222 -14.56764641 20.27881222 -14.53312492 18.38506222 C-14.4976757 17.18623409 -14.46222649 15.98740597 -14.42570305 14.75224972 C-14.39951897 13.65251827 -14.37333488 12.55278683 -14.34635735 11.41973019 C-13.85124401 7.80157273 -12.80810027 5.37120567 -10.9139843 2.26006222 C-7.18510364 -0.22585822 -4.31551298 -0.02151471 0 0 Z " fill="#A5A5A4" transform="translate(21.913984298706055,440.7399377822876)"/>
<path d="M0 0 C0.81913641 -0.00380567 1.63827283 -0.00761134 2.48223156 -0.01153234 C5.25076564 -0.02190951 8.01909702 -0.01793073 10.78764534 -0.01409245 C12.78307647 -0.01854152 14.77850583 -0.02385447 16.77393258 -0.02996117 C22.2758767 -0.0441911 27.77776447 -0.04580352 33.27972436 -0.04536426 C39.20621497 -0.04700807 45.13268206 -0.0600663 51.05916023 -0.07155704 C63.35078296 -0.09324801 75.64239451 -0.10181668 87.93403293 -0.10659205 C88.6023448 -0.10685322 89.27065667 -0.1071144 89.95922041 -0.10738349 C90.96365961 -0.1077739 90.96365961 -0.1077739 91.98839051 -0.1081722 C99.4029444 -0.11125226 106.81749471 -0.11775618 114.23204613 -0.12438488 C136.6182424 -0.14403434 159.0044348 -0.16043803 181.39064026 -0.16326141 C182.10692048 -0.16335547 182.82320071 -0.16344954 183.5611864 -0.16354645 C186.46406893 -0.16392494 189.36695146 -0.16428893 192.26983399 -0.16464943 C194.45481774 -0.16492115 196.63980148 -0.16519783 198.82478523 -0.16547489 C199.54678664 -0.16556291 200.26878805 -0.16565094 201.01266829 -0.16574163 C223.70398515 -0.16864778 246.39521687 -0.19074893 269.08650398 -0.22699833 C294.56622187 -0.267701 320.04588174 -0.2914198 345.52563393 -0.29172093 C348.24120721 -0.29181775 350.95678047 -0.29198448 353.67235374 -0.29220104 C354.34102196 -0.29224516 355.00969018 -0.29228927 355.69862107 -0.29233472 C365.80385951 -0.29338633 375.909021 -0.30803206 386.01423454 -0.32971859 C397.50394235 -0.35416812 408.99350061 -0.36155888 420.48322736 -0.34647106 C426.34914892 -0.33927605 432.21477481 -0.34027091 438.08066368 -0.36288166 C443.44597552 -0.38336542 448.81076236 -0.38097096 454.17606784 -0.36000682 C456.12154939 -0.35649154 458.067068 -0.36150727 460.01250087 -0.37571125 C462.6490952 -0.39372751 465.28381379 -0.38118893 467.92034912 -0.36076355 C469.064115 -0.37960861 469.064115 -0.37960861 470.23098725 -0.39883438 C474.17317386 -0.33306659 475.91296166 0.12202885 479.03386986 2.61136383 C482.19029687 6.68535457 482.20636635 9.66256967 482.18367195 14.67803097 C482.1804493 15.93164425 482.17722664 17.18525753 482.17390633 18.47685909 C482.16552742 19.78719112 482.15714851 21.09752316 482.1485157 22.44756222 C482.14349888 23.78284703 482.13893629 25.11813363 482.13484383 26.45342159 C482.12304265 29.72234695 482.10657867 32.99118213 482.0860157 36.26006222 C434.90835845 36.27717194 387.73070095 36.29309367 340.55304146 36.30240536 C339.50651842 36.30261244 339.50651842 36.30261244 338.4388535 36.30282371 C323.27818812 36.30581627 308.1175227 36.3085865 292.95685724 36.31112755 C285.52261513 36.31237494 278.08837303 36.31367149 270.65413094 36.31499386 C269.54440637 36.31519 269.54440637 36.31519 268.41226314 36.3153901 C244.41085599 36.31965529 220.40945119 36.32716946 196.40804546 36.33635944 C171.75388413 36.34578226 147.0997241 36.35194539 122.445561 36.35397721 C118.96736944 36.35426538 115.48917788 36.35459102 112.01098633 36.35493946 C111.32639426 36.35500688 110.6418022 36.35507431 109.93646492 36.35514377 C98.89396227 36.35632782 87.85146362 36.36097212 76.8089626 36.36689425 C65.72113144 36.37276743 54.63330333 36.37495249 43.54547042 36.3735636 C37.53232569 36.37291988 31.51919277 36.37394149 25.50605011 36.37926769 C20.01085229 36.38409989 14.51567432 36.38440206 9.02047562 36.38096111 C7.02316242 36.38053524 5.02584804 36.38183248 3.02853722 36.3849454 C0.33222052 36.38890638 -2.36402267 36.38682749 -5.06033802 36.38311005 C-5.851862 36.38573706 -6.64338598 36.38836407 -7.45889553 36.39107069 C-12.7998385 36.37420802 -12.7998385 36.37420802 -13.9139843 35.26006222 C-14.19723166 30.87101563 -14.14587998 26.46964814 -14.1639843 22.07256222 C-14.1846093 20.83957394 -14.2052343 19.60658566 -14.2264843 18.33623409 C-14.23164055 17.14191769 -14.2367968 15.94760128 -14.2421093 14.71709347 C-14.251455 13.62372677 -14.2608007 12.53036007 -14.27042961 11.40386105 C-13.85628786 7.75118753 -12.8281069 5.38494866 -10.9139843 2.26006222 C-7.18510364 -0.22585822 -4.31551298 -0.02151471 0 0 Z " fill="#D0D3CF" transform="translate(21.913984298706055,440.7399377822876)"/>
<path d="M0 0 C1.32257813 -0.04350586 1.32257813 -0.04350586 2.671875 -0.08789062 C8.76829114 -0.14685894 12.26240693 0.76288831 17.25 4.3125 C27.77883667 15.67256062 22.25 26.27877412 22.25 44.3125 C56.9 44.3125 91.55 44.3125 127.25 44.3125 C120.49920481 52.18842772 120.49920481 52.18842772 116.92431641 55.77862549 C116.11698059 56.59167145 115.30964478 57.40471741 114.47784424 58.24240112 C113.61117126 59.11019196 112.74449829 59.97798279 111.8515625 60.87207031 C110.92398132 61.80461639 109.99640015 62.73716248 109.04071045 63.69796753 C106.51432492 66.23737028 103.98470197 68.77352245 101.4540329 71.30865574 C99.87054102 72.89509227 98.2876321 74.48210825 96.70489502 76.06929779 C91.74478823 81.04304372 86.7827096 86.01480968 81.8177166 90.9836781 C76.0996242 96.70625974 70.38814816 102.43533878 64.6822834 108.17011189 C60.25938434 112.61463597 55.83072897 117.05337025 51.39767265 121.48776317 C48.75474405 124.13173806 46.11428455 126.77806966 43.47979736 129.43045807 C40.54430697 132.38551119 37.59697297 135.32847086 34.6484375 138.27050781 C33.78176453 139.14639557 32.91509155 140.02228333 32.02215576 140.92471313 C24.98191792 147.91638611 20.14336936 150.75323754 10.23461914 150.79248047 C9.34765854 150.807491 8.46069794 150.82250153 7.54685974 150.83796692 C4.62628125 150.88330556 1.70599382 150.90723943 -1.21484375 150.9296875 C-3.2521719 150.95416948 -5.28948999 150.97950162 -7.32679749 151.00564575 C-11.59274569 151.05697395 -15.85862941 151.09763694 -20.12475586 151.13085938 C-25.58356071 151.17427441 -31.04162241 151.2446824 -36.50002193 151.32317924 C-40.70617479 151.38058363 -44.91238048 151.42334866 -49.1187458 151.46176529 C-51.1309677 151.48194471 -53.1431492 151.50670605 -55.15525627 151.53619003 C-57.9720127 151.57531855 -60.7882468 151.59463368 -63.60522461 151.60888672 C-64.43089935 151.62431015 -65.2565741 151.63973358 -66.10726929 151.65562439 C-71.38846086 151.65531559 -75.11987302 150.93803797 -79.75 148.3125 C-82.39069441 144.77374392 -81.84724042 141.77056659 -81.32043457 137.57922363 C-80.00197214 130.02874791 -78.08223466 122.60674172 -76.234375 115.171875 C-75.77682371 113.31727332 -75.31940819 111.46263815 -74.86212158 109.60797119 C-73.90557507 105.73702543 -72.94304457 101.86762174 -71.97705078 97.99902344 C-70.74275056 93.05122158 -69.53027497 88.09834732 -68.32302475 83.14388657 C-67.38708289 79.31830388 -66.43625034 75.49653674 -65.48126984 71.67566681 C-65.02779358 69.85101948 -64.57969864 68.02502567 -64.1371994 66.19768524 C-63.5168947 63.6429068 -62.87582255 61.09419829 -62.22949219 58.54589844 C-62.0526741 57.79771851 -61.87585602 57.04953857 -61.69367981 56.27868652 C-60.3672743 51.17637651 -58.5262761 48.03558405 -54.75 44.3125 C-51.24487305 43.63134766 -51.24487305 43.63134766 -47.26171875 43.7265625 C-46.55852005 43.73505219 -45.85532135 43.74354187 -45.1308136 43.75228882 C-42.89810955 43.78571676 -40.66910021 43.86095498 -38.4375 43.9375 C-36.9186722 43.96761427 -35.39978741 43.99498755 -33.88085938 44.01953125 C-30.16938466 44.08546637 -26.46005327 44.1889055 -22.75 44.3125 C-22.76571045 43.51142822 -22.7814209 42.71035645 -22.79760742 41.88500977 C-22.86041148 38.21507986 -22.89913488 34.54526351 -22.9375 30.875 C-22.96263672 29.61494141 -22.98777344 28.35488281 -23.01367188 27.05664062 C-23.13506164 11.5592137 -23.13506164 11.5592137 -18.03125 5.15625 C-17.4434375 4.7128125 -16.855625 4.269375 -16.25 3.8125 C-15.36828125 3.11640625 -15.36828125 3.11640625 -14.46875 2.40625 C-9.99923174 -0.43798889 -5.10190704 0.05497745 0 0 Z " fill="#3F5C6C" transform="translate(83.75,-0.3125)"/>
<path d="M0 0 C22.86110637 -0.14010697 45.72214204 -0.24594015 68.58359051 -0.31087303 C79.19836966 -0.34182273 89.8128822 -0.38402463 100.42749023 -0.45263672 C109.67824775 -0.51240451 118.92881219 -0.55114104 128.17975742 -0.56453097 C133.07903713 -0.57235918 137.97776447 -0.59078028 142.87686729 -0.63438034 C147.48738663 -0.67508002 152.09712563 -0.68767448 156.70780754 -0.67864609 C158.40054819 -0.68029793 160.0933147 -0.69224907 161.78590012 -0.71523285 C164.09725546 -0.74508168 166.40566357 -0.73791714 168.71708679 -0.7215271 C170.65700013 -0.72982324 170.65700013 -0.72982324 172.63610363 -0.73828697 C177.37066856 0.30082578 178.33933856 2.00354694 181 6 C181.9588213 8.09585571 181.9588213 8.09585571 182.43647766 10.02197266 C182.62846237 10.76199524 182.82044708 11.50201782 183.01824951 12.26446533 C183.20598938 13.0563324 183.39372925 13.84819946 183.5871582 14.6640625 C183.80246689 15.51361511 184.01777557 16.36316772 184.23960876 17.23846436 C184.94273483 20.03023934 185.62211347 22.82718785 186.30078125 25.625 C186.78564304 27.5753406 187.27176167 29.52536915 187.75907898 31.47509766 C188.77508028 35.55453452 189.78010576 39.63646101 190.77661133 43.72070312 C192.05281899 48.9501511 193.34956932 54.17422005 194.65372944 59.39675903 C195.65731158 63.4204982 196.65330759 67.4460824 197.64668846 71.47235107 C198.12238386 73.39921492 198.59964647 75.32569257 199.07851601 77.25177002 C199.74615115 79.94478757 200.40435018 82.63993541 201.05981445 85.3359375 C201.35660599 86.5237381 201.35660599 86.5237381 201.65939331 87.73553467 C202.8341212 92.62252505 203.71719267 97.21091738 202.4375 102.1875 C199.90149083 105.38507679 195.97638453 106.73082429 192.01169205 107.27079964 C189.81987455 107.3691903 187.64742834 107.37471414 185.45361328 107.34399414 C184.21555435 107.34447754 184.21555435 107.34447754 182.95248413 107.3449707 C180.24141889 107.34120682 177.53121301 107.3145518 174.8203125 107.28515625 C172.9237398 107.27233476 171.0271637 107.26000846 169.13058472 107.24815369 C165.16125358 107.21920829 161.19227534 107.17773689 157.22314453 107.12866211 C152.15378831 107.06790867 147.08519734 107.04826973 142.0155201 107.03937626 C138.09970795 107.02620232 134.1845079 106.98596725 130.26897812 106.93826103 C128.4008773 106.91966727 126.53265625 106.91052245 124.66446304 106.91127205 C122.04351202 106.90926489 119.42561851 106.86939643 116.80517578 106.82055664 C116.04436707 106.82806442 115.28355835 106.8355722 114.49969482 106.8433075 C103.47016658 106.52425195 96.16811557 97.59962841 88.89038086 90.24682617 C87.91433201 89.27156997 86.93762824 88.29696886 85.96032715 87.32296753 C83.33220428 84.69993588 80.71342715 82.06775768 78.09647441 79.43358779 C75.35097694 76.67296583 72.59728771 73.92053724 69.84461975 71.16706848 C65.23259655 66.55136575 60.62622608 61.93008528 56.02368164 57.30493164 C50.10889431 51.36114898 44.18475983 45.42677336 38.25768185 39.49524975 C33.16049232 34.39408899 28.06757005 29.28867408 22.97534108 24.18256211 C21.33708282 22.5402009 19.69823496 20.89842974 18.05930901 19.25673485 C15.49342994 16.68597862 12.93021881 14.11259117 10.36910248 11.5370903 C8.9752835 10.13656176 7.57901486 8.73847251 6.18269348 7.34043884 C5.36269867 6.51473389 4.54270386 5.68902893 3.69786072 4.83830261 C2.97949004 4.11695727 2.26111937 3.39561193 1.52097988 2.65240765 C0 1 0 1 0 0 Z " fill="#3F5C6B" transform="translate(307,44)"/>
<path d="M0 0 C2.86841258 1.81725518 5.44174121 3.77431485 8 6 C8.86625 6.61875 9.7325 7.2375 10.625 7.875 C20.32983877 16.55827679 26.22679592 29.28662372 27.25 42.140625 C27.81135009 57.78825869 23.18660735 70.76757788 13.25 82.6875 C3.15351686 93.48883197 -8.82262537 99.04074494 -23.53149414 99.59204102 C-40.19461528 99.77323484 -51.87118548 95.42542462 -64.25 83.90625 C-69.60428314 78.30859036 -72.98637799 72.09750231 -76 65 C-76.34160156 64.21109375 -76.68320313 63.4221875 -77.03515625 62.609375 C-81.37868793 50.73032091 -80.06590286 36.39087515 -75 25 C-72.90344623 21.13975763 -70.57353626 17.5570158 -68 14 C-67.2575 12.948125 -66.515 11.89625 -65.75 10.8125 C-59.2835142 4.19904862 -51.69001433 -0.83714794 -43 -4 C-42.13890625 -4.35320312 -41.2778125 -4.70640625 -40.390625 -5.0703125 C-26.85973793 -8.78039444 -12.12151468 -6.76835845 0 0 Z " fill="#FEFEFD" transform="translate(282,77)"/>
<path d="M0 0 C23.1 0 46.2 0 70 0 C70 29.04 70 58.08 70 88 C46.9 88 23.8 88 0 88 C0 58.96 0 29.92 0 0 Z " fill="#CAB191" transform="translate(221,353)"/>
<path d="M0 0 C1.31282959 -0.00478363 2.62565918 -0.00956726 3.97827148 -0.01449585 C6.75241627 -0.02185236 9.52575402 -0.01120336 12.29980469 0.01220703 C15.84779598 0.04069678 19.39389627 0.02428586 22.94181824 -0.00565529 C26.33636196 -0.02811455 29.73040261 -0.01236908 33.125 0 C34.39593506 -0.01012115 35.66687012 -0.02024231 36.97631836 -0.03067017 C45.67921341 0.08510704 45.67921341 0.08510704 49.8581543 2.82421875 C51.81530012 6.0852874 52.21332794 7.97781013 52.26953125 11.765625 C52.31352051 13.56580078 52.31352051 13.56580078 52.35839844 15.40234375 C52.36387695 16.68496094 52.36935547 17.96757812 52.375 19.2890625 C52.39572611 20.62372598 52.41820986 21.95836324 52.44238281 23.29296875 C52.48722714 26.04465631 52.51586833 28.79584776 52.53173828 31.54785156 C52.55568896 35.51198079 52.63330726 39.47411761 52.71484375 43.4375 C52.74975651 45.84632111 52.7824097 48.25517632 52.8125 50.6640625 C52.83417236 51.78377441 52.85584473 52.90348633 52.87817383 54.05712891 C52.91767727 64.11269159 52.91767727 64.11269159 49.5625 68.6640625 C45.920566 71.2870987 43.39595959 72.0412507 38.93359375 72.05224609 C37.82894775 72.06170258 36.72430176 72.07115906 35.58618164 72.0809021 C34.4027417 72.07482941 33.21930176 72.06875671 32 72.0625 C30.77595459 72.06537018 29.55190918 72.06824036 28.29077148 72.07119751 C25.70523617 72.07323716 23.1196854 72.06771429 20.53417969 72.05517578 C16.57712288 72.03912183 12.62108754 72.055029 8.6640625 72.07421875 C6.15103941 72.0722363 3.63801696 72.0683926 1.125 72.0625 C-0.05843994 72.06857269 -1.24187988 72.07464539 -2.46118164 72.0809021 C-3.56582764 72.07144562 -4.67047363 72.06198914 -5.80859375 72.05224609 C-6.77724365 72.04985931 -7.74589355 72.04747253 -8.74389648 72.04501343 C-11.95212403 71.59128026 -13.82165073 70.54807998 -16.4375 68.6640625 C-20.47325741 63.18946984 -19.81333172 57.16521234 -19.6875 50.6640625 C-19.67291748 49.49665527 -19.65833496 48.32924805 -19.64331055 47.12646484 C-19.60702493 44.62292271 -19.56272898 42.11948635 -19.51123047 39.61621094 C-19.44811186 36.23288639 -19.41425756 32.85176798 -19.39474487 29.46807861 C-19.37392786 26.73764004 -19.33033174 24.00788823 -19.28088379 21.27783203 C-19.25047279 19.31950809 -19.24176407 17.36088594 -19.23339844 15.40234375 C-19.20407227 14.20222656 -19.17474609 13.00210938 -19.14453125 11.765625 C-19.1288208 10.70682129 -19.11311035 9.64801758 -19.09692383 8.55712891 C-16.8542457 -1.28209204 -8.2630936 -0.06580356 0 0 Z " fill="#49525E" transform="translate(239.4375,211.3359375)"/>
<path d="M0 0 C1.0533252 0.02292366 1.0533252 0.02292366 2.12792969 0.04631042 C2.86366211 0.04294174 3.59939453 0.03957306 4.35742188 0.03610229 C5.90729794 0.03640025 7.45723433 0.05156642 9.00683594 0.08073425 C11.37195602 0.12042892 13.73146678 0.10143377 16.09667969 0.0756073 C17.60711798 0.0831671 19.1175439 0.09412129 20.62792969 0.10881042 C21.33014648 0.10182632 22.03236328 0.09484222 22.75585938 0.08764648 C26.60519018 0.1976949 28.26768397 0.71912698 31.29980469 3.16423035 C34.57791879 7.33466005 34.51093184 10.49512632 34.5390625 15.6627655 C34.54650986 16.70235161 34.54650986 16.70235161 34.55410767 17.76293945 C34.56870985 20.05532323 34.57552838 22.34763778 34.58105469 24.64006042 C34.5868082 26.23565675 34.59256591 27.83125307 34.59832764 29.42684937 C34.60883241 32.773395 34.61467835 36.11991664 34.61816406 39.46647644 C34.62364456 43.74704868 34.64766509 48.02730217 34.67613602 52.30777454 C34.69479459 55.6046846 34.69996973 58.9015184 34.70149994 62.19847679 C34.70452026 63.77608163 34.71252782 65.35368532 34.72568512 66.93123817 C34.74281184 69.14277242 34.74084957 71.35353492 34.734375 73.56510925 C34.73984344 75.45015923 34.73984344 75.45015923 34.74542236 77.37329102 C34.33789049 81.18225199 33.39677109 83.56823012 31.37792969 86.80802917 C27.7411516 89.2325479 24.99651372 89.13087909 20.78808594 89.14396667 C20.04715195 89.15062347 19.30621796 89.15728027 18.54283142 89.16413879 C16.97690308 89.17425611 15.4109317 89.1789561 13.8449707 89.17863464 C11.45223819 89.18300759 9.06135142 89.21933185 6.66894531 89.25724792 C5.14616515 89.26311644 3.62337624 89.2670856 2.10058594 89.26896667 C1.38693375 89.28333771 0.67328156 89.29770874 -0.06199646 89.31251526 C-3.46647821 89.28128218 -5.29892273 89.05388603 -8.04223633 86.96672058 C-10.95592578 82.98544378 -10.76773946 79.47725303 -10.81494141 74.67790222 C-10.8231189 73.95558411 -10.83129639 73.23326599 -10.83972168 72.48905945 C-10.86452841 70.0992973 -10.88107914 67.70959434 -10.89550781 65.31974792 C-10.90083149 64.50254587 -10.90615517 63.68534382 -10.91164017 62.84337807 C-10.93835072 58.51820947 -10.95773263 54.19306953 -10.97216797 49.86784363 C-10.98550983 46.29141173 -11.01336917 42.71555004 -11.05419922 39.139328 C-11.10353894 34.81751195 -11.12829034 30.49621325 -11.13539505 26.17412758 C-11.14210308 24.52949691 -11.15731367 22.88487758 -11.18128586 21.24040794 C-11.21297514 18.935109 -11.21296982 16.63180008 -11.20556641 14.32633972 C-11.21365326 13.01634506 -11.22174011 11.7063504 -11.23007202 10.35665894 C-10.14003473 3.99460649 -6.81180925 0.16086537 0 0 Z " fill="#8797C7" transform="translate(151.6220703125,317.1919708251953)"/>
<path d="M0 0 C1.50438974 -0.01650508 3.00870282 -0.0437234 4.51269531 -0.08203125 C6.68604038 -0.13710114 8.85754313 -0.15872152 11.03149414 -0.17333984 C12.3343335 -0.19315918 13.63717285 -0.21297852 14.97949219 -0.23339844 C19.25604847 0.45921995 21.89059221 2.01121962 24.58227539 5.35009766 C25.18857618 8.18325008 25.39785653 10.17328226 25.34277344 12.99853516 C25.35168106 13.75201233 25.36058868 14.5054895 25.36976624 15.28179932 C25.39101626 17.76378904 25.36876379 20.24317261 25.34399414 22.72509766 C25.34549704 24.4547553 25.34892824 26.18441225 25.35420227 27.9140625 C25.35853133 31.53566435 25.3417148 35.15637504 25.30957031 38.77783203 C25.2697884 43.41532402 25.27909004 48.0511452 25.30380535 52.68869019 C25.31800163 56.25933479 25.30789145 59.82959042 25.29029274 63.40020752 C25.28445095 65.10979279 25.28573347 66.819418 25.29431725 68.5289917 C25.30232736 70.92077795 25.27802475 73.31013257 25.24511719 75.70166016 C25.2536673 76.40518616 25.26221741 77.10871216 25.27102661 77.83355713 C25.1794278 81.69892602 24.66741044 83.24737843 22.16584778 86.265625 C16.93004786 90.48996252 11.32745228 89.5723487 4.88867188 89.59033203 C2.78808628 89.60001326 0.68848965 89.6310245 -1.41186523 89.66259766 C-2.75365631 89.66913052 -4.09545438 89.67437988 -5.43725586 89.67822266 C-6.65517822 89.68756836 -7.87310059 89.69691406 -9.12792969 89.70654297 C-12.72876265 89.31639706 -14.55559814 88.52997491 -17.41772461 86.35009766 C-19.8098 82.76198457 -19.72019256 80.16591132 -19.72412109 76.02050781 C-19.73244461 75.27707626 -19.74076813 74.53364471 -19.74934387 73.76768494 C-19.77345458 71.30812352 -19.7822172 68.84882725 -19.78881836 66.38916016 C-19.79778394 64.67906616 -19.80690577 62.96897298 -19.81617737 61.25888062 C-19.83267285 57.67273044 -19.84036848 54.08667369 -19.84326172 50.50048828 C-19.84864595 45.90794227 -19.88632454 41.31627569 -19.93200588 36.72397804 C-19.96176695 33.19118046 -19.96898506 29.65859488 -19.96998787 26.12568283 C-19.97419215 24.43279365 -19.98663492 22.73990396 -20.00750542 21.04713821 C-20.0344016 18.67692906 -20.02960144 16.30876105 -20.01708984 13.93847656 C-20.03192413 13.24115921 -20.04675842 12.54384186 -20.06204224 11.82539368 C-20.00344107 7.92154071 -19.5109538 6.45978116 -16.94276428 3.43832397 C-15.69286964 2.40465195 -15.69286964 2.40465195 -14.41772461 1.35009766 C-11.70206719 -1.36555976 -3.90676546 0.03140009 0 0 Z " fill="#8697CA" transform="translate(425.417724609375,193.64990234375)"/>
<path d="M0 0 C1.03488808 -0.00717545 1.03488808 -0.00717545 2.09068298 -0.01449585 C3.54037779 -0.01787951 4.9901505 -0.00878451 6.43969727 0.01220703 C8.65098752 0.03904604 10.85722344 0.01239674 13.06835938 -0.01953125 C14.48308404 -0.01622767 15.89780558 -0.00982247 17.3125 0 C18.58875244 0.00563965 19.86500488 0.0112793 21.17993164 0.01708984 C25.41547438 0.82071183 26.8681864 2.40866648 29.58984375 5.6640625 C30.08484375 6.1590625 30.08484375 6.1590625 30.58984375 6.6640625 C30.7113613 9.04058232 30.76841789 11.3885922 30.78271484 13.76660156 C30.79498108 14.88131081 30.79498108 14.88131081 30.80749512 16.01853943 C30.8323978 18.48891382 30.84887919 20.95923048 30.86328125 23.4296875 C30.86860493 24.27203697 30.8739286 25.11438644 30.8794136 25.98226166 C30.9061689 30.44242952 30.9255344 34.90256918 30.93994141 39.36279297 C30.95657732 43.9710438 31.00133881 48.57857776 31.05231285 53.18655777 C31.08597162 56.72791363 31.09751743 60.26909929 31.10316849 63.81060028 C31.10988697 65.50908626 31.12512466 67.2075608 31.1490593 68.90589142 C31.18068053 71.28583534 31.18075294 73.66384647 31.17333984 76.04394531 C31.18974518 76.74440475 31.20615051 77.4448642 31.22305298 78.16654968 C31.17434367 81.99208793 30.67298455 83.56093122 28.24087524 86.57781982 C22.85284605 90.81795672 16.82267166 89.88516606 10.24804688 89.90429688 C8.22874649 89.91399572 6.21046763 89.94503006 4.19140625 89.9765625 C2.27328125 89.98429687 2.27328125 89.98429687 0.31640625 89.9921875 C-0.85325684 90.0015332 -2.02291992 90.01087891 -3.22802734 90.02050781 C-6.76366174 89.62446468 -8.58954785 88.79685476 -11.41015625 86.6640625 C-13.81423184 83.05794912 -13.71930793 80.41149115 -13.73242188 76.24267578 C-13.74235168 75.48949066 -13.75228149 74.73630554 -13.76251221 73.96029663 C-13.79172561 71.46828561 -13.80535337 68.97652913 -13.81640625 66.484375 C-13.82791111 64.7518615 -13.83942656 63.01934808 -13.85095215 61.28683472 C-13.87196322 57.65361342 -13.88365447 54.02048053 -13.890625 50.38720703 C-13.90159717 45.73399053 -13.94965755 41.08194382 -14.00656891 36.42909431 C-14.04383629 32.84997149 -14.05423347 29.27113014 -14.05729675 25.69182968 C-14.06334719 23.97658767 -14.07939618 22.26135047 -14.10566711 20.54629898 C-14.13983018 18.14470938 -14.13602456 15.74597307 -14.12304688 13.34423828 C-14.14147644 12.63757019 -14.15990601 11.9309021 -14.17889404 11.20281982 C-14.13226465 8.44464461 -13.91352775 6.2887051 -12.15108585 4.10165977 C-8.17734703 0.60322689 -5.21071344 0.02300536 0 0 Z " fill="#8697CA" transform="translate(75.41015625,193.3359375)"/>
<path d="M0 0 C1.10359863 -0.01073296 1.10359863 -0.01073296 2.22949219 -0.02168274 C3.7792846 -0.02943951 5.32918681 -0.02449021 6.87890625 -0.00756836 C9.24429122 0.01167231 11.60380536 -0.02775076 13.96875 -0.07226562 C15.47917015 -0.072556 16.98959566 -0.06941566 18.5 -0.0625 C19.2022168 -0.07778244 19.90443359 -0.09306488 20.62792969 -0.10881042 C24.56155983 -0.01591515 26.06852255 0.52519432 28.93515015 3.27409363 C31.70082883 6.8250683 31.8833734 9.75351489 31.89697266 14.26171875 C31.90573425 14.99422852 31.91449585 15.72673828 31.92352295 16.48144531 C31.94541947 18.88798339 31.93100103 21.29266403 31.9140625 23.69921875 C31.91743349 25.3802119 31.92228847 27.06120266 31.92855835 28.7421875 C31.9359164 32.25935144 31.92525925 35.77587899 31.90185547 39.29296875 C31.87336759 43.79242612 31.8897774 48.29039222 31.91971779 52.78979492 C31.9378201 56.25922807 31.93201946 59.72830995 31.91907883 63.19775391 C31.91575288 64.85628437 31.9198033 66.51484713 31.93147659 68.17333984 C31.94423477 70.49532034 31.9247439 72.81491516 31.89697266 75.13671875 C31.89299469 76.45542969 31.88901672 77.77414062 31.88491821 79.1328125 C31.05003374 83.82245147 29.6656794 85.42381641 26.25 88.69921875 C23.3796942 89.30399436 21.35833205 89.52314377 18.5 89.4609375 C17.39640137 89.46599052 17.39640137 89.46599052 16.27050781 89.47114563 C14.72063175 89.47084767 13.17069536 89.45568151 11.62109375 89.42651367 C9.25597366 89.38681901 6.89646291 89.40581415 4.53125 89.43164062 C3.0208117 89.42408082 1.51038579 89.41312663 0 89.3984375 C-1.0533252 89.40891365 -1.0533252 89.40891365 -2.12792969 89.41960144 C-5.72168494 89.31685967 -7.56487734 88.84147603 -10.43515015 86.63581848 C-13.26141786 83.05043821 -13.4600224 80.43339736 -13.39697266 76.05078125 C-13.40573425 75.29730408 -13.41449585 74.5438269 -13.42352295 73.76751709 C-13.44546498 71.28582556 -13.43098439 68.80592723 -13.4140625 66.32421875 C-13.41743217 64.59456034 -13.42228605 62.86490423 -13.42855835 61.13525391 C-13.43592258 57.51376761 -13.42523913 53.89289878 -13.40185547 50.27148438 C-13.37336739 45.6340317 -13.38977385 40.99802583 -13.41971779 36.36062622 C-13.43780326 32.79000995 -13.43202713 29.21973557 -13.41907883 25.64910889 C-13.41574824 23.93951241 -13.41981971 22.22988469 -13.43147659 20.52032471 C-13.44420671 18.12860148 -13.42478212 15.73920643 -13.39697266 13.34765625 C-13.40709381 12.64413025 -13.41721497 11.94060425 -13.42764282 11.21575928 C-13.34594285 7.41472642 -12.81660504 5.78371336 -10.43515015 2.76261902 C-6.99129064 0.11618949 -4.18330872 -0.04160631 0 0 Z " fill="#8697C9" transform="translate(339.75,317.30078125)"/>
<path d="M0 0 C1.32257813 -0.04350586 1.32257813 -0.04350586 2.671875 -0.08789062 C8.76829114 -0.14685894 12.26240693 0.76288831 17.25 4.3125 C21.68601115 9.09872255 22.37477343 12.49618362 22.41113281 18.90771484 C22.41858017 19.90581932 22.41858017 19.90581932 22.42617798 20.92408752 C22.44077477 23.1238814 22.44759727 25.32360317 22.453125 27.5234375 C22.45887831 29.05416872 22.46463602 30.58489992 22.47039795 32.1156311 C22.48090074 35.32513769 22.48674819 38.53461928 22.49023438 41.74414062 C22.49571894 45.85218257 22.51974894 49.95989304 22.54820633 54.06783104 C22.56685016 57.23002074 22.57203922 60.39213086 22.57357025 63.55437088 C22.57659316 65.06860797 22.58460953 66.58284378 22.59775543 68.09702682 C22.61485381 70.21777166 22.61292704 72.33770987 22.60644531 74.45849609 C22.61191376 76.26693497 22.61191376 76.26693497 22.61749268 78.11190796 C22.10202943 82.6012153 20.40045966 85.16204034 17.25 88.3125 C14.72781218 88.5489139 12.31879437 88.66472063 9.79296875 88.68359375 C9.05299149 88.69262222 8.31301422 88.7016507 7.5506134 88.71095276 C5.98292087 88.72547139 4.41516752 88.73434601 2.84741211 88.73803711 C0.45646874 88.74990584 -1.93186958 88.79904378 -4.32226562 88.84960938 C-5.84634159 88.85907705 -7.37043339 88.86631044 -8.89453125 88.87109375 C-9.60615921 88.89062607 -10.31778717 88.91015839 -11.05097961 88.93028259 C-14.73121363 88.89709017 -16.64801247 88.38285196 -19.69677734 86.27978516 C-22.25841335 82.57774901 -22.48010152 79.63168724 -22.45703125 75.27734375 C-22.47233383 74.49397141 -22.48763641 73.71059906 -22.50340271 72.90348816 C-22.54713786 70.35200947 -22.55570769 67.8018225 -22.5625 65.25 C-22.58316153 63.4887475 -22.60563505 61.72751537 -22.62988281 59.96630859 C-22.67411253 56.4262253 -22.70310075 52.88651157 -22.71923828 49.34619141 C-22.73794546 45.50191085 -22.78890094 41.65966626 -22.86430359 37.81611633 C-22.92400261 34.69009531 -22.96128701 31.56384092 -23 28.4375 C-23.02167236 27.33011475 -23.04334473 26.22272949 -23.06567383 25.08178711 C-23.09420926 17.89365464 -22.66451391 10.96889017 -18.03125 5.15625 C-17.4434375 4.7128125 -16.855625 4.269375 -16.25 3.8125 C-15.6621875 3.3484375 -15.074375 2.884375 -14.46875 2.40625 C-9.99923174 -0.43798889 -5.10190704 0.05497745 0 0 Z " fill="#A4A4A3" transform="translate(83.75,-0.3125)"/>
<path d="M0 0 C1.184729 -0.0157608 2.36945801 -0.03152161 3.59008789 -0.04776001 C5.49649048 -0.03257828 5.49649048 -0.03257828 7.44140625 -0.01708984 C8.75423584 -0.02187347 10.06706543 -0.0266571 11.41967773 -0.03158569 C14.19382252 -0.03894221 16.96716027 -0.02829321 19.74121094 -0.00488281 C23.28920223 0.02360694 26.83530252 0.00719601 30.38322449 -0.02274513 C33.77776821 -0.04520439 37.17180886 -0.02945893 40.56640625 -0.01708984 C41.83734131 -0.027211 43.10827637 -0.03733215 44.41772461 -0.04776001 C46.19481812 -0.0241188 46.19481812 -0.0241188 48.0078125 0 C49.04752197 0.00397797 50.08723145 0.00795593 51.15844727 0.01205444 C54.00390625 0.64697266 54.00390625 0.64697266 59.00390625 5.64697266 C59.00390625 15.54697266 59.00390625 25.44697266 59.00390625 35.64697266 C35.90390625 35.64697266 12.80390625 35.64697266 -10.99609375 35.64697266 C-10.99609375 0.04207146 -10.99609375 0.04207146 0 0 Z " fill="#8697CA" transform="translate(231.99609375,211.35302734375)"/>
<path d="M0 0 C1.1099659 -0.01354271 1.1099659 -0.01354271 2.24235535 -0.02735901 C3.81004788 -0.04187764 5.37780123 -0.05075226 6.94555664 -0.05444336 C9.33650001 -0.06631209 11.72483833 -0.11545003 14.11523438 -0.16601562 C15.63931034 -0.1754833 17.16340214 -0.18271669 18.6875 -0.1875 C19.75494194 -0.21679848 19.75494194 -0.21679848 20.84394836 -0.24668884 C24.4039715 -0.21458061 26.4728139 0.32729759 29.50341797 2.21923828 C32.51714128 6.8765483 32.16814711 10.92657628 32.03125 16.359375 C32.02417526 17.41771042 32.01710052 18.47604584 32.0098114 19.56645203 C31.98187094 22.93955812 31.91912996 26.31099121 31.85546875 29.68359375 C31.83038557 31.97328328 31.80757244 34.26299889 31.78710938 36.55273438 C31.73630039 42.16001378 31.63844107 47.76368621 31.54296875 53.37109375 C17.02296875 53.37109375 2.50296875 53.37109375 -12.45703125 53.37109375 C-12.52594424 46.91113863 -12.58566659 40.45246161 -12.62182617 33.99243164 C-12.63690177 31.79544754 -12.65736551 29.59849349 -12.68334961 27.40161133 C-12.71978627 24.24162375 -12.73677009 21.08203451 -12.75 17.921875 C-12.77322578 16.45129387 -12.77322578 16.45129387 -12.79692078 14.95100403 C-12.79815551 9.93467208 -12.76951278 6.42348531 -9.45703125 2.37109375 C-6.6159315 -0.470006 -3.80804326 0.02845392 0 0 Z " fill="#8FB9E0" transform="translate(418.45703125,317.62890625)"/>
<path d="M0 0 C0.7381041 -0.00241196 1.47620819 -0.00482391 2.23667908 -0.00730896 C3.79073482 -0.00633301 5.3448264 0.00700083 6.89868164 0.03198242 C9.27415119 0.06636005 11.64591097 0.05261662 14.02148438 0.03320312 C15.53517204 0.0401005 17.04885014 0.04977191 18.5625 0.0625 C19.26987808 0.05754013 19.97725616 0.05258026 20.70606995 0.04747009 C24.08373926 0.12799504 25.91578053 0.40014329 28.63061523 2.47680664 C31.01241776 5.71237287 31.33905126 8.29316371 31.32836914 12.19213867 C31.32829361 13.11286667 31.32821808 14.03359467 31.32814026 14.98222351 C31.32297897 15.9729335 31.31781769 16.96364349 31.3125 17.984375 C31.31108505 19.00114822 31.3096701 20.01792145 31.30821228 21.06550598 C31.30261082 24.31583589 31.29005807 27.56609713 31.27734375 30.81640625 C31.27232894 33.01887921 31.267766 35.22135326 31.26367188 37.42382812 C31.25349144 42.82556863 31.23391621 48.2271605 31.21484375 53.62890625 C16.69484375 53.62890625 2.17484375 53.62890625 -12.78515625 53.62890625 C-12.90000501 46.88345573 -12.99952946 40.14140159 -13.05981445 33.39575195 C-13.08494553 31.10168967 -13.11905594 28.80770735 -13.16235352 26.51391602 C-13.22306457 23.21480576 -13.25138062 19.91675479 -13.2734375 16.6171875 C-13.29924393 15.59305252 -13.32505035 14.56891754 -13.35163879 13.51374817 C-13.3534383 8.93645968 -13.27668006 6.38580125 -10.74121094 2.48144531 C-7.095656 0.19680121 -4.17928123 -0.07855601 0 0 Z " fill="#8FB9E0" transform="translate(74.78515625,317.37109375)"/>
<path d="M0 0 C1.30710937 0.00257813 2.61421875 0.00515625 3.9609375 0.0078125 C4.63479492 0.02231445 5.30865234 0.03681641 6.00292969 0.05175781 C8.0576163 0.09365043 10.10902008 0.09281713 12.1640625 0.0859375 C23.94345654 0.20210509 23.94345654 0.20210509 29.0625 3.59375 C32.04423522 8.06101113 31.3135551 13.74974107 31.2578125 18.92578125 C31.2549826 19.91752853 31.25215271 20.90927582 31.24923706 21.93107605 C31.23806804 25.08959159 31.21296927 28.24782057 31.1875 31.40625 C31.17746597 33.55142819 31.16834086 35.69661083 31.16015625 37.84179688 C31.13984349 43.09264637 31.10068816 48.34287849 31.0625 53.59375 C16.5425 53.59375 2.0225 53.59375 -12.9375 53.59375 C-13.07532808 46.84783099 -13.19474189 40.10680157 -13.26708984 33.3605957 C-13.29724782 31.06648196 -13.33818116 28.77248338 -13.39013672 26.47875977 C-13.46299194 23.17956128 -13.49696693 19.88188783 -13.5234375 16.58203125 C-13.55440521 15.55789627 -13.58537292 14.53376129 -13.61727905 13.47859192 C-13.62049492 6.66192635 -13.62049492 6.66192635 -11.8057251 3.82369995 C-8.20041315 0.44296282 -4.76813862 -0.02847423 0 0 Z " fill="#90BADF" transform="translate(339.9375,193.40625)"/>
<path d="M0 0 C1.31871094 -0.01611328 2.63742188 -0.03222656 3.99609375 -0.04882812 C5.26582031 -0.04947266 6.53554687 -0.05011719 7.84375 -0.05078125 C9.57915039 -0.05525269 9.57915039 -0.05525269 11.34960938 -0.05981445 C15.80009466 0.46614572 18.37444551 2.18694551 21.5 5.3125 C21.74050903 7.37527466 21.74050903 7.37527466 21.72705078 9.94580078 C21.72689972 10.90664581 21.72674866 11.86749084 21.72659302 12.85745239 C21.71627045 13.89707123 21.70594788 14.93669006 21.6953125 16.0078125 C21.6924826 17.07039276 21.68965271 18.13297302 21.68673706 19.22775269 C21.67551639 22.63111499 21.65040837 26.03421686 21.625 29.4375 C21.61497264 31.74088162 21.60584637 34.04426736 21.59765625 36.34765625 C21.57727006 42.00278592 21.5381246 47.65735047 21.5 53.3125 C6.98 53.3125 -7.54 53.3125 -22.5 53.3125 C-22.5689698 47.0132587 -22.62867498 40.71533403 -22.66479492 34.41601562 C-22.67985641 32.27436883 -22.70030972 30.13275276 -22.72631836 27.99121094 C-22.76281728 24.90812589 -22.77975302 21.82544962 -22.79296875 18.7421875 C-22.80845261 17.78883514 -22.82393646 16.83548279 -22.83988953 15.85324097 C-22.84119909 10.64903442 -22.66933304 6.68116835 -19.5 2.3125 C-13.77253682 -1.1071107 -6.44289884 -0.01574511 0 0 Z " fill="#90BADF" transform="translate(163.5,193.6875)"/>
<path d="M0 0 C11.21955441 5.72148308 17.25518355 12.93327525 21.22753906 24.8503418 C21.22753906 27.4903418 21.22753906 30.1303418 21.22753906 32.8503418 C-1.87246094 32.8503418 -24.97246094 32.8503418 -48.77246094 32.8503418 C-48.77246094 22.90581809 -46.14636958 15.3202131 -39.02246094 8.0690918 C-28.36573612 -1.75507639 -13.7430718 -6.18800845 0 0 Z " fill="#E64D3C" transform="translate(269.7724609375,320.149658203125)"/>
<path d="M0 0 C14.85 0 29.7 0 45 0 C45.061875 4.516875 45.12375 9.03375 45.1875 13.6875 C45.22846802 15.81191528 45.22846802 15.81191528 45.27026367 17.97924805 C45.27775635 19.10371338 45.28524902 20.22817871 45.29296875 21.38671875 C45.3086792 22.53358154 45.32438965 23.68044434 45.34057617 24.86206055 C44.95258708 28.4368446 44.21970688 30.18647849 42 33 C38.09869017 36.08881819 35.02920852 36.38459498 30.125 36.3984375 C28.15273437 36.40423828 28.15273437 36.40423828 26.140625 36.41015625 C25.46064453 36.40387207 24.78066406 36.39758789 24.08007812 36.39111328 C22.00584108 36.37504525 19.93355204 36.39098732 17.859375 36.41015625 C16.54453125 36.40628906 15.2296875 36.40242188 13.875 36.3984375 C12.67617187 36.39505371 11.47734375 36.39166992 10.2421875 36.38818359 C6.64161086 35.95709046 4.80501709 35.28406752 2 33 C-0.19063896 29.16864402 -0.23507081 25.74025354 -0.1953125 21.38671875 C-0.19031738 20.26225342 -0.18532227 19.13778809 -0.18017578 17.97924805 C-0.16196777 16.56297119 -0.14375977 15.14669434 -0.125 13.6875 C-0.08375 9.170625 -0.0425 4.65375 0 0 Z " fill="#49525F" transform="translate(141,247)"/>
<path d="M0 0 C14.52 0 29.04 0 44 0 C44.1546875 7.2703125 44.1546875 7.2703125 44.3125 14.6875 C44.35802002 16.20819092 44.40354004 17.72888184 44.45043945 19.2956543 C44.46917114 21.1041687 44.46917114 21.1041687 44.48828125 22.94921875 C44.51446533 24.17987061 44.54064941 25.41052246 44.56762695 26.6784668 C43.84514806 30.90613361 42.26907893 32.32647361 39 35 C34.72521354 37.13739323 29.05262781 36.22697829 24.30639648 36.24023438 C22.20581089 36.24991561 20.10621425 36.28092684 18.00585938 36.3125 C16.6640683 36.31903286 15.32227023 36.32428222 13.98046875 36.328125 C12.15358521 36.34214355 12.15358521 36.34214355 10.28979492 36.35644531 C6.68896196 35.9662994 4.86212647 35.17987725 2 33 C-0.45286296 29.32070555 -0.23228878 27.52622093 -0.1953125 23.14453125 C-0.19031738 21.93385986 -0.18532227 20.72318848 -0.18017578 19.47583008 C-0.16196777 17.93693115 -0.14375977 16.39803223 -0.125 14.8125 C-0.08375 9.924375 -0.0425 5.03625 0 0 Z " fill="#47505E" transform="translate(406,247)"/>
<path d="M0 0 C14.52 0 29.04 0 44 0 C44.1546875 7.2703125 44.1546875 7.2703125 44.3125 14.6875 C44.35802002 16.20819092 44.40354004 17.72888184 44.45043945 19.2956543 C44.46917114 21.1041687 44.46917114 21.1041687 44.48828125 22.94921875 C44.51446533 24.17987061 44.54064941 25.41052246 44.56762695 26.6784668 C43.84192962 30.92496667 42.32030634 32.34845333 39 35 C34.03109481 36.65630173 28.86202989 36.2250923 23.65820312 36.24023438 C21.63890274 36.24993322 19.62062388 36.28096756 17.6015625 36.3125 C15.6834375 36.32023437 15.6834375 36.32023437 13.7265625 36.328125 C11.97206787 36.34214355 11.97206787 36.34214355 10.18212891 36.35644531 C6.64649451 35.96040218 4.8206084 35.13279226 2 33 C-0.45286296 29.32070555 -0.23228878 27.52622093 -0.1953125 23.14453125 C-0.19031738 21.93385986 -0.18532227 20.72318848 -0.18017578 19.47583008 C-0.16196777 17.93693115 -0.14375977 16.39803223 -0.125 14.8125 C-0.08375 9.924375 -0.0425 5.03625 0 0 Z " fill="#47505E" transform="translate(62,247)"/>
<path d="M0 0 C14.52 0 29.04 0 44 0 C44.04125 4.516875 44.0825 9.03375 44.125 13.6875 C44.14320801 15.10377686 44.16141602 16.52005371 44.18017578 17.97924805 C44.1851709 19.10371338 44.19016602 20.22817871 44.1953125 21.38671875 C44.21102295 23.10701294 44.21102295 23.10701294 44.22705078 24.86206055 C43.98961908 28.14346877 43.69194784 30.17655067 42 33 C37.73641838 35.81979447 34.29724076 36.38359677 29.24609375 36.3984375 C27.97958984 36.40230469 26.71308594 36.40617187 25.40820312 36.41015625 C24.09787109 36.39855469 22.78753906 36.38695312 21.4375 36.375 C20.12330078 36.38660156 18.80910156 36.39820313 17.45507812 36.41015625 C16.18986328 36.40628906 14.92464844 36.40242188 13.62109375 36.3984375 C12.4705249 36.39505371 11.31995605 36.39166992 10.13452148 36.38818359 C5.70240874 35.83930445 3.11613999 34.11613999 0 31 C-0.22705078 27.92724609 -0.22705078 27.92724609 -0.1953125 24.0234375 C-0.19031738 22.76966309 -0.18532227 21.51588867 -0.18017578 20.22412109 C-0.16196777 18.62391113 -0.14375977 17.02370117 -0.125 15.375 C-0.08375 10.30125 -0.0425 5.2275 0 0 Z " fill="#48515E" transform="translate(327,247)"/>
<path d="M0 0 C14.52 0 29.04 0 44 0 C44.1546875 6.991875 44.1546875 6.991875 44.3125 14.125 C44.35802002 15.58437988 44.40354004 17.04375977 44.45043945 18.54736328 C44.46917114 20.29122314 44.46917114 20.29122314 44.48828125 22.0703125 C44.51446533 23.25383301 44.54064941 24.43735352 44.56762695 25.65673828 C43.80776143 30.1322645 42.38661693 32.00245634 39 35 C36.1296942 35.60477561 34.10833205 35.82392502 31.25 35.76171875 C30.14640137 35.76677177 30.14640137 35.76677177 29.02050781 35.77192688 C27.47063175 35.77162892 25.92069536 35.75646276 24.37109375 35.72729492 C22.00597366 35.68760026 19.64646291 35.7065954 17.28125 35.73242188 C15.7708117 35.72486207 14.26038579 35.71390788 12.75 35.69921875 C11.6966748 35.7096949 11.6966748 35.7096949 10.62207031 35.72038269 C6.94238814 35.61518435 5.06523296 35.04644323 2.04614258 32.89697266 C-0.50010572 29.29193957 -0.58152922 27.33187349 -0.48828125 22.94921875 C-0.47579346 21.74354248 -0.46330566 20.53786621 -0.45043945 19.2956543 C-0.40491943 17.77496338 -0.35939941 16.25427246 -0.3125 14.6875 C-0.209375 9.840625 -0.10625 4.99375 0 0 Z " fill="#464F5D" transform="translate(327,371)"/>
<path d="M0 0 C14.52 0 29.04 0 44 0 C44.1546875 7.2703125 44.1546875 7.2703125 44.3125 14.6875 C44.35802002 16.20819092 44.40354004 17.72888184 44.45043945 19.2956543 C44.46917114 21.1041687 44.46917114 21.1041687 44.48828125 22.94921875 C44.51446533 24.17987061 44.54064941 25.41052246 44.56762695 26.6784668 C43.82111221 31.04678212 42.59363909 32.44414709 39 35 C36.20715648 35.50061116 34.03372951 35.70418481 31.25 35.6640625 C30.14640137 35.67123795 30.14640137 35.67123795 29.02050781 35.67855835 C27.47068127 35.6819488 25.92078239 35.67280592 24.37109375 35.65185547 C22.00618214 35.62507002 19.64601498 35.65162417 17.28125 35.68359375 C15.77082292 35.68028949 14.26039877 35.6738829 12.75 35.6640625 C11.6966748 35.67924423 11.6966748 35.67924423 10.62207031 35.69473267 C6.93727974 35.60729487 5.07056534 35.05018719 2.04614258 32.89916992 C-0.49920745 29.29267528 -0.58154397 27.33256666 -0.48828125 22.94921875 C-0.47579346 21.74354248 -0.46330566 20.53786621 -0.45043945 19.2956543 C-0.40491943 17.77496338 -0.35939941 16.25427246 -0.3125 14.6875 C-0.209375 9.840625 -0.10625 4.99375 0 0 Z " fill="#464F5D" transform="translate(406,371)"/>
<path d="M0 0 C14.52 0 29.04 0 44 0 C44.1546875 7.2703125 44.1546875 7.2703125 44.3125 14.6875 C44.35802002 16.20819092 44.40354004 17.72888184 44.45043945 19.2956543 C44.46917114 21.1041687 44.46917114 21.1041687 44.48828125 22.94921875 C44.51446533 24.17987061 44.54064941 25.41052246 44.56762695 26.6784668 C43.82092526 31.04787607 42.59706285 32.44628739 39 35 C36.19447093 35.48840276 34.00888872 35.68142462 31.21484375 35.62890625 C30.47673965 35.63131821 29.73863556 35.63373016 28.97816467 35.63621521 C27.42410893 35.63523926 25.87001735 35.62190542 24.31616211 35.59692383 C21.94069256 35.5625462 19.56893278 35.57628963 17.19335938 35.59570312 C15.67967171 35.58880575 14.16599361 35.57913434 12.65234375 35.56640625 C11.94496567 35.57136612 11.23758759 35.57632599 10.5087738 35.58143616 C7.13110449 35.50091121 5.29906322 35.22876296 2.58422852 33.15209961 C-0.21460933 29.3500106 -0.11839602 26.16552015 -0.09765625 21.58203125 C-0.09515869 20.4525708 -0.09266113 19.32311035 -0.09008789 18.15942383 C-0.08098389 16.72493896 -0.07187988 15.2904541 -0.0625 13.8125 C-0.041875 9.254375 -0.02125 4.69625 0 0 Z " fill="#464F5D" transform="translate(141,371)"/>
<path d="M0 0 C14.52 0 29.04 0 44 0 C44.1546875 7.2703125 44.1546875 7.2703125 44.3125 14.6875 C44.35802002 16.20819092 44.40354004 17.72888184 44.45043945 19.2956543 C44.46917114 21.1041687 44.46917114 21.1041687 44.48828125 22.94921875 C44.51446533 24.17987061 44.54064941 25.41052246 44.56762695 26.6784668 C43.82111221 31.04678212 42.59363909 32.44414709 39 35 C36.20715648 35.50061116 34.03372951 35.70418481 31.25 35.6640625 C30.14640137 35.67123795 30.14640137 35.67123795 29.02050781 35.67855835 C27.47068127 35.6819488 25.92078239 35.67280592 24.37109375 35.65185547 C22.00618214 35.62507002 19.64601498 35.65162417 17.28125 35.68359375 C15.77082292 35.68028949 14.26039877 35.6738829 12.75 35.6640625 C11.6966748 35.67924423 11.6966748 35.67924423 10.62207031 35.69473267 C6.93727974 35.60729487 5.07056534 35.05018719 2.04614258 32.89916992 C-0.49920745 29.29267528 -0.58154397 27.33256666 -0.48828125 22.94921875 C-0.47579346 21.74354248 -0.46330566 20.53786621 -0.45043945 19.2956543 C-0.40491943 17.77496338 -0.35939941 16.25427246 -0.3125 14.6875 C-0.209375 9.840625 -0.10625 4.99375 0 0 Z " fill="#464F5D" transform="translate(62,371)"/>
<path d="M0 0 C3.99397369 0.15361437 6.52047068 0.70412021 9.9375 2.8125 C13.07383971 7.65957046 12.40317375 12.38244581 12 18 C12.80824219 17.94199219 13.61648438 17.88398437 14.44921875 17.82421875 C23.14453165 17.45710663 23.14453165 17.45710663 27.25 20.0625 C29.47215356 23.79254347 29.76313599 25.72643844 29 30 C27.24609375 32.68359375 27.24609375 32.68359375 24 35 C19.80130035 35.7234143 15.68736299 35.65199626 11.4375 35.5625 C10.30119141 35.57345703 9.16488281 35.58441406 7.99414062 35.59570312 C-0.35254502 35.52183865 -0.35254502 35.52183865 -3.29272461 33.15209961 C-7.02361782 28.44913612 -6.29392988 22.8514986 -6.375 17.125 C-6.41238281 16.13113281 -6.44976562 15.13726562 -6.48828125 14.11328125 C-6.57717912 6.73475818 -6.57717912 6.73475818 -3.5390625 2.8671875 C-2.70117188 2.25101562 -1.86328125 1.63484375 -1 1 C-0.67 0.67 -0.34 0.34 0 0 Z " fill="#2F323B" transform="translate(253,97)"/>
<path d="M0 0 C2.5 1.5 2.5 1.5 4 4 C4.7099846 8.9698922 4.79117716 10.84919686 1.9375 15 C-1.77807226 17.52975133 -3.5882483 17.7878128 -8 17 C-11.69186542 14.40783917 -12.82883761 12.95850936 -13.625 8.5 C-13 5 -13 5 -11 2.0625 C-6.84919686 -0.79117716 -4.9698922 -0.7099846 0 0 Z " fill="#30333A" transform="translate(269,389)"/>
</svg>
