<?xml version="1.0" encoding="UTF-8"?>
<svg version="1.1" xmlns="http://www.w3.org/2000/svg" width="512" height="512">
<path d="M0 0 C0.99680786 -0.00571014 1.99361572 -0.01142029 3.02062988 -0.01730347 C4.11832199 -0.01842133 5.2160141 -0.01953918 6.3469696 -0.02069092 C8.07637283 -0.02813828 8.07637283 -0.02813828 9.8407135 -0.03573608 C13.66922087 -0.05038637 17.49768681 -0.05716456 21.32621765 -0.06268311 C23.30920629 -0.06698005 25.29219492 -0.07127751 27.27518338 -0.07565761 C32.80223317 -0.08747413 38.32927289 -0.0950078 43.85633403 -0.09845281 C51.0036213 -0.10293213 58.15071719 -0.12047302 65.29794627 -0.1494534 C70.82243914 -0.171076 76.3468782 -0.18115742 81.87141293 -0.18249393 C85.17089458 -0.1835417 88.47015543 -0.19088867 91.76960182 -0.20731354 C95.4517892 -0.22433478 99.13350904 -0.22250304 102.8157196 -0.21600342 C103.90733902 -0.2252182 104.99895844 -0.23443298 106.12365723 -0.243927 C115.43414503 -0.19234716 115.43414503 -0.19234716 119.2754364 3.14044189 C123.16678804 8.39902519 124.23544904 12.6455416 123.2754364 19.14044189 C121.51489135 24.32426898 119.0602314 26.54867794 114.2754364 29.14044189 C113.2854364 29.14044189 112.2954364 29.14044189 111.2754364 29.14044189 C111.26710833 41.31988201 111.2911575 53.49879706 111.3557148 65.67808151 C111.38469709 71.33442866 111.40282999 76.99036361 111.39555359 82.64678955 C111.38893121 88.11306132 111.41161091 93.57852065 111.45399094 99.04462433 C111.46507043 101.12240962 111.46586927 103.20027782 111.45586014 105.27806854 C111.40695476 116.93080108 111.41456715 126.23969937 118.2754364 136.14044189 C119.2860614 135.29481689 120.2966864 134.44919189 121.3379364 133.57794189 C121.90641296 133.10227783 122.47488953 132.62661377 123.06059265 132.13653564 C124.9725541 130.4134099 126.75341395 128.63823473 128.5488739 126.79669189 C132.07714727 123.24778809 135.82214651 120.18108312 139.8379364 117.20294189 C140.88219788 116.42817505 140.88219788 116.42817505 141.94755554 115.63775635 C153.59253101 107.13992847 165.88754582 101.32703389 179.2754364 96.14044189 C180.17031065 69.97068982 180.17031065 69.97068982 175.3691864 44.38262939 C174.13069974 40.09357543 173.24556809 35.54680702 174.2754364 31.14044189 C175.68424988 29.04483032 175.68424988 29.04483032 178.2754364 27.14044189 C181.58177406 26.53006154 184.8587644 26.59433031 188.2129364 26.62286377 C189.22146667 26.61585449 190.22999695 26.60884521 191.26908875 26.60162354 C194.60481755 26.58400971 197.93969888 26.59567879 201.2754364 26.60919189 C203.59184431 26.60649797 205.90825112 26.60261638 208.22465515 26.59759521 C213.08023338 26.59169555 217.93551736 26.60027851 222.7910614 26.61895752 C229.01908286 26.64174693 235.24641486 26.62862641 241.47441101 26.60466766 C246.25791125 26.59022257 251.04124767 26.59480984 255.82475281 26.60517883 C258.12130311 26.60784967 260.41786823 26.60456389 262.71440125 26.59526062 C265.9226478 26.58511662 269.12977346 26.60056706 272.3379364 26.62286377 C273.28974792 26.61476685 274.24155945 26.60666992 275.22221375 26.59832764 C281.65059179 26.68121334 281.65059179 26.68121334 284.86662292 29.04483032 C287.29099527 32.65108681 286.79211517 35.95432414 286.2754364 40.14044189 C285.77587835 42.33910161 285.15560393 44.4679995 284.49687195 46.62408447 C279.63947628 62.72499497 280.81736 79.51579202 281.2754364 96.14044189 C282.26398621 96.59572266 283.25253601 97.05100342 284.27104187 97.52008057 C323.67516828 115.73708089 354.0728232 143.60034533 369.7363739 184.90997314 C383.22053393 223.27853758 381.38764536 264.99263708 364.1504364 301.82794189 C356.51168067 317.54617595 346.51215964 330.74634612 334.2754364 343.14044189 C333.72943787 343.7069043 333.18343933 344.2733667 332.62089539 344.85699463 C309.72705739 368.32133566 275.31262271 383.89591024 242.51591492 385.30157471 C239.03698323 385.33940592 235.55850824 385.37156366 232.07939148 385.38067627 C229.87415894 385.39028408 227.66990047 385.42133237 225.46488953 385.45294189 C224.00721261 385.45948446 222.5495292 385.46472998 221.09184265 385.46856689 C219.80737244 385.4779126 218.52290222 385.4872583 217.19950867 385.49688721 C213.08951121 385.34689232 209.28617301 384.50461726 205.26989746 383.64122009 C193.1288762 381.33622681 180.83281174 381.72393032 168.52338839 381.76633823 C164.93788276 381.77529972 161.35241163 381.76665665 157.76690674 381.76013184 C151.57172853 381.75103106 145.37662463 381.7522609 139.18144608 381.76031685 C130.21259172 381.77161213 121.24384182 381.76245192 112.2749965 381.74775504 C97.70320483 381.72405359 83.13142612 381.7106282 68.55961609 381.706604 C67.68988367 381.70635914 66.82015125 381.70611427 65.92406331 381.70586198 C56.21292001 381.70331405 46.50177771 381.70275067 36.79063416 381.70379639 C33.26343282 381.70412947 29.73623149 381.70441485 26.20903015 381.70465088 C24.90331321 381.70474506 24.90331321 381.70474506 23.57121815 381.70484114 C9.04202911 381.70544652 -5.48710002 381.69054723 -20.01626408 381.66381782 C-28.96078899 381.64804686 -37.90512002 381.64571868 -46.84964688 381.66095185 C-52.97576181 381.67043356 -59.10175996 381.66563576 -65.22786121 381.64973802 C-68.75746546 381.6410659 -72.286759 381.63884996 -75.81634712 381.65426445 C-79.64998924 381.67087307 -83.48317115 381.65640915 -87.31681824 381.63923645 C-88.97310692 381.65394662 -88.97310692 381.65394662 -90.66285598 381.66895396 C-102.12331236 381.56309294 -111.40756583 378.11155318 -119.7245636 370.14044189 C-129.00272395 360.09063257 -132.08619177 350.20518469 -131.93159485 336.69903564 C-131.05280799 321.59385015 -120.40263772 309.00109268 -112.39253235 296.76544189 C-108.41922884 290.68824338 -104.50750108 284.57230842 -100.5995636 278.45294189 C-96.15934862 271.50356336 -91.71335231 264.55855792 -87.2245636 257.64044189 C-80.00418787 246.50828844 -72.87114385 235.32004352 -65.7245636 224.14044189 C-50.01314577 199.56261782 -50.01314577 199.56261782 -42.94599915 188.66973877 C-38.14654212 181.26430221 -33.39970432 173.82524082 -28.64668274 166.38995361 C-24.66908553 160.17047255 -20.67706832 153.96083203 -16.6620636 147.76544189 C-16.22386292 147.08691162 -15.78566223 146.40838135 -15.33418274 145.70928955 C-13.43018262 142.76203691 -11.51471847 139.8256742 -9.5683136 136.90606689 C-8.9392511 135.95216064 -8.3101886 134.99825439 -7.6620636 134.01544189 C-7.13483704 133.22911377 -6.60761047 132.44278564 -6.06440735 131.63262939 C-2.76502983 125.49559483 -2.4231636 119.62922522 -2.40571594 112.80865479 C-2.39567032 111.90055054 -2.38562469 110.99244629 -2.37527466 110.05682373 C-2.34455196 107.0755879 -2.32743792 104.09444144 -2.3105011 101.11309814 C-2.29178067 99.03801206 -2.27220661 96.96293351 -2.2518158 94.88786316 C-2.20058106 89.44146174 -2.16090899 83.99503566 -2.12367249 78.54852295 C-2.08357853 72.98469995 -2.0325108 67.42097875 -1.9823761 61.85723877 C-1.88571932 50.95171142 -1.80128177 40.04612647 -1.7245636 29.14044189 C-2.67613342 29.0032373 -3.62770325 28.86603271 -4.60810852 28.72467041 C-8.77874267 27.94281945 -10.00491083 26.40887573 -12.5214386 23.16387939 C-14.91028629 19.14627192 -15.22532524 15.53103442 -14.27534485 10.99591064 C-12.78889983 6.36473224 -10.90736818 3.82172688 -6.7245636 1.14044189 C-4.28893161 -0.0773741 -2.72284576 0.00931829 0 0 Z " fill="#C8EEFC" transform="translate(132.7245635986328,126.85955810546875)"/>
<path d="M0 0 C1.00853027 -0.00700928 2.01706055 -0.01401855 3.05615234 -0.02124023 C6.39188114 -0.03885406 9.72676248 -0.02718497 13.0625 -0.01367188 C15.37890791 -0.0163658 17.69531472 -0.02024739 20.01171875 -0.02526855 C24.86729698 -0.03116822 29.72258096 -0.02258526 34.578125 -0.00390625 C40.80614646 0.01888316 47.03347845 0.00576265 53.26147461 -0.01819611 C58.04497485 -0.0326412 62.82831127 -0.02805393 67.61181641 -0.01768494 C69.90836671 -0.0150141 72.20493183 -0.01829988 74.50146484 -0.02760315 C77.7097114 -0.03774714 80.91683706 -0.02229671 84.125 0 C85.55271729 -0.01214539 85.55271729 -0.01214539 87.00927734 -0.02453613 C93.43765539 0.05834957 93.43765539 0.05834957 96.65368652 2.42196655 C99.07805887 6.02822304 98.57917876 9.33146037 98.0625 13.51757812 C97.56294195 15.71623784 96.94266753 17.84513573 96.28393555 20.0012207 C91.42653988 36.1021312 92.60442359 52.89292825 93.0625 69.51757812 C94.0510498 69.97285889 95.03959961 70.42813965 96.05810547 70.8972168 C135.46223188 89.11421712 165.8598868 116.97748156 181.5234375 158.28710938 C195.00759752 196.65567381 193.17470896 238.36977331 175.9375 275.20507812 C168.29874427 290.92331218 158.29922324 304.12348235 146.0625 316.51757812 C145.51650146 317.08404053 144.97050293 317.65050293 144.40795898 318.23413086 C121.51412098 341.69847189 87.09968631 357.27304647 54.30297852 358.67871094 C50.07679456 358.72466805 45.85142632 358.76166752 41.625 358.76757812 C40.86737366 358.76991455 40.10974731 358.77225098 39.3291626 358.7746582 C28.30411694 358.78752392 17.798784 358.30967675 7.0625 355.51757812 C7.0625 355.18757813 7.0625 354.85757812 7.0625 354.51757812 C7.71734375 354.49179687 8.3721875 354.46601563 9.046875 354.43945312 C21.40651288 353.67134004 31.91903183 350.11387813 41.0625 341.51757812 C50.13574668 330.42068228 52.43817901 318.49670015 51.0625 304.51757812 C48.66568196 293.78095464 40.98100715 284.40345442 34.96728516 275.39648438 C31.56100349 270.24820529 28.25492714 265.03586871 24.9375 259.83007812 C20.49803073 252.88022894 16.0513676 245.93563474 11.5625 239.01757812 C5.59020049 229.81180972 -0.31487245 220.56311657 -6.2265625 211.31835938 C-8.95770197 207.04764029 -11.69382894 202.78025482 -14.4375 198.51757812 C-17.86793189 193.18792246 -21.28460578 187.84956991 -24.69921875 182.50976562 C-30.34646297 173.67877005 -36.0007539 164.85304935 -41.70776367 156.06054688 C-44.44978067 151.83091039 -47.17308138 147.58970536 -49.88671875 143.34179688 C-50.58667969 142.24609375 -51.28664063 141.15039062 -52.0078125 140.02148438 C-53.3747757 137.88024497 -54.74073403 135.73836356 -56.10546875 133.59570312 C-60.62912142 126.50925529 -65.25007607 119.49635574 -69.9375 112.51757812 C-59.87471096 90.98469697 -29.67223195 77.55040406 -8.9375 69.51757812 C-8.04262575 43.34782605 -8.04262575 43.34782605 -12.84375 17.75976562 C-14.08223666 13.47071166 -14.96736831 8.92394325 -13.9375 4.51757812 C-10.38773202 -0.76270558 -5.77884361 -0.04915979 0 0 Z " fill="#C7EFFC" transform="translate(320.9375,153.482421875)"/>
<path d="M0 0 C0.79043701 0.00870117 1.58087402 0.01740234 2.39526367 0.02636719 C14.52734311 0.31919807 26.07708784 2.58517757 37.578125 6.39453125 C56.90985561 12.14365967 78.49907811 13.80553563 98.0625 8.25 C103.79774033 6.93371533 110.10330588 5.72071327 115.35546875 8.85546875 C118.73605815 12.23605815 121.0350378 15.98595691 123.5 20.0625 C124.56943448 21.7935115 125.63976383 23.52397044 126.7109375 25.25390625 C127.24428711 26.12031738 127.77763672 26.98672852 128.32714844 27.87939453 C130.54325924 31.45243628 132.82890736 34.97802739 135.125 38.5 C139.65954784 45.47808214 144.14611649 52.48608128 148.625 59.5 C153.8334758 67.65255751 159.07870125 75.77922906 164.375 83.875 C170.35906281 93.02206744 176.26925336 102.21443414 182.15380859 111.42578125 C186.08853351 117.58464995 190.03224339 123.73735489 194 129.875 C194.44037598 130.55916992 194.88075195 131.24333984 195.33447266 131.94824219 C197.64506507 135.52656948 200.03589512 139.02468227 202.5 142.5 C204.88740587 146.08456881 205.95968873 148.97118598 205.875 153.375 C204.25852443 157.1184171 202.30418402 159.22637117 198.875 161.375 C196.47317463 161.75219816 196.47317463 161.75219816 193.74279881 161.75531673 C192.17839993 161.76797665 192.17839993 161.76797665 190.58239704 161.78089231 C189.43795642 161.77488227 188.29351579 161.76887222 187.11439514 161.76268005 C185.89760667 161.76806559 184.68081819 161.77345113 183.42715734 161.77899987 C180.04800843 161.79084769 176.66935153 161.78920036 173.29022181 161.78183305 C169.64664887 161.77711129 166.00312931 161.78960242 162.35957336 161.79985046 C155.22092763 161.81706334 148.08236983 161.81787333 140.94370873 161.81263756 C135.14244526 161.80859925 129.34120782 161.81003538 123.5399456 161.81538582 C122.30233749 161.81650845 122.30233749 161.81650845 121.03972719 161.81765376 C119.36369598 161.81918521 117.68766477 161.82072356 116.01163357 161.82226873 C100.28733131 161.83600278 84.56307878 161.83054974 68.83877765 161.81908352 C54.44787243 161.80915017 40.05709576 161.82209194 25.66621036 161.84601771 C10.8956541 161.87039002 -3.87484225 161.88002119 -18.64541823 161.87336498 C-26.94039209 161.8698686 -35.23526706 161.8721324 -43.53022575 161.88961601 C-50.59158904 161.90431467 -57.65278379 161.90500418 -64.71414369 161.8875451 C-68.31784568 161.8790133 -71.92124633 161.87693818 -75.52493286 161.89219666 C-79.42924791 161.90852355 -83.33309442 161.89394096 -87.2374115 161.87620544 C-88.37962141 161.88581045 -89.52183131 161.89541546 -90.69865364 161.90531152 C-98.36022515 161.83339379 -98.36022515 161.83339379 -102.30547428 159.46867466 C-105.12996977 156.21861088 -105.50356749 153.86627469 -105.43359375 149.54248047 C-104.88768153 145.70813817 -102.83965873 143.03439921 -100.625 139.9375 C-99.61029044 138.44646035 -98.59738173 136.95419412 -97.5859375 135.4609375 C-97.03131836 134.65237305 -96.47669922 133.84380859 -95.90527344 133.01074219 C-92.5845402 128.09430828 -89.43178782 123.06947285 -86.25 118.0625 C-80.89345733 109.67591116 -75.49840917 101.31592307 -70.06347656 92.97998047 C-64.97285231 85.16234796 -59.94893551 77.30250077 -54.92578125 69.44140625 C-50.75537592 62.91661024 -46.56570635 56.40509481 -42.34936523 49.90991211 C-38.9317316 44.63838841 -35.5482563 39.3454768 -32.16894531 34.04931641 C-28.82963456 28.81896806 -25.48019235 23.59517252 -22.125 18.375 C-21.5882666 17.53904297 -21.0515332 16.70308594 -20.49853516 15.84179688 C-19.13250741 13.72217641 -17.75646792 11.6095784 -16.375 9.5 C-15.99335693 8.90622559 -15.61171387 8.31245117 -15.21850586 7.70068359 C-10.89823833 1.16597317 -7.74533986 -0.14216182 0 0 Z " fill="#FC828A" transform="translate(137.125,315.625)"/>
<path d="M0 0 C12.87 0 25.74 0 39 0 C38.98259766 4.19106445 38.98259766 4.19106445 38.96484375 8.46679688 C38.93216022 17.75480694 38.94383225 27.04239328 38.97665405 36.33039093 C38.99519652 41.95540045 38.99934144 47.57961363 38.96923828 53.20458984 C38.94067455 58.64508013 38.95168608 64.08424905 38.98880005 69.52467346 C38.9961795 71.58801518 38.9899009 73.65145774 38.96896362 75.71470642 C38.84042138 89.53130486 40.64026937 99.22797371 48 111 C48.55466446 111.94293411 49.10932892 112.88586823 49.68080139 113.8573761 C51.00234485 116.0920325 52.38992318 118.26601617 53.8125 120.4375 C54.32329102 121.2320459 54.83408203 122.0265918 55.36035156 122.84521484 C56.89920186 125.2352328 58.44861239 127.61810726 60 130 C60.88474287 131.36808348 61.7688846 132.73655595 62.65234375 134.10546875 C64.41567063 136.83568488 66.1834341 139.56296813 67.953125 142.2890625 C72.36192475 149.09214313 76.71786756 155.92918744 81.08349609 162.76000977 C84.9933422 168.87444268 88.92084175 174.97664673 92.875 181.0625 C96.22267932 186.21645464 99.51096179 191.40214987 102.75 196.625 C107.39856949 204.11394642 112.21334206 211.48987571 117.04101562 218.86425781 C122.51450792 227.23338643 127.91270104 235.64911495 133.29492188 244.07714844 C137.05240047 249.95993935 140.8251395 255.83201215 144.625 261.6875 C145.48328409 263.01548854 146.34135414 264.34361544 147.19921875 265.671875 C148.71359425 268.01635674 150.23333144 270.35701976 151.76025391 272.69335938 C153.66072513 275.60291729 155.54964214 278.51974607 157.4375 281.4375 C158.02934082 282.33750732 158.62118164 283.23751465 159.23095703 284.16479492 C167.10565072 296.39236275 170.11094321 306.8251944 167.375 321.30859375 C163.92865215 333.140029 156.68943159 342.0244969 146 348 C134.73581513 353.66493893 122.26816076 352.59312744 109.99902344 352.58105469 C107.56690653 352.59303642 105.1347972 352.60665008 102.70269775 352.62176514 C96.80608059 352.65332203 90.90961405 352.66597589 85.01292965 352.66821465 C80.21921131 352.67012226 75.42554532 352.67837569 70.63184357 352.69101715 C57.01953302 352.72618049 43.407348 352.74470249 29.7949917 352.74169526 C29.06310342 352.74153543 28.33121515 352.74137561 27.57714844 352.74121094 C26.4779665 352.74096565 26.4779665 352.74096565 25.35657886 352.74071541 C13.46412046 352.73908737 1.57216725 352.77743634 -10.32014492 352.8337644 C-22.5518537 352.89124058 -34.78331596 352.91884459 -47.01516318 352.9153893 C-53.87444443 352.91406296 -60.73319461 352.92498387 -67.59235382 352.9681015 C-74.03752466 353.00836087 -80.48186327 353.00716067 -86.92710114 352.97803497 C-89.29100177 352.97384964 -91.65497219 352.9833155 -94.01875305 353.00747681 C-97.24838163 353.03834998 -100.47412956 353.0198004 -103.70367432 352.98895264 C-104.63714133 353.00952689 -105.57060833 353.03010114 -106.53236222 353.05129886 C-111.94342855 352.93720394 -114.61189349 351.9528972 -118.51705551 348.11323929 C-121.15850308 345.15552638 -123.4900174 342.19051679 -125.375 338.6875 C-125.83648437 337.86636719 -126.29796875 337.04523438 -126.7734375 336.19921875 C-128.51100457 331.66715686 -129.13173784 326.77544188 -130 322 C-141.22 322 -152.44 322 -164 322 C-164 321.67 -164 321.34 -164 321 C-163.37768755 320.99940291 -162.75537511 320.99880582 -162.1142047 320.99819064 C-125.24660129 320.96231165 -88.37908408 320.90569577 -51.51155691 320.82207905 C-47.08672512 320.81206136 -42.66189296 320.80221727 -38.23706055 320.79248047 C-36.91568084 320.78956841 -36.91568084 320.78956841 -35.56760659 320.78659752 C-21.29613104 320.75556018 -7.02467157 320.73859204 7.24683138 320.72680578 C21.88621215 320.71440319 36.52550836 320.68692201 51.16483575 320.64538693 C60.2011163 320.62022591 69.23725665 320.60688461 78.27357272 320.60857043 C84.4666419 320.60860014 90.65956806 320.59400887 96.85258152 320.56783572 C100.42788578 320.55316004 104.00289676 320.54501198 107.57822609 320.55419731 C111.45213678 320.56398153 115.32553004 320.5430189 119.1993866 320.51898193 C120.89928491 320.53062256 120.89928491 320.53062256 122.6335246 320.54249835 C128.68292349 320.49245585 128.68292349 320.49245585 134.16722584 318.16678238 C136.84658049 314.99913709 137.13607657 313.1503354 137 309 C135.79663988 305.71496518 133.90322449 302.92237051 132 300 C131.25862791 298.84145712 130.51778351 297.68257646 129.77734375 296.5234375 C127.96152774 293.69498209 126.1306521 290.8767911 124.29296875 288.0625 C120.49098667 282.2324036 116.74683524 276.36562865 113 270.5 C105.71231608 259.10159888 98.38563963 247.7296982 91 236.39453125 C84.91899387 227.05870309 78.87570217 217.70019279 72.875 208.3125 C61.18401175 185.83203235 61.18401175 185.83203235 45 168 C37.67928845 167.30659927 31.12519961 168.5054457 24.04296875 170.265625 C3.52228214 175.21798582 -18.1588517 170.84261019 -38 165 C-34.92305489 158.47291594 -31.23868374 152.56810894 -27.25 146.5625 C-25.91730324 144.53298894 -24.58529753 142.50302396 -23.25390625 140.47265625 C-22.56184082 139.41965332 -21.86977539 138.36665039 -21.15673828 137.28173828 C-20.44501465 136.19876465 -19.73329102 135.11579102 -19 134 C-18.45046661 133.16405304 -18.45046661 133.16405304 -17.88983154 132.31121826 C-15.30921308 128.38260152 -12.74600713 124.44305266 -10.1875 120.5 C-9.50010742 119.45658447 -8.81271484 118.41316895 -8.10449219 117.33813477 C-7.46543945 116.34998779 -6.82638672 115.36184082 -6.16796875 114.34375 C-5.32141724 113.04727539 -5.32141724 113.04727539 -4.45776367 111.72460938 C-0.96587168 105.1981457 -0.69802706 99.0960455 -0.68115234 91.84204102 C-0.67110672 90.84615463 -0.6610611 89.85026825 -0.65071106 88.82420349 C-0.61995815 85.55077665 -0.60286576 82.2774313 -0.5859375 79.00390625 C-0.56721952 76.7270386 -0.54764564 74.45017784 -0.5272522 72.17332458 C-0.47599168 66.19426542 -0.43633331 60.21518378 -0.39910889 54.23602295 C-0.35903119 48.12929756 -0.30795601 42.02266519 -0.2578125 35.91601562 C-0.16112509 23.94406935 -0.07771414 11.97208449 0 0 Z " fill="#DEF5FC" transform="translate(205,156)"/>
<path d="M0 0 C1.85625 -0.01160156 1.85625 -0.01160156 3.75 -0.0234375 C16.84303225 0.00412678 27.47824928 2.19382931 39.5625 7.1875 C48.15078382 10.71841022 56.49034656 13.50284728 65.625 15.25 C66.32133545 15.38486816 67.0176709 15.51973633 67.73510742 15.65869141 C75.39662841 16.86642885 83.34788406 16.1882142 91.06640625 15.94726562 C92.82017578 15.92116211 92.82017578 15.92116211 94.609375 15.89453125 C95.66866211 15.86721924 96.72794922 15.83990723 97.81933594 15.81176758 C100.625 16.25 100.625 16.25 102.96557617 17.90893555 C105.03405241 20.82707865 105.15363306 22.50342577 105.19140625 26.0625 C105.20478027 27.21081299 105.2181543 28.35912598 105.23193359 29.54223633 C105.21727051 30.76579834 105.20260742 31.98936035 105.1875 33.25 C105.17799316 34.50643311 105.16848633 35.76286621 105.15869141 37.05737305 C104.91676729 48.02436664 103.1696215 57.8968976 99.625 68.25 C99.39506348 68.93336426 99.16512695 69.61672852 98.92822266 70.32080078 C94.18404384 84.04299387 87.14488372 96.29760044 77.625 107.25 C76.93792969 108.06984375 76.25085938 108.8896875 75.54296875 109.734375 C57.57931482 130.57868695 31.02291598 144.73863134 3.625 148.25 C1.62520357 148.27853455 -0.37529805 148.28452723 -2.375 148.25 C-2.31699219 147.01765625 -2.25898438 145.7853125 -2.19921875 144.515625 C-1.57349358 125.96747725 -8.40167986 115.20891711 -18.47021484 100.12890625 C-21.87649651 94.98062717 -25.18257286 89.76829058 -28.5 84.5625 C-33.35566118 76.96111551 -38.22719715 69.37090372 -43.13745117 61.8046875 C-48.09262275 54.15993675 -52.99279624 46.47985954 -57.89453125 38.80078125 C-58.54679687 37.77984375 -59.1990625 36.75890625 -59.87109375 35.70703125 C-60.48194824 34.74877441 -61.09280273 33.79051758 -61.72216797 32.80322266 C-63.05973843 30.7370023 -64.43520091 28.71409032 -65.84765625 26.69921875 C-67.375 24.25 -67.375 24.25 -67.375 21.25 C-36.18697861 5.12546973 -36.18697861 5.12546973 -24.375 2.25 C-23.67842285 2.07178711 -22.9818457 1.89357422 -22.26416016 1.70996094 C-14.8493439 -0.00849433 -7.58366719 -0.04710352 0 0 Z " fill="#6DF4C2" transform="translate(374.375,328.75)"/>
<path d="M0 0 C1.26972656 0.33773438 2.53945312 0.67546875 3.84765625 1.0234375 C25.37709804 6.64959092 47.30236312 10.08984617 69.1875 3.875 C74.92274033 2.55871533 81.22830588 1.34571327 86.48046875 4.48046875 C89.86105815 7.86105815 92.1600378 11.61095691 94.625 15.6875 C95.69443448 17.4185115 96.76476383 19.14897044 97.8359375 20.87890625 C98.36928711 21.74531738 98.90263672 22.61172852 99.45214844 23.50439453 C101.66826435 27.07744451 103.9541964 30.60283153 106.25 34.125 C110.6872809 40.96497524 115.11688177 47.80989903 119.52624512 54.66790771 C120.60927161 56.35056342 121.69572463 58.03101209 122.78222656 59.71142578 C123.77561035 61.25805908 123.77561035 61.25805908 124.7890625 62.8359375 C125.38412598 63.75938965 125.97918945 64.6828418 126.59228516 65.63427734 C128 68 128 68 129 71 C87.31900534 91.32256104 48.84843684 106.96449144 2.375 91.9375 C-16.30897479 85.91578583 -35.64321197 86.02193407 -55 88 C-51.4553706 81.06924089 -47.47751095 74.56893448 -43.11157227 68.1394043 C-38.91933511 61.94669934 -34.95295472 55.61961017 -31.02294922 49.2578125 C-30.54229004 48.48695313 -30.06163086 47.71609375 -29.56640625 46.921875 C-29.14302979 46.23706055 -28.71965332 45.55224609 -28.28344727 44.84667969 C-27.0058533 43.00842198 -25.63066834 41.52754425 -24 40 C-23.97421875 40.72445312 -23.9484375 41.44890625 -23.921875 42.1953125 C-23.4974137 49.43044838 -22.47678288 53.83928829 -16.9375 58.875 C-11.77435228 60.85237572 -6.17662163 60.97921548 -0.87109375 59.34375 C3.71252735 57.04698953 6.32766125 53.72833873 8 49 C8.68142592 43.54859262 7.55101129 39.82869995 5 35 C2.06127075 31.49248444 -0.77709965 29.2457841 -5.40234375 28.734375 C-11.92006139 28.76798558 -11.92006139 28.76798558 -18 31 C-16.34110652 26.07182522 -13.54751828 22.0419265 -10.6875 17.75 C-6.84489272 11.96779095 -3.29051722 6.11545457 0 0 Z " fill="#FC9BA1" transform="translate(166,320)"/>
<path d="M0 0 C1.00853027 -0.00700928 2.01706055 -0.01401855 3.05615234 -0.02124023 C6.39188114 -0.03885406 9.72676248 -0.02718497 13.0625 -0.01367188 C15.37890791 -0.0163658 17.69531472 -0.02024739 20.01171875 -0.02526855 C24.86729698 -0.03116822 29.72258096 -0.02258526 34.578125 -0.00390625 C40.80614646 0.01888316 47.03347845 0.00576265 53.26147461 -0.01819611 C58.04497485 -0.0326412 62.82831127 -0.02805393 67.61181641 -0.01768494 C69.90836671 -0.0150141 72.20493183 -0.01829988 74.50146484 -0.02760315 C77.7097114 -0.03774714 80.91683706 -0.02229671 84.125 0 C85.55271729 -0.01214539 85.55271729 -0.01214539 87.00927734 -0.02453613 C93.43747748 0.05834727 93.43747748 0.05834727 96.65478516 2.42224121 C98.23858257 4.7796712 98.55016553 5.89356094 98.4375 8.70507812 C98.42460937 9.39988281 98.41171875 10.0946875 98.3984375 10.81054688 C98.0859055 13.32897336 97.6006193 15.71341395 97.04150391 18.18676758 C96.85891022 18.99765335 96.67631653 19.80853912 96.4881897 20.64399719 C96.3477121 21.2622789 96.2072345 21.88056061 96.0625 22.51757812 C94.96162048 22.50425446 94.96162048 22.50425446 93.83850098 22.49066162 C86.89506346 22.41024866 79.95169626 22.34947864 73.00791168 22.31032944 C69.43866481 22.28952498 65.86980526 22.26134044 62.30078125 22.21582031 C58.85129534 22.17210412 55.40218008 22.14838741 51.95243835 22.13806915 C50.00710818 22.12716807 48.06192548 22.09598347 46.11682129 22.06439209 C37.99144627 22.06234746 32.37002931 22.80046307 26.0390625 28.26367188 C25.59304688 28.82183594 25.14703125 29.38 24.6875 29.95507812 C23.99527344 30.78845703 23.99527344 30.78845703 23.2890625 31.63867188 C20.64595462 35.68750911 19.79998535 39.14732106 19.875 43.95507812 C19.88144531 44.86128906 19.88789063 45.7675 19.89453125 46.70117188 C20.00864033 49.52556364 20.00864033 49.52556364 20.5559082 52.30541992 C21.42442016 57.81241354 21.37181533 63.3272948 21.4375 68.89257812 C21.47488281 70.08625 21.51226562 71.27992188 21.55078125 72.50976562 C21.62400688 79.86487365 21.09875101 84.95636766 16.0625 90.51757812 C11.62441429 94.88651519 6.70749108 97.37642047 1.1875 100.08007812 C-12.34354337 106.96033634 -23.9657804 116.07334504 -34.9375 126.51757812 C-30.06500914 135.33356354 -24.59559961 143.72442015 -19.07348633 152.14160156 C-14.02314729 159.84173694 -9.02657248 167.57419965 -4.0625 175.33007812 C-3.01848022 176.95852661 -3.01848022 176.95852661 -1.95336914 178.61987305 C-1.31133545 179.62381104 -0.66930176 180.62774902 -0.0078125 181.66210938 C0.56179199 182.55260986 1.13139648 183.44311035 1.71826172 184.3605957 C3.0625 186.51757812 3.0625 186.51757812 4.0625 188.51757812 C1.4398768 189.85577311 -1.18536599 191.18829322 -3.8125 192.51757812 C-4.55886719 192.89914062 -5.30523437 193.28070313 -6.07421875 193.67382812 C-6.78964844 194.03476562 -7.50507813 194.39570313 -8.2421875 194.76757812 C-8.90202637 195.10273438 -9.56186523 195.43789063 -10.24169922 195.78320312 C-11.9375 196.51757812 -11.9375 196.51757812 -13.9375 196.51757812 C-14.2675 197.17757812 -14.5975 197.83757812 -14.9375 198.51757812 C-15.43636719 197.66679687 -15.93523437 196.81601562 -16.44921875 195.93945312 C-21.31527682 187.70387281 -26.40407834 179.63891843 -31.64086914 171.63452148 C-36.15876356 164.72751204 -40.61995762 157.78577015 -45.0625 150.83007812 C-57.33917367 131.56889289 -57.33917367 131.56889289 -69.9375 112.51757812 C-62.60942869 94.66066871 -35.59308397 80.47432889 -18.90795898 73.4777832 C-15.59753136 72.12253059 -12.27304074 70.8097973 -8.9375 69.51757812 C-8.04262575 43.34782605 -8.04262575 43.34782605 -12.84375 17.75976562 C-14.08223666 13.47071166 -14.96736831 8.92394325 -13.9375 4.51757812 C-10.38773202 -0.76270558 -5.77884361 -0.04915979 0 0 Z " fill="#9BE5FB" transform="translate(320.9375,153.482421875)"/>
<path d="M0 0 C0.78101074 0.00580078 1.56202148 0.01160156 2.36669922 0.01757812 C11.01569529 0.20406077 19.40898068 1.69380467 27.875 3.375 C28.5378418 5.0925293 28.5378418 5.0925293 28.875 7.375 C27.85864258 9.55395508 27.85864258 9.55395508 26.26953125 11.89453125 C25.69783203 12.75240234 25.12613281 13.61027344 24.53710938 14.49414062 C23.92673828 15.38294922 23.31636719 16.27175781 22.6875 17.1875 C21.5047951 18.94285591 20.32377125 20.69934577 19.14453125 22.45703125 C18.5820166 23.29186035 18.01950195 24.12668945 17.43994141 24.98681641 C15.4362559 28.04454677 13.63584747 31.17226751 11.875 34.375 C12.43703125 34.05402344 12.9990625 33.73304688 13.578125 33.40234375 C17.60468773 31.60134716 21.55928036 31.74090626 25.875 32.375 C30.95559583 34.4413936 34.64495908 37.25902377 36.875 42.375 C38.43692155 46.63478606 38.77059707 51.22637026 37.00390625 55.46484375 C34.2699146 60.27846183 31.27373347 63.74729197 25.875 65.375 C20.41714168 66.22024355 15.58215207 66.33889842 10.875 63.1875 C6.38886302 59.32384136 4.82879367 56.08350166 4.3046875 50.19921875 C4.22202637 49.29647217 4.13936523 48.39372559 4.05419922 47.46362305 C3.99506348 46.77437744 3.93592773 46.08513184 3.875 45.375 C3.23175781 46.44234375 2.58851563 47.5096875 1.92578125 48.609375 C-3.75098296 57.9844436 -9.56852285 67.24520143 -15.61987305 76.38378906 C-18.11548292 80.17583487 -20.48413437 83.96453582 -22.6328125 87.96484375 C-24.66460491 91.70425403 -27.01122148 94.9950222 -29.61181641 98.35595703 C-32.23927224 101.86177499 -34.50587707 105.59110178 -36.8125 109.3125 C-40.34459939 114.97152061 -43.91104651 120.59877808 -47.58740234 126.1652832 C-56.69394699 139.73531835 -56.69394699 139.73531835 -61.27734375 155.234375 C-61.44097412 156.38905273 -61.60460449 157.54373047 -61.77319336 158.73339844 C-61.94733765 160.04099121 -61.94733765 160.04099121 -62.125 161.375 C-67.3027593 161.47408128 -72.47996347 161.54656806 -77.65844727 161.59472656 C-79.41896175 161.61480786 -81.17940982 161.64207879 -82.93969727 161.67675781 C-85.47428802 161.72543112 -88.00799495 161.74800305 -90.54296875 161.765625 C-91.32649216 161.78627014 -92.11001556 161.80691528 -92.9172821 161.82818604 C-96.70567862 161.82973193 -98.8740078 161.53530862 -102.09887695 159.47558594 C-105.17957233 156.28167065 -105.50549519 153.9853902 -105.43359375 149.54248047 C-104.88768153 145.70813817 -102.83965873 143.03439921 -100.625 139.9375 C-99.61029044 138.44646035 -98.59738173 136.95419412 -97.5859375 135.4609375 C-97.03131836 134.65237305 -96.47669922 133.84380859 -95.90527344 133.01074219 C-92.5845402 128.09430828 -89.43178782 123.06947285 -86.25 118.0625 C-80.89345733 109.67591116 -75.49840917 101.31592307 -70.06347656 92.97998047 C-64.97285231 85.16234796 -59.94893551 77.30250077 -54.92578125 69.44140625 C-50.75537592 62.91661024 -46.56570635 56.40509481 -42.34936523 49.90991211 C-38.9317316 44.63838841 -35.5482563 39.3454768 -32.16894531 34.04931641 C-28.82963456 28.81896806 -25.48019235 23.59517252 -22.125 18.375 C-21.5882666 17.53904297 -21.0515332 16.70308594 -20.49853516 15.84179688 C-19.13250741 13.72217641 -17.75646792 11.6095784 -16.375 9.5 C-15.99335693 8.90622559 -15.61171387 8.31245117 -15.21850586 7.70068359 C-10.89704009 1.16416074 -7.74629953 -0.13906586 0 0 Z " fill="#FC828A" transform="translate(137.125,315.625)"/>
<path d="M0 0 C1.73006035 -0.00788544 1.73006035 -0.00788544 3.49507141 -0.01593018 C7.30739892 -0.0291334 11.11930887 -0.02039053 14.93164062 -0.01025391 C17.580531 -0.01227454 20.2294087 -0.01518129 22.8782959 -0.01895142 C28.4298149 -0.02440496 33.98121405 -0.01722797 39.53271484 -0.00292969 C45.9453897 0.01339617 52.35777838 0.00810737 58.7704463 -0.0084089 C64.28228179 -0.02203528 69.79403127 -0.02393784 75.30587816 -0.0160929 C78.59522513 -0.01142266 81.88440856 -0.01195632 85.17375183 -0.02070236 C88.8412923 -0.02831372 92.50828185 -0.01671608 96.17578125 0 C97.80614067 -0.00910904 97.80614067 -0.00910904 99.46943665 -0.0184021 C108.74138222 0.05996065 108.74138222 0.05996065 112.58789062 3.38818359 C116.47924226 8.64676689 117.54790326 12.8932833 116.58789062 19.38818359 C115.15336202 23.61207337 113.35904322 26.14574248 109.56866264 28.55576706 C105.28436596 30.35623646 100.57572222 29.95829913 96.00219727 29.9375 C94.84213669 29.94772186 93.68207611 29.95794373 92.48686218 29.96847534 C88.65704643 29.99624665 84.82795127 29.99435577 80.99804688 29.98974609 C79.00672898 29.99555524 77.01541079 30.00137402 75.02409738 30.00855958 C68.766073 30.03071778 62.50828874 30.03164287 56.25024414 30.01953125 C49.80610313 30.00745079 43.36283538 30.03208108 36.91884333 30.07467139 C31.37465339 30.10995967 25.83074074 30.12189751 20.2864427 30.1153959 C16.98005708 30.11177875 13.67443144 30.11959936 10.36812019 30.14482498 C6.67905636 30.16951793 2.99201037 30.15599596 -0.69702148 30.1328125 C-1.78451691 30.14809998 -2.87201233 30.16338745 -3.99246216 30.17913818 C-10.15567461 30.09358791 -13.68514548 29.3335558 -18.14623356 24.95526695 C-21.0799635 21.3234736 -21.61383472 17.91075018 -21.28710938 13.38818359 C-20.47698641 8.46150558 -18.29258413 4.99189901 -14.48474121 1.74447632 C-9.73761456 -0.35095642 -5.13294424 -0.02867846 0 0 Z " fill="#9BE5FB" transform="translate(139.412109375,126.61181640625)"/>
<path d="M0 0 C1.26757812 1.58789062 1.26757812 1.58789062 2.53125 3.65625 C3.00594727 4.42211426 3.48064453 5.18797852 3.96972656 5.97705078 C4.4747168 6.80962402 4.97970703 7.64219727 5.5 8.5 C6.5876731 10.25835007 7.67623116 12.016153 8.765625 13.7734375 C9.31154297 14.65870117 9.85746094 15.54396484 10.41992188 16.45605469 C12.64851032 20.04410963 14.94355768 23.58668305 17.25 27.125 C22.44563637 35.12443428 27.59206002 43.1549474 32.72753906 51.19311523 C36.24088271 56.69195486 39.7618477 62.18555546 43.30078125 67.66796875 C68.01085838 105.98125503 68.01085838 105.98125503 67 131 C64.6263603 131.50734284 62.25142575 132.00602386 59.875 132.5 C59.20984375 132.64308594 58.5446875 132.78617188 57.859375 132.93359375 C53.83943578 133.7612283 50.10095101 134.15330658 46 134 C46.05800781 132.76765625 46.11601562 131.5353125 46.17578125 130.265625 C46.80150642 111.71747725 39.97332014 100.95891711 29.90478516 85.87890625 C26.49850349 80.73062717 23.19242714 75.51829058 19.875 70.3125 C15.01933882 62.71111551 10.14780285 55.12090372 5.23754883 47.5546875 C0.28237725 39.90993675 -4.61779624 32.22985954 -9.51953125 24.55078125 C-10.17179687 23.52984375 -10.8240625 22.50890625 -11.49609375 21.45703125 C-12.41237549 20.019646 -12.41237549 20.019646 -13.34716797 18.55322266 C-14.68473843 16.4870023 -16.06020091 14.46409032 -17.47265625 12.44921875 C-19 10 -19 10 -19 7 C-16.40163864 5.63354299 -13.79734444 4.28169331 -11.1875 2.9375 C-10.44951172 2.54755859 -9.71152344 2.15761719 -8.95117188 1.75585938 C-8.23896484 1.39169922 -7.52675781 1.02753906 -6.79296875 0.65234375 C-6.1383667 0.31195068 -5.48376465 -0.02844238 -4.80932617 -0.37915039 C-3 -1 -3 -1 0 0 Z " fill="#14E29D" transform="translate(326,343)"/>
<path d="M0 0 C-3.40127559 6.33106857 -7.10398836 12.37927526 -11.0625 18.375 C-12.20897986 20.13108849 -13.3547965 21.88761013 -14.5 23.64453125 C-16.2320873 26.29715158 -17.96606682 28.94841108 -19.70703125 31.59521484 C-29.79641469 46.52413554 -29.79641469 46.52413554 -34.53442383 63.66357422 C-34.66618767 64.88111893 -34.66618767 64.88111893 -34.8006134 66.1232605 C-34.86641098 66.74258453 -34.93220856 67.36190857 -35 68 C-40.1777593 68.09908128 -45.35496347 68.17156806 -50.53344727 68.21972656 C-52.29396175 68.23980786 -54.05440982 68.26707879 -55.81469727 68.30175781 C-58.34928802 68.35043112 -60.88299495 68.37300305 -63.41796875 68.390625 C-64.20149216 68.41127014 -64.98501556 68.43191528 -65.7922821 68.45318604 C-69.58067862 68.45473193 -71.7490078 68.16030862 -74.97387695 66.10058594 C-78.05457233 62.90667065 -78.38049519 60.6103902 -78.30859375 56.16748047 C-77.76282505 52.33414622 -75.7161308 49.65759436 -73.5 46.5625 C-72.49082718 45.09427435 -71.48450215 43.62408873 -70.48046875 42.15234375 C-69.92665527 41.34651855 -69.3728418 40.54069336 -68.80224609 39.71044922 C-66.7794575 36.66831985 -64.8809478 33.56608733 -62.98828125 30.44140625 C-62.2910069 29.3029104 -61.59308868 28.16480864 -60.89453125 27.02709961 C-59.52620234 24.79121038 -58.17281966 22.54609251 -56.8359375 20.29125977 C-51.00454151 10.89810694 -51.00454151 10.89810694 -45.47973633 9.48242188 C-44.66142334 9.32322266 -43.84311035 9.16402344 -43 9 C-41.87037842 8.72736328 -40.74075684 8.45472656 -39.5769043 8.17382812 C-35.54302738 7.20220323 -31.49226018 6.31712402 -27.4375 5.4375 C-25.35162996 4.98083023 -23.26616001 4.52244311 -21.1811676 4.06178284 C-19.29266206 3.64515555 -17.40307542 3.23343749 -15.51342773 2.82202148 C-13.11029969 2.25977201 -10.72560183 1.6140443 -8.36352539 0.89868164 C-5.36965323 0.09876559 -3.06808457 -0.18594452 0 0 Z " fill="#FC6773" transform="translate(110,409)"/>
<path d="M0 0 C5.5223035 4.77632629 9.4188128 10.39621373 10.34765625 17.75390625 C10.76242142 26.08111475 8.91096244 32.5099873 3.390625 38.84765625 C-1.73001207 43.62770048 -7.44031294 46.0829435 -14.4375 46.375 C-22.17006454 46.06836382 -28.59953713 43.64593846 -34 38 C-38.59822859 31.81918325 -40.36743973 25.69396534 -40 18 C-38.88254867 11.41235837 -35.74588469 5.69279873 -31 1 C-21.29846454 -5.46769031 -10.10110416 -5.96048625 0 0 Z " fill="#9DF8D3" transform="translate(378,71)"/>
<path d="M0 0 C5.48952807 4.01258361 10.33747938 9.37614501 11.640625 16.19921875 C12.49843919 24.55677987 11.73677659 31.33102404 6.640625 38.19921875 C4.16256655 40.56441514 1.58978822 42.46372707 -1.359375 44.19921875 C-1.95105469 44.57304688 -2.54273438 44.946875 -3.15234375 45.33203125 C-8.85351924 47.57213914 -16.96647928 47.03163726 -22.875 45.58203125 C-28.97750198 42.86713864 -33.65160062 37.79082673 -36.49609375 31.80859375 C-39.09001319 24.34373962 -38.92179187 17.20714633 -35.734375 9.94921875 C-32.62442782 4.39173191 -27.49707184 -0.06885039 -21.50390625 -2.328125 C-14.19889624 -3.93815453 -6.51772726 -3.90242074 0 0 Z " fill="#FD9BA1" transform="translate(200.359375,46.80078125)"/>
<path d="M0 0 C5.6723946 3.26419488 10.59208241 7.99280972 12.6875 14.3125 C13.66804901 21.42148036 13.64451426 27.70402196 9.24609375 33.59765625 C3.83517064 39.55102779 -0.89423323 43.28599918 -9.125 43.6875 C-15.40466829 43.51979373 -19.75877795 41.77052043 -24.29296875 37.40625 C-30.16448471 30.9173169 -31.90900872 26.55579774 -31.75 17.7109375 C-30.94247895 11.43822931 -28.13758162 6.61619179 -23.23828125 2.62109375 C-16.08460789 -2.02019894 -7.99335896 -3.76873198 0 0 Z " fill="#14E29D" transform="translate(413.3125,375.6875)"/>
<path d="M0 0 C2.21446298 4.42892595 -1.3842359 11.11298098 -2.84765625 15.59765625 C-5.24030668 22.1334243 -8.74651854 27.51734199 -13 33 C-13.60457031 34.07636719 -14.20914063 35.15273438 -14.83203125 36.26171875 C-16.80060774 38.58690259 -17.88708739 38.97982195 -20.93725586 39.52490234 C-24.71983591 39.7040371 -28.46791982 39.67778431 -32.25 39.5625 C-33.6062677 39.54196345 -34.96255104 39.522435 -36.31884766 39.50390625 C-46.09134879 39.31225403 -55.5106119 38.33756188 -65 36 C-65 35.67 -65 35.34 -65 35 C-64.34515625 34.97421875 -63.6903125 34.9484375 -63.015625 34.921875 C-50.67636975 34.15502863 -40.11326333 30.61095748 -31 22 C-27.4088717 17.43066673 -24.53543008 12.93657468 -22.98046875 7.3125 C-21 4 -21 4 -18.79541016 3.06860352 C-15.97284901 2.40856714 -13.18484795 1.95116754 -10.3125 1.5625 C-9.32443359 1.40330078 -8.33636719 1.24410156 -7.31835938 1.08007812 C-4.88184064 0.6916476 -2.44460698 0.33299477 0 0 Z " fill="#9BE5FA" transform="translate(393,473)"/>
<path d="M0 0 C3.68008196 1.87612022 6.30034471 4.52955031 8.12890625 8.234375 C9.74596178 13.38992853 9.82791821 18.66950198 7.875 23.73046875 C5.32750254 28.20713904 2.77176607 30.65877141 -2.20703125 32.3515625 C-8.14002042 33.91876719 -12.82602168 33.14807216 -18.20703125 30.3515625 C-22.76253032 26.50200034 -24.92147934 21.87393773 -25.58203125 16.0390625 C-24.98275776 10.14620649 -22.92460727 5.94645452 -18.58203125 1.9140625 C-13.09420333 -1.6963506 -6.30280965 -1.85179894 0 0 Z " fill="#FD9BA1" transform="translate(133.20703125,0.6484375)"/>
</svg>
