<?xml version="1.0" encoding="UTF-8"?>
<svg version="1.1" xmlns="http://www.w3.org/2000/svg" width="512" height="512">
<path d="M0 0 C1.32020557 1.11594735 2.63351011 2.24014687 3.9375 3.375 C4.51242188 3.808125 5.08734375 4.24125 5.6796875 4.6875 C20.94523128 16.50598551 29.79030577 36.336553 32.45605469 55.00683594 C32.99323968 59.3710957 33.08896703 63.68140064 33.11328125 68.07421875 C33.13645357 69.71160176 33.16056979 71.34897165 33.18554688 72.98632812 C33.22076401 75.53402923 33.25009801 78.08123429 33.26342773 80.62915039 C33.27890771 83.11142373 33.31907235 85.59231247 33.36328125 88.07421875 C33.36041862 89.21185921 33.36041862 89.21185921 33.35749817 90.3724823 C33.47279841 95.36855632 34.50629881 97.78617454 37.9375 101.375 C40.98103269 107.46206538 40.91320121 114.36721463 39.3203125 120.91015625 C36.69238996 127.68926616 32.04877768 132.53507635 25.40625 135.5078125 C20.63487824 137.10306029 16.89368484 137.80968509 11.9375 136.375 C11.93492187 137.055625 11.93234375 137.73625 11.9296875 138.4375 C11.35236233 152.90911771 5.78939018 165.749554 -4.0625 176.375 C-4.790634 176.87592163 -5.51876801 177.37684326 -6.26896667 177.89294434 C-10.19460847 180.73375385 -12.71086386 182.80302961 -13.7948761 187.64904785 C-13.94728892 191.42707019 -13.8493765 195.1008722 -13.625 198.875 C-13.58439453 200.174375 -13.54378906 201.47375 -13.50195312 202.8125 C-13.39635554 206.0038938 -13.24882142 209.18747053 -13.0625 212.375 C-12.42167984 212.62174973 -11.78085968 212.86849945 -11.12062073 213.12272644 C3.59159043 218.78833422 18.30061037 224.46209809 33.00450134 230.14926147 C39.43183239 232.63501509 45.86090803 235.1160727 52.29405212 237.58674622 C55.31876695 238.7503587 58.34059672 239.92129163 61.36135864 241.09512329 C62.68340554 241.60714773 64.00667783 242.11602161 65.33126831 242.62142944 C81.36736058 248.74478294 93.78872541 256.54108611 102.9375 271.375 C103.33839844 272.02082031 103.73929687 272.66664063 104.15234375 273.33203125 C110.14141839 284.06716504 110.37899551 296.36424869 110.32568359 308.33544922 C110.3297592 309.89249538 110.33510658 311.44953864 110.34161377 313.00657654 C110.35516892 317.19423329 110.35003995 321.38166577 110.34047651 325.56932592 C110.3328263 329.96892194 110.33993954 334.36850007 110.34463501 338.76809692 C110.35007361 346.14653947 110.34294735 353.52489154 110.32861328 360.90332031 C110.31225403 369.42238005 110.31760659 377.94122472 110.3340925 386.46027935 C110.34771821 393.79648992 110.34962281 401.13263589 110.34177649 408.46885502 C110.33711061 412.84130132 110.33644593 417.21364655 110.34638596 421.58608627 C110.35507049 425.6919034 110.34900677 429.79744339 110.33170319 433.90323067 C110.32774783 435.40642525 110.32885607 436.9096433 110.33549118 438.41282845 C110.39563418 453.42523415 110.39563418 453.42523415 106.9375 458.375 C100.71317377 461.95716091 94.87706569 461.79754306 87.82286072 461.75595093 C86.60421454 461.7606309 85.38556835 461.76531087 84.1299935 461.77013266 C80.75954558 461.78000967 77.38960105 461.77648041 74.01918399 461.76717401 C70.37974073 461.76037686 66.74034095 461.77086798 63.10090637 461.77911377 C55.9763671 461.79244582 48.8519227 461.78957585 41.72737973 461.78087585 C35.93716271 461.77409816 30.14697225 461.77318295 24.3567524 461.7764473 C23.12018707 461.77713684 23.12018707 461.77713684 21.85864063 461.77784032 C20.18389975 461.77879951 18.50915887 461.77977215 16.83441801 461.7807581 C1.13486718 461.7893103 -14.56463106 461.77948024 -30.26417326 461.763357 C-43.73449143 461.74995147 -57.20473205 461.75228416 -70.67504883 461.76611328 C-86.32032579 461.78216779 -101.96555669 461.78848897 -117.61084074 461.77927649 C-119.27908321 461.77832085 -120.94732568 461.77737773 -122.61556816 461.7764473 C-123.84676167 461.77575306 -123.84676167 461.77575306 -125.10282778 461.77504479 C-130.88646026 461.7724547 -136.67006352 461.77682626 -142.45369148 461.78388596 C-149.5013922 461.7922996 -156.54899267 461.79002359 -163.5966819 461.77404372 C-167.19237811 461.76615953 -170.78790717 461.76307187 -174.38360214 461.77299118 C-178.2807774 461.78357961 -182.17767897 461.77093641 -186.07484436 461.75595093 C-187.21209507 461.76264309 -188.34934577 461.76933526 -189.52105862 461.77623022 C-196.13074514 461.72677999 -200.92422269 461.37658677 -205.91369057 456.60443974 C-207.49392812 453.53774799 -207.44019977 451.14976601 -207.44345093 447.70396423 C-207.4481309 447.03452162 -207.45281087 446.365079 -207.45763266 445.67535025 C-207.46959447 443.43302325 -207.46012094 441.19130611 -207.45068359 438.94897461 C-207.45474906 437.34063358 -207.46009079 435.73229534 -207.46661377 434.1239624 C-207.48030394 429.75369586 -207.4749797 425.38364154 -207.46547651 421.01337123 C-207.45787957 416.43408433 -207.46492647 411.85481557 -207.46963501 407.27552795 C-207.47509632 399.57761377 -207.46789514 391.87978585 -207.45361328 384.18188477 C-207.4373266 375.30125537 -207.4425447 366.42083303 -207.4590925 357.54020876 C-207.47274521 349.90603115 -207.47460736 342.27191559 -207.46677649 334.6377297 C-207.4621155 330.08281764 -207.46143076 325.52800256 -207.47138596 320.97309685 C-207.48010706 316.68271683 -207.4739406 312.39260089 -207.45670319 308.10224915 C-207.45276389 306.53462727 -207.4538281 304.96698286 -207.46049118 303.39937019 C-207.52549566 286.53985453 -204.21259871 273.13256674 -192.375 260.69140625 C-191.611875 259.92699219 -190.84875 259.16257812 -190.0625 258.375 C-189.423125 257.72402344 -188.78375 257.07304687 -188.125 256.40234375 C-177.13847731 245.98803578 -160.90950515 241.66794914 -147.0625 236.375 C-144.88590867 235.53797844 -142.70955991 234.70032584 -140.53344727 233.86206055 C-136.15097874 232.17436895 -131.767512 230.48931129 -127.38330078 228.80615234 C-119.03121605 225.59706383 -110.69265168 222.35341546 -102.35571289 219.10522461 C-99.36801114 217.94129354 -96.37976631 216.77876096 -93.39147949 215.61633301 C-90.61503879 214.53618219 -87.83878609 213.45554817 -85.0625 212.375 C-84.7325 203.135 -84.4025 193.895 -84.0625 184.375 C-86.0425 183.385 -86.0425 183.385 -88.0625 182.375 C-100.6830502 172.92236119 -108.58171232 158.91256493 -111.0625 143.375 C-111.10444881 141.37543997 -111.11557864 139.37429554 -111.0625 137.375 C-112.031875 137.436875 -113.00125 137.49875 -114 137.5625 C-121.74724004 137.50002226 -127.78410396 134.6350469 -133.33203125 129.30859375 C-138.78155423 123.21939765 -139.70595273 117.62549226 -139.4609375 109.51171875 C-138.78642287 104.20156929 -136.89065985 100.20315985 -133.0625 96.375 C-132.85250514 93.61180035 -132.76134358 90.94108564 -132.75390625 88.17578125 C-132.7286932 86.47330465 -132.70329617 84.77083077 -132.67773438 83.06835938 C-132.64931041 80.39869288 -132.62529738 77.72907565 -132.60620117 75.05932617 C-132.37575442 48.08692665 -126.06842358 25.90352448 -106.83203125 6.05859375 C-78.4951377 -21.39901679 -31.22521076 -23.8687628 0 0 Z " fill="#E3E9F7" transform="translate(207.0625,33.625)"/>
<path d="M0 0 C1.32020557 1.11594735 2.63351011 2.24014687 3.9375 3.375 C4.51242188 3.808125 5.08734375 4.24125 5.6796875 4.6875 C20.94523128 16.50598551 29.79030577 36.336553 32.45605469 55.00683594 C32.99323968 59.3710957 33.08896703 63.68140064 33.11328125 68.07421875 C33.13645357 69.71160176 33.16056979 71.34897165 33.18554688 72.98632812 C33.22076401 75.53402923 33.25009801 78.08123429 33.26342773 80.62915039 C33.27890771 83.11142373 33.31907235 85.59231247 33.36328125 88.07421875 C33.36041862 89.21185921 33.36041862 89.21185921 33.35749817 90.3724823 C33.47279841 95.36855632 34.50629881 97.78617454 37.9375 101.375 C40.98103269 107.46206538 40.91320121 114.36721463 39.3203125 120.91015625 C36.69238996 127.68926616 32.04877768 132.53507635 25.40625 135.5078125 C20.63487824 137.10306029 16.89368484 137.80968509 11.9375 136.375 C11.93492187 137.055625 11.93234375 137.73625 11.9296875 138.4375 C11.35236233 152.90911771 5.78939018 165.749554 -4.0625 176.375 C-4.81877686 176.91906494 -5.57505371 177.46312988 -6.35424805 178.02368164 C-11.39369153 181.73832023 -11.39369153 181.73832023 -13.6550293 187.36474609 C-13.66868949 190.86845773 -13.48578668 194.31695069 -13.25 197.8125 C-13.05200642 209.14799893 -14.50156237 215.53277066 -22.34887695 223.75195312 C-23.62527662 225.027869 -24.9151332 226.29047941 -26.21875 227.53857422 C-29.09278608 230.40119332 -31.49451491 233.58262762 -33.9375 236.8125 C-34.81454903 237.9402489 -35.69339726 239.06660134 -36.57421875 240.19140625 C-36.98849121 240.72266113 -37.40276367 241.25391602 -37.82958984 241.80126953 C-40.87314543 245.68617237 -43.96986193 249.52914062 -47.0625 253.375 C-45.67036351 256.69275431 -44.20559778 258.29213498 -41.25390625 260.3203125 C-40.50689453 260.83980469 -39.75988281 261.35929687 -38.99023438 261.89453125 C-38.20970703 262.42433594 -37.42917969 262.95414062 -36.625 263.5 C-35.84833984 264.03753906 -35.07167969 264.57507813 -34.27148438 265.12890625 C-31.21894914 267.23754816 -28.14945091 269.31703273 -25.0625 271.375 C-26.88089208 276.65699605 -30.09362409 280.5658944 -33.48046875 284.94921875 C-35.09515746 288.44571752 -35.20370903 289.32223683 -34.76635742 292.94628906 C-34.65989395 293.8338237 -34.55343048 294.72135834 -34.44374084 295.63578796 C-33.837362 299.99261448 -33.13663064 304.32655526 -32.3828125 308.66015625 C-32.21413162 309.64680267 -32.04545074 310.6334491 -31.87165833 311.6499939 C-31.50519264 313.79124062 -31.13718461 315.93222384 -30.76779175 318.07296753 C-30.1770643 321.49800619 -29.59097926 324.92381102 -29.00610352 328.34985352 C-27.44923225 337.46512296 -25.88564536 346.57923956 -24.3213501 355.6932373 C-22.91708824 363.87602642 -21.51580939 372.05931154 -20.12117004 380.24374676 C-19.37875018 384.59920648 -18.63173776 388.95384578 -17.8812952 393.30792999 C-17.30099477 396.6824738 -16.72719441 400.05811743 -16.15234375 403.43359375 C-15.94027786 404.65629974 -15.72821198 405.87900574 -15.50971985 407.13876343 C-15.31822861 408.27044952 -15.12673737 409.40213562 -14.92944336 410.56811523 C-14.76117538 411.54965073 -14.59290741 412.53118622 -14.41954041 413.54246521 C-13.43787271 421.33040145 -13.43787271 421.33040145 -15.20703125 424.2890625 C-15.75746094 424.85367187 -16.30789062 425.41828125 -16.875 426 C-17.83212891 427.01320313 -17.83212891 427.01320313 -18.80859375 428.046875 C-19.55238281 428.81515625 -20.29617187 429.5834375 -21.0625 430.375 C-22.38793838 431.81803367 -23.71315726 433.26128189 -25.03295898 434.70947266 C-26.44737004 436.26082565 -27.86759795 437.80667228 -29.2890625 439.3515625 C-35.64609835 446.27171294 -41.90000556 453.28119611 -48.0625 460.375 C-51.1371802 459.02982741 -52.93821902 457.64593546 -55.0625 455.0625 C-58.22378698 451.32704765 -61.4841969 447.71075557 -64.8125 444.125 C-65.84637533 443.00783209 -66.88022927 441.89064438 -67.9140625 440.7734375 C-69.49160396 439.07039864 -71.06937968 437.36757775 -72.64746094 435.66503906 C-74.16281389 434.02853359 -75.67541514 432.38952478 -77.1875 430.75 C-78.07695312 429.78835938 -78.96640625 428.82671875 -79.8828125 427.8359375 C-84.0486201 423.13260634 -84.0486201 423.13260634 -84.1081562 419.88294888 C-83.37183783 412.61857827 -82.36118897 405.45087101 -81.09716797 398.26000977 C-80.80193237 396.54304649 -80.80193237 396.54304649 -80.50073242 394.79139709 C-80.07679852 392.32919794 -79.6505849 389.86739039 -79.22228622 387.40594673 C-78.54497701 383.51055862 -77.87460309 379.61401267 -77.20657349 375.71702576 C-75.42759065 365.34698246 -73.63808348 354.97876298 -71.841591 344.6117391 C-70.65717399 337.7767257 -69.47788064 330.94087357 -68.30840027 324.10328716 C-67.7541136 320.86459851 -67.19520892 317.62681043 -66.63012314 314.38998604 C-66.00162994 310.78941255 -65.38412702 307.18711316 -64.76904297 303.58422852 C-64.58000397 302.51767029 -64.39096497 301.45111206 -64.19619751 300.35223389 C-64.03073425 299.36983231 -63.865271 298.38743073 -63.6947937 297.3752594 C-63.54768385 296.52528161 -63.400574 295.67530382 -63.24900627 294.79956913 C-62.92648858 290.60686052 -63.78307791 287.34948146 -66.12890625 283.89453125 C-66.53173828 283.28802734 -66.93457031 282.68152344 -67.34960938 282.05664062 C-67.77048828 281.43982422 -68.19136719 280.82300781 -68.625 280.1875 C-73.0625 273.62215478 -73.0625 273.62215478 -73.0625 271.375 C-71.27416992 269.91040039 -71.27416992 269.91040039 -68.79296875 268.22265625 C-67.90416016 267.61099609 -67.01535156 266.99933594 -66.09960938 266.36914062 C-64.68905273 265.41297852 -64.68905273 265.41297852 -63.25 264.4375 C-61.40827472 263.18113917 -59.56835461 261.92212698 -57.73046875 260.66015625 C-56.90828857 260.10207275 -56.0861084 259.54398926 -55.23901367 258.96899414 C-53.31072224 257.55678833 -51.68938076 256.1182509 -50.0625 254.375 C-55.42248808 247.472648 -60.82554665 240.61113436 -66.38964844 233.87158203 C-67.59421297 232.40824223 -68.79013152 230.93774486 -69.97753906 229.46044922 C-72.51118968 226.32894719 -74.91793386 223.50198377 -77.953125 220.8359375 C-81.69835468 217.40869902 -83.80802519 214.09042285 -84.55932617 209.02587891 C-84.58216675 207.26896729 -84.58216675 207.26896729 -84.60546875 205.4765625 C-84.62496582 204.20530518 -84.64446289 202.93404785 -84.66455078 201.62426758 C-84.60669342 195.86531769 -84.4052171 190.12385969 -84.0625 184.375 C-84.6827002 184.07480957 -85.30290039 183.77461914 -85.94189453 183.46533203 C-97.62971568 177.45591351 -105.20988699 164.19993762 -109.10546875 152.1484375 C-110.44205265 147.09075384 -111.20186666 142.62447754 -111.0625 137.375 C-112.031875 137.436875 -113.00125 137.49875 -114 137.5625 C-121.74724004 137.50002226 -127.78410396 134.6350469 -133.33203125 129.30859375 C-138.78155423 123.21939765 -139.70595273 117.62549226 -139.4609375 109.51171875 C-138.78642287 104.20156929 -136.89065985 100.20315985 -133.0625 96.375 C-132.85250514 93.61180035 -132.76134358 90.94108564 -132.75390625 88.17578125 C-132.7286932 86.47330465 -132.70329617 84.77083077 -132.67773438 83.06835938 C-132.64931041 80.39869288 -132.62529738 77.72907565 -132.60620117 75.05932617 C-132.37575442 48.08692665 -126.06842358 25.90352448 -106.83203125 6.05859375 C-78.4951377 -21.39901679 -31.22521076 -23.8687628 0 0 Z " fill="#FECCBE" transform="translate(207.0625,33.625)"/>
<path d="M0 0 C1.32020557 1.11594735 2.63351011 2.24014687 3.9375 3.375 C4.51242188 3.808125 5.08734375 4.24125 5.6796875 4.6875 C20.95617562 16.51445854 29.77134151 36.33414114 32.4609375 55.00952148 C32.99625438 59.36383447 33.06546909 63.64892941 33.03515625 68.03125 C33.03303383 69.21285706 33.03303383 69.21285706 33.03086853 70.41833496 C33.02532612 72.90393064 33.01278485 75.38943211 33 77.875 C32.99497754 79.57291535 32.99041595 81.27083214 32.98632812 82.96875 C32.97537564 87.10420229 32.95815166 91.23958524 32.9375 95.375 C32.20942139 95.02348877 31.48134277 94.67197754 30.73120117 94.30981445 C29.76158447 93.8530835 28.79196777 93.39635254 27.79296875 92.92578125 C26.36053833 92.2438269 26.36053833 92.2438269 24.89916992 91.5480957 C20.63103592 89.85751917 16.49484971 89.4837437 11.9375 89.375 C11.94652344 88.818125 11.95554688 88.26125 11.96484375 87.6875 C11.68416736 80.46313391 8.89211576 77.3480687 3.9375 72.375 C2.40992431 70.67269295 0.88928532 68.96414024 -0.625 67.25 C-2.10300511 65.62394344 -3.58208139 63.99885953 -5.0625 62.375 C-5.63355469 61.7253125 -6.20460938 61.075625 -6.79296875 60.40625 C-9.55546057 57.33405486 -9.55546057 57.33405486 -13.33984375 56.00390625 C-16.98117107 56.50021342 -19.25413033 58.00483453 -22.375 59.9375 C-32.98952685 66.2631443 -44.06179731 70.89452939 -55.8125 74.6875 C-56.92757935 75.05125732 -56.92757935 75.05125732 -58.06518555 75.42236328 C-70.24681226 79.19372348 -82.68141447 79.86168897 -95.32617188 80.47949219 C-97.38722275 80.58263936 -99.44742291 80.69699661 -101.5078125 80.8125 C-102.71969238 80.87308594 -103.93157227 80.93367188 -105.18017578 80.99609375 C-108.18727561 81.09383384 -108.18727561 81.09383384 -110.0625 83.375 C-110.46014263 85.36321313 -110.80025349 87.36444339 -111.0625 89.375 C-111.6915625 89.40078125 -112.320625 89.4265625 -112.96875 89.453125 C-120.62592492 89.96052816 -125.74429019 92.16286013 -132.0625 96.375 C-132.13770671 91.09548923 -132.1915908 85.81630292 -132.22729492 80.53637695 C-132.24220825 78.74725907 -132.26254617 76.95817659 -132.28881836 75.16918945 C-132.67514305 48.14918633 -126.04757647 25.88201788 -106.83203125 6.05859375 C-78.4951377 -21.39901679 -31.22521076 -23.8687628 0 0 Z " fill="#576574" transform="translate(207.0625,33.625)"/>
<path d="M0 0 C0.88616959 -0.00538554 1.77233918 -0.01077108 2.6853624 -0.01631981 C5.65480851 -0.03062747 8.62381061 -0.0234887 11.59327698 -0.01637268 C13.72218688 -0.02207477 15.85109372 -0.0290384 17.97999573 -0.03717041 C23.76301991 -0.05513458 29.54589262 -0.0539273 35.32893634 -0.04822803 C40.15514029 -0.04514093 44.98131494 -0.05122328 49.80751473 -0.05726677 C61.19201878 -0.07132106 72.57644782 -0.06974313 83.96095276 -0.05836487 C95.70973787 -0.04688208 107.45829475 -0.0609601 119.20704979 -0.08776134 C129.29125371 -0.10990498 139.37538592 -0.11655874 149.45961243 -0.11068493 C155.4837551 -0.10731105 161.50775145 -0.10975916 167.5318737 -0.12693596 C173.19625002 -0.14238165 178.86028775 -0.13847571 184.52465057 -0.11963081 C186.60394538 -0.1159384 188.68326515 -0.11907232 190.762537 -0.1295166 C193.60038438 -0.14268332 196.43710372 -0.13121716 199.27490234 -0.11352539 C200.51007454 -0.1279329 200.51007454 -0.1279329 201.77019972 -0.14263147 C207.04593155 -0.07492711 209.9836315 0.94580531 214.20094299 4.38768005 C218.70426126 9.01609049 217.71481829 14.67142628 217.70094299 20.76268005 C217.72930237 21.88674255 217.75766174 23.01080505 217.78688049 24.16893005 C217.80870999 33.40280774 217.80870999 33.40280774 214.91969299 37.05174255 C209.87564572 41.38556478 206.07613064 41.67960384 199.5221405 41.65510559 C198.63682534 41.6596367 197.75151017 41.66416782 196.83936727 41.66883624 C193.86690355 41.68151669 190.89462221 41.67985752 187.9221344 41.6782074 C185.79337325 41.68419035 183.66461427 41.69099536 181.53585815 41.69856262 C175.74867507 41.7162531 169.9615511 41.72091928 164.17434359 41.72219419 C159.34570927 41.72409182 154.51708876 41.73144774 149.68845975 41.73853838 C138.29775696 41.75483138 126.90708579 41.75970649 115.51637268 41.75828552 C103.76023341 41.75708371 92.00427763 41.77819151 80.2481848 41.80977285 C70.15976236 41.83590997 60.07139994 41.8466539 49.98294389 41.8453747 C43.95542288 41.84486433 37.92806488 41.85058898 31.90057755 41.8717308 C26.23212526 41.89107001 20.56399223 41.8912671 14.89552879 41.87669754 C12.81461688 41.87460301 10.7336852 41.87934848 8.65280724 41.89141846 C5.81273197 41.90682563 2.97376373 41.89759264 0.13371277 41.88215637 C-0.69041748 41.8924435 -1.51454774 41.90273062 -2.36365163 41.91332948 C-7.62934467 41.85005121 -10.61902311 40.87180186 -14.79905701 37.38768005 C-18.46933901 32.22755842 -18.28356417 27.04829168 -18.23655701 20.95018005 C-18.26652771 19.57636169 -18.26652771 19.57636169 -18.29710388 18.17478943 C-18.292709 12.05271348 -17.51720804 8.31343569 -13.79905701 3.38768005 C-9.3614823 -0.14260566 -5.42215373 -0.03946739 0 0 Z " fill="#FDCA59" transform="translate(294.79905700683594,104.61231994628906)"/>
<path d="M0 0 C0.87815135 -0.00623996 1.75630269 -0.01247993 2.66106468 -0.01890898 C5.59756519 -0.03483754 8.53323546 -0.02223515 11.46974182 -0.00964355 C13.57747379 -0.01506476 15.68520197 -0.02218741 17.79292297 -0.03088379 C23.51402409 -0.04912117 29.2348367 -0.04204745 34.95594287 -0.02936745 C40.9437912 -0.01924069 46.93161482 -0.02863236 52.91946411 -0.03491211 C62.97614476 -0.04219 73.03270792 -0.0325976 83.08937073 -0.0135498 C94.71376639 0.0082132 106.33788136 0.00117215 117.9622702 -0.02085543 C127.94375874 -0.03901237 137.92516281 -0.0415661 147.90666252 -0.03110075 C153.86765617 -0.02486672 159.82851794 -0.02402772 165.7895031 -0.0372467 C171.39481607 -0.04880853 176.99976754 -0.04077299 182.6050415 -0.01766968 C184.66133588 -0.01238417 186.71766072 -0.01389364 188.77394295 -0.02272034 C191.58294057 -0.03366561 194.39078284 -0.01992424 197.19970703 0 C198.01177831 -0.00892289 198.82384958 -0.01784577 199.66052908 -0.02703905 C206.05113293 0.06076812 210.4327082 1.80274248 215.07594299 6.40270996 C216.48152799 9.12394018 216.55137963 11.13372729 216.56178284 14.19152832 C216.56565002 15.28400879 216.56951721 16.37648926 216.57350159 17.5020752 C216.55609924 19.20653809 216.55609924 19.20653809 216.53834534 20.94543457 C216.5499469 22.07787598 216.56154846 23.21031738 216.57350159 24.3770752 C216.5696344 25.47084473 216.56576721 26.56461426 216.56178284 27.69152832 C216.55839905 28.68724854 216.55501526 29.68296875 216.55152893 30.7088623 C215.96257797 34.95560617 214.47070731 37.47887443 211.10393429 40.12895298 C207.09673097 42.00812062 203.70017031 41.92730215 199.32632446 41.89561462 C198.43607132 41.90100016 197.54581818 41.9063857 196.62858766 41.91193444 C193.64532268 41.92624261 190.66249963 41.91910319 187.67921448 41.9119873 C185.5404525 41.91768936 183.40169357 41.92465298 181.26293945 41.93278503 C175.45305683 41.9507495 169.64332497 41.94954186 163.8334229 41.94384265 C158.98485105 41.9407556 154.13630836 41.94683786 149.28774065 41.9528814 C137.85049899 41.96693578 126.41333202 41.96535767 114.97608948 41.95397949 C103.17277319 41.94249668 91.36968407 41.95657473 79.56639773 41.98337597 C69.43548514 42.00551941 59.30464393 42.01217341 49.17370886 42.00629956 C43.12162077 42.00292563 37.06967832 42.00537409 31.01761055 42.02255058 C25.32696995 42.03799596 19.63666637 42.03409068 13.9460392 42.01524544 C11.85706904 42.01155293 9.76807405 42.0146872 7.67912674 42.02513123 C4.82814395 42.03829734 1.9782841 42.02683229 -0.87265015 42.00914001 C-1.69998923 42.01874502 -2.52732831 42.02835003 -3.37973827 42.0382461 C-8.65299036 41.9708804 -11.65092229 40.99838274 -15.83665466 37.50793457 C-19.52034546 32.33674918 -19.32104977 27.12135154 -19.27415466 21.00793457 C-19.29413513 20.08367676 -19.3141156 19.15941895 -19.33470154 18.20715332 C-19.3306085 12.48509155 -18.82935304 8.91916872 -14.83665466 4.50793457 C-9.81144921 0.38160133 -6.22523928 -0.06821438 0 0 Z " fill="#338DEF" transform="translate(295.83665466308594,191.4920654296875)"/>
<path d="M0 0 C1.34128176 -0.00701996 1.34128176 -0.00701996 2.70966011 -0.01418173 C5.71219406 -0.02616765 8.71427462 -0.01666036 11.71681213 -0.00723267 C13.8669003 -0.01129679 16.01698638 -0.01663778 18.16706848 -0.02316284 C24.01207415 -0.03686191 29.8569213 -0.03152684 35.70192981 -0.02202559 C41.81350816 -0.01444145 47.92507274 -0.02147122 54.03665161 -0.02618408 C64.30197084 -0.03164568 74.56722538 -0.02443983 84.83253479 -0.01016235 C96.70568576 0.00616055 108.57868216 0.00087983 120.45182937 -0.01564157 C130.63875383 -0.02925009 140.82563172 -0.03117906 151.01256233 -0.02332556 C157.09981543 -0.01864501 163.18699586 -0.01803464 169.27424431 -0.02793503 C174.99765644 -0.03659298 180.72086909 -0.03060404 186.44425964 -0.01325226 C188.54654674 -0.00928099 190.64885059 -0.01043237 192.75113106 -0.01704025 C195.6176809 -0.0252205 198.48358886 -0.01497651 201.35009766 0 C202.18492265 -0.00669217 203.01974764 -0.01338433 203.87987036 -0.02027929 C208.49610152 0.02660044 211.47678605 0.41412475 215.23854065 3.38095093 C219.39352123 8.79441393 218.71718852 14.33469845 218.67604065 20.88095093 C218.69602112 22.00888062 218.71600159 23.1368103 218.73658752 24.29891968 C218.73175998 32.45747644 218.73175998 32.45747644 216.5861969 36.47470093 C210.98515935 41.02263159 206.3497055 41.81991683 199.39515686 41.76863098 C198.07687149 41.77670929 198.07687149 41.77670929 196.7319541 41.78495079 C193.7932511 41.7992343 190.85499829 41.79212567 187.91627502 41.78500366 C185.80692177 41.79070697 183.69757161 41.79767107 181.58822632 41.80580139 C175.86311026 41.82375091 170.13814731 41.82256116 164.41301155 41.81685901 C159.63397856 41.81377017 154.85497512 41.81985612 150.07594633 41.82589775 C138.8031338 41.83994688 127.53039704 41.83837806 116.25758362 41.82699585 C104.62522444 41.81551022 92.9930957 41.82959703 81.36076689 41.85639232 C71.37420638 41.87853585 61.38771828 41.88518985 51.40113497 41.87931591 C45.43625146 41.87594241 39.47151572 41.8783878 33.50665283 41.89556694 C27.89889561 41.91101273 22.29148039 41.90710661 16.6837368 41.8882618 C14.6254044 41.88456958 12.56704678 41.88770273 10.50873756 41.89814758 C7.6994037 41.91131552 4.89120908 41.89984719 2.08192444 41.88215637 C1.26694032 41.89176138 0.45195621 41.90136639 -0.3877244 41.91126245 C-5.63867859 41.84320116 -8.57579492 40.8198676 -12.76145935 37.38095093 C-17.41646179 32.22165655 -17.37266794 27.55572858 -17.26145935 20.94345093 C-17.2769281 20.02757202 -17.29239685 19.11169312 -17.30833435 18.1680603 C-17.26867728 11.26277267 -16.058091 6.83156722 -11.17037868 1.71555138 C-7.57070683 -0.2787552 -4.00986025 -0.03205838 0 0 Z " fill="#ED5253" transform="translate(293.76145935058594,17.619049072265625)"/>
<path d="M0 0 C2.41350108 0.93503657 4.21557129 2.13882878 6.29907227 3.67553711 C7.08475586 4.24981445 7.87043945 4.8240918 8.67993164 5.41577148 C9.49139648 6.0184082 10.30286133 6.62104492 11.13891602 7.24194336 C12.7545687 8.42845825 14.37044493 9.61466882 15.98657227 10.80053711 C16.69950439 11.32832764 17.41243652 11.85611816 18.14697266 12.39990234 C19.76145743 13.57516881 21.41485254 14.69673438 23.07641602 15.80444336 C21.25802393 21.08643941 18.04529193 24.99533776 14.65844727 29.37866211 C13.04375855 32.87516088 12.93520699 33.75168019 13.37255859 37.37573242 C13.47902206 38.26326706 13.58548553 39.1508017 13.69517517 40.06523132 C14.30155401 44.42205784 15.00228537 48.75599862 15.75610352 53.08959961 C16.00912483 54.56956924 16.00912483 54.56956924 16.26725769 56.07943726 C16.63372337 58.22068398 17.0017314 60.3616672 17.37112427 62.50241089 C17.96185171 65.92744955 18.54793676 69.35325438 19.1328125 72.77929688 C20.68968376 81.89456632 22.25327065 91.00868292 23.81756592 100.12268066 C25.22182778 108.30546978 26.62310663 116.4887549 28.01774597 124.67319012 C28.76016583 129.02864984 29.50717825 133.38328914 30.25762081 137.73737335 C30.83792125 141.11191716 31.41172161 144.48756079 31.98657227 147.86303711 C32.19863815 149.0857431 32.41070404 150.3084491 32.62919617 151.56820679 C32.82068741 152.69989288 33.01217865 153.83157898 33.20947266 154.99755859 C33.37774063 155.97909409 33.54600861 156.96062958 33.71937561 157.97190857 C34.70104331 165.75984481 34.70104331 165.75984481 32.93188477 168.71850586 C32.38145508 169.28311523 31.83102539 169.84772461 31.26391602 170.42944336 C30.30678711 171.44264648 30.30678711 171.44264648 29.33032227 172.47631836 C28.5865332 173.24459961 27.84274414 174.01288086 27.07641602 174.80444336 C25.75097763 176.24747703 24.42575876 177.69072525 23.10595703 179.13891602 C21.69154598 180.69026901 20.27131806 182.23611564 18.84985352 183.78100586 C12.49281767 190.7011563 6.23891046 197.71063947 0.07641602 204.80444336 C-2.99826419 203.45927077 -4.79930301 202.07537882 -6.92358398 199.49194336 C-10.08487097 195.75649101 -13.34528089 192.14019893 -16.67358398 188.55444336 C-17.70745932 187.43727545 -18.74131326 186.32008774 -19.77514648 185.20288086 C-21.35268795 183.499842 -22.93046366 181.79702111 -24.50854492 180.09448242 C-26.02389788 178.45797695 -27.53649913 176.81896814 -29.04858398 175.17944336 C-30.38276367 173.73698242 -30.38276367 173.73698242 -31.74389648 172.26538086 C-35.90970408 167.5620497 -35.90970408 167.5620497 -35.96924019 164.31239223 C-35.23292181 157.04802163 -34.22227295 149.88031437 -32.95825195 142.68945312 C-32.66301636 140.97248985 -32.66301636 140.97248985 -32.36181641 139.22084045 C-31.93788251 136.7586413 -31.51166888 134.29683375 -31.08337021 131.83539009 C-30.406061 127.94000198 -29.73568707 124.04345603 -29.06765747 120.14646912 C-27.28867464 109.77642582 -25.49916746 99.40820634 -23.70267498 89.04118246 C-22.51825798 82.20616906 -21.33896462 75.37031693 -20.16948426 68.53273052 C-19.61519758 65.29404187 -19.05629291 62.05625379 -18.49120712 58.8194294 C-17.86271393 55.21885591 -17.24521101 51.61655652 -16.63012695 48.01367188 C-16.44108795 46.94711365 -16.25204895 45.88055542 -16.05728149 44.78167725 C-15.80908661 43.30807487 -15.80908661 43.30807487 -15.55587769 41.80470276 C-15.40876783 40.95472497 -15.26165798 40.10474718 -15.11009026 39.22901249 C-14.78757256 35.03630388 -15.6441619 31.77892482 -17.98999023 28.32397461 C-18.39282227 27.7174707 -18.7956543 27.1109668 -19.21069336 26.48608398 C-19.63157227 25.86926758 -20.05245117 25.25245117 -20.48608398 24.61694336 C-24.92358398 18.05159814 -24.92358398 18.05159814 -24.92358398 15.80444336 C-23.13525391 14.32397461 -23.13525391 14.32397461 -20.65405273 12.61694336 C-19.76524414 12.00077148 -18.87643555 11.38459961 -17.96069336 10.74975586 C-17.02032227 10.10780273 -16.07995117 9.46584961 -15.11108398 8.80444336 C-13.71792969 7.84151367 -13.71792969 7.84151367 -12.29663086 6.85913086 C-2.05659844 -0.20907924 -2.05659844 -0.20907924 0 0 Z " fill="#EE5354" transform="translate(158.923583984375,289.195556640625)"/>
<path d="M0 0 C1.46796021 0.00153328 1.46796021 0.00153328 2.96557617 0.00309753 C3.70525635 0.00441177 4.44493652 0.00572601 5.20703125 0.00708008 C5.20036942 1.00947472 5.20036942 1.00947472 5.193573 2.03211975 C5.1489421 9.05768674 5.11900175 16.08321273 5.09716797 23.10888672 C5.08717939 25.72251016 5.07358391 28.33612263 5.05615234 30.94970703 C4.72319279 66.97473969 4.72319279 66.97473969 22.453125 97.44458008 C30.02249402 104.80265308 41.70320163 112.50708008 52.609375 112.50708008 C57.53148112 111.55966717 61.85782869 108.90445904 66.23046875 106.53833008 C69.20703125 105.00708008 69.20703125 105.00708008 71.20703125 105.00708008 C73.75965048 131.43931192 73.75965048 131.43931192 66.75683594 140.34692383 C64.28071114 143.05287248 61.72859236 145.64712296 59.06689453 148.1706543 C56.17590018 151.02521711 53.7761609 154.20825766 51.33203125 157.44458008 C50.45243877 158.57498134 49.57098902 159.70394037 48.6875 160.83129883 C48.27290527 161.36287598 47.85831055 161.89445313 47.43115234 162.44213867 C45.51555881 164.89107257 43.58211913 167.32552904 41.64453125 169.75708008 C41.02449219 170.53567383 40.40445313 171.31426758 39.765625 172.11645508 C38.20703125 174.00708008 38.20703125 174.00708008 36.20703125 176.00708008 C24.42790263 161.58747907 24.42790263 161.58747907 20.28125 156.28442383 C19.60473389 155.42010742 19.60473389 155.42010742 18.91455078 154.53833008 C18.02022185 153.38478012 17.13454641 152.22447308 16.25732422 151.05786133 C14.0444759 148.15405743 11.8533455 145.61008406 9.078125 143.22973633 C3.23279981 137.94955419 0.98247233 134.02454681 0.51953125 125.96411133 C0.40732368 118.9611173 0.69137517 111.99043371 1.20703125 105.00708008 C0.58683105 104.70688965 -0.03336914 104.40669922 -0.67236328 104.09741211 C-12.36018443 98.08799359 -19.94035574 84.8320177 -23.8359375 72.78051758 C-25.1725214 67.72283392 -25.93233541 63.25655762 -25.79296875 58.00708008 C-26.76234375 58.06895508 -27.73171875 58.13083008 -28.73046875 58.19458008 C-36.47770879 58.13210234 -42.51457271 55.26712698 -48.0625 49.94067383 C-53.50819862 43.85575099 -54.47331583 38.23982471 -54.1640625 30.12426758 C-53.33693313 23.17638088 -50.73665684 19.50877973 -45.35546875 15.13208008 C-40.54122287 11.53186142 -36.54397786 9.7203865 -30.48046875 9.88208008 C-29.15595703 9.90915039 -29.15595703 9.90915039 -27.8046875 9.93676758 C-26.80888672 9.97157227 -26.80888672 9.97157227 -25.79296875 10.00708008 C-25.85484375 9.07895508 -25.91671875 8.15083008 -25.98046875 7.19458008 C-25.79296875 4.00708008 -25.79296875 4.00708008 -24.78125 2.35083008 C-21.69436871 0.26460775 -18.40450165 0.43026629 -14.79296875 0.31958008 C-13.73529297 0.26833984 -13.73529297 0.26833984 -12.65625 0.21606445 C-8.43676355 0.03046765 -4.22327762 -0.00574245 0 0 Z " fill="#FEBEAB" transform="translate(121.79296875,112.992919921875)"/>
<path d="M0 0 C-1.051875 0.85658203 -1.051875 0.85658203 -2.125 1.73046875 C-11.71175557 9.92349763 -19.03297751 19.44532634 -22 32 C-22.17185192 32.71751686 -22.34370384 33.43503372 -22.5207634 34.17429352 C-23.09501664 37.5602434 -23.13245409 40.77573452 -23.14044189 44.21130371 C-23.14341302 44.92666967 -23.14638414 45.64203563 -23.1494453 46.37907934 C-23.15810015 48.77030964 -23.15963779 51.16148968 -23.16113281 53.55273438 C-23.1657631 55.26947638 -23.17078804 56.98621736 -23.17617798 58.70295715 C-23.18927981 63.36193873 -23.19574208 68.02090592 -23.20018864 72.67990303 C-23.20312168 75.59045225 -23.20722683 78.50099755 -23.21169281 81.4115448 C-23.2253591 90.51781588 -23.23503119 99.62407798 -23.2388947 108.7303586 C-23.24337976 119.24350926 -23.26095204 129.75653019 -23.2898953 140.2696414 C-23.311495 148.39714433 -23.32159799 156.52461071 -23.32293582 164.65214205 C-23.32398466 169.50644197 -23.3299098 174.3606198 -23.34775543 179.21488953 C-23.36420753 183.77855006 -23.3664056 188.3419963 -23.35761642 192.90567589 C-23.35684463 194.58064535 -23.36120744 196.25562621 -23.37107468 197.93056679 C-23.38375416 200.21686638 -23.37793982 202.50240225 -23.36749268 204.78869629 C-23.36969252 206.70780697 -23.36969252 206.70780697 -23.3719368 208.66568756 C-22.96826573 212.28448908 -22.21743734 214.13922581 -20 217 C-16.93319201 218.82629794 -16.93319201 218.82629794 -14 220 C-14 220.33 -14 220.66 -14 221 C-18.44739413 221.07449251 -22.8944519 221.12876257 -27.34228516 221.16479492 C-28.85341727 221.17982543 -30.36450618 221.20025564 -31.87548828 221.22631836 C-34.05512187 221.26295689 -36.23417575 221.27978338 -38.4140625 221.29296875 C-40.37786865 221.31653442 -40.37786865 221.31653442 -42.38134766 221.34057617 C-47.05113183 220.90107078 -50.34118381 219.7046909 -53.64577675 216.30870914 C-55.47332332 213.19306815 -55.37754994 210.93356144 -55.38095093 207.32896423 C-55.3856309 206.65952162 -55.39031087 205.990079 -55.39513266 205.30035025 C-55.40709447 203.05802325 -55.39762094 200.81630611 -55.38818359 198.57397461 C-55.39224906 196.96563358 -55.39759079 195.35729534 -55.40411377 193.7489624 C-55.41780394 189.37869586 -55.4124797 185.00864154 -55.40297651 180.63837123 C-55.39537957 176.05908433 -55.40242647 171.47981557 -55.40713501 166.90052795 C-55.41259632 159.20261377 -55.40539514 151.50478585 -55.39111328 143.80688477 C-55.3748266 134.92625537 -55.3800447 126.04583303 -55.3965925 117.16520876 C-55.41024521 109.53103115 -55.41210736 101.89691559 -55.40427649 94.2627297 C-55.3996155 89.70781764 -55.39893076 85.15300256 -55.40888596 80.59809685 C-55.41760706 76.30771683 -55.4114406 72.01760089 -55.39420319 67.72724915 C-55.39026389 66.15962727 -55.3913281 64.59198286 -55.39799118 63.02437019 C-55.46299566 46.16485453 -52.15009871 32.75756674 -40.3125 20.31640625 C-39.549375 19.55199219 -38.78625 18.78757812 -38 18 C-37.360625 17.34902344 -36.72125 16.69804687 -36.0625 16.02734375 C-28.66560073 9.01569965 -19.22670834 5.41192996 -9.9375 1.5625 C-9.29417725 1.29107178 -8.65085449 1.01964355 -7.98803711 0.73999023 C-3.35425235 -1.11808412 -3.35425235 -1.11808412 0 0 Z " fill="#D8DCE5" transform="translate(55,274)"/>
<path d="M0 0 C13.83016181 -0.09040003 27.66012711 -0.16377351 41.49051762 -0.20724869 C47.91265409 -0.22811549 54.33457778 -0.2564173 60.7565918 -0.30175781 C66.95521064 -0.34524681 73.15362493 -0.36914394 79.35238457 -0.37950897 C81.71626442 -0.38689476 84.08013318 -0.40131745 86.44392586 -0.42292023 C89.75721479 -0.45199382 93.06966049 -0.45595421 96.38305664 -0.45410156 C97.35841873 -0.46848267 98.33378082 -0.48286377 99.33869934 -0.49768066 C106.31459395 -0.45552604 110.81769285 0.84734672 115.91259766 5.89477539 C117.31818265 8.61600561 117.38803429 10.62579272 117.3984375 13.68359375 C117.40230469 14.77607422 117.40617188 15.86855469 117.41015625 16.99414062 C117.39855469 18.13044922 117.38695312 19.26675781 117.375 20.4375 C117.38660156 21.56994141 117.39820313 22.70238281 117.41015625 23.86914062 C117.40628906 24.96291016 117.40242187 26.05667969 117.3984375 27.18359375 C117.39505371 28.17931396 117.39166992 29.17503418 117.38818359 30.20092773 C116.80494476 34.40648321 115.3051174 36.91358799 112.04911804 39.6239624 C107.53063513 41.66311021 103.32850306 41.39338196 98.42651367 41.34057617 C97.36264435 41.34101425 96.29877502 41.34145233 95.20266724 41.34190369 C91.69091353 41.33981591 88.17963892 41.31648466 84.66796875 41.29296875 C82.23131064 41.28737278 79.79464915 41.28310268 77.35798645 41.28010559 C70.94803532 41.26865702 64.53828845 41.2391894 58.12841797 41.20599365 C51.58629113 41.17529324 45.04413125 41.16160029 38.50195312 41.14648438 C25.66786461 41.11431995 12.83398126 41.0615516 0 41 C0 27.47 0 13.94 0 0 Z " fill="#D8DCE5" transform="translate(395,192)"/>
<path d="M0 0 C14.12547563 -0.06774559 28.25084357 -0.12279885 42.37644482 -0.15543652 C48.93535072 -0.17110002 55.49413983 -0.19235112 62.05297852 -0.22631836 C68.38125572 -0.25888688 74.7094205 -0.27684786 81.03777504 -0.28463173 C83.45353274 -0.2901797 85.86928422 -0.30101336 88.28499413 -0.31719017 C91.66563649 -0.33893064 95.04581278 -0.34196828 98.42651367 -0.34057617 C99.42776779 -0.351362 100.42902191 -0.36214783 101.46061707 -0.3732605 C106.43807973 -0.35104549 110.00295509 -0.32775468 114 3 C118.15498058 8.413463 117.47864787 13.95374752 117.4375 20.5 C117.45748047 21.62792969 117.47746094 22.75585938 117.49804688 23.91796875 C117.49321933 32.07652552 117.49321933 32.07652552 115.34765625 36.09375 C109.21698927 41.07172918 104.09669133 41.42431166 96.49658203 41.34057617 C95.45207382 41.34101425 94.40756561 41.34145233 93.33140564 41.34190369 C89.89001567 41.33981904 86.44911704 41.31650262 83.0078125 41.29296875 C80.61742418 41.28737166 78.2270324 41.2831021 75.8366394 41.28010559 C69.55328832 41.26866579 63.27014614 41.23920574 56.98687744 41.20599365 C50.57200954 41.17527431 44.1571078 41.16159625 37.7421875 41.14648438 C25.1613519 41.11433544 12.58072603 41.06157426 0 41 C0 27.47 0 13.94 0 0 Z " fill="#D8DCE5" transform="translate(395,18)"/>
<path d="M0 0 C1.49739583 1.26953125 2.99479167 2.5390625 4.4921875 3.80859375 C7.76785718 6.39688197 10.35799063 6.13626407 14.46658325 6.15821838 C15.47370041 6.16562535 15.47370041 6.16562535 16.50116336 6.17318195 C18.76135244 6.18859661 21.02151302 6.19692825 23.28173828 6.20532227 C24.89777885 6.21489768 26.5138169 6.22490756 28.12985229 6.23532104 C32.52627177 6.26241271 36.92270202 6.28339916 41.31915903 6.30332303 C45.91029238 6.32515635 50.50139234 6.35255799 55.09249878 6.37937927 C63.79057549 6.42934213 72.48867071 6.4742676 81.18678367 6.51740164 C91.08751013 6.56674335 100.9882031 6.62167282 110.88889718 6.67708123 C131.25923378 6.79095642 151.62960284 6.89758516 172 7 C172 15.58 172 24.16 172 33 C150.59033302 33.09259392 129.18071427 33.16397743 107.77088737 33.20724869 C97.82993631 33.22787428 87.88911194 33.25599486 77.94824219 33.30175781 C69.28381679 33.34162562 60.61948314 33.36743284 51.95496857 33.37635398 C47.36709938 33.38156882 42.77949268 33.39382553 38.19170761 33.42292023 C33.8726688 33.45008845 29.5540004 33.45844217 25.23488426 33.45243073 C23.65062764 33.45353034 22.06635851 33.46147602 20.48217583 33.4768219 C18.31618608 33.49677292 16.15158824 33.491922 13.98556519 33.48101807 C12.16871121 33.48654882 12.16871121 33.48654882 10.31515312 33.49219131 C6.30336064 32.89657194 4.15193119 31.50692737 1 29 C-2.76368156 23.77046352 -2.4183109 18.43782122 -2.3125 12.25 C-2.31572266 11.29222656 -2.31894531 10.33445312 -2.32226562 9.34765625 C-2.26734075 2.26734075 -2.26734075 2.26734075 0 0 Z " fill="#F3B538" transform="translate(279,113)"/>
<path d="M0 0 C0.66 0 1.32 0 2 0 C6.41189156 23.75992836 10.66033668 47.5335076 14.47900391 71.39648438 C14.76060962 73.15496915 15.04234697 74.91343285 15.32421875 76.671875 C15.53059967 77.95940674 15.53059967 77.95940674 15.7411499 79.27294922 C16.70903664 85.27795961 17.72475762 91.27353884 18.76953125 97.265625 C18.98225677 98.4881321 18.98225677 98.4881321 19.19927979 99.7353363 C19.86672811 103.56388194 20.54049974 107.39117676 21.22314453 111.21704102 C21.46010474 112.56784588 21.69692923 113.91867455 21.93359375 115.26953125 C22.14040771 116.43073486 22.34722168 117.59193848 22.56030273 118.78833008 C23.66840226 126.88219418 23.66840226 126.88219418 21.85546875 129.9140625 C21.30503906 130.47867188 20.75460938 131.04328125 20.1875 131.625 C19.55457031 132.29402344 18.92164063 132.96304688 18.26953125 133.65234375 C17.52058594 134.42707031 16.77164063 135.20179688 16 136 C15.08384081 136.99819326 14.1712802 137.9996974 13.26171875 139.00390625 C8.93951523 143.77257914 4.58077857 148.4771013 0 153 C-0.350625 152.319375 -0.70125 151.63875 -1.0625 150.9375 C-3.12664346 147.80799217 -5.42056796 145.49238226 -8.09765625 142.89453125 C-11.24727841 139.75784388 -14.13972401 136.4003281 -17 133 C-17.73863281 132.23300781 -18.47726563 131.46601563 -19.23828125 130.67578125 C-21.57835043 127.12157418 -21.18430336 125.47684609 -20.5 121.3125 C-20.3954248 120.63533936 -20.29084961 119.95817871 -20.18310547 119.26049805 C-19.94243959 117.71512522 -19.69156724 116.17132063 -19.43261719 114.62890625 C-18.95487138 111.7257647 -18.52562277 108.81770857 -18.1015625 105.90625 C-16.66221825 96.15671585 -15.10745802 86.45551522 -13.2265625 76.78125 C-10.43575815 62.3751343 -8.05528536 47.89695201 -5.62615967 33.42651367 C-4.99070351 29.64409053 -4.35264801 25.86210589 -3.71484375 22.08007812 C-2.47409002 14.72046684 -1.23610619 7.36039347 0 0 Z " fill="#FE6C6C" transform="translate(170,328)"/>
<path d="M0 0 C0.495 0.99 0.495 0.99 1 2 C0.2471875 2.1959375 -0.505625 2.391875 -1.28125 2.59375 C-24.15053092 9.03267375 -42.03522837 21.949419 -54.21484375 42.65234375 C-63.09821484 59.31109436 -64.51640491 76.50849924 -65 95 C-66.12535156 95.41894531 -67.25070313 95.83789062 -68.41015625 96.26953125 C-72.35295692 97.66759605 -72.35295692 97.66759605 -73.4375 101.6875 C-73.623125 102.780625 -73.80875 103.87375 -74 105 C-74.6290625 105.02578125 -75.258125 105.0515625 -75.90625 105.078125 C-83.56342492 105.58552816 -88.68179019 107.78786013 -95 112 C-95.07520671 106.72048923 -95.1290908 101.44130292 -95.16479492 96.16137695 C-95.17970825 94.37225907 -95.20004617 92.58317659 -95.22631836 90.79418945 C-95.61264305 63.77418633 -88.98507647 41.50701788 -69.76953125 21.68359375 C-50.15385971 2.67658903 -26.14851332 -0.81323128 0 0 Z " fill="#3E4B5A" transform="translate(170,18)"/>
<path d="M0 0 C2.30275556 1.8670991 3.67823871 3.35647741 5 6 C5.09603835 7.96157196 5.12630783 9.92647467 5.12698364 11.89039612 C5.12980347 13.14540924 5.13262329 14.40042236 5.13552856 15.69346619 C5.1335841 17.09194961 5.13153592 18.49043288 5.12939453 19.88891602 C5.13074892 21.35555057 5.13252907 22.82218479 5.13470459 24.28881836 C5.13927403 28.2783177 5.13749147 32.26779127 5.1343255 36.25729108 C5.13179987 40.42485961 5.13413997 44.59242589 5.13571167 48.75999451 C5.13753256 55.7585388 5.13512894 62.75707254 5.13037109 69.75561523 C5.1249265 77.85812873 5.12669288 85.96061707 5.1321975 94.06312996 C5.13672838 101.00920279 5.13737937 107.95526803 5.13475883 114.90134186 C5.13319619 119.05463476 5.13300198 123.20791581 5.13629532 127.36120796 C5.13917373 131.26403869 5.1371989 135.16683682 5.13140106 139.069664 C5.13007339 140.50603366 5.13046769 141.94240605 5.13266373 143.37877464 C5.13537488 145.33137797 5.13138072 147.28398726 5.12698364 149.23658752 C5.12660662 150.33184533 5.12622959 151.42710314 5.12584114 152.55555058 C5 155 5 155 4 156 C1.46950598 156.07313567 -1.03304837 156.09247527 -3.5625 156.0625 C-4.27341797 156.05798828 -4.98433594 156.05347656 -5.71679688 156.04882812 C-7.47790013 156.03700864 -9.23896036 156.01907263 -11 156 C-11.07009265 136.67646173 -11.12298944 117.35294928 -11.15543652 98.02931023 C-11.17090295 89.05693181 -11.1919882 80.0846324 -11.22631836 71.11230469 C-11.25622756 63.29168302 -11.27557663 55.47111857 -11.28226548 47.65044129 C-11.28617517 43.50974641 -11.29535879 39.36921524 -11.31719017 35.22857285 C-11.33757938 31.32980808 -11.34382891 27.43127418 -11.33932304 23.53246117 C-11.34014716 22.10301775 -11.34609844 20.67356648 -11.35761642 19.24416924 C-11.37259679 17.28888436 -11.36715345 15.33347513 -11.36076355 13.37814331 C-11.36352893 12.28489683 -11.36629431 11.19165035 -11.36914349 10.06527519 C-10.93834078 6.48799722 -9.85013612 4.07560784 -8 1 C-5.15916359 -0.42041821 -3.14522722 -0.31452272 0 0 Z " fill="#D8DCE5" transform="translate(60,339)"/>
<path d="M0 0 C7.2963677 -0.09190666 14.59072135 -0.17152676 21.88720703 -0.21972656 C24.36839611 -0.23982241 26.84953795 -0.26710384 29.33056641 -0.30175781 C32.90018382 -0.35036294 36.46917416 -0.37298972 40.0390625 -0.390625 C41.14553131 -0.41127014 42.25200012 -0.43191528 43.39199829 -0.45318604 C49.42930902 -0.45493884 53.33198259 -0.25791943 58 4 C62.50331826 8.62841044 61.51387529 14.28374623 61.5 20.375 C61.52835938 21.4990625 61.55671875 22.623125 61.5859375 23.78125 C61.607767 33.01512769 61.607767 33.01512769 58.71875 36.6640625 C54.68491203 40.12991754 52.09660675 41.25289615 46.77246094 41.22705078 C45.73168396 41.22689972 44.69090698 41.22674866 43.61859131 41.22659302 C41.94340424 41.21110916 41.94340424 41.21110916 40.234375 41.1953125 C39.08584045 41.1924826 37.93730591 41.18965271 36.75396729 41.18673706 C33.08587219 41.17554263 29.4180213 41.15043904 25.75 41.125 C23.26302436 41.11496926 20.77604489 41.10584358 18.2890625 41.09765625 C12.19253856 41.07730737 6.09654264 41.03815639 0 41 C0 27.47 0 13.94 0 0 Z " fill="#D8DCE5" transform="translate(451,105)"/>
<path d="M0 0 C7.56862529 2.11195491 14.82995156 4.77783373 22.125 7.6875 C23.176875 8.10322266 24.22875 8.51894531 25.3125 8.94726562 C27.87647075 9.96119951 30.43890532 10.97882834 33 12 C30.25116698 21.40369316 25.28856782 30.14611254 20.97973633 38.90551758 C19.86642824 41.18055262 18.76389999 43.46089397 17.67211914 45.74633789 C16.09399547 49.04807926 14.48275383 52.33166247 12.86328125 55.61328125 C12.38071365 56.63923904 11.89814606 57.66519684 11.4009552 58.72224426 C10.07946835 61.34994253 8.83966106 63.70508083 7 66 C3.30296857 67.2007019 1.43097654 67.71144597 -2.07421875 65.96875 C-2.60660156 65.4840625 -3.13898438 64.999375 -3.6875 64.5 C-5.25614846 63.0043119 -5.25614846 63.0043119 -7 62 C-9.17186336 62.2647669 -9.17186336 62.2647669 -11 63 C-10.67 61.68 -10.34 60.36 -10 59 C-10.57669434 58.72526855 -11.15338867 58.45053711 -11.74755859 58.16748047 C-15.60265418 56.16931582 -19.07219719 53.61076975 -22.625 51.125 C-23.40101563 50.59519531 -24.17703125 50.06539063 -24.9765625 49.51953125 C-26.0903125 48.74029297 -26.0903125 48.74029297 -27.2265625 47.9453125 C-27.90283691 47.47625488 -28.57911133 47.00719727 -29.27587891 46.52392578 C-31.18063641 44.84033808 -32.02113073 43.32614366 -33 41 C-27.1956459 33.51159732 -21.31610425 26.12198624 -15.15185547 18.92626953 C-9.90618622 12.77207977 -4.95314223 6.39022412 0 0 Z " fill="#D8DBE4" transform="translate(192,246)"/>
<path d="M0 0 C1.87476165 1.46862018 3.31134644 2.9351589 4.80981445 4.78759766 C5.37240967 5.47660156 5.93500488 6.16560547 6.51464844 6.87548828 C7.10576416 7.61476562 7.69687988 8.35404297 8.3059082 9.11572266 C8.92216064 9.875625 9.53841309 10.63552734 10.17333984 11.41845703 C15.77152039 18.34189458 21.28091158 25.33496087 26.7434082 32.36572266 C27.48075195 33.31189453 28.2180957 34.25806641 28.9777832 35.23291016 C30.56855737 37.27546419 32.15733111 39.31952081 33.7434082 41.36572266 C29.93057977 45.44251613 25.87767488 48.52379699 21.2434082 51.61572266 C19.81978846 52.57470127 18.39661808 53.53434727 16.97387695 54.49462891 C16.26537598 54.97174316 15.556875 55.44885742 14.8269043 55.94042969 C12.85424751 57.28989891 10.91393473 58.67403203 8.98168945 60.08056641 C8.40161133 60.49854492 7.8215332 60.91652344 7.22387695 61.34716797 C5.64877142 62.48607624 4.08062542 63.63459168 2.51293945 64.78369141 C-0.5052478 66.5077617 -1.86561531 67.14825569 -5.2565918 66.36572266 C-9.5935256 61.89618056 -11.96744414 56.24443592 -14.64331055 50.70166016 C-15.14578812 49.6726358 -15.64826569 48.64361145 -16.16596985 47.58340454 C-17.22360383 45.41461465 -18.27824516 43.24436313 -19.33007812 41.07275391 C-20.94309033 37.74279013 -22.5648238 34.41719103 -24.18823242 31.09228516 C-25.21543391 28.98315787 -26.24214368 26.87379102 -27.26831055 24.76416016 C-27.75369797 23.76726166 -28.23908539 22.77036316 -28.73918152 21.74325562 C-29.18667252 20.81864532 -29.63416351 19.89403503 -30.09521484 18.94140625 C-30.68667549 17.72159561 -30.68667549 17.72159561 -31.29008484 16.47714233 C-32.2565918 14.36572266 -32.2565918 14.36572266 -33.2565918 11.36572266 C-28.92265397 9.60035416 -24.58125454 7.85541433 -20.23168945 6.12890625 C-18.75322493 5.53875331 -17.27695202 4.94307878 -15.80297852 4.34179688 C-13.68366745 3.47837385 -11.55726459 2.63512321 -9.4284668 1.79541016 C-8.77102478 1.52260223 -8.11358276 1.24979431 -7.43621826 0.96871948 C-2.86121911 -0.80422452 -2.86121911 -0.80422452 0 0 Z " fill="#D8DBE4" transform="translate(124.256591796875,246.63427734375)"/>
<path d="M0 0 C3.83604679 0.62629335 5.33179583 1.75658102 8.0625 4.5 C8.67773914 7.35041428 8.67773914 7.35041428 8.66377258 10.71356201 C8.6706459 11.98959793 8.67751923 13.26563385 8.68460083 14.58033752 C8.66690614 15.99204079 8.64873211 17.40373812 8.63012695 18.81542969 C8.62871641 20.30368502 8.62950858 21.79194383 8.63233948 23.28019714 C8.63377484 27.3193923 8.60436634 31.35784597 8.56946969 35.39686871 C8.53822587 39.61823969 8.53527702 43.83962743 8.52934265 48.06109619 C8.51379835 56.05451086 8.47276211 64.04758385 8.4225952 72.04084802 C8.36671986 81.14108209 8.33921982 90.24133242 8.31411803 99.34169531 C8.26184662 118.06132933 8.17288666 136.78062469 8.0625 155.5 C3.1125 155.5 -1.8375 155.5 -6.9375 155.5 C-7.03005256 135.88116488 -7.10145615 116.26239132 -7.14474869 96.64338303 C-7.16538349 87.53415246 -7.19352156 78.42505994 -7.23925781 69.31591797 C-7.27909756 61.37738779 -7.30492613 53.43895758 -7.31385398 45.50033021 C-7.31907361 41.29592914 -7.33136046 37.09181408 -7.36042023 32.88750458 C-7.38754428 28.93124595 -7.39595121 24.97539147 -7.38993073 21.01904869 C-7.39103233 19.56617983 -7.39900447 18.11329764 -7.4143219 16.66050911 C-7.43419843 14.67829257 -7.42706013 12.6958598 -7.41851807 10.71356201 C-7.42220524 9.60372326 -7.42589241 8.49388451 -7.42969131 7.35041428 C-6.64326328 2.79599481 -4.51432761 0.76839619 0 0 Z " fill="#D8DCE5" transform="translate(258.9375,338.5)"/>
<path d="M0 0 C1.21538405 0.00138269 1.21538405 0.00138269 2.45532131 0.00279331 C3.38225292 0.00141865 4.30918453 0.00004398 5.26420498 -0.00137234 C6.80168392 0.00402058 6.80168392 0.00402058 8.37022305 0.00952244 C9.44326183 0.00937641 10.51630062 0.00923038 11.62185574 0.00907993 C15.18765656 0.00977959 18.75340589 0.01757445 22.31919765 0.02539158 C24.78399534 0.02725557 27.24879339 0.02867956 29.71359158 0.0296793 C36.21558045 0.03350596 42.71754716 0.0433375 49.21952724 0.05438328 C55.84844957 0.06513035 62.47737833 0.06917624 69.10630703 0.0742197 C82.12389649 0.08495964 95.14146364 0.10255763 108.1590414 0.12304783 C108.1590414 13.65304783 108.1590414 27.18304783 108.1590414 41.12304783 C72.5190414 41.12304783 36.8790414 41.12304783 0.1590414 41.12304783 C0.1590414 40.79304783 0.1590414 40.46304783 0.1590414 40.12304783 C35.4690414 40.12304783 70.7790414 40.12304783 107.1590414 40.12304783 C107.1590414 31.87304783 107.1590414 23.62304783 107.1590414 15.12304783 C104.02017422 15.14399509 100.88130703 15.16494236 97.64732265 15.18652439 C87.26581652 15.25286238 76.88430091 15.2970105 66.50263882 15.33029652 C60.20944393 15.35115336 53.91646658 15.37943693 47.62339687 15.42480564 C41.54796624 15.46833024 35.4727446 15.49219925 29.39717007 15.5025568 C27.08156451 15.50993621 24.76597013 15.52434648 22.45045376 15.54596806 C19.202025 15.57508907 15.95445511 15.57900007 12.7059164 15.57714939 C11.75285107 15.59153049 10.79978573 15.6059116 9.81783962 15.62072849 C2.84532297 15.57786635 -2.79972647 14.16427995 -7.8409586 9.12304783 C-7.8409586 6.12304783 -7.8409586 6.12304783 -5.4034586 3.49804783 C-4.5578336 2.71429783 -3.7122086 1.93054783 -2.8409586 1.12304783 C-1.8409586 0.12304783 -1.8409586 0.12304783 0 0 Z " fill="#FD6B6B" transform="translate(286.8409585952759,17.876952171325684)"/>
<path d="M0 0 C1.05426178 -0.00058411 2.10852356 -0.00116821 3.19473267 -0.00177002 C6.66873449 0.00100984 10.14187128 0.03209856 13.61572266 0.06347656 C16.02852917 0.07093927 18.44134175 0.07663206 20.85415649 0.08062744 C27.19676522 0.09588128 33.53900608 0.13516161 39.88146973 0.17944336 C46.35663883 0.22040106 52.83186753 0.23863957 59.30712891 0.25878906 C72.00650906 0.30165555 84.70561648 0.36990438 97.40478516 0.45410156 C97.40478516 5.40410156 97.40478516 10.35410156 97.40478516 15.45410156 C83.42701527 15.54677604 69.44931847 15.61785395 55.47130394 15.66135025 C48.98075891 15.68222615 42.49042406 15.71054459 36 15.75585938 C29.73654743 15.7993159 23.47329704 15.82323865 17.20970535 15.83361053 C14.81987958 15.84100216 12.43006488 15.85543617 10.04032516 15.87702179 C6.69330671 15.9060522 3.34712407 15.91005758 0 15.90820312 C-0.98830811 15.92258423 -1.97661621 15.93696533 -2.99487305 15.95178223 C-8.92078339 15.91624746 -11.96168148 15.16352346 -16.59521484 11.45410156 C-17.25521484 11.45410156 -17.91521484 11.45410156 -18.59521484 11.45410156 C-18.92521484 18.05410156 -19.25521484 24.65410156 -19.59521484 31.45410156 C-19.92521484 31.45410156 -20.25521484 31.45410156 -20.59521484 31.45410156 C-20.7121111 28.07939652 -20.78269418 24.70521726 -20.84521484 21.32910156 C-20.87873047 20.37777344 -20.91224609 19.42644531 -20.94677734 18.44628906 C-21.02803015 12.59608694 -20.72823783 8.95663323 -16.59521484 4.45410156 C-11.21142068 -0.16499907 -6.75918492 -0.09835449 0 0 Z " fill="#58A2FE" transform="translate(297.59521484375,191.5458984375)"/>
<path d="M0 0 C13.83011469 -0.09271621 27.66015533 -0.1637736 41.49051762 -0.20724869 C47.91265409 -0.22811549 54.33457778 -0.2564173 60.7565918 -0.30175781 C66.95521064 -0.34524681 73.15362493 -0.36914394 79.35238457 -0.37950897 C81.71626442 -0.38689476 84.08013318 -0.40131745 86.44392586 -0.42292023 C89.75721479 -0.45199382 93.06966049 -0.45595421 96.38305664 -0.45410156 C97.35841873 -0.46848267 98.33378082 -0.48286377 99.33869934 -0.49768066 C105.41987571 -0.46093274 109.03484323 0.41606281 114 4 C115.4375 6.25 115.4375 6.25 116 8 C113.58066865 11.28337826 111.80916036 13.48931046 108 15 C105.82113266 15.24609566 105.82113266 15.24609566 103.41888428 15.24050903 C102.50465698 15.24325836 101.59042969 15.24600769 100.64849854 15.24884033 C99.65299988 15.24164978 98.65750122 15.23445923 97.63183594 15.22705078 C96.05088135 15.22748886 96.05088135 15.22748886 94.43798828 15.22793579 C90.95336685 15.22654217 87.46895909 15.21097922 83.984375 15.1953125 C81.56870643 15.19158249 79.15303635 15.18873546 76.73736572 15.18673706 C70.37841619 15.17909968 64.01955798 15.15945018 57.66064453 15.1373291 C51.17221309 15.116873 44.68376689 15.10773584 38.1953125 15.09765625 C25.46350154 15.07620448 12.73175836 15.04206717 0 15 C0 10.05 0 5.1 0 0 Z " fill="#E3E9F7" transform="translate(395,192)"/>
<path d="M0 0 C14.1254498 -0.06947537 28.25085903 -0.12279888 42.37644482 -0.15543652 C48.93535072 -0.17110002 55.49413983 -0.19235112 62.05297852 -0.22631836 C68.38125572 -0.25888688 74.7094205 -0.27684786 81.03777504 -0.28463173 C83.45353274 -0.2901797 85.86928422 -0.30101336 88.28499413 -0.31719017 C91.66563649 -0.33893064 95.04581278 -0.34196828 98.42651367 -0.34057617 C99.42776779 -0.351362 100.42902191 -0.36214783 101.46061707 -0.3732605 C110.10944516 -0.33465976 110.10944516 -0.33465976 114 3 C115.3125 5.6875 115.3125 5.6875 116 8 C112.43616874 11.98785269 109.47338466 14.3680159 104.02015686 14.7215271 C102.0799557 14.73879442 100.1392842 14.72324739 98.19946289 14.68115234 C96.60322083 14.68246658 96.60322083 14.68246658 94.97473145 14.68380737 C91.47328118 14.67964242 87.97376996 14.63303821 84.47265625 14.5859375 C82.03886461 14.57474158 79.60505941 14.56620327 77.17124939 14.56021118 C70.7774802 14.53734461 64.38453383 14.4784381 57.99108887 14.4119873 C51.46227142 14.35051909 44.93332052 14.32318634 38.40429688 14.29296875 C25.60250384 14.22869439 12.80132045 14.12633966 0 14 C0 9.38 0 4.76 0 0 Z " fill="#E3E9F7" transform="translate(395,18)"/>
<path d="M0 0 C1.37671875 0.61488281 1.37671875 0.61488281 2.78125 1.2421875 C12.39783994 5.48723068 20.39591147 7.82176794 31 9 C31 27.15 31 45.3 31 64 C30.34 64 29.68 64 29 64 C27.33699433 62.05674708 25.78744561 60.1023145 24.25 58.0625 C19.79320845 52.26314635 15.22730959 46.57097534 10.5625 40.9375 C9.39707723 39.52999609 8.23170979 38.12244637 7.06640625 36.71484375 C6.57084229 36.11792725 6.07527832 35.52101074 5.56469727 34.90600586 C5.04834717 34.27702393 4.53199707 33.64804199 4 33 C3.28481201 32.23478027 2.56962402 31.46956055 1.83276367 30.68115234 C-0.45728314 27.33103991 -0.46417548 25.41360732 -0.390625 21.38671875 C-0.37773438 20.13955078 -0.36484375 18.89238281 -0.3515625 17.60742188 C-0.31804687 16.31384766 -0.28453125 15.02027344 -0.25 13.6875 C-0.23195313 12.37458984 -0.21390625 11.06167969 -0.1953125 9.70898438 C-0.14822786 6.47191512 -0.08247042 3.23632947 0 0 Z " fill="#F6AF9F" transform="translate(124,219)"/>
<path d="M0 0 C0.33 0 0.66 0 1 0 C1 2.97 1 5.94 1 9 C3.165625 8.8453125 3.165625 8.8453125 5.375 8.6875 C12.25944403 8.70700267 17.79091181 11.08927745 22.890625 15.71484375 C28.24780141 21.65714865 29.47966388 27.01105224 29.3046875 34.93359375 C28.644602 41.57676191 26.14723355 46.24767233 21.375 50.875 C17.07423533 54.31881529 12.48369329 56.33831755 7 57 C4.69 56.67 2.38 56.34 0 56 C0 37.52 0 19.04 0 0 Z " fill="#F6AF9F" transform="translate(218,114)"/>
<path d="M0 0 C2.41350108 0.93503657 4.21557129 2.13882878 6.29907227 3.67553711 C7.08475586 4.24981445 7.87043945 4.8240918 8.67993164 5.41577148 C9.49139648 6.0184082 10.30286133 6.62104492 11.13891602 7.24194336 C12.7545687 8.42845825 14.37044493 9.61466882 15.98657227 10.80053711 C16.69950439 11.32832764 17.41243652 11.85611816 18.14697266 12.39990234 C19.76145743 13.57516881 21.41485254 14.69673438 23.07641602 15.80444336 C21.59613247 19.9895382 19.50215878 23.38755929 17.01391602 27.05444336 C16.30106445 28.11147461 15.58821289 29.16850586 14.85375977 30.25756836 C13.07641602 32.80444336 13.07641602 32.80444336 12.07641602 33.80444336 C-8.93240647 36.35463475 -8.93240647 36.35463475 -15.88745117 32.80102539 C-18.98009725 30.05469673 -20.4492823 26.58457328 -21.92358398 22.80444336 C-22.47143555 21.90081055 -23.01928711 20.99717773 -23.58374023 20.06616211 C-24.92358398 17.80444336 -24.92358398 17.80444336 -24.92358398 15.80444336 C-23.13525391 14.32397461 -23.13525391 14.32397461 -20.65405273 12.61694336 C-19.76524414 12.00077148 -18.87643555 11.38459961 -17.96069336 10.74975586 C-17.02032227 10.10780273 -16.07995117 9.46584961 -15.11108398 8.80444336 C-14.18231445 8.16249023 -13.25354492 7.52053711 -12.29663086 6.85913086 C-2.05659844 -0.20907924 -2.05659844 -0.20907924 0 0 Z " fill="#D83A42" transform="translate(158.923583984375,289.195556640625)"/>
<path d="M0 0 C1.32451172 0.02707031 1.32451172 0.02707031 2.67578125 0.0546875 C3.67158203 0.08949219 3.67158203 0.08949219 4.6875 0.125 C5.23220221 6.2256647 4.47809746 9.30263769 0.87890625 14.265625 C-1.77282396 18.40406297 -1.94237385 23.33795876 -1.3125 28.125 C0.17275752 32.47518552 2.14103152 36.30529728 4.6875 40.125 C4.94510279 42.81952521 4.77650053 45.41048375 4.6875 48.125 C-3.12238151 48.62350308 -9.48717793 46.93446295 -15.625 41.9375 C-21.40851262 36.38486613 -23.51495112 31.67741657 -23.8125 23.625 C-23.54567707 16.62291941 -22.38204324 12.01128693 -17.21875 7.15625 C-11.75682242 2.71388223 -7.21142819 -0.19230475 0 0 Z " fill="#F6AF9F" transform="translate(91.3125,122.875)"/>
<path d="M0 0 C7.29569554 -0.0989918 14.59099877 -0.1715286 21.88720703 -0.21972656 C24.36839611 -0.23982241 26.84953795 -0.26710384 29.33056641 -0.30175781 C32.90018382 -0.35036294 36.46917416 -0.37298972 40.0390625 -0.390625 C41.14553131 -0.41127014 42.25200012 -0.43191528 43.39199829 -0.45318604 C49.56806246 -0.45497913 53.34088181 -0.21645819 58 4 C59.375 6.25 59.375 6.25 60 8 C53.61491091 14.73981627 53.61491091 14.73981627 48.58282471 15.24050903 C47.23713409 15.2338472 47.23713409 15.2338472 45.86425781 15.22705078 C44.84350159 15.22689972 43.82274536 15.22674866 42.77105713 15.22659302 C41.67613953 15.21627045 40.58122192 15.20594788 39.453125 15.1953125 C37.76361725 15.19106766 37.76361725 15.19106766 36.03997803 15.18673706 C32.44321054 15.17554374 28.84669221 15.15044037 25.25 15.125 C22.81120151 15.11496912 20.37239912 15.10584346 17.93359375 15.09765625 C11.95563319 15.07560712 5.97785884 15.04108277 0 15 C0 10.05 0 5.1 0 0 Z " fill="#E3E9F7" transform="translate(451,105)"/>
<path d="M0 0 C6 4 6 4 12 8 C10.51364884 12.21654356 8.38750841 15.62478605 5.875 19.3125 C5.15054688 20.38113281 4.42609375 21.44976562 3.6796875 22.55078125 C2.84824219 23.76314453 2.84824219 23.76314453 2 25 C-2.00557025 23.66480992 -2.90007375 21.71571857 -5.25 18.25 C-5.97703125 17.20328125 -6.7040625 16.1565625 -7.453125 15.078125 C-9 12 -9 12 -8.953125 9.27734375 C-7.8442277 6.62780636 -6.92031799 5.80536007 -4.5 4.3125 C-1.72985049 2.64721813 -1.72985049 2.64721813 0 0 Z " fill="#ED5354" transform="translate(170,297)"/>
<path d="M0 0 C4.4355055 2.21775275 5.27655096 3.24654595 7.234375 7.52734375 C9.54424153 14.98726985 8.53257198 22.19844781 5.265625 29.16015625 C4 31 4 31 0 34 C0 22.78 0 11.56 0 0 Z " fill="#FEBDAA" transform="translate(239,130)"/>
<path d="M0 0 C0.8353125 0.37125 0.8353125 0.37125 1.6875 0.75 C0.98625 1.141875 0.285 1.53375 -0.4375 1.9375 C-3.67324432 3.97742577 -6.41507782 6.25686929 -9.3125 8.75 C-7.925165 4.2096309 -5.3700603 -0.58054706 0 0 Z " fill="#F78A8D" transform="translate(287.3125,18.25)"/>
</svg>
