<?xml version="1.0" encoding="UTF-8"?>
<svg version="1.1" xmlns="http://www.w3.org/2000/svg" width="512" height="512">
<path d="M0 0 C0.81034698 -0.00979385 1.62069397 -0.01958771 2.45559692 -0.02967834 C20.3802129 -0.20171132 37.69767005 -0.04019745 55.21484375 4.23828125 C56.0951123 4.44727051 56.97538086 4.65625977 57.88232422 4.87158203 C84.37992794 11.33500264 110.07210198 22.84082516 131.21484375 40.23828125 C132.2203125 41.04265625 133.22578125 41.84703125 134.26171875 42.67578125 C153.16802612 58.02698193 169.22038713 75.98410413 181.21484375 97.23828125 C181.59705078 97.89924805 181.97925781 98.56021484 182.37304688 99.24121094 C199.13892773 128.42872302 207.69360035 161.44015866 207.58984375 195.05078125 C207.58896759 195.75661346 207.58809143 196.46244568 207.58718872 197.18966675 C207.37025805 250.83909776 185.55986803 298.73725605 148.65234375 337.05078125 C144.11054627 341.42841738 139.14793805 345.31627808 134.21484375 349.23828125 C133.24804688 350.03363281 132.28125 350.82898438 131.28515625 351.6484375 C122.20690278 358.93645015 112.38862878 364.61610657 102.21484375 370.23828125 C101.58046387 370.59003418 100.94608398 370.94178711 100.29248047 371.30419922 C97.27860692 372.97161058 94.2549387 374.6191745 91.21484375 376.23828125 C91.87484375 379.20828125 92.53484375 382.17828125 93.21484375 385.23828125 C93.97796875 385.15578125 94.74109375 385.07328125 95.52734375 384.98828125 C98.21484375 385.23828125 98.21484375 385.23828125 99.78361511 386.99079895 C101.16032723 389.15267305 102.00871317 391.02054014 102.80200195 393.44799805 C103.21511124 394.6927037 103.21511124 394.6927037 103.63656616 395.96255493 C103.92665558 396.8617868 104.216745 397.76101868 104.515625 398.6875 C104.82891754 399.63700531 105.14221008 400.58651062 105.46499634 401.56478882 C106.49255601 404.68293684 107.50992893 407.80430994 108.52734375 410.92578125 C109.95888141 415.28366024 111.39540279 419.63989077 112.83203125 423.99609375 C113.19528 425.09987869 113.55852875 426.20366364 113.93278503 427.34089661 C116.35201065 434.67673299 118.82597997 441.99174769 121.34765625 449.29296875 C121.671931 450.23318375 121.99620575 451.17339874 122.33030701 452.1421051 C123.57177537 455.73812524 124.81453042 459.33363216 126.06900024 462.92514038 C126.92370456 465.37276793 127.77099066 467.82285838 128.6171875 470.2734375 C128.86747711 470.98180756 129.11776672 471.69017761 129.37564087 472.42001343 C130.83765992 476.67628466 131.82507764 480.75018243 132.21484375 485.23828125 C131.15234375 487.17578125 131.15234375 487.17578125 129.21484375 488.23828125 C123.51105247 488.92239415 119.84119337 486.90352487 114.96484375 484.30078125 C114.18850586 483.90125244 113.41216797 483.50172363 112.61230469 483.09008789 C109.30500835 481.38756833 106.01269861 479.65687412 102.71875 477.92871094 C100.30574628 476.66788791 97.88562238 475.42159292 95.46484375 474.17578125 C94.72717773 473.78205322 93.98951172 473.3883252 93.22949219 472.98266602 C89.15739904 470.88904847 85.88828059 469.28356487 81.21484375 470.23828125 C77.38770352 473.8360748 75.38345308 478.61790207 73.17578125 483.3125 C72.80885162 484.07754349 72.441922 484.84258698 72.06387329 485.6308136 C70.89970657 488.05958429 69.7440882 490.49228131 68.58984375 492.92578125 C67.42765977 495.36958788 66.26358297 497.81242193 65.09439087 500.25288391 C64.36889562 501.76775683 63.64753485 503.28461824 62.93075562 504.80363464 C60.43928804 510.01383696 60.43928804 510.01383696 58.21484375 512.23828125 C54.58984375 512.36328125 54.58984375 512.36328125 51.21484375 512.23828125 C48.52474675 506.41631233 46.18238475 500.58165196 44.16210938 494.49658203 C43.88509689 493.67412994 43.60808441 492.85167786 43.32267761 492.00430298 C42.41809234 489.31541003 41.51960893 486.62452045 40.62109375 483.93359375 C39.98662621 482.0445264 39.35173111 480.15560259 38.71643066 478.26681519 C37.05054128 473.31084597 35.38963687 468.35322151 33.7300415 463.3951416 C31.07572726 455.46810463 28.41377696 447.5436289 25.75187683 439.61913681 C24.82870549 436.86851735 23.90764269 434.11719927 22.98693848 431.36575317 C22.41407524 429.6566725 21.84096383 427.94767499 21.26757812 426.23876953 C20.86377804 425.03427752 20.86377804 425.03427752 20.45182037 423.80545235 C18.70227942 418.61254461 16.86482161 413.4612229 14.89465332 408.34713745 C13.84895907 405.1032602 13.79245482 402.61739268 14.21484375 399.23828125 C14.87484375 398.24828125 15.53484375 397.25828125 16.21484375 396.23828125 C15.88484375 395.24828125 15.55484375 394.25828125 15.21484375 393.23828125 C12.57484375 393.23828125 9.93484375 393.23828125 7.21484375 393.23828125 C6.53336145 395.13007328 6.53336145 395.13007328 6.21484375 397.23828125 C6.87484375 397.89828125 7.53484375 398.55828125 8.21484375 399.23828125 C9.1528148 406.23712773 6.42086969 412.44034806 4.1484375 418.97265625 C3.71722528 420.23643369 3.28693332 421.50052544 2.85749817 422.76490784 C1.70629783 426.14539751 0.54189375 429.52119573 -0.62541199 432.8961525 C-1.83137813 436.38948098 -3.02572023 439.88678099 -4.22167969 443.38354492 C-6.83936657 451.02888429 -9.47630235 458.66750285 -12.11707306 466.30489349 C-13.15848894 469.31868092 -14.19706724 472.3334452 -15.23583984 475.34814453 C-17.32839424 481.41820365 -19.42878392 487.48550419 -21.53515625 493.55078125 C-21.85243683 494.46573364 -22.16971741 495.38068604 -22.49661255 496.32336426 C-23.37585067 498.85480025 -24.25928418 501.38472257 -25.14453125 503.9140625 C-25.40082809 504.65266006 -25.65712494 505.39125763 -25.92118835 506.15223694 C-27.66963498 511.12275998 -27.66963498 511.12275998 -28.78515625 512.23828125 C-32.03515625 512.80078125 -32.03515625 512.80078125 -35.78515625 512.23828125 C-41.58423714 504.41253195 -45.28962086 495.05654352 -49.42480469 486.26977539 C-50.40678756 484.18769602 -51.3963937 482.10937131 -52.38671875 480.03125 C-52.68365631 479.39374313 -52.98059387 478.75623627 -53.28652954 478.09941101 C-55.32100452 473.57950575 -55.32100452 473.57950575 -58.78515625 470.23828125 C-64.37683377 469.3308599 -68.25514157 471.62445625 -73.03515625 474.17578125 C-74.19966309 474.77507446 -74.19966309 474.77507446 -75.38769531 475.38647461 C-77.85964398 476.65897653 -80.32317635 477.9466087 -82.78515625 479.23828125 C-86.02816628 480.93971961 -89.278841 482.62497517 -92.53515625 484.30078125 C-93.64165527 484.89137329 -93.64165527 484.89137329 -94.77050781 485.49389648 C-98.93684481 487.63596837 -101.97909597 488.81472026 -106.78515625 488.23828125 C-108.72265625 487.17578125 -108.72265625 487.17578125 -109.78515625 485.23828125 C-109.31533288 479.64327152 -107.7657176 474.63330907 -105.96533203 469.3371582 C-105.67739777 468.47449341 -105.3894635 467.61182861 -105.09280396 466.72302246 C-104.14487021 463.88875413 -103.18804641 461.0575858 -102.23046875 458.2265625 C-101.56615854 456.25085488 -100.90217208 454.27503838 -100.23849487 452.29911804 C-98.84875335 448.16637833 -97.4544892 444.0351989 -96.05712891 439.9050293 C-94.26684057 434.61199406 -92.48882754 429.31492912 -90.71428108 424.0165987 C-89.3469373 419.93907374 -87.97265545 415.86391338 -86.59630966 411.78941917 C-85.93780485 409.83694351 -85.28157267 407.88369983 -84.62765884 405.92968178 C-83.71347082 403.20106473 -82.78987691 400.47581141 -81.86376953 397.7512207 C-81.59560425 396.94438339 -81.32743896 396.13754608 -81.05114746 395.30625916 C-78.55458035 388.02274069 -78.55458035 388.02274069 -75.78515625 385.23828125 C-73.09765625 384.98828125 -73.09765625 384.98828125 -70.78515625 385.23828125 C-70.12515625 382.26828125 -69.46515625 379.29828125 -68.78515625 376.23828125 C-69.65914062 375.77941528 -69.65914062 375.77941528 -70.55078125 375.3112793 C-121.09863181 348.63159127 -159.00871899 309.49317699 -176.74658203 254.24365234 C-189.81994071 211.00432886 -187.94336039 163.99850186 -171.27734375 122.00390625 C-169.12086893 118.00708904 -167.03429127 116.65465959 -162.78515625 115.23828125 C-160.40540515 112.20950712 -158.65327826 108.88962304 -158.96484375 104.98828125 C-159.11179687 104.24578125 -159.25875 103.50328125 -159.41015625 102.73828125 C-160.08277555 98.82485986 -159.49073917 97.00338776 -157.22265625 93.73828125 C-154.88029783 90.97353032 -153.99592537 90.30073136 -150.41015625 89.23828125 C-149.54390625 89.23828125 -148.67765625 89.23828125 -147.78515625 89.23828125 C-147.02793778 86.77732122 -146.79952575 85.04042433 -146.98828125 82.44140625 C-146.1707041 69.54884343 -125.58673721 54.30752467 -116.78515625 46.23828125 C-85.3088899 18.93730338 -41.87738033 0.42182891 0 0 Z " fill="#202124" transform="translate(244.78515625,-0.23828125)"/>
<path d="M0 0 C0.81034698 -0.00979385 1.62069397 -0.01958771 2.45559692 -0.02967834 C20.3802129 -0.20171132 37.69767005 -0.04019745 55.21484375 4.23828125 C56.0951123 4.44727051 56.97538086 4.65625977 57.88232422 4.87158203 C84.37992794 11.33500264 110.07210198 22.84082516 131.21484375 40.23828125 C132.2203125 41.04265625 133.22578125 41.84703125 134.26171875 42.67578125 C153.16802612 58.02698193 169.22038713 75.98410413 181.21484375 97.23828125 C181.59705078 97.89924805 181.97925781 98.56021484 182.37304688 99.24121094 C199.13892773 128.42872302 207.69360035 161.44015866 207.58984375 195.05078125 C207.58896759 195.75661346 207.58809143 196.46244568 207.58718872 197.18966675 C207.37025805 250.83909776 185.55986803 298.73725605 148.65234375 337.05078125 C144.11054627 341.42841738 139.14793805 345.31627808 134.21484375 349.23828125 C133.24804688 350.03363281 132.28125 350.82898438 131.28515625 351.6484375 C122.20690278 358.93645015 112.38862878 364.61610657 102.21484375 370.23828125 C101.58046387 370.59003418 100.94608398 370.94178711 100.29248047 371.30419922 C97.27860692 372.97161058 94.2549387 374.6191745 91.21484375 376.23828125 C91.87484375 379.20828125 92.53484375 382.17828125 93.21484375 385.23828125 C93.97796875 385.15578125 94.74109375 385.07328125 95.52734375 384.98828125 C98.21484375 385.23828125 98.21484375 385.23828125 99.78361511 386.99079895 C101.16032723 389.15267305 102.00871317 391.02054014 102.80200195 393.44799805 C103.21511124 394.6927037 103.21511124 394.6927037 103.63656616 395.96255493 C103.92665558 396.8617868 104.216745 397.76101868 104.515625 398.6875 C104.82891754 399.63700531 105.14221008 400.58651062 105.46499634 401.56478882 C106.49255601 404.68293684 107.50992893 407.80430994 108.52734375 410.92578125 C109.95888141 415.28366024 111.39540279 419.63989077 112.83203125 423.99609375 C113.19528 425.09987869 113.55852875 426.20366364 113.93278503 427.34089661 C116.35201065 434.67673299 118.82597997 441.99174769 121.34765625 449.29296875 C121.671931 450.23318375 121.99620575 451.17339874 122.33030701 452.1421051 C123.57177537 455.73812524 124.81453042 459.33363216 126.06900024 462.92514038 C126.92370456 465.37276793 127.77099066 467.82285838 128.6171875 470.2734375 C128.86747711 470.98180756 129.11776672 471.69017761 129.37564087 472.42001343 C130.83765992 476.67628466 131.82507764 480.75018243 132.21484375 485.23828125 C131.15234375 487.17578125 131.15234375 487.17578125 129.21484375 488.23828125 C123.51105247 488.92239415 119.84119337 486.90352487 114.96484375 484.30078125 C114.18850586 483.90125244 113.41216797 483.50172363 112.61230469 483.09008789 C109.30500835 481.38756833 106.01269861 479.65687412 102.71875 477.92871094 C100.30574628 476.66788791 97.88562238 475.42159292 95.46484375 474.17578125 C94.72717773 473.78205322 93.98951172 473.3883252 93.22949219 472.98266602 C89.15739904 470.88904847 85.88828059 469.28356487 81.21484375 470.23828125 C77.38770352 473.8360748 75.38345308 478.61790207 73.17578125 483.3125 C72.80885162 484.07754349 72.441922 484.84258698 72.06387329 485.6308136 C70.89970657 488.05958429 69.7440882 490.49228131 68.58984375 492.92578125 C67.42765977 495.36958788 66.26358297 497.81242193 65.09439087 500.25288391 C64.36889562 501.76775683 63.64753485 503.28461824 62.93075562 504.80363464 C60.43928804 510.01383696 60.43928804 510.01383696 58.21484375 512.23828125 C54.58984375 512.36328125 54.58984375 512.36328125 51.21484375 512.23828125 C48.52474675 506.41631233 46.18238475 500.58165196 44.16210938 494.49658203 C43.88509689 493.67412994 43.60808441 492.85167786 43.32267761 492.00430298 C42.41809234 489.31541003 41.51960893 486.62452045 40.62109375 483.93359375 C39.98662621 482.0445264 39.35173111 480.15560259 38.71643066 478.26681519 C37.05054128 473.31084597 35.38963687 468.35322151 33.7300415 463.3951416 C31.07572726 455.46810463 28.41377696 447.5436289 25.75187683 439.61913681 C24.82870549 436.86851735 23.90764269 434.11719927 22.98693848 431.36575317 C22.41407524 429.6566725 21.84096383 427.94767499 21.26757812 426.23876953 C20.86377804 425.03427752 20.86377804 425.03427752 20.45182037 423.80545235 C18.70227942 418.61254461 16.86482161 413.4612229 14.89465332 408.34713745 C13.84895907 405.1032602 13.79245482 402.61739268 14.21484375 399.23828125 C14.87484375 398.24828125 15.53484375 397.25828125 16.21484375 396.23828125 C15.88484375 395.24828125 15.55484375 394.25828125 15.21484375 393.23828125 C12.57484375 393.23828125 9.93484375 393.23828125 7.21484375 393.23828125 C6.53336145 395.13007328 6.53336145 395.13007328 6.21484375 397.23828125 C6.87484375 397.89828125 7.53484375 398.55828125 8.21484375 399.23828125 C9.1528148 406.23712773 6.42086969 412.44034806 4.1484375 418.97265625 C3.71722528 420.23643369 3.28693332 421.50052544 2.85749817 422.76490784 C1.70629783 426.14539751 0.54189375 429.52119573 -0.62541199 432.8961525 C-1.83137813 436.38948098 -3.02572023 439.88678099 -4.22167969 443.38354492 C-6.83936657 451.02888429 -9.47630235 458.66750285 -12.11707306 466.30489349 C-13.15848894 469.31868092 -14.19706724 472.3334452 -15.23583984 475.34814453 C-17.32839424 481.41820365 -19.42878392 487.48550419 -21.53515625 493.55078125 C-21.85243683 494.46573364 -22.16971741 495.38068604 -22.49661255 496.32336426 C-23.37585067 498.85480025 -24.25928418 501.38472257 -25.14453125 503.9140625 C-25.40082809 504.65266006 -25.65712494 505.39125763 -25.92118835 506.15223694 C-27.66963498 511.12275998 -27.66963498 511.12275998 -28.78515625 512.23828125 C-32.03515625 512.80078125 -32.03515625 512.80078125 -35.78515625 512.23828125 C-41.58423714 504.41253195 -45.28962086 495.05654352 -49.42480469 486.26977539 C-50.40678756 484.18769602 -51.3963937 482.10937131 -52.38671875 480.03125 C-52.68365631 479.39374313 -52.98059387 478.75623627 -53.28652954 478.09941101 C-55.32100452 473.57950575 -55.32100452 473.57950575 -58.78515625 470.23828125 C-64.37683377 469.3308599 -68.25514157 471.62445625 -73.03515625 474.17578125 C-74.19966309 474.77507446 -74.19966309 474.77507446 -75.38769531 475.38647461 C-77.85964398 476.65897653 -80.32317635 477.9466087 -82.78515625 479.23828125 C-86.02816628 480.93971961 -89.278841 482.62497517 -92.53515625 484.30078125 C-93.64165527 484.89137329 -93.64165527 484.89137329 -94.77050781 485.49389648 C-98.93684481 487.63596837 -101.97909597 488.81472026 -106.78515625 488.23828125 C-108.72265625 487.17578125 -108.72265625 487.17578125 -109.78515625 485.23828125 C-109.31533288 479.64327152 -107.7657176 474.63330907 -105.96533203 469.3371582 C-105.67739777 468.47449341 -105.3894635 467.61182861 -105.09280396 466.72302246 C-104.14487021 463.88875413 -103.18804641 461.0575858 -102.23046875 458.2265625 C-101.56615854 456.25085488 -100.90217208 454.27503838 -100.23849487 452.29911804 C-98.84875335 448.16637833 -97.4544892 444.0351989 -96.05712891 439.9050293 C-94.26684057 434.61199406 -92.48882754 429.31492912 -90.71428108 424.0165987 C-89.3469373 419.93907374 -87.97265545 415.86391338 -86.59630966 411.78941917 C-85.93780485 409.83694351 -85.28157267 407.88369983 -84.62765884 405.92968178 C-83.71347082 403.20106473 -82.78987691 400.47581141 -81.86376953 397.7512207 C-81.59560425 396.94438339 -81.32743896 396.13754608 -81.05114746 395.30625916 C-78.55458035 388.02274069 -78.55458035 388.02274069 -75.78515625 385.23828125 C-73.09765625 384.98828125 -73.09765625 384.98828125 -70.78515625 385.23828125 C-70.12515625 382.26828125 -69.46515625 379.29828125 -68.78515625 376.23828125 C-69.65914062 375.77941528 -69.65914062 375.77941528 -70.55078125 375.3112793 C-121.09863181 348.63159127 -159.00871899 309.49317699 -176.74658203 254.24365234 C-189.81994071 211.00432886 -187.94336039 163.99850186 -171.27734375 122.00390625 C-169.73788883 119.15067566 -168.59282589 117.81619159 -165.78515625 116.23828125 C-162.78126993 116.50333004 -161.9521135 117.071324 -159.78515625 119.23828125 C-159.25995996 124.14957631 -160.4994716 127.50062192 -162.41015625 131.98828125 C-165.40669612 139.4213272 -167.3243353 146.99380399 -169.09765625 154.80078125 C-169.3517627 155.9187207 -169.60586914 157.03666016 -169.86767578 158.18847656 C-171.74376498 166.65447253 -172.94542084 174.77961273 -173.05859375 183.44921875 C-173.07125778 184.32611359 -173.08392181 185.20300842 -173.0969696 186.10647583 C-173.32119855 205.38336076 -173.25558648 223.5996774 -167.78515625 242.23828125 C-167.48464355 243.30820313 -167.18413086 244.378125 -166.87451172 245.48046875 C-160.39531774 268.11680556 -150.58439985 289.79250403 -135.78515625 308.23828125 C-135.37120605 308.76212402 -134.95725586 309.2859668 -134.53076172 309.82568359 C-107.87614338 343.37005841 -69.3585839 369.25576357 -26.78515625 377.23828125 C-26.07359375 377.37218262 -25.36203125 377.50608398 -24.62890625 377.64404297 C-3.1216463 381.52390378 19.66096562 382.04048222 41.21484375 378.23828125 C43.02855469 377.98111328 43.02855469 377.98111328 44.87890625 377.71875 C80.51780653 372.09346533 113.25682478 353.87232089 139.21484375 329.23828125 C139.68776855 328.79258789 140.16069336 328.34689453 140.64794922 327.88769531 C171.99512631 298.16245157 194.24680119 253.0098945 195.60185242 209.53700256 C195.66517793 205.91840476 195.67790074 202.30193777 195.66088867 198.68286133 C195.65238224 195.93819885 195.68127187 193.19563075 195.71289062 190.45117188 C195.76187623 177.94502774 194.10275329 166.38556699 191.21484375 154.23828125 C190.83266142 152.57120568 190.45082373 150.90405105 190.06933594 149.23681641 C179.38320051 103.27611673 147.93829319 63.21054127 108.27783203 38.48535156 C95.51393631 30.76961436 82.35389431 24.92163075 68.21484375 20.23828125 C67.53309082 20.00270508 66.85133789 19.76712891 66.14892578 19.52441406 C20.92013721 3.98636908 -29.21159515 9.66478402 -71.78515625 30.23828125 C-96.52677512 42.59296186 -119.68188268 61.01510196 -135.56640625 83.75390625 C-137.78515625 86.23828125 -137.78515625 86.23828125 -140.421875 87.15625 C-143.13524053 87.25043294 -144.50995089 86.67081796 -146.78515625 85.23828125 C-147.38352277 78.47673953 -144.36723074 75.18117788 -140.2734375 70.19921875 C-105.47187666 29.91799775 -54.29871604 0.54694845 0 0 Z " fill="#1D1F23" transform="translate(244.78515625,-0.23828125)"/>
<path d="M0 0 C35.11385124 30.46137488 58.1953337 72.67973191 63.75 119 C63.92430996 122.0698974 63.98332503 125.13662984 64.0234375 128.2109375 C64.03605621 129.08796829 64.04867493 129.96499908 64.06167603 130.86860657 C64.2849547 150.12995106 64.23235634 168.37425359 58.75 187 C58.46592285 187.99402832 58.1818457 188.98805664 57.88916016 190.01220703 C49.11347188 220.06834482 34.32242848 246.29937796 12.75 269 C12.27191895 269.5053125 11.79383789 270.010625 11.30126953 270.53125 C-0.83738293 283.27894183 -14.09962834 293.08845644 -29.25 302 C-29.85537598 302.35835938 -30.46075195 302.71671875 -31.08447266 303.0859375 C-72.01700759 326.99602104 -123.02536994 332.2807846 -168.64453125 320.6796875 C-215.60732533 307.82152106 -257.49483661 276.76880369 -281.79223633 234.35327148 C-282.96501383 232.2457305 -284.11386944 230.12749933 -285.25 228 C-285.77303711 227.02788574 -285.77303711 227.02788574 -286.30664062 226.03613281 C-293.33784623 212.71986293 -298.03550966 198.41822277 -302.25 184 C-302.50861816 183.11876465 -302.76723633 182.2375293 -303.03369141 181.32958984 C-306.75206476 167.83936368 -306.62856457 154.01318614 -306.6875 140.125 C-306.69403595 139.20138672 -306.7005719 138.27777344 -306.70730591 137.32617188 C-306.7576203 125.49664201 -305.88374852 114.54609781 -303.25 103 C-302.92971031 101.42734333 -302.61044338 99.85447737 -302.29296875 98.28125 C-300.49915987 90.35245094 -298.31970879 82.86266413 -295.18041992 75.3515625 C-293.57110568 71.39846101 -292.79689192 68.26279309 -293.25 64 C-293.61996094 63.29230469 -293.98992187 62.58460937 -294.37109375 61.85546875 C-294.66113281 61.24316406 -294.95117188 60.63085938 -295.25 60 C-294.53515625 58.17578125 -294.53515625 58.17578125 -293.3125 56.3125 C-291.42253921 52.9725365 -291.10400104 51.25133105 -291.875 47.5 C-292.5476193 43.58657861 -291.95558292 41.76510651 -289.6875 38.5 C-287.36581243 35.75618742 -286.58734718 35.08433679 -283 34.1875 C-282.0925 34.125625 -281.185 34.06375 -280.25 34 C-279.59 33.01 -278.93 32.02 -278.25 31 C-277.321875 31.04125 -276.39375 31.0825 -275.4375 31.125 C-272.09623817 31.33337712 -272.09623817 31.33337712 -269.79296875 28.796875 C-267.52964706 26.30756881 -265.43595411 23.78189265 -263.375 21.125 C-243.36948239 -3.43622955 -217.49129898 -21.14644945 -188.25 -33 C-187.31671875 -33.39574219 -186.3834375 -33.79148437 -185.421875 -34.19921875 C-176.07317131 -37.91812132 -166.06928485 -39.93576891 -156.25 -42 C-155.4441748 -42.16951172 -154.63834961 -42.33902344 -153.80810547 -42.51367188 C-99.46156998 -53.4305421 -41.72928353 -35.5205457 0 0 Z M-199.25 4 C-199.92012422 7.2140814 -199.92012422 7.2140814 -199.25 10 C-200.013125 10.268125 -200.77625 10.53625 -201.5625 10.8125 C-204.19860118 11.97728889 -205.60331505 12.65997402 -207.25 15 C-207.188125 15.78375 -207.12625 16.5675 -207.0625 17.375 C-207.25 20 -207.25 20 -209.9375 22.8125 C-213.30299944 25.03499963 -214.383102 25.52255378 -218.25 25 C-221.83912412 25 -222.35857029 25.66436554 -224.9375 28 C-225.56011719 28.556875 -226.18273437 29.11375 -226.82421875 29.6875 C-227.29472656 30.120625 -227.76523438 30.55375 -228.25 31 C-228.58 30.67 -228.91 30.34 -229.25 30 C-231.59882763 29.54512965 -231.59882763 29.54512965 -234.25 30 C-257.95495399 49.02147954 -271.59324334 84.13357812 -277.25 113 C-277.47558594 114.07507813 -277.70117188 115.15015625 -277.93359375 116.2578125 C-284.77875379 154.68512475 -274.26485786 197.47948678 -252.26953125 229.4296875 C-246.23827544 237.84180498 -239.45780069 245.58113633 -232.25 253 C-231.72156494 253.55107422 -231.19312988 254.10214844 -230.64868164 254.66992188 C-203.42578628 282.59715625 -164.36966251 297.81515189 -125.75366211 298.35302734 C-112.67077069 298.45806341 -100.05208282 297.77573022 -87.25 295 C-86.23550781 294.80664062 -85.22101563 294.61328125 -84.17578125 294.4140625 C-55.21611036 288.19399372 -30.22902149 272.38217877 -9.25 252 C-8.69820068 251.47011475 -8.14640137 250.94022949 -7.57788086 250.39428711 C8.02690979 235.16763816 18.82725552 216.15786886 26.75 196 C27.29914063 194.69289062 27.29914063 194.69289062 27.859375 193.359375 C31.09512684 185.245105 32.69868887 176.74975972 34.32714844 168.19775391 C34.67859892 166.37110424 35.05837759 164.54993235 35.4453125 162.73046875 C42.47747624 125.73732569 31.46912816 84.75265477 10.95654297 53.75585938 C1.17850606 39.52606547 -10.44600322 26.39975909 -24.25 16 C-25.28382813 15.20078125 -26.31765625 14.4015625 -27.3828125 13.578125 C-71.77446238 -20.00051013 -152.48830353 -33.99387838 -199.25 4 Z " fill="#82DFE3" transform="translate(377.25,55)"/>
<path d="M0 0 C4.74921035 3.87439392 9.19278246 8.05253749 13.60107422 12.30615234 C14.31779297 12.97130859 15.03451172 13.63646484 15.77294922 14.32177734 C34.86060082 32.49322167 46.78702295 57.18673903 53.60107422 82.30615234 C54.11541016 84.18367188 54.11541016 84.18367188 54.64013672 86.09912109 C62.9546365 123.59207572 54.31038558 163.91038769 34.60107422 196.30615234 C18.23925824 221.37140401 18.23925824 221.37140401 7.60107422 226.30615234 C7.43748374 212.18087276 7.3145459 198.05574024 7.23838902 183.92970753 C7.20183932 177.37052902 7.15225462 170.81198635 7.07299805 164.25317383 C6.9970042 157.92484467 6.95509702 151.59712749 6.93693352 145.2683773 C6.92398781 142.85253957 6.89870764 140.43673578 6.86096382 138.02115822 C6.810227 134.6399125 6.80314741 131.26120308 6.80639648 127.87963867 C6.76864609 126.37775749 6.76864609 126.37775749 6.73013306 124.84553528 C6.7996988 118.16547629 6.7996988 118.16547629 9.16307449 115.63120174 C11.06221008 114.29949951 11.06221008 114.29949951 12.95943165 113.26910019 C14.8520938 112.34134776 14.8520938 112.34134776 16.01757812 109.83911133 C17.12185879 105.04542434 16.97020525 100.2663065 16.97607422 95.36865234 C17.00056641 94.29679687 17.02505859 93.22494141 17.05029297 92.12060547 C17.07282245 86.05641919 16.95702383 81.93713631 12.60107422 77.30615234 C8.45982581 74.2233513 5.35089081 73.91730921 0.24047852 73.8737793 C-0.48201584 73.86358765 -1.20451019 73.853396 -1.94889832 73.84289551 C-4.32424743 73.81283039 -6.69919285 73.80350981 -9.07470703 73.79443359 C-10.7266727 73.77758204 -12.37862559 73.75943115 -14.03056335 73.74003601 C-18.3689474 73.69258138 -22.70727959 73.66274279 -27.0458374 73.63659668 C-31.47678871 73.60676819 -35.90756147 73.56024573 -40.33837891 73.51513672 C-49.02514005 73.42915524 -57.71191753 73.36178717 -66.39892578 73.30615234 C-63.58326753 71.1459465 -60.92439311 69.48569008 -57.69580078 68.00146484 C-56.79732422 67.58251953 -55.89884766 67.16357422 -54.97314453 66.73193359 C-53.106191 65.87205043 -51.23900736 65.01266666 -49.37158203 64.15380859 C-37.28667579 58.79150944 -37.28667579 58.79150944 -29.24267578 48.84130859 C-27.33279226 43.10281598 -27.59517791 37.5904884 -29.58642578 31.93115234 C-33.03225121 26.94064655 -36.61917819 23.33976724 -42.39892578 21.30615234 C-48.89725366 20.39917713 -54.20643438 20.71220412 -59.58251953 24.66552734 C-66.25014555 30.68789924 -70.53182801 38.64342709 -75.11621094 46.26733398 C-79.63791568 53.77829265 -84.47040924 61.05770502 -89.39892578 68.30615234 C-93.49638712 66.9403319 -94.55135763 64.22563023 -96.64892578 60.68115234 C-97.53236581 59.23332979 -98.41791893 57.78679526 -99.30517578 56.34130859 C-99.79244141 55.5448291 -100.27970703 54.74834961 -100.78173828 53.92773438 C-103.84884119 48.9557309 -106.99013418 44.03276062 -110.14892578 39.11865234 C-110.77444336 38.12720215 -111.39996094 37.13575195 -112.04443359 36.11425781 C-116.22786532 29.6280502 -120.48938026 23.28353872 -128.39892578 21.30615234 C-134.99755584 20.44647167 -139.81286304 21.2786893 -145.48486328 24.80615234 C-149.16016502 27.6863888 -150.92044037 30.8706961 -152.39892578 35.30615234 C-153.15423253 41.88811112 -152.88084343 47.53994394 -149.16943359 53.17529297 C-143.48619468 60.01524185 -133.15633762 63.49065927 -125.27392578 67.18115234 C-124.22205078 67.67873047 -123.17017578 68.17630859 -122.08642578 68.68896484 C-119.52606193 69.89931866 -116.96359118 71.10494747 -114.39892578 72.30615234 C-114.39892578 72.63615234 -114.39892578 72.96615234 -114.39892578 73.30615234 C-115.31267975 73.30979797 -116.22643372 73.3134436 -117.1678772 73.31719971 C-125.78988548 73.3551063 -134.41151654 73.41198941 -143.03325844 73.49005508 C-147.46554647 73.52952154 -151.89763609 73.561714 -156.33007812 73.57714844 C-160.6097129 73.59232065 -164.88880215 73.62677578 -169.16819382 73.67446136 C-170.79876329 73.68926942 -172.42941065 73.69719303 -174.06004715 73.69803619 C-176.34888745 73.70040946 -178.63622451 73.7275148 -180.92480469 73.76025391 C-182.87672226 73.77357758 -182.87672226 73.77357758 -184.86807251 73.78717041 C-189.95181872 74.53440408 -193.13477053 76.66315089 -196.24902344 80.71069336 C-197.53867295 83.62157744 -197.78594969 85.65915803 -197.79736328 88.83349609 C-197.80123047 89.873125 -197.80509766 90.91275391 -197.80908203 91.98388672 C-197.79748047 93.05960937 -197.78587891 94.13533203 -197.77392578 95.24365234 C-197.78552734 96.31550781 -197.79712891 97.38736328 -197.80908203 98.49169922 C-197.815677 106.36697274 -197.815677 106.36697274 -194.39892578 113.30615234 C-192.87771622 114.0497702 -192.87771622 114.0497702 -191.32577515 114.80841064 C-188.39892578 117.30615234 -188.39892578 117.30615234 -187.85271072 119.40674591 C-187.65761068 122.20950109 -187.65746905 124.95701823 -187.71777344 127.76611328 C-187.7164592 129.36169823 -187.7164592 129.36169823 -187.71511841 130.98951721 C-187.71930026 134.50726629 -187.76598443 138.0231112 -187.81298828 141.54052734 C-187.82417819 143.97860675 -187.83271934 146.41669965 -187.8387146 148.85479736 C-187.86162853 155.2732668 -187.9205758 161.69092215 -187.98693848 168.10906982 C-188.04830459 174.65772488 -188.07571761 181.20651142 -188.10595703 187.75537109 C-188.17031492 200.60597893 -188.27157437 213.45602235 -188.39892578 226.30615234 C-210.04955665 212.19439833 -225.28117074 183.5697646 -232.39892578 159.30615234 C-232.63869141 158.50064941 -232.87845703 157.69514648 -233.12548828 156.86523438 C-236.88942726 143.58992063 -237.87366617 130.58497888 -237.89892578 116.86865234 C-237.90341736 116.12127808 -237.90790894 115.37390381 -237.91253662 114.60388184 C-237.99648458 80.287087 -225.21791006 47.28774049 -202.82861328 21.32568359 C-202.00619141 20.37048828 -201.18376953 19.41529297 -200.33642578 18.43115234 C-199.58232422 17.58810547 -198.82822266 16.74505859 -198.05126953 15.87646484 C-196.03985054 12.74759085 -196.33074108 10.95403377 -196.39892578 7.30615234 C-194.61093468 4.31167485 -192.34715553 2.16607072 -189.39892578 0.30615234 C-185.83642578 0.68115234 -185.83642578 0.68115234 -182.39892578 1.30615234 C-179.59426201 0.02737393 -178.50653256 -1.27781062 -176.39892578 -3.69384766 C-175.89626887 -6.90545461 -175.89626887 -6.90545461 -176.39892578 -9.69384766 C-171.94392578 -12.16884766 -171.94392578 -12.16884766 -167.39892578 -14.69384766 C-166.40892578 -13.70384766 -166.40892578 -13.70384766 -165.39892578 -12.69384766 C-160.16173011 -12.97357918 -156.10510622 -15.12738997 -151.52392578 -17.44384766 C-102.87135135 -40.977628 -42.34697477 -33.27536868 0 0 Z " fill="#FBDE7E" transform="translate(346.39892578125,78.69384765625)"/>
<path d="M0 0 C27.39 0 54.78 0 83 0 C83 29 83 29 78 35 C76.71417668 37.23923941 75.48303119 39.51089372 74.3125 41.8125 C71.21379833 47.89310083 71.21379833 47.89310083 69 49 C65.67877174 49.37230195 62.36050471 49.7180227 59.02929688 49.98632812 C54.19259948 50.49192184 51.44394027 51.55605973 48 55 C46.4452331 58.10953379 46.71355563 60.56266761 47 64 C49.24083197 68.68537594 52.29317191 71.05983196 56.3125 74.3125 C60.86005181 78.259935 60.86005181 78.259935 61.4609375 81.4375 C61.19329185 83.76219363 60.72622302 85.77886174 60 88 C58.5694057 93.16214447 58.06739446 97.95714978 60.3125 102.875 C62.62426241 105.78610822 64.30870918 106.89918676 68 107.4375 C73.39137193 107.05855575 73.39137193 107.05855575 83 102 C83 116.85 83 131.7 83 147 C72.99002599 147 65.49539711 146.23647932 56 144 C54.78183594 143.7215625 53.56367188 143.443125 52.30859375 143.15625 C37.16256293 139.42997306 22.24423851 133.28733586 9 125 C8.24735902 124.55907989 7.49471804 124.11815977 6.71926975 123.66387844 C0.50107006 119.54835358 0.50107006 119.54835358 -0.81625557 115.47769356 C-1.10792104 112.40880002 -1.11420576 109.45482959 -1.02172852 106.37329102 C-1.02304276 105.2213475 -1.02435699 104.06940399 -1.02571106 102.8825531 C-1.01945787 99.08809966 -0.9495391 95.29766152 -0.87890625 91.50390625 C-0.86211404 88.86834384 -0.84930577 86.23275328 -0.84031677 83.59715271 C-0.8124042 77.37765439 -0.73863687 71.15958923 -0.64817137 64.9407205 C-0.53748368 57.1619279 -0.48839283 49.38289981 -0.43945312 41.60351562 C-0.35193351 27.73456221 -0.1716375 13.86873356 0 0 Z " fill="#E9F1F4" transform="translate(168,196)"/>
<path d="M0 0 C27.39 0 54.78 0 83 0 C83.32130935 29.24807585 83.32130935 29.24807585 83.40203094 43.69347572 C83.44636671 51.50682066 83.50265382 59.31948253 83.60351562 67.13232422 C83.69186702 73.9793713 83.73826633 80.82567854 83.75901794 87.67325974 C83.77380723 90.28645849 83.8026878 92.89961648 83.84584045 95.51250076 C83.90387013 99.17149716 83.91191466 102.82743437 83.90820312 106.48681641 C83.95134644 108.10953964 83.95134644 108.10953964 83.99536133 109.76504517 C83.91643809 116.94966188 83.91643809 116.94966188 81.28991699 119.95994186 C79.25696317 121.51266954 77.24373235 122.77664932 75 124 C73.74712526 124.77872547 72.4955604 125.55956791 71.24609375 126.34375 C49.50900508 138.85921512 25.21286704 147 0 147 C0 132.15 0 117.3 0 102 C3.3 103.65 6.6 105.3 10 107 C14.7028408 107.61341402 16.89899778 107.6793418 20.9375 105.1875 C24.15839426 101.77140003 24.20999837 98.76032289 24.16796875 94.1875 C23.99665394 91.95642345 23.57669406 89.97203519 23 87.8125 C21.49419474 82.07161743 21.49419474 82.07161743 22 79 C23.91861506 76.93176817 25.71881133 75.2162323 27.875 73.4375 C32.60518051 69.44812503 35.63420307 66.87411875 36.4375 60.5625 C36.26998607 56.92766381 36.26998607 56.92766381 34.0625 54.1875 C29.62997684 51.02141203 24.95669152 49.99535841 19.51171875 50.00390625 C16.42298474 49.84538646 14.7117542 49.54896758 12 48 C8.62053125 43.71812598 6.29317381 38.70465919 4.00805664 33.77758789 C2.89202106 31.62574558 2.89202106 31.62574558 0 29 C0 19.43 0 9.86 0 0 Z " fill="#EAF1F4" transform="translate(261,196)"/>
<path d="M0 0 C0.73046875 2.06640625 0.73046875 2.06640625 1.1875 4.5625 C1.34605469 5.38878906 1.50460937 6.21507812 1.66796875 7.06640625 C1.83232422 8.02353516 1.83232422 8.02353516 2 9 C2.763125 8.9175 3.52625 8.835 4.3125 8.75 C7 9 7 9 8.56877136 10.7525177 C9.94548348 12.9143918 10.79386942 14.78225889 11.5871582 17.2097168 C11.86256439 18.03952057 12.13797058 18.86932434 12.42172241 19.72427368 C12.85685654 21.07312149 12.85685654 21.07312149 13.30078125 22.44921875 C13.61407379 23.39872406 13.92736633 24.34822937 14.25015259 25.32650757 C15.27771226 28.44465559 16.29508518 31.56602869 17.3125 34.6875 C18.74403766 39.04537899 20.18055904 43.40160952 21.6171875 47.7578125 C21.98043625 48.86159744 22.343685 49.96538239 22.71794128 51.10261536 C25.1371669 58.43845174 27.61113622 65.75346644 30.1328125 73.0546875 C30.45708725 73.9949025 30.781362 74.93511749 31.11546326 75.90382385 C32.35693162 79.49984399 33.59968667 83.09535091 34.85415649 86.68685913 C35.70886081 89.13448668 36.55614691 91.58457713 37.40234375 94.03515625 C37.65263336 94.74352631 37.90292297 95.45189636 38.16079712 96.18173218 C39.62281617 100.43800341 40.61023389 104.51190118 41 109 C39.9375 110.9375 39.9375 110.9375 38 112 C32.29620872 112.6841129 28.62634962 110.66524362 23.75 108.0625 C22.97366211 107.66297119 22.19732422 107.26344238 21.39746094 106.85180664 C18.0901646 105.14928708 14.79785486 103.41859287 11.50390625 101.69042969 C9.09090253 100.42960666 6.67077863 99.18331167 4.25 97.9375 C3.51233398 97.54377197 2.77466797 97.15004395 2.01464844 96.74438477 C-2.05744471 94.65076722 -5.32656316 93.04528362 -10 94 C-13.82714023 97.59779355 -15.83139067 102.37962082 -18.0390625 107.07421875 C-18.40599213 107.83926224 -18.77292175 108.60430573 -19.15097046 109.39253235 C-20.31513718 111.82130304 -21.47075555 114.25400006 -22.625 116.6875 C-23.78718398 119.13130663 -24.95126078 121.57414068 -26.12045288 124.01460266 C-26.84594813 125.52947558 -27.5673089 127.04633699 -28.28408813 128.56535339 C-30.77555571 133.77555571 -30.77555571 133.77555571 -33 136 C-36.625 136.125 -36.625 136.125 -40 136 C-42.690097 130.17803108 -45.032459 124.34337071 -47.05273438 118.25830078 C-47.32974686 117.43584869 -47.60675934 116.61339661 -47.89216614 115.76602173 C-48.79675141 113.07712878 -49.69523482 110.3862392 -50.59375 107.6953125 C-51.22821754 105.80624515 -51.86311264 103.91732134 -52.49841309 102.02853394 C-54.16430247 97.07256472 -55.82520688 92.11494026 -57.48480225 87.15686035 C-60.13911649 79.22982338 -62.80106679 71.30534765 -65.46296692 63.38085556 C-66.38613826 60.6302361 -67.30720106 57.87891802 -68.22790527 55.12747192 C-68.80076851 53.41839125 -69.37387992 51.70939374 -69.94726562 50.00048828 C-70.21646568 49.19749361 -70.48566574 48.39449894 -70.76302338 47.5671711 C-72.51256433 42.37426336 -74.35002214 37.22294165 -76.32019043 32.1088562 C-77.36588468 28.86497895 -77.42238893 26.37911143 -77 23 C-76.01 21.515 -76.01 21.515 -75 20 C-75.3121764 17.35367713 -75.3121764 17.35367713 -76 15 C-75.03964844 14.97421875 -74.07929688 14.9484375 -73.08984375 14.921875 C-50.93396718 14.09354077 -29.88614854 9.32155703 -9.30566406 1.19799805 C-8.53061523 0.89933838 -7.75556641 0.60067871 -6.95703125 0.29296875 C-6.26585205 0.0199292 -5.57467285 -0.25311035 -4.86254883 -0.53442383 C-3 -1 -3 -1 0 0 Z " fill="#FBDD7E" transform="translate(336,376)"/>
<path d="M0 0 C4.73346525 1.54275904 9.42491545 3.15319361 14.08203125 4.9140625 C19.92802558 7.04469421 25.8341559 8.65049768 31.875 10.125 C32.93219238 10.38434326 33.98938477 10.64368652 35.07861328 10.91088867 C48.40720233 14.12555145 61.34063783 15.41744583 75 16 C74.79375 16.94875 74.5875 17.8975 74.375 18.875 C74.189375 20.421875 74.189375 20.421875 74 22 C74.99 22.99 74.99 22.99 76 24 C76.93797105 30.99884648 74.20602594 37.20206681 71.93359375 43.734375 C71.50238153 44.99815244 71.07208957 46.26224419 70.64265442 47.52662659 C69.49145408 50.90711626 68.32705 54.28291448 67.15974426 57.65787125 C65.95377812 61.15119973 64.75943602 64.64849974 63.56347656 68.14526367 C60.94578968 75.79060304 58.3088539 83.4292216 55.66808319 91.06661224 C54.62666731 94.08039967 53.58808901 97.09516395 52.54931641 100.10986328 C50.45676201 106.1799224 48.35637233 112.24722294 46.25 118.3125 C45.93271942 119.22745239 45.61543884 120.14240479 45.2885437 121.08508301 C44.40930558 123.616519 43.52587207 126.14644132 42.640625 128.67578125 C42.38432816 129.41437881 42.12803131 130.15297638 41.8639679 130.91395569 C40.11552127 135.88447873 40.11552127 135.88447873 39 137 C35.75 137.5625 35.75 137.5625 32 137 C26.20091911 129.1742507 22.49553539 119.81826227 18.36035156 111.03149414 C17.37836869 108.94941477 16.38876255 106.87109006 15.3984375 104.79296875 C15.10149994 104.15546188 14.80456238 103.51795502 14.49862671 102.86112976 C12.46415173 98.3412245 12.46415173 98.3412245 9 95 C3.40832248 94.09257865 -0.46998532 96.386175 -5.25 98.9375 C-6.02633789 99.33702881 -6.80267578 99.73655762 -7.60253906 100.14819336 C-10.07448773 101.42069528 -12.5380201 102.70832745 -15 104 C-18.24301003 105.70143836 -21.49368475 107.38669392 -24.75 109.0625 C-25.48766602 109.45622803 -26.22533203 109.84995605 -26.98535156 110.25561523 C-31.15168856 112.39768712 -34.19393972 113.57643901 -39 113 C-40.9375 111.9375 -40.9375 111.9375 -42 110 C-41.53017663 104.40499027 -39.98056135 99.39502782 -38.18017578 94.09887695 C-37.89224152 93.23621216 -37.60430725 92.37354736 -37.30764771 91.48474121 C-36.35971396 88.65047288 -35.40289016 85.81930455 -34.4453125 82.98828125 C-33.78100229 81.01257363 -33.11701583 79.03675713 -32.45333862 77.06083679 C-31.0635971 72.92809708 -29.66933295 68.79691765 -28.27197266 64.66674805 C-26.48168432 59.37371281 -24.70367129 54.07664787 -22.92912483 48.77831745 C-21.56178105 44.70079249 -20.1874992 40.62563213 -18.81115341 36.55113792 C-18.1526486 34.59866226 -17.49641642 32.64541858 -16.84250259 30.69140053 C-15.92831457 27.96278348 -15.00472066 25.23753016 -14.07861328 22.51293945 C-13.67636536 21.30268349 -13.67636536 21.30268349 -13.26599121 20.06797791 C-10.7694241 12.78445944 -10.7694241 12.78445944 -8 10 C-5.3125 9.75 -5.3125 9.75 -3 10 C-2.86722656 9.36191406 -2.73445313 8.72382813 -2.59765625 8.06640625 C-2.42105469 7.24011719 -2.24445313 6.41382813 -2.0625 5.5625 C-1.88847656 4.73878906 -1.71445313 3.91507812 -1.53515625 3.06640625 C-1 1 -1 1 0 0 Z " fill="#FBDD7E" transform="translate(177,375)"/>
<path d="M0 0 C6.875 0.875 6.875 0.875 8 2 C7.7610336 11.11186501 4.40248643 19.46974785 1.46875 27.99609375 C0.91130797 29.63727945 0.35463903 31.27872793 -0.20129395 32.92042542 C-1.65913387 37.21810987 -3.12818007 41.51188247 -4.59942627 45.80499268 C-5.80204634 49.32042515 -6.99667014 52.83854946 -8.19089508 56.35684109 C-9.61429212 60.54996211 -11.04092653 64.74197815 -12.46875 68.93359375 C-12.74139175 69.73402037 -13.01403351 70.53444698 -13.29493713 71.35912895 C-14.06404359 73.61428016 -14.8353022 75.86868167 -15.60742188 78.12280273 C-15.83602402 78.79342743 -16.06462616 79.46405212 -16.30015564 80.15499878 C-17.10551029 82.50036447 -17.88958604 84.77917207 -19 87 C-18.00202393 86.47043701 -18.00202393 86.47043701 -16.98388672 85.93017578 C-13.95006642 84.32372488 -10.91259048 82.72430969 -7.875 81.125 C-6.30492187 80.29162109 -6.30492187 80.29162109 -4.703125 79.44140625 C-3.68476563 78.90644531 -2.66640625 78.37148438 -1.6171875 77.8203125 C-0.21895752 77.08192139 -0.21895752 77.08192139 1.20751953 76.32861328 C7.3651366 73.39892697 13.47875067 71.47921613 20.1484375 73.72265625 C28.70737607 77.65213177 31.71185605 85.00520799 35.6875 93.125 C36.18572266 94.12660156 36.68394531 95.12820313 37.19726562 96.16015625 C40.84481189 103.53443568 40.84481189 103.53443568 42 107 C42.31374825 106.07088554 42.31374825 106.07088554 42.63383484 105.1230011 C60.42094962 52.46119221 60.42094962 52.46119221 67.73770142 31.49105835 C68.28605014 29.91803786 68.83242838 28.34432905 69.37680054 26.76992798 C70.12168002 24.61796738 70.87400334 22.46877378 71.62890625 20.3203125 C72.2487439 18.54551514 72.2487439 18.54551514 72.88110352 16.73486328 C74 14 74 14 76 12 C79 11.75 79 11.75 82 12 C84 14 84 14 84.37915039 16.82910156 C84.19232201 22.71717522 81.84849304 28.22982688 79.93359375 33.734375 C79.50238153 34.99815244 79.07208957 36.26224419 78.64265442 37.52662659 C77.49145408 40.90711626 76.32705 44.28291448 75.15974426 47.65787125 C73.95377812 51.15119973 72.75943602 54.64849974 71.56347656 58.14526367 C68.94578968 65.79060304 66.3088539 73.4292216 63.66808319 81.06661224 C62.62666731 84.08039967 61.58808901 87.09516395 60.54931641 90.10986328 C58.45676201 96.1799224 56.35637233 102.24722294 54.25 108.3125 C53.93271942 109.22745239 53.61543884 110.14240479 53.2885437 111.08508301 C52.40930558 113.616519 51.52587207 116.14644132 50.640625 118.67578125 C50.38432816 119.41437881 50.12803131 120.15297638 49.8639679 120.91395569 C48.11552127 125.88447873 48.11552127 125.88447873 47 127 C43.75 127.5625 43.75 127.5625 40 127 C34.20091911 119.1742507 30.49553539 109.81826227 26.36035156 101.03149414 C25.37836869 98.94941477 24.38876255 96.87109006 23.3984375 94.79296875 C23.10149994 94.15546188 22.80456238 93.51795502 22.49862671 92.86112976 C20.46415173 88.3412245 20.46415173 88.3412245 17 85 C11.40832248 84.09257865 7.53001468 86.386175 2.75 88.9375 C1.97366211 89.33702881 1.19732422 89.73655762 0.39746094 90.14819336 C-2.07448773 91.42069528 -4.5380201 92.70832745 -7 94 C-10.24301003 95.70143836 -13.49368475 97.38669392 -16.75 99.0625 C-17.48766602 99.45622803 -18.22533203 99.84995605 -18.98535156 100.25561523 C-23.15168856 102.39768712 -26.19393972 103.57643901 -31 103 C-32.9375 101.9375 -32.9375 101.9375 -34 100 C-33.53017663 94.40499027 -31.98056135 89.39502782 -30.18017578 84.09887695 C-29.89224152 83.23621216 -29.60430725 82.37354736 -29.30764771 81.48474121 C-28.35971396 78.65047288 -27.40289016 75.81930455 -26.4453125 72.98828125 C-25.78100229 71.01257363 -25.11701583 69.03675713 -24.45333862 67.06083679 C-23.0635971 62.92809708 -21.66933295 58.79691765 -20.27197266 54.66674805 C-18.48168432 49.37371281 -16.70367129 44.07664787 -14.92912483 38.77831745 C-13.56178105 34.70079249 -12.1874992 30.62563213 -10.81115341 26.55113792 C-10.1526486 24.59866226 -9.49641642 22.64541858 -8.84250259 20.69140053 C-7.92831457 17.96278348 -7.00472066 15.23753016 -6.07861328 12.51293945 C-5.810448 11.70610214 -5.54228271 10.89926483 -5.26599121 10.06797791 C-3.95325637 6.23818762 -2.74067922 3.07677974 0 0 Z " fill="#1E1F21" transform="translate(169,385)"/>
<path d="M0 0 C2.26339408 2.55888652 3.53229988 4.98185801 4.5871582 8.2097168 C4.86256439 9.03952057 5.13797058 9.86932434 5.42172241 10.72427368 C5.71181183 11.62350555 6.00190125 12.52273743 6.30078125 13.44921875 C6.61407379 14.39872406 6.92736633 15.34822937 7.25015259 16.32650757 C8.27771226 19.44465559 9.29508518 22.56602869 10.3125 25.6875 C11.74403766 30.04537899 13.18055904 34.40160952 14.6171875 38.7578125 C14.98043625 39.86159744 15.343685 40.96538239 15.71794128 42.10261536 C18.1371669 49.43845174 20.61113622 56.75346644 23.1328125 64.0546875 C23.45708725 64.9949025 23.781362 65.93511749 24.11546326 66.90382385 C25.35693162 70.49984399 26.59968667 74.09535091 27.85415649 77.68685913 C28.70886081 80.13448668 29.55614691 82.58457713 30.40234375 85.03515625 C30.65263336 85.74352631 30.90292297 86.45189636 31.16079712 87.18173218 C32.62281617 91.43800341 33.61023389 95.51190118 34 100 C32.9375 101.9375 32.9375 101.9375 31 103 C25.29620872 103.6841129 21.62634962 101.66524362 16.75 99.0625 C15.97366211 98.66297119 15.19732422 98.26344238 14.39746094 97.85180664 C11.0901646 96.14928708 7.79785486 94.41859287 4.50390625 92.69042969 C2.09090253 91.42960666 -0.32922137 90.18331167 -2.75 88.9375 C-3.48766602 88.54377197 -4.22533203 88.15004395 -4.98535156 87.74438477 C-9.05744471 85.65076722 -12.32656316 84.04528362 -17 85 C-20.82714023 88.59779355 -22.83139067 93.37962082 -25.0390625 98.07421875 C-25.40599213 98.83926224 -25.77292175 99.60430573 -26.15097046 100.39253235 C-27.31513718 102.82130304 -28.47075555 105.25400006 -29.625 107.6875 C-30.78718398 110.13130663 -31.95126078 112.57414068 -33.12045288 115.01460266 C-33.84594813 116.52947558 -34.5673089 118.04633699 -35.28408813 119.56535339 C-37.77555571 124.77555571 -37.77555571 124.77555571 -40 127 C-43.625 127.125 -43.625 127.125 -47 127 C-49.690097 121.17803108 -52.032459 115.34337071 -54.05273438 109.25830078 C-54.32974686 108.43584869 -54.60675934 107.61339661 -54.89216614 106.76602173 C-55.79675141 104.07712878 -56.69523482 101.3862392 -57.59375 98.6953125 C-58.22821754 96.80624515 -58.86311264 94.91732134 -59.49841309 93.02853394 C-61.16430247 88.07256472 -62.82520688 83.11494026 -64.48480225 78.15686035 C-67.13911649 70.22982338 -69.80106679 62.30534765 -72.46296692 54.38085556 C-73.38613826 51.6302361 -74.30720106 48.87891802 -75.22790527 46.12747192 C-75.80077152 44.41839226 -76.37388304 42.70939479 -76.94726562 41.00048828 C-77.21646568 40.19744829 -77.48566574 39.3944083 -77.76302338 38.56703377 C-79.5118848 33.3759043 -81.349142 28.22668049 -83.32019043 23.11495972 C-84.3604119 19.87872034 -84.42981359 17.36687314 -84 14 C-82 12 -82 12 -79.0625 11.625 C-76 12 -76 12 -74.48754883 13.52679443 C-72.50122931 16.82925845 -71.33373931 20.30567575 -70.13671875 23.94628906 C-69.86799957 24.74356918 -69.5992804 25.5408493 -69.32241821 26.36228943 C-68.43714095 28.99445331 -67.56235821 31.62998173 -66.6875 34.265625 C-66.07189578 36.10185437 -65.45559303 37.93784968 -64.83862305 39.77362061 C-63.2156635 44.60826795 -61.60138014 49.44576706 -59.98913574 54.28399658 C-58.03515316 60.14317118 -56.07215107 65.99932817 -54.10926819 71.85552597 C-52.5805059 76.4165451 -51.05347172 80.97811391 -49.53198242 85.54156494 C-48.97575492 87.20642298 -48.4195215 88.87127904 -47.86328125 90.53613281 C-47.61695953 91.27719772 -47.37063782 92.01826263 -47.11685181 92.78178406 C-45.51685536 97.56435161 -43.7938916 102.28660039 -42 107 C-41.68772461 106.33468262 -41.37544922 105.66936523 -41.05371094 104.98388672 C-39.6240721 101.9452428 -38.18710975 98.91011728 -36.75 95.875 C-36.25886719 94.82828125 -35.76773438 93.7815625 -35.26171875 92.703125 C-27.67102387 76.71206111 -27.67102387 76.71206111 -19 73 C-11.56745288 71.84287036 -5.95620319 73.79648457 0.5625 77.1875 C1.34818359 77.57486328 2.13386719 77.96222656 2.94335938 78.36132812 C8.38808252 81.07248656 13.70478675 84.00925092 19 87 C18.4126709 85.3288916 18.4126709 85.3288916 17.81347656 83.62402344 C11.07919051 64.44938356 4.35159929 45.27012649 -2.14978027 26.01501465 C-2.67225975 24.47121857 -3.19786438 22.92847642 -3.72668457 21.38684082 C-4.4608108 19.24385632 -5.18312819 17.09724576 -5.90234375 14.94921875 C-6.30960693 13.74612061 -6.71687012 12.54302246 -7.13647461 11.3034668 C-8.00303128 7.98840364 -8.40299668 5.40339192 -8 2 C-4.77856724 -0.14762184 -3.7404533 -0.561068 0 0 Z " fill="#1E1E21" transform="translate(343,385)"/>
<path d="M0 0 C11.97803894 -0.02254967 23.9560639 -0.0409143 35.93411922 -0.05181217 C41.49539411 -0.05704134 47.05665379 -0.06413958 52.61791992 -0.07543945 C57.98007419 -0.08626715 63.34221378 -0.09227658 68.70437813 -0.09487724 C70.75500278 -0.09673171 72.8056266 -0.10035272 74.85624504 -0.10573006 C77.71790203 -0.11293893 80.57949757 -0.11399101 83.44116211 -0.11352539 C84.72617111 -0.1189183 84.72617111 -0.1189183 86.03713989 -0.12442017 C91.88594784 -0.11405216 91.88594784 -0.11405216 93 1 C93.25035974 4.30516934 93.18521952 7.62396041 93.1875 10.9375 C93.19974609 11.87013672 93.21199219 12.80277344 93.22460938 13.76367188 C93.22654297 14.65505859 93.22847656 15.54644531 93.23046875 16.46484375 C93.23457764 17.285896 93.23868652 18.10694824 93.24291992 18.95288086 C93 21 93 21 91 23 C88.10777447 23.18824486 85.3120186 23.25170246 82.41943359 23.22705078 C81.53156662 23.22734283 80.64369965 23.22763489 79.72892761 23.22793579 C76.78533253 23.22653907 73.84198853 23.21096184 70.8984375 23.1953125 C68.86105487 23.19158358 66.82367046 23.18873604 64.7862854 23.18673706 C59.41698275 23.17909104 54.04778784 23.15943425 48.67852783 23.1373291 C43.20236672 23.11689151 37.72618824 23.10773982 32.25 23.09765625 C21.49994498 23.07618925 10.74999829 23.04099923 0 23 C0 15.41 0 7.82 0 0 Z " fill="#EBF3F6" transform="translate(261,163)"/>
<path d="M0 0 C0.85667267 0.00359528 1.71334534 0.00719055 2.59597778 0.01089478 C3.4934523 0.01074875 4.39092682 0.01060272 5.31559753 0.01045227 C8.29702123 0.01115175 11.27838329 0.01894575 14.25979614 0.02676392 C16.32102932 0.02862797 18.38226293 0.03005193 20.4434967 0.03105164 C25.88017999 0.03487779 31.31683675 0.04470891 36.75350952 0.05575562 C42.29661704 0.06596764 47.83972882 0.07054881 53.38284302 0.07559204 C64.2676222 0.08633109 75.15237469 0.10392867 86.03713989 0.12442017 C86.03713989 7.71442017 86.03713989 15.30442017 86.03713989 23.12442017 C74.2067579 23.16953985 62.37643271 23.20626054 50.54598427 23.22804451 C45.05309487 23.23849779 39.5602672 23.25268509 34.06741333 23.27529907 C28.77008835 23.29697247 23.47282288 23.30897714 18.175457 23.31417465 C16.15077146 23.31788033 14.1260893 23.32511621 12.10142899 23.33588028 C9.27344887 23.3503221 6.44571713 23.35240119 3.6177063 23.35147095 C2.77397964 23.3586615 1.93025299 23.36585205 1.06095886 23.3732605 C-4.73475578 23.35252449 -4.73475578 23.35252449 -6.96286011 21.12442017 C-7.20578003 19.07730103 -7.20578003 19.07730103 -7.19332886 16.58926392 C-7.19139526 15.6978772 -7.18946167 14.80649048 -7.18746948 13.88809204 C-7.17522339 12.95545532 -7.16297729 12.0228186 -7.15036011 11.06192017 C-7.14971558 10.12541626 -7.14907104 9.18891235 -7.14840698 8.22402954 C-7.09489281 0.0125769 -7.09489281 0.0125769 0 0 Z " fill="#EBF3F6" transform="translate(164.96286010742188,162.87557983398438)"/>
<path d="M0 0 C0.66 0 1.32 0 2 0 C2.3853894 0.75676025 2.3853894 0.75676025 2.77856445 1.52880859 C3.94855257 3.81506492 5.13035073 6.09500977 6.3125 8.375 C6.71662109 9.1690625 7.12074219 9.963125 7.53710938 10.78125 C7.93349609 11.54179687 8.32988281 12.30234375 8.73828125 13.0859375 C9.09962158 13.7876709 9.46096191 14.4894043 9.83325195 15.21240234 C11.41877988 17.6416209 13.18558856 18.79467613 15.99291992 19.50244141 C16.73131104 19.61765137 17.46970215 19.73286133 18.23046875 19.8515625 C19.03291016 19.98046875 19.83535156 20.109375 20.66210938 20.2421875 C21.91217773 20.43167969 21.91217773 20.43167969 23.1875 20.625 C24.03248047 20.7590625 24.87746094 20.893125 25.74804688 21.03125 C27.83099945 21.36075662 29.91537427 21.68124989 32 22 C30.42369323 25.87321093 27.92252331 28.24735163 24.9375 31.125 C21.53546517 34.24105765 21.53546517 34.24105765 19 38 C18.98389829 39.59678322 19.03464373 41.1945399 19.12109375 42.7890625 C19.16943359 43.73007812 19.21777344 44.67109375 19.26757812 45.640625 C19.35168945 47.11789062 19.35168945 47.11789062 19.4375 48.625 C19.51581055 50.11386719 19.51581055 50.11386719 19.59570312 51.6328125 C19.72558949 54.08884568 19.86056164 56.5444936 20 59 C14.85357358 58.09117331 11.26385615 55.96605813 6.81640625 53.27734375 C3.45598959 51.75327129 1.65891116 51.49422274 -2 52 C-4.71349646 53.11846114 -7.21545431 54.52607952 -9.75 56 C-16.79054054 60 -16.79054054 60 -19 60 C-18.855625 58.99839844 -18.71125 57.99679687 -18.5625 56.96484375 C-18.37474993 55.62243078 -18.18726406 54.27998085 -18 52.9375 C-17.90460938 52.28072266 -17.80921875 51.62394531 -17.7109375 50.94726562 C-16.30891658 43.11708281 -16.30891658 43.11708281 -18.3203125 35.77734375 C-19.21363281 34.86662109 -19.21363281 34.86662109 -20.125 33.9375 C-20.75792969 33.27363281 -21.39085937 32.60976563 -22.04296875 31.92578125 C-23.83988292 30.15756032 -25.63777649 28.39036125 -27.4375 26.625 C-30 24 -30 24 -30 22 C-28.75863281 21.84144531 -27.51726562 21.68289062 -26.23828125 21.51953125 C-24.59619755 21.28494786 -22.95427852 21.04920978 -21.3125 20.8125 C-20.49587891 20.71130859 -19.67925781 20.61011719 -18.83789062 20.50585938 C-13.3659744 19.68617962 -10.47653329 18.58499318 -7 14 C-5.57372801 11.6267023 -4.35757755 9.19554702 -3.1875 6.6875 C-2.87619141 6.04232422 -2.56488281 5.39714844 -2.24414062 4.73242188 C-1.48676288 3.15940656 -0.74203942 1.58030874 0 0 Z " fill="#F9DB7D" transform="translate(255,234)"/>
<path d="M0 0 C5.94409267 3.04993445 8.57578155 7.42400126 11.9375 13.0625 C12.98296989 14.76829231 14.02854241 16.47402174 15.07421875 18.1796875 C15.57356934 19.00436523 16.07291992 19.82904297 16.58740234 20.67871094 C18.43219458 23.71021536 20.33497426 26.69990383 22.25 29.6875 C23.06210938 30.96173828 23.06210938 30.96173828 23.890625 32.26171875 C24.25671875 32.83535156 24.6228125 33.40898437 25 34 C24.01 34.495 24.01 34.495 23 35 C20.65157629 34.06356462 18.430131 33.06624185 16.1640625 31.95703125 C15.4883017 31.63216232 14.81254089 31.3072934 14.11630249 30.97257996 C12.6836997 30.28115136 11.25305181 29.58566009 9.82421875 28.88647461 C7.6462985 27.82290099 5.46058185 26.7768697 3.2734375 25.73242188 C1.88230422 25.05833961 0.49166276 24.38324125 -0.8984375 23.70703125 C-1.54960541 23.39643265 -2.20077332 23.08583405 -2.87167358 22.76582336 C-7.17620811 20.63954276 -11.07465834 18.53202941 -12.78515625 13.8515625 C-13.5165082 7.98014547 -13.5165082 7.98014547 -12.0078125 5.1171875 C-8.30441172 0.58106938 -5.75627343 -0.55348783 0 0 Z " fill="#F6D97C" transform="translate(216,109)"/>
<path d="M0 0 C2.70567626 1.82339052 4.53728718 3.07457436 6 6 C6.08984375 7.98828125 6.08984375 7.98828125 5.9375 10.3125 C5.90527344 11.07175781 5.87304688 11.83101562 5.83984375 12.61328125 C3.86318926 18.23065751 -1.83751941 20.53453982 -6.84375 23.04296875 C-9.05826015 24.10007401 -11.2771567 25.14803166 -13.5 26.1875 C-14.61503906 26.72052734 -15.73007812 27.25355469 -16.87890625 27.80273438 C-21.8655426 30.1652945 -26.73263011 32.33125114 -32 34 C-17.97748065 6.58198452 -17.97748065 6.58198452 -9.125 -0.5 C-5.7958051 -1.28333998 -3.30358085 -0.81140582 0 0 Z " fill="#F7DA7C" transform="translate(303,110)"/>
<path d="M0 0 C2.75 0.6875 2.75 0.6875 4.75 3.6875 C5.22700863 7.67761274 4.48328131 9.78910929 2.125 13 C-0.18735519 15.90962229 -0.73606497 16.58866634 -4.5 17.3125 C-7.25 16.6875 -7.25 16.6875 -9.25 14.6875 C-10.07953192 10.33245741 -9.02813276 7.86058083 -6.625 4.3125 C-4.31581 1.45063656 -3.70914038 0.78462585 0 0 Z " fill="#1D2024" transform="translate(94.25,89.3125)"/>
<path d="M0 0 C2.1875 1 2.1875 1 4.1875 3 C4.75 5.25 4.75 5.25 4.1875 8 C1.44151988 11.27820661 -1.33182481 13.69713462 -5.5625 14.5625 C-8.27120085 13.88532479 -9.33214322 13.38501925 -10.8125 11 C-10.97274683 8.03543366 -10.28005541 6.54131416 -8.3515625 4.30859375 C-3.77305684 0 -3.77305684 0 0 0 Z " fill="#222628" transform="translate(166.8125,67)"/>
</svg>
